<svg width="65" height="65" viewBox="0 0 65 65" fill="none" xmlns="http://www.w3.org/2000/svg">
<path d="M18.9892 53.2134C18.6809 53.2134 18.4336 53.4607 18.4336 53.769V56.6619C18.4336 56.9702 18.6809 57.2176 18.9892 57.2176C19.2974 57.2176 19.5448 56.9702 19.5448 56.6619V53.769C19.5448 53.4607 19.2974 53.2134 18.9892 53.2134Z" fill="black"/>
<path d="M24.3604 52.1483C24.0772 52.2666 23.941 52.5928 24.0593 52.876L25.167 55.5502C25.2853 55.8334 25.6115 55.9696 25.8947 55.8514C26.1779 55.7331 26.3141 55.4068 26.1958 55.1236L25.0882 52.4494C24.9663 52.1591 24.6365 52.0336 24.3604 52.1483Z" fill="black"/>
<path d="M28.8896 49.1164C28.6709 49.3351 28.6709 49.6863 28.8896 49.9014L30.9365 51.9447C31.1551 52.1634 31.5064 52.1634 31.7215 51.9447C31.9366 51.726 31.9402 51.3748 31.7215 51.1597L29.6746 49.1164C29.456 48.8977 29.1047 48.8977 28.8896 49.1164Z" fill="black"/>
<path d="M31.9382 44.5744C31.8199 44.8576 31.9562 45.1838 32.2393 45.3021L34.9135 46.4097C35.2003 46.528 35.523 46.3919 35.6413 46.1087C35.7596 45.8255 35.6233 45.4993 35.3401 45.381L32.6659 44.2733C32.3899 44.1586 32.0601 44.284 31.9382 44.5744Z" fill="black"/>
<path d="M36.4446 38.6634H33.5517C33.2435 38.6634 32.9961 38.9107 32.9961 39.2189C32.9961 39.5272 33.2435 39.7746 33.5517 39.7746H36.4446C36.7529 39.7746 37.0003 39.5272 37.0003 39.2189C37.0003 38.9107 36.7529 38.6634 36.4446 38.6634Z" fill="black"/>
<path d="M4.44855 38.6569H1.55565C1.24736 38.6569 1 38.9042 1 39.2125C1 39.5208 1.24736 39.7681 1.55565 39.7681H4.44855C4.75684 39.7681 5.0042 39.5208 5.0042 39.2125C5.0042 38.9042 4.75684 38.6569 4.44855 38.6569Z" fill="black"/>
<path d="M5.34453 44.269L2.67392 45.3767C2.39073 45.495 2.25447 45.8212 2.37277 46.1044C2.49107 46.3876 2.81729 46.5238 3.10048 46.4055L5.77109 45.2978C6.05428 45.1796 6.19053 44.8533 6.07224 44.5701C5.95036 44.2798 5.62055 44.1543 5.34453 44.269Z" fill="black"/>
<path d="M8.32513 49.1134L6.27826 51.1566C6.05959 51.3753 6.05959 51.7267 6.27826 51.9418C6.49693 52.1569 6.84821 52.1604 7.06329 51.9418L9.11016 49.8984C9.32883 49.6797 9.32883 49.3285 9.11016 49.1134C8.89149 48.8983 8.54021 48.8947 8.32513 49.1134Z" fill="black"/>
<path d="M12.9179 52.4456L11.8103 55.1198C11.692 55.403 11.8282 55.7292 12.1113 55.8475C12.3981 55.9694 12.7208 55.8296 12.8391 55.5464L13.9468 52.8722C14.0651 52.589 13.9288 52.2628 13.6456 52.1445C13.3696 52.0298 13.0398 52.1553 12.9179 52.4456Z" fill="black"/>
<path d="M27.8036 37.7563C28.5912 42.6086 25.2962 47.1807 20.4439 47.9684C15.5916 48.756 11.0194 45.4609 10.2318 40.6086C9.44416 35.7563 12.7393 31.1842 17.5916 30.3966C22.4439 29.609 27.0159 32.904 27.8036 37.7563Z" fill="#FBD187"/>
<path d="M20.3625 0.999878H17.5898V16.8897H20.3625V0.999878Z" fill="black"/>
<path d="M31.1006 39.2216C31.1006 36.3502 30.1005 33.7263 28.43 31.6543C25.9135 28.5392 24.6696 24.6425 24.3792 20.6814C24.3362 20.0792 23.8667 19.6347 23.268 19.6347H14.7435C14.1413 19.6347 13.6967 20.1007 13.6537 20.6814C13.3634 24.8218 11.6964 28.6933 9.22655 32.0988C7.47003 34.5006 6.57745 37.5727 7.00045 40.867C7.71381 46.2764 12.184 50.6354 17.5718 51.2376C24.8918 52.0836 31.1006 46.3624 31.1006 39.2216Z" fill="#F4A666"/>
<path d="M22.9867 19.6392L21.8754 16.1692C21.7428 15.7462 21.3629 15.4558 20.9183 15.4558H17.0899C16.6669 15.4558 16.2654 15.7462 16.1328 16.1692L15.0215 19.6392H22.9867Z" fill="black"/>
<path d="M41.2897 32.1669C42.3438 32.7188 43.9269 33.1351 45.8651 32.3273C45.8651 32.3273 47.6811 32.4018 48.5022 31.7506L41.2897 32.1669ZM43.4972 28.5483C39.4737 29.5775 39.8671 30.9639 39.9282 31.1358C39.9397 31.1358 39.9397 31.1472 39.9397 31.1472L49.2355 25.5903L43.4953 28.5464L43.4972 28.5483ZM43.4972 28.5483C39.4737 29.5775 39.8671 30.9639 39.9282 31.1358C39.9397 31.1358 39.9397 31.1472 39.9397 31.1472L49.2355 25.5903L43.4953 28.5464L43.4972 28.5483ZM45.8651 32.3254C45.8651 32.3254 47.6811 32.3999 48.5022 31.7487L41.2897 32.165C42.3438 32.7169 43.9269 33.1332 45.8651 32.3254Z" fill="#EAC386"/>
<path d="M61.6985 35.5142C58.437 33.5397 56.3269 31.147 56.3269 31.147C55.2346 28.6569 52.0704 25.5901 52.0704 25.5901C50.6974 24.6086 49.2366 25.5901 49.2366 25.5901L39.9408 31.147C39.9408 31.147 39.9408 31.1355 39.9293 31.1355C38.6537 29.9096 37.4889 31.1852 37.4889 31.1852C36.324 32.8408 38.1381 34.9146 38.1381 34.9146C36.9981 37.6128 39.2056 40.1888 39.2056 40.1888C41.033 43.1811 43.3761 49.2154 43.3761 49.2154C44.1724 53.0174 46.7732 55.876 46.7732 55.876C49.9126 59.678 49.7044 64.3393 49.7044 64.3393H63.6749C62.6457 61.5666 62.0441 57.4457 62.5215 53.7545C62.8767 51.0448 62.7297 47.3154 62.7297 47.3154C62.6438 45.4516 63.736 39.5396 63.736 39.5396C64.9257 37.0858 61.7004 35.5161 61.7004 35.5161L61.6985 35.5142ZM50.2067 36.9617C50.2067 36.9617 49.8763 38.2124 48.4766 39.108C48.0718 39.3658 47.5695 39.4517 47.1036 39.2913C43.7561 38.1265 43.5957 34.1527 41.2908 32.1648L48.5033 31.7485C48.5033 31.7485 49.4486 33.3927 50.0004 33.8834C50.0004 33.8834 51.1042 35.392 50.2086 36.9617H50.2067Z" fill="#EAC386"/>
<path d="M46.5524 37.4657L45.4734 38.5579C44.9941 39.0353 43.9286 38.7413 43.0827 37.8953L33.6264 28.4505C33.3324 28.1431 33.1357 27.7764 33.1242 27.469L33.002 25.5442C32.9772 25.189 33.1853 24.9675 33.5539 25.0038L35.4787 25.1145C35.7862 25.126 36.1528 25.3226 36.4469 25.6301L45.9031 35.0863C46.749 35.9208 47.0317 36.9883 46.5524 37.4657Z" fill="#90B63E"/>
<path d="M47.8405 39.4518C44.9799 39.1749 43.1906 34.8745 43.1906 34.8745C42.2779 32.5028 40.8132 32.0159 39.9615 31.1642L39.9424 31.1451C38.6688 29.8905 37.4886 31.1814 37.4886 31.1814C36.3257 32.8427 38.1341 34.9089 38.1341 34.9089C37.0036 37.5804 39.2034 40.187 39.2034 40.187" fill="#EAC386"/>
<path d="M39.4628 32.9763C39.4628 32.9763 38.9358 34.1297 38.2846 34.9012C38.0402 35.1704 37.156 33.3812 37.1312 32.9763C37.1312 32.9763 36.629 31.6644 37.5971 30.9044C37.5971 30.9044 37.8301 30.6829 38.2349 30.6715C39.289 30.6218 39.7683 32.0693 39.4609 32.9763H39.4628Z" fill="#E2F3F1"/>
<path d="M48.5198 31.756C47.8171 30.1939 48.6573 27.7936 50.607 27.467C49.4231 28.8343 49.3219 28.7732 48.5198 31.756Z" fill="#AD771F"/>
</svg>
