<svg width="66" height="65" viewBox="0 0 66 65" fill="none" xmlns="http://www.w3.org/2000/svg">
<path d="M65.0449 9.74106V44.0601C65.0449 46.5022 63.0615 48.5003 60.6048 48.5003H52.9832V57.4246C52.9832 59.3933 50.5998 60.384 49.1944 58.9933L38.7015 48.5003H4.48506C2.02832 48.5003 0.0449219 46.5022 0.0449219 44.0601V9.74106C0.0449219 7.28431 2.02832 5.3009 4.48506 5.3009H60.6048C63.0615 5.3009 65.0449 7.28431 65.0449 9.74106Z" fill="#CBE5F6"/>
<path d="M21.3894 24.9884C28.7219 17.4757 23.2785 11.538 23.2785 11.538C19.5442 8.02989 15.99 10.1432 15.99 10.1432C15.99 10.1432 11.6713 8.9284 11.1309 14.3718C11.1309 14.3718 10.1864 23.1432 15.3156 24.9884H21.3894Z" fill="black"/>
<path d="M22.5833 28.8504H13.7344L15.3596 23.2521H20.958L22.5833 28.8504Z" fill="#E0AA52"/>
<path d="M14.7312 14.5058C14.7312 14.5058 14.461 16.1248 20.0405 17.4296C20.0405 17.4296 22.6942 17.6998 23.4586 19.723C23.4586 19.723 24.4095 24.0249 18.6959 26.0041C18.1744 26.1843 17.6006 26.1256 17.1147 25.868C15.5627 25.047 12.3938 22.8227 13.1122 18.6423C13.1122 18.6423 13.2023 17.6977 14.2369 16.7531C14.2369 16.7531 14.8213 15.6745 14.7312 14.5037V14.5058Z" fill="#EAC386"/>
<path d="M25.1216 27.732L21.8124 26.178C21.8124 26.178 21.7517 28.5216 18.1598 28.5363C14.5678 28.5216 14.5071 26.178 14.5071 26.178L11.1979 27.732C10.5319 28.0462 9.96851 28.5342 9.56848 29.152C8.61343 30.6307 6.85621 33.544 6.2635 35.8269C5.9619 36.9872 6.23207 38.2271 6.93999 39.1927C7.67512 40.1938 8.91503 41.4148 10.668 41.5929H25.6515C27.3061 41.4253 28.504 40.3278 29.2497 39.3644C30.0916 38.2774 30.366 36.87 29.9806 35.5505C29.325 33.3136 27.6684 30.57 26.751 29.15C26.351 28.53 25.7876 28.042 25.1216 27.7299V27.732Z" fill="#E8B0C8"/>
<path d="M25.3247 31.3889H10.9654C10.2177 31.3889 9.61035 31.9942 9.61035 32.744V42.7679H26.6777V32.744C26.6777 31.9963 26.0724 31.3889 25.3226 31.3889H25.3247Z" fill="#63BBB2"/>
<path d="M27.6054 43.0568V43.8673C27.6054 44.0265 27.4735 44.1585 27.3143 44.1585H8.97567C8.80812 44.1585 8.68457 44.0265 8.68457 43.8673V43.0568C8.68457 42.8976 8.80812 42.7657 8.97567 42.7657H27.3143C27.4735 42.7657 27.6054 42.8976 27.6054 43.0568Z" fill="#0B4346"/>
<path d="M56.6061 28.0064L45.3046 39.3079L33.9885 28.0064C30.8762 24.8794 30.8762 19.8319 33.9885 16.705C37.1155 13.578 42.1776 13.578 45.3046 16.705C48.4169 13.578 53.4791 13.578 56.6061 16.705C59.733 19.8319 59.733 24.8794 56.6061 28.0064Z" fill="#CD5187"/>
</svg>
