<svg width="66" height="65" viewBox="0 0 66 65" fill="none" xmlns="http://www.w3.org/2000/svg">
<path d="M27.28 44.7659V48.53H19.8047V44.7659C21.0229 44.9693 22.2684 45.0768 23.5414 45.0768C24.8143 45.0768 26.0599 44.9693 27.2781 44.7659H27.28Z" fill="#AD771F"/>
<path d="M28.5665 62.2742C28.7014 63.7369 27.5517 64.9961 26.0891 64.9961H21.011C19.5347 64.9961 18.3967 63.7369 18.5199 62.2742L19.8065 48.53H27.2818L28.5685 62.2742H28.5665Z" fill="#D08E25"/>
<path d="M46.0886 22.5452C46.0886 34.9891 36.0009 45.0768 23.5433 45.0768C11.0857 45.0768 0.998047 34.9891 0.998047 22.5452C0.998047 10.1013 11.0994 0 23.5433 0C35.9872 0 46.0886 10.0877 46.0886 22.5452Z" fill="#DF90B2"/>
<path d="M40.7796 22.5452C40.7796 32.0502 33.0481 39.7837 23.5412 39.7837C14.0342 39.7837 6.30273 32.0522 6.30273 22.5452C6.30273 13.0383 14.0342 5.29309 23.5412 5.29309C33.0481 5.29309 40.7796 13.0383 40.7796 22.5452Z" fill="#CBE5F6"/>
<path d="M35.4843 22.5452C35.4843 29.127 30.1227 34.4749 23.541 34.4749C16.9592 34.4749 11.6113 29.127 11.6113 22.5452C11.6113 15.9635 16.9592 10.6019 23.541 10.6019C30.1227 10.6019 35.4843 15.9635 35.4843 22.5452Z" fill="#62B0E4"/>
<path d="M28.85 22.5452C28.85 25.4704 26.4664 27.8404 23.5412 27.8404C20.616 27.8404 18.2324 25.4704 18.2324 22.5452C18.2324 19.62 20.616 17.2365 23.5412 17.2365C26.4664 17.2365 28.85 19.62 28.85 22.5452Z" fill="#CD5187"/>
<path d="M65.9982 17.5649H56.9331L52.1934 22.3047L56.9331 27.0445H65.9982L61.2584 22.3047L65.9982 17.5649Z" fill="#8ECDC7"/>
<path d="M64.1798 23.6599H23.567C22.82 23.6599 22.2119 23.0537 22.2119 22.3048C22.2119 21.5559 22.8181 20.9517 23.567 20.9517H64.1798C64.9267 20.9517 65.5348 21.5578 65.5348 22.3048C65.5348 23.0517 64.9287 23.6599 64.1798 23.6599Z" fill="#D08E25"/>
<path d="M61.1342 1.00494L52.3214 4.65362L49.623 11.1689L56.1383 13.8673L64.9491 10.2186L58.4339 7.52021L61.1342 1.00494Z" fill="#8ECDC7"/>
<path d="M61.5015 7.74112L23.9801 23.2843C23.2899 23.5697 22.4979 23.2432 22.2105 22.551C21.9231 21.8588 22.2516 21.0688 22.9438 20.7814L60.4651 5.23825C61.1554 4.95277 61.9473 5.27931 62.2347 5.97151C62.5202 6.66175 62.1937 7.45368 61.5015 7.74112Z" fill="#D08E25"/>
</svg>
