<svg width="65" height="65" viewBox="0 0 65 65" fill="none" xmlns="http://www.w3.org/2000/svg">
<path d="M28.8141 53.0426L22.722 64.9978H15.4629L21.5572 53.0426H28.8141Z" fill="#18969C"/>
<path d="M48.6787 64.9978H41.4218L35.3145 53.0426H42.5866L48.6787 64.9978Z" fill="#18969C"/>
<path d="M64.1275 14.3545V48.979C64.1275 51.2278 62.3128 53.0404 60.0661 53.0404H4.06141C1.82785 53.0404 0 51.2256 0 48.979V14.3545C0 12.1057 1.82785 10.2931 4.06141 10.2931H60.0661C62.3149 10.2931 64.1275 12.1079 64.1275 14.3545Z" fill="#1F4743"/>
<path d="M58.1033 14.7078H6.0401C5.29201 14.7078 4.68555 15.3143 4.68555 16.0624V47.2733C4.68555 48.0213 5.29201 48.6278 6.0401 48.6278H58.1033C58.8514 48.6278 59.4579 48.0213 59.4579 47.2733V16.0624C59.4579 15.3143 58.8514 14.7078 58.1033 14.7078Z" fill="white"/>
<path d="M46.5668 18.3068H9.38379V45.0266H54.7529V18.3068H46.5647H46.5668ZM38.3786 18.9437H45.9278V22.654H38.3786V18.9437ZM45.9278 27.0011H38.3786V23.2909H45.9278V27.0011ZM45.9278 31.3483H38.3786V27.638H45.9278V31.3483ZM45.9278 35.6954H38.3786V31.9852H45.9278V35.6954ZM45.9278 40.0426H38.3786V36.3323H45.9278V40.0426ZM22.0043 36.3323H29.5534V40.0426H22.0043V36.3323ZM22.0043 31.9852H29.5534V35.6954H22.0043V31.9852ZM22.0043 27.638H29.5534V31.3483H22.0043V27.638ZM22.0043 23.2909H29.5534V27.0011H22.0043V23.2909ZM37.7395 27.0011H30.1903V23.2909H37.7395V27.0011ZM37.7395 31.3483H30.1903V27.638H37.7395V31.3483ZM37.7395 35.6954H30.1903V31.9852H37.7395V35.6954ZM30.1903 36.3323H37.7395V40.0426H30.1903V36.3323ZM30.1903 18.9437H37.7395V22.654H30.1903V18.9437ZM22.0021 18.9437H29.5512V22.654H22.0021V18.9437ZM10.0185 18.9437H21.3652V22.654H10.0185V18.9437ZM10.0185 23.2909H21.3652V27.0011H10.0185V23.2909ZM10.0185 27.638H21.3652V31.3483H10.0185V27.638ZM10.0185 31.9852H21.3652V35.6954H10.0185V31.9852ZM10.0185 36.3323H21.3652V40.0426H10.0185V36.3323ZM21.3652 44.3897H10.0185V40.6795H21.3652V44.3897ZM29.5534 44.3897H22.0043V40.6795H29.5534V44.3897ZM37.7395 44.3897H30.1903V40.6795H37.7395V44.3897ZM45.9278 44.3897H38.3786V40.6795H45.9278V44.3897ZM54.116 44.3897H46.5668V40.6795H54.116V44.3897ZM54.116 40.0426H46.5668V36.3323H54.116V40.0426ZM54.116 35.6954H46.5668V31.9852H54.116V35.6954ZM54.116 31.3483H46.5668V27.638H54.116V31.3483ZM54.116 27.0011H46.5668V23.2909H54.116V27.0011ZM46.5668 22.654V18.9437H54.116V22.654H46.5668Z" fill="black"/>
<path d="M18.388 21.2624H29.9768C30.0968 21.2624 30.1949 21.3605 30.1949 21.4805V29.1431C30.1949 29.2042 30.1469 29.2522 30.0859 29.2522H18.279C18.2179 29.2522 18.1699 29.2042 18.1699 29.1431V21.4805C18.1699 21.3605 18.2681 21.2624 18.388 21.2624Z" fill="#A3C658"/>
<path d="M28.7516 23.882H19.608C19.451 23.882 19.3223 23.7533 19.3223 23.5963C19.3223 23.4392 19.451 23.3105 19.608 23.3105H28.7516C28.9087 23.3105 29.0374 23.4392 29.0374 23.5963C29.0374 23.7533 28.9087 23.882 28.7516 23.882Z" fill="#18969C"/>
<path d="M28.7519 25.5419H21.9313C21.7742 25.5419 21.6455 25.4132 21.6455 25.2562C21.6455 25.0991 21.7742 24.9705 21.9313 24.9705H28.7519C28.9089 24.9705 29.0376 25.0991 29.0376 25.2562C29.0376 25.4132 28.9089 25.5419 28.7519 25.5419Z" fill="#18969C"/>
<path d="M28.7514 27.2018H24.3824C24.2254 27.2018 24.0967 27.0731 24.0967 26.916C24.0967 26.759 24.2254 26.6303 24.3824 26.6303H28.7514C28.9084 26.6303 29.0371 26.759 29.0371 26.916C29.0371 27.0731 28.9084 27.2018 28.7514 27.2018Z" fill="#18969C"/>
<path d="M34.7591 30.0112H46.3457C46.4657 30.0112 46.5638 30.1093 46.5638 30.2293V37.8919C46.5638 37.9529 46.5158 38.0009 46.4548 38.0009H34.6501C34.589 38.0009 34.541 37.9529 34.541 37.8919V30.2293C34.541 30.1093 34.6392 30.0112 34.7591 30.0112Z" fill="#96CAED"/>
<path d="M45.1276 32.6307H35.984C35.8269 32.6307 35.6982 32.502 35.6982 32.3449C35.6982 32.1879 35.8269 32.0592 35.984 32.0592H45.1276C45.2846 32.0592 45.4134 32.1879 45.4134 32.3449C45.4134 32.502 45.2846 32.6307 45.1276 32.6307Z" fill="#18969C"/>
<path d="M45.1279 34.2905H38.3072C38.1502 34.2905 38.0215 34.1618 38.0215 34.0048C38.0215 33.8477 38.1502 33.7191 38.3072 33.7191H45.1279C45.2849 33.7191 45.4136 33.8477 45.4136 34.0048C45.4136 34.1618 45.2849 34.2905 45.1279 34.2905Z" fill="#18969C"/>
<path d="M45.1273 35.9527H40.7584C40.6013 35.9527 40.4727 35.8261 40.4727 35.6669C40.4727 35.5077 40.6013 35.3812 40.7584 35.3812H45.1273C45.2844 35.3812 45.4131 35.5099 45.4131 35.6669C45.4131 35.824 45.2844 35.9527 45.1273 35.9527Z" fill="#18969C"/>
<path d="M15.6526 0.00219727V7.30051L8.50257 4.02435C8.08378 3.87602 8.08378 3.42887 8.50257 3.28055L15.6526 0.0043806V0.00219727Z" fill="#F3DDBA"/>
<path d="M48.9775 0.00219727V2.42552H15.653L14.3115 1.22149L15.653 0.00219727H48.9775Z" fill="#F4A666"/>
<path d="M48.9775 4.86414V7.30054H15.653L14.3115 6.08125L15.653 4.86414H48.9775Z" fill="#F4A666"/>
<path d="M48.9775 2.42548V4.86407H15.653L14.3115 3.64476L15.653 2.42548H48.9775Z" fill="#EF7A1A"/>
<path d="M11.3204 1.97839V5.32218L8.50447 4.02218C8.09877 3.87386 8.09877 3.41362 8.50447 3.27839L11.3204 1.97839Z" fill="#0B4346"/>
<path d="M55.9506 1.35673V5.94819C55.9506 6.69198 55.3421 7.30271 54.5961 7.30271H50.3711V0.00439453H54.5961C55.3399 0.00439453 55.9506 0.612943 55.9506 1.35892V1.35673Z" fill="#2E96DC"/>
<path d="M50.3711 7.29831V0L48.9817 0V7.29831H50.3711Z" fill="#0B4346"/>
</svg>
