<svg width="65" height="65" viewBox="0 0 65 65" fill="none" xmlns="http://www.w3.org/2000/svg">
<path d="M34.2519 45.7609H30.8799V64.8507H34.2519V45.7609Z" fill="#AD771F"/>
<path d="M25.6835 64.8507H22.6396L25.6835 45.7609H28.7273L25.6835 64.8507Z" fill="#AD771F"/>
<path d="M39.4454 64.8507H42.4892L39.4454 45.7609H36.3994L39.4454 64.8507Z" fill="#AD771F"/>
<path d="M62.7548 7.69901V39.0336C62.7548 41.2634 60.9436 43.0872 58.7012 43.0872H6.42563C4.18324 43.0872 2.37207 41.2634 2.37207 39.0336V7.69901C2.37207 5.46923 4.18324 3.64545 6.42563 3.64545H58.7012C60.9436 3.64545 62.7548 5.46923 62.7548 7.69901Z" fill="#F3DDBA"/>
<path d="M37.9479 1.35049V5.39142H27.1924V1.35049C27.1924 0.593204 27.7877 0 28.5303 0H36.5974C37.3399 0 37.9479 0.595307 37.9479 1.35049Z" fill="black"/>
<path d="M40.8927 43.1146V45.763H24.2324V43.1146C24.2324 41.6147 25.4483 40.4115 26.9355 40.4115H38.1917C39.6915 40.4115 40.8948 41.6147 40.8948 43.1146H40.8927Z" fill="black"/>
<path d="M13.6126 17.5794H9.55273V33.8631H13.6126V17.5794Z" fill="#CD5187"/>
<path d="M27.1429 21.877H23.083V33.8609H27.1429V21.877Z" fill="#2E96DC"/>
<path d="M20.3773 12.8737H16.3174V33.8609H20.3773V12.8737Z" fill="#63BBB2"/>
<path d="M55.5651 18.6037L46.1748 22.4953L42.2832 13.105C47.4727 10.9573 53.4174 13.4163 55.5651 18.6037Z" fill="#CD5187"/>
<path d="M45.4179 24.2518L36.0276 28.1286C33.8799 22.9539 36.339 17.0092 41.5263 14.8594L45.4179 24.2497V24.2518Z" fill="#63BBB2"/>
<path d="M49.2947 33.6295C44.1199 35.7772 38.1752 33.3181 36.0254 28.1308L45.4157 24.2539L49.2926 33.6316L49.2947 33.6295Z" fill="#2E96DC"/>
<path d="M49.2948 33.6295L45.418 24.2518L54.7956 20.3602C56.9433 25.535 54.4843 31.4796 49.2969 33.6295H49.2948Z" fill="#96CAED"/>
</svg>
