<svg width="65" height="65" viewBox="0 0 65 65" fill="none" xmlns="http://www.w3.org/2000/svg">
<path d="M50.4517 -0.00012207H14.377V7.55642H50.4517V-0.00012207Z" fill="#90B63E"/>
<path d="M37.0465 26.665H27.1475L9.90918 7.66606L14.4317 -0.00012207L37.0465 26.665Z" fill="#CD5187"/>
<path d="M39.3441 30.4116H25.4961V27.2869C25.4961 26.2517 26.3374 25.4083 27.3747 25.4083H37.4676C38.5028 25.4083 39.3462 26.2496 39.3462 27.2869V30.4116H39.3441ZM26.7485 29.1592H38.0917V27.2869C38.0917 26.9411 37.8113 26.6607 37.4655 26.6607H27.3726C27.0268 26.6607 26.7464 26.9411 26.7464 27.2869V29.1592H26.7485Z" fill="black"/>
<path d="M49.1127 48.3036C49.1127 57.5258 41.6384 65.0001 32.4162 65.0001C23.1941 65.0001 15.7324 57.5258 15.7324 48.3036C15.7324 42.6699 18.5218 37.7004 22.8019 34.6811V32.8384C22.8019 30.7532 24.4802 29.0728 26.5528 29.0728H38.2797C40.3649 29.0728 42.0453 30.751 42.0453 32.8384V34.6811C46.3106 37.7004 49.1148 42.6699 49.1148 48.3036H49.1127Z" fill="#F29040"/>
<path d="M32.4162 60.4923C39.1479 60.4923 44.6049 55.0352 44.6049 48.3036C44.6049 41.5719 39.1479 36.1149 32.4162 36.1149C25.6846 36.1149 20.2275 41.5719 20.2275 48.3036C20.2275 55.0352 25.6846 60.4923 32.4162 60.4923Z" fill="#F4A666"/>
<path d="M54.9215 7.66606L37.6958 26.665H27.7969L50.399 -0.00012207L54.9215 7.66606Z" fill="#62B0E4"/>
<path d="M32.4211 39.0835L33.7915 46.5536L41.3206 45.55L34.6391 49.1617L37.9219 56.0119L32.4211 50.7725L26.9202 56.0119L30.203 49.1617L23.5215 45.55L31.0506 46.5536L32.4211 39.0835Z" fill="#FDE9D9"/>
</svg>
