<svg width="65" height="65" viewBox="0 0 65 65" fill="none" xmlns="http://www.w3.org/2000/svg">
<path d="M47.4347 10.535V56.6294C47.4347 58.8772 45.4593 60.6925 43.0133 60.6925H4.4214C1.99015 60.6925 0 58.8772 0 56.6294V10.535C0 8.28718 1.99015 6.47186 4.4214 6.47186H43.0133C45.4593 6.47186 47.4347 8.28718 47.4347 10.535Z" fill="#EF7A1A"/>
<path d="M41.7764 10.3721H5.66016V56.8059H41.7764V10.3721Z" fill="#EFEFED"/>
<path d="M58.5754 37.1032C57.8831 38.2669 56.2623 38.552 55.1269 37.7937L52.3115 35.8581C53.4913 34.8962 54.4769 33.7732 55.2577 32.5533L57.7629 34.2736C58.721 34.9233 59.1473 36.1432 58.5733 37.1032H58.5754Z" fill="#EAC386"/>
<path d="M49.9845 37.4407C43.8241 40.216 36.353 37.846 33.333 32.1732C30.3277 26.4984 32.8919 19.6328 39.065 16.8711C45.2402 14.0957 52.7112 16.4657 55.7313 22.1386C58.7366 27.8133 56.1576 34.6789 49.9845 37.4407Z" fill="#AD771F"/>
<path d="M48.7478 35.0979C43.9887 37.2235 38.2271 35.4101 35.8972 31.0212C33.5694 26.6478 35.5574 21.3532 40.3186 19.212C45.0777 17.0864 50.8393 18.8998 53.1692 23.2887C55.497 27.6621 53.509 32.9568 48.7478 35.096V35.0979Z" fill="#96CAED"/>
<path d="M39.0376 29.619C36.2518 27.3498 38.166 22.3073 41.853 22.1056C39.5526 24.4736 38.8097 26.5256 39.0376 29.619Z" fill="#CBE5F6"/>
<path d="M35.8374 8.50248V10.3721H11.5967V8.50248C11.5967 5.75431 14.0279 3.52007 17.0184 3.52007H19.8781C19.8781 1.58452 21.6024 0 23.7234 0C25.8444 0 27.5539 1.58452 27.5539 3.52007H30.4262C33.4167 3.52007 35.8332 5.75431 35.8332 8.50248H35.8374Z" fill="#FAD3B3"/>
<path d="M25.4942 3.5201C25.4942 4.42775 24.6985 5.14534 23.7256 5.14534C22.7527 5.14534 21.957 4.42775 21.957 3.5201C21.957 2.61245 22.7379 1.90845 23.7256 1.90845C24.7133 1.90845 25.4942 2.62602 25.4942 3.5201Z" fill="white"/>
<path d="M16.7527 24.4329H9.0791V17.3812H16.7527V24.4329ZM10.4931 23.1335H15.3387V18.6806H10.4931V23.1335Z" fill="#0B4346"/>
<path d="M16.7527 37.1091H9.0791V30.0592H16.7527V37.1091ZM10.4931 35.8096H15.3387V31.3586H10.4931V35.8096Z" fill="#0B4346"/>
<path d="M16.7527 49.7872H9.0791V42.7373H16.7527V49.7872ZM10.4931 48.4877H15.3387V44.0367H10.4931V48.4877Z" fill="#0B4346"/>
<path d="M14.6992 22.255C14.5113 22.255 14.3319 22.1871 14.199 22.0649L12.3988 20.4106C12.1223 20.1565 12.1223 19.7453 12.3988 19.4913C12.6752 19.2372 13.1226 19.2372 13.3991 19.4913L14.6992 20.686L18.441 17.2474C18.7175 16.9933 19.1649 16.9933 19.4414 17.2474C19.7178 17.5014 19.7178 17.9126 19.4414 18.1667L15.1993 22.0649C15.0664 22.1871 14.887 22.255 14.6992 22.255Z" fill="black"/>
<path d="M14.6992 35.0843C14.5113 35.0843 14.3319 35.0164 14.199 34.8942L12.3988 33.2399C12.1223 32.9858 12.1223 32.5746 12.3988 32.3206C12.6752 32.0665 13.1226 32.0665 13.3991 32.3206L14.6992 33.5153L18.441 30.0767C18.7175 29.8226 19.1649 29.8226 19.4414 30.0767C19.7178 30.3307 19.7178 30.7419 19.4414 30.9959L15.1993 34.8942C15.0664 35.0164 14.887 35.0843 14.6992 35.0843Z" fill="black"/>
<path d="M14.6992 47.6479C14.5113 47.6479 14.3319 47.5801 14.199 47.4579L12.3988 45.8035C12.1223 45.5495 12.1223 45.1383 12.3988 44.8843C12.6752 44.6302 13.1226 44.6302 13.3991 44.8843L14.6992 46.0789L18.441 42.6403C18.7175 42.3863 19.1649 42.3863 19.4414 42.6403C19.7178 42.8944 19.7178 43.3056 19.4414 43.5596L15.1993 47.4579C15.0664 47.5801 14.887 47.6479 14.6992 47.6479Z" fill="black"/>
<path d="M22.6345 53.3111V64.9981C21.9275 64.9981 21.2352 64.8216 20.6295 64.4706L15.3829 61.4645L12.2595 59.6763C11.8458 59.432 11.8458 58.8773 12.2595 58.6329L15.3829 56.8312L20.6295 53.825C21.2331 53.4856 21.9254 53.3111 22.6345 53.3111Z" fill="#F3DDBA"/>
<path d="M52.2781 53.3053H22.5839C21.4126 53.3053 20.4629 54.178 20.4629 55.2544C20.4629 56.3308 21.4126 57.2035 22.5839 57.2035H52.2781V53.3053Z" fill="#63BBB2"/>
<path d="M52.2781 61.1018H22.5839C21.4126 61.1018 20.4629 61.9746 20.4629 63.0509C20.4629 64.1273 21.4126 65.0001 22.5839 65.0001H52.2781V61.1018Z" fill="#63BBB2"/>
<path d="M52.2838 57.1976V61.0978H21.412C20.2471 61.0978 19.291 60.2309 19.291 59.1487C19.291 58.0665 20.2492 57.1996 21.412 57.1996H52.2838V57.1976Z" fill="#0B4346"/>
<path d="M16.2839 59.1487C16.2839 60.0292 15.9442 60.8283 15.3849 61.4644L12.2614 59.6763C11.8478 59.4319 11.8478 58.8772 12.2614 58.6329L15.3849 56.8311C15.9442 57.4672 16.2839 58.2799 16.2839 59.1468V59.1487Z" fill="#444445"/>
<path d="M55.9737 53.3052H52.2783V64.998H55.9737V53.3052Z" fill="#EFEFED"/>
<path d="M65.0005 56.0204V62.2906C65.0005 63.7937 63.6752 64.998 62.0543 64.998H55.9678V53.311H62.0543C63.6752 53.311 65.0005 54.5154 65.0005 56.0185V56.0204Z" fill="#2E96DC"/>
<path d="M28.7552 19.9276H24.0531C23.4643 19.9276 22.9873 19.4893 22.9873 18.9482C22.9873 18.4071 23.4643 17.9688 24.0531 17.9688H28.7552C29.344 17.9688 29.821 18.4071 29.821 18.9482C29.821 19.4893 29.344 19.9276 28.7552 19.9276Z" fill="black"/>
<path d="M28.7551 23.8433H21.2123C20.6234 23.8433 20.1465 23.405 20.1465 22.8639C20.1465 22.3228 20.6234 21.8845 21.2123 21.8845H28.7551C29.3439 21.8845 29.8208 22.3228 29.8208 22.8639C29.8208 23.405 29.3439 23.8433 28.7551 23.8433Z" fill="black"/>
<path d="M28.7552 32.6057H24.0531C23.4643 32.6057 22.9873 32.1674 22.9873 31.6263C22.9873 31.0852 23.4643 30.6469 24.0531 30.6469H28.7552C29.344 30.6469 29.821 31.0852 29.821 31.6263C29.821 32.1674 29.344 32.6057 28.7552 32.6057Z" fill="black"/>
<path d="M28.7551 36.5214H21.2123C20.6234 36.5214 20.1465 36.0831 20.1465 35.542C20.1465 35.0009 20.6234 34.5626 21.2123 34.5626H28.7551C29.3439 34.5626 29.8208 35.0009 29.8208 35.542C29.8208 36.0831 29.3439 36.5214 28.7551 36.5214Z" fill="black"/>
<path d="M28.7552 45.2818H24.0531C23.4643 45.2818 22.9873 44.8435 22.9873 44.3024C22.9873 43.7613 23.4643 43.323 24.0531 43.323H28.7552C29.344 43.323 29.821 43.7613 29.821 44.3024C29.821 44.8435 29.344 45.2818 28.7552 45.2818Z" fill="black"/>
<path d="M28.7551 49.1975H21.2123C20.6234 49.1975 20.1465 48.7592 20.1465 48.2181C20.1465 47.677 20.6234 47.2387 21.2123 47.2387H28.7551C29.3439 47.2387 29.8208 47.677 29.8208 48.2181C29.8208 48.7592 29.3439 49.1975 28.7551 49.1975Z" fill="black"/>
</svg>
