<svg width="65" height="65" viewBox="0 0 65 65" fill="none" xmlns="http://www.w3.org/2000/svg">
<path d="M4.13211 56.7315L0 52.5994L21.1537 39.7503L22.5183 41.115L4.13211 56.7315Z" fill="#EAC386"/>
<path d="M12.3987 64.9979L8.2666 60.8658L23.8832 42.4796L25.2478 43.8442L12.3987 64.9979Z" fill="#EAC386"/>
<path d="M8.26608 60.8657L4.13184 56.7315L22.518 41.1149L23.8827 42.4795L8.26608 60.8657Z" fill="#AD771F"/>
<path d="M46.6862 32.4192L43.1429 46.4714C42.6859 48.2845 41.3022 49.7193 39.5061 50.24L28.5976 54.2829C27.994 54.4572 27.5667 53.6941 28.0407 53.2839C31.0505 50.6779 35.612 45.6084 33.9838 39.863L46.6862 32.4192Z" fill="#CD5187"/>
<path d="M32.5785 18.3118L18.5264 21.8551C16.7133 22.3121 15.2785 23.6959 14.7578 25.492L10.7149 36.4004C10.5406 37.004 11.3037 37.4313 11.7139 36.9573C14.3199 33.9475 19.3894 29.386 25.1348 31.0142L32.5785 18.3118Z" fill="#CD5187"/>
<path d="M25.2436 43.8378C47.0009 41.0576 64.4157 22.2824 65.0003 0H64.9939C42.7136 0.584533 23.9406 17.9972 21.1582 39.7525L25.2436 43.8378Z" fill="#8ECDC7"/>
<path d="M21.8108 36.0284C21.5451 37.2549 21.3176 38.4941 21.1582 39.7525L25.2436 43.8378C26.5019 43.6763 27.7411 43.451 28.9676 43.1853L21.8108 36.0284Z" fill="#449C93"/>
<path d="M60.4921 18.3012C58.8915 15.5359 56.8828 12.9066 54.4894 10.511C52.0961 8.11763 49.4667 6.10684 46.6992 4.50841C52.3065 1.77917 58.4961 0.17858 64.9961 0.00640869C64.8219 6.50641 63.2213 12.6961 60.4942 18.3034L60.4921 18.3012Z" fill="#CD5187"/>
<path d="M49.5381 26.7482C51.7901 22.7581 50.381 17.6978 46.3909 15.4458C42.4007 13.1937 37.3404 14.6028 35.0884 18.593C32.8364 22.5831 34.2454 27.6434 38.2356 29.8955C42.2258 32.1475 47.2861 30.7384 49.5381 26.7482Z" fill="#1F4743"/>
<path d="M42.3019 27.2733C44.8294 27.2733 46.8783 25.2244 46.8783 22.6969C46.8783 20.1695 44.8294 18.1205 42.3019 18.1205C39.7745 18.1205 37.7256 20.1695 37.7256 22.6969C37.7256 25.2244 39.7745 27.2733 42.3019 27.2733Z" fill="#8ECDC7"/>
<path d="M30.8169 34.1813C24.8696 36.8213 17.9105 43.7805 15.2705 49.7278C21.2179 47.0878 28.177 40.1287 30.8169 34.1813Z" fill="#1F4743"/>
</svg>
