<svg width="70" height="71" viewBox="0 0 70 71" fill="none" xmlns="http://www.w3.org/2000/svg">
<g clip-path="url(#clip0_798_4721)">
<path d="M56.6501 31.6262C56.6501 21.8079 47.5678 13.9287 36.6671 14.6235C27.406 15.2139 19.9384 22.1167 19.3869 30.5908C19.0888 35.2048 20.8029 39.4509 23.7989 42.6662C27.9773 47.1485 30.4268 52.7661 30.4268 58.6562C30.4268 59.7915 31.4304 60.7089 32.6725 60.7089H43.2602C44.542 60.7089 45.5804 59.7597 45.5804 58.5881C45.5804 52.7252 48.0299 47.1394 52.1984 42.6798C54.9757 39.7052 56.6501 35.8451 56.6501 31.6308V31.6262Z" fill="#F7FDFE"/>
<path d="M40.2542 61.9214H29.6665C27.699 61.9214 26.0942 60.4591 26.0942 58.6562C26.0942 53.2157 23.8535 47.8161 19.7844 43.4519C16.4307 39.8551 14.7514 35.2593 15.0594 30.5182C15.6506 21.4037 23.6051 14.0513 33.5667 13.4155C34.0387 13.3837 34.5207 13.3701 34.9927 13.3701C46.0077 13.3701 54.9657 21.5581 54.9657 31.6262C54.9657 35.9632 53.2715 40.1685 50.196 43.4609C46.1319 47.8115 43.8961 53.1839 43.8961 58.5836C43.8961 60.4228 42.2615 61.9169 40.2493 61.9169L40.2542 61.9214ZM34.9976 15.7952C34.5853 15.7952 34.1679 15.8088 33.7555 15.8361C25.1155 16.3856 18.2193 22.7616 17.7076 30.6635C17.4393 34.7779 18.895 38.7652 21.8065 41.8851C26.283 46.6898 28.7474 52.6435 28.7474 58.6608C28.7474 59.124 29.1598 59.5009 29.6665 59.5009H40.2542C40.8057 59.5009 41.2529 59.0922 41.2529 58.5881C41.2529 52.6117 43.7172 46.6807 48.1888 41.8942C50.8568 39.0377 52.3275 35.391 52.3275 31.6308C52.3275 22.8978 44.5569 15.7952 35.0026 15.7952H34.9976Z" fill="black"/>
<path d="M38.3014 70.5H32.4685C30.193 70.5 28.3447 68.8106 28.3447 66.7307V59.5009H42.4252V66.7307C42.4252 68.8106 40.577 70.5 38.3014 70.5ZM30.9929 61.9214V66.7307C30.9929 67.4755 31.6537 68.0795 32.4685 68.0795H38.3014C39.1162 68.0795 39.777 67.4755 39.777 66.7307V61.9214H30.9929Z" fill="black"/>
<path d="M34.9978 45.2321L25.5479 38.6063L27.1626 36.6853L34.9978 42.1803L42.8379 36.6853L44.4477 38.6063L34.9978 45.2321Z" fill="black"/>
<path d="M36.3239 43.7062H33.6758V60.7089H36.3239V43.7062Z" fill="black"/>
<path d="M11.2932 31.2811H0V33.7017H11.2932V31.2811Z" fill="black"/>
<path d="M70.0002 31.2811H58.707V33.7017H70.0002V31.2811Z" fill="black"/>
<path d="M11.187 9.01463L9.31445 10.7262L17.3 18.0253L19.1725 16.3137L11.187 9.01463Z" fill="black"/>
<path d="M52.6968 46.9529L50.8242 48.6644L58.8097 55.9635L60.6823 54.2519L52.6968 46.9529Z" fill="black"/>
<path d="M36.3239 0.5H33.6758V10.8224H36.3239V0.5Z" fill="black"/>
<path d="M58.8044 9.01137L50.8203 16.3117L52.6932 18.023L60.6773 10.7226L58.8044 9.01137Z" fill="black"/>
<path d="M17.2986 46.953L9.31445 54.2534L11.1873 55.9646L19.1714 48.6643L17.2986 46.953Z" fill="black"/>
</g>
<defs>
<clipPath id="clip0_798_4721">
<rect width="70" height="70" fill="white" transform="translate(0 0.5)"/>
</clipPath>
</defs>
</svg>
