<svg width="65" height="65" viewBox="0 0 65 65" fill="none" xmlns="http://www.w3.org/2000/svg">
<path d="M16.2556 41.3571L13.374 44.2388C12.848 44.7648 12.848 45.6167 13.374 46.1407L18.8858 51.6526C19.4118 52.1787 20.2637 52.1787 20.7876 51.6526L23.6692 48.7689L16.2556 41.355V41.3571Z" fill="#AD771F"/>
<path d="M13.8063 46.5773C13.8063 46.5773 -0.0178224 55.6929 0.114221 60.2699C0.161075 61.8651 3.16188 64.866 4.75705 64.9108C9.33386 65.0428 18.4491 51.2182 18.4491 51.2182L13.8063 46.5773Z" fill="#EF7A1A"/>
<path d="M64.6773 26.8268C64.5479 12.0737 52.4833 0.218969 37.7302 0.348425C22.9772 0.477881 11.1225 12.5425 11.2519 27.2956C11.3814 42.0487 23.446 53.9034 38.199 53.774C52.9521 53.6445 64.8068 41.5799 64.6773 26.8268Z" fill="#D08E25"/>
<path d="M37.9632 46.3558C48.6186 46.3558 57.2565 37.7176 57.2565 27.0618C57.2565 16.406 48.6186 7.76782 37.9632 7.76782C27.3078 7.76782 18.6699 16.406 18.6699 27.0618C18.6699 37.7176 27.3078 46.3558 37.9632 46.3558Z" fill="#96CAED"/>
<path d="M42.629 30.0753L37.9862 32.2456L33.3327 30.0945L33.3242 25.2406L42.6205 25.2236L42.629 30.0753Z" fill="#E0AA52"/>
<path d="M45.0529 19.5477C44.9699 19.5307 44.8846 19.5647 44.7994 19.6031C44.8165 19.3709 44.8293 19.1388 44.8293 18.913C44.8208 14.7301 41.7433 13.367 37.9502 13.3734C34.1572 13.3798 31.0861 14.7556 31.0925 18.9386C31.0925 19.1643 31.1074 19.3965 31.1244 19.6286C31.0392 19.5903 30.9519 19.5562 30.871 19.5733C29.8892 19.7777 30.5664 23.0427 31.5482 22.8383C31.6462 22.817 31.7314 22.7509 31.8017 22.6572C32.924 25.7604 35.2667 28.5249 37.98 28.5206C40.6912 28.5164 43.0254 25.7412 44.135 22.6338C44.2053 22.7275 44.2904 22.7935 44.3884 22.8148C45.3702 23.015 46.0369 19.7479 45.0529 19.5477Z" fill="#EAC386"/>
<path d="M42.8615 28.3224L37.9863 32.2456L41.7881 35.7086L43.8987 29.102L42.8615 28.3224Z" fill="#E5E5E4"/>
<path d="M33.0966 28.3417L37.9866 32.2456L34.1955 35.7257L32.0615 29.1254L33.0966 28.3417Z" fill="#E5E5E4"/>
<path d="M42.1545 14.8387C42.1545 14.8387 37.665 18.6638 32.6154 15.8567C32.6154 15.8567 31.2673 17.8992 31.1693 20.2207C31.1693 20.2207 27.9322 14.0038 32.7411 11.0859C32.7411 11.0859 37.4116 6.76028 42.4165 10.841C42.4165 10.841 46.5524 11.4352 46.1499 14.6342C46.1499 14.6342 46.5652 18.1484 44.7528 20.1973C44.7528 20.1973 42.3867 18.5658 42.1524 14.8408L42.1545 14.8387Z" fill="black"/>
<path d="M40.7129 34.729L37.9868 32.2457L35.1797 34.8164L37.0135 36.0793L36.2148 44.6987L37.1242 44.7775L38.8919 44.7732L39.8056 44.688L38.975 36.0751L40.7129 34.729Z" fill="#D75548"/>
<path d="M52.3663 37.5893C52.3663 37.5893 47.7724 44.4941 38.8936 44.7731L43.9048 29.1169L50.0661 33.3318C50.8776 33.8855 51.5804 34.6033 52.0277 35.4786C52.3556 36.124 52.5771 36.8822 52.3684 37.5914L52.3663 37.5893Z" fill="black"/>
<path d="M23.6235 37.6276C23.6235 37.6276 28.2535 44.5325 37.1366 44.7774L32.0551 29.1233L25.9087 33.3616C25.0994 33.9196 24.3987 34.6395 23.9557 35.517C23.6299 36.1623 23.4105 36.9227 23.6235 37.6298V37.6276Z" fill="black"/>
</svg>
