<svg width="65" height="65" viewBox="0 0 65 65" fill="none" xmlns="http://www.w3.org/2000/svg">
<path d="M17.463 62.1887C23.4152 62.1887 28.2404 61.0142 28.2404 59.5653C28.2404 58.1165 23.4152 56.942 17.463 56.942C11.5108 56.942 6.68555 58.1165 6.68555 59.5653C6.68555 61.0142 11.5108 62.1887 17.463 62.1887Z" fill="#F7BC8D"/>
<path d="M17.463 62.1886C11.5135 62.1886 6.68555 61.0201 6.68555 59.5653V62.3766C6.68555 63.8314 11.5114 65 17.463 65C23.4146 65 28.2404 63.8314 28.2404 62.3766V59.5653C28.2404 61.0201 23.4146 62.1886 17.463 62.1886Z" fill="#F4A666"/>
<path d="M9.94009 61.4388V64.2416C9.36971 64.107 8.87623 63.9724 8.44043 63.8079V61.0051C8.87409 61.1696 9.36971 61.3042 9.94009 61.4388Z" fill="#EF7A1A"/>
<path d="M13.2536 61.9921V64.7799C12.728 64.7201 12.2346 64.6603 11.7539 64.5855V61.7827C11.9334 61.8126 12.1277 61.8425 12.3243 61.8724C12.6234 61.9173 12.9395 61.9622 13.2536 61.9921Z" fill="#EF7A1A"/>
<path d="M16.5641 62.1737V64.9764C16.0557 64.9764 15.5451 64.9465 15.0645 64.9166V62.1288C15.5451 62.1587 16.0535 62.1737 16.5641 62.1737Z" fill="#EF7A1A"/>
<path d="M19.8629 62.1288V64.9166C19.3844 64.9465 18.8738 64.9764 18.3633 64.9764V62.1737C18.8738 62.1737 19.3823 62.1587 19.8629 62.1288Z" fill="#EF7A1A"/>
<path d="M23.1745 61.7827V64.5855C22.6938 64.6603 22.2003 64.7201 21.6748 64.7799V61.9921C21.9888 61.9622 22.305 61.9173 22.6041 61.8724C22.7985 61.8425 22.9929 61.8126 23.1745 61.7827Z" fill="#EF7A1A"/>
<path d="M26.4879 61.003V63.8058C26.0543 63.9703 25.5587 64.1049 24.9883 64.2394V61.4367C25.5587 61.3021 26.0521 61.1675 26.4879 61.003Z" fill="#EF7A1A"/>
<path d="M17.463 57.2946C23.4152 57.2946 28.2404 56.1201 28.2404 54.6713C28.2404 53.2225 23.4152 52.048 17.463 52.048C11.5108 52.048 6.68555 53.2225 6.68555 54.6713C6.68555 56.1201 11.5108 57.2946 17.463 57.2946Z" fill="#F7BC8D"/>
<path d="M17.463 57.2946C11.5135 57.2946 6.68555 56.1261 6.68555 54.6713V57.4826C6.68555 58.9374 11.5114 60.106 17.463 60.106C23.4146 60.106 28.2404 58.9374 28.2404 57.4826V54.6713C28.2404 56.1261 23.4146 57.2946 17.463 57.2946Z" fill="#F4A666"/>
<path d="M9.94009 56.5448V59.3476C9.36971 59.213 8.87623 59.0784 8.44043 58.9139V56.1111C8.87409 56.2756 9.36971 56.4102 9.94009 56.5448Z" fill="#EF7A1A"/>
<path d="M13.2536 57.1002V59.8881C12.728 59.8282 12.2346 59.7684 11.7539 59.6936V56.8909C11.9334 56.9208 12.1277 56.9507 12.3243 56.9806C12.6234 57.0255 12.9395 57.0703 13.2536 57.1002Z" fill="#EF7A1A"/>
<path d="M16.5641 57.2797V60.0824C16.0557 60.0824 15.5451 60.0525 15.0645 60.0226V57.2348C15.5451 57.2647 16.0535 57.2797 16.5641 57.2797Z" fill="#EF7A1A"/>
<path d="M19.8629 57.2348V60.0226C19.3844 60.0525 18.8738 60.0824 18.3633 60.0824V57.2797C18.8738 57.2797 19.3823 57.2647 19.8629 57.2348Z" fill="#EF7A1A"/>
<path d="M23.1745 56.8909V59.6936C22.6938 59.7684 22.2003 59.8282 21.6748 59.8881V57.1002C21.9888 57.0703 22.305 57.0255 22.6041 56.9806C22.7985 56.9507 22.9929 56.9208 23.1745 56.8909Z" fill="#EF7A1A"/>
<path d="M26.4879 56.1111V58.9139C26.0543 59.0784 25.5587 59.213 24.9883 59.3476V56.5448C25.5587 56.4102 26.0521 56.2756 26.4879 56.1111Z" fill="#EF7A1A"/>
<path d="M17.463 52.4026C23.4152 52.4026 28.2404 51.2281 28.2404 49.7793C28.2404 48.3305 23.4152 47.1559 17.463 47.1559C11.5108 47.1559 6.68555 48.3305 6.68555 49.7793C6.68555 51.2281 11.5108 52.4026 17.463 52.4026Z" fill="#F7BC8D"/>
<path d="M17.463 52.4026C11.5135 52.4026 6.68555 51.2341 6.68555 49.7793V52.5906C6.68555 54.0454 11.5114 55.2139 17.463 55.2139C23.4146 55.2139 28.2404 54.0454 28.2404 52.5906V49.7793C28.2404 51.2341 23.4146 52.4026 17.463 52.4026Z" fill="#F4A666"/>
<path d="M9.94009 51.6528V54.4556C9.36971 54.321 8.87623 54.1864 8.44043 54.0219V51.2191C8.87409 51.3836 9.36971 51.5182 9.94009 51.6528Z" fill="#EF7A1A"/>
<path d="M13.2536 52.2083V54.9961C12.728 54.9362 12.2346 54.8764 11.7539 54.8017V51.9989C11.9334 52.0288 12.1277 52.0587 12.3243 52.0886C12.6234 52.1335 12.9395 52.1783 13.2536 52.2083Z" fill="#EF7A1A"/>
<path d="M16.5641 52.3876V55.1904C16.0557 55.1904 15.5451 55.1605 15.0645 55.1306V52.3428C15.5451 52.3727 16.0535 52.3876 16.5641 52.3876Z" fill="#EF7A1A"/>
<path d="M19.8629 52.3428V55.1306C19.3844 55.1605 18.8738 55.1904 18.3633 55.1904V52.3876C18.8738 52.3876 19.3823 52.3727 19.8629 52.3428Z" fill="#EF7A1A"/>
<path d="M23.1745 51.9967V54.7995C22.6938 54.8743 22.2003 54.934 21.6748 54.9939V52.2061C21.9888 52.1761 22.305 52.1313 22.6041 52.0864C22.7985 52.0565 22.9929 52.0266 23.1745 51.9967Z" fill="#EF7A1A"/>
<path d="M26.4879 51.2191V54.0219C26.0543 54.1864 25.5587 54.321 24.9883 54.4556V51.6528C25.5587 51.5182 26.0521 51.3836 26.4879 51.2191Z" fill="#EF7A1A"/>
<path d="M17.463 47.5105C23.4152 47.5105 28.2404 46.336 28.2404 44.8872C28.2404 43.4384 23.4152 42.2639 17.463 42.2639C11.5108 42.2639 6.68555 43.4384 6.68555 44.8872C6.68555 46.336 11.5108 47.5105 17.463 47.5105Z" fill="#F7BC8D"/>
<path d="M17.463 47.5084C11.5135 47.5084 6.68555 46.3399 6.68555 44.8851V47.6964C6.68555 49.1512 11.5114 50.3197 17.463 50.3197C23.4146 50.3197 28.2404 49.1512 28.2404 47.6964V44.8851C28.2404 46.3399 23.4146 47.5084 17.463 47.5084Z" fill="#F4A666"/>
<path d="M9.94009 46.7608V49.5636C9.36971 49.429 8.87623 49.2944 8.44043 49.1299V46.3271C8.87409 46.4916 9.36971 46.6262 9.94009 46.7608Z" fill="#EF7A1A"/>
<path d="M13.2536 47.3141V50.102C12.728 50.0422 12.2346 49.9823 11.7539 49.9076V47.1048C11.9334 47.1347 12.1277 47.1646 12.3243 47.1945C12.6234 47.2394 12.9395 47.2842 13.2536 47.3141Z" fill="#EF7A1A"/>
<path d="M16.5641 47.4935V50.2963C16.0557 50.2963 15.5451 50.2664 15.0645 50.2365V47.4487C15.5451 47.4786 16.0535 47.4935 16.5641 47.4935Z" fill="#EF7A1A"/>
<path d="M19.8629 47.4487V50.2365C19.3844 50.2664 18.8738 50.2963 18.3633 50.2963V47.4935C18.8738 47.4935 19.3823 47.4786 19.8629 47.4487Z" fill="#EF7A1A"/>
<path d="M23.1745 47.1048V49.9076C22.6938 49.9823 22.2003 50.0422 21.6748 50.102V47.3141C21.9888 47.2842 22.305 47.2394 22.6041 47.1945C22.7985 47.1646 22.9929 47.1347 23.1745 47.1048Z" fill="#EF7A1A"/>
<path d="M26.4879 46.325V49.1278C26.0543 49.2923 25.5587 49.4269 24.9883 49.5615V46.7587C25.5587 46.6241 26.0521 46.4895 26.4879 46.325Z" fill="#EF7A1A"/>
<path d="M45.3858 62.1887C51.338 62.1887 56.1633 61.0142 56.1633 59.5654C56.1633 58.1166 51.338 56.9421 45.3858 56.9421C39.4336 56.9421 34.6084 58.1166 34.6084 59.5654C34.6084 61.0142 39.4336 62.1887 45.3858 62.1887Z" fill="#F7BC8D"/>
<path d="M45.3858 62.1887C39.4363 62.1887 34.6084 61.0202 34.6084 59.5654V62.3767C34.6084 63.8315 39.4342 65 45.3858 65C51.3375 65 56.1633 63.8315 56.1633 62.3767V59.5654C56.1633 61.0202 51.3375 62.1887 45.3858 62.1887Z" fill="#F4A666"/>
<path d="M37.859 61.4389V64.2416C37.2887 64.107 36.7952 63.9725 36.3594 63.808V61.0052C36.7952 61.1697 37.2887 61.3043 37.859 61.4389Z" fill="#EF7A1A"/>
<path d="M41.1725 61.9921V64.78C40.647 64.7201 40.1535 64.6603 39.6729 64.5856V61.7828C39.8523 61.8127 40.0467 61.8426 40.2432 61.8725C40.5423 61.9174 40.8585 61.9622 41.1725 61.9921Z" fill="#EF7A1A"/>
<path d="M44.486 62.1737V64.9765C43.9776 64.9765 43.467 64.9466 42.9863 64.9167V62.1288C43.467 62.1588 43.9754 62.1737 44.486 62.1737Z" fill="#EF7A1A"/>
<path d="M47.7819 62.1288V64.9167C47.3034 64.9466 46.7928 64.9765 46.2822 64.9765V62.1737C46.7928 62.1737 47.3012 62.1588 47.7819 62.1288Z" fill="#EF7A1A"/>
<path d="M51.0954 61.7828V64.5856C50.6147 64.6603 50.1212 64.7201 49.5957 64.78V61.9921C49.9097 61.9622 50.2259 61.9174 50.525 61.8725C50.7194 61.8426 50.9138 61.8127 51.0954 61.7828Z" fill="#EF7A1A"/>
<path d="M54.4069 61.0031V63.8058C53.9732 63.9703 53.4776 64.1049 52.9072 64.2395V61.4367C53.4776 61.3021 53.9711 61.1675 54.4069 61.0031Z" fill="#EF7A1A"/>
<path d="M45.3858 57.0639C51.338 57.0639 56.1633 55.8894 56.1633 54.4405C56.1633 52.9917 51.338 51.8172 45.3858 51.8172C39.4336 51.8172 34.6084 52.9917 34.6084 54.4405C34.6084 55.8894 39.4336 57.0639 45.3858 57.0639Z" fill="#F7BC8D"/>
<path d="M45.3858 57.0639C39.4363 57.0639 34.6084 55.8953 34.6084 54.4406V57.2519C34.6084 58.7067 39.4342 59.8752 45.3858 59.8752C51.3375 59.8752 56.1633 58.7067 56.1633 57.2519V54.4406C56.1633 55.8953 51.3375 57.0639 45.3858 57.0639Z" fill="#F4A666"/>
<path d="M37.859 56.314V59.1168C37.2887 58.9822 36.7952 58.8476 36.3594 58.6831V55.8804C36.7952 56.0449 37.2887 56.1795 37.859 56.314Z" fill="#EF7A1A"/>
<path d="M41.1725 56.8694V59.6573C40.647 59.5975 40.1535 59.5376 39.6729 59.4629V56.6601C39.8523 56.69 40.0467 56.7199 40.2432 56.7498C40.5423 56.7947 40.8585 56.8395 41.1725 56.8694Z" fill="#EF7A1A"/>
<path d="M44.486 57.0489V59.8517C43.9776 59.8517 43.467 59.8218 42.9863 59.7919V57.004C43.467 57.0339 43.9754 57.0489 44.486 57.0489Z" fill="#EF7A1A"/>
<path d="M47.7819 57.004V59.7919C47.3034 59.8218 46.7928 59.8517 46.2822 59.8517V57.0489C46.7928 57.0489 47.3012 57.0339 47.7819 57.004Z" fill="#EF7A1A"/>
<path d="M51.0954 56.658V59.4608C50.6147 59.5356 50.1212 59.5954 49.5957 59.6552V56.8674C49.9097 56.8375 50.2259 56.7926 50.525 56.7478C50.7194 56.7178 50.9138 56.6879 51.0954 56.658Z" fill="#EF7A1A"/>
<path d="M54.4069 55.8804V58.6831C53.9732 58.8476 53.4776 58.9822 52.9072 59.1168V56.314C53.4776 56.1795 53.9711 56.0449 54.4069 55.8804Z" fill="#EF7A1A"/>
<path d="M45.3858 51.9389C51.338 51.9389 56.1633 50.7644 56.1633 49.3156C56.1633 47.8668 51.338 46.6923 45.3858 46.6923C39.4336 46.6923 34.6084 47.8668 34.6084 49.3156C34.6084 50.7644 39.4336 51.9389 45.3858 51.9389Z" fill="#F7BC8D"/>
<path d="M45.3858 51.939C39.4363 51.939 34.6084 50.7704 34.6084 49.3156V52.1269C34.6084 53.5817 39.4342 54.7503 45.3858 54.7503C51.3375 54.7503 56.1633 53.5817 56.1633 52.1269V49.3156C56.1633 50.7704 51.3375 51.939 45.3858 51.939Z" fill="#F4A666"/>
<path d="M37.859 51.1891V53.9919C37.2887 53.8573 36.7952 53.7227 36.3594 53.5582V50.7554C36.7952 50.9199 37.2887 51.0545 37.859 51.1891Z" fill="#EF7A1A"/>
<path d="M41.1725 51.7445V54.5323C40.647 54.4725 40.1535 54.4127 39.6729 54.3379V51.5352C39.8523 51.5651 40.0467 51.595 40.2432 51.6249C40.5423 51.6698 40.8585 51.7146 41.1725 51.7445Z" fill="#EF7A1A"/>
<path d="M44.486 51.9239V54.7267C43.9776 54.7267 43.467 54.6968 42.9863 54.6669V51.8791C43.467 51.909 43.9754 51.9239 44.486 51.9239Z" fill="#EF7A1A"/>
<path d="M47.7819 51.8791V54.6669C47.3034 54.6968 46.7928 54.7267 46.2822 54.7267V51.9239C46.7928 51.9239 47.3012 51.909 47.7819 51.8791Z" fill="#EF7A1A"/>
<path d="M51.0954 51.5352V54.3379C50.6147 54.4127 50.1212 54.4725 49.5957 54.5323V51.7445C49.9097 51.7146 50.2259 51.6698 50.525 51.6249C50.7194 51.595 50.9138 51.5651 51.0954 51.5352Z" fill="#EF7A1A"/>
<path d="M54.4069 50.7554V53.5582C53.9732 53.7227 53.4776 53.8573 52.9072 53.9919V51.1891C53.4776 51.0545 53.9711 50.9199 54.4069 50.7554Z" fill="#EF7A1A"/>
<path d="M45.3858 46.8141C51.338 46.8141 56.1633 45.6395 56.1633 44.1907C56.1633 42.7419 51.338 41.5674 45.3858 41.5674C39.4336 41.5674 34.6084 42.7419 34.6084 44.1907C34.6084 45.6395 39.4336 46.8141 45.3858 46.8141Z" fill="#F7BC8D"/>
<path d="M45.3858 46.8141C39.4363 46.8141 34.6084 45.6455 34.6084 44.1907V47.0021C34.6084 48.4569 39.4342 49.6254 45.3858 49.6254C51.3375 49.6254 56.1633 48.4569 56.1633 47.0021V44.1907C56.1633 45.6455 51.3375 46.8141 45.3858 46.8141Z" fill="#F4A666"/>
<path d="M37.859 46.0642V48.867C37.2887 48.7324 36.7952 48.5978 36.3594 48.4333V45.6306C36.7952 45.795 37.2887 45.9296 37.859 46.0642Z" fill="#EF7A1A"/>
<path d="M41.1725 46.6196V49.4075C40.647 49.3476 40.1535 49.2878 39.6729 49.2131V46.4103C39.8523 46.4402 40.0467 46.4701 40.2432 46.5C40.5423 46.5449 40.8585 46.5897 41.1725 46.6196Z" fill="#EF7A1A"/>
<path d="M44.486 46.7991V49.6018C43.9776 49.6018 43.467 49.572 42.9863 49.542V46.7542C43.467 46.7841 43.9754 46.7991 44.486 46.7991Z" fill="#EF7A1A"/>
<path d="M47.7819 46.7542V49.542C47.3034 49.572 46.7928 49.6018 46.2822 49.6018V46.7991C46.7928 46.7991 47.3012 46.7841 47.7819 46.7542Z" fill="#EF7A1A"/>
<path d="M51.0954 46.4103V49.2131C50.6147 49.2878 50.1212 49.3476 49.5957 49.4075V46.6196C49.9097 46.5897 50.2259 46.5449 50.525 46.5C50.7194 46.4701 50.9138 46.4402 51.0954 46.4103Z" fill="#EF7A1A"/>
<path d="M54.4069 45.6306V48.4333C53.9732 48.5978 53.4776 48.7324 52.9072 48.867V46.0642C53.4776 45.9296 53.9711 45.795 54.4069 45.6306Z" fill="#EF7A1A"/>
<path d="M45.3858 41.6892C51.338 41.6892 56.1633 40.5147 56.1633 39.0658C56.1633 37.617 51.338 36.4425 45.3858 36.4425C39.4336 36.4425 34.6084 37.617 34.6084 39.0658C34.6084 40.5147 39.4336 41.6892 45.3858 41.6892Z" fill="#F7BC8D"/>
<path d="M45.3858 41.6892C39.4363 41.6892 34.6084 40.5207 34.6084 39.0659V41.8772C34.6084 43.332 39.4342 44.5005 45.3858 44.5005C51.3375 44.5005 56.1633 43.332 56.1633 41.8772V39.0659C56.1633 40.5207 51.3375 41.6892 45.3858 41.6892Z" fill="#F4A666"/>
<path d="M37.859 40.9393V43.7421C37.2887 43.6075 36.7952 43.4729 36.3594 43.3085V40.5057C36.7952 40.6702 37.2887 40.8048 37.859 40.9393Z" fill="#EF7A1A"/>
<path d="M41.1725 41.4948V44.2826C40.647 44.2228 40.1535 44.1629 39.6729 44.0882V41.2854C39.8523 41.3153 40.0467 41.3452 40.2432 41.3751C40.5423 41.42 40.8585 41.4648 41.1725 41.4948Z" fill="#EF7A1A"/>
<path d="M44.486 41.6742V44.477C43.9776 44.477 43.467 44.4471 42.9863 44.4172V41.6293C43.467 41.6592 43.9754 41.6742 44.486 41.6742Z" fill="#EF7A1A"/>
<path d="M47.7819 41.6293V44.4172C47.3034 44.4471 46.7928 44.477 46.2822 44.477V41.6742C46.7928 41.6742 47.3012 41.6592 47.7819 41.6293Z" fill="#EF7A1A"/>
<path d="M51.0954 41.2854V44.0882C50.6147 44.1629 50.1212 44.2228 49.5957 44.2826V41.4948C49.9097 41.4648 50.2259 41.42 50.525 41.3751C50.7194 41.3452 50.9138 41.3153 51.0954 41.2854Z" fill="#EF7A1A"/>
<path d="M54.4069 40.5057V43.3085C53.9732 43.4729 53.4776 43.6075 52.9072 43.7421V40.9393C53.4776 40.8048 53.9711 40.6702 54.4069 40.5057Z" fill="#EF7A1A"/>
<path d="M45.3858 36.5664C51.338 36.5664 56.1633 35.3919 56.1633 33.9431C56.1633 32.4943 51.338 31.3198 45.3858 31.3198C39.4336 31.3198 34.6084 32.4943 34.6084 33.9431C34.6084 35.3919 39.4336 36.5664 45.3858 36.5664Z" fill="#F7BC8D"/>
<path d="M45.3858 36.5643C39.4363 36.5643 34.6084 35.3958 34.6084 33.941V36.7523C34.6084 38.2071 39.4342 39.3756 45.3858 39.3756C51.3375 39.3756 56.1633 38.2071 56.1633 36.7523V33.941C56.1633 35.3958 51.3375 36.5643 45.3858 36.5643Z" fill="#F4A666"/>
<path d="M37.859 35.8164V38.6192C37.2887 38.4846 36.7952 38.35 36.3594 38.1855V35.3828C36.7952 35.5472 37.2887 35.6818 37.859 35.8164Z" fill="#EF7A1A"/>
<path d="M41.1725 36.3697V39.1575C40.647 39.0977 40.1535 39.0379 39.6729 38.9631V36.1603C39.8523 36.1902 40.0467 36.2201 40.2432 36.25C40.5423 36.2949 40.8585 36.3398 41.1725 36.3697Z" fill="#EF7A1A"/>
<path d="M44.486 36.5491V39.3519C43.9776 39.3519 43.467 39.322 42.9863 39.2921V36.5043C43.467 36.5342 43.9754 36.5491 44.486 36.5491Z" fill="#EF7A1A"/>
<path d="M47.7819 36.5043V39.2921C47.3034 39.322 46.7928 39.3519 46.2822 39.3519V36.5491C46.7928 36.5491 47.3012 36.5342 47.7819 36.5043Z" fill="#EF7A1A"/>
<path d="M51.0954 36.1604V38.9632C50.6147 39.0379 50.1212 39.0978 49.5957 39.1576V36.3698C49.9097 36.3398 50.2259 36.295 50.525 36.2501C50.7194 36.2202 50.9138 36.1903 51.0954 36.1604Z" fill="#EF7A1A"/>
<path d="M54.4069 35.3806V38.1834C53.9732 38.3479 53.4776 38.4825 52.9072 38.6171V35.8143C53.4776 35.6797 53.9711 35.5451 54.4069 35.3806Z" fill="#EF7A1A"/>
<path d="M50.9614 16.6521C50.9614 16.6521 46.5308 18.767 45.3857 19.7583C46.3684 18.6047 48.4833 14.1719 48.4833 14.1719C51.1964 6.50702 56.4195 7.79093 59.5363 5.58844L59.5449 5.59697C57.3488 8.70096 58.6135 13.9433 50.9614 16.65V16.6521Z" fill="#90B63E"/>
<path d="M45.1894 19.9569L45.2321 19.9142C45.2043 19.9227 45.1873 19.9398 45.1787 19.9484L45.1872 19.9569H45.1894Z" fill="#0B4346"/>
<path d="M59.5474 5.5991L59.5388 5.59058C59.5388 5.59058 59.3466 5.72514 59.0026 5.91527L54.1768 10.7411L53.8863 8.85691C53.8543 9.12608 53.6193 11.0808 53.5894 11.3264L52.8118 12.104L52.5212 10.2198L52.2435 12.542L52.2264 12.6915L51.4488 13.4691L51.1583 11.5849C51.1262 11.8562 50.8913 13.8045 50.8614 14.0545L50.0837 14.832L49.7932 12.9479C49.7612 13.2192 49.5262 15.1674 49.4963 15.4174L45.9394 18.9742C45.73 19.299 45.5442 19.5788 45.3818 19.7604C45.572 19.5895 45.8689 19.3866 46.2214 19.1708L49.7612 15.631C49.8787 15.6161 49.1438 15.7058 52.1858 15.3405L50.3358 15.0563L51.1241 14.2681C51.2886 14.2489 53.4291 13.9925 53.5488 13.9775L51.6988 13.6934L52.487 12.9051L52.5896 12.8923L54.9117 12.6146L53.0617 12.3305L53.85 11.5422C54.0145 11.523 56.155 11.2666 56.2746 11.2517L54.4246 10.9675L59.1586 6.23357C59.3722 5.82768 59.5431 5.60124 59.5431 5.60124L59.5474 5.5991Z" fill="#0B4346"/>
<path d="M39.813 16.6521C39.813 16.6521 44.2436 18.767 45.3886 19.7583C42.8572 16.7825 42.3915 12.4394 39.3067 9.40594C36.6321 6.76979 33.8763 7.4534 31.238 5.58844L31.2295 5.59697C33.4256 8.70096 32.1609 13.9433 39.813 16.65V16.6521Z" fill="#90B63E"/>
<path d="M45.5867 19.957L45.5439 19.9142C45.5717 19.9228 45.5888 19.9399 45.5974 19.9484L45.5888 19.957H45.5867Z" fill="#0B4346"/>
<path d="M31.2285 5.5991L31.2371 5.59058C31.2371 5.59058 31.4293 5.72514 31.7733 5.91527L36.5991 10.7411L36.8896 8.85691L37.1673 11.179L37.1844 11.3286L37.962 12.1062L38.2525 10.222L38.5303 12.5441L38.5473 12.6937L39.3249 13.4712L39.6155 11.5871L39.8932 13.9092L39.9103 14.0587L40.6879 14.8363L40.9784 12.9521C41.0105 13.2234 41.2454 15.1717 41.2754 15.4216L44.8322 18.9785C45.0416 19.3032 45.2274 19.5831 45.3898 19.7647C45.1997 19.5938 44.9027 19.3908 44.5502 19.1751L41.0105 15.6353C40.893 15.6203 41.6278 15.71 38.5858 15.3447L40.4358 15.0606L39.6475 14.2723C39.483 14.2531 37.3425 13.9968 37.2229 13.9818L39.0729 13.6977L38.2846 12.9094C38.1201 12.8902 35.9796 12.6338 35.8599 12.6189L37.7099 12.3347L36.9217 11.5465L36.8191 11.5337L34.497 11.2559L36.347 10.9718L31.6131 6.23784C31.3994 5.83195 31.2285 5.60552 31.2285 5.60552V5.5991Z" fill="#0B4346"/>
<path d="M52.6908 24.7914C51.9367 25.5583 50.8514 26.3594 49.324 26.8999C49.324 26.8999 46.1944 28.3931 45.3848 29.0938C46.0791 28.2777 47.5723 25.1481 47.5723 25.1481C48.1128 23.6207 48.9139 22.5355 49.6808 21.7814C51.5714 19.9207 53.5175 20.4013 55.3803 19.0854L55.3867 19.0918C54.0836 20.9354 54.5322 22.92 52.6908 24.7914Z" fill="#90B63E"/>
<path d="M45.2447 29.2349L45.2746 29.205C45.2554 29.2114 45.2426 29.2221 45.2383 29.2285L45.2447 29.2349Z" fill="#0B4346"/>
<path d="M55.3859 19.0919L55.3795 19.0855C55.3795 19.0855 55.2428 19.1817 55.0014 19.3162L51.592 22.7257L51.3869 21.3948L51.1903 23.0333L51.1775 23.138L50.6285 23.687L50.4234 22.3561C50.3999 22.5484 50.2354 23.9241 50.2141 24.1015L49.665 24.6505L49.46 23.3196C49.4365 23.5119 49.272 24.8876 49.2506 25.0649L48.7016 25.6139L48.4965 24.2831C48.473 24.4753 48.3085 25.8511 48.2871 26.0284L45.7749 28.5406C45.6275 28.7692 45.4972 28.9679 45.3818 29.096C45.5164 28.9743 45.7258 28.8333 45.9736 28.6795L48.4751 26.1779C48.5585 26.1672 48.0393 26.2292 50.1863 25.9728L48.881 25.772L49.4386 25.2145C49.554 25.1995 51.0664 25.02 51.1497 25.0094L49.8445 24.8086L50.402 24.251C50.5174 24.2361 52.0299 24.0566 52.1132 24.0459L50.8079 23.8451L51.3655 23.2876L51.4381 23.279L53.0788 23.0825L51.7735 22.8817L55.1168 19.5384C55.2685 19.2521 55.3881 19.0919 55.3881 19.0919H55.3859Z" fill="#0B4346"/>
<path d="M38.0809 24.7912C40.2855 27.0365 43.2741 27.265 45.3848 29.0937C43.5967 26.9916 43.2677 23.9239 41.0888 21.7812C39.1982 19.9205 37.252 20.4012 35.3892 19.0853L35.3828 19.0917C36.6859 20.9353 36.2373 22.9199 38.0788 24.7912H38.0809Z" fill="#90B63E"/>
<path d="M45.526 29.2347L45.4961 29.2048C45.5153 29.2112 45.5281 29.2219 45.5324 29.2283L45.526 29.2347Z" fill="#0B4346"/>
<path d="M35.3848 19.0917L35.3912 19.0853C35.3912 19.0853 35.5279 19.1815 35.7693 19.3161L39.1788 22.7255L39.3839 21.3946C39.4074 21.5848 39.5719 22.9648 39.5932 23.14L40.1422 23.689L40.3473 22.3581C40.3708 22.5504 40.5353 23.9261 40.5567 24.1034L41.1057 24.6524L41.3108 23.3216C41.3343 23.5138 41.4988 24.8896 41.5201 25.0669L42.0691 25.6159L42.2742 24.285C42.2977 24.4772 42.4622 25.853 42.4836 26.0303C46.7881 30.3349 44.1798 27.7457 45.3889 29.098C44.0345 27.8803 46.5895 30.4738 42.2956 26.1799C42.2123 26.1692 42.7314 26.2311 40.5844 25.9748L41.8897 25.774L41.3321 25.2164C41.2168 25.2015 39.7043 25.022 39.621 25.0113L40.9262 24.8105L40.3687 24.253C40.2533 24.238 38.7408 24.0585 38.6575 24.0479L39.9628 23.8471L39.4052 23.2895C39.2899 23.2767 37.7774 23.0951 37.6941 23.0844L38.9993 22.8836L35.6561 19.5404C35.5044 19.2541 35.3848 19.0939 35.3848 19.0939V19.0917Z" fill="#0B4346"/>
<path d="M48.8292 6.8295C48.8292 6.8295 46.0948 8.13476 45.3877 8.74787C45.9944 8.03435 47.2996 5.29993 47.2996 5.29993C48.9766 0.5617 52.1276 1.41195 54.1229 0.00201416L54.1293 0.00842921C52.8005 1.88834 53.5397 5.16536 48.8313 6.83164L48.8292 6.8295Z" fill="#90B63E"/>
<path d="M45.2642 8.86957L45.2899 8.84393C45.2728 8.84821 45.2621 8.85888 45.2578 8.86529L45.2642 8.87171V8.86957Z" fill="#0B4346"/>
<path d="M54.1277 0.00623195L54.1213 -0.000183105C54.1213 -0.000183105 54.0016 0.0831187 53.7902 0.200613L50.8101 3.18072L50.6306 2.01858C50.6114 2.1852 50.4661 3.39006 50.4469 3.54387L49.9684 4.02239L49.7889 2.86028C49.7697 3.02263 49.6245 4.22535 49.6052 4.38557L49.1267 4.86409L48.9473 3.70195C48.928 3.86431 48.7828 5.06703 48.7636 5.22725L48.285 5.70577L48.1056 4.54365C48.0863 4.70601 47.9411 5.90873 47.9219 6.06895L45.7258 8.26501C45.5955 8.46582 45.4822 8.63886 45.3818 8.74995C45.4993 8.64527 45.6831 8.51924 45.8988 8.38465L48.0842 6.19926C48.1568 6.19071 47.7061 6.2441 49.5796 6.01979L48.4388 5.84463L48.9259 5.35756C49.0284 5.34474 50.3486 5.18666 50.4213 5.17812L49.2805 5.00296L49.7676 4.51588C49.8701 4.50306 51.1903 4.34499 51.263 4.33644L50.1222 4.16125L50.6093 3.67418C50.7097 3.66136 52.032 3.50329 52.1046 3.49474L50.9639 3.31958L53.8863 0.397159C54.0188 0.147216 54.1234 0.00623195 54.1234 0.00623195H54.1277Z" fill="#0B4346"/>
<path d="M41.9456 6.8295C41.9456 6.8295 44.68 8.13476 45.3871 8.74787C44.7804 8.03435 43.4752 5.29993 43.4752 5.29993C41.7982 0.5617 38.6472 1.41195 36.6519 0.00201416L36.6455 0.00842921C37.9743 1.88834 37.2351 5.16536 41.9434 6.83164L41.9456 6.8295Z" fill="#90B63E"/>
<path d="M45.51 8.86957L45.4844 8.84393C45.5015 8.84821 45.5122 8.85888 45.5164 8.86529L45.51 8.87171V8.86957Z" fill="#0B4346"/>
<path d="M36.6465 0.00623195L36.6529 -0.000183105C36.6529 -0.000183105 36.7725 0.0831187 36.984 0.200613L39.9641 3.18072L40.1435 2.01858C40.1628 2.1852 40.308 3.39006 40.3273 3.54387L40.8058 4.02239L40.9852 2.86028C41.0045 3.02263 41.1497 4.22535 41.169 4.38557L41.6475 4.86409L41.8269 3.70195C41.8461 3.86431 41.9914 5.06703 42.0106 5.22725L42.4892 5.70577L42.6686 4.54365C42.6878 4.70601 42.8331 5.90873 42.8523 6.06895L45.0484 8.26501C45.1787 8.46582 45.2919 8.63886 45.3923 8.74995C45.2749 8.64527 45.0911 8.51924 44.8754 8.38465L42.69 6.19926C42.6173 6.19071 43.0681 6.2441 41.1946 6.01979L42.3353 5.84463L41.8483 5.35756C41.7457 5.34474 40.4255 5.18666 40.3529 5.17812L41.4937 5.00296L41.0066 4.51588C40.9041 4.50306 39.5839 4.34499 39.5112 4.33644L40.652 4.16125L40.1649 3.67418C40.0645 3.66136 38.7422 3.50329 38.6695 3.49474L39.8103 3.31958L36.8879 0.397159C36.7554 0.147216 36.6508 0.00623195 36.6508 0.00623195H36.6465Z" fill="#0B4346"/>
<path d="M45.8936 8.17114H44.8789V34.1011H45.8936V8.17114Z" fill="#0B4346"/>
<path d="M22.2332 30.2025C22.2332 30.2025 18.4413 32.0119 17.4629 32.86C18.3024 31.873 20.1119 28.0812 20.1119 28.0812C22.434 21.5228 26.903 22.6209 29.5691 20.7367L29.5776 20.7452C27.6999 23.4028 28.7808 27.8846 22.2332 30.2025Z" fill="#90B63E"/>
<path d="M17.2937 33.0289L17.33 32.9926C17.3065 32.999 17.2916 33.0139 17.2852 33.0203L17.2937 33.0289Z" fill="#0B4346"/>
<path d="M29.5773 20.7453L29.5687 20.7368C29.5687 20.7368 29.4042 20.8521 29.1094 21.0145L24.98 25.1439L24.7322 23.531L24.4951 25.5177L24.4801 25.6459L23.8158 26.3103L23.568 24.6974L23.3308 26.6841L23.3159 26.8123L22.6515 27.4767L22.4037 25.8638L22.1666 27.8505L22.1516 27.9787L21.4872 28.6431L21.2394 27.0302L21.0023 29.0169L20.9874 29.1451L17.9432 32.1893C17.7637 32.467 17.6057 32.7062 17.4668 32.8622C17.6292 32.7148 17.8834 32.5418 18.1846 32.3559L21.2138 29.3267L21.3014 29.316L23.2881 29.0789L21.7051 28.8353L22.3802 28.1603L22.4678 28.1496L24.4545 27.9125L22.8715 27.6689L23.5466 26.9939L23.6342 26.9832L25.6209 26.7461L24.0379 26.5025L24.713 25.8275L24.8006 25.8168L26.7873 25.5797L25.2043 25.3361L29.2547 21.2858C29.4384 20.9376 29.5837 20.7453 29.5837 20.7453H29.5773Z" fill="#0B4346"/>
<path d="M12.695 30.2025C12.695 30.2025 16.4869 32.0119 17.4653 32.86C16.6258 31.873 14.8164 28.0812 14.8164 28.0812C12.4942 21.5228 8.02518 22.6209 5.35913 20.7367L5.35059 20.7452C7.22836 23.4028 6.1474 27.8846 12.695 30.2025Z" fill="#90B63E"/>
<path d="M17.6369 33.0289L17.6006 32.9926C17.6241 32.999 17.639 33.0139 17.6455 33.0203L17.6369 33.0289Z" fill="#0B4346"/>
<path d="M5.35114 20.7454L5.35968 20.7368C5.35968 20.7368 5.52418 20.8522 5.81898 21.0145L9.94837 25.1439L10.1962 23.5311L10.4333 25.5178L10.4483 25.646L11.1126 26.3103L11.3604 24.6975L11.5976 26.6842L11.6125 26.8124L12.2769 27.4767L12.5247 25.8638L12.7618 27.8506L12.7768 27.9788L13.4412 28.6431L13.689 27.0303L13.9261 29.017L13.941 29.1451L16.9852 32.1893C17.1647 32.467 17.3227 32.7063 17.4616 32.8623C17.2992 32.7148 17.045 32.5418 16.7438 32.356L13.7146 29.3268L13.627 29.3161L11.6403 29.0789L13.2233 28.8354L12.5482 28.1603L12.4606 28.1497L10.4739 27.9125L12.0569 27.669L11.3818 26.9939L11.2942 26.9832L9.30749 26.7461L10.8905 26.5026L10.2154 25.8275L10.1278 25.8169L8.1411 25.5797L9.72406 25.3362L5.67371 21.2859C5.48999 20.9376 5.34473 20.7454 5.34473 20.7454H5.35114Z" fill="#0B4346"/>
<path d="M23.7144 37.1666C23.0692 37.8225 22.1421 38.5082 20.8347 38.9718C20.8347 38.9718 18.1558 40.2493 17.4658 40.8496C18.0597 40.151 19.3372 37.4743 19.3372 37.4743C19.8008 36.1669 20.4844 35.2397 21.1423 34.5946C21.9135 33.8362 22.9432 33.3961 24.0241 33.1462C25.1884 32.8728 26.0173 32.2874 26.0173 32.2874L26.0237 32.2938C26.0237 32.2938 25.4362 33.1227 25.1649 34.287C24.915 35.37 24.477 36.3997 23.7165 37.1688L23.7144 37.1666Z" fill="#90B63E"/>
<path d="M17.3443 40.967L17.3699 40.9414C17.3528 40.9457 17.3443 40.9564 17.3379 40.9606L17.3443 40.967Z" fill="#0B4346"/>
<path d="M26.0221 32.2896L26.0157 32.2831C26.0157 32.2831 25.9003 32.3643 25.691 32.4797L22.775 35.3957L22.5998 34.257L22.431 35.6606L22.4204 35.7503L21.9504 36.2203L21.7752 35.0816L21.6064 36.4852L21.5958 36.5749L21.1258 37.0449L20.9506 35.9062L20.7818 37.3098L20.7712 37.3995L20.3012 37.8695L20.126 36.7308L19.9572 38.1344L19.9466 38.2241L17.7975 40.3732C17.6714 40.5697 17.5582 40.7385 17.46 40.8496C17.5753 40.747 17.7548 40.6231 17.9663 40.4928L20.1068 38.3523L20.1687 38.3459L21.5723 38.1771L20.455 38.0062L20.9314 37.5298L20.9933 37.5234L22.3969 37.3546L21.2796 37.1837L21.756 36.7073L21.8179 36.7009L23.2214 36.5322L22.1042 36.3613L22.5806 35.8849L22.6425 35.8785L24.046 35.7097L22.9288 35.5388L25.7892 32.6783C25.9196 32.4327 26.0221 32.2959 26.0221 32.2959V32.2896Z" fill="#0B4346"/>
<path d="M14.0933 38.9696C14.0933 38.9696 16.7721 40.2471 17.4622 40.8474C16.8683 40.1488 15.5908 37.4721 15.5908 37.4721C13.9501 32.8385 10.7949 33.6161 8.91071 32.2852L8.9043 32.2916C10.2053 34.131 9.48323 37.3396 14.0911 38.9717L14.0933 38.9696Z" fill="#90B63E"/>
<path d="M17.5823 40.967L17.5566 40.9413C17.5737 40.9456 17.5823 40.9563 17.5887 40.9606L17.5823 40.967Z" fill="#0B4346"/>
<path d="M8.9043 32.2895L8.91071 32.2831C8.91071 32.2831 9.02606 32.3643 9.23541 32.4796L12.1514 35.3956L12.3266 34.257L12.4954 35.6605L12.506 35.7502L12.976 36.2202L13.1512 35.0816L13.3199 36.4851L13.3306 36.5748L13.8006 37.0448L13.9758 35.9062L14.1446 37.3097L14.1552 37.3994L14.6252 37.8694L14.8004 36.7308L14.9691 38.1343L14.9798 38.224L17.1289 40.3731C17.2549 40.5696 17.3682 40.7384 17.4664 40.8495C17.3511 40.747 17.1716 40.6231 16.9601 40.4928L14.8196 38.3522L14.7577 38.3458L13.3541 38.177L14.4714 38.0061L13.995 37.5297L13.9331 37.5233L12.5295 37.3546L13.6468 37.1837L13.1704 36.7073L13.1085 36.7009L11.7049 36.5321L12.8222 36.3612L12.3458 35.8848L12.2839 35.8784L10.8803 35.7097L11.9976 35.5387L9.13716 32.6783C9.00684 32.4326 8.9043 32.2959 8.9043 32.2959V32.2895Z" fill="#0B4346"/>
<path d="M20.4086 21.7982C20.4086 21.7982 18.0673 22.9155 17.4648 23.4388C17.984 22.83 19.1012 20.4887 19.1012 20.4887C20.5368 16.434 23.2327 17.1625 24.9396 15.9555L24.9439 15.9598C23.8074 17.5684 24.4397 20.3712 20.4107 21.7982H20.4086Z" fill="#90B63E"/>
<path d="M17.3578 23.5413L17.3813 23.5178C17.3663 23.522 17.3578 23.5306 17.3535 23.5349L17.3578 23.5391V23.5413Z" fill="#0B4346"/>
<path d="M24.9419 15.9597L24.9377 15.9554C24.9377 15.9554 24.8351 16.0259 24.6536 16.1263L22.105 18.6749L21.9512 17.6794L21.8038 18.9056L21.7952 18.9846L21.3851 19.3948L21.2313 18.3993L21.0839 19.6255L21.0753 19.7045L20.6651 20.1147L20.5113 19.1192L20.3639 20.3454L20.3554 20.4245L19.9452 20.8346L19.7914 19.8391L19.644 21.0653L19.6355 21.1444L17.7577 23.0243C17.6466 23.1952 17.5505 23.3447 17.4629 23.4409C17.5633 23.3511 17.7214 23.2443 17.9051 23.129L19.7743 21.2597L19.8277 21.2533L21.0539 21.1059L20.0777 20.9564L20.4942 20.5398L20.5477 20.5334L21.7739 20.386L20.7976 20.2365L21.2142 19.8199L21.2676 19.8135L22.4938 19.6661L21.5175 19.5165L21.9341 19.1L21.9875 19.0936L23.2137 18.9462L22.2374 18.7966L24.7369 16.2972C24.8501 16.0836 24.9398 15.9639 24.9398 15.9639L24.9419 15.9597Z" fill="#0B4346"/>
<path d="M14.5206 21.7982C14.5206 21.7982 16.862 22.9155 17.4644 23.4388C16.9453 22.83 15.828 20.4887 15.828 20.4887C14.3925 16.434 11.6965 17.1625 9.98963 15.9555L9.98535 15.9598C11.1218 17.5684 10.4895 20.3712 14.5185 21.7982H14.5206Z" fill="#90B63E"/>
<path d="M17.5704 23.5413L17.5469 23.5178C17.5618 23.522 17.5704 23.5306 17.5746 23.5349L17.5704 23.5391V23.5413Z" fill="#0B4346"/>
<path d="M9.98828 15.9597L9.99256 15.9554C9.99256 15.9554 10.0951 16.0259 10.2767 16.1263L12.8252 18.6749L12.979 17.6794L13.1264 18.9056L13.135 18.9846L13.5452 19.3948L13.699 18.3993L13.8464 19.6255L13.8549 19.7045L14.2651 20.1147L14.4189 19.1192L14.5663 20.3454L14.5748 20.4245L14.985 20.8346L15.1388 19.8391L15.2862 21.0653L15.2948 21.1444L17.1725 23.0243C17.2836 23.1952 17.3797 23.3447 17.4673 23.4409C17.3669 23.3511 17.2088 23.2443 17.0251 23.129L15.1559 21.2597L15.1025 21.2533L13.8763 21.1059L14.8526 20.9564L14.436 20.5398L14.3826 20.5334L13.1564 20.386L14.1326 20.2365L13.7161 19.8199L13.6627 19.8135L12.4364 19.6661L13.4127 19.5165L12.9961 19.1L12.9427 19.0936L11.7165 18.9462L12.6928 18.7966L10.1934 16.2972C10.0801 16.0836 9.99042 15.9639 9.99042 15.9639L9.98828 15.9597Z" fill="#0B4346"/>
<path d="M17.8997 22.9455H17.0303V45.1306H17.8997V22.9455Z" fill="#0B4346"/>
</svg>
