<svg width="65" height="65" viewBox="0 0 65 65" fill="none" xmlns="http://www.w3.org/2000/svg">
<path d="M46.5484 14.6717C46.5484 14.6717 46.5504 14.6555 46.5484 14.6474L45.9958 11.5367C45.897 10.9836 45.3706 10.6162 44.818 10.7131C44.2654 10.812 43.8984 11.3389 43.9952 11.892L44.1263 12.6268C35.8034 7.49139 25.0525 7.94356 17.1793 14.0116C16.6933 14.385 16.6469 15.1016 17.0825 15.5377C17.4374 15.8929 18.0102 15.9394 18.4196 15.6224C25.5687 10.1116 35.3154 9.66949 42.9042 14.2639L42.2629 14.379C41.7103 14.4779 41.3433 15.0047 41.4401 15.5579C41.5389 16.111 42.0673 16.4783 42.6178 16.3814L45.7275 15.8263C45.7759 15.8182 45.8143 15.788 45.8607 15.7738C46.381 15.6022 46.6169 15.1178 46.5484 14.6717Z" fill="black"/>
<path d="M14.4113 46.1785C8.89158 39.0043 8.45395 29.224 13.0681 21.6218L13.1992 22.3061C13.3041 22.8572 13.8365 23.2186 14.3891 23.1136C14.9396 23.0086 15.3006 22.4757 15.1958 21.9226L14.6028 18.82C14.4899 18.2346 13.9131 17.9177 13.413 18.0125L10.3073 18.61C9.75675 18.715 9.39576 19.2479 9.50063 19.801C9.60549 20.3521 10.1379 20.7135 10.6905 20.6085L11.3882 20.4732C6.28198 28.7981 6.74381 39.5453 12.8019 47.42C13.1408 47.8621 13.78 47.9489 14.2257 47.6057C14.6714 47.2625 14.7521 46.6246 14.4113 46.1805V46.1785Z" fill="black"/>
<path d="M46.176 51.8005C46.6197 51.4573 46.7024 50.8194 46.3615 50.3753C46.0167 49.9272 45.3815 49.8464 44.9378 50.1896C37.7705 55.7166 27.9976 56.1547 20.4027 51.532L21.0904 51.4008C21.641 51.2958 22.002 50.7629 21.8971 50.2098C21.7922 49.6587 21.2598 49.2974 20.7072 49.4024C19.6485 49.8808 16.4661 49.475 16.8009 51.1868L17.3978 54.2955C17.5027 54.8466 18.0351 55.2079 18.5877 55.103C19.1383 54.998 19.4992 54.4651 19.3944 53.912L19.2613 53.2155C27.5781 58.3267 38.313 57.8645 46.178 51.8005H46.176Z" fill="black"/>
<path d="M53.8348 45.9767C53.7259 45.4256 53.1935 45.0663 52.6429 45.1733L51.9875 45.3025C57.0655 36.9857 56.5936 26.2628 50.5456 18.4022C50.2027 17.9541 49.5655 17.8733 49.1218 18.2165C48.6781 18.5596 48.5954 19.1975 48.9362 19.6416C54.462 26.8219 54.8976 36.6103 50.2733 44.2124L50.1301 43.4797C50.0212 42.9306 49.4888 42.5693 48.9383 42.6783C48.3877 42.7853 48.0287 43.3202 48.1376 43.8713C48.6317 45.3752 48.3554 48.2255 50.0192 47.7592L53.0342 47.1677C53.5847 47.0587 53.9437 46.5258 53.8368 45.9747L53.8348 45.9767Z" fill="black"/>
<path d="M17.261 34.7218C18.2673 30.4543 15.6269 26.1782 11.3635 25.171C7.10011 24.1638 2.82823 26.8068 1.82198 31.0743C0.815725 35.3418 3.45615 39.6178 7.71953 40.625C11.9829 41.6322 16.2548 38.9893 17.261 34.7218Z" fill="#EF7A1A"/>
<path d="M59.391 38.5281C62.4885 35.4276 62.4885 30.4008 59.391 27.3003C56.2935 24.1998 51.2714 24.1998 48.1739 27.3003C45.0764 30.4008 45.0764 35.4276 48.1739 38.5281C51.2714 41.6286 56.2935 41.6286 59.391 38.5281Z" fill="#EF7A1A"/>
<path d="M38.9948 13.8151C40.6711 9.76416 38.7493 5.11991 34.7022 3.44195C30.6551 1.76398 26.0154 3.6877 24.339 7.73867C22.6627 11.7897 24.5845 16.4339 28.6316 18.1118C32.6787 19.7898 37.3184 17.8661 38.9948 13.8151Z" fill="#90B63E"/>
<path d="M39.3753 56.8565C40.3816 52.589 37.7412 48.313 33.4778 47.3058C29.2144 46.2986 24.9425 48.9416 23.9362 53.2091C22.93 57.4766 25.5704 61.7526 29.8338 62.7598C34.0972 63.767 38.3691 61.124 39.3753 56.8565Z" fill="#90B63E"/>
<path d="M7.81578 34.5835L6.09152 32.5285L4.45801 34.1656L7.1059 36.3901L7.81578 36.9857L8.31591 36.3901L14.6483 28.8405L7.81578 34.5835Z" fill="white"/>
<path d="M52.0443 34.5835L50.322 32.5285L48.6885 34.1656L51.3364 36.3901L52.0443 36.9857L52.5444 36.3901L58.8768 28.8405L52.0443 34.5835Z" fill="white"/>
<path d="M29.8037 7.81842H27.2646V10.0107H29.8037V7.81842Z" fill="white"/>
<path d="M29.8037 11.5428H27.2646V13.735H29.8037V11.5428Z" fill="white"/>
<path d="M36.07 7.81842H31.0625V10.0107H36.07V7.81842Z" fill="white"/>
<path d="M36.07 11.5428H31.0625V13.735H36.07V11.5428Z" fill="white"/>
<path d="M29.8037 52.0911H27.2646V54.2834H29.8037V52.0911Z" fill="white"/>
<path d="M29.8037 55.8155H27.2646V58.0077H29.8037V55.8155Z" fill="white"/>
<path d="M36.07 52.0911H31.0625V54.2834H36.07V52.0911Z" fill="white"/>
<path d="M36.07 55.8155H31.0625V58.0077H36.07V55.8155Z" fill="white"/>
</svg>
