<svg width="66" height="66" viewBox="0 0 66 66" fill="none" xmlns="http://www.w3.org/2000/svg">
<path d="M29.2371 57.1302V63.2369C29.2371 64.7406 28.0326 65.9452 26.5288 65.9452H3.64388C2.15381 65.9452 0.935547 64.7406 0.935547 63.2369V57.1302C0.935547 55.8298 1.46353 54.5705 2.46668 53.759C6.75895 50.2921 23.4157 50.2921 27.708 53.759C28.7229 54.5705 29.2391 55.8318 29.2391 57.1302H29.2371Z" fill="#0B4346"/>
<path d="M18.9343 51.2855L15.0898 63.2585L21.1851 58.4697L19.8064 56.5104L23.5062 54.8424L18.9343 51.2855Z" fill="#E2F3F1"/>
<path d="M11.2438 51.2855L15.0902 63.2585L8.99498 58.4697L10.3736 56.5104L6.67188 54.8424L11.2438 51.2855Z" fill="#E2F3F1"/>
<path d="M18.934 51.2854L15.0896 63.2585L11.2432 51.2854L11.8904 45.2236H18.2868L18.934 51.2854Z" fill="#E0AA52"/>
<path d="M21.4637 40.028C21.4637 44.2674 18.3897 50.0085 14.6117 50.0085C10.8338 50.0085 7.77344 44.2674 7.77344 40.028C7.77344 35.7887 10.8338 34.6663 14.6117 34.6663C18.3897 34.6663 21.4637 35.7906 21.4637 40.028Z" fill="#EAC386"/>
<path d="M17.6307 35.644C17.6307 35.644 16.9912 37.4019 14.7014 38.6788C14.7014 38.6788 15.4464 37.0812 14.9673 36.389C14.9673 36.389 13.9563 38.9975 11.6117 39.4786C11.6117 39.4786 12.5171 37.9866 12.038 37.5623C12.038 37.5623 10.0669 41.0233 7.82982 41.2893C7.82982 41.2893 5.22122 30.1062 15.8179 29.9987C15.8179 29.9987 16.9717 27.6894 19.3143 28.0765C20.2373 28.2291 21.0312 28.8079 21.6042 29.549C22.3942 30.5717 23.1392 32.2025 21.3578 33.5126C21.3578 33.5126 24.1796 36.9209 21.4106 41.0742C21.4106 41.0742 18.0022 38.89 17.6287 35.642L17.6307 35.644Z" fill="black"/>
<path d="M65.9355 58.1196V63.2389C65.9355 64.7426 64.731 65.9472 63.2272 65.9472H39.3939C37.9038 65.9472 36.6855 64.7426 36.6855 63.2389V58.1196C36.6855 56.5084 37.7004 55.0594 39.2316 54.5041L44.6756 52.5272H58.0276L63.4032 54.4904C64.9344 55.0457 65.9355 56.4947 65.9355 58.1196Z" fill="#EF7A1A"/>
<path d="M55.513 55.4544L51.3127 57.8517L47.1123 55.4544L48.2074 45.2881H54.416L55.513 55.4544Z" fill="#E0AA52"/>
<path d="M58.6765 39.0523C58.6765 43.5479 55.4539 49.7778 51.4725 49.7778C47.4912 49.7778 44.2549 43.5479 44.2549 39.0523C44.2549 29.8443 58.6765 29.8306 58.6765 39.0523Z" fill="#EAC386"/>
<path d="M43.152 30.9315C43.152 30.9315 45.9894 31.2092 47.6495 29.4787C47.6495 29.4787 50.8331 26.2268 55.1234 29.4787C55.1234 29.4787 62.7341 31.4849 58.3753 41.5181C58.3753 41.5181 57.4074 34.9519 55.4695 34.7759C55.4695 34.7759 51.5937 38.9585 44.951 36.1896C44.951 36.1896 44.466 40.2725 44.5364 41.5181C44.5364 41.5181 42.8058 37.7892 44.0515 34.7759C44.0515 34.7759 42.4597 32.7305 43.152 30.9315Z" fill="black"/>
<path d="M55.0357 51.0273L58.0256 52.5291L55.1334 57.8126L53.2973 56.8447C53.2973 56.8447 52.7419 58.2018 51.3496 57.8126L55.0337 51.0273H55.0357Z" fill="#FAD3B3"/>
<path d="M47.5953 51.0273L44.6777 52.5291L47.5699 57.8126L49.4061 56.8447C49.4061 56.8447 49.9614 58.2018 51.3537 57.8126L47.5973 51.0273H47.5953Z" fill="#FAD3B3"/>
<path d="M62.5509 7.16349V22.0716C62.5509 23.2898 61.5751 24.2792 60.3568 24.2792H44.7287L39.7852 27.3395C39.0539 27.7853 38.1055 27.2573 38.1055 26.3911V7.16153C38.1055 5.94331 39.0813 4.95386 40.2995 4.95386H60.3549C61.5731 4.95386 62.5489 5.94331 62.5489 7.16153L62.5509 7.16349Z" fill="#C4DB95"/>
<path d="M31.4037 3.3856V24.6996C31.4037 25.6617 30.3614 26.2425 29.5479 25.7419L24.0765 22.3571H6.75684C5.41538 22.3571 4.32031 21.2601 4.32031 19.9187V3.3856C4.32031 2.04419 5.41734 0.947205 6.75684 0.947205H28.9652C30.3203 0.947205 31.4037 2.04419 31.4037 3.3856Z" fill="#E8B0C8"/>
<path d="M27.1133 6.96796H8.61841C8.05719 6.96796 7.60352 6.51233 7.60352 5.95308C7.60352 5.39383 8.05914 4.93823 8.61841 4.93823H27.1133C27.6745 4.93823 28.1282 5.39383 28.1282 5.95308C28.1282 6.51233 27.6726 6.96796 27.1133 6.96796Z" fill="#CD5187"/>
<path d="M27.1133 12.2183H8.61841C8.05719 12.2183 7.60352 11.7626 7.60352 11.2034C7.60352 10.6441 8.05914 10.1885 8.61841 10.1885H27.1133C27.6745 10.1885 28.1282 10.6441 28.1282 11.2034C28.1282 11.7626 27.6726 12.2183 27.1133 12.2183Z" fill="#CD5187"/>
<path d="M27.1133 17.4705H8.61841C8.05719 17.4705 7.60352 17.0149 7.60352 16.4556C7.60352 15.8964 8.05914 15.4408 8.61841 15.4408H27.1133C27.6745 15.4408 28.1282 15.8964 28.1282 16.4556C28.1282 17.0149 27.6726 17.4705 27.1133 17.4705Z" fill="#CD5187"/>
<path d="M57.9493 10.5366H42.462C41.9926 10.5366 41.6113 10.1552 41.6113 9.68593C41.6113 9.21663 41.9926 8.83533 42.462 8.83533H57.9493C58.4186 8.83533 58.8 9.21663 58.8 9.68593C58.8 10.1552 58.4186 10.5366 57.9493 10.5366Z" fill="#90B63E"/>
<path d="M57.9493 14.9343H42.462C41.9926 14.9343 41.6113 14.5529 41.6113 14.0836C41.6113 13.6143 41.9926 13.233 42.462 13.233H57.9493C58.4186 13.233 58.8 13.6143 58.8 14.0836C58.8 14.5529 58.4186 14.9343 57.9493 14.9343Z" fill="#90B63E"/>
<path d="M57.9493 19.332H42.462C41.9926 19.332 41.6113 18.9507 41.6113 18.4814C41.6113 18.0121 41.9926 17.6308 42.462 17.6308H57.9493C58.4186 17.6308 58.8 18.0121 58.8 18.4814C58.8 18.9507 58.4186 19.332 57.9493 19.332Z" fill="#90B63E"/>
</svg>
