<svg width="460" height="460" viewBox="0 0 460 460" fill="none" xmlns="http://www.w3.org/2000/svg">
<g clip-path="url(#clip0_794_10049)">
<rect width="460" height="460" fill="#E2F3F1"/>
<mask id="path-1-inside-1_794_10049" fill="white">
<path fill-rule="evenodd" clip-rule="evenodd" d="M90.4935 331C94.6086 331.024 97.9255 334.374 97.9021 338.484C97.8817 342.071 95.3224 345.051 91.9349 345.735L91.9349 552.091L88.9349 552.091L88.9349 345.728C85.53 345.025 82.9796 342.004 83.0001 338.399C83.0235 334.289 86.3784 330.977 90.4935 331Z"/>
</mask>
<path fill-rule="evenodd" clip-rule="evenodd" d="M90.4935 331C94.6086 331.024 97.9255 334.374 97.9021 338.484C97.8817 342.071 95.3224 345.051 91.9349 345.735L91.9349 552.091L88.9349 552.091L88.9349 345.728C85.53 345.025 82.9796 342.004 83.0001 338.399C83.0235 334.289 86.3784 330.977 90.4935 331Z" fill="#E2F3F1"/>
<path d="M97.9021 338.484L100.902 338.501L97.9021 338.484ZM90.4935 331L90.5106 328L90.4935 331ZM91.9349 345.735H88.9349V343.28L91.3414 342.794L91.9349 345.735ZM91.9349 552.091H94.9349L94.9349 555.091L91.9349 555.091L91.9349 552.091ZM88.9349 552.091L88.9349 555.091L85.9349 555.091V552.091H88.9349ZM88.9349 345.728L89.5413 342.79L91.9349 343.284L91.9349 345.728H88.9349ZM83.0001 338.399L80.0002 338.382V338.382L83.0001 338.399ZM94.9021 338.467C94.9161 336.018 92.9385 334.014 90.4765 334L90.5106 328C96.2786 328.033 100.935 332.731 100.902 338.501L94.9021 338.467ZM91.3414 342.794C93.3662 342.385 94.89 340.601 94.9021 338.467L100.902 338.501C100.873 343.541 97.2785 347.717 92.5284 348.676L91.3414 342.794ZM88.9349 552.091L88.9349 345.735H94.9349L94.9349 552.091H88.9349ZM88.9348 549.091L91.9348 549.091L91.9349 555.091L88.9349 555.091L88.9348 549.091ZM91.9349 345.728L91.9349 552.091H85.9349L85.9349 345.728H91.9349ZM86.0001 338.416C85.9878 340.561 87.5063 342.37 89.5413 342.79L88.3285 348.666C83.5537 347.681 79.9713 343.447 80.0002 338.382L86.0001 338.416ZM90.4765 334C88.0144 333.986 86.014 335.967 86.0001 338.416L80.0002 338.382C80.033 332.612 84.7425 327.968 90.5106 328L90.4765 334Z" fill="#8ECDC7" mask="url(#path-1-inside-1_794_10049)"/>
<mask id="path-3-inside-2_794_10049" fill="white">
<path fill-rule="evenodd" clip-rule="evenodd" d="M151.494 365C155.609 365.024 158.926 368.374 158.902 372.484C158.882 376.071 156.322 379.051 152.935 379.735L152.935 586.091L149.935 586.091L149.935 379.728C146.53 379.025 143.98 376.004 144 372.399C144.024 368.289 147.378 364.977 151.494 365Z"/>
</mask>
<path fill-rule="evenodd" clip-rule="evenodd" d="M151.494 365C155.609 365.024 158.926 368.374 158.902 372.484C158.882 376.071 156.322 379.051 152.935 379.735L152.935 586.091L149.935 586.091L149.935 379.728C146.53 379.025 143.98 376.004 144 372.399C144.024 368.289 147.378 364.977 151.494 365Z" fill="#E2F3F1"/>
<path d="M158.902 372.484L161.902 372.501L158.902 372.484ZM151.494 365L151.511 362L151.494 365ZM152.935 379.735H149.935V377.28L152.341 376.794L152.935 379.735ZM152.935 586.091H155.935L155.935 589.091L152.935 589.091L152.935 586.091ZM149.935 586.091L149.935 589.091L146.935 589.091V586.091H149.935ZM149.935 379.728L150.541 376.79L152.935 377.284L152.935 379.728H149.935ZM144 372.399L141 372.382V372.382L144 372.399ZM155.902 372.467C155.916 370.018 153.939 368.014 151.476 368L151.511 362C157.279 362.033 161.935 366.731 161.902 372.501L155.902 372.467ZM152.341 376.794C154.366 376.385 155.89 374.601 155.902 372.467L161.902 372.501C161.873 377.541 158.279 381.717 153.528 382.676L152.341 376.794ZM149.935 586.091L149.935 379.735H155.935L155.935 586.091H149.935ZM149.935 583.091L152.935 583.091L152.935 589.091L149.935 589.091L149.935 583.091ZM152.935 379.728L152.935 586.091H146.935L146.935 379.728H152.935ZM147 372.416C146.988 374.561 148.506 376.37 150.541 376.79L149.328 382.666C144.554 381.681 140.971 377.447 141 372.382L147 372.416ZM151.476 368C149.014 367.986 147.014 369.967 147 372.416L141 372.382C141.033 366.612 145.743 361.968 151.511 362L151.476 368Z" fill="#8ECDC7" mask="url(#path-3-inside-2_794_10049)"/>
<mask id="path-5-inside-3_794_10049" fill="white">
<path fill-rule="evenodd" clip-rule="evenodd" d="M434.495 281.091C438.61 281.068 441.927 277.717 441.903 273.608C441.883 270.02 439.324 267.04 435.936 266.356L435.936 -56.9998L432.936 -56.9998L432.936 266.363C429.531 267.066 426.981 270.087 427.001 273.692C427.025 277.802 430.38 281.114 434.495 281.091Z"/>
</mask>
<path fill-rule="evenodd" clip-rule="evenodd" d="M434.495 281.091C438.61 281.068 441.927 277.717 441.903 273.608C441.883 270.02 439.324 267.04 435.936 266.356L435.936 -56.9998L432.936 -56.9998L432.936 266.363C429.531 267.066 426.981 270.087 427.001 273.692C427.025 277.802 430.38 281.114 434.495 281.091Z" fill="#E2F3F1"/>
<path d="M441.903 273.608L438.903 273.625L441.903 273.608ZM434.495 281.091L434.512 284.091L434.495 281.091ZM435.936 266.356L432.936 266.356L432.936 268.811L435.343 269.297L435.936 266.356ZM435.936 -56.9998H438.936L438.936 -59.9997L435.936 -59.9998L435.936 -56.9998ZM432.936 -56.9998L432.936 -59.9998L429.936 -59.9999L429.936 -56.9998H432.936ZM432.936 266.363L433.543 269.301L435.936 268.807L435.936 266.363L432.936 266.363ZM427.001 273.692L424.001 273.709V273.709L427.001 273.692ZM438.903 273.625C438.917 276.074 436.94 278.077 434.478 278.091L434.512 284.091C440.28 284.058 444.936 279.361 444.903 273.591L438.903 273.625ZM435.343 269.297C437.368 269.706 438.891 271.49 438.903 273.625L444.903 273.591C444.875 268.55 441.28 264.374 436.53 263.416L435.343 269.297ZM432.936 -56.9998L432.936 266.356L438.936 266.356L438.936 -56.9998H432.936ZM432.936 -53.9998L435.936 -53.9998L435.936 -59.9998L432.936 -59.9998L432.936 -53.9998ZM435.936 266.363L435.936 -56.9998H429.936L429.936 266.363L435.936 266.363ZM430.001 273.675C429.989 271.53 431.508 269.721 433.543 269.301L432.33 263.425C427.555 264.411 423.973 268.644 424.001 273.709L430.001 273.675ZM434.478 278.091C432.016 278.105 430.015 276.124 430.001 273.675L424.001 273.709C424.034 279.48 428.744 284.124 434.512 284.091L434.478 278.091Z" fill="#8ECDC7" mask="url(#path-5-inside-3_794_10049)"/>
<mask id="path-7-inside-4_794_10049" fill="white">
<path fill-rule="evenodd" clip-rule="evenodd" d="M323 70.3764C323.036 66.267 326.401 62.9646 330.516 63.0003C333.727 63.0281 336.446 65.0806 337.469 67.9337L758.471 67.9337L758.471 70.9337L337.886 70.9337C337.63 74.8419 334.358 77.9162 330.387 77.8818C326.272 77.8461 322.965 74.4858 323 70.3764Z"/>
</mask>
<path fill-rule="evenodd" clip-rule="evenodd" d="M323 70.3764C323.036 66.267 326.401 62.9646 330.516 63.0003C333.727 63.0281 336.446 65.0806 337.469 67.9337L758.471 67.9337L758.471 70.9337L337.886 70.9337C337.63 74.8419 334.358 77.9162 330.387 77.8818C326.272 77.8461 322.965 74.4858 323 70.3764Z" fill="#E2F3F1"/>
<path d="M330.516 63.0003L330.542 60.0004L330.516 63.0003ZM323 70.3764L326 70.4025L323 70.3764ZM337.469 67.9337V70.9337H335.357L334.645 68.9458L337.469 67.9337ZM758.471 67.9337V64.9337H761.471L761.471 67.9337L758.471 67.9337ZM758.471 70.9337L761.471 70.9337L761.471 73.9337H758.471V70.9337ZM337.886 70.9337L334.893 70.7375L335.076 67.9337H337.886V70.9337ZM330.387 77.8818L330.413 74.8819L330.387 77.8818ZM330.49 66.0002C328.028 65.9788 326.022 67.9537 326 70.4025L320.001 70.3503C320.051 64.5803 324.774 59.9503 330.542 60.0004L330.49 66.0002ZM334.645 68.9458C334.033 67.2398 332.406 66.0168 330.49 66.0002L330.542 60.0004C335.048 60.0395 338.859 62.9213 340.293 66.9215L334.645 68.9458ZM758.471 70.9337L337.469 70.9337V64.9337L758.471 64.9337V70.9337ZM755.471 70.9336L755.471 67.9336L761.471 67.9337L761.471 70.9337L755.471 70.9336ZM337.886 67.9337L758.471 67.9337V73.9337L337.886 73.9337V67.9337ZM330.413 74.8819C332.787 74.9025 334.74 73.064 334.893 70.7375L340.88 71.1298C340.52 76.6199 335.928 80.93 330.36 80.8817L330.413 74.8819ZM326 70.4025C325.979 72.8513 327.951 74.8605 330.413 74.8819L330.36 80.8817C324.593 80.8316 319.95 76.1204 320.001 70.3503L326 70.4025Z" fill="#8ECDC7" mask="url(#path-7-inside-4_794_10049)"/>
<mask id="path-9-inside-5_794_10049" fill="white">
<path fill-rule="evenodd" clip-rule="evenodd" d="M95.4703 271.506C95.4345 275.615 92.0697 278.918 87.9547 278.882C84.7435 278.854 82.0245 276.802 81.002 273.949L-340 273.949L-340 270.949L80.5845 270.949C80.8406 267.04 84.1131 263.966 88.0842 264.001C92.1992 264.036 95.506 267.397 95.4703 271.506Z"/>
</mask>
<path fill-rule="evenodd" clip-rule="evenodd" d="M95.4703 271.506C95.4345 275.615 92.0697 278.918 87.9547 278.882C84.7435 278.854 82.0245 276.802 81.002 273.949L-340 273.949L-340 270.949L80.5845 270.949C80.8406 267.04 84.1131 263.966 88.0842 264.001C92.1992 264.036 95.506 267.397 95.4703 271.506Z" fill="#E2F3F1"/>
<path d="M87.9547 278.882L87.9287 281.882L87.9547 278.882ZM95.4703 271.506L92.4704 271.48L95.4703 271.506ZM81.002 273.949V270.949H83.1136L83.8261 272.937L81.002 273.949ZM-340 273.949V276.949H-343L-343 273.949L-340 273.949ZM-340 270.949L-343 270.949L-343 267.949H-340V270.949ZM80.5845 270.949L83.578 271.145L83.3943 273.949H80.5845V270.949ZM88.0842 264.001L88.0582 267L88.0842 264.001ZM87.9808 275.882C90.4428 275.904 92.4491 273.929 92.4704 271.48L98.4702 271.532C98.42 277.302 93.6966 281.932 87.9287 281.882L87.9808 275.882ZM83.8261 272.937C84.4375 274.643 86.0647 275.866 87.9808 275.882L87.9287 281.882C83.4224 281.843 79.6115 278.961 78.1778 274.961L83.8261 272.937ZM-340 270.949L81.002 270.949V276.949L-340 276.949V270.949ZM-337 270.949L-337 273.949L-343 273.949L-343 270.949L-337 270.949ZM80.5845 273.949L-340 273.949V267.949L80.5845 267.949V273.949ZM88.0582 267C85.6833 266.98 83.7305 268.818 83.578 271.145L77.5909 270.753C77.9506 265.262 82.5428 260.952 88.1102 261.001L88.0582 267ZM92.4704 271.48C92.4917 269.031 90.5201 267.022 88.0582 267L88.1102 261.001C93.8782 261.051 98.5204 265.762 98.4702 271.532L92.4704 271.48Z" fill="#8ECDC7" mask="url(#path-9-inside-5_794_10049)"/>
<mask id="path-11-inside-6_794_10049" fill="white">
<path fill-rule="evenodd" clip-rule="evenodd" d="M278.471 418.506C278.436 422.615 275.071 425.918 270.956 425.882C267.745 425.854 265.026 423.802 264.003 420.949L-156.999 420.949L-156.999 417.949L263.586 417.949C263.842 414.04 267.114 410.966 271.085 411.001C275.2 411.036 278.507 414.397 278.471 418.506Z"/>
</mask>
<path fill-rule="evenodd" clip-rule="evenodd" d="M278.471 418.506C278.436 422.615 275.071 425.918 270.956 425.882C267.745 425.854 265.026 423.802 264.003 420.949L-156.999 420.949L-156.999 417.949L263.586 417.949C263.842 414.04 267.114 410.966 271.085 411.001C275.2 411.036 278.507 414.397 278.471 418.506Z" fill="#E2F3F1"/>
<path d="M270.956 425.882L270.93 428.882L270.956 425.882ZM278.471 418.506L275.471 418.48L278.471 418.506ZM264.003 420.949V417.949H266.115L266.827 419.937L264.003 420.949ZM-156.999 420.949V423.949H-159.999L-159.999 420.949L-156.999 420.949ZM-156.999 417.949L-159.999 417.949L-159.999 414.949H-156.999V417.949ZM263.586 417.949L266.579 418.145L266.395 420.949H263.586V417.949ZM271.085 411.001L271.059 414L271.085 411.001ZM270.982 422.882C273.444 422.904 275.45 420.929 275.471 418.48L281.471 418.532C281.421 424.302 276.698 428.932 270.93 428.882L270.982 422.882ZM266.827 419.937C267.439 421.643 269.066 422.866 270.982 422.882L270.93 428.882C266.423 428.843 262.613 425.961 261.179 421.961L266.827 419.937ZM-156.999 417.949L264.003 417.949V423.949L-156.999 423.949V417.949ZM-153.999 417.949L-153.999 420.949L-159.999 420.949L-159.999 417.949L-153.999 417.949ZM263.586 420.949L-156.999 420.949V414.949L263.586 414.949V420.949ZM271.059 414C268.684 413.98 266.732 415.818 266.579 418.145L260.592 417.753C260.952 412.262 265.544 407.952 271.111 408.001L271.059 414ZM275.471 418.48C275.493 416.031 273.521 414.022 271.059 414L271.111 408.001C276.879 408.051 281.521 412.762 281.471 418.532L275.471 418.48Z" fill="#8ECDC7" mask="url(#path-11-inside-6_794_10049)"/>
<mask id="path-13-inside-7_794_10049" fill="white">
<path fill-rule="evenodd" clip-rule="evenodd" d="M277.494 88.7565C281.609 88.7331 284.926 85.3827 284.902 81.2732C284.881 77.5025 282.054 74.4028 278.409 73.9354L277.23 -133L274.23 -132.983L275.411 74.157C272.272 75.0474 269.981 77.9401 270 81.3579C270.024 85.4674 273.378 88.7799 277.494 88.7565Z"/>
</mask>
<path fill-rule="evenodd" clip-rule="evenodd" d="M277.494 88.7565C281.609 88.7331 284.926 85.3827 284.902 81.2732C284.881 77.5025 282.054 74.4028 278.409 73.9354L277.23 -133L274.23 -132.983L275.411 74.157C272.272 75.0474 269.981 77.9401 270 81.3579C270.024 85.4674 273.378 88.7799 277.494 88.7565Z" fill="#E2F3F1"/>
<path d="M284.902 81.2732L287.902 81.2561L284.902 81.2732ZM277.494 88.7565L277.511 91.7564L277.494 88.7565ZM278.409 73.9354L275.409 73.9525L275.424 76.5772L278.028 76.9111L278.409 73.9354ZM277.23 -133L280.23 -133.017L280.213 -136.017L277.213 -136L277.23 -133ZM274.23 -132.983L274.213 -135.983L271.213 -135.966L271.23 -132.966L274.23 -132.983ZM275.411 74.157L276.229 77.0431L278.424 76.4207L278.411 74.1399L275.411 74.157ZM270 81.3579L267 81.375V81.375L270 81.3579ZM281.902 81.2903C281.916 83.7391 279.939 85.7425 277.476 85.7565L277.511 91.7564C283.279 91.7236 287.935 87.0263 287.902 81.2561L281.902 81.2903ZM278.028 76.9111C280.205 77.1902 281.889 79.0455 281.902 81.2903L287.902 81.2561C287.872 75.9594 283.903 71.6153 278.791 70.9598L278.028 76.9111ZM274.23 -132.983L275.409 73.9525L281.409 73.9183L280.23 -133.017L274.23 -132.983ZM274.247 -129.983L277.247 -130L277.213 -136L274.213 -135.983L274.247 -129.983ZM278.411 74.1399L277.23 -133L271.23 -132.966L272.411 74.1741L278.411 74.1399ZM273 81.3408C272.988 79.3081 274.351 77.576 276.229 77.0431L274.592 71.2709C270.192 72.5189 266.973 76.5722 267 81.375L273 81.3408ZM277.476 85.7565C275.014 85.7705 273.014 83.7897 273 81.3408L267 81.375C267.033 87.1451 271.743 91.7892 277.511 91.7564L277.476 85.7565Z" fill="#8ECDC7" mask="url(#path-13-inside-7_794_10049)"/>
<mask id="path-15-inside-8_794_10049" fill="white">
<path fill-rule="evenodd" clip-rule="evenodd" d="M403.495 214.257C407.61 214.233 410.927 210.883 410.904 206.773C410.882 203.008 408.065 199.912 404.428 199.438L404.428 -87.9999L401.428 -87.9999L401.428 199.653C398.281 200.538 395.982 203.435 396.002 206.858C396.025 210.968 399.38 214.28 403.495 214.257Z"/>
</mask>
<path fill-rule="evenodd" clip-rule="evenodd" d="M403.495 214.257C407.61 214.233 410.927 210.883 410.904 206.773C410.882 203.008 408.065 199.912 404.428 199.438L404.428 -87.9999L401.428 -87.9999L401.428 199.653C398.281 200.538 395.982 203.435 396.002 206.858C396.025 210.968 399.38 214.28 403.495 214.257Z" fill="#E2F3F1"/>
<path d="M410.904 206.773L407.904 206.79L410.904 206.773ZM403.495 214.257L403.512 217.257L403.495 214.257ZM404.428 199.438H401.428V202.072L404.04 202.412L404.428 199.438ZM404.428 -87.9999H407.428L407.428 -90.9998L404.428 -90.9999L404.428 -87.9999ZM401.428 -87.9999L401.428 -90.9999L398.428 -90.9999L398.428 -87.9999H401.428ZM401.428 199.653L402.24 202.541L404.428 201.925V199.653L401.428 199.653ZM396.002 206.858L399.002 206.841V206.841L396.002 206.858ZM407.904 206.79C407.918 209.239 405.94 211.243 403.478 211.257L403.512 217.257C409.28 217.224 413.937 212.526 413.904 206.756L407.904 206.79ZM404.04 202.412C406.212 202.696 407.891 204.549 407.904 206.79L413.904 206.756C413.874 201.468 409.917 197.129 404.816 196.463L404.04 202.412ZM401.428 -87.9999L401.428 199.438L407.428 199.438L407.428 -87.9999H401.428ZM401.428 -84.9999L404.428 -84.9999L404.428 -90.9999L401.428 -90.9999L401.428 -84.9999ZM404.428 199.653L404.428 -87.9999H398.428L398.428 199.653L404.428 199.653ZM399.002 206.841C398.99 204.805 400.357 203.07 402.24 202.541L400.615 196.765C396.204 198.006 392.975 202.065 393.002 206.875L399.002 206.841ZM403.478 211.257C401.016 211.271 399.016 209.29 399.002 206.841L393.002 206.875C393.035 212.645 397.744 217.289 403.512 217.257L403.478 211.257Z" fill="#8ECDC7" mask="url(#path-15-inside-8_794_10049)"/>
<mask id="path-17-inside-9_794_10049" fill="white">
<path fill-rule="evenodd" clip-rule="evenodd" d="M45.4935 180C49.6086 180.024 52.9255 183.374 52.9021 187.484C52.8806 191.249 50.0628 194.345 46.426 194.819L46.426 482.257L43.426 482.257L43.426 194.604C40.2791 193.719 37.9806 190.822 38.0001 187.399C38.0235 183.289 41.3784 179.977 45.4935 180Z"/>
</mask>
<path fill-rule="evenodd" clip-rule="evenodd" d="M45.4935 180C49.6086 180.024 52.9255 183.374 52.9021 187.484C52.8806 191.249 50.0628 194.345 46.426 194.819L46.426 482.257L43.426 482.257L43.426 194.604C40.2791 193.719 37.9806 190.822 38.0001 187.399C38.0235 183.289 41.3784 179.977 45.4935 180Z" fill="#E2F3F1"/>
<path d="M52.9021 187.484L49.9021 187.466L52.9021 187.484ZM45.4935 180L45.5106 177L45.4935 180ZM46.426 194.819H43.426V192.185L46.0378 191.844L46.426 194.819ZM46.426 482.257H49.426L49.426 485.257L46.426 485.257L46.426 482.257ZM43.426 482.257L43.426 485.257L40.426 485.257L40.426 482.257H43.426ZM43.426 194.604L44.2385 191.716L46.426 192.332V194.604L43.426 194.604ZM38.0001 187.399L41.0001 187.416V187.416L38.0001 187.399ZM49.9021 187.466C49.9161 185.018 47.9385 183.014 45.4765 183L45.5106 177C51.2786 177.033 55.9349 181.73 55.902 187.501L49.9021 187.466ZM46.0378 191.844C48.2103 191.561 49.8894 189.708 49.9021 187.466L55.902 187.501C55.8719 192.789 51.9153 197.128 46.8142 197.794L46.0378 191.844ZM43.426 482.257L43.426 194.819L49.426 194.819L49.426 482.257H43.426ZM43.426 479.257L46.426 479.257L46.426 485.257L43.426 485.257L43.426 479.257ZM46.426 194.604L46.426 482.257H40.426L40.426 194.604L46.426 194.604ZM41.0001 187.416C40.9885 189.452 42.3554 191.186 44.2385 191.716L42.6135 197.492C38.2027 196.251 34.9727 192.192 35.0002 187.382L41.0001 187.416ZM45.4765 183C43.0144 182.986 41.014 184.967 41.0001 187.416L35.0002 187.382C35.033 181.612 39.7425 176.968 45.5106 177L45.4765 183Z" fill="#8ECDC7" mask="url(#path-17-inside-9_794_10049)"/>
<mask id="path-19-inside-10_794_10049" fill="white">
<path fill-rule="evenodd" clip-rule="evenodd" d="M166 34.3764C166.036 30.267 169.401 26.9646 173.516 27.0003C176.727 27.0281 179.446 29.0806 180.469 31.9337L601.471 31.9337L601.47 34.9337L180.886 34.9337C180.63 38.8419 177.358 41.9162 173.386 41.8818C169.271 41.8461 165.965 38.4858 166 34.3764Z"/>
</mask>
<path fill-rule="evenodd" clip-rule="evenodd" d="M166 34.3764C166.036 30.267 169.401 26.9646 173.516 27.0003C176.727 27.0281 179.446 29.0806 180.469 31.9337L601.471 31.9337L601.47 34.9337L180.886 34.9337C180.63 38.8419 177.358 41.9162 173.386 41.8818C169.271 41.8461 165.965 38.4858 166 34.3764Z" fill="#E2F3F1"/>
<path d="M173.516 27.0003L173.542 24.0004L173.516 27.0003ZM166 34.3764L169 34.4025L166 34.3764ZM180.469 31.9337V34.9337H178.357L177.645 32.9458L180.469 31.9337ZM601.471 31.9337V28.9337H604.471L604.471 31.9337L601.471 31.9337ZM601.47 34.9337L604.47 34.9337L604.47 37.9337H601.47V34.9337ZM180.886 34.9337L177.893 34.7375L178.076 31.9337H180.886V34.9337ZM173.386 41.8818L173.412 38.8819L173.386 41.8818ZM173.49 30.0002C171.028 29.9788 169.021 31.9537 169 34.4025L163 34.3503C163.051 28.5803 167.774 23.9503 173.542 24.0004L173.49 30.0002ZM177.645 32.9458C177.033 31.2398 175.406 30.0168 173.49 30.0002L173.542 24.0004C178.048 24.0395 181.859 26.9213 183.293 30.9215L177.645 32.9458ZM601.471 34.9337L180.469 34.9337V28.9337L601.471 28.9337V34.9337ZM598.47 34.9336L598.471 31.9336L604.471 31.9337L604.47 34.9337L598.47 34.9336ZM180.886 31.9337L601.47 31.9337V37.9337L180.886 37.9337V31.9337ZM173.412 38.8819C175.787 38.9025 177.74 37.064 177.893 34.7375L183.88 35.1298C183.52 40.6199 178.928 44.93 173.36 44.8817L173.412 38.8819ZM169 34.4025C168.979 36.8513 170.95 38.8605 173.412 38.8819L173.36 44.8817C167.592 44.8316 162.95 40.1204 163 34.3503L169 34.4025Z" fill="#8ECDC7" mask="url(#path-19-inside-10_794_10049)"/>
<mask id="path-21-inside-11_794_10049" fill="white">
<path fill-rule="evenodd" clip-rule="evenodd" d="M368 158.376C368.036 154.267 371.401 150.965 375.516 151C378.727 151.028 381.446 153.081 382.469 155.934L803.471 155.934L803.47 158.934L382.886 158.934C382.63 162.842 379.358 165.916 375.386 165.882C371.271 165.846 367.965 162.486 368 158.376Z"/>
</mask>
<path fill-rule="evenodd" clip-rule="evenodd" d="M368 158.376C368.036 154.267 371.401 150.965 375.516 151C378.727 151.028 381.446 153.081 382.469 155.934L803.471 155.934L803.47 158.934L382.886 158.934C382.63 162.842 379.358 165.916 375.386 165.882C371.271 165.846 367.965 162.486 368 158.376Z" fill="#E2F3F1"/>
<path d="M375.516 151L375.542 148L375.516 151ZM368 158.376L371 158.402L368 158.376ZM382.469 155.934V158.934H380.357L379.645 156.946L382.469 155.934ZM803.471 155.934V152.934H806.471L806.471 155.934L803.471 155.934ZM803.47 158.934L806.47 158.934L806.47 161.934H803.47V158.934ZM382.886 158.934L379.893 158.737L380.076 155.934H382.886V158.934ZM375.386 165.882L375.412 162.882L375.386 165.882ZM375.49 154C373.028 153.979 371.021 155.954 371 158.402L365 158.35C365.051 152.58 369.774 147.95 375.542 148L375.49 154ZM379.645 156.946C379.033 155.24 377.406 154.017 375.49 154L375.542 148C380.048 148.039 383.859 150.921 385.293 154.922L379.645 156.946ZM803.471 158.934L382.469 158.934V152.934L803.471 152.934V158.934ZM800.47 158.934L800.471 155.934L806.471 155.934L806.47 158.934L800.47 158.934ZM382.886 155.934L803.47 155.934V161.934L382.886 161.934V155.934ZM375.412 162.882C377.787 162.903 379.74 161.064 379.893 158.737L385.88 159.13C385.52 164.62 380.928 168.93 375.36 168.882L375.412 162.882ZM371 158.402C370.979 160.851 372.95 162.861 375.412 162.882L375.36 168.882C369.592 168.832 364.95 164.12 365 158.35L371 158.402Z" fill="#8ECDC7" mask="url(#path-21-inside-11_794_10049)"/>
<path d="M345.727 128.17H127.879V346.018H345.727V128.17Z" fill="#334142"/>
<path d="M347.381 347.706H126.191V126.482H347.381V347.706ZM129.534 344.329H344.004V129.859H129.568V344.329H129.534Z" fill="black"/>
<path d="M193.729 150.999H150.673V194.055H193.729V150.999Z" fill="#5D7A7F"/>
<path d="M236.786 150.999H193.729V194.055H236.786V150.999Z" fill="white"/>
<path d="M279.842 150.999H236.786V194.055H279.842V150.999Z" fill="#5D7A7F"/>
<path d="M322.898 150.999H279.842V194.055H322.898V150.999Z" fill="white"/>
<path d="M193.729 194.055H150.673V237.111H193.729V194.055Z" fill="white"/>
<path d="M236.786 194.055H193.729V237.111H236.786V194.055Z" fill="#5D7A7F"/>
<path d="M279.842 194.055H236.786V237.111H279.842V194.055Z" fill="white"/>
<path d="M322.898 194.055H279.842V237.111H322.898V194.055Z" fill="#5D7A7F"/>
<path d="M193.729 237.111H150.673V280.167H193.729V237.111Z" fill="#5D7A7F"/>
<path d="M236.786 237.111H193.729V280.167H236.786V237.111Z" fill="white"/>
<path d="M279.842 237.111H236.786V280.167H279.842V237.111Z" fill="#5D7A7F"/>
<path d="M322.898 237.111H279.842V280.167H322.898V237.111Z" fill="white"/>
<path d="M193.729 280.167H150.673V323.223H193.729V280.167Z" fill="white"/>
<path d="M236.786 280.167H193.729V323.223H236.786V280.167Z" fill="#5D7A7F"/>
<path d="M279.842 280.167H236.786V323.223H279.842V280.167Z" fill="white"/>
<path d="M322.898 280.167H279.842V323.223H322.898V280.167Z" fill="#5D7A7F"/>
<path d="M195.418 195.709H148.985V149.276H195.418V195.709ZM152.362 192.332H192.041V152.653H152.362V192.332Z" fill="black"/>
<path d="M238.474 195.71H192.041V149.276H238.474V195.71ZM195.418 192.333H235.097V152.653H195.418V192.333Z" fill="black"/>
<path d="M281.53 195.71H235.097V149.276H281.53V195.71ZM238.474 192.333H278.153V152.653H238.474V192.333Z" fill="black"/>
<path d="M324.586 195.71H278.153V149.276H324.586V195.71ZM281.53 192.333H321.209V152.653H281.53V192.333Z" fill="black"/>
<path d="M195.418 238.766H148.985V192.333H195.418V238.766ZM152.362 235.389H192.041V195.709H152.362V235.389Z" fill="black"/>
<path d="M238.474 238.766H192.041V192.333H238.474V238.766ZM195.418 235.389H235.097V195.709H195.418V235.389Z" fill="black"/>
<path d="M281.53 238.766H235.097V192.333H281.53V238.766ZM238.474 235.389H278.153V195.709H238.474V235.389Z" fill="black"/>
<path d="M324.586 238.766H278.153V192.333H324.586V238.766ZM281.53 235.389H321.209V195.709H281.53V235.389Z" fill="black"/>
<path d="M195.418 281.822H148.985V235.389H195.418V281.822ZM152.362 278.445H192.041V238.766H152.362V278.445Z" fill="black"/>
<path d="M238.474 281.822H192.041V235.389H238.474V281.822ZM195.418 278.445H235.097V238.766H195.418V278.445Z" fill="black"/>
<path d="M281.53 281.822H235.097V235.389H281.53V281.822ZM238.474 278.445H278.153V238.766H238.474V278.445Z" fill="black"/>
<path d="M324.586 281.822H278.153V235.389H324.586V281.822ZM281.53 278.445H321.209V238.766H281.53V278.445Z" fill="black"/>
<path d="M195.418 324.912H148.985V278.479H195.418V324.912ZM152.362 321.535H192.041V281.855H152.362V321.535Z" fill="black"/>
<path d="M238.474 324.912H192.041V278.479H238.474V324.912ZM195.418 321.535H235.097V281.855H195.418V321.535Z" fill="black"/>
<path d="M281.53 324.912H235.097V278.479H281.53V324.912ZM238.474 321.535H278.153V281.855H238.474V321.535Z" fill="black"/>
<path d="M324.586 324.912H278.153V278.479H324.586V324.912ZM281.53 321.535H321.209V281.855H281.53V321.535Z" fill="black"/>
<path d="M270.389 301.678C270.389 308.33 264.986 313.734 258.333 313.734C251.681 313.734 246.278 308.33 246.278 301.678C246.278 295.025 251.681 289.622 258.333 289.622C264.986 289.622 270.389 295.025 270.389 301.678Z" fill="#334142"/>
<path d="M258.333 315.422C250.735 315.422 244.589 309.242 244.589 301.678C244.589 294.113 250.769 287.934 258.333 287.934C265.898 287.934 272.078 294.113 272.078 301.678C272.078 309.242 265.898 315.422 258.333 315.422ZM258.333 291.311C252.626 291.311 247.966 295.971 247.966 301.678C247.966 307.385 252.626 312.045 258.333 312.045C264.04 312.045 268.701 307.385 268.701 301.678C268.701 295.971 264.04 291.311 258.333 291.311Z" fill="black"/>
<path d="M227.333 301.678C227.333 308.33 221.93 313.734 215.277 313.734C208.625 313.734 203.221 308.33 203.221 301.678C203.221 295.025 208.625 289.622 215.277 289.622C221.93 289.622 227.333 295.025 227.333 301.678Z" fill="#334142"/>
<path d="M215.277 315.422C207.679 315.422 201.533 309.242 201.533 301.678C201.533 294.113 207.713 287.934 215.277 287.934C222.841 287.934 229.021 294.113 229.021 301.678C229.021 309.242 222.841 315.422 215.277 315.422ZM215.277 291.311C209.57 291.311 204.91 295.971 204.91 301.678C204.91 307.385 209.57 312.045 215.277 312.045C220.984 312.045 225.644 307.385 225.644 301.678C225.644 295.971 220.984 291.311 215.277 291.311Z" fill="black"/>
<path d="M184.277 301.678C184.277 308.33 178.873 313.734 172.221 313.734C165.568 313.734 160.165 308.33 160.165 301.678C160.165 295.025 165.568 289.622 172.221 289.622C178.873 289.622 184.277 295.025 184.277 301.678Z" fill="#334142"/>
<path d="M172.221 315.422C164.623 315.422 158.477 309.242 158.477 301.678C158.477 294.113 164.656 287.934 172.221 287.934C179.785 287.934 185.965 294.113 185.965 301.678C185.965 309.242 179.785 315.422 172.221 315.422ZM172.221 291.311C166.514 291.311 161.854 295.971 161.854 301.678C161.854 307.385 166.514 312.045 172.221 312.045C177.928 312.045 182.588 307.385 182.588 301.678C182.588 295.971 177.928 291.311 172.221 291.311Z" fill="black"/>
<path d="M227.333 172.509C227.333 179.162 221.93 184.565 215.277 184.565C208.625 184.565 203.221 179.162 203.221 172.509C203.221 165.856 208.625 160.453 215.277 160.453C221.93 160.453 227.333 165.856 227.333 172.509Z" fill="#D0F1FF"/>
<path d="M215.277 186.253C207.679 186.253 201.533 180.073 201.533 172.509C201.533 164.945 207.713 158.765 215.277 158.765C222.841 158.765 229.021 164.945 229.021 172.509C229.021 180.073 222.841 186.253 215.277 186.253ZM215.277 162.142C209.57 162.142 204.91 166.802 204.91 172.509C204.91 178.216 209.57 182.876 215.277 182.876C220.984 182.876 225.644 178.216 225.644 172.509C225.644 166.802 220.984 162.142 215.277 162.142Z" fill="black"/>
<path d="M270.389 172.509C270.389 179.162 264.986 184.565 258.333 184.565C251.681 184.565 246.278 179.162 246.278 172.509C246.278 165.856 251.681 160.453 258.333 160.453C264.986 160.453 270.389 165.856 270.389 172.509Z" fill="#D0F1FF"/>
<path d="M258.333 186.253C250.735 186.253 244.589 180.073 244.589 172.509C244.589 164.945 250.769 158.765 258.333 158.765C265.898 158.765 272.078 164.945 272.078 172.509C272.078 180.073 265.898 186.253 258.333 186.253ZM258.333 162.142C252.626 162.142 247.966 166.802 247.966 172.509C247.966 178.216 252.626 182.876 258.333 182.876C264.04 182.876 268.701 178.216 268.701 172.509C268.701 166.802 264.04 162.142 258.333 162.142Z" fill="black"/>
<path d="M313.445 172.509C313.445 179.162 308.042 184.565 301.39 184.565C294.737 184.565 289.334 179.162 289.334 172.509C289.334 165.856 294.737 160.453 301.39 160.453C308.042 160.453 313.445 165.856 313.445 172.509Z" fill="#D0F1FF"/>
<path d="M301.39 186.253C293.791 186.253 287.645 180.073 287.645 172.509C287.645 164.945 293.825 158.765 301.39 158.765C308.954 158.765 315.134 164.945 315.134 172.509C315.134 180.073 308.954 186.253 301.39 186.253ZM301.39 162.142C295.683 162.142 291.022 166.802 291.022 172.509C291.022 178.216 295.683 182.876 301.39 182.876C307.097 182.876 311.757 178.216 311.757 172.509C311.757 166.802 307.097 162.142 301.39 162.142Z" fill="black"/>
<path d="M170.565 195.742C164.588 195.742 158.948 193.48 154.626 189.394H122.545C91.7808 189.394 66.7575 164.371 66.7575 133.606V131.918H100.527V133.606C100.527 145.73 110.388 155.624 122.545 155.624H154.626C158.948 151.538 164.588 149.276 170.565 149.276H190.185V150.964C190.185 157.11 185.187 162.108 179.041 162.108H170.565C167.425 162.108 164.52 163.493 162.528 165.924C160.536 168.355 159.759 171.563 160.4 174.67C161.346 179.33 165.601 182.741 170.599 182.876H171.983H175.192C179.278 182.876 182.587 179.567 182.587 175.481C182.587 169.335 187.585 164.337 193.731 164.337H195.42V175.143C195.42 186.49 186.2 195.709 174.854 195.709H171.983H170.565V195.742Z" fill="#E59880"/>
<path d="M98.8388 133.607C98.8388 146.709 109.442 157.313 122.545 157.313H155.335C159.253 153.396 164.622 150.964 170.599 150.964H172.017H188.531C188.531 156.198 184.31 160.42 179.075 160.42H172.017H170.599C163.102 160.42 157.193 167.275 158.78 175.042C159.928 180.681 165.196 184.599 170.937 184.599H171.984H175.192C180.19 184.599 184.276 180.546 184.276 175.515C184.276 170.483 188.497 166.059 193.731 166.059V175.177C193.731 185.612 185.289 194.054 174.854 194.054H171.984H170.565C164.622 194.054 159.219 191.623 155.301 187.705H122.511C92.6927 187.705 68.4462 163.493 68.4462 133.607H98.8388ZM102.216 130.23H65.0692V133.607C65.0692 165.282 90.8354 191.082 122.545 191.082H153.984C158.577 195.202 164.385 197.431 170.565 197.431H175.361C187.383 197.127 197.108 187.266 197.108 175.177V162.682H193.731C186.64 162.682 180.899 168.457 180.899 175.515C180.899 178.655 178.332 181.222 175.192 181.222H170.228C166.209 180.918 162.832 178.149 162.055 174.4C161.515 171.732 162.123 169.098 163.811 167.038C165.432 165.046 167.796 163.898 170.329 163.83H171.95H179.008C186.099 163.83 191.84 158.056 191.84 150.998V147.621H168.573V147.688C163.136 148.127 158.037 150.289 153.951 153.97H122.511C111.3 153.97 102.182 144.852 102.182 133.64V130.263L102.216 130.23Z" fill="black"/>
<path d="M53.1322 133.894H112.009L112.009 -45H53.1322L53.1322 133.894Z" fill="#00B8AC"/>
<path d="M114.204 134.602H52V112.382H114.204V134.602ZM55.377 131.225H110.827V115.759H55.377V131.225Z" fill="black"/>
<path d="M114.204 115.354H52V-22.3551H83.1018H114.204V115.354ZM55.377 111.977H110.827L110.827 -18.9781H83.1018H55.377L55.377 111.977Z" fill="black"/>
<path d="M280.214 282.227C279.64 282.227 279.066 281.923 278.762 281.382C278.289 280.572 278.559 279.559 279.37 279.052L297.133 268.55C297.909 268.077 298.956 268.347 299.429 269.158C299.902 269.968 299.632 270.981 298.821 271.488L281.058 281.99C280.788 282.159 280.484 282.227 280.214 282.227Z" fill="black"/>
<path d="M280.213 282.227C279.943 282.227 279.639 282.159 279.369 282.024L260.863 271.522C260.053 271.049 259.782 270.036 260.221 269.226C260.694 268.415 261.707 268.145 262.518 268.584L281.023 279.086C281.834 279.559 282.104 280.572 281.665 281.383C281.361 281.923 280.787 282.227 280.213 282.227Z" fill="black"/>
<path d="M263.396 263.079H260.019V270.036H263.396V263.079Z" fill="black"/>
<path d="M373.012 273.919H369.635V312.957H373.012V273.919Z" fill="black"/>
<path d="M387.028 271.859H383.651V312.957H387.028V271.859Z" fill="black"/>
<path d="M360.485 263.788H310.608V267.165H360.485V263.788Z" fill="black"/>
<path d="M360.045 249.774H309.12V253.151H360.045V249.774Z" fill="black"/>
<path d="M399.724 258.487C399.724 270.306 390.134 279.863 378.348 279.863C366.562 279.863 356.972 270.272 356.972 258.487C356.972 246.701 366.562 237.11 378.348 237.11C390.134 237.11 399.724 246.701 399.724 258.487Z" fill="#24BFFF"/>
<path d="M378.348 281.551C365.617 281.551 355.283 271.184 355.283 258.486C355.283 245.789 365.65 235.422 378.348 235.422C391.045 235.422 401.412 245.789 401.412 258.486C401.412 271.184 391.045 281.551 378.348 281.551ZM378.348 238.765C367.474 238.765 358.66 247.613 358.66 258.453C358.66 269.293 367.508 278.14 378.348 278.14C389.188 278.14 398.035 269.293 398.035 258.453C398.035 247.613 389.188 238.765 378.348 238.765Z" fill="black"/>
<path d="M389.02 258.487C389.02 264.396 384.225 269.192 378.315 269.192C372.406 269.192 367.61 264.396 367.61 258.487C367.61 252.577 372.406 247.782 378.315 247.782C384.225 247.782 389.02 252.577 389.02 258.487Z" fill="white"/>
<path d="M378.347 307.182C366.798 307.182 357.41 316.536 357.41 328.119V985.309H399.285V328.086C399.285 316.536 389.93 307.148 378.347 307.148V307.182Z" fill="#8ADDFF"/>
<path d="M400.94 986.963H355.689V328.086C355.689 315.625 365.82 305.46 378.314 305.46C390.809 305.46 400.94 315.625 400.94 328.086V986.963ZM359.066 983.586H397.563V328.086C397.563 317.482 388.918 308.837 378.314 308.837C367.711 308.837 359.066 317.482 359.066 328.086V983.586Z" fill="black"/>
<path d="M406.279 364.692H350.356V985.275H406.279V364.692Z" fill="#D0F1FF"/>
<path d="M408 986.964H348.701V363.003H408V986.997V986.964ZM352.078 983.587H404.623V366.38H352.078V983.62V983.587Z" fill="black"/>
<path d="M316.922 258.621C316.922 266.017 310.911 272.028 303.516 272.028C296.12 272.028 290.109 266.017 290.109 258.621C290.109 251.226 296.12 245.215 303.516 245.215C310.911 245.215 316.922 251.226 316.922 258.621Z" fill="#24BFFF"/>
<path d="M303.516 273.717C295.174 273.717 288.421 266.929 288.421 258.622C288.421 250.314 295.208 243.527 303.516 243.527C311.823 243.527 318.611 250.314 318.611 258.622C318.611 266.929 311.823 273.717 303.516 273.717ZM303.516 246.87C297.066 246.87 291.797 252.138 291.797 258.588C291.797 265.038 297.066 270.306 303.516 270.306C309.966 270.306 315.234 265.038 315.234 258.588C315.234 252.138 309.966 246.87 303.516 246.87Z" fill="black"/>
<path d="M309.998 258.622C309.998 262.201 307.094 265.105 303.515 265.105C299.935 265.105 297.031 262.201 297.031 258.622C297.031 255.042 299.935 252.138 303.515 252.138C307.094 252.138 309.998 255.042 309.998 258.622Z" fill="white"/>
<path d="M297.031 248.558C296.761 248.558 296.457 248.491 296.187 248.322L279.37 238.697C278.559 238.225 278.289 237.212 278.762 236.401C279.235 235.591 280.248 235.321 281.058 235.76L297.876 245.384C298.686 245.857 298.956 246.87 298.483 247.68C298.18 248.221 297.605 248.524 297.031 248.524V248.558Z" fill="black"/>
<path d="M261.708 249.436C261.134 249.436 260.56 249.132 260.256 248.592C259.783 247.782 260.087 246.735 260.898 246.296L279.403 235.793C280.214 235.321 281.261 235.625 281.7 236.435C282.172 237.246 281.869 238.292 281.058 238.731L262.552 249.234C262.282 249.369 262.012 249.47 261.708 249.47V249.436Z" fill="black"/>
<path d="M263.396 247.748H260.019V254.704H263.396V247.748Z" fill="black"/>
<path d="M262.623 247.376C261.272 246.87 259.82 246.532 258.3 246.532C257.152 246.532 256.072 246.735 255.025 247.039C249.959 248.491 246.245 253.084 246.245 258.588C246.245 264.092 249.959 268.719 255.025 270.137C256.072 270.441 257.152 270.644 258.3 270.644C259.82 270.644 261.272 270.34 262.623 269.799C267.148 268.043 270.356 263.687 270.356 258.554C270.356 253.421 267.148 249.065 262.623 247.309V247.376Z" fill="#334142"/>
<path d="M258.333 272.366C257.151 272.366 255.97 272.197 254.585 271.792C248.675 270.103 244.589 264.7 244.589 258.622C244.589 252.543 248.709 247.106 254.585 245.452C257.894 244.506 260.461 244.742 263.264 245.823C268.633 247.883 272.078 252.915 272.078 258.622C272.078 264.329 268.599 269.36 263.264 271.42C261.643 272.062 259.988 272.366 258.333 272.366ZM258.333 248.255C257.489 248.255 256.577 248.39 255.531 248.694C251.073 249.943 247.966 254.029 247.966 258.622C247.966 263.214 251.073 267.301 255.531 268.55C258.097 269.293 259.954 269.09 262.048 268.28C266.1 266.726 268.701 262.944 268.701 258.622C268.701 254.299 266.1 250.517 262.048 248.964C260.799 248.491 259.549 248.255 258.333 248.255Z" fill="black"/>
<path d="M184.277 172.509C184.277 179.162 178.873 184.565 172.221 184.565C165.568 184.565 160.165 179.162 160.165 172.509C160.165 165.856 165.568 160.453 172.221 160.453C178.873 160.453 184.277 165.856 184.277 172.509Z" fill="#D0F1FF"/>
<path d="M172.221 186.253C164.623 186.253 158.477 180.073 158.477 172.509C158.477 164.945 164.656 158.765 172.221 158.765C179.785 158.765 185.965 164.945 185.965 172.509C185.965 180.073 179.785 186.253 172.221 186.253ZM172.221 162.142C166.514 162.142 161.854 166.802 161.854 172.509C161.854 178.216 166.514 182.876 172.221 182.876C177.928 182.876 182.588 178.216 182.588 172.509C182.588 166.802 177.928 162.142 172.221 162.142Z" fill="black"/>
</g>
<defs>
<clipPath id="clip0_794_10049">
<rect width="460" height="460" fill="white"/>
</clipPath>
</defs>
</svg>
