<svg width="460" height="460" viewBox="0 0 460 460" fill="none" xmlns="http://www.w3.org/2000/svg">
<g clip-path="url(#clip0_794_9656)">
<rect width="460" height="460" fill="#E2F3F1"/>
<rect width="458.459" height="262" transform="matrix(1 0 0 -1 -76 432)" fill="#E2F3F1"/>
<path d="M22 331H57V-63H22V331Z" fill="#8ECDC7"/>
<rect width="34" height="249" transform="matrix(1 0 0 -1 311 608)" fill="#8ECDC7"/>
<rect width="372" height="34" transform="matrix(1 0 0 -1 5 61)" fill="#8ECDC7"/>
<path d="M154 432H470V398H154V432Z" fill="#8ECDC7"/>
<path d="M95 185H129V-56H95V185Z" fill="#8ECDC7"/>
<path d="M410 612.5H444V303H410V612.5Z" fill="#8ECDC7"/>
<path d="M139.497 193.293H298.659C306.535 193.293 311.785 189.027 311.785 178.525V170.977C311.785 170.977 310.67 155.882 320.646 155.882C330.623 155.882 360.573 155.882 372.825 155.882" stroke="black" stroke-width="2.969" stroke-dasharray="2.97 2.97"/>
<path d="M139.497 263.521H298.659C306.535 263.521 311.785 267.787 311.785 278.289V285.837C311.785 285.837 310.67 300.932 320.646 300.932C330.623 300.932 360.573 300.932 372.825 300.932" stroke="black" stroke-width="2.969" stroke-dasharray="2.97 2.97"/>
<path d="M386.936 167.368V129.956C385.296 124.049 378.047 115.189 361.339 115.189C346.243 115.189 192.77 116.173 118.822 115.189C112.259 115.101 99.329 114.729 98.8039 129.956C98.2788 145.183 98.5851 199.091 98.8039 224.141" stroke="black" stroke-width="2.969" stroke-dasharray="2.97 2.97"/>
<path d="M386.937 315.604V330.14C385.296 336.047 378.047 344.907 361.339 344.907C346.244 344.907 192.77 343.923 118.822 344.907C112.259 344.995 99.329 345.367 98.804 330.14C98.2789 314.912 98.5852 261.005 98.804 235.955" stroke="black" stroke-width="2.969" stroke-dasharray="2.97 2.97"/>
<path d="M346.099 208.533L348.426 207.854V210.279C348.426 210.476 348.403 210.646 348.394 210.709L348.393 210.715C348.428 214.319 351.365 217.234 354.978 217.234C358.613 217.234 361.564 214.283 361.564 210.649V129.969C361.564 126.334 358.613 123.383 354.978 123.383C351.362 123.383 348.422 126.305 348.393 129.915L348.393 129.918C348.397 129.944 348.405 130 348.411 130.058C348.418 130.127 348.426 130.224 348.426 130.339V132.764L346.099 132.085C345.446 131.894 344.76 131.788 344.053 131.788C339.948 131.788 336.627 135.108 336.627 139.214C336.627 139.902 336.733 140.588 336.924 141.242L337.699 143.899L334.953 143.556L334.952 143.556C334.944 143.555 334.931 143.553 334.808 143.553C330.249 143.553 326.542 147.261 326.542 151.82C326.542 154.012 327.417 156.011 328.836 157.513L331.104 159.914L327.862 160.546C323.268 161.442 319.819 165.466 319.819 170.309C319.819 175.149 323.282 179.175 327.863 180.071L331.139 180.712L328.824 183.117C327.408 184.588 326.542 186.594 326.542 188.798C326.542 193.357 330.249 197.064 334.808 197.064C334.81 197.064 334.823 197.064 334.874 197.06C334.92 197.057 335.045 197.048 335.178 197.048H337.603L336.924 199.375C336.733 200.03 336.627 200.716 336.627 201.404C336.627 205.51 339.948 208.83 344.053 208.83C344.76 208.83 345.446 208.724 346.099 208.533Z" fill="#7ECBBF" stroke="black" stroke-width="3.63714"/>
<path d="M346.574 153.501H363.382V150.139H348.255V143.416H344.893V151.82C344.893 152.744 345.65 153.501 346.574 153.501Z" fill="#202030"/>
<path d="M339.851 161.905H363.382V165.266H339.851V161.905Z" fill="#202030"/>
<path d="M334.808 185.436H338.17V177.032H363.382V173.67H336.489C335.565 173.67 334.808 174.427 334.808 175.351V185.436Z" fill="#202030"/>
<path d="M351.616 175.351H354.978V197.202H351.616V175.351Z" fill="#202030"/>
<path d="M346.574 145.096C349.347 145.096 351.616 142.827 351.616 140.054C351.616 137.281 349.347 135.011 346.574 135.011C343.8 135.011 341.531 137.281 341.531 140.054C341.531 142.827 343.8 145.096 346.574 145.096ZM346.574 138.373C347.498 138.373 348.255 139.13 348.255 140.054C348.255 140.978 347.498 141.735 346.574 141.735C345.649 141.735 344.893 140.978 344.893 140.054C344.893 139.13 345.649 138.373 346.574 138.373Z" fill="#202030"/>
<path d="M336.489 168.628C339.262 168.628 341.531 166.359 341.531 163.586C341.531 160.812 339.262 158.543 336.489 158.543C333.715 158.543 331.446 160.812 331.446 163.586C331.446 166.359 333.715 168.628 336.489 168.628ZM336.489 161.905C337.413 161.905 338.169 162.661 338.169 163.586C338.169 164.51 337.413 165.266 336.489 165.266C335.564 165.266 334.808 164.51 334.808 163.586C334.808 162.661 335.564 161.905 336.489 161.905Z" fill="#202030"/>
<path d="M353.297 205.606C356.07 205.606 358.339 203.337 358.339 200.564C358.339 197.79 356.07 195.521 353.297 195.521C350.523 195.521 348.254 197.79 348.254 200.564C348.254 203.337 350.523 205.606 353.297 205.606ZM353.297 198.883C354.221 198.883 354.977 199.639 354.977 200.564C354.977 201.488 354.221 202.245 353.297 202.245C352.372 202.245 351.616 201.488 351.616 200.564C351.616 199.639 352.372 198.883 353.297 198.883Z" fill="#202030"/>
<path d="M336.489 193.841C339.262 193.841 341.531 191.571 341.531 188.798C341.531 186.025 339.262 183.756 336.489 183.756C333.715 183.756 331.446 186.025 331.446 188.798C331.446 191.571 333.715 193.841 336.489 193.841ZM336.489 187.117C337.413 187.117 338.169 187.874 338.169 188.798C338.169 189.722 337.413 190.479 336.489 190.479C335.564 190.479 334.808 189.722 334.808 188.798C334.808 187.874 335.564 187.117 336.489 187.117Z" fill="#202030"/>
<path d="M385.061 210.279V207.854L387.389 208.533C388.042 208.724 388.728 208.83 389.435 208.83C393.54 208.83 396.861 205.51 396.861 201.404C396.861 200.716 396.754 200.03 396.563 199.375L395.885 197.048H398.309C398.432 197.048 398.548 197.056 398.601 197.059L398.613 197.06C398.668 197.064 398.68 197.064 398.68 197.064L398.679 197.064C403.238 197.064 406.945 193.357 406.945 188.798C406.945 186.594 406.079 184.588 404.664 183.117L402.349 180.712L405.625 180.071C410.205 179.175 413.669 175.149 413.669 170.309C413.669 165.466 410.22 161.442 405.626 160.546L402.384 159.914L404.652 157.513C406.07 156.011 406.945 154.012 406.945 151.82C406.945 147.261 403.238 143.553 398.679 143.553C398.557 143.553 398.543 143.555 398.535 143.556L398.535 143.556L395.789 143.899L396.563 141.242C396.754 140.588 396.861 139.902 396.861 139.214C396.861 135.108 393.54 131.788 389.435 131.788C388.728 131.788 388.042 131.894 387.389 132.085L385.061 132.764V130.339C385.061 130.224 385.069 130.127 385.077 130.058C385.083 130 385.091 129.944 385.094 129.918L385.095 129.915C385.065 126.305 382.126 123.383 378.509 123.383C374.874 123.383 371.924 126.334 371.924 129.969V210.649C371.924 214.283 374.874 217.234 378.509 217.234C382.122 217.234 385.059 214.319 385.094 210.715L385.094 210.709C385.085 210.646 385.061 210.476 385.061 210.279Z" fill="#FAA91F" stroke="black" stroke-width="3.63714"/>
<path d="M370.105 153.501H381.871C382.795 153.501 383.552 152.744 383.552 151.82V143.416H380.19V150.139H370.105V153.501Z" fill="#202030"/>
<path d="M393.637 175.351H396.998V163.585C396.998 162.661 396.242 161.905 395.318 161.905H370.105V165.266H393.637V175.351Z" fill="#202030"/>
<path d="M383.552 188.798H386.914V175.351C386.914 174.427 386.157 173.67 385.233 173.67H370.105V177.032H383.552V188.798Z" fill="#202030"/>
<path d="M381.871 145.096C384.645 145.096 386.914 142.827 386.914 140.054C386.914 137.281 384.645 135.011 381.871 135.011C379.098 135.011 376.829 137.281 376.829 140.054C376.829 142.827 379.098 145.096 381.871 145.096ZM381.871 138.373C382.796 138.373 383.552 139.13 383.552 140.054C383.552 140.978 382.796 141.735 381.871 141.735C380.947 141.735 380.19 140.978 380.19 140.054C380.19 139.13 380.947 138.373 381.871 138.373Z" fill="#202030"/>
<path d="M396.998 156.862C399.772 156.862 402.041 154.593 402.041 151.82C402.041 149.046 399.772 146.777 396.998 146.777C394.225 146.777 391.956 149.046 391.956 151.82C391.956 154.593 394.225 156.862 396.998 156.862ZM396.998 150.139C397.923 150.139 398.679 150.895 398.679 151.82C398.679 152.744 397.923 153.501 396.998 153.501C396.074 153.501 395.318 152.744 395.318 151.82C395.318 150.895 396.074 150.139 396.998 150.139Z" fill="#202030"/>
<path d="M395.318 183.755C398.091 183.755 400.36 181.486 400.36 178.713C400.36 175.94 398.091 173.67 395.318 173.67C392.544 173.67 390.275 175.94 390.275 178.713C390.275 181.486 392.544 183.755 395.318 183.755ZM395.318 177.032C396.242 177.032 396.999 177.788 396.999 178.713C396.999 179.637 396.242 180.394 395.318 180.394C394.393 180.394 393.637 179.637 393.637 178.713C393.637 177.788 394.393 177.032 395.318 177.032Z" fill="#202030"/>
<path d="M385.233 197.202C388.006 197.202 390.275 194.933 390.275 192.16C390.275 189.386 388.006 187.117 385.233 187.117C382.459 187.117 380.19 189.386 380.19 192.16C380.19 194.933 382.459 197.202 385.233 197.202ZM385.233 190.479C386.157 190.479 386.913 191.235 386.913 192.16C386.913 193.084 386.157 193.84 385.233 193.84C384.308 193.84 383.552 193.084 383.552 192.16C383.552 191.235 384.308 190.479 385.233 190.479Z" fill="#202030"/>
<path d="M381.871 150.139H393.637V153.501H381.871V150.139Z" fill="#202030"/>
<path d="M370.105 203.925H385.233C386.157 203.925 386.914 203.169 386.914 202.245V195.521H383.552V200.564H370.105V203.925Z" fill="#202030"/>
<path d="M338.169 150.139H341.531V153.501H338.169V150.139Z" fill="#202030"/>
<path d="M407.083 168.628H410.445V171.99H407.083V168.628Z" fill="#202030"/>
<path d="M396.999 188.798H400.36V192.16H396.999V188.798Z" fill="#202030"/>
<path d="M324.722 168.628H328.084V171.99H324.722V168.628Z" fill="#202030"/>
<path d="M90.6724 315.82H88.7943V313.942V292.147L69.5861 270.177L69.1219 269.646V268.941V204.252C69.1219 172.151 95.128 146.122 127.207 146.122H146.879C178.772 146.122 204.662 171.85 204.962 203.693L235.577 251.046L237.451 253.944H234H204.964V291.442V293.32H203.086H143.137V313.942V315.82H141.259H90.6724Z" fill="#4ABAEB" stroke="black" stroke-width="3.75619"/>
<path d="M96.2941 184.563H152.501V240.815H96.2941V184.563Z" fill="white"/>
<path d="M96.2931 242.221H152.5C153.273 242.221 153.905 241.589 153.905 240.815V184.564C153.905 183.79 153.273 183.157 152.5 183.157H96.2931C95.5203 183.157 94.888 183.79 94.888 184.564V240.815C94.888 241.589 95.5203 242.221 96.2931 242.221ZM151.095 239.409H97.6983V185.97H151.095V239.409Z" fill="#202030"/>
<path d="M145.475 173.313H148.285V184.563H145.475V173.313Z" fill="#202030"/>
<path d="M134.233 173.313H137.044V184.563H134.233V173.313Z" fill="#202030"/>
<path d="M122.991 173.313H125.802V184.563H122.991V173.313Z" fill="#202030"/>
<path d="M111.75 173.313H114.56V184.563H111.75V173.313Z" fill="#202030"/>
<path d="M100.509 173.313H103.319V184.563H100.509V173.313Z" fill="#202030"/>
<path d="M145.475 240.815H148.285V252.065H145.475V240.815Z" fill="#202030"/>
<path d="M152.5 270.347H169.362V267.535H153.077L137.044 251.489V240.815H134.233V252.065C134.233 252.445 134.388 252.797 134.641 253.064L151.503 269.939C151.77 270.207 152.121 270.347 152.5 270.347Z" fill="#202030"/>
<path d="M122.991 240.815H125.802V268.941H122.991V240.815Z" fill="#202030"/>
<path d="M100.509 313.942H103.319V272.33L114.153 261.488C114.42 261.22 114.56 260.869 114.56 260.489V240.801H111.75V259.913L100.916 270.755C100.649 271.022 100.509 271.374 100.509 271.754V313.942Z" fill="#202030"/>
<path d="M71.0002 264.722H90.6726C91.052 264.722 91.4033 264.567 91.6703 264.314L102.912 253.064C103.179 252.797 103.319 252.445 103.319 252.065V240.815H100.509V251.489L90.0965 261.909H71.0002V264.722Z" fill="#202030"/>
<path d="M85.0523 188.782H96.2937V191.595H85.0523V188.782Z" fill="#202030"/>
<path d="M85.0523 200.033H96.2937V202.845H85.0523V200.033Z" fill="#202030"/>
<path d="M85.0523 211.283H96.2937V214.096H85.0523V211.283Z" fill="#202030"/>
<path d="M85.0523 222.533H96.2937V225.346H85.0523V222.533Z" fill="#202030"/>
<path d="M85.0523 233.784H96.2937V236.596H85.0523V233.784Z" fill="#202030"/>
<path d="M152.5 188.782H163.741V191.595H152.5V188.782Z" fill="#202030"/>
<path d="M152.5 200.033H163.741V202.845H152.5V200.033Z" fill="#202030"/>
<path d="M152.5 211.283H163.741V214.096H152.5V211.283Z" fill="#202030"/>
<path d="M152.5 222.533H163.741V225.346H152.5V222.533Z" fill="#202030"/>
<path d="M152.5 233.784H163.741V236.596H152.5V233.784Z" fill="#202030"/>
<path d="M137.043 209.877H139.854V198.626C139.854 197.853 139.221 197.22 138.448 197.22H127.207V200.033H137.043V209.877Z" fill="#202030"/>
<path d="M110.345 228.159H121.586V225.346H111.75V215.502H108.94V226.752C108.94 227.526 109.572 228.159 110.345 228.159Z" fill="#202030"/>
<path d="M124.397 281.598C128.275 281.598 131.422 278.447 131.422 274.566C131.422 270.685 128.275 267.535 124.397 267.535C120.518 267.535 117.371 270.685 117.371 274.566C117.371 278.447 120.518 281.598 124.397 281.598ZM124.397 270.347C126.715 270.347 128.612 272.246 128.612 274.566C128.612 276.886 126.715 278.785 124.397 278.785C122.078 278.785 120.181 276.886 120.181 274.566C120.181 272.246 122.078 270.347 124.397 270.347Z" fill="#202030"/>
<path d="M174.983 275.972C178.861 275.972 182.009 272.822 182.009 268.941C182.009 265.06 178.861 261.909 174.983 261.909C171.105 261.909 167.957 265.06 167.957 268.941C167.957 272.822 171.105 275.972 174.983 275.972ZM174.983 264.722C177.302 264.722 179.199 266.62 179.199 268.941C179.199 271.261 177.302 273.16 174.983 273.16C172.665 273.16 170.768 271.261 170.768 268.941C170.768 266.62 172.665 264.722 174.983 264.722Z" fill="#202030"/>
<path d="M148.285 291.441H151.095V283.004C151.095 282.624 150.941 282.272 150.688 282.005L142.257 273.568C141.99 273.3 141.638 273.16 141.259 273.16H130.018V275.972H140.683L148.285 283.58V291.441Z" fill="#202030"/>
<path d="M114.56 313.942H117.371V297.643L125.394 289.613C125.661 289.346 125.802 288.995 125.802 288.615V280.177H122.991V288.038L114.968 296.068C114.701 296.335 114.56 296.687 114.56 297.067V313.942Z" fill="#202030"/>
<path d="M183.414 221.872C188.684 221.872 193.953 220.115 198.337 216.599L196.581 214.405C188.824 220.621 177.99 220.621 170.234 214.405L168.477 216.599C172.876 220.115 178.145 221.872 183.4 221.872H183.414Z" fill="#202030"/>
<path d="M115.966 197.22H121.586V200.033H115.966V197.22Z" fill="#202030"/>
<path d="M127.207 225.346H132.828V228.159H127.207V225.346Z" fill="#202030"/>
<path d="M396.137 319.501H376.599H357.874L369.679 293.856H333.044V246.231C333.044 240.044 338.471 237.412 341.185 236.869H403.871C412.664 236.869 413.776 243.11 413.234 246.231C413.369 255.865 413.559 277.086 413.234 284.901C412.908 292.717 408.213 294.128 405.907 293.856H386.368L392.881 312.174H403.057C402.732 316.733 398.308 318.958 396.137 319.501Z" fill="white"/>
<path d="M373.712 295.731H406.597C411.176 295.731 414.893 292.015 414.893 287.435V244.296C414.893 239.717 411.176 236 406.597 236H340.229C335.649 236 331.933 239.717 331.933 244.296V274.643H335.251V244.296C335.251 241.558 337.491 239.318 340.229 239.318H406.597C409.335 239.318 411.574 241.558 411.574 244.296V287.435C411.574 290.173 409.335 292.413 406.597 292.413H373.712V295.731Z" fill="#202030"/>
<path d="M401.62 280.798H404.938V244.296C404.938 243.383 404.191 242.637 403.279 242.637H343.548C342.635 242.637 341.888 243.383 341.888 244.296V265.866H345.207V245.955H401.62V280.798Z" fill="#FAA91F"/>
<path d="M385.027 255.91H403.279V259.229H385.027V255.91Z" fill="#FAA91F"/>
<path d="M394.982 249.274H398.3V252.592H394.982V249.274Z" fill="#FAA91F"/>
<path d="M388.345 249.274H391.664V252.592H388.345V249.274Z" fill="#FAA91F"/>
<path d="M381.708 249.274H385.027V252.592H381.708V249.274Z" fill="#FAA91F"/>
<path d="M374.026 313.982H393.323C393.871 313.982 394.368 313.717 394.684 313.269C394.999 312.821 395.065 312.257 394.883 311.742L388.246 293.491C388.014 292.828 387.383 292.396 386.686 292.396H373.711V295.715H385.525L390.95 310.647H374.026V313.966V313.982Z" fill="#202030"/>
<path d="M375.288 320.619H396.642C401.221 320.619 404.938 316.903 404.938 312.323C404.938 311.411 404.191 310.664 403.279 310.664H374.027V313.982H401.338C400.657 315.907 398.816 317.301 396.642 317.301H375.288V320.619Z" fill="#202030"/>
<path d="M365.698 279.139H413.234V282.458H365.698V279.139Z" fill="#202030"/>
<path d="M380.05 275.821H383.368V265.866C383.368 261.286 379.651 257.57 375.072 257.57H350.184V260.888H375.072C377.81 260.888 380.05 263.128 380.05 265.866V275.821Z" fill="#202030"/>
<path d="M355.643 267.044L357.983 264.704L352.524 259.246L357.983 253.787L355.643 251.447L349.007 258.084C348.359 258.731 348.359 259.777 349.007 260.424L355.643 267.06V267.044Z" fill="#202030"/>
<path d="M316.781 307.16L315.592 306.883L315.474 305.668C315.371 304.602 315.3 303.5 315.3 302.368C315.3 301.253 315.352 300.144 315.477 299.041L315.612 297.848L316.781 297.576L320.907 296.617C321.124 295.563 321.4 294.532 321.732 293.526L318.659 290.651L317.773 289.822L318.27 288.714C319.183 286.677 320.303 284.771 321.574 282.995L322.285 282.002L323.452 282.358L327.452 283.578C328.167 282.778 328.929 282.016 329.735 281.295L328.515 277.295L328.159 276.128L329.152 275.417C330.928 274.146 332.834 273.026 334.871 272.113L335.978 271.616L336.808 272.502L339.683 275.575C340.689 275.243 341.72 274.967 342.774 274.75L343.733 270.624L344.01 269.435L345.225 269.317C346.291 269.214 347.393 269.143 348.525 269.143C349.639 269.143 350.749 269.196 351.851 269.32L353.044 269.455L353.316 270.624L354.276 274.75C355.33 274.967 356.361 275.243 357.367 275.575L360.242 272.502L361.071 271.616L362.178 272.113C364.216 273.026 366.122 274.146 367.898 275.417L368.891 276.128L368.535 277.295L367.315 281.295C368.115 282.01 368.877 282.773 369.597 283.578L373.597 282.358L374.765 282.002L375.475 282.995C376.746 284.771 377.867 286.677 378.78 288.714L379.276 289.822L378.39 290.651L375.318 293.526C375.649 294.532 375.926 295.563 376.143 296.617L380.269 297.576L381.458 297.853L381.576 299.068C381.679 300.134 381.749 301.236 381.749 302.368C381.749 303.483 381.697 304.592 381.573 305.695L381.438 306.888L380.269 307.16L376.143 308.119C375.926 309.173 375.649 310.204 375.318 311.21L378.39 314.085L379.276 314.914L378.78 316.022C377.867 318.059 376.746 319.965 375.475 321.741L374.765 322.734L373.597 322.378L369.598 321.158C368.882 321.958 368.12 322.72 367.315 323.441L368.535 327.441L368.891 328.608L367.898 329.319C366.122 330.59 364.216 331.71 362.178 332.623L361.071 333.12L360.242 332.234L357.367 329.161C356.361 329.493 355.33 329.769 354.276 329.986L353.316 334.112L353.04 335.301L351.824 335.419C350.759 335.522 349.657 335.593 348.525 335.593C347.41 335.593 346.3 335.54 345.198 335.416L344.005 335.281L343.733 334.112L342.774 329.986C341.72 329.769 340.689 329.493 339.683 329.161L336.808 332.234L335.978 333.12L334.871 332.623C332.834 331.71 330.928 330.59 329.152 329.319L328.159 328.608L328.515 327.441L329.734 323.441C328.934 322.726 328.173 321.963 327.452 321.158L323.452 322.378L322.285 322.734L321.574 321.741C320.303 319.965 319.183 318.059 318.27 316.022L317.773 314.914L318.659 314.085L321.732 311.21C321.4 310.204 321.124 309.173 320.907 308.119L316.781 307.16Z" fill="#8FD7F7" stroke="black" stroke-width="3.39958"/>
<path d="M348.525 312.323C343.027 312.323 338.57 307.866 338.57 302.368C338.57 296.87 343.027 292.413 348.525 292.413C354.023 292.413 358.48 296.87 358.48 302.368C358.48 307.866 354.023 312.323 348.525 312.323Z" fill="white"/>
<path d="M348.525 313.983C354.929 313.983 360.139 308.773 360.139 302.368C360.139 295.964 354.929 290.754 348.525 290.754C342.12 290.754 336.911 295.964 336.911 302.368C336.911 308.773 342.12 313.983 348.525 313.983ZM348.525 294.072C353.104 294.072 356.821 297.789 356.821 302.368C356.821 306.948 353.104 310.664 348.525 310.664C343.946 310.664 340.229 306.948 340.229 302.368C340.229 297.789 343.946 294.072 348.525 294.072Z" fill="#202030"/>
<path d="M347.612 322.262L347.762 318.944C346.766 318.894 345.771 318.761 344.808 318.545L344.062 321.781C345.223 322.046 346.401 322.212 347.596 322.262H347.612ZM352.922 321.797C354.083 321.532 355.228 321.167 356.323 320.702L355.012 317.649C354.1 318.031 353.154 318.346 352.192 318.562L352.922 321.797ZM339.068 319.906L340.644 316.986C339.764 316.521 338.935 315.957 338.155 315.343L336.081 317.931C337.01 318.678 338.006 319.325 339.051 319.906H339.068ZM360.903 317.965C361.832 317.218 362.711 316.388 363.491 315.509L361.002 313.319C360.355 314.066 359.625 314.746 358.845 315.376L360.903 317.965ZM332.398 314.082L335.085 312.124C334.505 311.328 333.99 310.465 333.559 309.569L330.572 311.013C331.087 312.074 331.701 313.12 332.398 314.066V314.082ZM366.444 311.062C366.959 309.984 367.39 308.856 367.705 307.727L364.503 306.848C364.238 307.794 363.889 308.723 363.458 309.619L366.444 311.062ZM328.93 305.952L332.198 305.355C332.016 304.392 331.933 303.397 331.933 302.385L328.615 302.318V302.385C328.615 303.579 328.714 304.774 328.93 305.935V305.952ZM368.435 302.435V302.401C368.435 301.223 368.336 300.045 368.12 298.884L364.851 299.465C365.017 300.427 365.117 301.406 365.117 302.401L368.435 302.435ZM332.547 297.921C332.812 296.976 333.161 296.047 333.592 295.151L330.606 293.691C330.075 294.769 329.66 295.881 329.345 297.026L332.547 297.921ZM363.491 295.234L366.478 293.79C365.963 292.712 365.349 291.683 364.652 290.721L361.964 292.662C362.545 293.458 363.06 294.321 363.491 295.217V295.234ZM336.064 291.434C336.711 290.687 337.441 290.007 338.221 289.377L336.164 286.772C335.235 287.518 334.372 288.331 333.576 289.227L336.064 291.417V291.434ZM358.895 289.443L360.969 286.855C360.04 286.108 359.044 285.444 357.999 284.88L356.423 287.8C357.286 288.265 358.115 288.829 358.895 289.443ZM342.037 287.103C342.95 286.722 343.896 286.407 344.875 286.191L344.145 282.955C342.983 283.221 341.838 283.586 340.743 284.051L342.037 287.103ZM352.258 286.224L353.005 282.989C351.86 282.723 350.665 282.557 349.471 282.508L349.305 285.826C350.3 285.876 351.296 286.008 352.258 286.224Z" fill="#202030"/>
<path d="M287.175 192.442L290.56 193.934L287.175 195.426L259.787 207.493L257.499 208.501V206.002V181.867V179.367L259.787 180.375L287.175 192.442Z" fill="#7ECBBF" stroke="black" stroke-width="3.26032"/>
<path d="M257.343 261.442L253.957 262.934L257.343 264.426L284.731 276.493L287.018 277.501V275.002V250.867V248.367L284.731 249.375L257.343 261.442Z" fill="#8FD7F7" stroke="black" stroke-width="3.26032"/>
<path d="M196.175 343.442L199.56 344.934L196.175 346.426L168.787 358.493L166.499 359.501V357.002V332.867V330.367L168.787 331.375L196.175 343.442Z" fill="#7ECBBF" stroke="black" stroke-width="3.26032"/>
<path d="M165.343 113.442L161.957 114.934L165.343 116.426L192.731 128.493L195.018 129.501V127.002V102.867V100.367L192.731 101.375L165.343 113.442Z" fill="#F4BD4D" stroke="black" stroke-width="3.26032"/>
</g>
<defs>
<clipPath id="clip0_794_9656">
<rect width="460" height="460" fill="white"/>
</clipPath>
</defs>
</svg>
