<svg width="460" height="460" viewBox="0 0 460 460" fill="none" xmlns="http://www.w3.org/2000/svg">
<g clip-path="url(#clip0_794_9891)">
<rect width="460" height="460" fill="#E2F3F1"/>
<mask id="path-1-inside-1_794_9891" fill="white">
<path fill-rule="evenodd" clip-rule="evenodd" d="M339.494 207.091C343.609 207.067 346.926 203.717 346.902 199.607C346.882 196.02 344.322 193.04 340.935 192.356L340.935 -14L337.935 -14L337.935 192.363C334.53 193.066 331.98 196.087 332 199.692C332.024 203.802 335.378 207.114 339.494 207.091Z"/>
</mask>
<path fill-rule="evenodd" clip-rule="evenodd" d="M339.494 207.091C343.609 207.067 346.926 203.717 346.902 199.607C346.882 196.02 344.322 193.04 340.935 192.356L340.935 -14L337.935 -14L337.935 192.363C334.53 193.066 331.98 196.087 332 199.692C332.024 203.802 335.378 207.114 339.494 207.091Z" fill="#E2F3F1"/>
<path d="M346.902 199.607L349.902 199.59L346.902 199.607ZM339.494 207.091L339.511 210.091L339.494 207.091ZM340.935 192.356H337.935V194.811L340.341 195.297L340.935 192.356ZM340.935 -14H343.935L343.935 -17L340.935 -17L340.935 -14ZM337.935 -14L337.935 -17L334.935 -17.0001V-14H337.935ZM337.935 192.363L338.541 195.301L340.935 194.807L340.935 192.363H337.935ZM332 199.692L329 199.709V199.709L332 199.692ZM343.902 199.625C343.916 202.073 341.939 204.077 339.476 204.091L339.511 210.091C345.279 210.058 349.935 205.361 349.902 199.59L343.902 199.625ZM340.341 195.297C342.366 195.706 343.89 197.49 343.902 199.625L349.902 199.59C349.873 194.55 346.279 190.374 341.528 189.416L340.341 195.297ZM337.935 -14L337.935 192.356H343.935L343.935 -14H337.935ZM337.935 -11L340.935 -11L340.935 -17L337.935 -17L337.935 -11ZM340.935 192.363L340.935 -14H334.935L334.935 192.363H340.935ZM335 199.675C334.988 197.53 336.506 195.721 338.541 195.301L337.328 189.425C332.554 190.41 328.971 194.644 329 199.709L335 199.675ZM339.476 204.091C337.014 204.105 335.014 202.124 335 199.675L329 199.709C329.033 205.479 333.743 210.123 339.511 210.091L339.476 204.091Z" fill="#8ECDC7" mask="url(#path-1-inside-1_794_9891)"/>
<mask id="path-3-inside-2_794_9891" fill="white">
<path fill-rule="evenodd" clip-rule="evenodd" d="M430.494 314.091C434.609 314.067 437.926 310.717 437.902 306.607C437.882 303.02 435.322 300.04 431.935 299.356L431.935 -24L428.935 -24.0001L428.935 299.363C425.53 300.066 422.98 303.087 423 306.692C423.024 310.802 426.378 314.114 430.494 314.091Z"/>
</mask>
<path fill-rule="evenodd" clip-rule="evenodd" d="M430.494 314.091C434.609 314.067 437.926 310.717 437.902 306.607C437.882 303.02 435.322 300.04 431.935 299.356L431.935 -24L428.935 -24.0001L428.935 299.363C425.53 300.066 422.98 303.087 423 306.692C423.024 310.802 426.378 314.114 430.494 314.091Z" fill="#E2F3F1"/>
<path d="M437.902 306.607L434.902 306.625L437.902 306.607ZM430.494 314.091L430.511 317.091L430.494 314.091ZM431.935 299.356L428.935 299.356L428.935 301.811L431.341 302.297L431.935 299.356ZM431.935 -24H434.935L434.935 -26.9999L431.935 -27L431.935 -24ZM428.935 -24.0001L428.935 -27.0001L425.935 -27.0001L425.935 -24.0001H428.935ZM428.935 299.363L429.541 302.301L431.935 301.807L431.935 299.363L428.935 299.363ZM423 306.692L420 306.709V306.709L423 306.692ZM434.902 306.625C434.916 309.073 432.939 311.077 430.476 311.091L430.511 317.091C436.279 317.058 440.935 312.361 440.902 306.59L434.902 306.625ZM431.341 302.297C433.366 302.706 434.89 304.49 434.902 306.625L440.902 306.59C440.873 301.55 437.279 297.374 432.528 296.416L431.341 302.297ZM428.935 -24L428.935 299.356L434.935 299.356L434.935 -24H428.935ZM428.935 -21.0001L431.935 -21L431.935 -27L428.935 -27.0001L428.935 -21.0001ZM431.935 299.363L431.935 -24.0001H425.935L425.935 299.363L431.935 299.363ZM426 306.675C425.988 304.53 427.506 302.721 429.541 302.301L428.328 296.425C423.554 297.41 419.971 301.644 420 306.709L426 306.675ZM430.476 311.091C428.014 311.105 426.014 309.124 426 306.675L420 306.709C420.033 312.479 424.743 317.123 430.511 317.091L430.476 311.091Z" fill="#8ECDC7" mask="url(#path-3-inside-2_794_9891)"/>
<mask id="path-5-inside-3_794_9891" fill="white">
<path fill-rule="evenodd" clip-rule="evenodd" d="M98.6383 214.376C98.6025 210.267 95.2377 206.965 91.1227 207C87.5477 207.031 84.5827 209.572 83.8895 212.932L-278 212.932L-278 215.932L83.8861 215.932C84.5827 219.353 87.6262 221.913 91.2521 221.882C95.3671 221.846 98.674 218.486 98.6383 214.376Z"/>
</mask>
<path fill-rule="evenodd" clip-rule="evenodd" d="M98.6383 214.376C98.6025 210.267 95.2377 206.965 91.1227 207C87.5477 207.031 84.5827 209.572 83.8895 212.932L-278 212.932L-278 215.932L83.8861 215.932C84.5827 219.353 87.6262 221.913 91.2521 221.882C95.3671 221.846 98.674 218.486 98.6383 214.376Z" fill="#E2F3F1"/>
<path d="M91.1227 207L91.1487 210H91.1487L91.1227 207ZM98.6383 214.376L95.6384 214.402L98.6383 214.376ZM83.8895 212.932V215.932H86.3338L86.8276 213.538L83.8895 212.932ZM-278 212.932V209.932H-281L-281 212.932L-278 212.932ZM-278 215.932L-281 215.932L-281 218.932H-278V215.932ZM83.8861 215.932L86.8257 215.334L86.3367 212.932H83.8861V215.932ZM91.2521 221.882L91.2782 224.882L91.2521 221.882ZM91.1487 210C93.6108 209.979 95.6171 211.954 95.6384 214.402L101.638 214.35C101.588 208.58 96.8646 203.95 91.0967 204L91.1487 210ZM86.8276 213.538C87.2407 211.536 89.0138 210.019 91.1487 210L91.0967 204C86.0817 204.044 81.9247 207.607 80.9513 212.326L86.8276 213.538ZM-278 215.932L83.8895 215.932V209.932L-278 209.932V215.932ZM-275 215.932L-275 212.932L-281 212.932L-281 215.932L-275 215.932ZM83.8861 212.932L-278 212.932V218.932L83.8861 218.932V212.932ZM91.2261 218.882C89.0604 218.901 87.2407 217.371 86.8257 215.334L80.9464 216.531C81.9247 221.335 86.192 224.926 91.2782 224.882L91.2261 218.882ZM95.6384 214.402C95.6597 216.851 93.6881 218.861 91.2261 218.882L91.2782 224.882C97.0461 224.832 101.688 220.12 101.638 214.35L95.6384 214.402Z" fill="#8ECDC7" mask="url(#path-5-inside-3_794_9891)"/>
<mask id="path-7-inside-4_794_9891" fill="white">
<path fill-rule="evenodd" clip-rule="evenodd" d="M378.471 94.3764C378.435 90.267 375.07 86.9646 370.955 87.0003C367.744 87.0281 365.025 89.0806 364.002 91.9337L-56.9997 91.9337L-56.9997 94.9337L363.585 94.9337C363.841 98.8419 367.113 101.916 371.084 101.882C375.199 101.846 378.506 98.4858 378.471 94.3764Z"/>
</mask>
<path fill-rule="evenodd" clip-rule="evenodd" d="M378.471 94.3764C378.435 90.267 375.07 86.9646 370.955 87.0003C367.744 87.0281 365.025 89.0806 364.002 91.9337L-56.9997 91.9337L-56.9997 94.9337L363.585 94.9337C363.841 98.8419 367.113 101.916 371.084 101.882C375.199 101.846 378.506 98.4858 378.471 94.3764Z" fill="#E2F3F1"/>
<path d="M370.955 87.0003L370.929 84.0004L370.955 87.0003ZM378.471 94.3764L375.471 94.4025L378.471 94.3764ZM364.002 91.9337V94.9337H366.114L366.826 92.9458L364.002 91.9337ZM-56.9997 91.9337V88.9337H-59.9998L-59.9997 91.9337L-56.9997 91.9337ZM-56.9997 94.9337L-59.9997 94.9337L-59.9996 97.9337H-56.9997V94.9337ZM363.585 94.9337L366.578 94.7375L366.395 91.9337H363.585V94.9337ZM371.084 101.882L371.058 98.8819L371.084 101.882ZM370.981 90.0002C373.443 89.9788 375.449 91.9537 375.471 94.4025L381.47 94.3503C381.42 88.5803 376.697 83.9503 370.929 84.0004L370.981 90.0002ZM366.826 92.9458C367.438 91.2398 369.065 90.0168 370.981 90.0002L370.929 84.0004C366.423 84.0395 362.612 86.9213 361.178 90.9215L366.826 92.9458ZM-56.9997 94.9337L364.002 94.9337V88.9337L-56.9997 88.9337V94.9337ZM-53.9997 94.9336L-53.9997 91.9336L-59.9997 91.9337L-59.9997 94.9337L-53.9997 94.9336ZM363.585 91.9337L-56.9997 91.9337V97.9337L363.585 97.9337V91.9337ZM371.058 98.8819C368.684 98.9025 366.731 97.064 366.578 94.7375L360.591 95.1298C360.951 100.62 365.543 104.93 371.11 104.882L371.058 98.8819ZM375.471 94.4025C375.492 96.8513 373.52 98.8605 371.058 98.8819L371.11 104.882C376.878 104.832 381.521 100.12 381.47 94.3503L375.471 94.4025Z" fill="#8ECDC7" mask="url(#path-7-inside-4_794_9891)"/>
<mask id="path-9-inside-5_794_9891" fill="white">
<path fill-rule="evenodd" clip-rule="evenodd" d="M220.47 38.3764C220.435 34.267 217.07 30.9646 212.955 31.0003C209.744 31.0281 207.024 33.0806 206.002 35.9337L-215 35.9337L-215 38.9337L205.584 38.9337C205.841 42.8419 209.113 45.9162 213.084 45.8818C217.199 45.8461 220.506 42.4858 220.47 38.3764Z"/>
</mask>
<path fill-rule="evenodd" clip-rule="evenodd" d="M220.47 38.3764C220.435 34.267 217.07 30.9646 212.955 31.0003C209.744 31.0281 207.024 33.0806 206.002 35.9337L-215 35.9337L-215 38.9337L205.584 38.9337C205.841 42.8419 209.113 45.9162 213.084 45.8818C217.199 45.8461 220.506 42.4858 220.47 38.3764Z" fill="#E2F3F1"/>
<path d="M212.955 31.0003L212.929 28.0004L212.955 31.0003ZM220.47 38.3764L217.47 38.4025L220.47 38.3764ZM206.002 35.9337V38.9337H208.114L208.826 36.9458L206.002 35.9337ZM-215 35.9337V32.9337H-218L-218 35.9337L-215 35.9337ZM-215 38.9337L-218 38.9337L-218 41.9337H-215V38.9337ZM205.584 38.9337L208.578 38.7375L208.394 35.9337H205.584V38.9337ZM213.084 45.8818L213.058 42.8819L213.084 45.8818ZM212.981 34.0002C215.443 33.9788 217.449 35.9537 217.47 38.4025L223.47 38.3503C223.42 32.5803 218.697 27.9503 212.929 28.0004L212.981 34.0002ZM208.826 36.9458C209.437 35.2398 211.065 34.0168 212.981 34.0002L212.929 28.0004C208.422 28.0395 204.611 30.9213 203.178 34.9215L208.826 36.9458ZM-215 38.9337L206.002 38.9337V32.9337L-215 32.9337V38.9337ZM-212 38.9336L-212 35.9336L-218 35.9337L-218 38.9337L-212 38.9336ZM205.584 35.9337L-215 35.9337V41.9337L205.584 41.9337V35.9337ZM213.058 42.8819C210.683 42.9025 208.731 41.064 208.578 38.7375L202.591 39.1298C202.951 44.6199 207.543 48.93 213.11 48.8817L213.058 42.8819ZM217.47 38.4025C217.492 40.8513 215.52 42.8605 213.058 42.8819L213.11 48.8817C218.878 48.8316 223.52 44.1204 223.47 38.3503L217.47 38.4025Z" fill="#8ECDC7" mask="url(#path-9-inside-5_794_9891)"/>
<mask id="path-11-inside-6_794_9891" fill="white">
<path fill-rule="evenodd" clip-rule="evenodd" d="M270.496 180.756C274.611 180.733 277.928 177.383 277.905 173.273C277.883 169.502 275.057 166.403 271.412 165.935L270.233 -41L267.233 -40.983L268.413 166.157C265.274 167.047 262.983 169.94 263.003 173.358C263.026 177.467 266.381 180.78 270.496 180.756Z"/>
</mask>
<path fill-rule="evenodd" clip-rule="evenodd" d="M270.496 180.756C274.611 180.733 277.928 177.383 277.905 173.273C277.883 169.502 275.057 166.403 271.412 165.935L270.233 -41L267.233 -40.983L268.413 166.157C265.274 167.047 262.983 169.94 263.003 173.358C263.026 177.467 266.381 180.78 270.496 180.756Z" fill="#E2F3F1"/>
<path d="M277.905 173.273L280.905 173.256L277.905 173.273ZM270.496 180.756L270.513 183.756L270.496 180.756ZM271.412 165.935L268.412 165.953L268.427 168.577L271.03 168.911L271.412 165.935ZM270.233 -41L273.233 -41.0171L273.215 -44.017L270.216 -44L270.233 -41ZM267.233 -40.983L267.216 -43.9829L264.216 -43.9659L264.233 -40.9659L267.233 -40.983ZM268.413 166.157L269.232 169.043L271.426 168.421L271.413 166.14L268.413 166.157ZM263.003 173.358L260.003 173.375V173.375L263.003 173.358ZM274.905 173.29C274.919 175.739 272.941 177.743 270.479 177.757L270.513 183.756C276.281 183.724 280.937 179.026 280.905 173.256L274.905 173.29ZM271.03 168.911C273.208 169.19 274.892 171.045 274.905 173.29L280.905 173.256C280.874 167.959 276.906 163.615 271.793 162.96L271.03 168.911ZM267.233 -40.9829L268.412 165.953L274.412 165.918L273.233 -41.0171L267.233 -40.9829ZM267.25 -37.983L270.25 -38.0001L270.216 -44L267.216 -43.9829L267.25 -37.983ZM271.413 166.14L270.233 -41L264.233 -40.9659L265.413 166.174L271.413 166.14ZM266.003 173.341C265.991 171.308 267.353 169.576 269.232 169.043L267.594 163.271C263.195 164.519 259.975 168.572 260.003 173.375L266.003 173.341ZM270.479 177.757C268.017 177.771 266.017 175.79 266.003 173.341L260.003 173.375C260.036 179.145 264.745 183.789 270.513 183.756L270.479 177.757Z" fill="#8ECDC7" mask="url(#path-11-inside-6_794_9891)"/>
<mask id="path-13-inside-7_794_9891" fill="white">
<path fill-rule="evenodd" clip-rule="evenodd" d="M152.494 230.256C156.609 230.233 159.926 226.883 159.902 222.773C159.881 219.008 157.063 215.912 153.426 215.438L153.426 -72L150.426 -72L150.426 215.653C147.279 216.538 144.981 219.435 145 222.858C145.024 226.967 148.378 230.28 152.494 230.256Z"/>
</mask>
<path fill-rule="evenodd" clip-rule="evenodd" d="M152.494 230.256C156.609 230.233 159.926 226.883 159.902 222.773C159.881 219.008 157.063 215.912 153.426 215.438L153.426 -72L150.426 -72L150.426 215.653C147.279 216.538 144.981 219.435 145 222.858C145.024 226.967 148.378 230.28 152.494 230.256Z" fill="#E2F3F1"/>
<path d="M159.902 222.773L156.902 222.79L159.902 222.773ZM152.494 230.256L152.511 233.256L152.494 230.256ZM153.426 215.438H150.426V218.072L153.038 218.412L153.426 215.438ZM153.426 -72H156.426L156.426 -75L153.426 -75L153.426 -72ZM150.426 -72L150.426 -75L147.426 -75.0001L147.426 -72H150.426ZM150.426 215.653L151.238 218.541L153.426 217.925V215.653L150.426 215.653ZM145 222.858L148 222.841V222.841L145 222.858ZM156.902 222.79C156.916 225.239 154.939 227.243 152.476 227.257L152.511 233.256C158.279 233.224 162.935 228.526 162.902 222.756L156.902 222.79ZM153.038 218.412C155.21 218.696 156.889 220.549 156.902 222.79L162.902 222.756C162.872 217.467 158.915 213.128 153.814 212.463L153.038 218.412ZM150.426 -72L150.426 215.438L156.426 215.438L156.426 -72H150.426ZM150.426 -69L153.426 -69L153.426 -75L150.426 -75L150.426 -69ZM153.426 215.653L153.426 -72H147.426L147.426 215.653L153.426 215.653ZM148 222.841C147.988 220.805 149.355 219.07 151.238 218.541L149.613 212.765C145.203 214.006 141.973 218.064 142 222.875L148 222.841ZM152.476 227.257C150.014 227.271 148.014 225.29 148 222.841L142 222.875C142.033 228.645 146.743 233.289 152.511 233.256L152.476 227.257Z" fill="#8ECDC7" mask="url(#path-13-inside-7_794_9891)"/>
<mask id="path-15-inside-8_794_9891" fill="white">
<path fill-rule="evenodd" clip-rule="evenodd" d="M59.4947 328.256C63.6097 328.233 66.9267 324.883 66.9033 320.773C66.8818 317.008 64.064 313.912 60.4271 313.438L60.4271 -24.5L57.4271 -24.5L57.4271 313.653C54.2802 314.538 51.9818 317.435 52.0013 320.858C52.0247 324.967 55.3796 328.28 59.4947 328.256Z"/>
</mask>
<path fill-rule="evenodd" clip-rule="evenodd" d="M59.4947 328.256C63.6097 328.233 66.9267 324.883 66.9033 320.773C66.8818 317.008 64.064 313.912 60.4271 313.438L60.4271 -24.5L57.4271 -24.5L57.4271 313.653C54.2802 314.538 51.9818 317.435 52.0013 320.858C52.0247 324.967 55.3796 328.28 59.4947 328.256Z" fill="#E2F3F1"/>
<path d="M66.9033 320.773L63.9033 320.79L66.9033 320.773ZM59.4947 328.256L59.5117 331.256L59.4947 328.256ZM60.4271 313.438H57.4271V316.072L60.0389 316.412L60.4271 313.438ZM60.4271 -24.5H63.4271L63.4271 -27.4999L60.4272 -27.5L60.4271 -24.5ZM57.4271 -24.5L57.4272 -27.5L54.4271 -27.5001V-24.5H57.4271ZM57.4271 313.653L58.2396 316.541L60.4271 315.925V313.653H57.4271ZM52.0013 320.858L55.0012 320.841V320.841L52.0013 320.858ZM63.9033 320.79C63.9173 323.239 61.9397 325.243 59.4776 325.257L59.5117 331.256C65.2798 331.224 69.9361 326.526 69.9032 320.756L63.9033 320.79ZM60.0389 316.412C62.2114 316.696 63.8905 318.549 63.9033 320.79L69.9032 320.756C69.8731 315.467 65.9165 311.128 60.8153 310.463L60.0389 316.412ZM57.4271 -24.5L57.4271 313.438H63.4271L63.4271 -24.5H57.4271ZM57.4271 -21.5L60.4271 -21.5L60.4272 -27.5L57.4272 -27.5L57.4271 -21.5ZM60.4271 313.653L60.4271 -24.5H54.4271L54.4271 313.653H60.4271ZM55.0012 320.841C54.9896 318.805 56.3566 317.07 58.2396 316.541L56.6146 310.765C52.2039 312.006 48.9739 316.064 49.0013 320.875L55.0012 320.841ZM59.4776 325.257C57.0155 325.271 55.0152 323.29 55.0012 320.841L49.0013 320.875C49.0342 326.645 53.7437 331.289 59.5117 331.256L59.4776 325.257Z" fill="#8ECDC7" mask="url(#path-15-inside-8_794_9891)"/>
<mask id="path-17-inside-9_794_9891" fill="white">
<path fill-rule="evenodd" clip-rule="evenodd" d="M289 46.3764C289.036 42.267 292.401 38.9646 296.516 39.0003C299.727 39.0281 302.446 41.0806 303.469 43.9337L724.471 43.9337L724.47 46.9337L303.886 46.9337C303.63 50.8419 300.358 53.9162 296.386 53.8818C292.271 53.8461 288.965 50.4858 289 46.3764Z"/>
</mask>
<path fill-rule="evenodd" clip-rule="evenodd" d="M289 46.3764C289.036 42.267 292.401 38.9646 296.516 39.0003C299.727 39.0281 302.446 41.0806 303.469 43.9337L724.471 43.9337L724.47 46.9337L303.886 46.9337C303.63 50.8419 300.358 53.9162 296.386 53.8818C292.271 53.8461 288.965 50.4858 289 46.3764Z" fill="#E2F3F1"/>
<path d="M296.516 39.0003L296.542 36.0004L296.516 39.0003ZM289 46.3764L292 46.4025L289 46.3764ZM303.469 43.9337V46.9337H301.357L300.645 44.9458L303.469 43.9337ZM724.471 43.9337V40.9337H727.471L727.471 43.9337L724.471 43.9337ZM724.47 46.9337L727.47 46.9337L727.47 49.9337H724.47V46.9337ZM303.886 46.9337L300.893 46.7375L301.076 43.9337H303.886V46.9337ZM296.386 53.8818L296.412 50.8819L296.386 53.8818ZM296.49 42.0002C294.028 41.9788 292.021 43.9537 292 46.4025L286 46.3503C286.051 40.5803 290.774 35.9503 296.542 36.0004L296.49 42.0002ZM300.645 44.9458C300.033 43.2398 298.406 42.0168 296.49 42.0002L296.542 36.0004C301.048 36.0395 304.859 38.9213 306.293 42.9215L300.645 44.9458ZM724.471 46.9337L303.469 46.9337V40.9337L724.471 40.9337V46.9337ZM721.47 46.9336L721.471 43.9336L727.471 43.9337L727.47 46.9337L721.47 46.9336ZM303.886 43.9337L724.47 43.9337V49.9337L303.886 49.9337V43.9337ZM296.412 50.8819C298.787 50.9025 300.74 49.064 300.893 46.7375L306.88 47.1298C306.52 52.6199 301.928 56.93 296.36 56.8817L296.412 50.8819ZM292 46.4025C291.979 48.8513 293.95 50.8605 296.412 50.8819L296.36 56.8817C290.592 56.8316 285.95 52.1204 286 46.3503L292 46.4025Z" fill="#8ECDC7" mask="url(#path-17-inside-9_794_9891)"/>
<mask id="path-19-inside-10_794_9891" fill="white">
<path fill-rule="evenodd" clip-rule="evenodd" d="M212 127.376C212.036 123.267 215.401 119.965 219.516 120C222.727 120.028 225.446 122.081 226.469 124.934L647.471 124.934L647.47 127.934L226.886 127.934C226.63 131.842 223.358 134.916 219.386 134.882C215.271 134.846 211.965 131.486 212 127.376Z"/>
</mask>
<path fill-rule="evenodd" clip-rule="evenodd" d="M212 127.376C212.036 123.267 215.401 119.965 219.516 120C222.727 120.028 225.446 122.081 226.469 124.934L647.471 124.934L647.47 127.934L226.886 127.934C226.63 131.842 223.358 134.916 219.386 134.882C215.271 134.846 211.965 131.486 212 127.376Z" fill="#E2F3F1"/>
<path d="M219.516 120L219.542 117L219.516 120ZM212 127.376L215 127.402L212 127.376ZM226.469 124.934V127.934H224.357L223.645 125.946L226.469 124.934ZM647.471 124.934V121.934H650.471L650.471 124.934L647.471 124.934ZM647.47 127.934L650.47 127.934L650.47 130.934H647.47V127.934ZM226.886 127.934L223.893 127.737L224.076 124.934H226.886V127.934ZM219.386 134.882L219.412 131.882L219.386 134.882ZM219.49 123C217.028 122.979 215.021 124.954 215 127.402L209 127.35C209.051 121.58 213.774 116.95 219.542 117L219.49 123ZM223.645 125.946C223.033 124.24 221.406 123.017 219.49 123L219.542 117C224.048 117.039 227.859 119.921 229.293 123.922L223.645 125.946ZM647.471 127.934L226.469 127.934V121.934L647.471 121.934V127.934ZM644.47 127.934L644.471 124.934L650.471 124.934L650.47 127.934L644.47 127.934ZM226.886 124.934L647.47 124.934V130.934L226.886 130.934V124.934ZM219.412 131.882C221.787 131.903 223.74 130.064 223.893 127.737L229.88 128.13C229.52 133.62 224.928 137.93 219.36 137.882L219.412 131.882ZM215 127.402C214.979 129.851 216.95 131.861 219.412 131.882L219.36 137.882C213.592 137.832 208.95 133.12 209 127.35L215 127.402Z" fill="#8ECDC7" mask="url(#path-19-inside-10_794_9891)"/>
<path d="M153.447 157.846L152.038 154.142L148.11 154.668C130.839 156.982 117.855 172.914 120.436 191.303L120.436 191.304C122.727 207.61 137.371 218.932 153.336 218.948L275.599 220.538L275.938 222.483C276.048 231.136 279.35 238.335 285.093 243.334C290.854 248.349 298.651 250.797 307.112 250.797H312.112V245.797V241.247C312.112 198.265 277.296 163.451 234.313 163.451H161.514C157.86 163.451 154.7 161.137 153.447 157.846Z" fill="#334242" stroke="black" stroke-width="10"/>
<path d="M185.507 381.483V355.714C212.565 370.209 245.904 361.754 259.192 355.714V383.497L222.551 401.213L185.507 381.483Z" fill="#D19A87"/>
<path d="M263.701 355.774H254.602V382.572H263.701V355.774Z" fill="#202030"/>
<path d="M190.903 355.774H181.803V382.572H190.903V355.774Z" fill="#202030"/>
<path d="M194.768 428.191L161.348 385.107L185.105 381.886L217.317 397.992H227.785L258.789 381.886L288.988 385.107L250.334 428.191L222.954 401.616L194.768 428.191Z" fill="#18979E"/>
<path d="M95.3139 434.231L82.4291 460H367.504L348.983 427.788L332.877 409.266L314.757 393.966L286.169 384.705L249.931 427.788L220.135 400.811L195.171 427.788L161.751 384.705L143.229 389.134L116.252 405.642L95.3139 434.231Z" fill="#61E8CF"/>
<path d="M222.752 405.321C222.07 405.321 221.342 405.139 220.705 404.821L185.261 387.122C129.651 387.761 114.588 405.449 89.6768 460H78C89.3484 436.272 107.601 378.169 186.353 378.022C265.104 377.876 187.763 378.204 188.4 378.523L222.752 395.721L257.104 378.523C257.741 378.204 258.424 378.022 259.152 378.022C326.408 376.777 343.667 402.413 370.726 460H363.075C336.391 404.5 319.485 383.233 260.244 387.122L224.8 404.821C224.163 405.139 223.48 405.321 222.752 405.321Z" fill="#202030"/>
<path d="M195.453 432.62C195.453 432.62 195.271 432.62 195.18 432.62C193.906 432.529 192.677 431.937 191.858 430.936L155.459 385.439L162.557 379.751L195.771 421.291L219.476 397.587C221.251 395.812 224.117 395.812 225.892 397.587L249.779 421.473L287.498 379.524L294.277 385.621L253.328 431.118C252.509 432.028 251.326 432.574 250.052 432.62C248.823 432.665 247.595 432.165 246.73 431.3L222.661 407.232L198.592 431.3C197.728 432.165 196.59 432.62 195.362 432.62H195.453Z" fill="#202030"/>
<path d="M140.813 251.428L147.255 218.813H276.908C280.774 252.314 302.41 253.71 312.744 250.22C279.244 266.97 286.975 304.443 295.028 321.086C294.706 331.394 271.271 349.54 259.595 357.325C248.455 362.291 218.283 369.243 186.715 357.325C155.147 345.406 142.96 306.994 140.813 289.277C87.3412 268.661 118.533 255.455 140.813 251.428Z" fill="#F9B49C"/>
<path d="M222.9 269.621V286.015C214.438 289.54 202.593 298.601 222.9 306.639" stroke="black" stroke-width="6" stroke-linecap="square"/>
<path d="M222.752 368.923C175.069 368.923 136.304 330.159 136.304 282.477V246.079C136.304 236.16 138.033 226.287 141.491 216.778C142.218 214.731 144.311 213.502 146.495 213.821C148.133 214.094 149.589 214.23 150.909 214.23H277.351C279.854 214.23 281.901 216.278 281.901 218.78V223.33C281.901 235.887 292.093 246.079 304.651 246.079C307.153 246.079 309.201 248.126 309.201 250.629V255.224H300.101V254.86C284.677 252.631 272.802 239.345 272.802 223.33H150.909C150.272 223.33 149.589 223.33 148.907 223.284C146.586 230.746 145.403 238.39 145.403 246.079V282.477C145.403 325.109 180.119 359.823 222.752 359.823C252.145 359.823 278.625 343.49 291.82 317.237L299.965 321.332C285.223 350.678 255.648 368.923 222.798 368.923H222.752Z" fill="#202030"/>
<path d="M140.853 291.577H131.753C119.196 291.577 109.004 281.385 109.004 268.828C109.004 256.27 119.196 246.079 131.753 246.079H140.853C143.356 246.079 145.403 248.126 145.403 250.629V287.027C145.403 289.529 143.356 291.577 140.853 291.577ZM131.753 255.178C124.246 255.178 118.104 261.321 118.104 268.828C118.104 276.335 124.246 282.477 131.753 282.477H136.303V255.178H131.753Z" fill="#202030"/>
<path d="M191.547 273.171C195.327 273.171 198.392 270.106 198.392 266.326C198.392 262.545 195.327 259.481 191.547 259.481C187.767 259.481 184.702 262.545 184.702 266.326C184.702 270.106 187.767 273.171 191.547 273.171Z" fill="#202030"/>
<path d="M252.749 273.171C256.53 273.171 259.594 270.106 259.594 266.326C259.594 262.545 256.53 259.481 252.749 259.481C248.969 259.481 245.904 262.545 245.904 266.326C245.904 270.106 248.969 273.171 252.749 273.171Z" fill="#202030"/>
<path d="M218.122 341.621C208.014 341.767 199.291 325.606 195.976 319.878L204.432 315.047C213.484 340.066 227.131 340.36 235.839 315.047L243.892 319.878C241.966 323.796 234.967 340.17 223.778 341.621H218.122Z" fill="#202030"/>
<circle cx="331.669" cy="291.29" r="43.0834" fill="#8FD7F7"/>
<path d="M317.173 260.689C311.134 262.299 298.893 269.547 298.249 285.653" stroke="white" stroke-width="7" stroke-miterlimit="16" stroke-linecap="round"/>
<circle cx="297.846" cy="294.511" r="2.81854" fill="white"/>
<path d="M331.951 341.624C304.333 341.624 281.901 319.194 281.901 291.577C281.901 263.959 304.333 241.529 331.951 241.529C359.569 241.529 382 263.959 382 291.577C382 319.194 359.569 341.624 331.951 341.624ZM331.951 250.629C309.383 250.629 291.001 269.01 291.001 291.577C291.001 314.144 309.383 332.525 331.951 332.525C354.518 332.525 372.9 314.144 372.9 291.577C372.9 269.01 354.518 250.629 331.951 250.629Z" fill="#202030"/>
<path d="M336.501 337.075H327.401V355.274H336.501V337.075Z" fill="#202030"/>
<rect x="298.249" y="355.311" width="59.592" height="70.0609" fill="#F9B49C"/>
<path d="M327.401 395.977H304.651C297.144 395.977 291.001 389.835 291.001 382.328C291.001 374.821 297.144 368.679 304.651 368.679H327.401V377.778H304.651C302.148 377.778 300.101 379.826 300.101 382.328C300.101 384.83 302.148 386.878 304.651 386.878H327.401V395.977Z" fill="#202030"/>
<path d="M327.401 414.177H304.651C297.144 414.177 291.001 408.034 291.001 400.527C291.001 393.02 297.144 386.878 304.651 386.878H327.401V395.977H304.651C302.148 395.977 300.101 398.025 300.101 400.527C300.101 403.03 302.148 405.077 304.651 405.077H327.401V414.177Z" fill="#202030"/>
<path d="M350.15 432.376H304.651C297.144 432.376 291.001 426.233 291.001 418.726C291.001 411.219 297.144 405.077 304.651 405.077H327.401V414.177H304.651C302.148 414.177 300.101 416.224 300.101 418.726C300.101 421.229 302.148 423.276 304.651 423.276H350.15C352.653 423.276 354.7 421.229 354.7 418.726V364.129C354.7 361.627 352.653 359.579 350.15 359.579H304.651C302.148 359.579 300.101 361.627 300.101 364.129C300.101 366.631 302.148 368.679 304.651 368.679H327.401V377.778H304.651C297.144 377.778 291.001 371.636 291.001 364.129C291.001 356.622 297.144 350.48 304.651 350.48H350.15C357.658 350.48 363.8 356.622 363.8 364.129V418.726C363.8 426.233 357.658 432.376 350.15 432.376Z" fill="#202030"/>
<path d="M191.503 241.764C177.801 241.764 166.22 249.219 162.154 259.481C167.635 259.481 173.115 257.902 177.005 254.745C180.806 251.675 185.934 249.658 191.503 249.658C197.072 249.658 202.199 251.675 206.089 254.745C209.978 257.902 215.46 259.481 220.941 259.481C216.874 249.219 205.294 241.764 191.591 241.764" fill="#0C1D23"/>
<path d="M253.108 241.852C239.594 241.852 228.085 249.27 224.161 259.481C229.567 259.481 234.886 257.997 238.809 254.768C242.558 251.713 247.703 249.706 253.196 249.706C258.689 249.706 263.658 251.626 267.408 254.681C271.331 257.822 276.65 259.394 282.143 259.394C278.132 249.183 266.71 241.764 253.196 241.764" fill="#0C1D23"/>
</g>
<defs>
<clipPath id="clip0_794_9891">
<rect width="460" height="460" fill="white"/>
</clipPath>
</defs>
</svg>
