<svg width="460" height="460" viewBox="0 0 460 460" fill="none" xmlns="http://www.w3.org/2000/svg">
<g clip-path="url(#clip0_794_11353)">
<rect width="460" height="460" fill="#E2F3F1"/>
<ellipse cx="214.401" cy="157.841" rx="214.401" ry="157.841" transform="matrix(0.90305 -0.429535 0.431287 0.902215 -32 184.186)" fill="#CBE5F6"/>
<mask id="path-2-inside-1_794_11353" fill="white">
<path fill-rule="evenodd" clip-rule="evenodd" d="M296.47 36.3764C296.435 32.267 293.07 28.9646 288.955 29.0003C285.744 29.0281 283.025 31.0806 282.002 33.9337L-139 33.9337L-139 36.9337L281.585 36.9337C281.841 40.842 285.113 43.9163 289.084 43.8818C293.199 43.8461 296.506 40.4858 296.47 36.3764Z"/>
</mask>
<path fill-rule="evenodd" clip-rule="evenodd" d="M296.47 36.3764C296.435 32.267 293.07 28.9646 288.955 29.0003C285.744 29.0281 283.025 31.0806 282.002 33.9337L-139 33.9337L-139 36.9337L281.585 36.9337C281.841 40.842 285.113 43.9163 289.084 43.8818C293.199 43.8461 296.506 40.4858 296.47 36.3764Z" fill="#E2F3F1"/>
<path d="M288.955 29.0003L288.929 26.0004L288.955 29.0003ZM296.47 36.3764L293.471 36.4025L296.47 36.3764ZM282.002 33.9337V36.9337H284.114L284.826 34.9458L282.002 33.9337ZM-139 33.9337V30.9337H-142L-142 33.9337L-139 33.9337ZM-139 36.9337L-142 36.9337L-142 39.9337H-139V36.9337ZM281.585 36.9337L284.578 36.7375L284.394 33.9337H281.585V36.9337ZM289.084 43.8818L289.058 40.8819L289.084 43.8818ZM288.981 32.0002C291.443 31.9788 293.449 33.9537 293.471 36.4025L299.47 36.3503C299.42 30.5803 294.697 25.9504 288.929 26.0004L288.981 32.0002ZM284.826 34.9458C285.438 33.2398 287.065 32.0168 288.981 32.0002L288.929 26.0004C284.423 26.0395 280.612 28.9213 279.178 32.9215L284.826 34.9458ZM-139 36.9337L282.002 36.9337V30.9337L-139 30.9337V36.9337ZM-136 36.9336L-136 33.9336L-142 33.9337L-142 36.9337L-136 36.9336ZM281.585 33.9337L-139 33.9337V39.9337L281.585 39.9337V33.9337ZM289.058 40.8819C286.683 40.9025 284.731 39.064 284.578 36.7375L278.591 37.1298C278.951 42.6199 283.543 46.93 289.11 46.8817L289.058 40.8819ZM293.471 36.4025C293.492 38.8513 291.52 40.8606 289.058 40.8819L289.11 46.8817C294.878 46.8317 299.52 42.1204 299.47 36.3503L293.471 36.4025Z" fill="#8ECDC7" mask="url(#path-2-inside-1_794_11353)"/>
<mask id="path-4-inside-2_794_11353" fill="white">
<path fill-rule="evenodd" clip-rule="evenodd" d="M103 425.506C103.036 429.615 106.401 432.918 110.516 432.882C113.727 432.854 116.446 430.802 117.469 427.948L538.471 427.948L538.47 424.948L117.886 424.948C117.63 421.04 114.358 417.966 110.386 418C106.271 418.036 102.965 421.396 103 425.506Z"/>
</mask>
<path fill-rule="evenodd" clip-rule="evenodd" d="M103 425.506C103.036 429.615 106.401 432.918 110.516 432.882C113.727 432.854 116.446 430.802 117.469 427.948L538.471 427.948L538.47 424.948L117.886 424.948C117.63 421.04 114.358 417.966 110.386 418C106.271 418.036 102.965 421.396 103 425.506Z" fill="#E2F3F1"/>
<path d="M110.516 432.882L110.542 435.882L110.516 432.882ZM103 425.506L106 425.48L103 425.506ZM117.469 427.948V424.948H115.357L114.645 426.936L117.469 427.948ZM538.471 427.948V430.948H541.471L541.471 427.948L538.471 427.948ZM538.47 424.948L541.47 424.948L541.47 421.948H538.47V424.948ZM117.886 424.948L114.893 425.145L115.076 427.948H117.886V424.948ZM110.386 418L110.412 421L110.386 418ZM110.49 429.882C108.028 429.903 106.021 427.928 106 425.48L100 425.532C100.051 431.302 104.774 435.932 110.542 435.882L110.49 429.882ZM114.645 426.936C114.033 428.642 112.406 429.865 110.49 429.882L110.542 435.882C115.048 435.843 118.859 432.961 120.293 428.961L114.645 426.936ZM538.471 424.948L117.469 424.948V430.948L538.471 430.948V424.948ZM535.47 424.948L535.471 427.948L541.471 427.948L541.47 424.948L535.47 424.948ZM117.886 427.948L538.47 427.948V421.948L117.886 421.948V427.948ZM110.412 421C112.787 420.98 114.74 422.818 114.893 425.145L120.88 424.752C120.52 419.262 115.928 414.952 110.36 415L110.412 421ZM106 425.48C105.979 423.031 107.95 421.022 110.412 421L110.36 415C104.592 415.05 99.9502 419.762 100 425.532L106 425.48Z" fill="#8ECDC7" mask="url(#path-4-inside-2_794_11353)"/>
<mask id="path-6-inside-3_794_11353" fill="white">
<path fill-rule="evenodd" clip-rule="evenodd" d="M29.5057 289.47C33.6151 289.435 36.9175 286.07 36.8818 281.955C36.8539 278.744 34.8015 276.024 31.9484 275.002L31.9484 -146L28.9484 -146L28.9484 274.584C25.0401 274.841 21.9658 278.113 22.0003 282.084C22.036 286.199 25.3963 289.506 29.5057 289.47Z"/>
</mask>
<path fill-rule="evenodd" clip-rule="evenodd" d="M29.5057 289.47C33.6151 289.435 36.9175 286.07 36.8818 281.955C36.8539 278.744 34.8015 276.024 31.9484 275.002L31.9484 -146L28.9484 -146L28.9484 274.584C25.0401 274.841 21.9658 278.113 22.0003 282.084C22.036 286.199 25.3963 289.506 29.5057 289.47Z" fill="#E2F3F1"/>
<path d="M36.8818 281.955L39.8817 281.929L36.8818 281.955ZM29.5057 289.47L29.4796 286.47L29.5057 289.47ZM31.9484 275.002H28.9484L28.9484 277.114L30.9363 277.826L31.9484 275.002ZM31.9484 -146H34.9484V-149L31.9484 -149L31.9484 -146ZM28.9484 -146L28.9484 -149L25.9484 -149V-146H28.9484ZM28.9484 274.584L29.1446 277.578L31.9484 277.394V274.584H28.9484ZM22.0003 282.084L25.0002 282.058L22.0003 282.084ZM33.8819 281.981C33.9033 284.443 31.9284 286.449 29.4796 286.47L29.5318 292.47C35.3018 292.42 39.9317 287.697 39.8817 281.929L33.8819 281.981ZM30.9363 277.826C32.6423 278.437 33.8653 280.065 33.8819 281.981L39.8817 281.929C39.8426 277.422 36.9608 273.611 32.9606 272.178L30.9363 277.826ZM28.9484 -146L28.9484 275.002H34.9484L34.9484 -146H28.9484ZM28.9485 -143L31.9485 -143L31.9484 -149L28.9484 -149L28.9485 -143ZM31.9484 274.584L31.9484 -146H25.9484L25.9484 274.584H31.9484ZM25.0002 282.058C24.9796 279.683 26.8181 277.731 29.1446 277.578L28.7523 271.591C23.2622 271.951 18.9521 276.543 19.0004 282.11L25.0002 282.058ZM29.4796 286.47C27.0308 286.492 25.0215 284.52 25.0002 282.058L19.0004 282.11C19.0504 287.878 23.7617 292.52 29.5318 292.47L29.4796 286.47Z" fill="#8ECDC7" mask="url(#path-6-inside-3_794_11353)"/>
<mask id="path-8-inside-4_794_11353" fill="white">
<path fill-rule="evenodd" clip-rule="evenodd" d="M417.965 148C413.856 148.036 410.553 151.401 410.589 155.516C410.617 158.727 412.669 161.446 415.522 162.469L415.522 583.471L418.522 583.47L418.522 162.886C422.431 162.63 425.505 159.358 425.47 155.386C425.435 151.271 422.074 147.965 417.965 148Z"/>
</mask>
<path fill-rule="evenodd" clip-rule="evenodd" d="M417.965 148C413.856 148.036 410.553 151.401 410.589 155.516C410.617 158.727 412.669 161.446 415.522 162.469L415.522 583.471L418.522 583.47L418.522 162.886C422.431 162.63 425.505 159.358 425.47 155.386C425.435 151.271 422.074 147.965 417.965 148Z" fill="#E2F3F1"/>
<path d="M410.589 155.516L407.589 155.542L410.589 155.516ZM417.965 148L417.991 151L417.965 148ZM415.522 162.469H418.522V160.357L416.534 159.645L415.522 162.469ZM415.522 583.471H412.522V586.471L415.522 586.471L415.522 583.471ZM418.522 583.47L418.522 586.47L421.522 586.47V583.47H418.522ZM418.522 162.886L418.326 159.893L415.522 160.076V162.886H418.522ZM425.47 155.386L422.471 155.412L425.47 155.386ZM413.589 155.49C413.567 153.028 415.542 151.021 417.991 151L417.939 145C412.169 145.051 407.539 149.774 407.589 155.542L413.589 155.49ZM416.534 159.645C414.828 159.033 413.605 157.406 413.589 155.49L407.589 155.542C407.628 160.048 410.51 163.859 414.51 165.293L416.534 159.645ZM418.522 583.471L418.522 162.469H412.522L412.522 583.471H418.522ZM418.522 580.47L415.522 580.471L415.522 586.471L418.522 586.47L418.522 580.47ZM415.522 162.886L415.522 583.47H421.522L421.522 162.886H415.522ZM422.471 155.412C422.491 157.787 420.653 159.74 418.326 159.893L418.718 165.88C424.208 165.52 428.519 160.928 428.47 155.36L422.471 155.412ZM417.991 151C420.44 150.979 422.449 152.95 422.471 155.412L428.47 155.36C428.42 149.592 423.709 144.95 417.939 145L417.991 151Z" fill="#8ECDC7" mask="url(#path-8-inside-4_794_11353)"/>
<mask id="path-10-inside-5_794_11353" fill="white">
<path fill-rule="evenodd" clip-rule="evenodd" d="M167.506 140.47C171.615 140.435 174.918 137.07 174.882 132.955C174.854 129.744 172.802 127.024 169.948 126.002L169.948 -295L166.948 -295L166.948 125.584C163.04 125.841 159.966 129.113 160 133.084C160.036 137.199 163.396 140.506 167.506 140.47Z"/>
</mask>
<path fill-rule="evenodd" clip-rule="evenodd" d="M167.506 140.47C171.615 140.435 174.918 137.07 174.882 132.955C174.854 129.744 172.802 127.024 169.948 126.002L169.948 -295L166.948 -295L166.948 125.584C163.04 125.841 159.966 129.113 160 133.084C160.036 137.199 163.396 140.506 167.506 140.47Z" fill="#E2F3F1"/>
<path d="M174.882 132.955L177.882 132.929L174.882 132.955ZM167.506 140.47L167.48 137.47L167.506 140.47ZM169.948 126.002H166.948V128.114L168.936 128.826L169.948 126.002ZM169.948 -295H172.948V-298L169.948 -298L169.948 -295ZM166.948 -295L166.948 -298L163.948 -298V-295H166.948ZM166.948 125.584L167.145 128.578L169.948 128.394V125.584H166.948ZM160 133.084L163 133.058L160 133.084ZM171.882 132.981C171.903 135.443 169.928 137.449 167.48 137.47L167.532 143.47C173.302 143.42 177.932 138.697 177.882 132.929L171.882 132.981ZM168.936 128.826C170.642 129.437 171.865 131.065 171.882 132.981L177.882 132.929C177.843 128.422 174.961 124.611 170.961 123.178L168.936 128.826ZM166.948 -295L166.948 126.002H172.948L172.948 -295H166.948ZM166.948 -292L169.948 -292L169.948 -298L166.948 -298L166.948 -292ZM169.948 125.584L169.948 -295H163.948L163.948 125.584H169.948ZM163 133.058C162.98 130.683 164.818 128.73 167.145 128.578L166.752 122.591C161.262 122.951 156.952 127.543 157 133.11L163 133.058ZM167.48 137.47C165.031 137.492 163.022 135.52 163 133.058L157 133.11C157.05 138.878 161.762 143.52 167.532 143.47L167.48 137.47Z" fill="#8ECDC7" mask="url(#path-10-inside-5_794_11353)"/>
<mask id="path-12-inside-6_794_11353" fill="white">
<path fill-rule="evenodd" clip-rule="evenodd" d="M352.377 342C348.267 342.036 344.965 345.401 345.001 349.516C345.028 352.727 347.081 355.446 349.934 356.469L349.934 777.471L352.934 777.47L352.934 356.886C356.842 356.63 359.916 353.358 359.882 349.386C359.846 345.271 356.486 341.965 352.377 342Z"/>
</mask>
<path fill-rule="evenodd" clip-rule="evenodd" d="M352.377 342C348.267 342.036 344.965 345.401 345.001 349.516C345.028 352.727 347.081 355.446 349.934 356.469L349.934 777.471L352.934 777.47L352.934 356.886C356.842 356.63 359.916 353.358 359.882 349.386C359.846 345.271 356.486 341.965 352.377 342Z" fill="#E2F3F1"/>
<path d="M345.001 349.516L342.001 349.542L345.001 349.516ZM352.377 342L352.403 345L352.377 342ZM349.934 356.469H352.934V354.357L350.946 353.645L349.934 356.469ZM349.934 777.471H346.934V780.471L349.934 780.471L349.934 777.471ZM352.934 777.47L352.934 780.47L355.934 780.47V777.47H352.934ZM352.934 356.886L352.738 353.893L349.934 354.076V356.886H352.934ZM359.882 349.386L356.882 349.412L359.882 349.386ZM348 349.49C347.979 347.028 349.954 345.021 352.403 345L352.351 339C346.581 339.051 341.951 343.774 342.001 349.542L348 349.49ZM350.946 353.645C349.24 353.033 348.017 351.406 348 349.49L342.001 349.542C342.04 354.048 344.922 357.859 348.922 359.293L350.946 353.645ZM352.934 777.471L352.934 356.469H346.934L346.934 777.471H352.934ZM352.934 774.47L349.934 774.471L349.934 780.471L352.934 780.47L352.934 774.47ZM349.934 356.886L349.934 777.47H355.934L355.934 356.886H349.934ZM356.882 349.412C356.903 351.787 355.064 353.74 352.738 353.893L353.13 359.88C358.62 359.52 362.93 354.928 362.882 349.36L356.882 349.412ZM352.403 345C354.852 344.979 356.861 346.95 356.882 349.412L362.882 349.36C362.832 343.592 358.121 338.95 352.351 339L352.403 345Z" fill="#8ECDC7" mask="url(#path-12-inside-6_794_11353)"/>
<mask id="path-14-inside-7_794_11353" fill="white">
<path fill-rule="evenodd" clip-rule="evenodd" d="M219.47 79.3764C219.435 75.267 216.07 71.9646 211.955 72.0003C208.744 72.0281 206.025 74.0806 205.002 76.9337L-216 76.9337L-216 79.9337L204.585 79.9337C204.841 83.842 208.113 86.9163 212.084 86.8818C216.199 86.8461 219.506 83.4858 219.47 79.3764Z"/>
</mask>
<path fill-rule="evenodd" clip-rule="evenodd" d="M219.47 79.3764C219.435 75.267 216.07 71.9646 211.955 72.0003C208.744 72.0281 206.025 74.0806 205.002 76.9337L-216 76.9337L-216 79.9337L204.585 79.9337C204.841 83.842 208.113 86.9163 212.084 86.8818C216.199 86.8461 219.506 83.4858 219.47 79.3764Z" fill="#E2F3F1"/>
<path d="M211.955 72.0003L211.929 69.0004L211.955 72.0003ZM219.47 79.3764L216.471 79.4025L219.47 79.3764ZM205.002 76.9337V79.9337H207.114L207.826 77.9458L205.002 76.9337ZM-216 76.9337V73.9337H-219L-219 76.9337L-216 76.9337ZM-216 79.9337L-219 79.9337L-219 82.9337H-216V79.9337ZM204.585 79.9337L207.578 79.7375L207.394 76.9337H204.585V79.9337ZM212.084 86.8818L212.058 83.8819L212.084 86.8818ZM211.981 75.0002C214.443 74.9788 216.449 76.9537 216.471 79.4025L222.47 79.3503C222.42 73.5803 217.697 68.9504 211.929 69.0004L211.981 75.0002ZM207.826 77.9458C208.438 76.2398 210.065 75.0168 211.981 75.0002L211.929 69.0004C207.423 69.0395 203.612 71.9213 202.178 75.9215L207.826 77.9458ZM-216 79.9337L205.002 79.9337V73.9337L-216 73.9337V79.9337ZM-213 79.9336L-213 76.9336L-219 76.9337L-219 79.9337L-213 79.9336ZM204.585 76.9337L-216 76.9337V82.9337L204.585 82.9337V76.9337ZM212.058 83.8819C209.683 83.9025 207.731 82.064 207.578 79.7375L201.591 80.1298C201.951 85.6199 206.543 89.93 212.11 89.8817L212.058 83.8819ZM216.471 79.4025C216.492 81.8513 214.52 83.8606 212.058 83.8819L212.11 89.8817C217.878 89.8317 222.52 85.1204 222.47 79.3503L216.471 79.4025Z" fill="#8ECDC7" mask="url(#path-14-inside-7_794_11353)"/>
<mask id="path-16-inside-8_794_11353" fill="white">
<path fill-rule="evenodd" clip-rule="evenodd" d="M343 291.506C343.036 295.615 346.401 298.918 350.516 298.882C353.727 298.854 356.446 296.802 357.469 293.948L778.471 293.948L778.47 290.948L357.886 290.948C357.63 287.04 354.358 283.966 350.386 284C346.271 284.036 342.965 287.396 343 291.506Z"/>
</mask>
<path fill-rule="evenodd" clip-rule="evenodd" d="M343 291.506C343.036 295.615 346.401 298.918 350.516 298.882C353.727 298.854 356.446 296.802 357.469 293.948L778.471 293.948L778.47 290.948L357.886 290.948C357.63 287.04 354.358 283.966 350.386 284C346.271 284.036 342.965 287.396 343 291.506Z" fill="#E2F3F1"/>
<path d="M350.516 298.882L350.542 301.882L350.516 298.882ZM343 291.506L346 291.48L343 291.506ZM357.469 293.948V290.948H355.357L354.645 292.936L357.469 293.948ZM778.471 293.948V296.948H781.471L781.471 293.948L778.471 293.948ZM778.47 290.948L781.47 290.948L781.47 287.948H778.47V290.948ZM357.886 290.948L354.893 291.145L355.076 293.948H357.886V290.948ZM350.386 284L350.412 287L350.386 284ZM350.49 295.882C348.028 295.903 346.021 293.928 346 291.48L340 291.532C340.051 297.302 344.774 301.932 350.542 301.882L350.49 295.882ZM354.645 292.936C354.033 294.642 352.406 295.865 350.49 295.882L350.542 301.882C355.048 301.843 358.859 298.961 360.293 294.961L354.645 292.936ZM778.471 290.948L357.469 290.948V296.948L778.471 296.948V290.948ZM775.47 290.948L775.471 293.948L781.471 293.948L781.47 290.948L775.47 290.948ZM357.886 293.948L778.47 293.948V287.948L357.886 287.948V293.948ZM350.412 287C352.787 286.98 354.74 288.818 354.893 291.145L360.88 290.752C360.52 285.262 355.928 280.952 350.36 281L350.412 287ZM346 291.48C345.979 289.031 347.95 287.022 350.412 287L350.36 281C344.592 281.05 339.95 285.762 340 291.532L346 291.48Z" fill="#8ECDC7" mask="url(#path-16-inside-8_794_11353)"/>
<path d="M249 278.804C279.274 280.274 342.074 269.984 351.08 217.067C362.338 150.921 300.943 171.78 307.206 197.185C312.217 217.508 330.779 217.962 339.433 215.648C352.271 209.984 376.81 191.419 372.258 162.478C367.706 133.537 333.026 124.023 316.256 122.884" stroke="black" stroke-width="4" stroke-dasharray="6 6"/>
<path d="M170.998 293.708C140.783 291.311 79.8038 273.109 77.6082 219.476C74.8637 152.435 133.103 180.942 123.656 205.342C116.099 224.862 97.6307 222.948 89.3413 219.552C77.3286 212.299 55.3531 190.762 63.553 162.635C71.7528 134.509 107.361 129.488 124.14 130.494" stroke="black" stroke-width="4" stroke-dasharray="6 6"/>
<path d="M363.5 157.185C391.071 157.185 413.427 134.889 413.427 107.379C413.427 79.8689 391.071 57.5735 363.5 57.5735C335.93 57.5735 313.574 79.8689 313.574 107.379C313.574 134.889 335.93 157.185 363.5 157.185Z" fill="white" stroke="black" stroke-width="2.85294"/>
<path d="M365.878 134.071C365.878 137.932 369.018 141.058 372.879 141.058C376.256 141.058 379.08 138.668 379.737 135.487C379.866 135.494 379.996 135.497 380.127 135.497C384.3 135.497 387.685 132.126 387.685 127.954C387.685 127.832 387.682 127.71 387.676 127.589C391.478 126.919 394.375 123.602 394.375 119.613C394.375 118.226 394.023 116.916 393.402 115.772C396.599 114.327 398.835 111.122 398.835 107.379C398.835 103.634 396.604 100.425 393.396 98.9818C394.016 97.8431 394.375 96.538 394.375 95.1453C394.375 91.1558 391.478 87.8391 387.676 87.1692C387.682 87.0482 387.685 86.9265 387.685 86.8041C387.685 82.6319 384.3 79.2607 380.127 79.2607C379.996 79.2607 379.866 79.2642 379.737 79.2711C379.08 76.0899 376.256 73.6999 372.879 73.6999C369.018 73.6999 365.878 76.8264 365.878 80.6872V134.071Z" fill="#F4BD4D" stroke="black" stroke-width="2.85294"/>
<path d="M376.88 96.2574H365.73V94.0331H375.765V89.5844H377.995V95.1452C377.995 95.7569 377.493 96.2574 376.88 96.2574Z" fill="#202030"/>
<path d="M381.34 101.818H365.73V104.043H381.34V101.818Z" fill="#202030"/>
<path d="M384.684 117.389H382.455V111.828H365.73V109.603H383.57C384.183 109.603 384.684 110.104 384.684 110.716V117.389Z" fill="#202030"/>
<path d="M373.536 110.716H371.306V125.174H373.536V110.716Z" fill="#202030"/>
<path d="M376.88 90.6966C375.04 90.6966 373.535 89.1952 373.535 87.3601C373.535 85.525 375.04 84.0236 376.88 84.0236C378.72 84.0236 380.225 85.525 380.225 87.3601C380.225 89.1952 378.72 90.6966 376.88 90.6966ZM376.88 86.248C376.267 86.248 375.765 86.7484 375.765 87.3601C375.765 87.9718 376.267 88.4723 376.88 88.4723C377.493 88.4723 377.995 87.9718 377.995 87.3601C377.995 86.7484 377.493 86.248 376.88 86.248Z" fill="#202030"/>
<path d="M383.569 106.267C381.73 106.267 380.225 104.765 380.225 102.93C380.225 101.095 381.73 99.5939 383.569 99.5939C385.409 99.5939 386.914 101.095 386.914 102.93C386.914 104.765 385.409 106.267 383.569 106.267ZM383.569 101.818C382.956 101.818 382.454 102.319 382.454 102.93C382.454 103.542 382.956 104.043 383.569 104.043C384.183 104.043 384.684 103.542 384.684 102.93C384.684 102.319 384.183 101.818 383.569 101.818Z" fill="#202030"/>
<path d="M372.421 130.734C370.581 130.734 369.076 129.233 369.076 127.398C369.076 125.563 370.581 124.061 372.421 124.061C374.26 124.061 375.765 125.563 375.765 127.398C375.765 129.233 374.26 130.734 372.421 130.734ZM372.421 126.286C371.807 126.286 371.306 126.786 371.306 127.398C371.306 128.01 371.807 128.51 372.421 128.51C373.034 128.51 373.535 128.01 373.535 127.398C373.535 126.786 373.034 126.286 372.421 126.286Z" fill="#202030"/>
<path d="M383.569 122.949C381.73 122.949 380.225 121.448 380.225 119.613C380.225 117.778 381.73 116.276 383.569 116.276C385.409 116.276 386.914 117.778 386.914 119.613C386.914 121.448 385.409 122.949 383.569 122.949ZM383.569 118.501C382.956 118.501 382.454 119.001 382.454 119.613C382.454 120.225 382.956 120.725 383.569 120.725C384.183 120.725 384.684 120.225 384.684 119.613C384.684 119.001 384.183 118.501 383.569 118.501Z" fill="#202030"/>
<path d="M352.843 141.058C356.705 141.058 359.844 137.932 359.844 134.071V80.6872C359.844 76.8264 356.705 73.6999 352.843 73.6999C349.467 73.6999 346.643 76.0899 345.986 79.2711C345.857 79.2642 345.727 79.2607 345.596 79.2607C341.422 79.2607 338.037 82.6319 338.037 86.8041C338.037 86.9265 338.041 87.0482 338.047 87.1692C334.245 87.8391 331.348 91.1558 331.348 95.1453C331.348 96.538 331.707 97.8431 332.326 98.9818C329.119 100.425 326.888 103.634 326.888 107.379C326.888 111.122 329.124 114.327 332.321 115.772C331.7 116.916 331.348 118.226 331.348 119.613C331.348 123.602 334.245 126.919 338.047 127.589C338.041 127.71 338.037 127.832 338.037 127.954C338.037 132.126 341.422 135.497 345.596 135.497C345.727 135.497 345.857 135.494 345.986 135.487C346.643 138.668 349.467 141.058 352.843 141.058Z" fill="#F4BD4D" stroke="black" stroke-width="2.85294"/>
<path d="M361.271 96.2574H353.466C352.853 96.2574 352.351 95.7569 352.351 95.1452V89.5844H354.581V94.0331H361.271V96.2574Z" fill="#202030"/>
<path d="M345.662 110.716H343.432V102.93C343.432 102.319 343.933 101.818 344.547 101.818H361.271V104.043H345.662V110.716Z" fill="#202030"/>
<path d="M352.351 119.613H350.121V110.716C350.121 110.104 350.623 109.603 351.236 109.603H361.271V111.828H352.351V119.613Z" fill="#202030"/>
<path d="M353.466 90.6966C351.626 90.6966 350.121 89.1952 350.121 87.3601C350.121 85.525 351.626 84.0236 353.466 84.0236C355.306 84.0236 356.811 85.525 356.811 87.3601C356.811 89.1952 355.306 90.6966 353.466 90.6966ZM353.466 86.248C352.853 86.248 352.351 86.7484 352.351 87.3601C352.351 87.9718 352.853 88.4723 353.466 88.4723C354.079 88.4723 354.581 87.9718 354.581 87.3601C354.581 86.7484 354.079 86.248 353.466 86.248Z" fill="#202030"/>
<path d="M343.431 98.4817C341.592 98.4817 340.086 96.9803 340.086 95.1453C340.086 93.3102 341.592 91.8088 343.431 91.8088C345.271 91.8088 346.776 93.3102 346.776 95.1453C346.776 96.9803 345.271 98.4817 343.431 98.4817ZM343.431 94.0331C342.818 94.0331 342.316 94.5336 342.316 95.1453C342.316 95.757 342.818 96.2574 343.431 96.2574C344.044 96.2574 344.546 95.757 344.546 95.1453C344.546 94.5336 344.044 94.0331 343.431 94.0331Z" fill="#202030"/>
<path d="M344.547 116.276C342.707 116.276 341.202 114.775 341.202 112.94C341.202 111.105 342.707 109.603 344.547 109.603C346.387 109.603 347.892 111.105 347.892 112.94C347.892 114.775 346.387 116.276 344.547 116.276ZM344.547 111.828C343.934 111.828 343.432 112.328 343.432 112.94C343.432 113.552 343.934 114.052 344.547 114.052C345.16 114.052 345.662 113.552 345.662 112.94C345.662 112.328 345.16 111.828 344.547 111.828Z" fill="#202030"/>
<path d="M351.236 125.174C349.396 125.174 347.891 123.672 347.891 121.837C347.891 120.002 349.396 118.501 351.236 118.501C353.076 118.501 354.581 120.002 354.581 121.837C354.581 123.672 353.076 125.174 351.236 125.174ZM351.236 120.725C350.623 120.725 350.121 121.225 350.121 121.837C350.121 122.449 350.623 122.949 351.236 122.949C351.849 122.949 352.351 122.449 352.351 121.837C352.351 121.225 351.849 120.725 351.236 120.725Z" fill="#202030"/>
<path d="M353.466 94.0331H345.662V96.2574H353.466V94.0331Z" fill="#202030"/>
<path d="M361.271 129.622H351.236C350.623 129.622 350.121 129.122 350.121 128.51V124.061H352.351V127.398H361.271V129.622Z" fill="#202030"/>
<path d="M382.454 94.0331H380.225V96.2574H382.454V94.0331Z" fill="#202030"/>
<path d="M336.743 106.267H334.513V108.491H336.743V106.267Z" fill="#202030"/>
<path d="M343.432 119.613H341.202V121.837H343.432V119.613Z" fill="#202030"/>
<path d="M391.374 106.267H389.145V108.491H391.374V106.267Z" fill="#202030"/>
<path d="M97.5 157.185C125.07 157.185 147.426 134.889 147.426 107.379C147.426 79.8689 125.07 57.5735 97.5 57.5735C69.9297 57.5735 47.5735 79.8689 47.5735 107.379C47.5735 134.889 69.9297 157.185 97.5 157.185Z" fill="white" stroke="black" stroke-width="2.85294"/>
<path d="M87.9636 124.685V126.112H89.39H106.013H107.439V124.685V119.803C113.248 116.451 117.163 110.186 117.163 103.005V101.578H117.11C116.377 91.5268 107.963 83.6053 97.7009 83.6053C86.958 83.6053 78.24 92.2866 78.24 103.005C78.24 110.186 82.1554 116.451 87.9636 119.803V124.685Z" fill="#FBCC7E" stroke="black" stroke-width="2.85294"/>
<path d="M84.025 104.442C83.4762 104.442 83.0312 103.999 83.0312 103.452C83.0312 101.478 83.4194 99.5641 84.1844 97.7608C84.9236 96.0203 85.9803 94.4572 87.3276 93.1145C88.6748 91.7719 90.2433 90.7187 91.9897 89.9821C93.7992 89.2197 95.7199 88.8329 97.7 88.8329C98.2488 88.8329 98.6937 89.2763 98.6937 89.8232C98.6937 90.3701 98.2488 90.8136 97.7 90.8136C90.7068 90.8136 85.0187 96.4835 85.0187 103.452C85.0187 103.999 84.5738 104.442 84.025 104.442Z" fill="#FFDF9A"/>
<path d="M94.9376 124.684C94.9376 125.112 95.2855 125.456 95.711 125.456C96.1364 125.456 96.4843 125.112 96.4843 124.684V108.211C96.4843 107.783 96.1364 107.439 95.711 107.439C95.2855 107.439 94.9376 107.783 94.9376 108.211V124.684Z" fill="black" stroke="black" stroke-width="0.95098"/>
<path d="M98.919 124.684C98.919 125.112 99.2669 125.456 99.6924 125.456C100.118 125.456 100.466 125.112 100.466 124.684V108.211C100.466 107.783 100.118 107.439 99.6924 107.439C99.2669 107.439 98.919 107.783 98.919 108.211V124.684Z" fill="black" stroke="black" stroke-width="0.95098"/>
<path d="M99.6918 108.984H99.985L99.9863 108.981H102.47C104.386 108.981 105.948 107.429 105.948 105.514V105.354C105.948 103.44 104.386 101.886 102.47 101.886C101.56 101.886 100.696 102.236 100.043 102.87C99.3889 103.505 99.0157 104.357 98.9927 105.266C98.9927 105.267 98.9927 105.267 98.9927 105.267L98.9377 107.438H96.4852V105.392C96.4852 103.457 94.9075 101.887 92.9705 101.887C91.0334 101.887 89.4557 103.457 89.4557 105.392V105.479C89.4557 107.414 91.0334 108.984 92.9705 108.984H99.6918ZM94.9385 107.44H92.9705C91.8843 107.44 91.0024 106.559 91.0024 105.481V105.393C91.0024 104.338 91.8465 103.472 92.9002 103.435H92.9705C94.0566 103.435 94.9385 104.316 94.9385 105.394V107.44ZM102.469 107.439H100.485L100.539 105.308C100.566 104.255 101.4 103.433 102.469 103.433C103.535 103.433 104.4 104.297 104.4 105.356V105.516C104.4 106.575 103.535 107.439 102.469 107.439Z" fill="black" stroke="black" stroke-width="0.95098"/>
<path d="M93.7612 138.683H101.639V139.343C101.639 139.781 101.283 140.135 100.845 140.135H94.556C94.1172 140.135 93.7612 139.781 93.7612 139.343V138.683Z" fill="#2C2334"/>
<path d="M107.439 126.351V124.925H106.012H89.3894H89.3882H87.9617V126.351V132.426C87.9617 135.405 90.386 137.814 93.3631 137.814H102.037C105.014 137.814 107.439 135.405 107.439 132.426V126.351Z" fill="#C5BA13" stroke="black" stroke-width="2.85294"/>
<path d="M106.012 128.345H89.3892V128.742H106.012V128.345Z" fill="#2C2334"/>
<path d="M106.012 130.306H89.3892V130.703H106.012V130.306Z" fill="#2C2334"/>
<path d="M106.012 132.269H89.3892V132.665H106.012V132.269Z" fill="#2C2334"/>
<path d="M97.7007 71.0255V80.0742" stroke="black" stroke-width="5.23039" stroke-miterlimit="10"/>
<path d="M72.0205 81.6265L78.4415 88.0256" stroke="black" stroke-width="5.23039" stroke-miterlimit="10"/>
<path d="M116.961 126.414L123.382 132.813" stroke="black" stroke-width="5.23039" stroke-miterlimit="10"/>
<path d="M61.3833 107.221H70.4629" stroke="black" stroke-width="5.23039" stroke-miterlimit="10"/>
<path d="M124.939 107.221H134.019" stroke="black" stroke-width="5.23039" stroke-miterlimit="10"/>
<path d="M72.0205 132.813L78.4415 126.414" stroke="black" stroke-width="5.23039" stroke-miterlimit="10"/>
<path d="M116.962 88.0256L123.383 81.6265" stroke="black" stroke-width="5.23039" stroke-miterlimit="10"/>
<path d="M282.5 288.401V281.216H283.315V288.401H282.5Z" fill="#16C1C1" stroke="black" stroke-width="3"/>
<path d="M286.317 288.401V281.216H287.133V288.401H286.317Z" fill="#108E8D" stroke="black" stroke-width="3"/>
<path d="M291.471 281.242L290.472 288.401H290.468H290.463H290.457H290.452H290.447H290.441H290.436H290.43H290.425H290.42H290.414H290.409H290.403H290.398H290.392H290.387H290.382H290.376H290.371H290.365H290.36H290.355H290.349H290.344H290.338H290.333H290.328H290.322H290.317H290.312H290.306H290.301H290.295H290.29H290.285H290.279H290.274H290.268H290.263H290.258H290.252H290.247H290.242H290.236H290.231H290.226H290.22H290.215H290.209H290.204H290.199H290.193H290.188H290.183H290.177H290.172H290.167H290.161H290.156H290.151H290.145H290.14H290.135H290.133V281.216H290.134H290.14H290.146H290.152H290.158H290.164H290.169H290.175H290.181H290.187H290.193H290.199H290.205H290.211H290.217H290.223H290.228H290.234H290.24H290.246H290.252H290.258H290.264H290.27H290.276H290.282H290.288H290.294H290.3H290.306H290.312H290.318H290.324H290.33H290.336H290.342H290.348H290.354H290.36H290.366H290.372H290.378H290.384H290.39H290.396H290.402H290.408H290.414H290.42H290.426H290.432H290.438H290.444H290.45H290.456H290.462H290.468H290.474H290.481H290.487H290.493H290.499H290.505H290.511H290.517H290.523H290.529H290.535H290.541H290.547H290.554H290.56H290.566H290.572H290.578H290.584H290.59H290.596H290.602H290.609H290.615H290.621H290.627H290.633H290.639H290.64C290.924 281.225 291.205 281.234 291.471 281.242Z" fill="#16C1C1" stroke="black" stroke-width="3"/>
<path d="M295.539 281.563C295.733 281.585 295.928 281.607 296.116 281.629L293.566 287.915L294.469 281.444C294.805 281.48 295.172 281.521 295.539 281.563Z" fill="#108E8D" stroke="black" stroke-width="3"/>
<path d="M296.811 287.905L299.147 282.146C299.509 282.227 299.917 282.318 300.324 282.411C300.407 282.43 300.491 282.449 300.574 282.468L296.811 287.905Z" fill="#16C1C1" stroke="black" stroke-width="3"/>
<path d="M304.859 283.774L300.367 288.171L303.704 283.349C304.048 283.464 304.436 283.603 304.812 283.755C304.828 283.761 304.843 283.768 304.859 283.774ZM302.694 283.035C302.694 283.035 302.694 283.035 302.694 283.035L302.694 283.035Z" fill="#108E8D" stroke="black" stroke-width="3"/>
<path d="M304.213 288.562L307.822 285.03C308.083 285.16 308.374 285.308 308.664 285.461L304.213 288.562Z" fill="#16C1C1" stroke="black" stroke-width="3"/>
<path d="M307.952 289.615L311.451 287.178C311.629 287.307 311.823 287.449 312.022 287.594L307.952 289.615Z" fill="#108E8D" stroke="black" stroke-width="3"/>
<path d="M314.545 289.687C314.656 289.799 314.774 289.919 314.895 290.041L311.459 291.219L314.545 289.687Z" fill="#16C1C1" stroke="black" stroke-width="3"/>
<mask id="path-71-inside-9_794_11353" fill="white">
<path d="M304.874 296.949C304.874 296.949 304.628 296.541 304.444 296.175C304.197 295.808 303.89 295.401 303.89 295.401L317.551 290.715C317.551 290.715 319.644 293.812 319.521 293.852L304.874 296.949Z"/>
</mask>
<path d="M304.874 296.949C304.874 296.949 304.628 296.541 304.444 296.175C304.197 295.808 303.89 295.401 303.89 295.401L317.551 290.715C317.551 290.715 319.644 293.812 319.521 293.852L304.874 296.949Z" fill="#108E8D"/>
<path d="M304.874 296.949L302.307 298.5L303.409 300.325L305.495 299.884L304.874 296.949ZM304.444 296.175L307.123 294.825L307.039 294.658L306.934 294.502L304.444 296.175ZM303.89 295.401L302.916 292.563L299.001 293.906L301.496 297.209L303.89 295.401ZM317.551 290.715L320.037 289.036L318.751 287.133L316.578 287.878L317.551 290.715ZM319.521 293.852L320.141 296.788L320.305 296.753L320.463 296.7L319.521 293.852ZM304.874 296.949C307.442 295.397 307.442 295.397 307.442 295.397C307.442 295.397 307.442 295.397 307.442 295.398C307.442 295.398 307.442 295.398 307.442 295.398C307.442 295.398 307.443 295.398 307.443 295.398C307.443 295.399 307.443 295.399 307.443 295.399C307.443 295.399 307.443 295.399 307.442 295.398C307.442 295.397 307.44 295.394 307.438 295.39C307.433 295.383 307.426 295.37 307.416 295.353C307.395 295.318 307.366 295.268 307.331 295.208C307.258 295.081 307.181 294.94 307.123 294.825L301.764 297.524C301.891 297.776 302.029 298.022 302.125 298.191C302.175 298.278 302.219 298.352 302.25 298.406C302.266 298.433 302.279 298.454 302.289 298.47C302.294 298.478 302.297 298.485 302.3 298.49C302.302 298.492 302.303 298.495 302.304 298.496C302.305 298.497 302.305 298.498 302.306 298.498C302.306 298.499 302.306 298.499 302.306 298.499C302.306 298.5 302.306 298.5 302.306 298.5C302.306 298.5 302.306 298.5 302.306 298.5C302.307 298.5 302.307 298.5 304.874 296.949ZM306.934 294.502C306.78 294.273 306.616 294.044 306.498 293.882C306.438 293.799 306.386 293.729 306.348 293.679C306.329 293.653 306.314 293.633 306.303 293.618C306.298 293.611 306.293 293.605 306.29 293.601C306.288 293.599 306.287 293.597 306.286 293.596C306.285 293.595 306.285 293.594 306.285 293.594C306.284 293.593 306.284 293.593 306.284 293.593C306.284 293.593 306.284 293.593 306.284 293.593C306.284 293.593 306.284 293.593 306.284 293.593C306.284 293.593 306.284 293.592 303.89 295.401C301.496 297.209 301.496 297.209 301.496 297.208C301.496 297.208 301.496 297.208 301.496 297.208C301.495 297.208 301.495 297.208 301.495 297.208C301.495 297.208 301.495 297.208 301.495 297.208C301.495 297.208 301.495 297.208 301.495 297.208C301.495 297.208 301.496 297.209 301.496 297.21C301.498 297.211 301.5 297.215 301.504 297.219C301.51 297.228 301.521 297.242 301.535 297.261C301.563 297.299 301.603 297.353 301.65 297.418C301.748 297.551 301.861 297.71 301.953 297.847L306.934 294.502ZM304.863 298.238L318.525 293.553L316.578 287.878L302.916 292.563L304.863 298.238ZM317.551 290.715C315.066 292.395 315.066 292.395 315.066 292.395C315.066 292.395 315.066 292.395 315.066 292.395C315.066 292.395 315.066 292.395 315.066 292.395C315.066 292.396 315.066 292.396 315.067 292.397C315.068 292.398 315.069 292.4 315.071 292.403C315.075 292.408 315.08 292.416 315.087 292.427C315.102 292.449 315.124 292.481 315.151 292.522C315.207 292.605 315.286 292.723 315.382 292.866C315.572 293.151 315.823 293.53 316.069 293.906C316.319 294.29 316.546 294.646 316.697 294.897C316.779 295.032 316.806 295.083 316.802 295.075C316.799 295.069 316.786 295.044 316.77 295.007C316.756 294.977 316.72 294.897 316.682 294.786C316.662 294.729 316.634 294.639 316.606 294.526C316.582 294.423 316.542 294.233 316.53 293.988C316.523 293.862 316.523 293.69 316.547 293.488C316.571 293.289 316.624 293.018 316.747 292.716C316.873 292.407 317.079 292.05 317.409 291.722C317.748 291.386 318.151 291.146 318.578 291.004L320.463 296.7C321.421 296.384 322.023 295.669 322.303 294.98C322.538 294.405 322.533 293.907 322.522 293.691C322.5 293.25 322.384 292.916 322.356 292.835C322.275 292.599 322.177 292.407 322.141 292.337C322.046 292.151 321.929 291.954 321.833 291.794C321.626 291.452 321.354 291.026 321.096 290.631C320.834 290.228 320.569 289.83 320.371 289.534C320.272 289.386 320.189 289.262 320.131 289.175C320.102 289.131 320.078 289.097 320.062 289.073C320.054 289.061 320.048 289.052 320.044 289.046C320.042 289.043 320.04 289.04 320.039 289.039C320.039 289.038 320.038 289.037 320.038 289.037C320.038 289.036 320.037 289.036 320.037 289.036C320.037 289.036 320.037 289.036 320.037 289.036C320.037 289.036 320.037 289.036 317.551 290.715ZM318.9 290.917L304.254 294.014L305.495 299.884L320.141 296.788L318.9 290.917Z" fill="black" mask="url(#path-71-inside-9_794_11353)"/>
<path d="M318.562 295.589C318.591 295.669 318.62 295.75 318.65 295.832L316.428 296.04L318.562 295.589Z" fill="#16C1C1" stroke="black" stroke-width="3"/>
<path d="M317.938 298.952L319.313 298.823C319.318 298.866 319.323 298.909 319.328 298.952H317.938Z" fill="#108E8D" stroke="black" stroke-width="3"/>
<mask id="path-75-inside-10_794_11353" fill="white">
<path d="M321 300.412H305.615V302.937H321V300.412Z"/>
</mask>
<path d="M321 300.412H305.615V302.937H321V300.412Z" fill="#16C1C1"/>
<path d="M305.615 300.412V297.412H302.615V300.412H305.615ZM321 300.412H324V297.412H321V300.412ZM321 302.937V305.937H324V302.937H321ZM305.615 302.937H302.615V305.937H305.615V302.937ZM305.615 303.412H321V297.412H305.615V303.412ZM318 300.412V302.937H324V300.412H318ZM321 299.937H305.615V305.937H321V299.937ZM308.615 302.937V300.412H302.615V302.937H308.615Z" fill="black" mask="url(#path-75-inside-10_794_11353)"/>
<mask id="path-77-inside-11_794_11353" fill="white">
<path d="M321 302.937H305.615V305.463H321V302.937Z"/>
</mask>
<path d="M321 302.937H305.615V305.463H321V302.937Z" fill="#108E8D"/>
<path d="M305.615 302.937V299.937H302.615V302.937H305.615ZM321 302.937H324V299.937H321V302.937ZM321 305.463V308.463H324V305.463H321ZM305.615 305.463H302.615V308.463H305.615V305.463ZM305.615 305.937H321V299.937H305.615V305.937ZM318 302.937V305.463H324V302.937H318ZM321 302.463H305.615V308.463H321V302.463ZM308.615 305.463V302.937H302.615V305.463H308.615Z" fill="black" mask="url(#path-77-inside-11_794_11353)"/>
<mask id="path-79-inside-12_794_11353" fill="white">
<path d="M321 305.463H305.615V307.989H321V305.463Z"/>
</mask>
<path d="M321 305.463H305.615V307.989H321V305.463Z" fill="#16C1C1"/>
<path d="M305.615 305.463V302.463H302.615V305.463H305.615ZM321 305.463H324V302.463H321V305.463ZM321 307.989V310.989H324V307.989H321ZM305.615 307.989H302.615V310.989H305.615V307.989ZM305.615 308.463H321V302.463H305.615V308.463ZM318 305.463V307.989H324V305.463H318ZM321 304.989H305.615V310.989H321V304.989ZM308.615 307.989V305.463H302.615V307.989H308.615Z" fill="black" mask="url(#path-79-inside-12_794_11353)"/>
<mask id="path-81-inside-13_794_11353" fill="white">
<path d="M321 307.989H305.615V310.515H321V307.989Z"/>
</mask>
<path d="M321 307.989H305.615V310.515H321V307.989Z" fill="#108E8D"/>
<path d="M305.615 307.989V304.989H302.615V307.989H305.615ZM321 307.989H324V304.989H321V307.989ZM321 310.515V313.515H324V310.515H321ZM305.615 310.515H302.615V313.515H305.615V310.515ZM305.615 310.989H321V304.989H305.615V310.989ZM318 307.989V310.515H324V307.989H318ZM321 307.515H305.615V313.515H321V307.515ZM308.615 310.515V307.989H302.615V310.515H308.615Z" fill="black" mask="url(#path-81-inside-13_794_11353)"/>
<mask id="path-83-inside-14_794_11353" fill="white">
<path d="M321 310.556H305.615V313.082H321V310.556Z"/>
</mask>
<path d="M321 310.556H305.615V313.082H321V310.556Z" fill="#16C1C1"/>
<path d="M305.615 310.556V307.556H302.615V310.556H305.615ZM321 310.556H324V307.556H321V310.556ZM321 313.082V316.082H324V313.082H321ZM305.615 313.082H302.615V316.082H305.615V313.082ZM305.615 313.556H321V307.556H305.615V313.556ZM318 310.556V313.082H324V310.556H318ZM321 310.082H305.615V316.082H321V310.082ZM308.615 313.082V310.556H302.615V313.082H308.615Z" fill="black" mask="url(#path-83-inside-14_794_11353)"/>
<mask id="path-85-inside-15_794_11353" fill="white">
<path d="M321 313.082H305.615V315.608H321V313.082Z"/>
</mask>
<path d="M321 313.082H305.615V315.608H321V313.082Z" fill="#108E8D"/>
<path d="M305.615 313.082V310.082H302.615V313.082H305.615ZM321 313.082H324V310.082H321V313.082ZM321 315.608V318.608H324V315.608H321ZM305.615 315.608H302.615V318.608H305.615V315.608ZM305.615 316.082H321V310.082H305.615V316.082ZM318 313.082V315.608H324V313.082H318ZM321 312.608H305.615V318.608H321V312.608ZM308.615 315.608V313.082H302.615V315.608H308.615Z" fill="black" mask="url(#path-85-inside-15_794_11353)"/>
<mask id="path-87-inside-16_794_11353" fill="white">
<path d="M321 315.608H305.615V318.134H321V315.608Z"/>
</mask>
<path d="M321 315.608H305.615V318.134H321V315.608Z" fill="#16C1C1"/>
<path d="M305.615 315.608V312.608H302.615V315.608H305.615ZM321 315.608H324V312.608H321V315.608ZM321 318.134V321.134H324V318.134H321ZM305.615 318.134H302.615V321.134H305.615V318.134ZM305.615 318.608H321V312.608H305.615V318.608ZM318 315.608V318.134H324V315.608H318ZM321 315.134H305.615V321.134H321V315.134ZM308.615 318.134V315.608H302.615V318.134H308.615Z" fill="black" mask="url(#path-87-inside-16_794_11353)"/>
<mask id="path-89-inside-17_794_11353" fill="white">
<path d="M321 318.134H305.615V320.66H321V318.134Z"/>
</mask>
<path d="M321 318.134H305.615V320.66H321V318.134Z" fill="#108E8D"/>
<path d="M305.615 318.134V315.134H302.615V318.134H305.615ZM321 318.134H324V315.134H321V318.134ZM321 320.66V323.66H324V320.66H321ZM305.615 320.66H302.615V323.66H305.615V320.66ZM305.615 321.134H321V315.134H305.615V321.134ZM318 318.134V320.66H324V318.134H318ZM321 317.66H305.615V323.66H321V317.66ZM308.615 320.66V318.134H302.615V320.66H308.615Z" fill="black" mask="url(#path-89-inside-17_794_11353)"/>
<mask id="path-91-inside-18_794_11353" fill="white">
<path d="M321 320.701H305.615V323.227H321V320.701Z"/>
</mask>
<path d="M321 320.701H305.615V323.227H321V320.701Z" fill="#16C1C1"/>
<path d="M305.615 320.701V317.701H302.615V320.701H305.615ZM321 320.701H324V317.701H321V320.701ZM321 323.227V326.227H324V323.227H321ZM305.615 323.227H302.615V326.227H305.615V323.227ZM305.615 323.701H321V317.701H305.615V323.701ZM318 320.701V323.227H324V320.701H318ZM321 320.227H305.615V326.227H321V320.227ZM308.615 323.227V320.701H302.615V323.227H308.615Z" fill="black" mask="url(#path-91-inside-18_794_11353)"/>
<mask id="path-93-inside-19_794_11353" fill="white">
<path d="M321 323.227H305.615V325.753H321V323.227Z"/>
</mask>
<path d="M321 323.227H305.615V325.753H321V323.227Z" fill="#108E8D"/>
<path d="M305.615 323.227V320.227H302.615V323.227H305.615ZM321 323.227H324V320.227H321V323.227ZM321 325.753V328.753H324V325.753H321ZM305.615 325.753H302.615V328.753H305.615V325.753ZM305.615 326.227H321V320.227H305.615V326.227ZM318 323.227V325.753H324V323.227H318ZM321 322.753H305.615V328.753H321V322.753ZM308.615 325.753V323.227H302.615V325.753H308.615Z" fill="black" mask="url(#path-93-inside-19_794_11353)"/>
<mask id="path-95-inside-20_794_11353" fill="white">
<path d="M321 325.752H305.615V328.278H321V325.752Z"/>
</mask>
<path d="M321 325.752H305.615V328.278H321V325.752Z" fill="#16C1C1"/>
<path d="M305.615 325.752V322.752H302.615V325.752H305.615ZM321 325.752H324V322.752H321V325.752ZM321 328.278V331.278H324V328.278H321ZM305.615 328.278H302.615V331.278H305.615V328.278ZM305.615 328.752H321V322.752H305.615V328.752ZM318 325.752V328.278H324V325.752H318ZM321 325.278H305.615V331.278H321V325.278ZM308.615 328.278V325.752H302.615V328.278H308.615Z" fill="black" mask="url(#path-95-inside-20_794_11353)"/>
<mask id="path-97-inside-21_794_11353" fill="white">
<path d="M321 328.278H305.615V330.804H321V328.278Z"/>
</mask>
<path d="M321 328.278H305.615V330.804H321V328.278Z" fill="#108E8D"/>
<path d="M305.615 328.278V325.278H302.615V328.278H305.615ZM321 328.278H324V325.278H321V328.278ZM321 330.804V333.804H324V330.804H321ZM305.615 330.804H302.615V333.804H305.615V330.804ZM305.615 331.278H321V325.278H305.615V331.278ZM318 328.278V330.804H324V328.278H318ZM321 327.804H305.615V333.804H321V327.804ZM308.615 330.804V328.278H302.615V330.804H308.615Z" fill="black" mask="url(#path-97-inside-21_794_11353)"/>
<mask id="path-99-inside-22_794_11353" fill="white">
<path d="M321 330.845H305.615V333.371H321V330.845Z"/>
</mask>
<path d="M321 330.845H305.615V333.371H321V330.845Z" fill="#16C1C1"/>
<path d="M305.615 330.845V327.845H302.615V330.845H305.615ZM321 330.845H324V327.845H321V330.845ZM321 333.371V336.371H324V333.371H321ZM305.615 333.371H302.615V336.371H305.615V333.371ZM305.615 333.845H321V327.845H305.615V333.845ZM318 330.845V333.371H324V330.845H318ZM321 330.371H305.615V336.371H321V330.371ZM308.615 333.371V330.845H302.615V333.371H308.615Z" fill="black" mask="url(#path-99-inside-22_794_11353)"/>
<mask id="path-101-inside-23_794_11353" fill="white">
<path d="M321 333.371H305.615V335.897H321V333.371Z"/>
</mask>
<path d="M321 333.371H305.615V335.897H321V333.371Z" fill="#108E8D"/>
<path d="M305.615 333.371V330.371H302.615V333.371H305.615ZM321 333.371H324V330.371H321V333.371ZM321 335.897V338.897H324V335.897H321ZM305.615 335.897H302.615V338.897H305.615V335.897ZM305.615 336.371H321V330.371H305.615V336.371ZM318 333.371V335.897H324V333.371H318ZM321 332.897H305.615V338.897H321V332.897ZM308.615 335.897V333.371H302.615V335.897H308.615Z" fill="black" mask="url(#path-101-inside-23_794_11353)"/>
<mask id="path-103-inside-24_794_11353" fill="white">
<path d="M321 335.897H305.615V338.423H321V335.897Z"/>
</mask>
<path d="M321 335.897H305.615V338.423H321V335.897Z" fill="#16C1C1"/>
<path d="M305.615 335.897V332.897H302.615V335.897H305.615ZM321 335.897H324V332.897H321V335.897ZM321 338.423V341.423H324V338.423H321ZM305.615 338.423H302.615V341.423H305.615V338.423ZM305.615 338.897H321V332.897H305.615V338.897ZM318 335.897V338.423H324V335.897H318ZM321 335.423H305.615V341.423H321V335.423ZM308.615 338.423V335.897H302.615V338.423H308.615Z" fill="black" mask="url(#path-103-inside-24_794_11353)"/>
<mask id="path-105-inside-25_794_11353" fill="white">
<path d="M321 338.423H305.615V340.948H321V338.423Z"/>
</mask>
<path d="M321 338.423H305.615V340.948H321V338.423Z" fill="#108E8D"/>
<path d="M305.615 338.423V335.423H302.615V338.423H305.615ZM321 338.423H324V335.423H321V338.423ZM321 340.948V343.948H324V340.948H321ZM305.615 340.948H302.615V343.948H305.615V340.948ZM305.615 341.423H321V335.423H305.615V341.423ZM318 338.423V340.948H324V338.423H318ZM321 337.948H305.615V343.948H321V337.948ZM308.615 340.948V338.423H302.615V340.948H308.615Z" fill="black" mask="url(#path-105-inside-25_794_11353)"/>
<mask id="path-107-inside-26_794_11353" fill="white">
<path d="M321 340.989H305.615V343.515H321V340.989Z"/>
</mask>
<path d="M321 340.989H305.615V343.515H321V340.989Z" fill="#16C1C1"/>
<path d="M305.615 340.989V337.989H302.615V340.989H305.615ZM321 340.989H324V337.989H321V340.989ZM321 343.515V346.515H324V343.515H321ZM305.615 343.515H302.615V346.515H305.615V343.515ZM305.615 343.989H321V337.989H305.615V343.989ZM318 340.989V343.515H324V340.989H318ZM321 340.515H305.615V346.515H321V340.515ZM308.615 343.515V340.989H302.615V343.515H308.615Z" fill="black" mask="url(#path-107-inside-26_794_11353)"/>
<mask id="path-109-inside-27_794_11353" fill="white">
<path d="M321 343.515H305.615V346.041H321V343.515Z"/>
</mask>
<path d="M321 343.515H305.615V346.041H321V343.515Z" fill="#108E8D"/>
<path d="M305.615 343.515V340.515H302.615V343.515H305.615ZM321 343.515H324V340.515H321V343.515ZM321 346.041V349.041H324V346.041H321ZM305.615 346.041H302.615V349.041H305.615V346.041ZM305.615 346.515H321V340.515H305.615V346.515ZM318 343.515V346.041H324V343.515H318ZM321 343.041H305.615V349.041H321V343.041ZM308.615 346.041V343.515H302.615V346.041H308.615Z" fill="black" mask="url(#path-109-inside-27_794_11353)"/>
<mask id="path-111-inside-28_794_11353" fill="white">
<path d="M321 346.041H305.615V348.567H321V346.041Z"/>
</mask>
<path d="M321 346.041H305.615V348.567H321V346.041Z" fill="#16C1C1"/>
<path d="M305.615 346.041V343.041H302.615V346.041H305.615ZM321 346.041H324V343.041H321V346.041ZM321 348.567V351.567H324V348.567H321ZM305.615 348.567H302.615V351.567H305.615V348.567ZM305.615 349.041H321V343.041H305.615V349.041ZM318 346.041V348.567H324V346.041H318ZM321 345.567H305.615V351.567H321V345.567ZM308.615 348.567V346.041H302.615V348.567H308.615Z" fill="black" mask="url(#path-111-inside-28_794_11353)"/>
<mask id="path-113-inside-29_794_11353" fill="white">
<path d="M321 348.567H305.615V351.093H321V348.567Z"/>
</mask>
<path d="M321 348.567H305.615V351.093H321V348.567Z" fill="#108E8D"/>
<path d="M305.615 348.567V345.567H302.615V348.567H305.615ZM321 348.567H324V345.567H321V348.567ZM321 351.093V354.093H324V351.093H321ZM305.615 351.093H302.615V354.093H305.615V351.093ZM305.615 351.567H321V345.567H305.615V351.567ZM318 348.567V351.093H324V348.567H318ZM321 348.093H305.615V354.093H321V348.093ZM308.615 351.093V348.567H302.615V351.093H308.615Z" fill="black" mask="url(#path-113-inside-29_794_11353)"/>
<mask id="path-115-inside-30_794_11353" fill="white">
<path d="M321 351.133H305.615V353.659H321V351.133Z"/>
</mask>
<path d="M321 351.133H305.615V353.659H321V351.133Z" fill="#16C1C1"/>
<path d="M305.615 351.133V348.133H302.615V351.133H305.615ZM321 351.133H324V348.133H321V351.133ZM321 353.659V356.659H324V353.659H321ZM305.615 353.659H302.615V356.659H305.615V353.659ZM305.615 354.133H321V348.133H305.615V354.133ZM318 351.133V353.659H324V351.133H318ZM321 350.659H305.615V356.659H321V350.659ZM308.615 353.659V351.133H302.615V353.659H308.615Z" fill="black" mask="url(#path-115-inside-30_794_11353)"/>
<mask id="path-117-inside-31_794_11353" fill="white">
<path d="M321 353.659H305.615V356.185H321V353.659Z"/>
</mask>
<path d="M321 353.659H305.615V356.185H321V353.659Z" fill="#108E8D"/>
<path d="M305.615 353.659V350.659H302.615V353.659H305.615ZM321 353.659H324V350.659H321V353.659ZM321 356.185V359.185H324V356.185H321ZM305.615 356.185H302.615V359.185H305.615V356.185ZM305.615 356.659H321V350.659H305.615V356.659ZM318 353.659V356.185H324V353.659H318ZM321 353.185H305.615V359.185H321V353.185ZM308.615 356.185V353.659H302.615V356.185H308.615Z" fill="black" mask="url(#path-117-inside-31_794_11353)"/>
<mask id="path-119-inside-32_794_11353" fill="white">
<path d="M321 356.185H305.615V358.711H321V356.185Z"/>
</mask>
<path d="M321 356.185H305.615V358.711H321V356.185Z" fill="#16C1C1"/>
<path d="M305.615 356.185V353.185H302.615V356.185H305.615ZM321 356.185H324V353.185H321V356.185ZM321 358.711V361.711H324V358.711H321ZM305.615 358.711H302.615V361.711H305.615V358.711ZM305.615 359.185H321V353.185H305.615V359.185ZM318 356.185V358.711H324V356.185H318ZM321 355.711H305.615V361.711H321V355.711ZM308.615 358.711V356.185H302.615V358.711H308.615Z" fill="black" mask="url(#path-119-inside-32_794_11353)"/>
<mask id="path-121-inside-33_794_11353" fill="white">
<path d="M321 358.711H305.615V361.237H321V358.711Z"/>
</mask>
<path d="M321 358.711H305.615V361.237H321V358.711Z" fill="#108E8D"/>
<path d="M305.615 358.711V355.711H302.615V358.711H305.615ZM321 358.711H324V355.711H321V358.711ZM321 361.237V364.237H324V361.237H321ZM305.615 361.237H302.615V364.237H305.615V361.237ZM305.615 361.711H321V355.711H305.615V361.711ZM318 358.711V361.237H324V358.711H318ZM321 358.237H305.615V364.237H321V358.237ZM308.615 361.237V358.711H302.615V361.237H308.615Z" fill="black" mask="url(#path-121-inside-33_794_11353)"/>
<mask id="path-123-inside-34_794_11353" fill="white">
<path d="M321 361.278H305.615V363.804H321V361.278Z"/>
</mask>
<path d="M321 361.278H305.615V363.804H321V361.278Z" fill="#16C1C1"/>
<path d="M305.615 361.278V358.278H302.615V361.278H305.615ZM321 361.278H324V358.278H321V361.278ZM321 363.804V366.804H324V363.804H321ZM305.615 363.804H302.615V366.804H305.615V363.804ZM305.615 364.278H321V358.278H305.615V364.278ZM318 361.278V363.804H324V361.278H318ZM321 360.804H305.615V366.804H321V360.804ZM308.615 363.804V361.278H302.615V363.804H308.615Z" fill="black" mask="url(#path-123-inside-34_794_11353)"/>
<mask id="path-125-inside-35_794_11353" fill="white">
<path d="M321 363.804H305.615V366.33H321V363.804Z"/>
</mask>
<path d="M321 363.804H305.615V366.33H321V363.804Z" fill="#108E8D"/>
<path d="M305.615 363.804V360.804H302.615V363.804H305.615ZM321 363.804H324V360.804H321V363.804ZM321 366.33V369.33H324V366.33H321ZM305.615 366.33H302.615V369.33H305.615V366.33ZM305.615 366.804H321V360.804H305.615V366.804ZM318 363.804V366.33H324V363.804H318ZM321 363.33H305.615V369.33H321V363.33ZM308.615 366.33V363.804H302.615V366.33H308.615Z" fill="black" mask="url(#path-125-inside-35_794_11353)"/>
<mask id="path-127-inside-36_794_11353" fill="white">
<path d="M321 366.329H305.615V368.855H321V366.329Z"/>
</mask>
<path d="M321 366.329H305.615V368.855H321V366.329Z" fill="#16C1C1"/>
<path d="M305.615 366.329V363.329H302.615V366.329H305.615ZM321 366.329H324V363.329H321V366.329ZM321 368.855V371.855H324V368.855H321ZM305.615 368.855H302.615V371.855H305.615V368.855ZM305.615 369.329H321V363.329H305.615V369.329ZM318 366.329V368.855H324V366.329H318ZM321 365.855H305.615V371.855H321V365.855ZM308.615 368.855V366.329H302.615V368.855H308.615Z" fill="black" mask="url(#path-127-inside-36_794_11353)"/>
<mask id="path-129-inside-37_794_11353" fill="white">
<path d="M321 368.855H305.615V371.381H321V368.855Z"/>
</mask>
<path d="M321 368.855H305.615V371.381H321V368.855Z" fill="#108E8D"/>
<path d="M305.615 368.855V365.855H302.615V368.855H305.615ZM321 368.855H324V365.855H321V368.855ZM321 371.381V374.381H324V371.381H321ZM305.615 371.381H302.615V374.381H305.615V371.381ZM305.615 371.855H321V365.855H305.615V371.855ZM318 368.855V371.381H324V368.855H318ZM321 368.381H305.615V374.381H321V368.381ZM308.615 371.381V368.855H302.615V371.381H308.615Z" fill="black" mask="url(#path-129-inside-37_794_11353)"/>
<mask id="path-131-inside-38_794_11353" fill="white">
<path d="M321 371.381H305.615V373.907H321V371.381Z"/>
</mask>
<path d="M321 371.381H305.615V373.907H321V371.381Z" fill="#16C1C1"/>
<path d="M305.615 371.381V368.381H302.615V371.381H305.615ZM321 371.381H324V368.381H321V371.381ZM321 373.907V376.907H324V373.907H321ZM305.615 373.907H302.615V376.907H305.615V373.907ZM305.615 374.381H321V368.381H305.615V374.381ZM318 371.381V373.907H324V371.381H318ZM321 370.907H305.615V376.907H321V370.907ZM308.615 373.907V371.381H302.615V373.907H308.615Z" fill="black" mask="url(#path-131-inside-38_794_11353)"/>
<mask id="path-133-inside-39_794_11353" fill="white">
<path d="M321 373.948H305.615V376.474H321V373.948Z"/>
</mask>
<path d="M321 373.948H305.615V376.474H321V373.948Z" fill="#108E8D"/>
<path d="M305.615 373.948V370.948H302.615V373.948H305.615ZM321 373.948H324V370.948H321V373.948ZM321 376.474V379.474H324V376.474H321ZM305.615 376.474H302.615V379.474H305.615V376.474ZM305.615 376.948H321V370.948H305.615V376.948ZM318 373.948V376.474H324V373.948H318ZM321 373.474H305.615V379.474H321V373.474ZM308.615 376.474V373.948H302.615V376.474H308.615Z" fill="black" mask="url(#path-133-inside-39_794_11353)"/>
<path d="M295.535 282.504H293.161V292.053H295.535V282.504Z" fill="#16C1C1"/>
<path d="M297.911 282.504H295.537V292.053H297.911V282.504Z" fill="#108E8D"/>
<path d="M299.864 292.091C299.864 292.091 299.481 292.091 299.06 292.053C298.486 292.053 297.911 292.053 297.911 292.053V282.504C297.911 282.504 298.524 282.504 299.175 282.504C299.979 282.542 300.745 282.58 300.745 282.58L299.864 292.091Z" fill="#16C1C1"/>
<path d="M301.433 292.397L299.863 292.091L300.744 282.58C300.744 282.58 303.884 283.077 303.884 283.153L301.395 292.397H301.433Z" fill="#108E8D"/>
<path d="M302.89 292.932C302.89 292.932 301.396 292.359 301.396 292.397L303.886 283.153C303.886 283.153 306.911 284.146 306.872 284.223L302.89 292.894V292.932Z" fill="#16C1C1"/>
<path d="M304.308 293.696C304.308 293.696 302.93 292.894 302.93 292.932L306.912 284.261C306.912 284.261 307.64 284.567 308.329 284.987C309.018 285.407 309.669 285.827 309.669 285.827L304.308 293.734V293.696Z" fill="#108E8D"/>
<path d="M305.532 294.689L304.307 293.696L309.668 285.789C309.668 285.789 310.319 286.247 310.931 286.744C311.544 287.24 312.118 287.775 312.118 287.775L305.532 294.689Z" fill="#16C1C1"/>
<path d="M306.567 295.873C306.567 295.873 305.571 294.651 305.533 294.689L312.12 287.775C312.12 287.775 314.264 290.105 314.226 290.143L306.567 295.873Z" fill="#108E8D"/>
<path d="M307.406 297.21C307.406 297.21 306.602 295.873 306.563 295.873L314.222 290.143C314.222 290.143 315.984 292.779 315.907 292.817L307.406 297.21Z" fill="#16C1C1"/>
<path d="M308.018 298.661C308.018 298.661 307.865 298.279 307.75 297.935C307.597 297.592 307.405 297.21 307.405 297.21L315.906 292.817C315.906 292.817 317.208 295.72 317.132 295.758L308.018 298.661Z" fill="#108E8D"/>
<path d="M308.364 300.189L308.02 298.661L317.133 295.758C317.133 295.758 317.899 298.852 317.823 298.852L308.364 300.189Z" fill="#16C1C1"/>
<path d="M308.479 301.908C308.479 301.679 308.403 300.265 308.364 300.227L317.823 298.89C317.823 298.89 318.091 302.137 318.014 301.946H308.441L308.479 301.908Z" fill="#108E8D"/>
<path d="M318.052 301.908H308.479V304.276H318.052V301.908Z" fill="#16C1C1"/>
<path d="M318.052 304.276H308.479V306.645H318.052V304.276Z" fill="#108E8D"/>
<path d="M318.052 306.644H308.479V309.013H318.052V306.644Z" fill="#16C1C1"/>
<path d="M318.052 309.013H308.479V311.381H318.052V309.013Z" fill="#108E8D"/>
<path d="M318.052 311.419H308.479V313.788H318.052V311.419Z" fill="#16C1C1"/>
<path d="M318.052 313.788H308.479V316.156H318.052V313.788Z" fill="#108E8D"/>
<path d="M318.052 316.156H308.479V318.525H318.052V316.156Z" fill="#16C1C1"/>
<path d="M318.052 318.525H308.479V320.893H318.052V318.525Z" fill="#108E8D"/>
<path d="M318.052 320.931H308.479V323.299H318.052V320.931Z" fill="#16C1C1"/>
<path d="M318.052 323.299H308.479V325.668H318.052V323.299Z" fill="#108E8D"/>
<path d="M318.052 325.667H308.479V328.036H318.052V325.667Z" fill="#16C1C1"/>
<path d="M318.052 328.036H308.479V330.404H318.052V328.036Z" fill="#108E8D"/>
<path d="M318.052 330.442H308.479V332.81H318.052V330.442Z" fill="#16C1C1"/>
<path d="M318.052 332.81H308.479V335.179H318.052V332.81Z" fill="#108E8D"/>
<path d="M318.052 335.179H308.479V337.547H318.052V335.179Z" fill="#16C1C1"/>
<path d="M318.052 337.547H308.479V339.915H318.052V337.547Z" fill="#108E8D"/>
<path d="M318.052 339.953H308.479V342.322H318.052V339.953Z" fill="#16C1C1"/>
<path d="M318.052 342.322H308.479V344.69H318.052V342.322Z" fill="#108E8D"/>
<path d="M318.052 344.69H308.479V347.058H318.052V344.69Z" fill="#16C1C1"/>
<path d="M318.052 347.058H308.479V349.426H318.052V347.058Z" fill="#108E8D"/>
<path d="M318.052 349.465H308.479V351.833H318.052V349.465Z" fill="#16C1C1"/>
<path d="M318.052 351.833H308.479V354.201H318.052V351.833Z" fill="#108E8D"/>
<path d="M318.052 354.201H308.479V356.569H318.052V354.201Z" fill="#16C1C1"/>
<path d="M318.052 356.57H308.479V358.938H318.052V356.57Z" fill="#108E8D"/>
<path d="M318.052 358.976H308.479V361.344H318.052V358.976Z" fill="#16C1C1"/>
<path d="M318.052 361.344H308.479V363.713H318.052V361.344Z" fill="#108E8D"/>
<path d="M318.052 363.712H308.479V366.081H318.052V363.712Z" fill="#16C1C1"/>
<path d="M318.052 366.081H308.479V368.449H318.052V366.081Z" fill="#108E8D"/>
<path d="M318.052 368.449H308.479V370.817H318.052V368.449Z" fill="#16C1C1"/>
<path d="M318.052 370.855H308.479V373.224H318.052V370.855Z" fill="#108E8D"/>
<path d="M303.232 376.814H323.336V368.143H303.232V376.814Z" fill="#231F20"/>
<path d="M178.5 288.401V281.216H177.685V288.401H178.5Z" fill="#16C1C1" stroke="black" stroke-width="3"/>
<path d="M174.683 288.401V281.216H173.867V288.401H174.683Z" fill="#108E8D" stroke="black" stroke-width="3"/>
<path d="M169.529 281.242L170.528 288.401H170.532H170.537H170.543H170.548H170.553H170.559H170.564H170.57H170.575H170.58H170.586H170.591H170.597H170.602H170.608H170.613H170.618H170.624H170.629H170.635H170.64H170.645H170.651H170.656H170.662H170.667H170.672H170.678H170.683H170.688H170.694H170.699H170.705H170.71H170.715H170.721H170.726H170.732H170.737H170.742H170.748H170.753H170.758H170.764H170.769H170.774H170.78H170.785H170.791H170.796H170.801H170.807H170.812H170.817H170.823H170.828H170.833H170.839H170.844H170.849H170.855H170.86H170.865H170.867V281.216H170.866H170.86H170.854H170.848H170.842H170.836H170.831H170.825H170.819H170.813H170.807H170.801H170.795H170.789H170.783H170.777H170.772H170.766H170.76H170.754H170.748H170.742H170.736H170.73H170.724H170.718H170.712H170.706H170.7H170.694H170.688H170.682H170.676H170.67H170.664H170.658H170.652H170.646H170.64H170.634H170.628H170.622H170.616H170.61H170.604H170.598H170.592H170.586H170.58H170.574H170.568H170.562H170.556H170.55H170.544H170.538H170.532H170.526H170.519H170.513H170.507H170.501H170.495H170.489H170.483H170.477H170.471H170.465H170.459H170.453H170.446H170.44H170.434H170.428H170.422H170.416H170.41H170.404H170.398H170.391H170.385H170.379H170.373H170.367H170.361H170.36C170.076 281.225 169.795 281.234 169.529 281.242Z" fill="#16C1C1" stroke="black" stroke-width="3"/>
<path d="M165.461 281.563C165.267 281.585 165.072 281.607 164.884 281.629L167.434 287.915L166.531 281.444C166.195 281.48 165.828 281.521 165.461 281.563Z" fill="#108E8D" stroke="black" stroke-width="3"/>
<path d="M164.189 287.905L161.853 282.146C161.491 282.227 161.083 282.318 160.676 282.411C160.593 282.43 160.509 282.449 160.426 282.468L164.189 287.905Z" fill="#16C1C1" stroke="black" stroke-width="3"/>
<path d="M156.141 283.774L160.633 288.171L157.296 283.349C156.952 283.464 156.564 283.603 156.188 283.755C156.172 283.761 156.157 283.768 156.141 283.774ZM158.306 283.035C158.306 283.035 158.306 283.035 158.306 283.035L158.306 283.035Z" fill="#108E8D" stroke="black" stroke-width="3"/>
<path d="M156.787 288.562L153.178 285.03C152.917 285.16 152.626 285.308 152.336 285.461L156.787 288.562Z" fill="#16C1C1" stroke="black" stroke-width="3"/>
<path d="M153.048 289.615L149.549 287.178C149.371 287.307 149.177 287.449 148.978 287.594L153.048 289.615Z" fill="#108E8D" stroke="black" stroke-width="3"/>
<path d="M146.455 289.687C146.344 289.799 146.226 289.919 146.105 290.041L149.541 291.219L146.455 289.687Z" fill="#16C1C1" stroke="black" stroke-width="3"/>
<mask id="path-187-inside-40_794_11353" fill="white">
<path d="M156.126 296.949C156.126 296.949 156.372 296.541 156.556 296.175C156.803 295.808 157.11 295.401 157.11 295.401L143.449 290.715C143.449 290.715 141.356 293.812 141.479 293.852L156.126 296.949Z"/>
</mask>
<path d="M156.126 296.949C156.126 296.949 156.372 296.541 156.556 296.175C156.803 295.808 157.11 295.401 157.11 295.401L143.449 290.715C143.449 290.715 141.356 293.812 141.479 293.852L156.126 296.949Z" fill="#108E8D"/>
<path d="M156.126 296.949L158.693 298.5L157.591 300.325L155.505 299.884L156.126 296.949ZM156.556 296.175L153.877 294.825L153.961 294.658L154.066 294.502L156.556 296.175ZM157.11 295.401L158.084 292.563L161.999 293.906L159.504 297.209L157.11 295.401ZM143.449 290.715L140.963 289.036L142.249 287.133L144.422 287.878L143.449 290.715ZM141.479 293.852L140.859 296.788L140.695 296.753L140.537 296.7L141.479 293.852ZM156.126 296.949C153.558 295.397 153.558 295.397 153.558 295.397C153.558 295.397 153.558 295.397 153.558 295.398C153.558 295.398 153.558 295.398 153.558 295.398C153.558 295.398 153.557 295.398 153.557 295.398C153.557 295.399 153.557 295.399 153.557 295.399C153.557 295.399 153.557 295.399 153.558 295.398C153.558 295.397 153.56 295.394 153.562 295.39C153.567 295.383 153.574 295.37 153.584 295.353C153.605 295.318 153.634 295.268 153.669 295.208C153.742 295.081 153.819 294.94 153.877 294.825L159.236 297.524C159.109 297.776 158.971 298.022 158.875 298.191C158.825 298.278 158.781 298.352 158.75 298.406C158.734 298.433 158.721 298.454 158.711 298.47C158.706 298.478 158.703 298.485 158.7 298.49C158.698 298.492 158.697 298.495 158.696 298.496C158.695 298.497 158.695 298.498 158.694 298.498C158.694 298.499 158.694 298.499 158.694 298.499C158.694 298.5 158.694 298.5 158.694 298.5C158.694 298.5 158.694 298.5 158.694 298.5C158.693 298.5 158.693 298.5 156.126 296.949ZM154.066 294.502C154.22 294.273 154.384 294.044 154.502 293.882C154.562 293.799 154.614 293.729 154.652 293.679C154.671 293.653 154.686 293.633 154.697 293.618C154.702 293.611 154.707 293.605 154.71 293.601C154.712 293.599 154.713 293.597 154.714 293.596C154.715 293.595 154.715 293.594 154.715 293.594C154.716 293.593 154.716 293.593 154.716 293.593C154.716 293.593 154.716 293.593 154.716 293.593C154.716 293.593 154.716 293.593 154.716 293.593C154.716 293.593 154.716 293.592 157.11 295.401C159.504 297.209 159.504 297.209 159.504 297.208C159.504 297.208 159.504 297.208 159.504 297.208C159.505 297.208 159.505 297.208 159.505 297.208C159.505 297.208 159.505 297.208 159.505 297.208C159.505 297.208 159.505 297.208 159.505 297.208C159.505 297.208 159.504 297.209 159.504 297.21C159.502 297.211 159.5 297.215 159.496 297.219C159.49 297.228 159.479 297.242 159.465 297.261C159.437 297.299 159.397 297.353 159.35 297.418C159.252 297.551 159.139 297.71 159.047 297.847L154.066 294.502ZM156.137 298.238L142.475 293.553L144.422 287.878L158.084 292.563L156.137 298.238ZM143.449 290.715C145.934 292.395 145.934 292.395 145.934 292.395C145.934 292.395 145.934 292.395 145.934 292.395C145.934 292.395 145.934 292.395 145.934 292.395C145.934 292.396 145.934 292.396 145.933 292.397C145.932 292.398 145.931 292.4 145.929 292.403C145.925 292.408 145.92 292.416 145.913 292.427C145.898 292.449 145.876 292.481 145.849 292.522C145.793 292.605 145.714 292.723 145.618 292.866C145.428 293.151 145.177 293.53 144.931 293.906C144.681 294.29 144.454 294.646 144.303 294.897C144.221 295.032 144.194 295.083 144.198 295.075C144.201 295.069 144.214 295.044 144.23 295.007C144.244 294.977 144.28 294.897 144.318 294.786C144.338 294.729 144.366 294.639 144.394 294.526C144.418 294.423 144.458 294.233 144.47 293.988C144.477 293.862 144.477 293.69 144.453 293.488C144.429 293.289 144.376 293.018 144.253 292.716C144.127 292.407 143.921 292.05 143.591 291.722C143.252 291.386 142.849 291.146 142.422 291.004L140.537 296.7C139.579 296.384 138.977 295.669 138.697 294.98C138.462 294.405 138.467 293.907 138.478 293.691C138.5 293.25 138.616 292.916 138.644 292.835C138.725 292.599 138.823 292.407 138.859 292.337C138.954 292.151 139.071 291.954 139.167 291.794C139.374 291.452 139.646 291.026 139.904 290.631C140.166 290.228 140.431 289.83 140.629 289.534C140.728 289.386 140.811 289.262 140.869 289.175C140.898 289.131 140.922 289.097 140.938 289.073C140.946 289.061 140.952 289.052 140.956 289.046C140.958 289.043 140.96 289.04 140.961 289.039C140.961 289.038 140.962 289.037 140.962 289.037C140.962 289.036 140.963 289.036 140.963 289.036C140.963 289.036 140.963 289.036 140.963 289.036C140.963 289.036 140.963 289.036 143.449 290.715ZM142.1 290.917L156.746 294.014L155.505 299.884L140.859 296.788L142.1 290.917Z" fill="black" mask="url(#path-187-inside-40_794_11353)"/>
<path d="M142.438 295.589C142.409 295.669 142.38 295.75 142.35 295.832L144.572 296.04L142.438 295.589Z" fill="#16C1C1" stroke="black" stroke-width="3"/>
<path d="M143.062 298.952L141.687 298.823C141.682 298.866 141.677 298.909 141.672 298.952H143.062Z" fill="#108E8D" stroke="black" stroke-width="3"/>
<mask id="path-191-inside-41_794_11353" fill="white">
<path d="M140 300.412H155.385V302.937H140V300.412Z"/>
</mask>
<path d="M140 300.412H155.385V302.937H140V300.412Z" fill="#16C1C1"/>
<path d="M155.385 300.412V297.412H158.385V300.412H155.385ZM140 300.412H137V297.412H140V300.412ZM140 302.937V305.937H137V302.937H140ZM155.385 302.937H158.385V305.937H155.385V302.937ZM155.385 303.412H140V297.412H155.385V303.412ZM143 300.412V302.937H137V300.412H143ZM140 299.937H155.385V305.937H140V299.937ZM152.385 302.937V300.412H158.385V302.937H152.385Z" fill="black" mask="url(#path-191-inside-41_794_11353)"/>
<mask id="path-193-inside-42_794_11353" fill="white">
<path d="M140 302.937H155.385V305.463H140V302.937Z"/>
</mask>
<path d="M140 302.937H155.385V305.463H140V302.937Z" fill="#108E8D"/>
<path d="M155.385 302.937V299.937H158.385V302.937H155.385ZM140 302.937H137V299.937H140V302.937ZM140 305.463V308.463H137V305.463H140ZM155.385 305.463H158.385V308.463H155.385V305.463ZM155.385 305.937H140V299.937H155.385V305.937ZM143 302.937V305.463H137V302.937H143ZM140 302.463H155.385V308.463H140V302.463ZM152.385 305.463V302.937H158.385V305.463H152.385Z" fill="black" mask="url(#path-193-inside-42_794_11353)"/>
<mask id="path-195-inside-43_794_11353" fill="white">
<path d="M140 305.463H155.385V307.989H140V305.463Z"/>
</mask>
<path d="M140 305.463H155.385V307.989H140V305.463Z" fill="#16C1C1"/>
<path d="M155.385 305.463V302.463H158.385V305.463H155.385ZM140 305.463H137V302.463H140V305.463ZM140 307.989V310.989H137V307.989H140ZM155.385 307.989H158.385V310.989H155.385V307.989ZM155.385 308.463H140V302.463H155.385V308.463ZM143 305.463V307.989H137V305.463H143ZM140 304.989H155.385V310.989H140V304.989ZM152.385 307.989V305.463H158.385V307.989H152.385Z" fill="black" mask="url(#path-195-inside-43_794_11353)"/>
<mask id="path-197-inside-44_794_11353" fill="white">
<path d="M140 307.989H155.385V310.515H140V307.989Z"/>
</mask>
<path d="M140 307.989H155.385V310.515H140V307.989Z" fill="#108E8D"/>
<path d="M155.385 307.989V304.989H158.385V307.989H155.385ZM140 307.989H137V304.989H140V307.989ZM140 310.515V313.515H137V310.515H140ZM155.385 310.515H158.385V313.515H155.385V310.515ZM155.385 310.989H140V304.989H155.385V310.989ZM143 307.989V310.515H137V307.989H143ZM140 307.515H155.385V313.515H140V307.515ZM152.385 310.515V307.989H158.385V310.515H152.385Z" fill="black" mask="url(#path-197-inside-44_794_11353)"/>
<mask id="path-199-inside-45_794_11353" fill="white">
<path d="M140 310.556H155.385V313.082H140V310.556Z"/>
</mask>
<path d="M140 310.556H155.385V313.082H140V310.556Z" fill="#16C1C1"/>
<path d="M155.385 310.556V307.556H158.385V310.556H155.385ZM140 310.556H137V307.556H140V310.556ZM140 313.082V316.082H137V313.082H140ZM155.385 313.082H158.385V316.082H155.385V313.082ZM155.385 313.556H140V307.556H155.385V313.556ZM143 310.556V313.082H137V310.556H143ZM140 310.082H155.385V316.082H140V310.082ZM152.385 313.082V310.556H158.385V313.082H152.385Z" fill="black" mask="url(#path-199-inside-45_794_11353)"/>
<mask id="path-201-inside-46_794_11353" fill="white">
<path d="M140 313.082H155.385V315.608H140V313.082Z"/>
</mask>
<path d="M140 313.082H155.385V315.608H140V313.082Z" fill="#108E8D"/>
<path d="M155.385 313.082V310.082H158.385V313.082H155.385ZM140 313.082H137V310.082H140V313.082ZM140 315.608V318.608H137V315.608H140ZM155.385 315.608H158.385V318.608H155.385V315.608ZM155.385 316.082H140V310.082H155.385V316.082ZM143 313.082V315.608H137V313.082H143ZM140 312.608H155.385V318.608H140V312.608ZM152.385 315.608V313.082H158.385V315.608H152.385Z" fill="black" mask="url(#path-201-inside-46_794_11353)"/>
<mask id="path-203-inside-47_794_11353" fill="white">
<path d="M140 315.608H155.385V318.134H140V315.608Z"/>
</mask>
<path d="M140 315.608H155.385V318.134H140V315.608Z" fill="#16C1C1"/>
<path d="M155.385 315.608V312.608H158.385V315.608H155.385ZM140 315.608H137V312.608H140V315.608ZM140 318.134V321.134H137V318.134H140ZM155.385 318.134H158.385V321.134H155.385V318.134ZM155.385 318.608H140V312.608H155.385V318.608ZM143 315.608V318.134H137V315.608H143ZM140 315.134H155.385V321.134H140V315.134ZM152.385 318.134V315.608H158.385V318.134H152.385Z" fill="black" mask="url(#path-203-inside-47_794_11353)"/>
<mask id="path-205-inside-48_794_11353" fill="white">
<path d="M140 318.134H155.385V320.66H140V318.134Z"/>
</mask>
<path d="M140 318.134H155.385V320.66H140V318.134Z" fill="#108E8D"/>
<path d="M155.385 318.134V315.134H158.385V318.134H155.385ZM140 318.134H137V315.134H140V318.134ZM140 320.66V323.66H137V320.66H140ZM155.385 320.66H158.385V323.66H155.385V320.66ZM155.385 321.134H140V315.134H155.385V321.134ZM143 318.134V320.66H137V318.134H143ZM140 317.66H155.385V323.66H140V317.66ZM152.385 320.66V318.134H158.385V320.66H152.385Z" fill="black" mask="url(#path-205-inside-48_794_11353)"/>
<mask id="path-207-inside-49_794_11353" fill="white">
<path d="M140 320.701H155.385V323.227H140V320.701Z"/>
</mask>
<path d="M140 320.701H155.385V323.227H140V320.701Z" fill="#16C1C1"/>
<path d="M155.385 320.701V317.701H158.385V320.701H155.385ZM140 320.701H137V317.701H140V320.701ZM140 323.227V326.227H137V323.227H140ZM155.385 323.227H158.385V326.227H155.385V323.227ZM155.385 323.701H140V317.701H155.385V323.701ZM143 320.701V323.227H137V320.701H143ZM140 320.227H155.385V326.227H140V320.227ZM152.385 323.227V320.701H158.385V323.227H152.385Z" fill="black" mask="url(#path-207-inside-49_794_11353)"/>
<mask id="path-209-inside-50_794_11353" fill="white">
<path d="M140 323.227H155.385V325.753H140V323.227Z"/>
</mask>
<path d="M140 323.227H155.385V325.753H140V323.227Z" fill="#108E8D"/>
<path d="M155.385 323.227V320.227H158.385V323.227H155.385ZM140 323.227H137V320.227H140V323.227ZM140 325.753V328.753H137V325.753H140ZM155.385 325.753H158.385V328.753H155.385V325.753ZM155.385 326.227H140V320.227H155.385V326.227ZM143 323.227V325.753H137V323.227H143ZM140 322.753H155.385V328.753H140V322.753ZM152.385 325.753V323.227H158.385V325.753H152.385Z" fill="black" mask="url(#path-209-inside-50_794_11353)"/>
<mask id="path-211-inside-51_794_11353" fill="white">
<path d="M140 325.752H155.385V328.278H140V325.752Z"/>
</mask>
<path d="M140 325.752H155.385V328.278H140V325.752Z" fill="#16C1C1"/>
<path d="M155.385 325.752V322.752H158.385V325.752H155.385ZM140 325.752H137V322.752H140V325.752ZM140 328.278V331.278H137V328.278H140ZM155.385 328.278H158.385V331.278H155.385V328.278ZM155.385 328.752H140V322.752H155.385V328.752ZM143 325.752V328.278H137V325.752H143ZM140 325.278H155.385V331.278H140V325.278ZM152.385 328.278V325.752H158.385V328.278H152.385Z" fill="black" mask="url(#path-211-inside-51_794_11353)"/>
<mask id="path-213-inside-52_794_11353" fill="white">
<path d="M140 328.278H155.385V330.804H140V328.278Z"/>
</mask>
<path d="M140 328.278H155.385V330.804H140V328.278Z" fill="#108E8D"/>
<path d="M155.385 328.278V325.278H158.385V328.278H155.385ZM140 328.278H137V325.278H140V328.278ZM140 330.804V333.804H137V330.804H140ZM155.385 330.804H158.385V333.804H155.385V330.804ZM155.385 331.278H140V325.278H155.385V331.278ZM143 328.278V330.804H137V328.278H143ZM140 327.804H155.385V333.804H140V327.804ZM152.385 330.804V328.278H158.385V330.804H152.385Z" fill="black" mask="url(#path-213-inside-52_794_11353)"/>
<mask id="path-215-inside-53_794_11353" fill="white">
<path d="M140 330.845H155.385V333.371H140V330.845Z"/>
</mask>
<path d="M140 330.845H155.385V333.371H140V330.845Z" fill="#16C1C1"/>
<path d="M155.385 330.845V327.845H158.385V330.845H155.385ZM140 330.845H137V327.845H140V330.845ZM140 333.371V336.371H137V333.371H140ZM155.385 333.371H158.385V336.371H155.385V333.371ZM155.385 333.845H140V327.845H155.385V333.845ZM143 330.845V333.371H137V330.845H143ZM140 330.371H155.385V336.371H140V330.371ZM152.385 333.371V330.845H158.385V333.371H152.385Z" fill="black" mask="url(#path-215-inside-53_794_11353)"/>
<mask id="path-217-inside-54_794_11353" fill="white">
<path d="M140 333.371H155.385V335.897H140V333.371Z"/>
</mask>
<path d="M140 333.371H155.385V335.897H140V333.371Z" fill="#108E8D"/>
<path d="M155.385 333.371V330.371H158.385V333.371H155.385ZM140 333.371H137V330.371H140V333.371ZM140 335.897V338.897H137V335.897H140ZM155.385 335.897H158.385V338.897H155.385V335.897ZM155.385 336.371H140V330.371H155.385V336.371ZM143 333.371V335.897H137V333.371H143ZM140 332.897H155.385V338.897H140V332.897ZM152.385 335.897V333.371H158.385V335.897H152.385Z" fill="black" mask="url(#path-217-inside-54_794_11353)"/>
<mask id="path-219-inside-55_794_11353" fill="white">
<path d="M140 335.897H155.385V338.423H140V335.897Z"/>
</mask>
<path d="M140 335.897H155.385V338.423H140V335.897Z" fill="#16C1C1"/>
<path d="M155.385 335.897V332.897H158.385V335.897H155.385ZM140 335.897H137V332.897H140V335.897ZM140 338.423V341.423H137V338.423H140ZM155.385 338.423H158.385V341.423H155.385V338.423ZM155.385 338.897H140V332.897H155.385V338.897ZM143 335.897V338.423H137V335.897H143ZM140 335.423H155.385V341.423H140V335.423ZM152.385 338.423V335.897H158.385V338.423H152.385Z" fill="black" mask="url(#path-219-inside-55_794_11353)"/>
<mask id="path-221-inside-56_794_11353" fill="white">
<path d="M140 338.423H155.385V340.948H140V338.423Z"/>
</mask>
<path d="M140 338.423H155.385V340.948H140V338.423Z" fill="#108E8D"/>
<path d="M155.385 338.423V335.423H158.385V338.423H155.385ZM140 338.423H137V335.423H140V338.423ZM140 340.948V343.948H137V340.948H140ZM155.385 340.948H158.385V343.948H155.385V340.948ZM155.385 341.423H140V335.423H155.385V341.423ZM143 338.423V340.948H137V338.423H143ZM140 337.948H155.385V343.948H140V337.948ZM152.385 340.948V338.423H158.385V340.948H152.385Z" fill="black" mask="url(#path-221-inside-56_794_11353)"/>
<mask id="path-223-inside-57_794_11353" fill="white">
<path d="M140 340.989H155.385V343.515H140V340.989Z"/>
</mask>
<path d="M140 340.989H155.385V343.515H140V340.989Z" fill="#16C1C1"/>
<path d="M155.385 340.989V337.989H158.385V340.989H155.385ZM140 340.989H137V337.989H140V340.989ZM140 343.515V346.515H137V343.515H140ZM155.385 343.515H158.385V346.515H155.385V343.515ZM155.385 343.989H140V337.989H155.385V343.989ZM143 340.989V343.515H137V340.989H143ZM140 340.515H155.385V346.515H140V340.515ZM152.385 343.515V340.989H158.385V343.515H152.385Z" fill="black" mask="url(#path-223-inside-57_794_11353)"/>
<mask id="path-225-inside-58_794_11353" fill="white">
<path d="M140 343.515H155.385V346.041H140V343.515Z"/>
</mask>
<path d="M140 343.515H155.385V346.041H140V343.515Z" fill="#108E8D"/>
<path d="M155.385 343.515V340.515H158.385V343.515H155.385ZM140 343.515H137V340.515H140V343.515ZM140 346.041V349.041H137V346.041H140ZM155.385 346.041H158.385V349.041H155.385V346.041ZM155.385 346.515H140V340.515H155.385V346.515ZM143 343.515V346.041H137V343.515H143ZM140 343.041H155.385V349.041H140V343.041ZM152.385 346.041V343.515H158.385V346.041H152.385Z" fill="black" mask="url(#path-225-inside-58_794_11353)"/>
<mask id="path-227-inside-59_794_11353" fill="white">
<path d="M140 346.041H155.385V348.567H140V346.041Z"/>
</mask>
<path d="M140 346.041H155.385V348.567H140V346.041Z" fill="#16C1C1"/>
<path d="M155.385 346.041V343.041H158.385V346.041H155.385ZM140 346.041H137V343.041H140V346.041ZM140 348.567V351.567H137V348.567H140ZM155.385 348.567H158.385V351.567H155.385V348.567ZM155.385 349.041H140V343.041H155.385V349.041ZM143 346.041V348.567H137V346.041H143ZM140 345.567H155.385V351.567H140V345.567ZM152.385 348.567V346.041H158.385V348.567H152.385Z" fill="black" mask="url(#path-227-inside-59_794_11353)"/>
<mask id="path-229-inside-60_794_11353" fill="white">
<path d="M140 348.567H155.385V351.093H140V348.567Z"/>
</mask>
<path d="M140 348.567H155.385V351.093H140V348.567Z" fill="#108E8D"/>
<path d="M155.385 348.567V345.567H158.385V348.567H155.385ZM140 348.567H137V345.567H140V348.567ZM140 351.093V354.093H137V351.093H140ZM155.385 351.093H158.385V354.093H155.385V351.093ZM155.385 351.567H140V345.567H155.385V351.567ZM143 348.567V351.093H137V348.567H143ZM140 348.093H155.385V354.093H140V348.093ZM152.385 351.093V348.567H158.385V351.093H152.385Z" fill="black" mask="url(#path-229-inside-60_794_11353)"/>
<mask id="path-231-inside-61_794_11353" fill="white">
<path d="M140 351.133H155.385V353.659H140V351.133Z"/>
</mask>
<path d="M140 351.133H155.385V353.659H140V351.133Z" fill="#16C1C1"/>
<path d="M155.385 351.133V348.133H158.385V351.133H155.385ZM140 351.133H137V348.133H140V351.133ZM140 353.659V356.659H137V353.659H140ZM155.385 353.659H158.385V356.659H155.385V353.659ZM155.385 354.133H140V348.133H155.385V354.133ZM143 351.133V353.659H137V351.133H143ZM140 350.659H155.385V356.659H140V350.659ZM152.385 353.659V351.133H158.385V353.659H152.385Z" fill="black" mask="url(#path-231-inside-61_794_11353)"/>
<mask id="path-233-inside-62_794_11353" fill="white">
<path d="M140 353.659H155.385V356.185H140V353.659Z"/>
</mask>
<path d="M140 353.659H155.385V356.185H140V353.659Z" fill="#108E8D"/>
<path d="M155.385 353.659V350.659H158.385V353.659H155.385ZM140 353.659H137V350.659H140V353.659ZM140 356.185V359.185H137V356.185H140ZM155.385 356.185H158.385V359.185H155.385V356.185ZM155.385 356.659H140V350.659H155.385V356.659ZM143 353.659V356.185H137V353.659H143ZM140 353.185H155.385V359.185H140V353.185ZM152.385 356.185V353.659H158.385V356.185H152.385Z" fill="black" mask="url(#path-233-inside-62_794_11353)"/>
<mask id="path-235-inside-63_794_11353" fill="white">
<path d="M140 356.185H155.385V358.711H140V356.185Z"/>
</mask>
<path d="M140 356.185H155.385V358.711H140V356.185Z" fill="#16C1C1"/>
<path d="M155.385 356.185V353.185H158.385V356.185H155.385ZM140 356.185H137V353.185H140V356.185ZM140 358.711V361.711H137V358.711H140ZM155.385 358.711H158.385V361.711H155.385V358.711ZM155.385 359.185H140V353.185H155.385V359.185ZM143 356.185V358.711H137V356.185H143ZM140 355.711H155.385V361.711H140V355.711ZM152.385 358.711V356.185H158.385V358.711H152.385Z" fill="black" mask="url(#path-235-inside-63_794_11353)"/>
<mask id="path-237-inside-64_794_11353" fill="white">
<path d="M140 358.711H155.385V361.237H140V358.711Z"/>
</mask>
<path d="M140 358.711H155.385V361.237H140V358.711Z" fill="#108E8D"/>
<path d="M155.385 358.711V355.711H158.385V358.711H155.385ZM140 358.711H137V355.711H140V358.711ZM140 361.237V364.237H137V361.237H140ZM155.385 361.237H158.385V364.237H155.385V361.237ZM155.385 361.711H140V355.711H155.385V361.711ZM143 358.711V361.237H137V358.711H143ZM140 358.237H155.385V364.237H140V358.237ZM152.385 361.237V358.711H158.385V361.237H152.385Z" fill="black" mask="url(#path-237-inside-64_794_11353)"/>
<mask id="path-239-inside-65_794_11353" fill="white">
<path d="M140 361.278H155.385V363.804H140V361.278Z"/>
</mask>
<path d="M140 361.278H155.385V363.804H140V361.278Z" fill="#16C1C1"/>
<path d="M155.385 361.278V358.278H158.385V361.278H155.385ZM140 361.278H137V358.278H140V361.278ZM140 363.804V366.804H137V363.804H140ZM155.385 363.804H158.385V366.804H155.385V363.804ZM155.385 364.278H140V358.278H155.385V364.278ZM143 361.278V363.804H137V361.278H143ZM140 360.804H155.385V366.804H140V360.804ZM152.385 363.804V361.278H158.385V363.804H152.385Z" fill="black" mask="url(#path-239-inside-65_794_11353)"/>
<mask id="path-241-inside-66_794_11353" fill="white">
<path d="M140 363.804H155.385V366.33H140V363.804Z"/>
</mask>
<path d="M140 363.804H155.385V366.33H140V363.804Z" fill="#108E8D"/>
<path d="M155.385 363.804V360.804H158.385V363.804H155.385ZM140 363.804H137V360.804H140V363.804ZM140 366.33V369.33H137V366.33H140ZM155.385 366.33H158.385V369.33H155.385V366.33ZM155.385 366.804H140V360.804H155.385V366.804ZM143 363.804V366.33H137V363.804H143ZM140 363.33H155.385V369.33H140V363.33ZM152.385 366.33V363.804H158.385V366.33H152.385Z" fill="black" mask="url(#path-241-inside-66_794_11353)"/>
<mask id="path-243-inside-67_794_11353" fill="white">
<path d="M140 366.329H155.385V368.855H140V366.329Z"/>
</mask>
<path d="M140 366.329H155.385V368.855H140V366.329Z" fill="#16C1C1"/>
<path d="M155.385 366.329V363.329H158.385V366.329H155.385ZM140 366.329H137V363.329H140V366.329ZM140 368.855V371.855H137V368.855H140ZM155.385 368.855H158.385V371.855H155.385V368.855ZM155.385 369.329H140V363.329H155.385V369.329ZM143 366.329V368.855H137V366.329H143ZM140 365.855H155.385V371.855H140V365.855ZM152.385 368.855V366.329H158.385V368.855H152.385Z" fill="black" mask="url(#path-243-inside-67_794_11353)"/>
<mask id="path-245-inside-68_794_11353" fill="white">
<path d="M140 368.855H155.385V371.381H140V368.855Z"/>
</mask>
<path d="M140 368.855H155.385V371.381H140V368.855Z" fill="#108E8D"/>
<path d="M155.385 368.855V365.855H158.385V368.855H155.385ZM140 368.855H137V365.855H140V368.855ZM140 371.381V374.381H137V371.381H140ZM155.385 371.381H158.385V374.381H155.385V371.381ZM155.385 371.855H140V365.855H155.385V371.855ZM143 368.855V371.381H137V368.855H143ZM140 368.381H155.385V374.381H140V368.381ZM152.385 371.381V368.855H158.385V371.381H152.385Z" fill="black" mask="url(#path-245-inside-68_794_11353)"/>
<mask id="path-247-inside-69_794_11353" fill="white">
<path d="M140 371.381H155.385V373.907H140V371.381Z"/>
</mask>
<path d="M140 371.381H155.385V373.907H140V371.381Z" fill="#16C1C1"/>
<path d="M155.385 371.381V368.381H158.385V371.381H155.385ZM140 371.381H137V368.381H140V371.381ZM140 373.907V376.907H137V373.907H140ZM155.385 373.907H158.385V376.907H155.385V373.907ZM155.385 374.381H140V368.381H155.385V374.381ZM143 371.381V373.907H137V371.381H143ZM140 370.907H155.385V376.907H140V370.907ZM152.385 373.907V371.381H158.385V373.907H152.385Z" fill="black" mask="url(#path-247-inside-69_794_11353)"/>
<mask id="path-249-inside-70_794_11353" fill="white">
<path d="M140 373.948H155.385V376.474H140V373.948Z"/>
</mask>
<path d="M140 373.948H155.385V376.474H140V373.948Z" fill="#108E8D"/>
<path d="M155.385 373.948V370.948H158.385V373.948H155.385ZM140 373.948H137V370.948H140V373.948ZM140 376.474V379.474H137V376.474H140ZM155.385 376.474H158.385V379.474H155.385V376.474ZM155.385 376.948H140V370.948H155.385V376.948ZM143 373.948V376.474H137V373.948H143ZM140 373.474H155.385V379.474H140V373.474ZM152.385 376.474V373.948H158.385V376.474H152.385Z" fill="black" mask="url(#path-249-inside-70_794_11353)"/>
<path d="M167.142 282.503H164.768V292.053H167.142V282.503Z" fill="#16C1C1"/>
<path d="M164.767 282.504H162.393V292.053H164.767V282.504Z" fill="#108E8D"/>
<path d="M159.558 282.58C159.558 282.58 160.362 282.542 161.128 282.504C161.74 282.504 162.391 282.504 162.391 282.504V292.053C162.391 292.053 161.817 292.053 161.243 292.053C160.86 292.053 160.438 292.091 160.438 292.091L159.558 282.58Z" fill="#16C1C1"/>
<path d="M156.417 283.153C156.417 283.153 159.519 282.503 159.557 282.58L160.438 292.091C160.438 292.091 158.868 292.359 158.868 292.397L156.379 283.153H156.417Z" fill="#108E8D"/>
<path d="M153.427 284.223C153.427 284.223 156.414 283.077 156.414 283.153L158.903 292.397C158.903 292.397 157.409 292.893 157.409 292.932L153.427 284.261V284.223Z" fill="#16C1C1"/>
<path d="M150.672 285.789L152.012 284.949C152.701 284.567 153.429 284.223 153.429 284.223L157.412 292.894L156.033 293.658L150.672 285.751V285.789Z" fill="#108E8D"/>
<path d="M148.183 287.775C148.183 287.775 148.757 287.24 149.37 286.743C150.021 286.285 150.634 285.788 150.634 285.788L155.995 293.695C155.995 293.695 154.731 294.65 154.769 294.689L148.145 287.775H148.183Z" fill="#16C1C1"/>
<path d="M146.076 290.143C146.076 290.143 148.106 287.698 148.182 287.775L154.807 294.689L153.773 295.873L146.114 290.143H146.076Z" fill="#108E8D"/>
<path d="M144.396 292.817C144.396 292.817 146.042 290.105 146.08 290.143L153.739 295.873C153.739 295.873 152.858 297.172 152.897 297.21L144.396 292.817Z" fill="#16C1C1"/>
<path d="M143.168 295.758C143.168 295.758 144.317 292.817 144.393 292.817L152.894 297.21C152.894 297.21 152.741 297.554 152.55 297.936C152.397 298.318 152.282 298.661 152.282 298.661L143.168 295.758Z" fill="#108E8D"/>
<path d="M142.479 298.852C142.479 298.852 143.13 295.758 143.168 295.758L152.282 298.661C152.282 298.661 151.899 300.189 151.937 300.189L142.479 298.852Z" fill="#16C1C1"/>
<path d="M142.287 301.908C142.249 302.137 142.402 298.814 142.479 298.852L151.937 300.189C151.937 300.189 151.822 301.679 151.822 301.87H142.287V301.908Z" fill="#108E8D"/>
<path d="M151.862 301.908H142.289V304.276H151.862V301.908Z" fill="#16C1C1"/>
<path d="M151.862 304.276H142.289V306.644H151.862V304.276Z" fill="#108E8D"/>
<path d="M151.862 306.644H142.289V309.013H151.862V306.644Z" fill="#16C1C1"/>
<path d="M151.862 309.013H142.289V311.381H151.862V309.013Z" fill="#108E8D"/>
<path d="M151.862 311.419H142.289V313.787H151.862V311.419Z" fill="#16C1C1"/>
<path d="M151.862 313.787H142.289V316.156H151.862V313.787Z" fill="#108E8D"/>
<path d="M151.862 316.156H142.289V318.524H151.862V316.156Z" fill="#16C1C1"/>
<path d="M151.862 318.524H142.289V320.893H151.862V318.524Z" fill="#108E8D"/>
<path d="M151.862 320.931H142.289V323.299H151.862V320.931Z" fill="#16C1C1"/>
<path d="M151.862 323.299H142.289V325.667H151.862V323.299Z" fill="#108E8D"/>
<path d="M151.862 325.667H142.289V328.036H151.862V325.667Z" fill="#16C1C1"/>
<path d="M151.862 328.036H142.289V330.404H151.862V328.036Z" fill="#108E8D"/>
<path d="M151.862 330.442H142.289V332.81H151.862V330.442Z" fill="#16C1C1"/>
<path d="M151.862 332.81H142.289V335.179H151.862V332.81Z" fill="#108E8D"/>
<path d="M151.862 335.178H142.289V337.547H151.862V335.178Z" fill="#16C1C1"/>
<path d="M151.862 337.547H142.289V339.915H151.862V337.547Z" fill="#108E8D"/>
<path d="M151.862 339.953H142.289V342.322H151.862V339.953Z" fill="#16C1C1"/>
<path d="M151.862 342.322H142.289V344.69H151.862V342.322Z" fill="#108E8D"/>
<path d="M151.862 344.69H142.289V347.058H151.862V344.69Z" fill="#16C1C1"/>
<path d="M151.862 347.058H142.289V349.426H151.862V347.058Z" fill="#108E8D"/>
<path d="M151.862 349.464H142.289V351.833H151.862V349.464Z" fill="#16C1C1"/>
<path d="M151.862 351.833H142.289V354.201H151.862V351.833Z" fill="#108E8D"/>
<path d="M151.862 354.201H142.289V356.569H151.862V354.201Z" fill="#16C1C1"/>
<path d="M151.862 356.569H142.289V358.938H151.862V356.569Z" fill="#108E8D"/>
<path d="M151.862 358.976H142.289V361.344H151.862V358.976Z" fill="#16C1C1"/>
<path d="M151.862 361.344H142.289V363.712H151.862V361.344Z" fill="#108E8D"/>
<path d="M151.862 363.712H142.289V366.081H151.862V363.712Z" fill="#16C1C1"/>
<path d="M151.862 366.081H142.289V368.449H151.862V366.081Z" fill="#108E8D"/>
<path d="M151.862 368.449H142.289V370.817H151.862V368.449Z" fill="#16C1C1"/>
<path d="M151.862 370.855H142.289V373.224H151.862V370.855Z" fill="#108E8D"/>
<path d="M179.926 269.774H168.63C164.357 269.774 160.888 273.229 160.888 277.5V297.057C160.888 301.328 164.357 304.783 168.63 304.783H179.926C184.198 304.783 187.668 301.328 187.668 297.057V277.5C187.668 273.229 184.198 269.774 179.926 269.774Z" fill="#FFBA3E" stroke="black" stroke-width="3"/>
<path d="M293.045 269.774H281.749C277.477 269.774 274.007 273.229 274.007 277.5V297.057C274.007 301.328 277.477 304.783 281.749 304.783H293.045C297.317 304.783 300.787 301.328 300.787 297.057V277.5C300.787 273.229 297.317 269.774 293.045 269.774Z" fill="#FFBA3E" stroke="black" stroke-width="3"/>
<path d="M293.5 347.246V276.026C293.5 265.169 284.929 256.271 274.216 256.271H186.784C176.111 256.271 167.5 265.167 167.5 276.026V347.246C167.5 358.105 176.111 367.001 186.784 367.001H274.216C284.929 367.001 293.5 358.103 293.5 347.246Z" fill="#0C7A77" stroke="black" stroke-width="3"/>
<path d="M283 280.168V348.091C283 357.693 275.056 365.501 265.203 365.501H197.797C187.982 365.501 180 357.693 180 348.091V280.168C180 270.567 187.982 262.758 197.797 262.758H265.203C275.056 262.758 283 270.567 283 280.168Z" fill="#108E8D"/>
<path d="M280.824 187.2V246.625H182.193V187.2C182.193 176.305 191.015 167.5 201.946 167.5H261.109C272.001 167.5 280.824 176.303 280.824 187.2Z" fill="#0C7A77" stroke="black" stroke-width="3"/>
<path d="M264 188.562V244.803H200V188.562C200 177.737 209.499 168.992 221.257 168.992H242.743C254.463 168.992 264 177.737 264 188.562Z" fill="#108E8D"/>
<path d="M282.276 260.261H180.724C178.131 260.261 175.5 257.496 175.5 253.282C175.5 249.068 178.131 246.303 180.724 246.303H282.276C284.869 246.303 287.5 249.068 287.5 253.282C287.5 257.496 284.869 260.261 282.276 260.261Z" fill="#231F20" stroke="black" stroke-width="3"/>
<path d="M241.815 377.998V376.498H240.315H221.398H219.898V377.998V392.208V393.708H221.398H240.315H241.815V392.208V377.998Z" fill="#231F20" stroke="black" stroke-width="3"/>
<path d="M188 364.001H186.5V365.501V371.546C186.5 375.952 190.914 378.971 195.535 378.971H266.465C271.086 378.971 275.5 375.952 275.5 371.546V365.501V364.001H274H188Z" fill="#231F20" stroke="black" stroke-width="3"/>
<path d="M222.9 380.863V379.363H221.4H191.34H189.84V380.863V448.168V449.668H191.34H221.4H222.9V448.168V380.863Z" fill="#108E8D" stroke="black" stroke-width="3"/>
<path d="M271.878 380.863V379.363H270.378H240.317H238.817V380.863V448.168V449.668H240.317H270.378H271.878V448.168V380.863Z" fill="#108E8D" stroke="black" stroke-width="3"/>
<path d="M270.377 380.863H262.986V448.168H270.377V380.863Z" fill="#0C7A77"/>
<path d="M198.73 380.863H191.34V448.168H198.73V380.863Z" fill="#0C7A77"/>
<path d="M217.458 422.359H195.542C193.581 422.359 192 420.355 192 417.87C192 415.385 193.581 413.381 195.542 413.381H217.458C219.419 413.381 221 415.385 221 417.87C221 420.355 219.419 422.359 217.458 422.359Z" fill="#231F20"/>
<path d="M266.458 422.359H244.542C242.581 422.359 241 420.355 241 417.87C241 415.385 242.581 413.381 244.542 413.381H266.458C268.419 413.381 270 415.385 270 417.87C270 420.355 268.419 422.359 266.458 422.359Z" fill="#231F20"/>
<path d="M192.908 449.706H220.939C223.484 449.706 225.566 451.788 225.566 454.318V458.662H188.281V454.318C188.281 451.788 190.363 449.706 192.908 449.706Z" fill="#231F20" stroke="black" stroke-width="3"/>
<path d="M241.389 449.706H269.381C271.926 449.706 274.008 451.788 274.008 454.318V458.662H236.762V454.318C236.762 451.788 238.844 449.706 241.389 449.706Z" fill="#231F20" stroke="black" stroke-width="3"/>
<path d="M202.751 278.274H259.999C261.332 278.274 262.405 279.35 262.405 280.67V293.886C262.405 295.206 261.332 296.283 259.999 296.283H202.751C201.418 296.283 200.345 295.206 200.345 293.886V280.67C200.345 279.35 201.418 278.274 202.751 278.274Z" fill="#16C1C1" stroke="black" stroke-width="3"/>
<path d="M216.503 318.333V316.833H215.003H179.812H178.312V318.333V325.973V327.473H179.812H215.003H216.503V325.973V318.333Z" fill="#16C1C1" stroke="black" stroke-width="3"/>
<path d="M256.63 211.112C262.256 211.112 266.816 206.571 266.816 200.97C266.816 195.369 262.256 190.829 256.63 190.829H207.5C201.874 190.829 197.314 195.369 197.314 200.97C197.314 206.571 201.874 211.112 207.5 211.112H256.63Z" fill="#0C7A77"/>
<path d="M284.551 318.333V316.833H283.051H247.859H246.359V318.333V325.973V327.473H247.859H283.051H284.551V325.973V318.333Z" fill="#16C1C1" stroke="black" stroke-width="3"/>
<path d="M256.63 208.792C263.078 208.792 268.316 203.586 268.316 197.15C268.316 190.715 263.078 185.509 256.63 185.509H207.5C201.052 185.509 195.814 190.715 195.814 197.15C195.814 203.586 201.052 208.792 207.5 208.792H256.63Z" fill="#16C1C1" stroke="black" stroke-width="3"/>
<path d="M260.656 194.648V193.148H259.156H204.971H203.471V194.648V199.652V201.152H204.971H259.156H260.656V199.652V194.648Z" fill="#FFBA3E" stroke="black" stroke-width="3"/>
<path d="M260.613 220.432H254.064V233.801H260.613V220.432Z" fill="#231F20"/>
<path d="M247.972 220.432H241.424V233.801H247.972V220.432Z" fill="#231F20"/>
<path d="M235.336 220.432H228.788V233.801H235.336V220.432Z" fill="#231F20"/>
<path d="M222.701 220.432H216.152V233.801H222.701V220.432Z" fill="#231F20"/>
<mask id="path-320-outside-71_794_11353" maskUnits="userSpaceOnUse" x="200.553" y="217.432" width="64" height="20" fill="black">
<rect fill="white" x="200.553" y="217.432" width="64" height="20"/>
<path fill-rule="evenodd" clip-rule="evenodd" d="M203.553 220.432H206.081H210.101H260.611V233.801H210.101H206.081H203.553V220.432Z"/>
</mask>
<path fill-rule="evenodd" clip-rule="evenodd" d="M203.553 220.432H206.081H210.101H260.611V233.801H210.101H206.081H203.553V220.432Z" fill="#231F20"/>
<path d="M203.553 220.432V217.432H200.553V220.432H203.553ZM260.611 220.432H263.611V217.432H260.611V220.432ZM260.611 233.801V236.801H263.611V233.801H260.611ZM203.553 233.801H200.553V236.801H203.553V233.801ZM206.081 217.432H203.553V223.432H206.081V217.432ZM210.101 217.432H206.081V223.432H210.101V217.432ZM260.611 217.432H210.101V223.432H260.611V217.432ZM263.611 233.801V220.432H257.611V233.801H263.611ZM210.101 236.801H260.611V230.801H210.101V236.801ZM206.081 236.801H210.101V230.801H206.081V236.801ZM203.553 236.801H206.081V230.801H203.553V236.801ZM200.553 220.432V233.801H206.553V220.432H200.553Z" fill="black" mask="url(#path-320-outside-71_794_11353)"/>
<path d="M157.104 368.182H137V376.853H157.104V368.182Z" fill="#231F20"/>
<path d="M253.72 283.229H209.223C208.687 283.229 208.266 282.809 208.266 282.274C208.266 281.739 208.687 281.319 209.223 281.319H253.72C254.256 281.319 254.677 281.739 254.677 282.274C254.677 282.809 254.256 283.229 253.72 283.229Z" fill="#231F20"/>
<path d="M253.72 288.233H209.223C208.687 288.233 208.266 287.813 208.266 287.278C208.266 286.744 208.687 286.323 209.223 286.323H253.72C254.256 286.323 254.677 286.744 254.677 287.278C254.677 287.813 254.256 288.233 253.72 288.233Z" fill="#231F20"/>
<path d="M253.72 293.237H209.223C208.687 293.237 208.266 292.817 208.266 292.282C208.266 291.748 208.687 291.327 209.223 291.327H253.72C254.256 291.327 254.677 291.748 254.677 292.282C254.677 292.817 254.256 293.237 253.72 293.237Z" fill="#231F20"/>
</g>
<defs>
<clipPath id="clip0_794_11353">
<rect width="460" height="460" fill="white"/>
</clipPath>
</defs>
</svg>
