<svg width="460" height="460" viewBox="0 0 460 460" fill="none" xmlns="http://www.w3.org/2000/svg">
<g clip-path="url(#clip0_794_9422)">
<rect width="460" height="460" fill="#E2F3F1"/>
<rect x="-76" y="76" width="458.459" height="262" fill="#E2F3F1"/>
<path d="M17 110H52V481H17V110Z" fill="#8ECDC7"/>
<rect x="276" width="34" height="249" fill="#8ECDC7"/>
<rect x="-2" y="375" width="372" height="34" fill="#8ECDC7"/>
<path d="M166 42H482V76H166V42Z" fill="#8ECDC7"/>
<rect x="124" y="310" width="34" height="198" fill="#8ECDC7"/>
<path d="M389 0H423V309.5H389V0Z" fill="#8ECDC7"/>
<path d="M82.6204 265.585H79.0793V300.415H82.6204V265.585Z" fill="#010101"/>
<path d="M93.3534 331.345L90.8479 329.397L123.452 304.064L125.958 306.012L93.3534 331.345Z" fill="#010101"/>
<path d="M281.54 143.498C276.729 143.498 272.086 144.055 267.676 145.045C260.494 130.6 242.488 120.361 221.375 120.361C198.091 120.361 178.582 132.827 173.203 149.622C167.859 146.839 161.445 145.199 154.53 145.199C135.989 145.199 120.956 156.86 120.956 171.275C120.956 178.822 125.099 185.565 131.68 190.328C131.513 191.627 131.412 192.958 131.412 194.319C131.412 216.373 154.429 234.251 182.858 234.251H219.638C237.176 234.251 252.644 227.415 261.93 217.022C267.944 219.064 274.591 220.177 281.573 220.177C308.866 220.177 330.981 203.01 330.981 181.822C330.981 160.634 308.866 143.467 281.573 143.467" fill="#CBE5F6"/>
<path d="M219.594 235.643H182.814C153.484 235.643 129.598 217.115 129.598 194.319C129.598 193.174 129.665 192.03 129.799 190.885C122.917 185.658 119.142 178.729 119.142 171.275C119.142 156.149 135.01 143.838 154.486 143.838C160.699 143.838 166.746 145.106 172.091 147.488C178.572 130.63 198.482 119 221.332 119C242.21 119 260.617 128.527 268.702 143.405C272.944 142.539 277.22 142.106 281.529 142.106C309.758 142.106 332.708 159.923 332.708 181.853C332.708 203.784 309.758 221.601 281.529 221.601C274.982 221.601 268.568 220.642 262.521 218.755C252.499 229.364 236.565 235.674 219.628 235.674M154.519 146.622C136.981 146.622 122.717 157.696 122.717 171.306C122.717 178.203 126.325 184.637 132.872 189.37L133.507 189.834L133.407 190.514C133.24 191.813 133.139 193.082 133.139 194.35C133.139 215.6 155.421 232.921 182.814 232.921H219.594C235.863 232.921 251.13 226.704 260.417 216.28L261.252 215.352L262.588 215.816C268.601 217.858 274.982 218.879 281.529 218.879C307.787 218.879 329.167 202.299 329.167 181.884C329.167 161.469 307.787 144.89 281.529 144.89C277.053 144.89 272.577 145.385 268.167 146.406L266.597 146.746L265.996 145.57C258.78 131.094 241.275 121.753 221.332 121.753C199.317 121.753 180.209 133.352 174.897 149.963L174.296 151.88L172.191 150.798C166.947 148.076 160.833 146.622 154.486 146.622" fill="#010101"/>
<path d="M281.13 197.907H206.835V200.753H281.13V197.907Z" fill="#010101"/>
<path d="M294.289 192.246H219.994V195.092H294.289V192.246Z" fill="#010101"/>
<path d="M281.795 203.629H178.704V206.475H281.795V203.629Z" fill="#010101"/>
<path d="M281.795 209.32H178.704V212.166H281.795V209.32Z" fill="#010101"/>
<path d="M281.795 215.043H178.704V217.888H281.795V215.043Z" fill="#010101"/>
<path d="M238.467 220.734H178.704V223.58H238.467V220.734Z" fill="#010101"/>
<path d="M219.994 226.457H178.704V229.302H219.994V226.457Z" fill="#010101"/>
<path d="M256.105 159.83C256.105 174.739 240.537 186.833 221.362 186.833C202.187 186.833 186.62 174.739 186.62 159.83C186.62 144.921 202.187 132.826 221.362 132.826C240.537 132.826 256.105 144.921 256.105 159.83Z" fill="white"/>
<path d="M227.859 174.461C227.859 177.244 224.953 179.502 221.345 179.502C217.737 179.502 214.831 177.244 214.831 174.461C214.831 171.677 217.737 169.419 221.345 169.419C224.953 169.419 227.859 171.677 227.859 174.461Z" fill="#010101"/>
<path d="M358.624 177.553C349.738 174.676 339.983 173.068 329.761 173.068C300.197 173.068 274.642 186.338 262.415 205.639C259.509 210.217 257.337 215.135 256.068 220.27C255.166 223.858 254.698 227.57 254.698 231.343C254.999 232.488 255.5 233.787 255.934 234.529C256.836 236.076 260.811 238.427 260.845 240.128C260.878 242.015 259.342 244.211 257.27 246.5C253.763 250.335 248.685 254.357 246.848 257.171C246.079 258.378 244.576 260.914 244.443 262.275C244.342 263.327 244.309 265.399 245.478 266.482C247.015 267.966 250.923 268.523 252.861 269.018C253.796 269.266 256.101 269.173 256.769 269.73C257.036 269.977 257.07 270.688 256.97 270.998C256.602 272.204 253.863 273.874 253.395 275.05C253.094 275.792 253.094 276.72 253.429 277.432C253.629 277.865 254.063 278.731 254.665 279.411C254.832 279.597 254.999 279.782 255.199 279.906C255.934 280.432 257.905 281.36 258.005 282.133C258.072 282.845 255.934 284.484 255.667 285.165C255.667 285.226 255.667 285.319 255.633 285.381C255.433 286.031 255.466 286.742 255.8 287.392C256.502 288.66 259.676 290.423 260.277 291.66C260.477 292.093 260.477 293.052 260.377 293.485C260.21 294.289 258.941 295.681 258.84 296.516C258.54 298.991 259.676 301.434 260.177 303.043C260.243 303.259 260.31 303.507 260.41 303.785C260.711 304.713 261.179 305.951 261.713 306.538C262.314 307.219 263.918 308.425 264.887 308.765C265.822 309.075 267.96 308.982 268.996 309.013C272.036 309.075 277.982 308.085 281.022 307.93C282.659 307.837 285.298 307.373 287.87 307.095C290.008 306.878 292.113 306.786 293.616 307.126C294.05 307.219 294.451 307.373 294.785 307.59C298.727 310.034 297.759 319.282 297.09 323.179C296.422 326.798 295.086 332.83 293.616 339.233C293.683 339.233 293.716 339.233 293.783 339.233C329.962 339.233 368.579 324.695 373.623 298.589C374.158 295.805 374.258 291.289 374.525 289.031C374.926 285.752 375.294 280.618 377.064 277.648C377.164 277.493 377.599 276.968 378.033 276.442C378.434 275.947 378.868 275.483 379.002 275.359C380.204 274.215 381.407 273.07 382.61 271.895C383.812 270.719 385.015 269.513 386.184 268.276C389.859 264.069 393.099 259.584 395.805 254.913C412.875 225.435 397.141 189.957 358.724 177.522" fill="#F9B49C"/>
<path d="M93.2946 336.078H68.4402V302.61C68.4402 297.29 74.0189 292.959 80.8672 292.959C87.7154 292.959 93.2946 297.29 93.2946 302.61V336.078Z" fill="#198EBE"/>
<path d="M136.387 202.33L162.645 181.946C160.34 180.647 157.934 179.41 155.496 178.296L130.441 197.752L136.387 202.361V202.33Z" fill="#334242"/>
<path d="M162.669 181.946L136.412 202.33L130.466 197.721L131.201 197.164L125.389 192.648L147.904 175.172C135.845 170.718 122.382 168.212 108.151 168.212C90.0115 168.212 73.5756 173.904 61.7165 183.152L108.151 219.219L61.7165 255.285C73.609 264.503 90.0115 270.225 108.151 270.225C119.342 270.225 129.898 268.029 139.118 264.193H201.187V240.438C201.187 216.373 186.02 195.061 162.703 181.946" fill="#4ABAEB"/>
<path d="M131.174 197.165L155.493 178.265C153.021 177.121 150.482 176.1 147.877 175.172L125.361 192.649L131.174 197.165Z" fill="#4ABAEB"/>
<path d="M201.134 315.014H166.124C125.068 315.014 91.7626 289.155 91.7626 257.264V225.405L201.101 264.193V315.014H201.134Z" fill="#4ABAEB"/>
<path d="M201.119 292.959V315.014C205.663 315.014 209.338 312.168 209.338 308.642V299.331C209.338 295.805 205.663 292.959 201.119 292.959Z" fill="#4ABAEB"/>
<path d="M201.163 238.489V276.102C205.707 276.102 209.382 273.257 209.382 269.731V244.861C204.872 244.861 201.196 242.016 201.196 238.489" fill="#4ABAEB"/>
<path d="M97.9036 328.284C97.9036 335.584 90.2867 341.523 80.8662 341.523C71.4457 341.523 63.8292 335.584 63.8292 328.284C63.8292 320.984 71.4457 315.045 80.8662 315.045C90.2867 315.045 97.9036 320.984 97.9036 328.284Z" fill="#334242"/>
<path d="M165.441 300.415C135.175 300.415 110.655 281.361 110.655 257.884C140.921 257.884 165.441 276.938 165.441 300.415Z" fill="#23A1D2"/>
<path d="M181.456 285.813H201.132V292.99H190.676C185.565 292.99 181.456 289.773 181.456 285.813Z" fill="#23A1D2"/>
<path d="M191.896 268.895H201.117V276.071C196.005 276.071 191.896 272.854 191.896 268.895Z" fill="#23A1D2"/>
<path d="M143.168 279.134C143.168 281.33 140.896 283.093 138.09 283.093C135.284 283.093 133.013 281.33 133.013 279.134C133.013 276.938 135.284 275.174 138.09 275.174C140.896 275.174 143.168 276.938 143.168 279.134Z" fill="#334242"/>
<path d="M140.629 252.718C140.629 253.801 139.493 254.698 138.09 254.698C136.687 254.698 135.551 253.801 135.551 252.718C135.551 251.635 136.687 250.738 138.09 250.738C139.493 250.738 140.629 251.635 140.629 252.718Z" fill="#334242"/>
<path d="M162.668 195.092C162.668 196.175 161.532 197.071 160.129 197.071C158.726 197.071 157.59 196.175 157.59 195.092C157.59 194.009 158.726 193.112 160.129 193.112C161.532 193.112 162.668 194.009 162.668 195.092Z" fill="#334242"/>
<g style="mix-blend-mode:overlay" opacity="0.5">
<mask id="mask0_794_9422" style="mask-type:luminance" maskUnits="userSpaceOnUse" x="175" y="245" width="17" height="36">
<path d="M191.904 245.758H175.335V280.618H191.904V245.758Z" fill="white"/>
</mask>
<g mask="url(#mask0_794_9422)">
<path d="M191.904 280.618C182.751 280.618 175.335 274.865 175.335 267.75V245.758H191.904V280.618Z" fill="white"/>
</g>
</g>
<path d="M178.433 248.17L191.762 237.808C190.025 236.478 187.252 236.478 185.515 237.808L175.292 245.758L178.399 248.17H178.433Z" fill="#23A1D2"/>
<path d="M175.335 245.758L185.558 253.707C187.295 255.037 190.067 255.037 191.804 253.707L178.475 243.345L175.369 245.758H175.335Z" fill="#23A1D2"/>
<path d="M192.847 238.86C192.48 238.489 192.146 238.087 191.678 237.747L181.456 245.665L191.678 253.584C192.112 253.243 192.48 252.841 192.847 252.47C188.838 248.449 188.838 242.85 192.847 238.798" fill="white"/>
<path d="M195.007 241.861C194.506 240.809 193.771 239.819 192.836 238.891C188.827 242.912 188.827 248.511 192.836 252.563C193.771 251.635 194.506 250.645 195.007 249.594C196.177 247.119 196.177 244.397 195.007 241.892" fill="#334242"/>
<path d="M111.668 219.343C111.668 220.889 110.065 222.157 108.06 222.157C106.056 222.157 104.452 220.889 104.452 219.343C104.452 217.796 106.056 216.528 108.06 216.528C110.065 216.528 111.668 217.796 111.668 219.343Z" fill="#1A2121"/>
<path d="M88.1395 328.283C88.1395 331.408 84.8654 333.944 80.8233 333.944C76.7812 333.944 73.541 331.408 73.541 328.283C73.541 325.159 76.8146 322.623 80.8233 322.623C84.832 322.623 88.1395 325.159 88.1395 328.283Z" fill="white"/>
<path d="M272.974 279.505H254.667C254.834 279.691 255.001 279.876 255.202 280C255.937 280.526 257.908 281.454 258.008 282.227C258.075 282.939 255.937 284.578 255.669 285.258C255.669 285.32 255.669 285.413 255.636 285.475H265.324C269.566 285.475 273.007 282.815 273.007 279.505" fill="#E59780"/>
<path d="M285.443 248.17L272.114 237.808C273.851 236.478 276.624 236.478 278.361 237.808L288.583 245.758L285.477 248.17H285.443Z" fill="#E59780"/>
<path d="M288.554 245.758L278.332 253.707C276.595 255.037 273.822 255.037 272.085 253.707L285.414 243.345L288.521 245.758H288.554Z" fill="#E59780"/>
<path d="M271.049 238.86C271.416 238.489 271.75 238.087 272.218 237.747L282.44 245.665L272.218 253.584C271.784 253.244 271.416 252.841 271.049 252.47C275.058 248.449 275.058 242.851 271.049 238.799" fill="white"/>
<path d="M268.87 241.861C269.371 240.809 270.106 239.819 271.008 238.891C275.017 242.912 275.017 248.511 271.008 252.563C270.072 251.635 269.337 250.645 268.87 249.594C267.7 247.119 267.7 244.397 268.87 241.892" fill="#334242"/>
<path d="M324.636 270.225V245.758C324.636 240.809 329.78 236.819 336.127 236.819C342.474 236.819 347.619 240.809 347.619 245.758V252.346C347.619 262.214 337.33 270.225 324.602 270.225" fill="#E59780"/>
<path d="M291.013 234.282H263.186C263.186 230.509 267.128 227.446 272.006 227.446H299.833C299.833 231.22 295.891 234.282 291.013 234.282Z" fill="#334242"/>
<path d="M293.685 340.656L291.514 340.595L291.814 339.017C293.551 331.562 294.721 326.18 295.289 322.994C296.324 317.241 296.224 310.282 293.652 308.673C293.585 308.611 293.418 308.549 293.05 308.457C291.981 308.209 290.01 308.271 288.073 308.457C287.004 308.58 285.902 308.735 284.899 308.859C283.429 309.044 282.093 309.23 281.124 309.292C279.922 309.354 278.251 309.57 276.481 309.756C273.842 310.065 271.136 310.374 269.198 310.374H268.196H267.729C266.225 310.374 265.056 310.312 264.187 310.034C262.784 309.57 260.947 308.116 260.246 307.312C259.711 306.693 259.243 305.704 258.709 304.126L258.141 302.456C257.573 300.847 256.805 298.651 257.072 296.393C257.172 295.713 257.606 295.001 258.041 294.321C258.241 294.011 258.575 293.455 258.609 293.3C258.676 292.991 258.642 292.341 258.609 292.156C258.442 291.815 257.473 291.042 256.771 290.485C255.702 289.619 254.667 288.815 254.199 287.949C253.731 287.083 253.631 286.093 253.932 285.103L253.999 284.794C254.199 284.299 254.633 283.835 255.302 283.154C255.569 282.876 255.936 282.505 256.17 282.227C255.903 282.072 255.268 281.701 254.934 281.515C254.6 281.299 254.299 281.144 254.066 280.958C253.765 280.742 253.497 280.494 253.297 280.247C252.495 279.381 251.961 278.267 251.827 277.927C251.36 276.937 251.359 275.731 251.76 274.679C252.094 273.844 252.93 273.071 253.865 272.236C254.366 271.772 255.235 270.998 255.335 270.689C255.068 270.689 254.533 270.627 254.199 270.596C253.531 270.534 252.93 270.503 252.395 270.349C252.028 270.256 251.56 270.163 251.059 270.039C248.821 269.545 245.781 268.864 244.211 267.379C242.64 265.895 242.641 263.482 242.808 262.183C242.975 260.574 244.511 258.007 245.38 256.584C246.549 254.759 248.854 252.594 251.259 250.305C252.863 248.789 254.533 247.243 255.903 245.696C258.107 243.284 259.176 241.459 259.143 240.16C259.143 239.665 257.64 238.335 256.805 237.623C255.803 236.757 254.867 235.922 254.4 235.087C253.932 234.283 253.397 232.922 253.063 231.622V231.344C253.03 227.57 253.498 223.766 254.433 219.992C255.702 214.796 257.907 209.754 260.914 204.99C273.942 184.421 300.366 171.646 329.864 171.646C340.119 171.646 350.041 173.192 359.428 176.224C377.601 182.101 391.665 193.329 399.014 207.805C406.764 223.023 406.163 240.376 397.444 255.471C394.705 260.203 391.431 264.75 387.657 269.05C386.421 270.318 385.218 271.555 384.015 272.731C382.812 273.906 381.61 275.081 380.407 276.226C380.274 276.35 379.94 276.752 379.572 277.216C379.205 277.649 378.837 278.113 378.704 278.267C377.3 280.618 376.833 284.794 376.499 287.825L376.332 289.186C376.232 289.99 376.165 291.135 376.064 292.372C375.931 294.537 375.764 296.981 375.396 298.806C370.085 326.242 330.331 340.626 293.785 340.626M291.18 305.518C292.349 305.518 293.351 305.611 294.186 305.827C294.888 306.013 295.489 306.229 295.957 306.539C300.767 309.539 299.598 319.314 298.896 323.366C298.362 326.335 297.326 331.191 295.79 337.842C329.463 337.316 367.045 323.551 371.922 298.404C372.256 296.733 372.39 294.352 372.557 292.248C372.657 290.949 372.724 289.805 372.824 288.939L372.991 287.609C373.359 284.175 373.86 279.938 375.53 277.092C375.63 276.906 376.131 276.319 376.599 275.731C377.033 275.205 377.501 274.679 377.668 274.525C378.904 273.38 380.073 272.236 381.276 271.06C382.478 269.885 383.647 268.678 384.817 267.472C388.425 263.358 391.598 258.935 394.237 254.357C402.589 239.943 403.123 223.364 395.741 208.826C388.725 195.061 375.363 184.39 358.092 178.791C349.139 175.884 339.652 174.43 329.897 174.43C301.769 174.43 276.581 186.617 264.154 206.227C261.281 210.774 259.176 215.569 257.974 220.518C257.105 224.075 256.638 227.663 256.638 231.189C256.938 232.241 257.373 233.355 257.707 233.973C257.941 234.406 258.809 235.149 259.544 235.798C261.114 237.159 262.751 238.613 262.785 240.129C262.818 242.077 261.582 244.366 258.909 247.305C257.439 248.913 255.736 250.522 254.099 252.068C251.794 254.233 249.623 256.275 248.654 257.821C247.418 259.77 246.516 261.626 246.415 262.43C246.248 263.853 246.515 265.152 247.05 265.647C247.919 266.482 250.457 267.039 252.128 267.41C252.696 267.534 253.197 267.658 253.631 267.751C253.798 267.781 254.333 267.843 254.667 267.874C255.936 267.967 257.373 268.091 258.275 268.864C259.177 269.637 259.009 270.998 258.876 271.4C258.575 272.328 257.64 273.164 256.671 274.061C256.17 274.525 255.402 275.236 255.268 275.514C255.068 275.978 255.101 276.597 255.268 277.03C255.469 277.494 255.869 278.205 256.304 278.669C256.471 278.855 256.538 278.917 256.571 278.948C256.738 279.072 256.972 279.195 257.206 279.35C258.375 280.03 259.811 280.897 259.945 282.072C260.045 283 259.21 283.866 258.275 284.856C258.041 285.103 257.707 285.413 257.573 285.598C257.573 285.66 257.573 285.722 257.54 285.784C257.406 286.186 257.439 286.588 257.606 286.928C257.807 287.299 258.742 288.073 259.444 288.598C260.58 289.495 261.648 290.331 262.083 291.259C262.45 292.063 262.384 293.3 262.283 293.795C262.15 294.383 261.782 294.97 261.381 295.589C261.181 295.929 260.78 296.517 260.747 296.734C260.546 298.497 261.181 300.322 261.715 301.806L262.283 303.508C262.851 305.178 263.219 305.704 263.352 305.858C263.82 306.415 265.19 307.374 265.724 307.591C265.891 307.652 266.359 307.714 267.862 307.714H268.731H269.165C271.036 307.714 273.708 307.405 276.114 307.126C277.984 306.91 279.755 306.694 281.024 306.632C281.926 306.57 283.129 306.415 284.432 306.23C285.501 306.075 286.636 305.92 287.772 305.796C288.975 305.673 290.177 305.58 291.28 305.58" fill="#010101"/>
<path d="M340.388 164.129H293.385C285.635 164.129 279.355 169.017 279.355 175.017V188.349C291.782 188.349 302.773 196.174 302.773 205.794V245.727C302.773 248.511 305.679 250.738 309.22 250.738C312.761 250.738 315.667 248.48 315.667 245.727V243.778C315.667 234.932 323.852 226.982 335.143 225.962C348.605 224.724 360.031 232.859 360.031 243.067V271.369C360.031 277.494 366.445 282.474 374.328 282.474H392.935C400.218 282.474 406.131 277.865 406.131 272.235V215.259C406.131 187.05 376.667 164.16 340.321 164.16" fill="#334242"/>
<path d="M393.001 283.866H374.393C365.507 283.866 358.292 278.267 358.292 271.37V243.067C358.292 233.695 347.769 226.209 335.408 227.323C325.186 228.251 317.503 235.334 317.503 243.779V245.727C317.503 249.254 313.794 252.13 309.251 252.13C304.708 252.13 301 249.254 301 245.727V205.794C301 197.072 291.112 189.71 279.386 189.71H277.616V175.018C277.616 168.244 284.698 162.738 293.417 162.738H340.419C377.667 162.738 408 186.277 408 215.198V272.174C408 278.577 401.285 283.804 393.034 283.804M337.947 224.415C351.143 224.415 361.899 232.767 361.899 243.005V271.308C361.899 276.69 367.512 281.051 374.427 281.051H393.034C399.348 281.051 404.459 277.061 404.459 272.174V215.198C404.459 187.792 375.73 165.491 340.453 165.491H293.45C286.702 165.491 281.19 169.759 281.19 175.018V187.019C294.052 187.73 304.608 196.051 304.608 205.794V245.727C304.608 247.738 306.712 249.377 309.285 249.377C311.857 249.377 313.962 247.738 313.962 245.727V243.779C313.962 233.942 323.015 225.684 335.008 224.601C335.976 224.508 336.945 224.477 337.914 224.477" fill="#010101"/>
<path d="M201.119 316.406H166.109C130.431 316.406 99.3636 296.95 91.747 270.009C79.8544 267.72 69.0308 262.956 60.3786 256.275L59.1091 255.316L89.9433 231.375V223.333L97.0589 225.869L105.544 219.281L59.1091 183.214L60.3786 182.255C73.1063 172.357 90.0433 166.913 108.083 166.913C122.18 166.913 135.81 169.295 148.604 173.997C151.577 175.079 154.117 176.131 156.388 177.182C158.86 178.327 161.299 179.564 163.704 180.925C187.088 194.102 201.486 214.95 202.822 237.19H202.923V238.582C202.923 241.335 205.796 243.562 209.337 243.562H211.107V269.792C211.107 273.597 207.566 276.752 202.923 277.432V291.815C207.566 292.465 211.107 295.62 211.107 299.425V308.735C211.107 313.004 206.631 316.499 201.119 316.499M64.1869 255.378C72.4048 261.41 82.5606 265.647 93.6848 267.627L94.7871 267.843L95.0207 268.71C101.869 294.816 131.768 313.777 166.143 313.777H201.152C204.693 313.777 207.566 311.55 207.566 308.797V299.487C207.566 296.734 204.693 294.507 201.152 294.507H199.382V274.865H201.152C204.693 274.865 207.566 272.638 207.566 269.885V246.284C203.758 245.758 200.685 243.531 199.716 240.623H199.382C199.382 218.012 185.284 196.546 161.633 183.245C159.328 181.946 156.989 180.74 154.618 179.657C152.446 178.667 150.008 177.677 147.135 176.595C134.841 172.048 121.712 169.759 108.15 169.759C91.6803 169.759 76.1464 174.553 64.2204 183.338L110.655 219.404L97.9275 229.303L93.5845 227.756V232.674L64.2204 255.471L64.1869 255.378Z" fill="#010101"/>
<path d="M52 260.637C54.305 262.431 57.4784 263.513 60.9526 263.513C67.9678 263.513 73.647 259.09 73.647 253.677C73.647 250.955 72.2106 248.511 69.939 246.717L52 260.637Z" fill="#355A60"/>
<path d="M68.2751 253.676C68.2751 256.8 65.0011 259.337 60.959 259.337C56.9169 259.337 53.6767 256.8 53.6767 253.676C53.6767 250.552 56.9503 248.016 60.959 248.016C64.9677 248.016 68.2751 250.552 68.2751 253.676Z" fill="#334242"/>
<path d="M63.8201 253.677C63.8201 254.914 62.5172 255.904 60.947 255.904C59.3768 255.904 58.0739 254.914 58.0739 253.677C58.0739 252.439 59.3768 251.449 60.947 251.449C62.5172 251.449 63.8201 252.439 63.8201 253.677Z" fill="white"/>
<path d="M149.817 219.218C149.817 237.097 131.143 251.604 108.126 251.604C85.1093 251.604 66.4353 237.097 66.4353 219.218C66.4353 201.34 85.1093 186.833 108.126 186.833C131.143 186.833 149.817 201.34 149.817 219.218Z" fill="#334242"/>
<path d="M108.107 252.965C84.1218 252.965 64.6459 237.809 64.6459 219.219C64.6459 200.629 84.1552 185.472 108.107 185.472C132.06 185.472 151.569 200.629 151.569 219.219C151.569 237.809 132.06 252.965 108.107 252.965ZM108.107 188.194C86.0927 188.194 68.1872 202.114 68.1872 219.188C68.1872 236.262 86.0927 250.181 108.107 250.181C130.122 250.181 148.028 236.262 148.028 219.188C148.028 202.114 130.122 188.194 108.107 188.194Z" fill="#010101"/>
<path d="M108.122 195.71C91.4192 195.71 77.8566 206.227 77.8566 219.218C77.8566 225.714 81.2302 231.591 86.7088 235.829L129.502 202.608C124.023 198.371 116.474 195.741 108.122 195.741" fill="#1A2121"/>
<path d="M129.513 202.609L86.72 235.829C92.1986 240.067 99.7485 242.696 108.133 242.696C124.836 242.696 138.4 232.179 138.4 219.188C138.4 212.692 135.025 206.815 129.547 202.578" fill="#4ABAEB"/>
<path d="M108.112 195.71C116.463 195.71 124.013 198.339 129.492 202.577C134.97 206.815 138.344 212.692 138.344 219.187C138.344 232.179 124.815 242.695 108.078 242.695C99.7268 242.695 92.1435 240.066 86.6984 235.829C81.2198 231.591 77.8461 225.714 77.8461 219.218C77.8461 206.227 91.3753 195.71 108.112 195.71ZM108.112 192.957C89.4712 192.957 74.3049 204.742 74.3049 219.218C74.3049 226.24 77.8124 232.828 84.1929 237.777C90.5735 242.726 99.0587 245.479 108.112 245.479C126.752 245.479 141.919 233.694 141.919 219.218C141.919 212.197 138.411 205.608 132.031 200.659C125.65 195.71 117.165 192.957 108.145 192.957" fill="#010101"/>
<path d="M96.8224 214.208L100.698 217.208C100.029 218.569 100.029 220.085 100.698 221.446L96.8224 224.446L101.399 228.003L105.274 225.003C107.045 225.529 108.982 225.498 110.753 225.003L114.628 228.003L119.205 224.446L115.329 221.446C115.998 220.085 115.998 218.569 115.329 217.208L119.205 214.208L114.628 210.651L110.753 213.651C108.982 213.156 107.045 213.156 105.274 213.651L101.399 210.651L96.8224 214.208ZM110.586 217.332C111.989 218.415 111.989 220.209 110.586 221.322C109.183 222.436 106.878 222.436 105.474 221.322C104.071 220.24 104.038 218.446 105.474 217.332C106.878 216.219 109.183 216.219 110.586 217.332Z" fill="white"/>
<path d="M116.01 225.498C111.634 228.9 104.518 228.9 100.109 225.498L98.004 227.137C103.549 231.437 112.603 231.437 118.148 227.137C123.693 222.807 123.66 215.816 118.148 211.517L116.01 213.156C120.386 216.559 120.42 222.095 116.01 225.498Z" fill="#010101"/>
<path d="M97.968 211.517C92.4226 215.847 92.4226 222.838 97.968 227.137L100.073 225.498C95.6964 222.095 95.663 216.559 100.073 213.156C104.449 209.754 111.564 209.754 115.941 213.156L118.079 211.517C112.5 207.217 103.48 207.217 97.935 211.517" fill="#010101"/>
<path d="M98.0095 227.168C92.4641 222.868 92.4307 215.847 98.0095 211.547C103.555 207.217 112.575 207.217 118.153 211.547L127.774 204.062L125.202 202.082L120.292 204.99C118.454 204.031 116.45 203.351 114.379 202.856L114.078 198.061L106.862 197.566L105.492 202.237C103.354 202.423 101.25 202.856 99.2121 203.536L95.0033 200.041L89.0569 203.289L91.8963 207.557C90.3597 208.825 89.1237 210.217 88.1883 211.702L82.0752 211.114L80.2042 216.558L85.9165 218.414C85.7829 220.084 85.9835 221.786 86.4846 223.425L81.3065 226.023L84.38 231.127L90.2595 229.704C90.8942 230.385 91.5958 231.003 92.3975 231.622L98.0429 227.23L98.0095 227.168Z" fill="#334242"/>
<path d="M111.668 219.343C111.668 220.889 110.065 222.157 108.06 222.157C106.056 222.157 104.452 220.889 104.452 219.343C104.452 217.796 106.056 216.528 108.06 216.528C110.065 216.528 111.668 217.765 111.668 219.343Z" fill="#1A2121"/>
<path d="M221.332 166.263C220.364 166.263 219.562 165.645 219.562 164.871V140.714C219.562 139.941 220.364 139.322 221.332 139.322C222.301 139.322 223.103 139.941 223.103 140.714V164.871C223.103 165.645 222.301 166.263 221.332 166.263Z" fill="#010101"/>
<path d="M194.638 232.241H158.56C157.591 232.241 156.789 231.622 156.789 230.849C156.789 230.076 157.591 229.457 158.56 229.457H194.638C195.607 229.457 196.409 230.076 196.409 230.849C196.409 231.622 195.607 232.241 194.638 232.241Z" fill="#010101"/>
</g>
<defs>
<clipPath id="clip0_794_9422">
<rect width="460" height="460" fill="white"/>
</clipPath>
</defs>
</svg>
