<svg width="700" height="400" viewBox="0 0 700 400" fill="none" xmlns="http://www.w3.org/2000/svg">
<rect width="699.938" height="400" rx="20" fill="#E2F3F1"/>
<rect x="88.2422" width="44.996" height="400" fill="#8ECDC7"/>
<rect x="458.209" width="44.996" height="326" fill="#8ECDC7"/>
<rect x="0.25" y="270" width="487.956" height="45" fill="#8ECDC7"/>
<rect x="370.029" y="82" width="329.971" height="45" fill="#8ECDC7"/>
<rect x="207.981" y="140" width="44.996" height="260" fill="#8ECDC7"/>
<rect x="578.948" width="44.996" height="326" fill="#8ECDC7"/>
<path d="M176.11 241.922H171.932V283.009H176.11V241.922Z" fill="#010101"/>
<path d="M188.771 319.497L185.815 317.198L224.278 287.314L227.233 289.613L188.771 319.497Z" fill="#010101"/>
<path d="M410.769 97.8995C405.094 97.8995 399.616 98.5563 394.414 99.7239C385.941 82.6835 364.7 70.6055 339.794 70.6055C312.327 70.6055 289.312 85.3107 282.968 105.124C276.662 101.84 269.096 99.9063 260.938 99.9063C239.067 99.9063 221.333 113.663 221.333 130.667C221.333 139.57 226.22 147.524 233.983 153.144C233.786 154.676 233.668 156.245 233.668 157.851C233.668 183.868 260.82 204.958 294.357 204.958H337.745C358.434 204.958 376.681 196.894 387.636 184.634C394.73 187.042 402.572 188.356 410.808 188.356C443.005 188.356 469.093 168.104 469.093 143.109C469.093 118.114 443.005 97.863 410.808 97.863" fill="#CBE5F6"/>
<path d="M337.694 206.601H294.305C259.705 206.601 231.528 184.744 231.528 157.851C231.528 156.501 231.607 155.151 231.764 153.801C223.646 147.634 219.193 139.461 219.193 130.667C219.193 112.824 237.912 98.3008 260.887 98.3008C268.217 98.3008 275.35 99.7969 281.655 102.607C289.3 82.7199 312.788 68.9999 339.743 68.9999C364.373 68.9999 386.087 80.2387 395.624 97.7899C400.629 96.7682 405.673 96.2575 410.756 96.2575C444.056 96.2575 471.13 117.275 471.13 143.146C471.13 169.017 444.056 190.035 410.756 190.035C403.032 190.035 395.466 188.903 388.333 186.677C376.511 199.193 357.713 206.637 337.733 206.637M260.926 101.585C240.237 101.585 223.41 114.648 223.41 130.703C223.41 138.84 227.666 146.43 235.39 152.013L236.139 152.56L236.021 153.363C235.824 154.895 235.705 156.392 235.705 157.888C235.705 182.956 261.99 203.39 294.305 203.39H337.694C356.885 203.39 374.895 196.055 385.85 183.758L386.835 182.664L388.412 183.211C395.505 185.619 403.032 186.824 410.756 186.824C441.731 186.824 466.953 167.265 466.953 143.182C466.953 119.1 441.731 99.5413 410.756 99.5413C405.476 99.5413 400.195 100.125 394.993 101.33L393.141 101.731L392.432 100.344C383.919 83.2673 363.27 72.2475 339.743 72.2475C313.773 72.2475 291.231 85.9309 284.965 105.526L284.256 107.788L281.774 106.511C275.586 103.3 268.375 101.585 260.887 101.585" fill="#010101"/>
<path d="M410.285 162.084H322.642V165.441H410.285V162.084Z" fill="#010101"/>
<path d="M425.808 155.406H338.165V158.763H425.808V155.406Z" fill="#010101"/>
<path d="M411.069 168.834H289.456V172.191H411.069V168.834Z" fill="#010101"/>
<path d="M411.069 175.548H289.456V178.905H411.069V175.548Z" fill="#010101"/>
<path d="M411.069 182.298H289.456V185.656H411.069V182.298Z" fill="#010101"/>
<path d="M359.957 189.013H289.456V192.37H359.957V189.013Z" fill="#010101"/>
<path d="M338.165 195.763H289.456V199.12H338.165V195.763Z" fill="#010101"/>
<path d="M380.763 117.166C380.763 134.753 362.399 149.021 339.779 149.021C317.159 149.021 298.794 134.753 298.794 117.166C298.794 99.5778 317.159 85.3106 339.779 85.3106C362.399 85.3106 380.763 99.5778 380.763 117.166Z" fill="white"/>
<path d="M347.443 134.425C347.443 137.709 344.015 140.373 339.759 140.373C335.503 140.373 332.074 137.709 332.074 134.425C332.074 131.141 335.503 128.477 339.759 128.477C344.015 128.477 347.443 131.141 347.443 134.425Z" fill="#010101"/>
<path d="M501.703 138.073C491.22 134.68 479.713 132.782 467.654 132.782C432.778 132.782 402.631 148.436 388.208 171.205C384.779 176.606 382.218 182.408 380.72 188.465C379.656 192.697 379.104 197.076 379.104 201.528C379.459 202.878 380.05 204.411 380.562 205.286C381.626 207.111 386.316 209.884 386.355 211.891C386.395 214.117 384.582 216.707 382.139 219.408C378.001 223.932 372.011 228.676 369.843 231.996C368.937 233.42 367.164 236.412 367.006 238.017C366.888 239.258 366.848 241.702 368.228 242.98C370.04 244.731 374.651 245.388 376.937 245.972C378.04 246.264 380.759 246.154 381.547 246.811C381.863 247.103 381.902 247.942 381.784 248.307C381.351 249.73 378.119 251.7 377.567 253.087C377.213 253.963 377.213 255.058 377.607 255.897C377.843 256.408 378.355 257.429 379.065 258.232C379.262 258.451 379.459 258.67 379.695 258.816C380.562 259.436 382.887 260.531 383.006 261.443C383.084 262.282 380.562 264.216 380.247 265.019C380.247 265.092 380.247 265.202 380.208 265.275C379.971 266.041 380.01 266.88 380.405 267.646C381.232 269.142 384.976 271.222 385.686 272.682C385.922 273.193 385.922 274.324 385.803 274.835C385.606 275.783 384.109 277.425 383.991 278.411C383.636 281.33 384.976 284.212 385.567 286.11C385.646 286.365 385.725 286.657 385.843 286.985C386.198 288.08 386.749 289.54 387.38 290.233C388.089 291.036 389.981 292.459 391.124 292.86C392.227 293.225 394.749 293.116 395.971 293.152C399.557 293.225 406.572 292.058 410.158 291.875C412.089 291.766 415.202 291.218 418.237 290.89C420.759 290.634 423.241 290.525 425.015 290.926C425.527 291.036 426 291.218 426.394 291.474C431.044 294.356 429.901 305.267 429.113 309.864C428.325 314.133 426.749 321.249 425.015 328.802C425.093 328.802 425.133 328.802 425.211 328.802C467.89 328.802 513.446 311.652 519.397 280.855C520.027 277.571 520.146 272.244 520.461 269.58C520.934 265.712 521.367 259.655 523.456 256.152C523.574 255.97 524.087 255.349 524.599 254.729C525.072 254.145 525.584 253.598 525.741 253.452C527.16 252.102 528.579 250.752 529.998 249.365C531.416 247.979 532.835 246.556 534.214 245.096C538.549 240.133 542.372 234.842 545.564 229.333C565.701 194.558 547.14 152.706 501.821 138.037" fill="#F9B49C"/>
<path d="M188.702 325.08H159.382V285.599C159.382 279.323 165.963 274.214 174.041 274.214C182.12 274.214 188.702 279.323 188.702 285.599V325.08Z" fill="#198EBE"/>
<path d="M239.537 167.302L270.512 143.255C267.793 141.723 264.955 140.263 262.078 138.95L232.522 161.901L239.537 167.338V167.302Z" fill="#334242"/>
<path d="M270.541 143.256L239.566 167.302L232.552 161.865L233.419 161.208L226.562 155.881L253.123 135.264C238.897 130.01 223.015 127.054 206.227 127.054C184.829 127.054 165.44 133.768 151.45 144.678L206.227 187.225L151.45 229.771C165.479 240.645 184.829 247.395 206.227 247.395C219.429 247.395 231.882 244.805 242.759 240.28H315.979V212.256C315.979 183.868 298.087 158.727 270.581 143.256" fill="#4ABAEB"/>
<path d="M233.386 161.208L262.076 138.914C259.159 137.563 256.164 136.359 253.09 135.265L226.529 155.881L233.386 161.208Z" fill="#4ABAEB"/>
<path d="M315.916 300.231H274.617C226.184 300.231 186.894 269.726 186.894 232.106V194.522L315.877 240.28V300.231H315.916Z" fill="#4ABAEB"/>
<path d="M315.898 274.214V300.231C321.258 300.231 325.594 296.874 325.594 292.714V281.731C325.594 277.571 321.258 274.214 315.898 274.214Z" fill="#4ABAEB"/>
<path d="M315.95 209.958V254.329C321.31 254.329 325.646 250.972 325.646 246.812V217.475C320.325 217.475 315.99 214.118 315.99 209.958" fill="#4ABAEB"/>
<path d="M194.139 315.886C194.139 324.497 185.153 331.503 174.04 331.503C162.927 331.503 153.942 324.497 153.942 315.886C153.942 307.274 162.927 300.268 174.04 300.268C185.153 300.268 194.139 307.274 194.139 315.886Z" fill="#334242"/>
<path d="M273.811 283.009C238.107 283.009 209.182 260.532 209.182 232.837C244.885 232.837 273.811 255.314 273.811 283.009Z" fill="#23A1D2"/>
<path d="M292.703 265.785H315.914V274.25H303.579C297.55 274.25 292.703 270.455 292.703 265.785Z" fill="#23A1D2"/>
<path d="M305.018 245.826H315.896V254.292C309.866 254.292 305.018 250.497 305.018 245.826Z" fill="#23A1D2"/>
<path d="M247.536 257.905C247.536 260.495 244.856 262.575 241.546 262.575C238.235 262.575 235.556 260.495 235.556 257.905C235.556 255.314 238.235 253.234 241.546 253.234C244.856 253.234 247.536 255.314 247.536 257.905Z" fill="#334242"/>
<path d="M244.541 226.743C244.541 228.02 243.201 229.078 241.545 229.078C239.89 229.078 238.55 228.02 238.55 226.743C238.55 225.466 239.89 224.408 241.545 224.408C243.201 224.408 244.541 225.466 244.541 226.743Z" fill="#334242"/>
<path d="M270.539 158.763C270.539 160.04 269.199 161.098 267.544 161.098C265.889 161.098 264.549 160.04 264.549 158.763C264.549 157.486 265.889 156.428 267.544 156.428C269.199 156.428 270.539 157.486 270.539 158.763Z" fill="#334242"/>
<g style="mix-blend-mode:overlay" opacity="0.5">
<mask id="mask0_478_4314" style="mask-type:luminance" maskUnits="userSpaceOnUse" x="285" y="218" width="21" height="42">
<path d="M305.028 218.533H285.482V259.656H305.028V218.533Z" fill="white"/>
</mask>
<g mask="url(#mask0_478_4314)">
<path d="M305.028 259.656C294.231 259.656 285.482 252.869 285.482 244.476V218.533H305.028V259.656Z" fill="white"/>
</g>
</g>
<path d="M289.136 221.378L304.86 209.154C302.811 207.585 299.54 207.585 297.491 209.154L285.432 218.532L289.097 221.378H289.136Z" fill="#23A1D2"/>
<path d="M285.482 218.532L297.541 227.91C299.59 229.479 302.861 229.479 304.911 227.91L289.187 215.686L285.522 218.532H285.482Z" fill="#23A1D2"/>
<path d="M306.141 210.395C305.707 209.957 305.313 209.483 304.761 209.082L292.703 218.423L304.761 227.764C305.274 227.363 305.707 226.888 306.141 226.451C301.412 221.707 301.412 215.103 306.141 210.322" fill="white"/>
<path d="M308.689 213.935C308.098 212.694 307.231 211.527 306.127 210.432C301.398 215.175 301.398 221.78 306.127 226.56C307.231 225.465 308.098 224.298 308.689 223.057C310.068 220.138 310.068 216.927 308.689 213.971" fill="#334242"/>
<path d="M210.377 187.371C210.377 189.195 208.485 190.692 206.12 190.692C203.755 190.692 201.864 189.195 201.864 187.371C201.864 185.546 203.755 184.051 206.12 184.051C208.485 184.051 210.377 185.546 210.377 187.371Z" fill="#1A2121"/>
<path d="M182.62 315.885C182.62 319.571 178.758 322.563 173.99 322.563C169.221 322.563 165.399 319.571 165.399 315.885C165.399 312.2 169.261 309.208 173.99 309.208C178.719 309.208 182.62 312.2 182.62 315.885Z" fill="white"/>
<path d="M400.663 258.343H379.068C379.265 258.562 379.462 258.781 379.699 258.927C380.566 259.547 382.89 260.642 383.009 261.554C383.087 262.393 380.566 264.327 380.25 265.13C380.25 265.203 380.25 265.312 380.211 265.385H391.639C396.644 265.385 400.703 262.247 400.703 258.343" fill="#E59780"/>
<path d="M415.373 221.378L399.649 209.154C401.699 207.585 404.969 207.585 407.019 209.154L419.078 218.532L415.413 221.378H415.373Z" fill="#E59780"/>
<path d="M419.043 218.532L406.985 227.91C404.935 229.479 401.664 229.479 399.615 227.91L415.339 215.686L419.004 218.532H419.043Z" fill="#E59780"/>
<path d="M398.393 210.395C398.826 209.958 399.22 209.483 399.772 209.082L411.831 218.423L399.772 227.764C399.259 227.363 398.826 226.889 398.393 226.451C403.122 221.707 403.122 215.103 398.393 210.323" fill="white"/>
<path d="M395.822 213.935C396.413 212.694 397.28 211.527 398.345 210.432C403.074 215.175 403.074 221.78 398.345 226.56C397.241 225.465 396.374 224.298 395.822 223.057C394.443 220.138 394.443 216.927 395.822 213.971" fill="#334242"/>
<path d="M461.608 247.395V218.532C461.608 212.694 467.676 207.987 475.164 207.987C482.652 207.987 488.721 212.694 488.721 218.532V226.305C488.721 237.945 476.583 247.395 461.568 247.395" fill="#E59780"/>
<path d="M421.944 204.995H389.118C389.118 200.543 393.768 196.931 399.521 196.931H432.348C432.348 201.382 427.698 204.995 421.944 204.995Z" fill="#334242"/>
<path d="M425.096 330.481L422.535 330.408L422.889 328.547C424.938 319.753 426.318 313.404 426.988 309.646C428.209 302.859 428.091 294.649 425.057 292.751C424.978 292.678 424.781 292.605 424.347 292.496C423.086 292.204 420.761 292.277 418.475 292.496C417.214 292.642 415.914 292.824 414.732 292.97C412.998 293.189 411.422 293.408 410.279 293.481C408.86 293.554 406.89 293.81 404.801 294.029C401.688 294.394 398.495 294.758 396.21 294.758H395.028H394.476C392.703 294.758 391.323 294.685 390.299 294.357C388.643 293.81 386.476 292.095 385.649 291.146C385.018 290.416 384.466 289.249 383.836 287.388L383.166 285.417C382.496 283.52 381.589 280.929 381.905 278.265C382.023 277.463 382.535 276.623 383.048 275.82C383.284 275.456 383.678 274.799 383.718 274.616C383.797 274.252 383.757 273.485 383.718 273.266C383.521 272.865 382.378 271.953 381.55 271.296C380.289 270.274 379.067 269.325 378.516 268.304C377.964 267.282 377.846 266.114 378.2 264.947L378.279 264.582C378.516 263.998 379.028 263.451 379.816 262.648C380.132 262.319 380.565 261.882 380.841 261.553C380.526 261.371 379.777 260.933 379.383 260.714C378.989 260.459 378.634 260.276 378.358 260.057C378.004 259.802 377.688 259.51 377.451 259.218C376.506 258.196 375.875 256.883 375.718 256.481C375.166 255.314 375.166 253.891 375.639 252.65C376.033 251.665 377.018 250.753 378.122 249.767C378.713 249.22 379.738 248.308 379.856 247.943C379.541 247.943 378.91 247.87 378.516 247.833C377.727 247.76 377.018 247.724 376.388 247.541C375.954 247.432 375.403 247.323 374.811 247.177C372.171 246.593 368.585 245.79 366.733 244.039C364.88 242.287 364.881 239.441 365.078 237.908C365.275 236.011 367.087 232.982 368.112 231.304C369.491 229.151 372.21 226.597 375.048 223.896C376.939 222.109 378.91 220.284 380.525 218.46C383.126 215.613 384.387 213.461 384.348 211.928C384.348 211.344 382.575 209.775 381.59 208.936C380.407 207.914 379.304 206.929 378.752 205.944C378.201 204.995 377.57 203.39 377.176 201.857V201.529C377.136 197.077 377.688 192.589 378.792 188.137C380.289 182.007 382.89 176.059 386.437 170.44C401.806 146.175 432.978 131.105 467.775 131.105C479.873 131.105 491.578 132.929 502.651 136.505C524.089 143.438 540.68 156.684 549.35 173.76C558.492 191.713 557.783 212.183 547.498 229.99C544.266 235.573 540.404 240.937 535.951 246.009C534.493 247.505 533.074 248.965 531.656 250.351C530.237 251.738 528.818 253.124 527.4 254.474C527.242 254.62 526.848 255.095 526.414 255.642C525.981 256.153 525.547 256.7 525.39 256.883C523.735 259.656 523.183 264.582 522.789 268.158L522.592 269.763C522.474 270.712 522.395 272.062 522.276 273.522C522.119 276.076 521.922 278.959 521.488 281.111C515.223 313.477 468.327 330.445 425.214 330.445M422.141 289.029C423.52 289.029 424.702 289.139 425.687 289.394C426.515 289.613 427.224 289.869 427.776 290.234C433.451 293.773 432.071 305.304 431.244 310.084C430.613 313.587 429.392 319.315 427.579 327.161C467.302 326.54 511.636 310.303 517.39 280.637C517.784 278.667 517.942 275.857 518.139 273.376C518.257 271.843 518.336 270.493 518.454 269.471L518.651 267.902C519.085 263.852 519.676 258.853 521.646 255.496C521.764 255.277 522.355 254.584 522.907 253.891C523.419 253.27 523.971 252.65 524.168 252.468C525.626 251.117 527.006 249.767 528.424 248.381C529.843 246.994 531.222 245.571 532.601 244.148C536.857 239.295 540.601 234.077 543.715 228.677C553.567 211.673 554.197 192.115 545.488 174.965C537.212 158.727 521.449 146.138 501.075 139.534C490.513 136.104 479.322 134.389 467.815 134.389C434.633 134.389 404.919 148.765 390.259 171.899C386.87 177.263 384.387 182.919 382.969 188.757C381.944 192.954 381.392 197.186 381.392 201.346C381.747 202.587 382.26 203.901 382.654 204.63C382.929 205.141 383.954 206.017 384.821 206.783C386.673 208.389 388.604 210.104 388.644 211.892C388.683 214.19 387.225 216.891 384.072 220.357C382.338 222.255 380.329 224.152 378.398 225.976C375.679 228.531 373.117 230.939 371.974 232.763C370.516 235.062 369.452 237.251 369.334 238.2C369.137 239.879 369.452 241.411 370.082 241.995C371.107 242.98 374.102 243.637 376.072 244.075C376.742 244.221 377.334 244.367 377.846 244.476C378.043 244.513 378.673 244.586 379.067 244.622C380.565 244.732 382.26 244.878 383.324 245.79C384.388 246.702 384.19 248.308 384.033 248.782C383.678 249.877 382.575 250.862 381.432 251.92C380.841 252.467 379.935 253.307 379.777 253.635C379.54 254.183 379.58 254.912 379.777 255.423C380.013 255.97 380.486 256.81 380.998 257.357C381.195 257.576 381.274 257.649 381.314 257.685C381.511 257.831 381.787 257.977 382.062 258.16C383.442 258.963 385.136 259.984 385.294 261.371C385.412 262.466 384.427 263.487 383.324 264.655C383.048 264.947 382.653 265.312 382.496 265.531C382.496 265.604 382.496 265.677 382.456 265.75C382.299 266.224 382.338 266.698 382.535 267.1C382.772 267.538 383.875 268.45 384.703 269.07C386.043 270.128 387.304 271.113 387.816 272.208C388.249 273.157 388.171 274.616 388.052 275.2C387.895 275.893 387.461 276.587 386.988 277.317C386.752 277.718 386.279 278.411 386.24 278.667C386.003 280.747 386.752 282.899 387.382 284.651L388.052 286.658C388.722 288.628 389.156 289.249 389.313 289.431C389.865 290.088 391.481 291.219 392.112 291.474C392.309 291.547 392.86 291.62 394.634 291.62H395.658H396.17C398.377 291.62 401.53 291.255 404.368 290.927C406.574 290.672 408.663 290.416 410.16 290.343C411.224 290.27 412.643 290.088 414.18 289.869C415.441 289.686 416.781 289.504 418.121 289.358C419.54 289.212 420.958 289.103 422.258 289.103" fill="#010101"/>
<path d="M480.19 122.238H424.742C415.599 122.238 408.191 128.003 408.191 135.082V150.809C422.851 150.809 435.816 160.04 435.816 171.388V218.496C435.816 221.78 439.245 224.407 443.422 224.407C447.599 224.407 451.027 221.743 451.027 218.496V216.197C451.027 205.761 460.682 196.383 474.002 195.179C489.884 193.72 503.362 203.316 503.362 215.358V248.745C503.362 255.97 510.928 261.845 520.228 261.845H542.178C550.769 261.845 557.744 256.408 557.744 249.767V182.554C557.744 149.276 522.987 122.274 480.111 122.274" fill="#334242"/>
<path d="M542.256 263.487H520.305C509.822 263.487 501.311 256.883 501.311 248.746V215.358C501.311 204.302 488.897 195.472 474.316 196.785C462.257 197.88 453.193 206.236 453.193 216.198V218.496C453.193 222.656 448.819 226.05 443.459 226.05C438.1 226.05 433.725 222.656 433.725 218.496V171.389C433.725 161.099 422.061 152.415 408.228 152.415H406.14V135.082C406.14 127.091 414.494 120.596 424.78 120.596H480.227C524.167 120.596 559.95 148.364 559.95 182.482V249.695C559.95 257.248 552.029 263.415 542.295 263.415M477.311 193.355C492.877 193.355 505.566 203.207 505.566 215.285V248.673C505.566 255.022 512.187 260.167 520.344 260.167H542.295C549.743 260.167 555.772 255.46 555.772 249.695V182.482C555.772 150.152 521.882 123.843 480.267 123.843H424.819C416.859 123.843 410.357 128.879 410.357 135.082V149.24C425.529 150.079 437.982 159.895 437.982 171.389V218.496C437.982 220.868 440.464 222.802 443.499 222.802C446.533 222.802 449.016 220.868 449.016 218.496V216.198C449.016 204.594 459.696 194.851 473.843 193.574C474.986 193.465 476.129 193.428 477.272 193.428" fill="#010101"/>
<path d="M315.898 301.874H274.599C232.511 301.874 195.861 278.922 186.876 247.14C172.847 244.44 160.078 238.821 149.872 230.939L148.374 229.808L184.748 201.565V192.078L193.142 195.07L203.152 187.298L148.374 144.751L149.872 143.62C164.886 131.944 184.866 125.522 206.147 125.522C222.777 125.522 238.855 128.331 253.949 133.878C257.456 135.155 260.451 136.395 263.131 137.636C266.047 138.986 268.924 140.446 271.761 142.051C299.347 157.596 316.332 182.189 317.908 208.425H318.026V210.067C318.026 213.315 321.416 215.942 325.593 215.942H327.681V246.885C327.681 251.373 323.504 255.095 318.026 255.898V272.865C323.504 273.631 327.681 277.353 327.681 281.841V292.825C327.681 297.86 322.401 301.984 315.898 301.984M154.364 229.881C164.059 236.996 176.039 241.995 189.162 244.33L190.462 244.586L190.738 245.608C198.817 276.405 234.087 298.772 274.638 298.772H315.938C320.115 298.772 323.504 296.145 323.504 292.898V281.914C323.504 278.667 320.115 276.04 315.938 276.04H313.849V252.869H315.938C320.115 252.869 323.504 250.242 323.504 246.994V219.153C319.012 218.533 315.386 215.905 314.243 212.475H313.849C313.849 185.802 297.219 160.478 269.318 144.788C266.599 143.255 263.84 141.832 261.042 140.555C258.481 139.388 255.604 138.22 252.215 136.943C237.713 131.579 222.225 128.879 206.225 128.879C186.797 128.879 168.472 134.534 154.404 144.897L209.181 187.444L194.167 199.12L189.044 197.296V203.098L154.404 229.99L154.364 229.881Z" fill="#010101"/>
<path d="M139.988 236.084C142.707 238.201 146.45 239.478 150.549 239.478C158.824 239.478 165.524 234.26 165.524 227.874C165.524 224.663 163.829 221.78 161.15 219.664L139.988 236.084Z" fill="#355A60"/>
<path d="M159.187 227.873C159.187 231.559 155.325 234.551 150.556 234.551C145.788 234.551 141.966 231.559 141.966 227.873C141.966 224.188 145.827 221.196 150.556 221.196C155.285 221.196 159.187 224.188 159.187 227.873Z" fill="#334242"/>
<path d="M153.931 227.874C153.931 229.333 152.394 230.501 150.542 230.501C148.69 230.501 147.153 229.333 147.153 227.874C147.153 226.414 148.69 225.246 150.542 225.246C152.394 225.246 153.931 226.414 153.931 227.874Z" fill="white"/>
<path d="M255.379 187.225C255.379 208.315 233.35 225.428 206.198 225.428C179.046 225.428 157.017 208.315 157.017 187.225C157.017 166.134 179.046 149.02 206.198 149.02C233.35 149.02 255.379 166.134 255.379 187.225Z" fill="#334242"/>
<path d="M206.176 227.035C177.881 227.035 154.906 209.155 154.906 187.225C154.906 165.295 177.92 147.415 206.176 147.415C234.431 147.415 257.446 165.295 257.446 187.225C257.446 209.155 234.431 227.035 206.176 227.035ZM206.176 150.626C180.206 150.626 159.083 167.046 159.083 187.188C159.083 207.331 180.206 223.751 206.176 223.751C232.146 223.751 253.269 207.331 253.269 187.188C253.269 167.046 232.146 150.626 206.176 150.626Z" fill="#010101"/>
<path d="M206.193 159.493C186.489 159.493 170.49 171.899 170.49 187.225C170.49 194.887 174.47 201.82 180.932 206.819L231.414 167.63C224.951 162.631 216.045 159.529 206.193 159.529" fill="#1A2121"/>
<path d="M231.428 167.631L180.946 206.82C187.409 211.819 196.315 214.92 206.207 214.92C225.911 214.92 241.911 202.514 241.911 187.189C241.911 179.526 237.93 172.593 231.467 167.594" fill="#4ABAEB"/>
<path d="M206.181 159.493C216.033 159.493 224.939 162.594 231.402 167.593C237.865 172.592 241.845 179.525 241.845 187.188C241.845 202.513 225.885 214.919 206.141 214.919C196.289 214.919 187.344 211.818 180.92 206.819C174.457 201.82 170.477 194.887 170.477 187.224C170.477 171.899 186.437 159.493 206.181 159.493ZM206.181 156.245C184.191 156.245 166.3 170.148 166.3 187.224C166.3 195.507 170.437 203.28 177.964 209.118C185.491 214.956 195.501 218.204 206.181 218.204C228.17 218.204 246.062 204.301 246.062 187.224C246.062 178.941 241.924 171.169 234.397 165.331C226.87 159.493 216.86 156.245 206.22 156.245" fill="#010101"/>
<path d="M192.863 181.314L197.435 184.853C196.646 186.459 196.646 188.247 197.435 189.852L192.863 193.392L198.262 197.588L202.833 194.048C204.922 194.669 207.208 194.632 209.296 194.048L213.868 197.588L219.267 193.392L214.695 189.852C215.483 188.247 215.483 186.459 214.695 184.853L219.267 181.314L213.868 177.117L209.296 180.657C207.208 180.073 204.922 180.073 202.833 180.657L198.262 177.117L192.863 181.314ZM209.099 184.999C210.754 186.276 210.754 188.393 209.099 189.706C207.444 191.02 204.725 191.02 203.07 189.706C201.414 188.429 201.375 186.313 203.07 184.999C204.725 183.686 207.444 183.686 209.099 184.999Z" fill="white"/>
<path d="M215.498 194.632C210.336 198.646 201.942 198.646 196.74 194.632L194.257 196.566C200.799 201.638 211.479 201.638 218.02 196.566C224.562 191.458 224.523 183.211 218.02 178.139L215.498 180.073C220.661 184.087 220.7 190.618 215.498 194.632Z" fill="#010101"/>
<path d="M194.215 178.139C187.673 183.248 187.673 191.494 194.215 196.566L196.697 194.632C191.535 190.618 191.496 184.087 196.697 180.073C201.86 176.059 210.254 176.059 215.416 180.073L217.938 178.139C211.357 173.067 200.717 173.067 194.176 178.139" fill="#010101"/>
<path d="M194.264 196.602C187.722 191.53 187.682 183.247 194.264 178.175C200.805 173.067 211.446 173.067 218.027 178.175L229.376 169.345L226.342 167.01L220.549 170.439C218.382 169.308 216.017 168.506 213.574 167.922L213.219 162.266L204.707 161.682L203.091 167.192C200.569 167.411 198.086 167.922 195.682 168.724L190.717 164.601L183.703 168.433L187.052 173.468C185.239 174.964 183.781 176.606 182.678 178.358L175.466 177.664L173.259 184.086L179.998 186.276C179.84 188.246 180.077 190.253 180.668 192.187L174.56 195.252L178.185 201.273L185.121 199.594C185.87 200.397 186.698 201.127 187.643 201.857L194.303 196.675L194.264 196.602Z" fill="#334242"/>
<path d="M210.377 187.371C210.377 189.195 208.485 190.692 206.12 190.692C203.755 190.692 201.864 189.195 201.864 187.371C201.864 185.546 203.755 184.051 206.12 184.051C208.485 184.051 210.377 185.51 210.377 187.371Z" fill="#1A2121"/>
<path d="M339.744 124.755C338.601 124.755 337.655 124.025 337.655 123.113V94.6151C337.655 93.7029 338.601 92.9731 339.744 92.9731C340.887 92.9731 341.833 93.7029 341.833 94.6151V123.113C341.833 124.025 340.887 124.755 339.744 124.755Z" fill="#010101"/>
<path d="M308.254 202.587H265.693C264.55 202.587 263.604 201.857 263.604 200.945C263.604 200.033 264.55 199.303 265.693 199.303H308.254C309.397 199.303 310.342 200.033 310.342 200.945C310.342 201.857 309.397 202.587 308.254 202.587Z" fill="#010101"/>
</svg>
