<svg width="1300" height="400" viewBox="0 0 1300 400" fill="none" xmlns="http://www.w3.org/2000/svg">
<rect y="0.997506" width="1300" height="399.003" rx="20" fill="#E2F3F1"/>
<mask id="mask0_536_6402" style="mask-type:alpha" maskUnits="userSpaceOnUse" x="0" y="0" width="1300" height="400">
<rect width="1300" height="399.003" rx="20" fill="#E2F3F1"/>
</mask>
<g mask="url(#mask0_536_6402)">
<ellipse cx="214.401" cy="157.841" rx="214.401" ry="157.841" transform="matrix(0.90305 -0.429535 0.431287 0.902215 388 150.27)" fill="#CBE5F6"/>
<path d="M623.5 222.943C616.334 192.186 587 136.159 527 158.105C467 180.05 498.258 212.159 521 217.456C542.31 222.42 561.001 208.678 553.001 171.571C545.001 134.464 517.334 113.882 504.501 108.229C493.167 103.574 431.9 92.1695 397.5 139.651C354.5 199.002 302.181 262.53 276.5 217.456C268.986 204.269 282.335 186.695 283.5 171.571" stroke="black" stroke-width="4" stroke-dasharray="6 6"/>
<path d="M288 170.079C316.991 170.079 340.5 146.634 340.5 117.706C340.5 88.7776 316.991 65.3331 288 65.3331C259.009 65.3331 235.5 88.7776 235.5 117.706C235.5 146.634 259.009 170.079 288 170.079Z" fill="white" stroke="black" stroke-width="3"/>
<path d="M1013 276.812C1041.99 276.812 1065.5 253.367 1065.5 224.439C1065.5 195.511 1041.99 172.066 1013 172.066C984.009 172.066 960.5 195.511 960.5 224.439C960.5 253.367 984.009 276.812 1013 276.812Z" fill="white" stroke="black" stroke-width="3"/>
<path d="M687.5 269.327C692 207.648 728.4 82.9926 838 77.8055C975 71.3217 917.5 190.524 867.5 171.571C827.5 156.409 831.167 118.703 838 101.746C852.667 77.1404 896.4 32.0199 954 48.379C1011.6 64.7381 1022.33 137.323 1020.5 171.571" stroke="black" stroke-width="4" stroke-dasharray="6 6"/>
<path d="M1015.5 252.507C1015.5 256.566 1018.8 259.854 1022.86 259.854C1026.41 259.854 1029.38 257.341 1030.07 253.996C1030.21 254.003 1030.34 254.007 1030.48 254.007C1034.87 254.007 1038.43 250.462 1038.43 246.074C1038.43 245.946 1038.43 245.818 1038.42 245.69C1042.42 244.986 1045.47 241.498 1045.47 237.303C1045.47 235.845 1045.1 234.467 1044.44 233.265C1047.8 231.745 1050.16 228.375 1050.16 224.439C1050.16 220.501 1047.81 217.127 1044.44 215.609C1045.09 214.411 1045.47 213.039 1045.47 211.575C1045.47 207.379 1042.42 203.892 1038.42 203.187C1038.43 203.06 1038.43 202.932 1038.43 202.803C1038.43 198.416 1034.87 194.871 1030.48 194.871C1030.34 194.871 1030.21 194.875 1030.07 194.882C1029.38 191.537 1026.41 189.024 1022.86 189.024C1018.8 189.024 1015.5 192.311 1015.5 196.371V252.507Z" fill="#F4BD4D" stroke="black" stroke-width="3"/>
<path d="M1027.07 212.744H1015.34V210.405H1025.9V205.727H1028.24V211.575C1028.24 212.218 1027.71 212.744 1027.07 212.744Z" fill="#202030"/>
<path d="M1031.76 218.591H1015.34V220.93H1031.76V218.591Z" fill="#202030"/>
<path d="M1035.28 234.964H1032.93V229.117H1015.34V226.778H1034.1C1034.75 226.778 1035.28 227.304 1035.28 227.947V234.964Z" fill="#202030"/>
<path d="M1023.55 227.947H1021.21V243.151H1023.55V227.947Z" fill="#202030"/>
<path d="M1027.07 206.897C1025.13 206.897 1023.55 205.318 1023.55 203.388C1023.55 201.458 1025.13 199.88 1027.07 199.88C1029 199.88 1030.59 201.458 1030.59 203.388C1030.59 205.318 1029 206.897 1027.07 206.897ZM1027.07 202.219C1026.42 202.219 1025.9 202.745 1025.9 203.388C1025.9 204.031 1026.42 204.558 1027.07 204.558C1027.71 204.558 1028.24 204.031 1028.24 203.388C1028.24 202.745 1027.71 202.219 1027.07 202.219Z" fill="#202030"/>
<path d="M1034.1 223.269C1032.17 223.269 1030.59 221.691 1030.59 219.761C1030.59 217.831 1032.17 216.252 1034.1 216.252C1036.04 216.252 1037.62 217.831 1037.62 219.761C1037.62 221.691 1036.04 223.269 1034.1 223.269ZM1034.1 218.591C1033.46 218.591 1032.93 219.118 1032.93 219.761C1032.93 220.404 1033.46 220.93 1034.1 220.93C1034.75 220.93 1035.28 220.404 1035.28 219.761C1035.28 219.118 1034.75 218.591 1034.1 218.591Z" fill="#202030"/>
<path d="M1022.38 248.998C1020.45 248.998 1018.86 247.419 1018.86 245.49C1018.86 243.56 1020.45 241.981 1022.38 241.981C1024.31 241.981 1025.9 243.56 1025.9 245.49C1025.9 247.419 1024.31 248.998 1022.38 248.998ZM1022.38 244.32C1021.73 244.32 1021.21 244.847 1021.21 245.49C1021.21 246.133 1021.73 246.659 1022.38 246.659C1023.02 246.659 1023.55 246.133 1023.55 245.49C1023.55 244.847 1023.02 244.32 1022.38 244.32Z" fill="#202030"/>
<path d="M1034.1 240.812C1032.17 240.812 1030.59 239.233 1030.59 237.303C1030.59 235.374 1032.17 233.795 1034.1 233.795C1036.04 233.795 1037.62 235.374 1037.62 237.303C1037.62 239.233 1036.04 240.812 1034.1 240.812ZM1034.1 236.134C1033.46 236.134 1032.93 236.66 1032.93 237.303C1032.93 237.947 1033.46 238.473 1034.1 238.473C1034.75 238.473 1035.28 237.947 1035.28 237.303C1035.28 236.66 1034.75 236.134 1034.1 236.134Z" fill="#202030"/>
<path d="M1001.79 259.854C1005.85 259.854 1009.16 256.566 1009.16 252.507V196.371C1009.16 192.311 1005.85 189.024 1001.79 189.024C998.243 189.024 995.273 191.537 994.582 194.882C994.447 194.875 994.31 194.871 994.172 194.871C989.783 194.871 986.224 198.416 986.224 202.803C986.224 202.932 986.227 203.06 986.234 203.187C982.236 203.892 979.19 207.379 979.19 211.575C979.19 213.039 979.567 214.411 980.218 215.609C976.846 217.127 974.5 220.501 974.5 224.439C974.5 228.375 976.851 231.745 980.213 233.265C979.56 234.467 979.19 235.845 979.19 237.303C979.19 241.498 982.236 244.986 986.234 245.69C986.227 245.818 986.224 245.946 986.224 246.074C986.224 250.462 989.783 254.007 994.172 254.007C994.31 254.007 994.447 254.003 994.582 253.996C995.273 257.341 998.243 259.854 1001.79 259.854Z" fill="#F4BD4D" stroke="black" stroke-width="3"/>
<path d="M1010.65 212.744H1002.45C1001.8 212.744 1001.28 212.218 1001.28 211.575V205.727H1003.62V210.405H1010.65V212.744Z" fill="#202030"/>
<path d="M994.241 227.947H991.896V219.761C991.896 219.118 992.424 218.591 993.069 218.591H1010.66V220.93H994.241V227.947Z" fill="#202030"/>
<path d="M1001.28 237.303H998.931V227.947C998.931 227.304 999.458 226.778 1000.1 226.778H1010.65V229.117H1001.28V237.303Z" fill="#202030"/>
<path d="M1002.45 206.897C1000.51 206.897 998.931 205.318 998.931 203.388C998.931 201.458 1000.51 199.88 1002.45 199.88C1004.38 199.88 1005.97 201.458 1005.97 203.388C1005.97 205.318 1004.38 206.897 1002.45 206.897ZM1002.45 202.219C1001.8 202.219 1001.28 202.745 1001.28 203.388C1001.28 204.031 1001.8 204.558 1002.45 204.558C1003.09 204.558 1003.62 204.031 1003.62 203.388C1003.62 202.745 1003.09 202.219 1002.45 202.219Z" fill="#202030"/>
<path d="M991.896 215.083C989.962 215.083 988.379 213.504 988.379 211.575C988.379 209.645 989.962 208.066 991.896 208.066C993.831 208.066 995.413 209.645 995.413 211.575C995.413 213.504 993.831 215.083 991.896 215.083ZM991.896 210.405C991.251 210.405 990.724 210.931 990.724 211.575C990.724 212.218 991.251 212.744 991.896 212.744C992.541 212.744 993.069 212.218 993.069 211.575C993.069 210.931 992.541 210.405 991.896 210.405Z" fill="#202030"/>
<path d="M993.069 233.795C991.135 233.795 989.552 232.216 989.552 230.286C989.552 228.357 991.135 226.778 993.069 226.778C995.003 226.778 996.586 228.357 996.586 230.286C996.586 232.216 995.003 233.795 993.069 233.795ZM993.069 229.117C992.424 229.117 991.897 229.643 991.897 230.286C991.897 230.93 992.424 231.456 993.069 231.456C993.714 231.456 994.241 230.93 994.241 230.286C994.241 229.643 993.714 229.117 993.069 229.117Z" fill="#202030"/>
<path d="M1000.1 243.151C998.169 243.151 996.586 241.572 996.586 239.642C996.586 237.713 998.169 236.134 1000.1 236.134C1002.04 236.134 1003.62 237.713 1003.62 239.642C1003.62 241.572 1002.04 243.151 1000.1 243.151ZM1000.1 238.473C999.458 238.473 998.931 238.999 998.931 239.642C998.931 240.286 999.458 240.812 1000.1 240.812C1000.75 240.812 1001.28 240.286 1001.28 239.642C1001.28 238.999 1000.75 238.473 1000.1 238.473Z" fill="#202030"/>
<path d="M1002.45 210.405H994.241V212.744H1002.45V210.405Z" fill="#202030"/>
<path d="M1010.65 247.829H1000.1C999.458 247.829 998.931 247.302 998.931 246.659V241.981H1001.28V245.49H1010.65V247.829Z" fill="#202030"/>
<path d="M1032.93 210.405H1030.59V212.744H1032.93V210.405Z" fill="#202030"/>
<path d="M984.862 223.27H982.518V225.608H984.862V223.27Z" fill="#202030"/>
<path d="M991.897 237.303H989.552V239.642H991.897V237.303Z" fill="#202030"/>
<path d="M1042.31 223.27H1039.97V225.608H1042.31V223.27Z" fill="#202030"/>
<path d="M277.972 135.904V137.404H279.472H296.952H298.452V135.904V130.771C304.559 127.245 308.676 120.657 308.676 113.106V111.606H308.621C307.85 101.036 299.002 92.7066 288.211 92.7066C276.914 92.7066 267.747 101.835 267.747 113.106C267.747 120.657 271.864 127.245 277.972 130.771V135.904Z" fill="#FBCC7E" stroke="black" stroke-width="3"/>
<path d="M273.83 114.617C273.253 114.617 272.785 114.151 272.785 113.576C272.785 111.501 273.193 109.488 273.998 107.592C274.775 105.762 275.886 104.118 277.303 102.706C278.72 101.294 280.369 100.187 282.205 99.4122C284.108 98.6104 286.128 98.2037 288.21 98.2037C288.787 98.2037 289.255 98.67 289.255 99.2451C289.255 99.8202 288.787 100.287 288.21 100.287C280.856 100.287 274.875 106.249 274.875 113.576C274.875 114.151 274.407 114.617 273.83 114.617Z" fill="#FFDF9A"/>
<path d="M285.306 135.902C285.306 136.352 285.672 136.715 286.119 136.715C286.566 136.715 286.932 136.352 286.932 135.902V118.581C286.932 118.131 286.566 117.769 286.119 117.769C285.672 117.769 285.306 118.131 285.306 118.581V135.902Z" fill="black" stroke="black"/>
<path d="M289.492 135.903C289.492 136.353 289.858 136.715 290.305 136.715C290.753 136.715 291.119 136.353 291.119 135.903V118.581C291.119 118.131 290.753 117.769 290.305 117.769C289.858 117.769 289.492 118.131 289.492 118.581V135.903Z" fill="black" stroke="black"/>
<path d="M290.305 119.393H290.613L290.614 119.391H293.226C295.241 119.391 296.883 117.758 296.883 115.744V115.576C296.883 113.564 295.241 111.93 293.226 111.93C292.269 111.93 291.36 112.297 290.674 112.965C289.986 113.632 289.594 114.528 289.57 115.484L289.512 117.768H286.933V115.616C286.933 113.582 285.274 111.931 283.237 111.931C281.2 111.931 279.541 113.582 279.541 115.616V115.708C279.541 117.742 281.2 119.393 283.237 119.393H290.305ZM285.306 117.77H283.237C282.095 117.77 281.167 116.844 281.167 115.709V115.617C281.167 114.508 282.055 113.597 283.163 113.558H283.237C284.379 113.558 285.306 114.485 285.306 115.619V117.77ZM293.225 117.769H291.139L291.196 115.528C291.224 114.421 292.101 113.557 293.225 113.557C294.347 113.557 295.256 114.465 295.256 115.579V115.747C295.256 116.86 294.347 117.769 293.225 117.769Z" fill="black" stroke="black"/>
<path d="M284.068 150.623H292.353V151.318C292.353 151.778 291.978 152.151 291.517 152.151H284.904C284.443 152.151 284.068 151.778 284.068 151.318V150.623Z" fill="#2C2334"/>
<path d="M298.451 137.656V136.156H296.951H279.471H279.47H277.97V137.656V144.044C277.97 147.176 280.519 149.71 283.65 149.71H292.771C295.901 149.71 298.451 147.176 298.451 144.044V137.656Z" fill="#C5BA13" stroke="black" stroke-width="3"/>
<path d="M296.95 139.752H279.471V140.17H296.95V139.752Z" fill="#2C2334"/>
<path d="M296.95 141.815H279.471V142.232H296.95V141.815Z" fill="#2C2334"/>
<path d="M296.95 143.878H279.471V144.295H296.95V143.878Z" fill="#2C2334"/>
<path d="M288.211 79.4784V88.9935" stroke="black" stroke-width="5.5" stroke-miterlimit="10"/>
<path d="M261.207 90.6258L267.959 97.3548" stroke="black" stroke-width="5.5" stroke-miterlimit="10"/>
<path d="M308.464 137.722L315.216 144.451" stroke="black" stroke-width="5.5" stroke-miterlimit="10"/>
<path d="M250.021 117.539H259.569" stroke="black" stroke-width="5.5" stroke-miterlimit="10"/>
<path d="M316.854 117.539H326.401" stroke="black" stroke-width="5.5" stroke-miterlimit="10"/>
<path d="M261.207 144.451L267.959 137.722" stroke="black" stroke-width="5.5" stroke-miterlimit="10"/>
<path d="M308.465 97.3548L315.217 90.6258" stroke="black" stroke-width="5.5" stroke-miterlimit="10"/>
<path d="M702.5 228.137V220.952H703.315V228.137H702.5Z" fill="#16C1C1" stroke="black" stroke-width="3"/>
<path d="M706.317 228.137V220.952H707.133V228.137H706.317Z" fill="#108E8D" stroke="black" stroke-width="3"/>
<path d="M711.471 220.978L710.472 228.136H710.468H710.463H710.457H710.452H710.447H710.441H710.436H710.43H710.425H710.42H710.414H710.409H710.403H710.398H710.392H710.387H710.382H710.376H710.371H710.365H710.36H710.355H710.349H710.344H710.338H710.333H710.328H710.322H710.317H710.312H710.306H710.301H710.295H710.29H710.285H710.279H710.274H710.268H710.263H710.258H710.252H710.247H710.242H710.236H710.231H710.226H710.22H710.215H710.209H710.204H710.199H710.193H710.188H710.183H710.177H710.172H710.167H710.161H710.156H710.151H710.145H710.14H710.135H710.133V220.951H710.134H710.14H710.146H710.152H710.158H710.164H710.169H710.175H710.181H710.187H710.193H710.199H710.205H710.211H710.217H710.223H710.228H710.234H710.24H710.246H710.252H710.258H710.264H710.27H710.276H710.282H710.288H710.294H710.3H710.306H710.312H710.318H710.324H710.33H710.336H710.342H710.348H710.354H710.36H710.366H710.372H710.378H710.384H710.39H710.396H710.402H710.408H710.414H710.42H710.426H710.432H710.438H710.444H710.45H710.456H710.462H710.468H710.474H710.481H710.487H710.493H710.499H710.505H710.511H710.517H710.523H710.529H710.535H710.541H710.547H710.554H710.56H710.566H710.572H710.578H710.584H710.59H710.596H710.602H710.609H710.615H710.621H710.627H710.633H710.639H710.64C710.924 220.96 711.205 220.969 711.471 220.978Z" fill="#16C1C1" stroke="black" stroke-width="3"/>
<path d="M715.539 221.299C715.733 221.321 715.928 221.343 716.116 221.365L713.566 227.651L714.469 221.18C714.805 221.216 715.172 221.257 715.539 221.299Z" fill="#108E8D" stroke="black" stroke-width="3"/>
<path d="M716.811 227.641L719.147 221.882C719.509 221.962 719.917 222.054 720.324 222.147C720.407 222.166 720.491 222.185 720.574 222.204L716.811 227.641Z" fill="#16C1C1" stroke="black" stroke-width="3"/>
<path d="M724.859 223.51L720.367 227.907L723.704 223.085C724.048 223.2 724.436 223.339 724.812 223.491C724.828 223.497 724.843 223.503 724.859 223.51ZM722.694 222.771C722.694 222.771 722.694 222.771 722.694 222.771L722.694 222.771Z" fill="#108E8D" stroke="black" stroke-width="3"/>
<path d="M724.213 228.298L727.822 224.765C728.083 224.896 728.374 225.044 728.664 225.197L724.213 228.298Z" fill="#16C1C1" stroke="black" stroke-width="3"/>
<path d="M727.952 229.351L731.451 226.914C731.629 227.043 731.823 227.185 732.022 227.33L727.952 229.351Z" fill="#108E8D" stroke="black" stroke-width="3"/>
<path d="M734.545 229.423C734.656 229.535 734.774 229.655 734.895 229.777L731.459 230.955L734.545 229.423Z" fill="#16C1C1" stroke="black" stroke-width="3"/>
<mask id="path-57-inside-1_536_6402" fill="white">
<path d="M724.874 236.684C724.874 236.684 724.628 236.277 724.444 235.91C724.197 235.544 723.89 235.136 723.89 235.136L737.551 230.451C737.551 230.451 739.644 233.547 739.521 233.588L724.874 236.684Z"/>
</mask>
<path d="M724.874 236.684C724.874 236.684 724.628 236.277 724.444 235.91C724.197 235.544 723.89 235.136 723.89 235.136L737.551 230.451C737.551 230.451 739.644 233.547 739.521 233.588L724.874 236.684Z" fill="#108E8D"/>
<path d="M724.874 236.684L722.307 238.236L723.409 240.06L725.495 239.62L724.874 236.684ZM724.444 235.91L727.123 234.561L727.039 234.394L726.934 234.238L724.444 235.91ZM723.89 235.136L722.916 232.299L719.001 233.641L721.496 236.944L723.89 235.136ZM737.551 230.451L740.037 228.771L738.751 226.868L736.578 227.613L737.551 230.451ZM739.521 233.588L740.141 236.523L740.305 236.489L740.463 236.436L739.521 233.588ZM724.874 236.684C727.442 235.133 727.442 235.133 727.442 235.133C727.442 235.133 727.442 235.133 727.442 235.133C727.442 235.133 727.442 235.133 727.442 235.134C727.442 235.134 727.443 235.134 727.443 235.134C727.443 235.134 727.443 235.134 727.443 235.134C727.443 235.135 727.443 235.134 727.442 235.134C727.442 235.133 727.44 235.13 727.438 235.126C727.433 235.118 727.426 235.106 727.416 235.088C727.395 235.054 727.366 235.004 727.331 234.943C727.258 234.816 727.181 234.676 727.123 234.561L721.764 237.26C721.891 237.512 722.029 237.758 722.125 237.926C722.175 238.014 722.219 238.088 722.25 238.142C722.266 238.168 722.279 238.19 722.289 238.206C722.294 238.214 722.297 238.221 722.3 238.226C722.302 238.228 722.303 238.23 722.304 238.232C722.305 238.233 722.305 238.234 722.306 238.234C722.306 238.235 722.306 238.235 722.306 238.235C722.306 238.235 722.306 238.235 722.306 238.235C722.306 238.236 722.306 238.236 722.306 238.236C722.307 238.236 722.307 238.236 724.874 236.684ZM726.934 234.238C726.78 234.009 726.616 233.78 726.498 233.618C726.438 233.535 726.386 233.465 726.348 233.414C726.329 233.389 726.314 233.369 726.303 233.354C726.298 233.347 726.293 233.341 726.29 233.337C726.288 233.334 726.287 233.333 726.286 233.331C726.285 233.331 726.285 233.33 726.285 233.329C726.284 233.329 726.284 233.329 726.284 233.329C726.284 233.329 726.284 233.329 726.284 233.328C726.284 233.328 726.284 233.328 726.284 233.328C726.284 233.328 726.284 233.328 723.89 235.136C721.496 236.944 721.496 236.944 721.496 236.944C721.496 236.944 721.496 236.944 721.496 236.944C721.495 236.944 721.495 236.944 721.495 236.944C721.495 236.944 721.495 236.944 721.495 236.944C721.495 236.944 721.495 236.944 721.495 236.944C721.495 236.944 721.496 236.944 721.496 236.945C721.498 236.947 721.5 236.95 721.504 236.955C721.51 236.964 721.521 236.978 721.535 236.997C721.563 237.034 721.603 237.089 721.65 237.153C721.748 237.287 721.861 237.445 721.953 237.583L726.934 234.238ZM724.863 237.974L738.525 233.289L736.578 227.613L722.916 232.299L724.863 237.974ZM737.551 230.451C735.066 232.131 735.066 232.131 735.066 232.131C735.066 232.131 735.066 232.131 735.066 232.131C735.066 232.131 735.066 232.131 735.066 232.131C735.066 232.131 735.066 232.132 735.067 232.132C735.068 232.134 735.069 232.136 735.071 232.138C735.075 232.144 735.08 232.152 735.087 232.163C735.102 232.185 735.124 232.217 735.151 232.258C735.207 232.341 735.286 232.459 735.382 232.601C735.572 232.887 735.823 233.265 736.069 233.642C736.319 234.026 736.546 234.382 736.697 234.632C736.779 234.768 736.806 234.819 736.802 234.811C736.799 234.804 736.786 234.78 736.77 234.743C736.756 234.712 736.72 234.632 736.682 234.521C736.662 234.464 736.634 234.375 736.606 234.262C736.582 234.159 736.542 233.968 736.53 233.724C736.523 233.597 736.523 233.426 736.547 233.224C736.571 233.025 736.624 232.754 736.747 232.452C736.873 232.143 737.079 231.786 737.409 231.458C737.748 231.122 738.151 230.881 738.578 230.74L740.463 236.436C741.421 236.119 742.023 235.404 742.303 234.716C742.538 234.141 742.533 233.642 742.522 233.427C742.5 232.986 742.384 232.652 742.356 232.571C742.275 232.335 742.177 232.143 742.141 232.072C742.046 231.887 741.929 231.69 741.833 231.529C741.626 231.188 741.354 230.762 741.096 230.367C740.834 229.964 740.569 229.566 740.371 229.27C740.272 229.121 740.189 228.997 740.131 228.91C740.102 228.867 740.078 228.833 740.062 228.809C740.054 228.797 740.048 228.788 740.044 228.782C740.042 228.778 740.04 228.776 740.039 228.774C740.039 228.773 740.038 228.773 740.038 228.772C740.038 228.772 740.037 228.772 740.037 228.772C740.037 228.772 740.037 228.772 740.037 228.772C740.037 228.771 740.037 228.771 737.551 230.451ZM738.9 230.653L724.254 233.749L725.495 239.62L740.141 236.523L738.9 230.653Z" fill="black" mask="url(#path-57-inside-1_536_6402)"/>
<path d="M738.562 235.325C738.591 235.405 738.62 235.486 738.65 235.568L736.428 235.776L738.562 235.325Z" fill="#16C1C1" stroke="black" stroke-width="3"/>
<path d="M737.938 238.688L739.313 238.559C739.318 238.602 739.323 238.645 739.328 238.688H737.938Z" fill="#108E8D" stroke="black" stroke-width="3"/>
<mask id="path-61-inside-2_536_6402" fill="white">
<path d="M741 240.147H725.615V242.673H741V240.147Z"/>
</mask>
<path d="M741 240.147H725.615V242.673H741V240.147Z" fill="#16C1C1"/>
<path d="M725.615 240.147V237.147H722.615V240.147H725.615ZM741 240.147H744V237.147H741V240.147ZM741 242.673V245.673H744V242.673H741ZM725.615 242.673H722.615V245.673H725.615V242.673ZM725.615 243.147H741V237.147H725.615V243.147ZM738 240.147V242.673H744V240.147H738ZM741 239.673H725.615V245.673H741V239.673ZM728.615 242.673V240.147H722.615V242.673H728.615Z" fill="black" mask="url(#path-61-inside-2_536_6402)"/>
<mask id="path-63-inside-3_536_6402" fill="white">
<path d="M741 242.673H725.615V245.199H741V242.673Z"/>
</mask>
<path d="M741 242.673H725.615V245.199H741V242.673Z" fill="#108E8D"/>
<path d="M725.615 242.673V239.673H722.615V242.673H725.615ZM741 242.673H744V239.673H741V242.673ZM741 245.199V248.199H744V245.199H741ZM725.615 245.199H722.615V248.199H725.615V245.199ZM725.615 245.673H741V239.673H725.615V245.673ZM738 242.673V245.199H744V242.673H738ZM741 242.199H725.615V248.199H741V242.199ZM728.615 245.199V242.673H722.615V245.199H728.615Z" fill="black" mask="url(#path-63-inside-3_536_6402)"/>
<mask id="path-65-inside-4_536_6402" fill="white">
<path d="M741 245.199H725.615V247.725H741V245.199Z"/>
</mask>
<path d="M741 245.199H725.615V247.725H741V245.199Z" fill="#16C1C1"/>
<path d="M725.615 245.199V242.199H722.615V245.199H725.615ZM741 245.199H744V242.199H741V245.199ZM741 247.725V250.725H744V247.725H741ZM725.615 247.725H722.615V250.725H725.615V247.725ZM725.615 248.199H741V242.199H725.615V248.199ZM738 245.199V247.725H744V245.199H738ZM741 244.725H725.615V250.725H741V244.725ZM728.615 247.725V245.199H722.615V247.725H728.615Z" fill="black" mask="url(#path-65-inside-4_536_6402)"/>
<mask id="path-67-inside-5_536_6402" fill="white">
<path d="M741 247.725H725.615V250.251H741V247.725Z"/>
</mask>
<path d="M741 247.725H725.615V250.251H741V247.725Z" fill="#108E8D"/>
<path d="M725.615 247.725V244.725H722.615V247.725H725.615ZM741 247.725H744V244.725H741V247.725ZM741 250.251V253.251H744V250.251H741ZM725.615 250.251H722.615V253.251H725.615V250.251ZM725.615 250.725H741V244.725H725.615V250.725ZM738 247.725V250.251H744V247.725H738ZM741 247.251H725.615V253.251H741V247.251ZM728.615 250.251V247.725H722.615V250.251H728.615Z" fill="black" mask="url(#path-67-inside-5_536_6402)"/>
<mask id="path-69-inside-6_536_6402" fill="white">
<path d="M741 250.292H725.615V252.817H741V250.292Z"/>
</mask>
<path d="M741 250.292H725.615V252.817H741V250.292Z" fill="#16C1C1"/>
<path d="M725.615 250.292V247.292H722.615V250.292H725.615ZM741 250.292H744V247.292H741V250.292ZM741 252.817V255.817H744V252.817H741ZM725.615 252.817H722.615V255.817H725.615V252.817ZM725.615 253.292H741V247.292H725.615V253.292ZM738 250.292V252.817H744V250.292H738ZM741 249.817H725.615V255.817H741V249.817ZM728.615 252.817V250.292H722.615V252.817H728.615Z" fill="black" mask="url(#path-69-inside-6_536_6402)"/>
<mask id="path-71-inside-7_536_6402" fill="white">
<path d="M741 252.817H725.615V255.343H741V252.817Z"/>
</mask>
<path d="M741 252.817H725.615V255.343H741V252.817Z" fill="#108E8D"/>
<path d="M725.615 252.817V249.817H722.615V252.817H725.615ZM741 252.817H744V249.817H741V252.817ZM741 255.343V258.343H744V255.343H741ZM725.615 255.343H722.615V258.343H725.615V255.343ZM725.615 255.817H741V249.817H725.615V255.817ZM738 252.817V255.343H744V252.817H738ZM741 252.343H725.615V258.343H741V252.343ZM728.615 255.343V252.817H722.615V255.343H728.615Z" fill="black" mask="url(#path-71-inside-7_536_6402)"/>
<mask id="path-73-inside-8_536_6402" fill="white">
<path d="M741 255.344H725.615V257.87H741V255.344Z"/>
</mask>
<path d="M741 255.344H725.615V257.87H741V255.344Z" fill="#16C1C1"/>
<path d="M725.615 255.344V252.344H722.615V255.344H725.615ZM741 255.344H744V252.344H741V255.344ZM741 257.87V260.87H744V257.87H741ZM725.615 257.87H722.615V260.87H725.615V257.87ZM725.615 258.344H741V252.344H725.615V258.344ZM738 255.344V257.87H744V255.344H738ZM741 254.87H725.615V260.87H741V254.87ZM728.615 257.87V255.344H722.615V257.87H728.615Z" fill="black" mask="url(#path-73-inside-8_536_6402)"/>
<mask id="path-75-inside-9_536_6402" fill="white">
<path d="M741 257.87H725.615V260.396H741V257.87Z"/>
</mask>
<path d="M741 257.87H725.615V260.396H741V257.87Z" fill="#108E8D"/>
<path d="M725.615 257.87V254.87H722.615V257.87H725.615ZM741 257.87H744V254.87H741V257.87ZM741 260.396V263.396H744V260.396H741ZM725.615 260.396H722.615V263.396H725.615V260.396ZM725.615 260.87H741V254.87H725.615V260.87ZM738 257.87V260.396H744V257.87H738ZM741 257.396H725.615V263.396H741V257.396ZM728.615 260.396V257.87H722.615V260.396H728.615Z" fill="black" mask="url(#path-75-inside-9_536_6402)"/>
<mask id="path-77-inside-10_536_6402" fill="white">
<path d="M741 260.436H725.615V262.962H741V260.436Z"/>
</mask>
<path d="M741 260.436H725.615V262.962H741V260.436Z" fill="#16C1C1"/>
<path d="M725.615 260.436V257.436H722.615V260.436H725.615ZM741 260.436H744V257.436H741V260.436ZM741 262.962V265.962H744V262.962H741ZM725.615 262.962H722.615V265.962H725.615V262.962ZM725.615 263.436H741V257.436H725.615V263.436ZM738 260.436V262.962H744V260.436H738ZM741 259.962H725.615V265.962H741V259.962ZM728.615 262.962V260.436H722.615V262.962H728.615Z" fill="black" mask="url(#path-77-inside-10_536_6402)"/>
<mask id="path-79-inside-11_536_6402" fill="white">
<path d="M741 262.962H725.615V265.488H741V262.962Z"/>
</mask>
<path d="M741 262.962H725.615V265.488H741V262.962Z" fill="#108E8D"/>
<path d="M725.615 262.962V259.962H722.615V262.962H725.615ZM741 262.962H744V259.962H741V262.962ZM741 265.488V268.488H744V265.488H741ZM725.615 265.488H722.615V268.488H725.615V265.488ZM725.615 265.962H741V259.962H725.615V265.962ZM738 262.962V265.488H744V262.962H738ZM741 262.488H725.615V268.488H741V262.488ZM728.615 265.488V262.962H722.615V265.488H728.615Z" fill="black" mask="url(#path-79-inside-11_536_6402)"/>
<mask id="path-81-inside-12_536_6402" fill="white">
<path d="M741 265.488H725.615V268.014H741V265.488Z"/>
</mask>
<path d="M741 265.488H725.615V268.014H741V265.488Z" fill="#16C1C1"/>
<path d="M725.615 265.488V262.488H722.615V265.488H725.615ZM741 265.488H744V262.488H741V265.488ZM741 268.014V271.014H744V268.014H741ZM725.615 268.014H722.615V271.014H725.615V268.014ZM725.615 268.488H741V262.488H725.615V268.488ZM738 265.488V268.014H744V265.488H738ZM741 265.014H725.615V271.014H741V265.014ZM728.615 268.014V265.488H722.615V268.014H728.615Z" fill="black" mask="url(#path-81-inside-12_536_6402)"/>
<mask id="path-83-inside-13_536_6402" fill="white">
<path d="M741 268.014H725.615V270.54H741V268.014Z"/>
</mask>
<path d="M741 268.014H725.615V270.54H741V268.014Z" fill="#108E8D"/>
<path d="M725.615 268.014V265.014H722.615V268.014H725.615ZM741 268.014H744V265.014H741V268.014ZM741 270.54V273.54H744V270.54H741ZM725.615 270.54H722.615V273.54H725.615V270.54ZM725.615 271.014H741V265.014H725.615V271.014ZM738 268.014V270.54H744V268.014H738ZM741 267.54H725.615V273.54H741V267.54ZM728.615 270.54V268.014H722.615V270.54H728.615Z" fill="black" mask="url(#path-83-inside-13_536_6402)"/>
<mask id="path-85-inside-14_536_6402" fill="white">
<path d="M741 270.581H725.615V273.107H741V270.581Z"/>
</mask>
<path d="M741 270.581H725.615V273.107H741V270.581Z" fill="#16C1C1"/>
<path d="M725.615 270.581V267.581H722.615V270.581H725.615ZM741 270.581H744V267.581H741V270.581ZM741 273.107V276.107H744V273.107H741ZM725.615 273.107H722.615V276.107H725.615V273.107ZM725.615 273.581H741V267.581H725.615V273.581ZM738 270.581V273.107H744V270.581H738ZM741 270.107H725.615V276.107H741V270.107ZM728.615 273.107V270.581H722.615V273.107H728.615Z" fill="black" mask="url(#path-85-inside-14_536_6402)"/>
<mask id="path-87-inside-15_536_6402" fill="white">
<path d="M741 273.107H725.615V275.632H741V273.107Z"/>
</mask>
<path d="M741 273.107H725.615V275.632H741V273.107Z" fill="#108E8D"/>
<path d="M725.615 273.107V270.107H722.615V273.107H725.615ZM741 273.107H744V270.107H741V273.107ZM741 275.632V278.632H744V275.632H741ZM725.615 275.632H722.615V278.632H725.615V275.632ZM725.615 276.107H741V270.107H725.615V276.107ZM738 273.107V275.632H744V273.107H738ZM741 272.632H725.615V278.632H741V272.632ZM728.615 275.632V273.107H722.615V275.632H728.615Z" fill="black" mask="url(#path-87-inside-15_536_6402)"/>
<mask id="path-89-inside-16_536_6402" fill="white">
<path d="M741 275.632H725.615V278.158H741V275.632Z"/>
</mask>
<path d="M741 275.632H725.615V278.158H741V275.632Z" fill="#16C1C1"/>
<path d="M725.615 275.632V272.632H722.615V275.632H725.615ZM741 275.632H744V272.632H741V275.632ZM741 278.158V281.158H744V278.158H741ZM725.615 278.158H722.615V281.158H725.615V278.158ZM725.615 278.632H741V272.632H725.615V278.632ZM738 275.632V278.158H744V275.632H738ZM741 275.158H725.615V281.158H741V275.158ZM728.615 278.158V275.632H722.615V278.158H728.615Z" fill="black" mask="url(#path-89-inside-16_536_6402)"/>
<mask id="path-91-inside-17_536_6402" fill="white">
<path d="M741 278.158H725.615V280.684H741V278.158Z"/>
</mask>
<path d="M741 278.158H725.615V280.684H741V278.158Z" fill="#108E8D"/>
<path d="M725.615 278.158V275.158H722.615V278.158H725.615ZM741 278.158H744V275.158H741V278.158ZM741 280.684V283.684H744V280.684H741ZM725.615 280.684H722.615V283.684H725.615V280.684ZM725.615 281.158H741V275.158H725.615V281.158ZM738 278.158V280.684H744V278.158H738ZM741 277.684H725.615V283.684H741V277.684ZM728.615 280.684V278.158H722.615V280.684H728.615Z" fill="black" mask="url(#path-91-inside-17_536_6402)"/>
<mask id="path-93-inside-18_536_6402" fill="white">
<path d="M741 280.725H725.615V283.251H741V280.725Z"/>
</mask>
<path d="M741 280.725H725.615V283.251H741V280.725Z" fill="#16C1C1"/>
<path d="M725.615 280.725V277.725H722.615V280.725H725.615ZM741 280.725H744V277.725H741V280.725ZM741 283.251V286.251H744V283.251H741ZM725.615 283.251H722.615V286.251H725.615V283.251ZM725.615 283.725H741V277.725H725.615V283.725ZM738 280.725V283.251H744V280.725H738ZM741 280.251H725.615V286.251H741V280.251ZM728.615 283.251V280.725H722.615V283.251H728.615Z" fill="black" mask="url(#path-93-inside-18_536_6402)"/>
<mask id="path-95-inside-19_536_6402" fill="white">
<path d="M741 283.251H725.615V285.777H741V283.251Z"/>
</mask>
<path d="M741 283.251H725.615V285.777H741V283.251Z" fill="#108E8D"/>
<path d="M725.615 283.251V280.251H722.615V283.251H725.615ZM741 283.251H744V280.251H741V283.251ZM741 285.777V288.777H744V285.777H741ZM725.615 285.777H722.615V288.777H725.615V285.777ZM725.615 286.251H741V280.251H725.615V286.251ZM738 283.251V285.777H744V283.251H738ZM741 282.777H725.615V288.777H741V282.777ZM728.615 285.777V283.251H722.615V285.777H728.615Z" fill="black" mask="url(#path-95-inside-19_536_6402)"/>
<mask id="path-97-inside-20_536_6402" fill="white">
<path d="M741 285.777H725.615V288.303H741V285.777Z"/>
</mask>
<path d="M741 285.777H725.615V288.303H741V285.777Z" fill="#16C1C1"/>
<path d="M725.615 285.777V282.777H722.615V285.777H725.615ZM741 285.777H744V282.777H741V285.777ZM741 288.303V291.303H744V288.303H741ZM725.615 288.303H722.615V291.303H725.615V288.303ZM725.615 288.777H741V282.777H725.615V288.777ZM738 285.777V288.303H744V285.777H738ZM741 285.303H725.615V291.303H741V285.303ZM728.615 288.303V285.777H722.615V288.303H728.615Z" fill="black" mask="url(#path-97-inside-20_536_6402)"/>
<mask id="path-99-inside-21_536_6402" fill="white">
<path d="M741 288.303H725.615V290.828H741V288.303Z"/>
</mask>
<path d="M741 288.303H725.615V290.828H741V288.303Z" fill="#108E8D"/>
<path d="M725.615 288.303V285.303H722.615V288.303H725.615ZM741 288.303H744V285.303H741V288.303ZM741 290.828V293.828H744V290.828H741ZM725.615 290.828H722.615V293.828H725.615V290.828ZM725.615 291.303H741V285.303H725.615V291.303ZM738 288.303V290.828H744V288.303H738ZM741 287.828H725.615V293.828H741V287.828ZM728.615 290.828V288.303H722.615V290.828H728.615Z" fill="black" mask="url(#path-99-inside-21_536_6402)"/>
<mask id="path-101-inside-22_536_6402" fill="white">
<path d="M741 290.869H725.615V293.395H741V290.869Z"/>
</mask>
<path d="M741 290.869H725.615V293.395H741V290.869Z" fill="#16C1C1"/>
<path d="M725.615 290.869V287.869H722.615V290.869H725.615ZM741 290.869H744V287.869H741V290.869ZM741 293.395V296.395H744V293.395H741ZM725.615 293.395H722.615V296.395H725.615V293.395ZM725.615 293.869H741V287.869H725.615V293.869ZM738 290.869V293.395H744V290.869H738ZM741 290.395H725.615V296.395H741V290.395ZM728.615 293.395V290.869H722.615V293.395H728.615Z" fill="black" mask="url(#path-101-inside-22_536_6402)"/>
<mask id="path-103-inside-23_536_6402" fill="white">
<path d="M741 293.395H725.615V295.921H741V293.395Z"/>
</mask>
<path d="M741 293.395H725.615V295.921H741V293.395Z" fill="#108E8D"/>
<path d="M725.615 293.395V290.395H722.615V293.395H725.615ZM741 293.395H744V290.395H741V293.395ZM741 295.921V298.921H744V295.921H741ZM725.615 295.921H722.615V298.921H725.615V295.921ZM725.615 296.395H741V290.395H725.615V296.395ZM738 293.395V295.921H744V293.395H738ZM741 292.921H725.615V298.921H741V292.921ZM728.615 295.921V293.395H722.615V295.921H728.615Z" fill="black" mask="url(#path-103-inside-23_536_6402)"/>
<mask id="path-105-inside-24_536_6402" fill="white">
<path d="M741 295.921H725.615V298.447H741V295.921Z"/>
</mask>
<path d="M741 295.921H725.615V298.447H741V295.921Z" fill="#16C1C1"/>
<path d="M725.615 295.921V292.921H722.615V295.921H725.615ZM741 295.921H744V292.921H741V295.921ZM741 298.447V301.447H744V298.447H741ZM725.615 298.447H722.615V301.447H725.615V298.447ZM725.615 298.921H741V292.921H725.615V298.921ZM738 295.921V298.447H744V295.921H738ZM741 295.447H725.615V301.447H741V295.447ZM728.615 298.447V295.921H722.615V298.447H728.615Z" fill="black" mask="url(#path-105-inside-24_536_6402)"/>
<mask id="path-107-inside-25_536_6402" fill="white">
<path d="M741 298.447H725.615V300.973H741V298.447Z"/>
</mask>
<path d="M741 298.447H725.615V300.973H741V298.447Z" fill="#108E8D"/>
<path d="M725.615 298.447V295.447H722.615V298.447H725.615ZM741 298.447H744V295.447H741V298.447ZM741 300.973V303.973H744V300.973H741ZM725.615 300.973H722.615V303.973H725.615V300.973ZM725.615 301.447H741V295.447H725.615V301.447ZM738 298.447V300.973H744V298.447H738ZM741 297.973H725.615V303.973H741V297.973ZM728.615 300.973V298.447H722.615V300.973H728.615Z" fill="black" mask="url(#path-107-inside-25_536_6402)"/>
<mask id="path-109-inside-26_536_6402" fill="white">
<path d="M741 301.014H725.615V303.539H741V301.014Z"/>
</mask>
<path d="M741 301.014H725.615V303.539H741V301.014Z" fill="#16C1C1"/>
<path d="M725.615 301.014V298.014H722.615V301.014H725.615ZM741 301.014H744V298.014H741V301.014ZM741 303.539V306.539H744V303.539H741ZM725.615 303.539H722.615V306.539H725.615V303.539ZM725.615 304.014H741V298.014H725.615V304.014ZM738 301.014V303.539H744V301.014H738ZM741 300.539H725.615V306.539H741V300.539ZM728.615 303.539V301.014H722.615V303.539H728.615Z" fill="black" mask="url(#path-109-inside-26_536_6402)"/>
<mask id="path-111-inside-27_536_6402" fill="white">
<path d="M741 303.539H725.615V306.065H741V303.539Z"/>
</mask>
<path d="M741 303.539H725.615V306.065H741V303.539Z" fill="#108E8D"/>
<path d="M725.615 303.539V300.539H722.615V303.539H725.615ZM741 303.539H744V300.539H741V303.539ZM741 306.065V309.065H744V306.065H741ZM725.615 306.065H722.615V309.065H725.615V306.065ZM725.615 306.539H741V300.539H725.615V306.539ZM738 303.539V306.065H744V303.539H738ZM741 303.065H725.615V309.065H741V303.065ZM728.615 306.065V303.539H722.615V306.065H728.615Z" fill="black" mask="url(#path-111-inside-27_536_6402)"/>
<mask id="path-113-inside-28_536_6402" fill="white">
<path d="M741 306.065H725.615V308.591H741V306.065Z"/>
</mask>
<path d="M741 306.065H725.615V308.591H741V306.065Z" fill="#16C1C1"/>
<path d="M725.615 306.065V303.065H722.615V306.065H725.615ZM741 306.065H744V303.065H741V306.065ZM741 308.591V311.591H744V308.591H741ZM725.615 308.591H722.615V311.591H725.615V308.591ZM725.615 309.065H741V303.065H725.615V309.065ZM738 306.065V308.591H744V306.065H738ZM741 305.591H725.615V311.591H741V305.591ZM728.615 308.591V306.065H722.615V308.591H728.615Z" fill="black" mask="url(#path-113-inside-28_536_6402)"/>
<mask id="path-115-inside-29_536_6402" fill="white">
<path d="M741 308.591H725.615V311.117H741V308.591Z"/>
</mask>
<path d="M741 308.591H725.615V311.117H741V308.591Z" fill="#108E8D"/>
<path d="M725.615 308.591V305.591H722.615V308.591H725.615ZM741 308.591H744V305.591H741V308.591ZM741 311.117V314.117H744V311.117H741ZM725.615 311.117H722.615V314.117H725.615V311.117ZM725.615 311.591H741V305.591H725.615V311.591ZM738 308.591V311.117H744V308.591H738ZM741 308.117H725.615V314.117H741V308.117ZM728.615 311.117V308.591H722.615V311.117H728.615Z" fill="black" mask="url(#path-115-inside-29_536_6402)"/>
<mask id="path-117-inside-30_536_6402" fill="white">
<path d="M741 311.117H725.615V313.643H741V311.117Z"/>
</mask>
<path d="M741 311.117H725.615V313.643H741V311.117Z" fill="#16C1C1"/>
<path d="M725.615 311.117V308.117H722.615V311.117H725.615ZM741 311.117H744V308.117H741V311.117ZM741 313.643V316.643H744V313.643H741ZM725.615 313.643H722.615V316.643H725.615V313.643ZM725.615 314.117H741V308.117H725.615V314.117ZM738 311.117V313.643H744V311.117H738ZM741 310.643H725.615V316.643H741V310.643ZM728.615 313.643V311.117H722.615V313.643H728.615Z" fill="black" mask="url(#path-117-inside-30_536_6402)"/>
<mask id="path-119-inside-31_536_6402" fill="white">
<path d="M741 313.684H725.615V316.209H741V313.684Z"/>
</mask>
<path d="M741 313.684H725.615V316.209H741V313.684Z" fill="#108E8D"/>
<path d="M725.615 313.684V310.684H722.615V313.684H725.615ZM741 313.684H744V310.684H741V313.684ZM741 316.209V319.209H744V316.209H741ZM725.615 316.209H722.615V319.209H725.615V316.209ZM725.615 316.684H741V310.684H725.615V316.684ZM738 313.684V316.209H744V313.684H738ZM741 313.209H725.615V319.209H741V313.209ZM728.615 316.209V313.684H722.615V316.209H728.615Z" fill="black" mask="url(#path-119-inside-31_536_6402)"/>
<path d="M715.535 222.24H713.161V231.789H715.535V222.24Z" fill="#16C1C1"/>
<path d="M717.911 222.24H715.537V231.789H717.911V222.24Z" fill="#108E8D"/>
<path d="M719.864 231.827C719.864 231.827 719.481 231.827 719.06 231.789C718.486 231.789 717.911 231.789 717.911 231.789V222.239C717.911 222.239 718.524 222.239 719.175 222.239C719.979 222.278 720.745 222.316 720.745 222.316L719.864 231.827Z" fill="#16C1C1"/>
<path d="M721.433 232.133L719.863 231.827L720.744 222.316C720.744 222.316 723.884 222.813 723.884 222.889L721.395 232.133H721.433Z" fill="#108E8D"/>
<path d="M722.89 232.668C722.89 232.668 721.396 232.095 721.396 232.133L723.886 222.889C723.886 222.889 726.911 223.882 726.872 223.959L722.89 232.629V232.668Z" fill="#16C1C1"/>
<path d="M724.308 233.432C724.308 233.432 722.93 232.63 722.93 232.668L726.912 223.997C726.912 223.997 727.64 224.303 728.329 224.723C729.018 225.143 729.669 225.563 729.669 225.563L724.308 233.47V233.432Z" fill="#108E8D"/>
<path d="M725.532 234.425L724.307 233.431L729.668 225.524C729.668 225.524 730.319 225.983 730.931 226.479C731.544 226.976 732.118 227.511 732.118 227.511L725.532 234.425Z" fill="#16C1C1"/>
<path d="M726.567 235.609C726.567 235.609 725.571 234.386 725.533 234.425L732.12 227.511C732.12 227.511 734.264 229.841 734.226 229.879L726.567 235.609Z" fill="#108E8D"/>
<path d="M727.406 236.946C727.406 236.946 726.602 235.609 726.563 235.609L734.222 229.879C734.222 229.879 735.984 232.515 735.907 232.553L727.406 236.946Z" fill="#16C1C1"/>
<path d="M728.018 238.397C728.018 238.397 727.865 238.015 727.75 237.671C727.597 237.327 727.405 236.945 727.405 236.945L735.906 232.553C735.906 232.553 737.208 235.456 737.132 235.494L728.018 238.397Z" fill="#108E8D"/>
<path d="M728.364 239.925L728.02 238.397L737.133 235.494C737.133 235.494 737.899 238.588 737.823 238.588L728.364 239.925Z" fill="#16C1C1"/>
<path d="M728.479 241.644C728.479 241.415 728.403 240.001 728.364 239.963L737.823 238.626C737.823 238.626 738.091 241.873 738.014 241.682H728.441L728.479 241.644Z" fill="#108E8D"/>
<path d="M738.052 241.644H728.479V244.012H738.052V241.644Z" fill="#16C1C1"/>
<path d="M738.052 244.012H728.479V246.38H738.052V244.012Z" fill="#108E8D"/>
<path d="M738.052 246.38H728.479V248.749H738.052V246.38Z" fill="#16C1C1"/>
<path d="M738.052 248.749H728.479V251.117H738.052V248.749Z" fill="#108E8D"/>
<path d="M738.052 251.155H728.479V253.523H738.052V251.155Z" fill="#16C1C1"/>
<path d="M738.052 253.523H728.479V255.892H738.052V253.523Z" fill="#108E8D"/>
<path d="M738.052 255.892H728.479V258.26H738.052V255.892Z" fill="#16C1C1"/>
<path d="M738.052 258.26H728.479V260.629H738.052V258.26Z" fill="#108E8D"/>
<path d="M738.052 260.667H728.479V263.035H738.052V260.667Z" fill="#16C1C1"/>
<path d="M738.052 263.035H728.479V265.403H738.052V263.035Z" fill="#108E8D"/>
<path d="M738.052 265.403H728.479V267.772H738.052V265.403Z" fill="#16C1C1"/>
<path d="M738.052 267.772H728.479V270.14H738.052V267.772Z" fill="#108E8D"/>
<path d="M738.052 270.178H728.479V272.546H738.052V270.178Z" fill="#16C1C1"/>
<path d="M738.052 272.546H728.479V274.915H738.052V272.546Z" fill="#108E8D"/>
<path d="M738.052 274.915H728.479V277.283H738.052V274.915Z" fill="#16C1C1"/>
<path d="M738.052 277.283H728.479V279.651H738.052V277.283Z" fill="#108E8D"/>
<path d="M738.052 279.689H728.479V282.058H738.052V279.689Z" fill="#16C1C1"/>
<path d="M738.052 282.058H728.479V284.426H738.052V282.058Z" fill="#108E8D"/>
<path d="M738.052 284.426H728.479V286.794H738.052V284.426Z" fill="#16C1C1"/>
<path d="M738.052 286.794H728.479V289.162H738.052V286.794Z" fill="#108E8D"/>
<path d="M738.052 289.201H728.479V291.569H738.052V289.201Z" fill="#16C1C1"/>
<path d="M738.052 291.569H728.479V293.937H738.052V291.569Z" fill="#108E8D"/>
<path d="M738.052 293.937H728.479V296.305H738.052V293.937Z" fill="#16C1C1"/>
<path d="M738.052 296.305H728.479V298.674H738.052V296.305Z" fill="#108E8D"/>
<path d="M738.052 298.712H728.479V301.08H738.052V298.712Z" fill="#16C1C1"/>
<path d="M738.052 301.08H728.479V303.448H738.052V301.08Z" fill="#108E8D"/>
<path d="M738.052 303.448H728.479V305.816H738.052V303.448Z" fill="#16C1C1"/>
<path d="M738.052 305.817H728.479V308.185H738.052V305.817Z" fill="#108E8D"/>
<path d="M738.052 308.185H728.479V310.553H738.052V308.185Z" fill="#16C1C1"/>
<path d="M738.052 310.591H728.479V312.959H738.052V310.591Z" fill="#108E8D"/>
<path d="M723.232 316.55H743.336V307.879H723.232V316.55Z" fill="#231F20"/>
<path d="M598.5 228.137V220.952H597.685V228.137H598.5Z" fill="#16C1C1" stroke="black" stroke-width="3"/>
<path d="M594.683 228.137V220.952H593.867V228.137H594.683Z" fill="#108E8D" stroke="black" stroke-width="3"/>
<path d="M589.529 220.978L590.528 228.136H590.532H590.537H590.543H590.548H590.553H590.559H590.564H590.57H590.575H590.58H590.586H590.591H590.597H590.602H590.608H590.613H590.618H590.624H590.629H590.635H590.64H590.645H590.651H590.656H590.662H590.667H590.672H590.678H590.683H590.688H590.694H590.699H590.705H590.71H590.715H590.721H590.726H590.732H590.737H590.742H590.748H590.753H590.758H590.764H590.769H590.774H590.78H590.785H590.791H590.796H590.801H590.807H590.812H590.817H590.823H590.828H590.833H590.839H590.844H590.849H590.855H590.86H590.865H590.867V220.951H590.866H590.86H590.854H590.848H590.842H590.836H590.831H590.825H590.819H590.813H590.807H590.801H590.795H590.789H590.783H590.777H590.772H590.766H590.76H590.754H590.748H590.742H590.736H590.73H590.724H590.718H590.712H590.706H590.7H590.694H590.688H590.682H590.676H590.67H590.664H590.658H590.652H590.646H590.64H590.634H590.628H590.622H590.616H590.61H590.604H590.598H590.592H590.586H590.58H590.574H590.568H590.562H590.556H590.55H590.544H590.538H590.532H590.526H590.519H590.513H590.507H590.501H590.495H590.489H590.483H590.477H590.471H590.465H590.459H590.453H590.446H590.44H590.434H590.428H590.422H590.416H590.41H590.404H590.398H590.391H590.385H590.379H590.373H590.367H590.361H590.36C590.076 220.96 589.795 220.969 589.529 220.978Z" fill="#16C1C1" stroke="black" stroke-width="3"/>
<path d="M585.461 221.299C585.267 221.321 585.072 221.343 584.884 221.365L587.434 227.651L586.531 221.18C586.195 221.216 585.828 221.257 585.461 221.299Z" fill="#108E8D" stroke="black" stroke-width="3"/>
<path d="M584.189 227.641L581.853 221.882C581.491 221.962 581.083 222.054 580.676 222.147C580.593 222.166 580.509 222.185 580.426 222.204L584.189 227.641Z" fill="#16C1C1" stroke="black" stroke-width="3"/>
<path d="M576.141 223.51L580.633 227.907L577.296 223.085C576.952 223.2 576.564 223.339 576.188 223.491C576.172 223.497 576.157 223.503 576.141 223.51ZM578.306 222.771C578.306 222.771 578.306 222.771 578.306 222.771L578.306 222.771Z" fill="#108E8D" stroke="black" stroke-width="3"/>
<path d="M576.787 228.298L573.178 224.765C572.917 224.896 572.626 225.044 572.336 225.197L576.787 228.298Z" fill="#16C1C1" stroke="black" stroke-width="3"/>
<path d="M573.048 229.351L569.549 226.914C569.371 227.043 569.177 227.185 568.978 227.33L573.048 229.351Z" fill="#108E8D" stroke="black" stroke-width="3"/>
<path d="M566.455 229.423C566.344 229.535 566.226 229.655 566.105 229.777L569.541 230.955L566.455 229.423Z" fill="#16C1C1" stroke="black" stroke-width="3"/>
<mask id="path-173-inside-32_536_6402" fill="white">
<path d="M576.126 236.684C576.126 236.684 576.372 236.277 576.556 235.91C576.803 235.544 577.11 235.136 577.11 235.136L563.449 230.451C563.449 230.451 561.356 233.547 561.479 233.588L576.126 236.684Z"/>
</mask>
<path d="M576.126 236.684C576.126 236.684 576.372 236.277 576.556 235.91C576.803 235.544 577.11 235.136 577.11 235.136L563.449 230.451C563.449 230.451 561.356 233.547 561.479 233.588L576.126 236.684Z" fill="#108E8D"/>
<path d="M576.126 236.684L578.693 238.236L577.591 240.06L575.505 239.62L576.126 236.684ZM576.556 235.91L573.877 234.561L573.961 234.394L574.066 234.238L576.556 235.91ZM577.11 235.136L578.084 232.299L581.999 233.641L579.504 236.944L577.11 235.136ZM563.449 230.451L560.963 228.771L562.249 226.868L564.422 227.613L563.449 230.451ZM561.479 233.588L560.859 236.523L560.695 236.489L560.537 236.436L561.479 233.588ZM576.126 236.684C573.558 235.133 573.558 235.133 573.558 235.133C573.558 235.133 573.558 235.133 573.558 235.133C573.558 235.133 573.558 235.133 573.558 235.134C573.558 235.134 573.557 235.134 573.557 235.134C573.557 235.134 573.557 235.134 573.557 235.134C573.557 235.135 573.557 235.134 573.558 235.134C573.558 235.133 573.56 235.13 573.562 235.126C573.567 235.118 573.574 235.106 573.584 235.088C573.605 235.054 573.634 235.004 573.669 234.943C573.742 234.816 573.819 234.676 573.877 234.561L579.236 237.26C579.109 237.512 578.971 237.758 578.875 237.926C578.825 238.014 578.781 238.088 578.75 238.142C578.734 238.168 578.721 238.19 578.711 238.206C578.706 238.214 578.703 238.221 578.7 238.226C578.698 238.228 578.697 238.23 578.696 238.232C578.695 238.233 578.695 238.234 578.694 238.234C578.694 238.235 578.694 238.235 578.694 238.235C578.694 238.235 578.694 238.235 578.694 238.235C578.694 238.236 578.694 238.236 578.694 238.236C578.693 238.236 578.693 238.236 576.126 236.684ZM574.066 234.238C574.22 234.009 574.384 233.78 574.502 233.618C574.562 233.535 574.614 233.465 574.652 233.414C574.671 233.389 574.686 233.369 574.697 233.354C574.702 233.347 574.707 233.341 574.71 233.337C574.712 233.334 574.713 233.333 574.714 233.331C574.715 233.331 574.715 233.33 574.715 233.329C574.716 233.329 574.716 233.329 574.716 233.329C574.716 233.329 574.716 233.329 574.716 233.328C574.716 233.328 574.716 233.328 574.716 233.328C574.716 233.328 574.716 233.328 577.11 235.136C579.504 236.944 579.504 236.944 579.504 236.944C579.504 236.944 579.504 236.944 579.504 236.944C579.505 236.944 579.505 236.944 579.505 236.944C579.505 236.944 579.505 236.944 579.505 236.944C579.505 236.944 579.505 236.944 579.505 236.944C579.505 236.944 579.504 236.944 579.504 236.945C579.502 236.947 579.5 236.95 579.496 236.955C579.49 236.964 579.479 236.978 579.465 236.997C579.437 237.034 579.397 237.089 579.35 237.153C579.252 237.287 579.139 237.445 579.047 237.583L574.066 234.238ZM576.137 237.974L562.475 233.289L564.422 227.613L578.084 232.299L576.137 237.974ZM563.449 230.451C565.934 232.131 565.934 232.131 565.934 232.131C565.934 232.131 565.934 232.131 565.934 232.131C565.934 232.131 565.934 232.131 565.934 232.131C565.934 232.131 565.934 232.132 565.933 232.132C565.932 232.134 565.931 232.136 565.929 232.138C565.925 232.144 565.92 232.152 565.913 232.163C565.898 232.185 565.876 232.217 565.849 232.258C565.793 232.341 565.714 232.459 565.618 232.601C565.428 232.887 565.177 233.265 564.931 233.642C564.681 234.026 564.454 234.382 564.303 234.632C564.221 234.768 564.194 234.819 564.198 234.811C564.201 234.804 564.214 234.78 564.23 234.743C564.244 234.712 564.28 234.632 564.318 234.521C564.338 234.464 564.366 234.375 564.394 234.262C564.418 234.159 564.458 233.968 564.47 233.724C564.477 233.597 564.477 233.426 564.453 233.224C564.429 233.025 564.376 232.754 564.253 232.452C564.127 232.143 563.921 231.786 563.591 231.458C563.252 231.122 562.849 230.881 562.422 230.74L560.537 236.436C559.579 236.119 558.977 235.404 558.697 234.716C558.462 234.141 558.467 233.642 558.478 233.427C558.5 232.986 558.616 232.652 558.644 232.571C558.725 232.335 558.823 232.143 558.859 232.072C558.954 231.887 559.071 231.69 559.167 231.529C559.374 231.188 559.646 230.762 559.904 230.367C560.166 229.964 560.431 229.566 560.629 229.27C560.728 229.121 560.811 228.997 560.869 228.91C560.898 228.867 560.922 228.833 560.938 228.809C560.946 228.797 560.952 228.788 560.956 228.782C560.958 228.778 560.96 228.776 560.961 228.774C560.961 228.773 560.962 228.773 560.962 228.772C560.962 228.772 560.963 228.772 560.963 228.772C560.963 228.772 560.963 228.772 560.963 228.772C560.963 228.771 560.963 228.771 563.449 230.451ZM562.1 230.653L576.746 233.749L575.505 239.62L560.859 236.523L562.1 230.653Z" fill="black" mask="url(#path-173-inside-32_536_6402)"/>
<path d="M562.438 235.325C562.409 235.405 562.38 235.486 562.35 235.568L564.572 235.776L562.438 235.325Z" fill="#16C1C1" stroke="black" stroke-width="3"/>
<path d="M563.062 238.688L561.687 238.559C561.682 238.602 561.677 238.645 561.672 238.688H563.062Z" fill="#108E8D" stroke="black" stroke-width="3"/>
<mask id="path-177-inside-33_536_6402" fill="white">
<path d="M560 240.147H575.385V242.673H560V240.147Z"/>
</mask>
<path d="M560 240.147H575.385V242.673H560V240.147Z" fill="#16C1C1"/>
<path d="M575.385 240.147V237.147H578.385V240.147H575.385ZM560 240.147H557V237.147H560V240.147ZM560 242.673V245.673H557V242.673H560ZM575.385 242.673H578.385V245.673H575.385V242.673ZM575.385 243.147H560V237.147H575.385V243.147ZM563 240.147V242.673H557V240.147H563ZM560 239.673H575.385V245.673H560V239.673ZM572.385 242.673V240.147H578.385V242.673H572.385Z" fill="black" mask="url(#path-177-inside-33_536_6402)"/>
<mask id="path-179-inside-34_536_6402" fill="white">
<path d="M560 242.673H575.385V245.199H560V242.673Z"/>
</mask>
<path d="M560 242.673H575.385V245.199H560V242.673Z" fill="#108E8D"/>
<path d="M575.385 242.673V239.673H578.385V242.673H575.385ZM560 242.673H557V239.673H560V242.673ZM560 245.199V248.199H557V245.199H560ZM575.385 245.199H578.385V248.199H575.385V245.199ZM575.385 245.673H560V239.673H575.385V245.673ZM563 242.673V245.199H557V242.673H563ZM560 242.199H575.385V248.199H560V242.199ZM572.385 245.199V242.673H578.385V245.199H572.385Z" fill="black" mask="url(#path-179-inside-34_536_6402)"/>
<mask id="path-181-inside-35_536_6402" fill="white">
<path d="M560 245.199H575.385V247.725H560V245.199Z"/>
</mask>
<path d="M560 245.199H575.385V247.725H560V245.199Z" fill="#16C1C1"/>
<path d="M575.385 245.199V242.199H578.385V245.199H575.385ZM560 245.199H557V242.199H560V245.199ZM560 247.725V250.725H557V247.725H560ZM575.385 247.725H578.385V250.725H575.385V247.725ZM575.385 248.199H560V242.199H575.385V248.199ZM563 245.199V247.725H557V245.199H563ZM560 244.725H575.385V250.725H560V244.725ZM572.385 247.725V245.199H578.385V247.725H572.385Z" fill="black" mask="url(#path-181-inside-35_536_6402)"/>
<mask id="path-183-inside-36_536_6402" fill="white">
<path d="M560 247.725H575.385V250.251H560V247.725Z"/>
</mask>
<path d="M560 247.725H575.385V250.251H560V247.725Z" fill="#108E8D"/>
<path d="M575.385 247.725V244.725H578.385V247.725H575.385ZM560 247.725H557V244.725H560V247.725ZM560 250.251V253.251H557V250.251H560ZM575.385 250.251H578.385V253.251H575.385V250.251ZM575.385 250.725H560V244.725H575.385V250.725ZM563 247.725V250.251H557V247.725H563ZM560 247.251H575.385V253.251H560V247.251ZM572.385 250.251V247.725H578.385V250.251H572.385Z" fill="black" mask="url(#path-183-inside-36_536_6402)"/>
<mask id="path-185-inside-37_536_6402" fill="white">
<path d="M560 250.292H575.385V252.817H560V250.292Z"/>
</mask>
<path d="M560 250.292H575.385V252.817H560V250.292Z" fill="#16C1C1"/>
<path d="M575.385 250.292V247.292H578.385V250.292H575.385ZM560 250.292H557V247.292H560V250.292ZM560 252.817V255.817H557V252.817H560ZM575.385 252.817H578.385V255.817H575.385V252.817ZM575.385 253.292H560V247.292H575.385V253.292ZM563 250.292V252.817H557V250.292H563ZM560 249.817H575.385V255.817H560V249.817ZM572.385 252.817V250.292H578.385V252.817H572.385Z" fill="black" mask="url(#path-185-inside-37_536_6402)"/>
<mask id="path-187-inside-38_536_6402" fill="white">
<path d="M560 252.817H575.385V255.343H560V252.817Z"/>
</mask>
<path d="M560 252.817H575.385V255.343H560V252.817Z" fill="#108E8D"/>
<path d="M575.385 252.817V249.817H578.385V252.817H575.385ZM560 252.817H557V249.817H560V252.817ZM560 255.343V258.343H557V255.343H560ZM575.385 255.343H578.385V258.343H575.385V255.343ZM575.385 255.817H560V249.817H575.385V255.817ZM563 252.817V255.343H557V252.817H563ZM560 252.343H575.385V258.343H560V252.343ZM572.385 255.343V252.817H578.385V255.343H572.385Z" fill="black" mask="url(#path-187-inside-38_536_6402)"/>
<mask id="path-189-inside-39_536_6402" fill="white">
<path d="M560 255.344H575.385V257.87H560V255.344Z"/>
</mask>
<path d="M560 255.344H575.385V257.87H560V255.344Z" fill="#16C1C1"/>
<path d="M575.385 255.344V252.344H578.385V255.344H575.385ZM560 255.344H557V252.344H560V255.344ZM560 257.87V260.87H557V257.87H560ZM575.385 257.87H578.385V260.87H575.385V257.87ZM575.385 258.344H560V252.344H575.385V258.344ZM563 255.344V257.87H557V255.344H563ZM560 254.87H575.385V260.87H560V254.87ZM572.385 257.87V255.344H578.385V257.87H572.385Z" fill="black" mask="url(#path-189-inside-39_536_6402)"/>
<mask id="path-191-inside-40_536_6402" fill="white">
<path d="M560 257.87H575.385V260.396H560V257.87Z"/>
</mask>
<path d="M560 257.87H575.385V260.396H560V257.87Z" fill="#108E8D"/>
<path d="M575.385 257.87V254.87H578.385V257.87H575.385ZM560 257.87H557V254.87H560V257.87ZM560 260.396V263.396H557V260.396H560ZM575.385 260.396H578.385V263.396H575.385V260.396ZM575.385 260.87H560V254.87H575.385V260.87ZM563 257.87V260.396H557V257.87H563ZM560 257.396H575.385V263.396H560V257.396ZM572.385 260.396V257.87H578.385V260.396H572.385Z" fill="black" mask="url(#path-191-inside-40_536_6402)"/>
<mask id="path-193-inside-41_536_6402" fill="white">
<path d="M560 260.436H575.385V262.962H560V260.436Z"/>
</mask>
<path d="M560 260.436H575.385V262.962H560V260.436Z" fill="#16C1C1"/>
<path d="M575.385 260.436V257.436H578.385V260.436H575.385ZM560 260.436H557V257.436H560V260.436ZM560 262.962V265.962H557V262.962H560ZM575.385 262.962H578.385V265.962H575.385V262.962ZM575.385 263.436H560V257.436H575.385V263.436ZM563 260.436V262.962H557V260.436H563ZM560 259.962H575.385V265.962H560V259.962ZM572.385 262.962V260.436H578.385V262.962H572.385Z" fill="black" mask="url(#path-193-inside-41_536_6402)"/>
<mask id="path-195-inside-42_536_6402" fill="white">
<path d="M560 262.962H575.385V265.488H560V262.962Z"/>
</mask>
<path d="M560 262.962H575.385V265.488H560V262.962Z" fill="#108E8D"/>
<path d="M575.385 262.962V259.962H578.385V262.962H575.385ZM560 262.962H557V259.962H560V262.962ZM560 265.488V268.488H557V265.488H560ZM575.385 265.488H578.385V268.488H575.385V265.488ZM575.385 265.962H560V259.962H575.385V265.962ZM563 262.962V265.488H557V262.962H563ZM560 262.488H575.385V268.488H560V262.488ZM572.385 265.488V262.962H578.385V265.488H572.385Z" fill="black" mask="url(#path-195-inside-42_536_6402)"/>
<mask id="path-197-inside-43_536_6402" fill="white">
<path d="M560 265.488H575.385V268.014H560V265.488Z"/>
</mask>
<path d="M560 265.488H575.385V268.014H560V265.488Z" fill="#16C1C1"/>
<path d="M575.385 265.488V262.488H578.385V265.488H575.385ZM560 265.488H557V262.488H560V265.488ZM560 268.014V271.014H557V268.014H560ZM575.385 268.014H578.385V271.014H575.385V268.014ZM575.385 268.488H560V262.488H575.385V268.488ZM563 265.488V268.014H557V265.488H563ZM560 265.014H575.385V271.014H560V265.014ZM572.385 268.014V265.488H578.385V268.014H572.385Z" fill="black" mask="url(#path-197-inside-43_536_6402)"/>
<mask id="path-199-inside-44_536_6402" fill="white">
<path d="M560 268.014H575.385V270.54H560V268.014Z"/>
</mask>
<path d="M560 268.014H575.385V270.54H560V268.014Z" fill="#108E8D"/>
<path d="M575.385 268.014V265.014H578.385V268.014H575.385ZM560 268.014H557V265.014H560V268.014ZM560 270.54V273.54H557V270.54H560ZM575.385 270.54H578.385V273.54H575.385V270.54ZM575.385 271.014H560V265.014H575.385V271.014ZM563 268.014V270.54H557V268.014H563ZM560 267.54H575.385V273.54H560V267.54ZM572.385 270.54V268.014H578.385V270.54H572.385Z" fill="black" mask="url(#path-199-inside-44_536_6402)"/>
<mask id="path-201-inside-45_536_6402" fill="white">
<path d="M560 270.581H575.385V273.107H560V270.581Z"/>
</mask>
<path d="M560 270.581H575.385V273.107H560V270.581Z" fill="#16C1C1"/>
<path d="M575.385 270.581V267.581H578.385V270.581H575.385ZM560 270.581H557V267.581H560V270.581ZM560 273.107V276.107H557V273.107H560ZM575.385 273.107H578.385V276.107H575.385V273.107ZM575.385 273.581H560V267.581H575.385V273.581ZM563 270.581V273.107H557V270.581H563ZM560 270.107H575.385V276.107H560V270.107ZM572.385 273.107V270.581H578.385V273.107H572.385Z" fill="black" mask="url(#path-201-inside-45_536_6402)"/>
<mask id="path-203-inside-46_536_6402" fill="white">
<path d="M560 273.107H575.385V275.632H560V273.107Z"/>
</mask>
<path d="M560 273.107H575.385V275.632H560V273.107Z" fill="#108E8D"/>
<path d="M575.385 273.107V270.107H578.385V273.107H575.385ZM560 273.107H557V270.107H560V273.107ZM560 275.632V278.632H557V275.632H560ZM575.385 275.632H578.385V278.632H575.385V275.632ZM575.385 276.107H560V270.107H575.385V276.107ZM563 273.107V275.632H557V273.107H563ZM560 272.632H575.385V278.632H560V272.632ZM572.385 275.632V273.107H578.385V275.632H572.385Z" fill="black" mask="url(#path-203-inside-46_536_6402)"/>
<mask id="path-205-inside-47_536_6402" fill="white">
<path d="M560 275.632H575.385V278.158H560V275.632Z"/>
</mask>
<path d="M560 275.632H575.385V278.158H560V275.632Z" fill="#16C1C1"/>
<path d="M575.385 275.632V272.632H578.385V275.632H575.385ZM560 275.632H557V272.632H560V275.632ZM560 278.158V281.158H557V278.158H560ZM575.385 278.158H578.385V281.158H575.385V278.158ZM575.385 278.632H560V272.632H575.385V278.632ZM563 275.632V278.158H557V275.632H563ZM560 275.158H575.385V281.158H560V275.158ZM572.385 278.158V275.632H578.385V278.158H572.385Z" fill="black" mask="url(#path-205-inside-47_536_6402)"/>
<mask id="path-207-inside-48_536_6402" fill="white">
<path d="M560 278.158H575.385V280.684H560V278.158Z"/>
</mask>
<path d="M560 278.158H575.385V280.684H560V278.158Z" fill="#108E8D"/>
<path d="M575.385 278.158V275.158H578.385V278.158H575.385ZM560 278.158H557V275.158H560V278.158ZM560 280.684V283.684H557V280.684H560ZM575.385 280.684H578.385V283.684H575.385V280.684ZM575.385 281.158H560V275.158H575.385V281.158ZM563 278.158V280.684H557V278.158H563ZM560 277.684H575.385V283.684H560V277.684ZM572.385 280.684V278.158H578.385V280.684H572.385Z" fill="black" mask="url(#path-207-inside-48_536_6402)"/>
<mask id="path-209-inside-49_536_6402" fill="white">
<path d="M560 280.725H575.385V283.251H560V280.725Z"/>
</mask>
<path d="M560 280.725H575.385V283.251H560V280.725Z" fill="#16C1C1"/>
<path d="M575.385 280.725V277.725H578.385V280.725H575.385ZM560 280.725H557V277.725H560V280.725ZM560 283.251V286.251H557V283.251H560ZM575.385 283.251H578.385V286.251H575.385V283.251ZM575.385 283.725H560V277.725H575.385V283.725ZM563 280.725V283.251H557V280.725H563ZM560 280.251H575.385V286.251H560V280.251ZM572.385 283.251V280.725H578.385V283.251H572.385Z" fill="black" mask="url(#path-209-inside-49_536_6402)"/>
<mask id="path-211-inside-50_536_6402" fill="white">
<path d="M560 283.251H575.385V285.777H560V283.251Z"/>
</mask>
<path d="M560 283.251H575.385V285.777H560V283.251Z" fill="#108E8D"/>
<path d="M575.385 283.251V280.251H578.385V283.251H575.385ZM560 283.251H557V280.251H560V283.251ZM560 285.777V288.777H557V285.777H560ZM575.385 285.777H578.385V288.777H575.385V285.777ZM575.385 286.251H560V280.251H575.385V286.251ZM563 283.251V285.777H557V283.251H563ZM560 282.777H575.385V288.777H560V282.777ZM572.385 285.777V283.251H578.385V285.777H572.385Z" fill="black" mask="url(#path-211-inside-50_536_6402)"/>
<mask id="path-213-inside-51_536_6402" fill="white">
<path d="M560 285.777H575.385V288.303H560V285.777Z"/>
</mask>
<path d="M560 285.777H575.385V288.303H560V285.777Z" fill="#16C1C1"/>
<path d="M575.385 285.777V282.777H578.385V285.777H575.385ZM560 285.777H557V282.777H560V285.777ZM560 288.303V291.303H557V288.303H560ZM575.385 288.303H578.385V291.303H575.385V288.303ZM575.385 288.777H560V282.777H575.385V288.777ZM563 285.777V288.303H557V285.777H563ZM560 285.303H575.385V291.303H560V285.303ZM572.385 288.303V285.777H578.385V288.303H572.385Z" fill="black" mask="url(#path-213-inside-51_536_6402)"/>
<mask id="path-215-inside-52_536_6402" fill="white">
<path d="M560 288.303H575.385V290.828H560V288.303Z"/>
</mask>
<path d="M560 288.303H575.385V290.828H560V288.303Z" fill="#108E8D"/>
<path d="M575.385 288.303V285.303H578.385V288.303H575.385ZM560 288.303H557V285.303H560V288.303ZM560 290.828V293.828H557V290.828H560ZM575.385 290.828H578.385V293.828H575.385V290.828ZM575.385 291.303H560V285.303H575.385V291.303ZM563 288.303V290.828H557V288.303H563ZM560 287.828H575.385V293.828H560V287.828ZM572.385 290.828V288.303H578.385V290.828H572.385Z" fill="black" mask="url(#path-215-inside-52_536_6402)"/>
<mask id="path-217-inside-53_536_6402" fill="white">
<path d="M560 290.869H575.385V293.395H560V290.869Z"/>
</mask>
<path d="M560 290.869H575.385V293.395H560V290.869Z" fill="#16C1C1"/>
<path d="M575.385 290.869V287.869H578.385V290.869H575.385ZM560 290.869H557V287.869H560V290.869ZM560 293.395V296.395H557V293.395H560ZM575.385 293.395H578.385V296.395H575.385V293.395ZM575.385 293.869H560V287.869H575.385V293.869ZM563 290.869V293.395H557V290.869H563ZM560 290.395H575.385V296.395H560V290.395ZM572.385 293.395V290.869H578.385V293.395H572.385Z" fill="black" mask="url(#path-217-inside-53_536_6402)"/>
<mask id="path-219-inside-54_536_6402" fill="white">
<path d="M560 293.395H575.385V295.921H560V293.395Z"/>
</mask>
<path d="M560 293.395H575.385V295.921H560V293.395Z" fill="#108E8D"/>
<path d="M575.385 293.395V290.395H578.385V293.395H575.385ZM560 293.395H557V290.395H560V293.395ZM560 295.921V298.921H557V295.921H560ZM575.385 295.921H578.385V298.921H575.385V295.921ZM575.385 296.395H560V290.395H575.385V296.395ZM563 293.395V295.921H557V293.395H563ZM560 292.921H575.385V298.921H560V292.921ZM572.385 295.921V293.395H578.385V295.921H572.385Z" fill="black" mask="url(#path-219-inside-54_536_6402)"/>
<mask id="path-221-inside-55_536_6402" fill="white">
<path d="M560 295.921H575.385V298.447H560V295.921Z"/>
</mask>
<path d="M560 295.921H575.385V298.447H560V295.921Z" fill="#16C1C1"/>
<path d="M575.385 295.921V292.921H578.385V295.921H575.385ZM560 295.921H557V292.921H560V295.921ZM560 298.447V301.447H557V298.447H560ZM575.385 298.447H578.385V301.447H575.385V298.447ZM575.385 298.921H560V292.921H575.385V298.921ZM563 295.921V298.447H557V295.921H563ZM560 295.447H575.385V301.447H560V295.447ZM572.385 298.447V295.921H578.385V298.447H572.385Z" fill="black" mask="url(#path-221-inside-55_536_6402)"/>
<mask id="path-223-inside-56_536_6402" fill="white">
<path d="M560 298.447H575.385V300.973H560V298.447Z"/>
</mask>
<path d="M560 298.447H575.385V300.973H560V298.447Z" fill="#108E8D"/>
<path d="M575.385 298.447V295.447H578.385V298.447H575.385ZM560 298.447H557V295.447H560V298.447ZM560 300.973V303.973H557V300.973H560ZM575.385 300.973H578.385V303.973H575.385V300.973ZM575.385 301.447H560V295.447H575.385V301.447ZM563 298.447V300.973H557V298.447H563ZM560 297.973H575.385V303.973H560V297.973ZM572.385 300.973V298.447H578.385V300.973H572.385Z" fill="black" mask="url(#path-223-inside-56_536_6402)"/>
<mask id="path-225-inside-57_536_6402" fill="white">
<path d="M560 301.014H575.385V303.539H560V301.014Z"/>
</mask>
<path d="M560 301.014H575.385V303.539H560V301.014Z" fill="#16C1C1"/>
<path d="M575.385 301.014V298.014H578.385V301.014H575.385ZM560 301.014H557V298.014H560V301.014ZM560 303.539V306.539H557V303.539H560ZM575.385 303.539H578.385V306.539H575.385V303.539ZM575.385 304.014H560V298.014H575.385V304.014ZM563 301.014V303.539H557V301.014H563ZM560 300.539H575.385V306.539H560V300.539ZM572.385 303.539V301.014H578.385V303.539H572.385Z" fill="black" mask="url(#path-225-inside-57_536_6402)"/>
<mask id="path-227-inside-58_536_6402" fill="white">
<path d="M560 303.539H575.385V306.065H560V303.539Z"/>
</mask>
<path d="M560 303.539H575.385V306.065H560V303.539Z" fill="#108E8D"/>
<path d="M575.385 303.539V300.539H578.385V303.539H575.385ZM560 303.539H557V300.539H560V303.539ZM560 306.065V309.065H557V306.065H560ZM575.385 306.065H578.385V309.065H575.385V306.065ZM575.385 306.539H560V300.539H575.385V306.539ZM563 303.539V306.065H557V303.539H563ZM560 303.065H575.385V309.065H560V303.065ZM572.385 306.065V303.539H578.385V306.065H572.385Z" fill="black" mask="url(#path-227-inside-58_536_6402)"/>
<mask id="path-229-inside-59_536_6402" fill="white">
<path d="M560 306.065H575.385V308.591H560V306.065Z"/>
</mask>
<path d="M560 306.065H575.385V308.591H560V306.065Z" fill="#16C1C1"/>
<path d="M575.385 306.065V303.065H578.385V306.065H575.385ZM560 306.065H557V303.065H560V306.065ZM560 308.591V311.591H557V308.591H560ZM575.385 308.591H578.385V311.591H575.385V308.591ZM575.385 309.065H560V303.065H575.385V309.065ZM563 306.065V308.591H557V306.065H563ZM560 305.591H575.385V311.591H560V305.591ZM572.385 308.591V306.065H578.385V308.591H572.385Z" fill="black" mask="url(#path-229-inside-59_536_6402)"/>
<mask id="path-231-inside-60_536_6402" fill="white">
<path d="M560 308.591H575.385V311.117H560V308.591Z"/>
</mask>
<path d="M560 308.591H575.385V311.117H560V308.591Z" fill="#108E8D"/>
<path d="M575.385 308.591V305.591H578.385V308.591H575.385ZM560 308.591H557V305.591H560V308.591ZM560 311.117V314.117H557V311.117H560ZM575.385 311.117H578.385V314.117H575.385V311.117ZM575.385 311.591H560V305.591H575.385V311.591ZM563 308.591V311.117H557V308.591H563ZM560 308.117H575.385V314.117H560V308.117ZM572.385 311.117V308.591H578.385V311.117H572.385Z" fill="black" mask="url(#path-231-inside-60_536_6402)"/>
<mask id="path-233-inside-61_536_6402" fill="white">
<path d="M560 311.117H575.385V313.643H560V311.117Z"/>
</mask>
<path d="M560 311.117H575.385V313.643H560V311.117Z" fill="#16C1C1"/>
<path d="M575.385 311.117V308.117H578.385V311.117H575.385ZM560 311.117H557V308.117H560V311.117ZM560 313.643V316.643H557V313.643H560ZM575.385 313.643H578.385V316.643H575.385V313.643ZM575.385 314.117H560V308.117H575.385V314.117ZM563 311.117V313.643H557V311.117H563ZM560 310.643H575.385V316.643H560V310.643ZM572.385 313.643V311.117H578.385V313.643H572.385Z" fill="black" mask="url(#path-233-inside-61_536_6402)"/>
<mask id="path-235-inside-62_536_6402" fill="white">
<path d="M560 313.684H575.385V316.209H560V313.684Z"/>
</mask>
<path d="M560 313.684H575.385V316.209H560V313.684Z" fill="#108E8D"/>
<path d="M575.385 313.684V310.684H578.385V313.684H575.385ZM560 313.684H557V310.684H560V313.684ZM560 316.209V319.209H557V316.209H560ZM575.385 316.209H578.385V319.209H575.385V316.209ZM575.385 316.684H560V310.684H575.385V316.684ZM563 313.684V316.209H557V313.684H563ZM560 313.209H575.385V319.209H560V313.209ZM572.385 316.209V313.684H578.385V316.209H572.385Z" fill="black" mask="url(#path-235-inside-62_536_6402)"/>
<path d="M587.142 222.239H584.768V231.789H587.142V222.239Z" fill="#16C1C1"/>
<path d="M584.767 222.239H582.393V231.789H584.767V222.239Z" fill="#108E8D"/>
<path d="M579.558 222.316C579.558 222.316 580.362 222.277 581.128 222.239C581.74 222.239 582.391 222.239 582.391 222.239V231.789C582.391 231.789 581.817 231.789 581.243 231.789C580.86 231.789 580.438 231.827 580.438 231.827L579.558 222.316Z" fill="#16C1C1"/>
<path d="M576.417 222.888C576.417 222.888 579.519 222.239 579.557 222.316L580.438 231.827C580.438 231.827 578.868 232.094 578.868 232.132L576.379 222.888H576.417Z" fill="#108E8D"/>
<path d="M573.427 223.958C573.427 223.958 576.414 222.812 576.414 222.889L578.903 232.133C578.903 232.133 577.409 232.629 577.409 232.667L573.427 223.996V223.958Z" fill="#16C1C1"/>
<path d="M570.672 225.525L572.012 224.684C572.701 224.302 573.429 223.958 573.429 223.958L577.412 232.629L576.033 233.393L570.672 225.486V225.525Z" fill="#108E8D"/>
<path d="M568.183 227.51C568.183 227.51 568.757 226.976 569.37 226.479C570.021 226.021 570.634 225.524 570.634 225.524L575.995 233.431C575.995 233.431 574.731 234.386 574.769 234.424L568.145 227.51H568.183Z" fill="#16C1C1"/>
<path d="M566.076 229.879C566.076 229.879 568.106 227.434 568.182 227.511L574.807 234.424L573.773 235.608L566.114 229.879H566.076Z" fill="#108E8D"/>
<path d="M564.396 232.553C564.396 232.553 566.042 229.841 566.08 229.879L573.739 235.609C573.739 235.609 572.858 236.907 572.897 236.945L564.396 232.553Z" fill="#16C1C1"/>
<path d="M563.168 235.494C563.168 235.494 564.317 232.553 564.393 232.553L572.894 236.945C572.894 236.945 572.741 237.289 572.55 237.671C572.397 238.053 572.282 238.397 572.282 238.397L563.168 235.494Z" fill="#108E8D"/>
<path d="M562.479 238.588C562.479 238.588 563.13 235.494 563.168 235.494L572.282 238.397C572.282 238.397 571.899 239.925 571.937 239.925L562.479 238.588Z" fill="#16C1C1"/>
<path d="M562.287 241.644C562.249 241.873 562.402 238.55 562.479 238.588L571.937 239.925C571.937 239.925 571.822 241.415 571.822 241.606H562.287V241.644Z" fill="#108E8D"/>
<path d="M571.862 241.644H562.289V244.012H571.862V241.644Z" fill="#16C1C1"/>
<path d="M571.862 244.012H562.289V246.38H571.862V244.012Z" fill="#108E8D"/>
<path d="M571.862 246.38H562.289V248.748H571.862V246.38Z" fill="#16C1C1"/>
<path d="M571.862 248.749H562.289V251.117H571.862V248.749Z" fill="#108E8D"/>
<path d="M571.862 251.155H562.289V253.523H571.862V251.155Z" fill="#16C1C1"/>
<path d="M571.862 253.523H562.289V255.891H571.862V253.523Z" fill="#108E8D"/>
<path d="M571.862 255.892H562.289V258.26H571.862V255.892Z" fill="#16C1C1"/>
<path d="M571.862 258.26H562.289V260.629H571.862V258.26Z" fill="#108E8D"/>
<path d="M571.862 260.667H562.289V263.035H571.862V260.667Z" fill="#16C1C1"/>
<path d="M571.862 263.035H562.289V265.403H571.862V263.035Z" fill="#108E8D"/>
<path d="M571.862 265.403H562.289V267.771H571.862V265.403Z" fill="#16C1C1"/>
<path d="M571.862 267.772H562.289V270.14H571.862V267.772Z" fill="#108E8D"/>
<path d="M571.862 270.178H562.289V272.546H571.862V270.178Z" fill="#16C1C1"/>
<path d="M571.862 272.546H562.289V274.914H571.862V272.546Z" fill="#108E8D"/>
<path d="M571.862 274.914H562.289V277.283H571.862V274.914Z" fill="#16C1C1"/>
<path d="M571.862 277.283H562.289V279.651H571.862V277.283Z" fill="#108E8D"/>
<path d="M571.862 279.689H562.289V282.057H571.862V279.689Z" fill="#16C1C1"/>
<path d="M571.862 282.057H562.289V284.426H571.862V282.057Z" fill="#108E8D"/>
<path d="M571.862 284.426H562.289V286.794H571.862V284.426Z" fill="#16C1C1"/>
<path d="M571.862 286.794H562.289V289.162H571.862V286.794Z" fill="#108E8D"/>
<path d="M571.862 289.2H562.289V291.569H571.862V289.2Z" fill="#16C1C1"/>
<path d="M571.862 291.569H562.289V293.937H571.862V291.569Z" fill="#108E8D"/>
<path d="M571.862 293.937H562.289V296.305H571.862V293.937Z" fill="#16C1C1"/>
<path d="M571.862 296.305H562.289V298.673H571.862V296.305Z" fill="#108E8D"/>
<path d="M571.862 298.712H562.289V301.08H571.862V298.712Z" fill="#16C1C1"/>
<path d="M571.862 301.08H562.289V303.448H571.862V301.08Z" fill="#108E8D"/>
<path d="M571.862 303.448H562.289V305.816H571.862V303.448Z" fill="#16C1C1"/>
<path d="M571.862 305.816H562.289V308.185H571.862V305.816Z" fill="#108E8D"/>
<path d="M571.862 308.185H562.289V310.553H571.862V308.185Z" fill="#16C1C1"/>
<path d="M571.862 310.591H562.289V312.959H571.862V310.591Z" fill="#108E8D"/>
<path d="M599.926 209.509H588.63C584.357 209.509 580.888 212.965 580.888 217.236V236.793C580.888 241.064 584.357 244.519 588.63 244.519H599.926C604.198 244.519 607.668 241.064 607.668 236.793V217.236C607.668 212.965 604.198 209.509 599.926 209.509Z" fill="#FFBA3E" stroke="black" stroke-width="3"/>
<path d="M713.045 209.509H701.749C697.477 209.509 694.007 212.965 694.007 217.236V236.793C694.007 241.064 697.477 244.519 701.749 244.519H713.045C717.317 244.519 720.787 241.064 720.787 236.793V217.236C720.787 212.965 717.317 209.509 713.045 209.509Z" fill="#FFBA3E" stroke="black" stroke-width="3"/>
<path d="M713.5 286.981V215.762C713.5 204.905 704.929 196.006 694.216 196.006H606.784C596.111 196.006 587.5 204.903 587.5 215.762V286.981C587.5 297.841 596.111 306.737 606.784 306.737H694.216C704.929 306.737 713.5 297.838 713.5 286.981Z" fill="#0C7A77" stroke="black" stroke-width="3"/>
<path d="M703 219.904V287.827C703 297.428 695.056 305.237 685.203 305.237H617.797C607.982 305.237 600 297.428 600 287.827V219.904C600 210.302 607.982 202.494 617.797 202.494H685.203C695.056 202.494 703 210.302 703 219.904Z" fill="#108E8D"/>
<path d="M700.824 126.936V186.361H602.193V126.936C602.193 116.041 611.015 107.236 621.946 107.236H681.109C692.001 107.236 700.824 116.039 700.824 126.936Z" fill="#0C7A77" stroke="black" stroke-width="3"/>
<path d="M684 128.298V184.539H620V128.298C620 117.473 629.499 108.728 641.257 108.728H662.743C674.463 108.728 684 117.473 684 128.298Z" fill="#108E8D"/>
<path d="M702.276 199.996H600.724C598.131 199.996 595.5 197.232 595.5 193.017C595.5 188.803 598.131 186.039 600.724 186.039H702.276C704.869 186.039 707.5 188.803 707.5 193.017C707.5 197.232 704.869 199.996 702.276 199.996Z" fill="#231F20" stroke="black" stroke-width="3"/>
<path d="M661.815 317.734V316.234H660.315H641.398H639.898V317.734V331.944V333.444H641.398H660.315H661.815V331.944V317.734Z" fill="#231F20" stroke="black" stroke-width="3"/>
<path d="M608 303.737H606.5V305.237V311.282C606.5 315.688 610.914 318.707 615.535 318.707H686.465C691.086 318.707 695.5 315.688 695.5 311.282V305.237V303.737H694H608Z" fill="#231F20" stroke="black" stroke-width="3"/>
<path d="M642.9 320.599V319.099H641.4H611.34H609.84V320.599V387.904V389.404H611.34H641.4H642.9V387.904V320.599Z" fill="#108E8D" stroke="black" stroke-width="3"/>
<path d="M691.878 320.599V319.099H690.378H660.317H658.817V320.599V387.904V389.404H660.317H690.378H691.878V387.904V320.599Z" fill="#108E8D" stroke="black" stroke-width="3"/>
<path d="M690.377 320.599H682.986V387.904H690.377V320.599Z" fill="#0C7A77"/>
<path d="M618.73 320.599H611.34V387.904H618.73V320.599Z" fill="#0C7A77"/>
<path d="M637.458 362.095H615.542C613.581 362.095 612 360.091 612 357.606C612 355.121 613.581 353.117 615.542 353.117H637.458C639.419 353.117 641 355.121 641 357.606C641 360.091 639.419 362.095 637.458 362.095Z" fill="#231F20"/>
<path d="M686.458 362.095H664.542C662.581 362.095 661 360.091 661 357.606C661 355.121 662.581 353.117 664.542 353.117H686.458C688.419 353.117 690 355.121 690 357.606C690 360.091 688.419 362.095 686.458 362.095Z" fill="#231F20"/>
<path d="M612.908 389.442H640.939C643.484 389.442 645.566 391.524 645.566 394.053V398.398H608.281V394.053C608.281 391.524 610.363 389.442 612.908 389.442Z" fill="#231F20" stroke="black" stroke-width="3"/>
<path d="M661.389 389.442H689.381C691.926 389.442 694.008 391.524 694.008 394.053V398.398H656.762V394.053C656.762 391.524 658.844 389.442 661.389 389.442Z" fill="#231F20" stroke="black" stroke-width="3"/>
<path d="M622.751 218.01H679.999C681.332 218.01 682.405 219.086 682.405 220.406V233.622C682.405 234.942 681.332 236.018 679.999 236.018H622.751C621.418 236.018 620.345 234.942 620.345 233.622V220.406C620.345 219.086 621.418 218.01 622.751 218.01Z" fill="#16C1C1" stroke="black" stroke-width="3"/>
<path d="M636.503 258.069V256.569H635.003H599.812H598.312V258.069V265.709V267.209H599.812H635.003H636.503V265.709V258.069Z" fill="#16C1C1" stroke="black" stroke-width="3"/>
<path d="M676.63 150.847C682.256 150.847 686.816 146.307 686.816 140.706C686.816 135.105 682.256 130.564 676.63 130.564H627.5C621.874 130.564 617.314 135.105 617.314 140.706C617.314 146.307 621.874 150.847 627.5 150.847H676.63Z" fill="#0C7A77"/>
<path d="M704.551 258.069V256.569H703.051H667.859H666.359V258.069V265.709V267.209H667.859H703.051H704.551V265.709V258.069Z" fill="#16C1C1" stroke="black" stroke-width="3"/>
<path d="M676.63 148.528C683.078 148.528 688.316 143.322 688.316 136.886C688.316 130.45 683.078 125.245 676.63 125.245H627.5C621.052 125.245 615.814 130.45 615.814 136.886C615.814 143.322 621.052 148.528 627.5 148.528H676.63Z" fill="#16C1C1" stroke="black" stroke-width="3"/>
<path d="M680.656 134.384V132.884H679.156H624.971H623.471V134.384V139.388V140.888H624.971H679.156H680.656V139.388V134.384Z" fill="#FFBA3E" stroke="black" stroke-width="3"/>
<path d="M680.613 160.168H674.064V173.537H680.613V160.168Z" fill="#231F20"/>
<path d="M667.972 160.168H661.424V173.537H667.972V160.168Z" fill="#231F20"/>
<path d="M655.336 160.168H648.788V173.537H655.336V160.168Z" fill="#231F20"/>
<path d="M642.701 160.168H636.152V173.537H642.701V160.168Z" fill="#231F20"/>
<mask id="path-306-outside-63_536_6402" maskUnits="userSpaceOnUse" x="620.553" y="157.168" width="64" height="20" fill="black">
<rect fill="white" x="620.553" y="157.168" width="64" height="20"/>
<path fill-rule="evenodd" clip-rule="evenodd" d="M623.553 160.168H626.081H630.101H680.611V173.537H630.101H626.081H623.553V160.168Z"/>
</mask>
<path fill-rule="evenodd" clip-rule="evenodd" d="M623.553 160.168H626.081H630.101H680.611V173.537H630.101H626.081H623.553V160.168Z" fill="#231F20"/>
<path d="M623.553 160.168V157.168H620.553V160.168H623.553ZM680.611 160.168H683.611V157.168H680.611V160.168ZM680.611 173.537V176.537H683.611V173.537H680.611ZM623.553 173.537H620.553V176.537H623.553V173.537ZM626.081 157.168H623.553V163.168H626.081V157.168ZM630.101 157.168H626.081V163.168H630.101V157.168ZM680.611 157.168H630.101V163.168H680.611V157.168ZM683.611 173.537V160.168H677.611V173.537H683.611ZM630.101 176.537H680.611V170.537H630.101V176.537ZM626.081 176.537H630.101V170.537H626.081V176.537ZM623.553 176.537H626.081V170.537H623.553V176.537ZM620.553 160.168V173.537H626.553V160.168H620.553Z" fill="black" mask="url(#path-306-outside-63_536_6402)"/>
<path d="M577.104 307.917H557V316.588H577.104V307.917Z" fill="#231F20"/>
<path d="M673.72 222.965H629.223C628.687 222.965 628.266 222.545 628.266 222.01C628.266 221.475 628.687 221.055 629.223 221.055H673.72C674.256 221.055 674.677 221.475 674.677 222.01C674.677 222.545 674.256 222.965 673.72 222.965Z" fill="#231F20"/>
<path d="M673.72 227.969H629.223C628.687 227.969 628.266 227.549 628.266 227.014C628.266 226.479 628.687 226.059 629.223 226.059H673.72C674.256 226.059 674.677 226.479 674.677 227.014C674.677 227.549 674.256 227.969 673.72 227.969Z" fill="#231F20"/>
<path d="M673.72 232.973H629.223C628.687 232.973 628.266 232.553 628.266 232.018C628.266 231.483 628.687 231.063 629.223 231.063H673.72C674.256 231.063 674.677 231.483 674.677 232.018C674.677 232.553 674.256 232.973 673.72 232.973Z" fill="#231F20"/>
<path fill-rule="evenodd" clip-rule="evenodd" d="M64 -93.7656L64 261.347H65.5C58.0442 261.347 52 267.376 52 274.813C52 282.25 58.0442 288.279 65.5 288.279C72.9558 288.279 79 282.25 79 274.813C79 267.376 72.9558 261.347 65.5 261.347H67L67 -93.7656H64ZM76 274.813C76 280.586 71.3061 285.279 65.5 285.279C59.6939 285.279 55 280.586 55 274.813C55 269.04 59.6939 264.347 65.5 264.347C71.3061 264.347 76 269.04 76 274.813Z" fill="#8ECDC7"/>
<path fill-rule="evenodd" clip-rule="evenodd" d="M168 631.421L168 276.309H166.541C173.978 276.287 180 270.266 180 262.843C180 255.406 173.956 249.377 166.5 249.377C159.044 249.377 153 255.406 153 262.843C153 270.266 159.022 276.287 166.459 276.309H165L165 631.421H168ZM156 262.843C156 257.07 160.694 252.377 166.5 252.377C172.306 252.377 177 257.07 177 262.843C177 268.616 172.306 273.309 166.5 273.309C160.694 273.309 156 268.616 156 262.843Z" fill="#8ECDC7"/>
<path fill-rule="evenodd" clip-rule="evenodd" d="M115 -171.571L115 183.541H116.5C109.044 183.541 103 189.57 103 197.007C103 204.445 109.044 210.474 116.5 210.474C123.956 210.474 130 204.445 130 197.007C130 189.57 123.956 183.541 116.5 183.541H118L118 -171.571H115ZM127 197.007C127 202.781 122.306 207.474 116.5 207.474C110.694 207.474 106 202.781 106 197.007C106 191.234 110.694 186.541 116.5 186.541C122.306 186.541 127 191.234 127 197.007Z" fill="#8ECDC7"/>
<path fill-rule="evenodd" clip-rule="evenodd" d="M-160 139.651L196 139.651V138.155C196 145.592 202.044 151.621 209.5 151.621C216.956 151.621 223 145.592 223 138.155C223 130.717 216.956 124.688 209.5 124.688C202.044 124.688 196 130.717 196 138.155V136.651L-160 136.651V139.651ZM209.5 127.688C215.306 127.688 220 132.381 220 138.155C220 143.928 215.306 148.621 209.5 148.621C203.694 148.621 199 143.928 199 138.155C199 132.381 203.694 127.688 209.5 127.688Z" fill="#8ECDC7"/>
<path fill-rule="evenodd" clip-rule="evenodd" d="M-106 359.102L250 359.102V357.606C250 365.043 256.044 371.072 263.5 371.072C270.956 371.072 277 365.043 277 357.606C277 350.169 270.956 344.14 263.5 344.14C256.044 344.14 250 350.169 250 357.606V356.102L-106 356.102V359.102ZM263.5 347.14C269.306 347.14 274 351.833 274 357.606C274 363.379 269.306 368.072 263.5 368.072C257.694 368.072 253 363.379 253 357.606C253 351.833 257.694 347.14 263.5 347.14Z" fill="#8ECDC7"/>
<path fill-rule="evenodd" clip-rule="evenodd" d="M-223 82.793L133 82.793V81.2968C133 88.734 139.044 94.7631 146.5 94.7631C153.956 94.7631 160 88.734 160 81.2968C160 73.8595 153.956 67.8304 146.5 67.8304C139.044 67.8304 133 73.8595 133 81.2968V79.793L-223 79.793V82.793ZM146.5 70.8304C152.306 70.8304 157 75.5234 157 81.2968C157 87.0701 152.306 91.7631 146.5 91.7631C140.694 91.7631 136 87.0701 136 81.2968C136 75.5234 140.694 70.8304 146.5 70.8304Z" fill="#8ECDC7"/>
<path fill-rule="evenodd" clip-rule="evenodd" d="M208 562.594L208 207.481H206.5C213.956 207.481 220 201.452 220 194.015C220 186.578 213.956 180.549 206.5 180.549C199.044 180.549 193 186.578 193 194.015C193 201.452 199.044 207.481 206.5 207.481H205L205 562.594H208ZM196 194.015C196 188.242 200.694 183.549 206.5 183.549C212.306 183.549 217 188.242 217 194.015C217 199.788 212.306 204.481 206.5 204.481C200.694 204.481 196 199.788 196 194.015Z" fill="#8ECDC7"/>
<path fill-rule="evenodd" clip-rule="evenodd" d="M1235 485.786L1235 130.673L1233.5 130.673C1240.96 130.673 1247 124.644 1247 117.207C1247 109.77 1240.96 103.741 1233.5 103.741C1226.04 103.741 1220 109.77 1220 117.207C1220 124.644 1226.04 130.673 1233.5 130.673L1232 130.673L1232 485.786H1235ZM1223 117.207C1223 111.434 1227.69 106.741 1233.5 106.741C1239.31 106.741 1244 111.434 1244 117.207C1244 122.98 1239.31 127.673 1233.5 127.673C1227.69 127.673 1223 122.98 1223 117.207Z" fill="#8ECDC7"/>
<path fill-rule="evenodd" clip-rule="evenodd" d="M1131 -239.401L1131 115.711H1132.5C1125.04 115.711 1119 121.74 1119 129.177C1119 136.614 1125.04 142.643 1132.5 142.643C1139.96 142.643 1146 136.614 1146 129.177C1146 121.74 1139.96 115.711 1132.5 115.711H1134L1134 -239.401H1131ZM1143 129.177C1143 134.95 1138.31 139.643 1132.5 139.643C1126.69 139.643 1122 134.95 1122 129.177C1122 123.404 1126.69 118.711 1132.5 118.711C1138.31 118.711 1143 123.404 1143 129.177Z" fill="#8ECDC7"/>
<path fill-rule="evenodd" clip-rule="evenodd" d="M1184 563.591L1184 208.479H1182.5C1189.96 208.479 1196 202.45 1196 195.012C1196 187.575 1189.96 181.546 1182.5 181.546C1175.04 181.546 1169 187.575 1169 195.012C1169 202.45 1175.04 208.479 1182.5 208.479H1181L1181 563.591H1184ZM1172 195.012C1172 189.239 1176.69 184.546 1182.5 184.546C1188.31 184.546 1193 189.239 1193 195.012C1193 200.786 1188.31 205.479 1182.5 205.479C1176.69 205.479 1172 200.786 1172 195.012Z" fill="#8ECDC7"/>
<path fill-rule="evenodd" clip-rule="evenodd" d="M1459 252.369L1103 252.369V253.865C1103 246.428 1096.96 240.399 1089.5 240.399C1082.04 240.399 1076 246.428 1076 253.865C1076 261.303 1082.04 267.332 1089.5 267.332C1096.96 267.332 1103 261.303 1103 253.865V255.369L1459 255.369V252.369ZM1089.5 264.332C1083.69 264.332 1079 259.639 1079 253.865C1079 248.092 1083.69 243.399 1089.5 243.399C1095.31 243.399 1100 248.092 1100 253.865C1100 259.639 1095.31 264.332 1089.5 264.332Z" fill="#8ECDC7"/>
<path fill-rule="evenodd" clip-rule="evenodd" d="M1405 32.9177L1049 32.9177V34.414C1049 26.9767 1042.96 20.9476 1035.5 20.9476C1028.04 20.9476 1022 26.9767 1022 34.414C1022 41.8512 1028.04 47.8803 1035.5 47.8803C1042.96 47.8803 1049 41.8512 1049 34.414V35.9177L1405 35.9177V32.9177ZM1035.5 44.8803C1029.69 44.8803 1025 40.1873 1025 34.414C1025 28.6406 1029.69 23.9476 1035.5 23.9476C1041.31 23.9476 1046 28.6406 1046 34.414C1046 40.1873 1041.31 44.8803 1035.5 44.8803Z" fill="#8ECDC7"/>
<path fill-rule="evenodd" clip-rule="evenodd" d="M1522 309.227L1166 309.227V310.723C1166 303.286 1159.96 297.257 1152.5 297.257C1145.04 297.257 1139 303.286 1139 310.723C1139 318.16 1145.04 324.19 1152.5 324.19C1159.96 324.19 1166 318.16 1166 310.723V312.227L1522 312.227V309.227ZM1152.5 321.19C1146.69 321.19 1142 316.497 1142 310.723C1142 304.95 1146.69 300.257 1152.5 300.257C1158.31 300.257 1163 304.95 1163 310.723C1163 316.497 1158.31 321.19 1152.5 321.19Z" fill="#8ECDC7"/>
<path fill-rule="evenodd" clip-rule="evenodd" d="M1091 -170.574L1091 184.539H1092.5C1085.04 184.539 1079 190.568 1079 198.005C1079 205.442 1085.04 211.471 1092.5 211.471C1099.96 211.471 1106 205.442 1106 198.005C1106 190.568 1099.96 184.539 1092.5 184.539H1094L1094 -170.574H1091ZM1103 198.005C1103 203.778 1098.31 208.471 1092.5 208.471C1086.69 208.471 1082 203.778 1082 198.005C1082 192.232 1086.69 187.539 1092.5 187.539C1098.31 187.539 1103 192.232 1103 198.005Z" fill="#8ECDC7"/>
</g>
</svg>
