<?xml version="1.0" encoding="UTF-8"?>
<svg id="Layer_1" data-name="Layer 1" xmlns="http://www.w3.org/2000/svg" xmlns:xlink="http://www.w3.org/1999/xlink" viewBox="0 0 700 400">
  <defs>
    <style>
      .cls-1 {
        clip-path: url(#clippath);
      }

      .cls-2, .cls-3 {
        fill: none;
      }

      .cls-2, .cls-3, .cls-4, .cls-5, .cls-6, .cls-7, .cls-8, .cls-9, .cls-10, .cls-11, .cls-12, .cls-13, .cls-14, .cls-15, .cls-16, .cls-17, .cls-18 {
        stroke-width: 0px;
      }

      .cls-19 {
        clip-path: url(#clippath-1);
      }

      .cls-20 {
        clip-path: url(#clippath-4);
      }

      .cls-21 {
        clip-path: url(#clippath-3);
      }

      .cls-22 {
        clip-path: url(#clippath-2);
      }

      .cls-3 {
        clip-rule: evenodd;
      }

      .cls-4 {
        fill: #ff9c9c;
        fill-rule: evenodd;
      }

      .cls-6 {
        fill: #f6dfc9;
      }

      .cls-7 {
        fill: #4abaeb;
      }

      .cls-8 {
        fill: #5292f4;
      }

      .cls-9 {
        fill: #38312f;
      }

      .cls-10 {
        fill: #d2a27c;
      }

      .cls-11 {
        fill: #cbe5f6;
      }

      .cls-12 {
        fill: #7ecbbf;
      }

      .cls-13 {
        fill: #817470;
      }

      .cls-14 {
        fill: #efcaac;
      }

      .cls-15 {
        fill: #fff;
      }

      .cls-16 {
        fill: #ffcaca;
      }

      .cls-17 {
        fill: #f1d0de;
      }

      .cls-18 {
        fill: #008981;
      }
    </style>
    <clipPath id="clippath">
      <rect class="cls-2" width="700" height="400"/>
    </clipPath>
    <clipPath id="clippath-1">
      <path class="cls-3" d="M303.39,236.95s-41.88,7.47-56.37,40.93c-13.08,30.22-35.91,114.27-35.91,114.27h53.44s21.17-89.83,25.06-104.43c3.89-14.57,13.78-50.76,13.78-50.76Z"/>
    </clipPath>
    <clipPath id="clippath-2">
      <path class="cls-3" d="M399.87,238.18s43.69,6.2,58.18,39.69c13.08,30.22,35.91,114.27,35.91,114.27h-53.44s-21.17-89.83-25.06-104.43c-3.89-14.57-15.59-49.52-15.59-49.52Z"/>
    </clipPath>
    <clipPath id="clippath-3">
      <path class="cls-3" d="M378.3,235.37c-6.79-3.55-3.64-38.73-3.64-38.73h-44.42s3.16,35.18-3.64,38.73c-6.79,3.55-10.12,2.59-6.79,13.3,2.71,8.71,12.88,13.02,27.37,14.01,0,0,3.52.23,5.27.2,1.75.03,5.27-.2,5.27-.2,14.49-1.01,24.66-5.3,27.37-14.01,3.33-10.71,0-9.75-6.79-13.3Z"/>
    </clipPath>
    <clipPath id="clippath-4">
      <path class="cls-3" d="M408.23,129.03c-3.26-12.79-10.22-24.37-22.56-31.3-23.57-13.26-65.08-7.53-79.09,16.11-2.83,4.76-5.47,9.94-7.21,15.14-7.04,20.71.28,46.05,6.85,66.15,5.14,15.66,14.34,30.91,31.49,37.16,39.46,14.35,63.2-23.17,69.38-53.58,3.26-16.05,5.25-33.63,1.18-49.65l-.03-.03Z"/>
    </clipPath>
  </defs>
  <g class="cls-1">
    <ellipse class="cls-17" cx="354.04" cy="231.55" rx="198.31" ry="135.99" transform="translate(-64.43 169.58) rotate(-24.76)"/>
    <path class="cls-18" d="M303.39,236.95s-41.88,7.47-56.37,40.93c-13.08,30.22-35.91,114.27-35.91,114.27h53.44s21.17-89.83,25.06-104.43c3.89-14.57,13.78-50.76,13.78-50.76Z"/>
    <g class="cls-19">
      <path class="cls-5" d="M291.94,288.33c1.94-7.28,5.39-19.96,8.35-30.83,1.48-5.43,2.84-10.41,3.83-14.03.49-1.81.9-3.28,1.17-4.3.14-.51.25-.9.32-1.17.04-.13.06-.24.08-.31,0-.03.02-.06.02-.08,0,0,0-.02,0-.02,0,0,0,0,0,0,0,0,0,0,0,0t-2.33-.64q-2.33-.64-2.33-.64s0,0,0,0c0,0,0,0,0,0,0,0,0,.01,0,.02,0,.02-.01.04-.02.08-.02.07-.05.17-.08.31-.07.27-.18.66-.32,1.17-.28,1.02-.68,2.49-1.17,4.3-.99,3.62-2.35,8.6-3.83,14.04-2.96,10.87-6.41,23.57-8.35,30.86l4.67,1.25ZM264.54,392.14q2.35.55,2.35.55s0,0,0,0c0,0,0,0,0-.01,0-.01,0-.03.01-.05.01-.04.03-.11.05-.19.04-.17.1-.42.18-.75.16-.66.39-1.63.68-2.88.59-2.48,1.43-6.05,2.45-10.37,2.05-8.65,4.81-20.33,7.7-32.47,5.78-24.3,12.04-50.37,13.97-57.63l-4.67-1.24c-1.96,7.34-8.23,33.49-14,57.75-2.89,12.14-5.66,23.83-7.7,32.48-1.02,4.33-1.86,7.89-2.45,10.38-.29,1.24-.52,2.21-.68,2.88-.08.33-.14.58-.18.75-.02.09-.04.15-.05.19,0,.02,0,.04-.01.05,0,0,0,0,0,.01,0,0,0,0,0,0s0,0,2.35.56ZM211.1,394.56h53.44v-4.83h-53.44v4.83ZM244.79,276.91c-6.61,15.27-15.62,43.98-22.96,68.74-3.68,12.41-6.94,23.87-9.29,32.23-1.17,4.18-2.12,7.59-2.77,9.95-.33,1.18-.58,2.1-.75,2.72-.09.31-.15.55-.19.71-.02.08-.04.14-.05.18,0,.02,0,.04-.01.05,0,0,0,0,0,.01,0,0,0,0,0,0t2.33.63q2.33.63,2.33.63s0,0,0,0c0,0,0,0,0-.01,0-.01,0-.03.01-.05.01-.04.03-.1.05-.18.04-.16.11-.4.19-.71.17-.62.42-1.54.75-2.71.65-2.35,1.59-5.75,2.76-9.92,2.34-8.34,5.6-19.78,9.27-32.16,7.35-24.82,16.29-53.24,22.76-68.19l-4.44-1.92ZM303.39,236.95q-.42-2.38-.43-2.38s0,0,0,0c0,0,0,0,0,0,0,0-.02,0-.03,0-.02,0-.06.01-.1.02-.09.02-.22.04-.38.08-.33.07-.81.17-1.42.31-1.22.28-2.96.71-5.08,1.34-4.25,1.25-10.08,3.28-16.37,6.38-12.55,6.18-27.21,16.75-34.77,34.22l4.44,1.92c6.93-15.99,20.45-25.88,32.47-31.8,5.99-2.95,11.54-4.88,15.6-6.08,2.02-.6,3.67-1.01,4.8-1.27.57-.13,1-.22,1.29-.28.15-.03.25-.05.32-.06.04,0,.06-.01.08-.01,0,0,.01,0,.02,0,0,0,0,0,0,0,0,0,0,0,0,0t-.43-2.38ZM289.6,287.71l-2.34-.62h0s2.34.62,2.34.62ZM264.54,392.14v2.42h1.91l.44-1.86-2.35-.55ZM211.1,392.14l-2.33-.63-.83,3.05h3.16v-2.42ZM247.01,277.87l-2.22-.96h0s2.22.96,2.22.96ZM303.39,236.95l2.33.64,1.01-3.69-3.76.67.42,2.38Z"/>
    </g>
    <path class="cls-18" d="M399.87,238.18s43.69,6.2,58.18,39.69c13.08,30.22,35.91,114.27,35.91,114.27h-53.44s-21.17-89.83-25.06-104.43c-3.89-14.57-15.59-49.52-15.59-49.52Z"/>
    <g class="cls-22">
      <path class="cls-5" d="M417.79,287.08c-1.96-7.36-5.88-19.8-9.29-30.35-1.71-5.29-3.29-10.12-4.45-13.62-.58-1.75-1.05-3.18-1.38-4.16-.16-.49-.29-.88-.38-1.14-.04-.13-.08-.23-.1-.3-.01-.03-.02-.06-.03-.08,0,0,0-.01,0-.02,0,0,0,0,0,0,0,0,0,0,0,0t-2.29.77q-2.29.77-2.29.77s0,0,0,0c0,0,0,0,0,0,0,0,0,.01,0,.02,0,.02.01.04.03.07.02.07.06.16.1.29.09.26.21.64.38,1.13.33.98.8,2.4,1.38,4.15,1.16,3.5,2.74,8.32,4.44,13.59,3.41,10.57,7.29,22.89,9.22,30.11l4.67-1.25ZM440.51,392.14q2.35-.55,2.35-.56s0,0,0,0c0,0,0,0,0-.01,0-.01,0-.03-.01-.05-.01-.04-.03-.11-.05-.19-.04-.17-.1-.42-.18-.75-.16-.66-.39-1.63-.68-2.88-.59-2.49-1.43-6.05-2.45-10.38-2.05-8.65-4.81-20.34-7.7-32.48-5.77-24.26-12.05-50.41-14-57.75l-4.67,1.24c1.93,7.26,8.19,33.32,13.97,57.63,2.89,12.14,5.66,23.82,7.7,32.47,1.02,4.32,1.86,7.89,2.45,10.37.29,1.24.52,2.21.68,2.88.08.33.14.58.18.75.02.09.04.15.05.19,0,.02,0,.04.01.05,0,0,0,0,0,.01,0,0,0,0,0,0t2.35-.55ZM493.95,389.72h-53.44v4.83h53.44v-4.83ZM455.83,278.83c6.47,14.95,15.41,43.37,22.76,68.19,3.67,12.38,6.93,23.82,9.27,32.16,1.17,4.17,2.11,7.57,2.76,9.92.32,1.18.58,2.09.75,2.71.09.31.15.55.19.71.02.08.04.14.05.18,0,.02,0,.04.01.05,0,0,0,0,0,.01,0,0,0,0,0,0t2.33-.63q2.33-.63,2.33-.63s0,0,0,0c0,0,0,0,0-.01,0-.01,0-.03-.01-.05-.01-.04-.03-.1-.05-.18-.04-.16-.11-.4-.19-.71-.17-.62-.42-1.54-.75-2.72-.65-2.36-1.59-5.77-2.77-9.95-2.35-8.36-5.61-19.82-9.29-32.23-7.33-24.76-16.35-53.47-22.96-68.74l-4.44,1.92ZM399.87,238.18q-.34,2.39-.34,2.39s0,0,0,0c0,0,0,0,0,0,0,0,0,0,.02,0,.02,0,.04,0,.08.01.07.01.19.03.34.05.3.05.76.13,1.35.24,1.18.23,2.9.59,5,1.13,4.22,1.08,10,2.86,16.21,5.66,12.47,5.62,26.39,15.2,33.3,31.16l4.44-1.92c-7.58-17.53-22.75-27.79-35.75-33.64-6.52-2.94-12.57-4.8-17-5.93-2.21-.57-4.02-.95-5.29-1.19-.63-.12-1.13-.21-1.47-.26-.17-.03-.3-.05-.4-.06-.05,0-.08-.01-.11-.02-.01,0-.02,0-.03,0,0,0,0,0,0,0,0,0,0,0,0,0t-.34,2.39ZM415.45,287.7l2.34-.62h0s-2.34.62-2.34.62ZM440.51,392.14l-2.35.55.44,1.86h1.91v-2.42ZM493.95,392.14v2.42h3.16l-.83-3.05-2.33.63ZM458.04,277.87l-2.22.96h0s2.22-.96,2.22-.96ZM399.87,238.18l.34-2.39-3.87-.55,1.24,3.71,2.29-.77Z"/>
    </g>
    <path class="cls-12" d="M419.74,277.17c-1.18-10.8-3.21-21.45-6.03-31.85-14.46-13.95-49.86-15.56-49.86-15.56h-25.2s-35.4,1.61-49.86,15.56c-2.82,10.37-4.88,21.06-6.03,31.85-2.48,22.69-1.52,45.66.87,68.3,1.66,15.64,4,31.17,6.43,46.68h122.41c2.45-15.5,4.79-31.03,6.43-46.68,2.4-22.63,3.35-45.61.87-68.3h-.03Z"/>
    <path class="cls-14" d="M378.3,235.37c-6.79-3.55-3.64-38.73-3.64-38.73h-44.42s3.16,35.18-3.64,38.73c-6.79,3.55-10.12,2.59-6.79,13.3,2.71,8.71,12.88,13.02,27.37,14.01,0,0,3.52.23,5.27.2,1.75.03,5.27-.2,5.27-.2,14.49-1.01,24.66-5.3,27.37-14.01,3.33-10.71,0-9.75-6.79-13.3Z"/>
    <g class="cls-21">
      <path class="cls-5" d="M387.41,249.39c.85-2.73,1.34-4.93,1.4-6.73.06-1.89-.34-3.51-1.45-4.85-1-1.22-2.39-1.96-3.63-2.55-1.38-.66-2.65-1.16-4.31-2.03l-2.24,4.28c1.73.91,3.43,1.61,4.48,2.11,1.2.57,1.7.93,1.96,1.25.16.2.39.57.35,1.62-.04,1.14-.37,2.84-1.19,5.46l4.62,1.43ZM357.9,265.09c7.4-.52,13.91-1.88,18.99-4.36,5.12-2.5,8.92-6.19,10.52-11.35l-4.62-1.43c-1.11,3.56-3.75,6.36-8.02,8.43-4.31,2.1-10.13,3.38-17.21,3.88l.34,4.82ZM352.42,265.3c.96.02,2.35-.04,3.45-.09.56-.03,1.06-.05,1.43-.08.18-.01.33-.02.43-.03.05,0,.09,0,.12,0,.01,0,.02,0,.03,0,0,0,0,0,0,0,0,0,0,0,0,0,0,0,0,0,0,0,0,0,0,0,0,0s0,0-.15-2.41-.15-2.41-.15-2.41h0s0,0,0,0c0,0,0,0,0,0,0,0,0,0,0,0,0,0-.02,0-.03,0-.03,0-.06,0-.11,0-.1,0-.24.01-.41.02-.35.02-.84.05-1.38.07-1.1.05-2.35.1-3.14.09l-.08,4.83ZM347.19,262.68q-.15,2.41-.15,2.41s0,0,0,0c0,0,0,0,0,0,0,0,0,0,0,0,0,0,0,0,0,0,0,0,.02,0,.03,0,.03,0,.07,0,.12,0,.1,0,.25.02.43.03.36.02.87.05,1.43.08,1.1.05,2.49.11,3.45.09l-.08-4.83c-.79.01-2.03-.03-3.14-.09-.54-.03-1.03-.05-1.38-.07-.18-.01-.32-.02-.41-.02-.05,0-.09,0-.11,0-.01,0-.02,0-.03,0,0,0,0,0,0,0,0,0,0,0,0,0,0,0,0,0,0,0h0s0,0-.15,2.41ZM317.51,249.39c1.6,5.15,5.39,8.86,10.51,11.36,5.08,2.48,11.59,3.84,19,4.35l.33-4.82c-7.08-.48-12.9-1.77-17.21-3.87-4.26-2.08-6.91-4.89-8.02-8.45l-4.62,1.43ZM325.49,233.23c-1.66.87-2.93,1.37-4.31,2.03-1.23.59-2.63,1.32-3.63,2.55-1.1,1.34-1.51,2.97-1.45,4.85.06,1.8.56,4,1.4,6.73l4.62-1.43c-.81-2.62-1.15-4.32-1.19-5.46-.04-1.06.19-1.42.35-1.62.26-.32.77-.68,1.96-1.25,1.05-.5,2.74-1.21,4.48-2.11l-2.24-4.28ZM330.25,196.64q-2.41.22-2.41.22s0,0,0,0c0,0,0,0,0,0,0,0,0,0,0,.02,0,.02,0,.04,0,.07,0,.06.01.16.02.29.02.25.05.63.09,1.1.07.96.17,2.33.26,3.99.19,3.32.37,7.78.34,12.33-.03,4.57-.27,9.15-.9,12.75-.31,1.81-.71,3.26-1.16,4.32-.48,1.11-.89,1.44-1.01,1.5l2.24,4.28c1.58-.83,2.56-2.38,3.2-3.87.67-1.55,1.15-3.42,1.49-5.41.69-3.99.94-8.88.97-13.54.03-4.69-.15-9.25-.35-12.63-.1-1.69-.19-3.1-.27-4.08-.04-.49-.07-.88-.09-1.14-.01-.13-.02-.23-.03-.3,0-.03,0-.06,0-.08,0,0,0-.02,0-.02,0,0,0,0,0,0,0,0,0,0,0,0t-2.41.22ZM374.67,194.22h-44.42v4.83h44.42v-4.83ZM379.42,233.23c-.12-.06-.53-.39-1.01-1.5-.46-1.06-.85-2.51-1.16-4.32-.63-3.6-.87-8.18-.9-12.75-.03-4.55.15-9,.34-12.33.09-1.66.19-3.03.26-3.99.04-.48.07-.85.09-1.1.01-.13.02-.22.02-.29,0-.03,0-.06,0-.07,0,0,0-.01,0-.02,0,0,0,0,0,0,0,0,0,0,0,0t-2.41-.22q-2.41-.22-2.41-.22s0,0,0,0c0,0,0,0,0,0,0,0,0,.01,0,.02,0,.02,0,.04,0,.08,0,.07-.01.17-.03.3-.02.26-.05.65-.09,1.14-.07.98-.17,2.38-.27,4.08-.19,3.38-.38,7.95-.35,12.63.03,4.67.27,9.55.97,13.54.35,1.99.82,3.86,1.49,5.41.64,1.49,1.63,3.04,3.2,3.87l2.24-4.28ZM385.1,248.67l2.31.72h0s-2.31-.72-2.31-.72ZM357.73,262.68l.15,2.41h0s0,0,0,0l-.17-2.41ZM352.46,262.88l.04-2.42h-.04s-.04,0-.04,0l.04,2.42ZM347.19,262.68l-.16,2.41h0s.15-2.41.15-2.41ZM319.82,248.67l-2.31.72h0s2.31-.72,2.31-.72ZM330.25,196.64v-2.42h-2.64l.24,2.63,2.41-.22ZM374.67,196.64l2.41.22.24-2.63h-2.64v2.42Z"/>
    </g>
    <path class="cls-14" d="M415.6,161.21c-2.28-3.04-8.29-5.55-11.44-3.69-1.69,1.01-1.89,2.59-3.02,4.17-2.09,1.49-2.45,5.78-3.55,8.03-1.49,3.07-2.51,6.4-3.47,9.67-.82,2.85-1.58,5.72-2.09,8.62-.25,1.52-1.61,6.31,0,7.33.51.31,1.16.34,1.72.23.59-.11,1.13-.37,1.69-.59,1.35-.48,2.82-.68,4.2-1.01,4.43-1.13,6.12-5.16,8.15-8.82,2.14-3.86,4.28-7.72,6.43-11.58,1.97-3.55,4.17-8.62,1.35-12.35h.03Z"/>
    <path class="cls-6" d="M408.23,129.03c-3.26-12.79-10.22-24.37-22.56-31.3-23.57-13.26-65.08-7.53-79.09,16.11-2.83,4.76-5.47,9.94-7.21,15.14-7.04,20.71.28,46.05,6.85,66.15,5.14,15.66,14.34,30.91,31.49,37.16,39.46,14.35,63.2-23.17,69.38-53.58,3.26-16.05,5.25-33.63,1.18-49.65l-.03-.03Z"/>
    <g class="cls-20">
      <path class="cls-5" d="M409.91,127.29l-.03-.03-3.29,3.54.03.03,3.29-3.54ZM409.45,179.19c3.27-16.14,5.36-34.16,1.15-50.73l-4.69,1.19c3.93,15.48,2.03,32.61-1.2,48.58l4.74.96ZM336.88,234.56c20.72,7.54,37.47,1.4,49.69-10.54,12.08-11.82,19.73-29.29,22.88-44.82l-4.74-.96c-3.02,14.88-10.33,31.37-21.53,42.33-11.07,10.83-25.91,16.28-44.65,9.46l-1.65,4.54ZM303.92,195.88c5.23,15.96,14.79,32.05,32.96,38.67l1.66-4.54c-16.13-5.88-24.98-20.27-30.02-35.64l-4.59,1.51ZM297.08,128.2c-3.7,10.87-3.58,22.81-1.78,34.45,1.8,11.64,5.33,23.16,8.62,33.23l4.6-1.5c-3.28-10.04-6.7-21.24-8.44-32.47-1.74-11.24-1.77-22.31,1.58-32.15l-4.58-1.56ZM304.51,112.6c-2.88,4.84-5.61,10.18-7.43,15.61l4.58,1.53c1.67-4.98,4.21-9.99,7-14.67l-4.15-2.47ZM386.85,95.63c-12.39-6.96-29.25-8.86-44.75-6.05-15.47,2.8-30.12,10.4-37.6,23.03l4.16,2.46c6.52-11,19.63-18.09,34.31-20.74,14.66-2.65,30.33-.78,41.52,5.51l2.37-4.21ZM410.57,128.43c-3.37-13.24-10.65-25.47-23.72-32.81l-2.37,4.22c11.62,6.52,18.27,17.46,21.4,29.79l4.68-1.19ZM408.26,129.06l2.34-.59-.18-.69-.52-.48-1.65,1.77ZM407.08,178.71l2.37.48h0s-2.37-.48-2.37-.48ZM337.71,232.28l-.83,2.27h0s.83-2.27.83-2.27ZM306.22,195.13l-2.3.75h0s2.3-.75,2.3-.75ZM299.37,128.98l2.29.78h0s-2.29-.78-2.29-.78ZM306.58,113.84l2.08,1.24h0s-2.08-1.24-2.08-1.24ZM385.67,97.73l-1.18,2.11h0s1.18-2.11,1.18-2.11ZM408.23,129.03l-2.34.6.18.69.52.48,1.65-1.77Z"/>
    </g>
    <ellipse class="cls-16" cx="325.54" cy="191.01" rx="5.24" ry="3.22"/>
    <ellipse class="cls-16" cx="381.13" cy="191.01" rx="5.24" ry="3.22"/>
    <path class="cls-4" d="M353.52,224.97c-.66.42-1.43.66-2.25.66-2.48,0-4.5-2.2-4.5-4.91s2.01-4.91,4.5-4.91c.82,0,1.59.24,2.25.66.66-.42,1.43-.66,2.25-.66,2.48,0,4.5,2.2,4.5,4.91s-2.01,4.91-4.5,4.91c-.82,0-1.59-.24-2.25-.66Z"/>
    <path class="cls-5" d="M352.72,198.96c1.33.44,2.2.89,2.7,1.29.48.39.48.61.46.71-.02.21-.22.67-1.01,1.38-.76.69-1.93,1.48-3.58,2.38l1.16,2.12c1.72-.94,3.08-1.84,4.04-2.7.93-.84,1.66-1.8,1.79-2.89.14-1.2-.47-2.17-1.34-2.87-.84-.68-2.04-1.24-3.47-1.71l-.76,2.29ZM351.98,182.02c-.94,2.31-2.09,5.89-2.43,9.13-.17,1.61-.15,3.25.27,4.62.43,1.42,1.32,2.65,2.9,3.18l.76-2.29c-.63-.21-1.08-.69-1.35-1.59-.28-.93-.33-2.2-.18-3.67.31-2.93,1.37-6.28,2.26-8.47l-2.24-.92ZM353.1,197.81l-.38,1.15.38-1.15Z"/>
    <path class="cls-5" d="M375.77,203.57c-3.51,6.11-9.95,13.34-17.84,15.58-3.9,1.11-8.19,1.01-12.75-1.08-4.58-2.1-9.51-6.25-14.58-13.37l-1.97,1.4c5.23,7.35,10.46,11.84,15.54,14.17,5.11,2.34,9.99,2.47,14.42,1.21,8.77-2.49,15.63-10.35,19.28-16.7l-2.1-1.2Z"/>
    <path class="cls-5" d="M322.69,176.59c1.47-1.47,4.31-3.3,7.91-3.83,3.55-.52,7.91.2,12.56,3.92l1.51-1.89c-5.16-4.13-10.2-5.04-14.42-4.42-4.17.61-7.47,2.71-9.26,4.51l1.71,1.71Z"/>
    <rect class="cls-5" x="322.16" y="168.5" width="2.42" height="5.28" transform="translate(-39.24 219.83) rotate(-35.54)"/>
    <rect class="cls-5" x="327.06" y="166.96" width="2.42" height="4.67" transform="translate(-40.15 143) rotate(-23.2)"/>
    <circle class="cls-5" cx="332.25" cy="178.19" r="4.29"/>
    <circle class="cls-5" cx="372.72" cy="178.19" r="4.29"/>
    <path class="cls-5" d="M361.93,176.6c1.47-1.47,4.31-3.3,7.91-3.83,3.55-.52,7.91.2,12.56,3.92l1.51-1.89c-5.16-4.13-10.2-5.04-14.42-4.42-4.17.61-7.47,2.71-9.26,4.51l1.71,1.71Z"/>
    <rect class="cls-5" x="378.86" y="170.24" width="6.13" height="2.42" transform="translate(15.61 374.12) rotate(-53.13)"/>
    <rect class="cls-5" x="374.19" y="168.09" width="5.65" height="2.42" transform="translate(129.96 500.61) rotate(-77.47)"/>
    <path class="cls-5" d="M288.95,394.02l.03-.03-3.42-3.42-.03.03,3.42,3.42ZM207.41,394.73h79.82v-4.83h-79.82v4.83ZM206.78,387.81c-.17.3-1.05,2.01-1.65,3.69l4.56,1.6c.23-.66.53-1.35.8-1.92.13-.28.25-.52.34-.7.1-.2.15-.28.14-.28l-4.2-2.4ZM215.62,375.33c-3.55,3.57-7.1,7.66-9.01,12.85l4.54,1.67c1.53-4.17,4.46-7.64,7.9-11.11l-3.43-3.4ZM228.19,366.39c-5.27,1.67-9.27,5.65-12.56,8.94l3.42,3.42c3.42-3.42,6.63-6.49,10.61-7.75l-1.46-4.61ZM243.57,366.7c-4.35-.66-10.05-1.99-15.38-.31l1.45,4.61c3.97-1.25,8.2-.27,13.2.48l.72-4.78ZM260.28,369.94c-5.5-1.21-11.04-2.38-16.7-3.24l-.72,4.78c5.5.83,10.9,1.97,16.39,3.18l1.04-4.72ZM268.05,372.22c-1.36-.93-2.9-1.37-4.21-1.64-.67-.14-1.33-.25-1.93-.35-.62-.1-1.15-.19-1.65-.29l-1,4.73c.63.13,1.28.24,1.87.34.61.1,1.17.19,1.72.31,1.1.23,1.9.51,2.49.91l2.72-4ZM273.38,377.32c-.76-.71-1.43-1.48-2.33-2.43-.84-.89-1.83-1.87-2.99-2.67l-2.74,3.99c.72.5,1.43,1.17,2.22,2.01.74.78,1.64,1.8,2.55,2.64l3.3-3.54ZM285.76,385.9c-4.57-2.45-8.69-5.12-12.37-8.57l-3.3,3.53c4.09,3.83,8.6,6.73,13.39,9.3l2.28-4.26ZM290.09,390.12c-.33-1.64-1.47-2.61-2.29-3.15-.74-.48-1.8-.95-2.08-1.09l-2.21,4.3c.29.15.73.35.95.46.29.14.51.26.69.38.38.25.24.28.2.05l4.74-.95ZM289.19,393.75c.63-.83,1.24-2.14.89-3.7l-4.71,1.07c-.01-.06-.02-.13-.02-.19,0-.06.01-.1.02-.13.02-.05.02-.04-.02.01l3.84,2.94ZM287.24,392.31v2.42h1l.71-.71-1.71-1.71ZM207.41,392.31l-2.28-.8-1.13,3.22h3.41v-2.42ZM208.88,389.01l2.1,1.2.1-.18.07-.19-2.27-.83ZM217.34,377.03l-1.71-1.71h0s1.72,1.71,1.72,1.71ZM228.92,368.69l-.73-2.31h0s.73,2.31.73,2.31ZM243.21,369.09l.36-2.39h0s-.36,2.39-.36,2.39ZM259.76,372.3l-.52,2.36h0s0,0,0,0l.5-2.36ZM266.69,374.22l1.37-1.99h0s-1.36,1.99-1.36,1.99ZM271.74,379.09l1.65-1.77h0s-1.65,1.77-1.65,1.77ZM284.62,388.03l-1.14,2.13h.02s.02.02.02.02l1.1-2.15ZM287.72,390.59l-2.37.47v.03s.01.03.01.03l2.36-.54ZM287.27,392.28l1.71,1.71.11-.11.1-.13-1.92-1.47Z"/>
    <path class="cls-14" d="M287.27,392.28c.37-.48.59-1.07.45-1.69-.28-1.41-2-2-3.1-2.56-4.68-2.51-8.99-5.3-12.88-8.94-1.66-1.55-3.16-3.58-5.05-4.88-1.94-1.32-4.68-1.44-6.93-1.92-5.5-1.21-10.96-2.37-16.55-3.21-4.68-.7-9.64-1.86-14.29-.39-4.62,1.47-8.23,4.99-11.58,8.34-3.5,3.52-6.74,7.3-8.46,11.98-.11.2-.93,1.78-1.47,3.3h79.82l.03-.03Z"/>
    <path class="cls-10" d="M252.23,392.28s.23-.28.34-.39c.99-1.21,1.83-2.51,2.93-3.61,1.07-1.07,2.17-2.09,3.35-2.99,1.1-.82,2.85-2,4.31-1.69.2.03.54-.31.25-.39-.65-.2-1.24-.31-1.92-.17-.79.14-1.49.54-2.2.93-1.44.82-2.65,1.94-3.83,3.07-1.1,1.04-2,2.2-2.93,3.38-.37.45-.76.9-1.13,1.35-.03.17-.08.34-.11.54h.96l-.03-.03Z"/>
    <path class="cls-5" d="M419.53,390.6l-.03-.03-3.42,3.42.03.03,3.42-3.42ZM497.64,389.89h-79.82v4.83h79.82v-4.83ZM494.08,390.21s.04.08.14.28c.09.18.21.42.34.7.27.57.57,1.27.8,1.92l4.56-1.6c-.59-1.69-1.48-3.4-1.65-3.69l-4.2,2.4ZM486,378.74c3.44,3.47,6.37,6.94,7.9,11.11l4.54-1.67c-1.91-5.19-5.46-9.27-9.01-12.85l-3.43,3.4ZM475.4,371c3.97,1.26,7.19,4.33,10.61,7.75l3.42-3.42c-3.29-3.29-7.29-7.27-12.56-8.94l-1.46,4.61ZM462.2,371.48c5.01-.75,9.23-1.73,13.2-.48l1.45-4.61c-5.33-1.68-11.03-.35-15.38.31l.72,4.78ZM445.82,374.66c5.49-1.21,10.89-2.35,16.39-3.18l-.72-4.78c-5.67.86-11.2,2.03-16.7,3.24l1.04,4.72ZM439.72,376.21c.58-.4,1.38-.68,2.49-.91.54-.11,1.1-.21,1.72-.31.59-.1,1.24-.2,1.87-.34l-1-4.73c-.5.11-1.03.19-1.65.29-.6.1-1.26.21-1.93.35-1.31.28-2.85.71-4.21,1.64l2.72,4ZM434.97,380.86c.9-.84,1.81-1.86,2.55-2.64.8-.84,1.5-1.52,2.22-2.01l-2.74-3.99c-1.16.8-2.15,1.79-2.99,2.67-.9.95-1.57,1.72-2.33,2.43l3.3,3.54ZM421.58,390.16c4.79-2.57,9.3-5.47,13.39-9.3l-3.3-3.53c-3.69,3.45-7.81,6.12-12.37,8.57l2.28,4.26ZM419.71,391.07c-.05.23-.19.2.2-.05.18-.12.4-.23.69-.38.22-.11.66-.31.95-.46l-2.21-4.3c-.28.14-1.34.61-2.08,1.09-.82.54-1.96,1.51-2.29,3.15l4.74.95ZM419.71,390.82c-.04-.05-.03-.06-.02-.01,0,.03.02.07.02.13,0,.06,0,.13-.02.19l-4.71-1.07c-.35,1.55.26,2.87.89,3.7l3.84-2.94ZM417.82,392.31l-1.71,1.71.71.71h1v-2.42ZM497.64,392.31v2.42h3.41l-1.13-3.22-2.28.8ZM496.17,389.01l-2.27.83.07.19.1.18,2.1-1.2ZM487.72,377.03l1.72-1.7h0s-1.71,1.7-1.71,1.7ZM476.13,368.69l.73-2.3h0s-.73,2.3-.73,2.3ZM461.84,369.09l-.36-2.39h0s.36,2.39.36,2.39ZM445.3,372.3l.5,2.36h0s0,0,0,0l-.52-2.36ZM438.36,374.22l-1.36-2h0s1.37,2,1.37,2ZM433.32,379.09l-1.65-1.77h0s1.65,1.77,1.65,1.77ZM420.44,388.03l1.1,2.15h.02s.02-.02.02-.02l-1.14-2.13ZM417.34,390.59l2.36.54v-.03s.01-.03.01-.03l-2.37-.47ZM417.79,392.28l-1.92,1.47.1.13.11.11,1.71-1.71Z"/>
    <path class="cls-14" d="M417.79,392.28c-.37-.48-.59-1.07-.45-1.69.28-1.41,2-2,3.1-2.56,4.68-2.51,8.99-5.3,12.88-8.94,1.66-1.55,3.16-3.58,5.05-4.88,1.94-1.32,4.68-1.44,6.93-1.92,5.5-1.21,10.96-2.37,16.55-3.21,4.68-.7,9.64-1.86,14.29-.39,4.62,1.47,8.23,4.99,11.58,8.34,3.5,3.52,6.74,7.3,8.46,11.98.11.2.93,1.78,1.47,3.3h-79.82l-.03-.03Z"/>
    <path class="cls-5" d="M433.13,211.17l.06-.05-3.33-3.51-.06.05,3.33,3.51ZM437.23,239.54c1.62-10.4.41-21.13-3.52-31.02l-4.49,1.79c3.62,9.09,4.72,18.95,3.24,28.49l4.78.74ZM424.64,241.96c.29,0,2.81-.1,5.2-.19,1.22-.05,2.44-.09,3.38-.13.47-.02.87-.03,1.17-.04.15,0,.27,0,.35-.01.1,0,.13,0,.11,0v-4.83c-.29,0-2.81.1-5.2.19-1.22.05-2.44.09-3.38.13-.47.02-.87.03-1.17.04-.15,0-.27,0-.35.01-.1,0-.13,0-.11,0v4.83ZM424.94,224.15c.33,1.88-.07,4.17-.78,6.89-.65,2.52-1.63,5.57-1.92,8.24l4.8.53c.24-2.2,1.03-4.6,1.79-7.55.71-2.74,1.38-5.92.86-8.93l-4.76.82ZM425.41,207.8c-1.52,5.66-1.48,10.48-.48,16.35l4.77-.81c-.91-5.36-.92-9.45.38-14.28l-4.67-1.25ZM430.74,212.22c-.17-1.4-.38-2.79-.61-4.19l-4.77.79c.22,1.33.41,2.66.58,3.99l4.8-.59ZM432.08,230.39c.23-6.17-.59-12.37-1.34-18.18l-4.79.62c.77,5.89,1.52,11.68,1.31,17.37l4.83.18ZM430.79,240.02c.63-3.12,1.17-6.34,1.29-9.64l-4.83-.18c-.11,2.91-.58,5.83-1.19,8.86l4.74.96ZM426.62,242.21c.36-.04.73-.09,1.07-.14.35-.05.68-.09,1.01-.13l-.55-4.8c-.38.04-.75.09-1.1.14-.36.05-.68.09-1,.13l.57,4.8ZM424.65,231.34c-.05,2.68-.32,5.39-.71,8.13l4.79.67c.4-2.87.7-5.78.76-8.71l-4.83-.1ZM424.67,220.6c.5,3.61.04,6.54-.02,10.76l4.83.07c.05-3.48.55-7.41-.02-11.5l-4.79.67ZM430.06,234.33c1.85-6.21.6-9.77-.65-14.66l-4.68,1.2c1.29,5.04,2.12,7.33.7,12.08l4.63,1.38ZM430,240.5c.3-.78.33-1.63.33-2.21,0-.64-.07-1.33-.12-1.91-.06-.63-.11-1.14-.13-1.58-.02-.51.02-.59-.02-.48l-4.63-1.38c-.22.73-.2,1.54-.18,2.07.03.59.09,1.26.14,1.81.06.6.1,1.1.1,1.51,0,.48-.05.55,0,.42l4.51,1.75ZM413.64,244.92c2.79-.79,11.45-2.33,14.55-2.91l-.89-4.75c-2.87.54-11.91,2.15-14.97,3.01l1.32,4.65ZM388.9,252.67c4.21-1.19,8.36-2.57,12.46-3.92,4.11-1.36,8.16-2.69,12.27-3.83l-1.3-4.66c-4.23,1.18-8.39,2.55-12.49,3.9-4.11,1.36-8.16,2.7-12.26,3.86l1.32,4.65ZM382.42,244.13c1.31,2.62,2.57,4.79,3.61,7.19l4.43-1.93c-1.1-2.52-2.6-5.17-3.72-7.41l-4.33,2.15ZM379.66,236.97c.6,2.57,1.65,4.99,2.76,7.17l4.31-2.19c-1.03-2.04-1.89-4.06-2.37-6.09l-4.71,1.1ZM388.74,240.44c-.04-1.52-.96-2.5-1.65-3.03-.65-.51-1.45-.89-1.92-1.12-.61-.3-.88-.45-1.01-.56-.08-.07.32.25.27.87l-4.82-.35c-.12,1.58.78,2.65,1.48,3.22.65.53,1.45.92,1.93,1.15.61.3.91.46,1.1.6.15.12-.2-.1-.22-.65l4.83-.14ZM391.1,249.7c-.37-1.7-1.02-3.54-1.48-5.04-.5-1.62-.85-2.99-.88-4.21l-4.83.13c.05,1.93.58,3.85,1.09,5.51.55,1.78,1.07,3.21,1.38,4.63l4.72-1.02ZM381.59,254.51c.35-.07,2.24-.56,3.94-1,.89-.23,1.77-.46,2.46-.63.35-.09.64-.16.87-.22.25-.06.35-.09.35-.09l-.95-4.74c-.35.07-2.24.56-3.94,1-.89.23-1.77.46-2.46.63-.35.09-.64.16-.87.22-.25.06-.35.09-.35.09l.95,4.74ZM377.38,244.87c.23,2.57.59,5.31,1.42,7.99l4.61-1.44c-.68-2.18-1-4.52-1.22-6.98l-4.81.43ZM377.42,230.1c-1.04,5.17-.48,9.98-.04,14.77l4.81-.44c-.46-4.99-.91-9.03-.04-13.38l-4.74-.95ZM383.38,239.44c1.21-3.27,1.79-5.56,1.81-7.17,0-.8-.12-1.79-.73-2.64-.71-.97-1.73-1.29-2.53-1.32-.7-.03-1.32.15-1.67.25-.19.06-.38.12-.5.17-.15.05-.22.08-.27.09-.07.02.04-.02.23-.03.12,0,.91-.07,1.63.58.79.72.75,1.62.72,1.84-.03.25-.09.38-.06.29l-4.46-1.86c-.1.25-.25.63-.29,1.07-.04.42-.05,1.43.82,2.23.79.73,1.72.69,2,.67.36-.03.66-.12.82-.16.17-.05.35-.12.47-.16.14-.05.23-.08.33-.11.22-.07.19-.03.03-.04-.26-.01-.8-.14-1.17-.65-.28-.38-.2-.62-.2-.28,0,.7-.32,2.32-1.51,5.54l4.53,1.68ZM385.68,251.21c-.41-2.52-1.25-4.93-1.73-6.74-.51-1.92-.77-3.59-.45-5.46l-4.76-.82c-.49,2.86-.05,5.32.54,7.53.62,2.33,1.27,4.04,1.63,6.25l4.77-.77ZM376.66,255.47c.32-.06,2-.42,3.6-.77,1.66-.36,3.24-.7,3.48-.74l-.9-4.75c-.32.06-2,.42-3.6.77-1.66.36-3.24.7-3.48.74l.9,4.75ZM373.24,237.3c-.93,5.49-.63,11.03.62,16.36l4.71-1.1c-1.12-4.78-1.38-9.66-.56-14.44l-4.77-.81ZM391.28,205.37c-3.26,4.35-7.28,9.46-10.68,14.81-3.4,5.35-6.34,11.19-7.36,17.1l4.76.82c.86-4.99,3.41-10.18,6.68-15.34,3.27-5.15,7.11-10.03,10.47-14.5l-3.87-2.9ZM398.46,180.06c.34,3.63-.31,8.47-1.68,13.25-1.37,4.78-3.37,9.21-5.5,12.06l3.87,2.89c2.6-3.48,4.81-8.51,6.27-13.62,1.46-5.11,2.27-10.6,1.85-15.04l-4.81.45ZM391.37,158.19c3.07,2.16,4.66,5.26,5.58,9.08.94,3.94,1.09,8.22,1.52,12.79l4.81-.45c-.39-4.17-.58-9.08-1.63-13.46-1.08-4.5-3.13-8.84-7.5-11.91l-2.78,3.95ZM369.12,155.94c2.01,1.02,4.25,1.34,6.37,1.4,2.12.07,4.35-.12,6.37-.26,2.09-.15,3.96-.25,5.64-.1,1.66.15,2.92.53,3.87,1.2l2.78-3.95c-1.9-1.34-4.1-1.87-6.22-2.06-2.11-.19-4.34-.05-6.4.09-2.13.15-4.07.31-5.88.25-1.8-.06-3.24-.33-4.35-.89l-2.18,4.32ZM353.3,148.82q-.84,2.26-.84,2.26s0,0,0,0c0,0,0,0,0,0,0,0,0,0,0,0,0,0,.02,0,.03.01.02,0,.06.02.1.04.09.03.22.08.39.14.34.12.83.3,1.43.52,1.2.43,2.86,1.01,4.69,1.6,3.56,1.16,8.02,2.49,10.84,2.79l.52-4.81c-2.23-.24-6.22-1.39-9.86-2.58-1.77-.58-3.39-1.14-4.57-1.56-.59-.21-1.06-.38-1.39-.5-.16-.06-.29-.11-.38-.14-.04-.02-.08-.03-.1-.04-.01,0-.02,0-.02,0,0,0,0,0,0,0,0,0,0,0,0,0,0,0,0,0,0,0t-.84,2.26ZM339.72,144.98c2.15,1.7,5.45,3.24,8.01,4.31,1.32.55,2.51,1,3.38,1.32.43.16.79.28,1.03.37.12.04.22.08.29.1.03.01.06.02.08.03,0,0,.02,0,.02,0,0,0,0,0,0,0,0,0,0,0,0,0,0,0,0,0,0,0t.76-2.29q.76-2.29.76-2.29s0,0,0,0c0,0,0,0,0,0,0,0,0,0,0,0,0,0,0,0-.01,0-.01,0-.03-.01-.06-.02-.06-.02-.14-.05-.26-.09-.23-.08-.55-.19-.96-.34-.82-.3-1.94-.72-3.18-1.24-2.55-1.06-5.29-2.39-6.87-3.64l-3,3.79ZM334.26,130.51c.17.3.41,1.02.72,2.29.15.59.29,1.24.45,1.93.16.69.32,1.42.5,2.15.35,1.45.77,3,1.31,4.36.51,1.29,1.27,2.77,2.48,3.73l3-3.79c-.17-.14-.54-.61-.98-1.72-.41-1.03-.77-2.31-1.1-3.71-.17-.69-.32-1.39-.48-2.08-.16-.69-.31-1.38-.47-2.02-.29-1.19-.66-2.55-1.2-3.51l-4.22,2.36ZM331.78,145.15c.51-1.24,1.98-4.1,3.52-7.24.75-1.53,1.5-3.08,2.1-4.45.58-1.31,1.11-2.62,1.33-3.59l-4.71-1.08c-.1.45-.45,1.37-1.04,2.71-.57,1.28-1.28,2.77-2.02,4.28-1.44,2.93-3.06,6.1-3.65,7.54l4.47,1.84ZM330.13,149.83c.7-1.51.88-2.13,1.02-2.8.06-.31.1-.6.63-1.87l-4.46-1.86c-.66,1.57-.78,2.16-.9,2.74-.04.21-.08.47-.68,1.77l4.39,2.03ZM313.87,157.94c.27-.6.82-1.11,1.95-1.57,1.18-.48,2.65-.77,4.43-1.12,1.66-.32,3.64-.69,5.35-1.39,1.76-.72,3.56-1.9,4.54-4.04l-4.4-2.01c-.27.6-.83,1.12-1.97,1.58-1.18.48-2.66.77-4.44,1.12-1.66.32-3.64.69-5.35,1.39-1.76.72-3.55,1.91-4.52,4.05l4.4,1.99ZM307.39,165.29c.2-1.35.48-1.79.58-1.92.06-.08.13-.16.67-.39.51-.21,1.53-.58,2.52-1.37,1.03-.82,1.93-1.98,2.7-3.68l-4.4-2c-.52,1.15-.99,1.64-1.3,1.89-.36.28-.67.4-1.39.7-.68.29-1.74.75-2.61,1.86-.83,1.06-1.3,2.45-1.56,4.19l4.78.72ZM306.19,183.16c-.6-4.77.4-12.66,1.2-17.86l-4.78-.73c-.78,5.07-1.92,13.65-1.22,19.2l4.8-.6ZM308.49,193.94s-.03-.1-.12-.47c-.08-.33-.17-.76-.28-1.26-.22-1.01-.48-2.29-.74-3.58-.51-2.47-1.06-5.22-1.23-5.83l-4.65,1.32s0,0,.01.04c0,.03.02.07.03.13.03.11.06.25.09.42.07.34.17.78.27,1.29.21,1.02.47,2.31.74,3.6.26,1.29.53,2.59.75,3.62.2.94.41,1.9.56,2.32l4.56-1.6ZM322.24,214.64c-2.59-3.45-5.25-6.62-7.85-10.22-2.53-3.5-4.67-6.99-5.91-10.49l-4.56,1.61c1.47,4.15,3.92,8.07,6.54,11.7,2.55,3.54,5.59,7.21,7.9,10.29l3.86-2.9ZM338.33,246.42c-2.26-7.64-3.85-12.41-6.13-16.89-2.28-4.47-5.2-8.57-9.97-14.89l-3.86,2.91c4.78,6.34,7.46,10.13,9.52,14.18,2.06,4.05,3.55,8.44,5.8,16.07l4.64-1.37ZM334.8,255.44c.52.08,1.1,0,1.61-.31.47-.28.74-.65.88-.89.25-.44.3-.84.32-.95.04-.29.02-.56.01-.67-.02-.28-.06-.62-.1-.92-.09-.66-.2-1.4-.25-2.11-.03-.35-.04-.65-.03-.89,0-.26.04-.35.03-.32,0,.02-.04.13-.13.27-.1.15-.27.36-.56.54-.68.41-1.3.24-1.46.18l1.77-4.5c-.72-.28-1.79-.44-2.81.18-.91.55-1.28,1.42-1.43,1.92-.3,1-.26,2.18-.2,2.98.07.89.2,1.81.28,2.4.04.33.07.51.07.59,0,.07-.01-.06.01-.26,0-.06.05-.43.29-.85.13-.23.39-.59.86-.87.51-.3,1.08-.38,1.59-.3l-.76,4.77ZM324.38,234.69c5.08,6.9,5.38,10.48,8.53,19.19l4.55-1.64c-2.94-8.13-3.56-12.77-9.19-20.41l-3.89,2.87ZM309.08,214.44c5.02,6.76,10.37,13.51,15.29,20.24l3.9-2.86c-4.82-6.59-10.53-13.82-15.31-20.26l-3.88,2.88ZM307.38,205.77c.09.16.2.46.27,1.04.07.59.07,1.23.09,2.07.01.77.03,1.71.18,2.62.15.92.46,1.99,1.17,2.95l3.87-2.89c-.07-.1-.19-.33-.27-.83-.08-.52-.11-1.13-.12-1.92-.01-.73-.02-1.66-.12-2.54-.1-.89-.32-1.94-.89-2.92l-4.18,2.43ZM313.96,208.81c-.83-1.65-1.56-3.36-2.24-5.13l-4.51,1.75c.72,1.86,1.51,3.73,2.43,5.56l4.32-2.17ZM323.69,223.49c-3.69-4.75-7.13-9.55-9.73-14.69l-4.31,2.18c2.81,5.56,6.48,10.65,10.22,15.47l3.82-2.97ZM334.6,238.53c-3.2-5.44-7.2-10.28-10.91-15.04l-3.81,2.97c3.83,4.91,7.56,9.43,10.56,14.52l4.17-2.45ZM338.64,246.68c-1.07-2.92-2.57-5.62-4.04-8.14l-4.18,2.43c1.46,2.5,2.77,4.88,3.68,7.36l4.54-1.66ZM340.72,253.59c-.31-.95-.63-2.08-.97-3.32-.34-1.2-.7-2.49-1.11-3.59l-4.54,1.66c.33.9.65,2.02.99,3.24.33,1.17.68,2.46,1.04,3.54l4.59-1.53ZM315.41,252.19c3.66.38,7.33,1.18,11.12,2.07,3.74.87,7.63,1.84,11.5,2.49l.79-4.77c-3.68-.61-7.35-1.53-11.2-2.43-3.8-.89-7.73-1.75-11.71-2.17l-.5,4.81ZM297.95,252.45c5.82-.7,11.67-.86,17.47-.26l.49-4.81c-6.21-.64-12.42-.47-18.54.27l.58,4.8ZM293.8,248.86c.25.33.4.61.78,1.22.33.52.8,1.21,1.51,1.82l3.14-3.68c-.14-.12-.3-.31-.56-.73-.21-.32-.61-1.01-1.03-1.57l-3.84,2.94ZM290.67,243.86s.11.17.43.69c.28.45.64,1.04,1.01,1.63.36.59.73,1.18,1.01,1.64.24.39.52.84.65,1.01l3.89-2.87s-.11-.17-.43-.69c-.28-.45-.64-1.04-1.01-1.63-.36-.59-.73-1.18-1.01-1.64-.24-.39-.52-.84-.65-1.01l-3.89,2.87ZM298.4,249.45c-.25-.72-1.08-2.55-1.82-4.14-.79-1.73-1.53-3.3-1.72-3.79l-4.49,1.8c.25.63,1.07,2.4,1.81,4.01.8,1.75,1.49,3.27,1.64,3.69l4.57-1.57ZM293,253.16c1.16-.19,2.28-.37,3.43-.53l-.65-4.79c-1.22.17-2.41.36-3.56.54l.77,4.77ZM277.88,244.9c3.87,4.21,8.76,6.89,14.16,8.22l1.16-4.69c-4.57-1.13-8.59-3.36-11.76-6.8l-3.56,3.28ZM269.12,226.8c1.38,6.38,4,12.92,8.75,18.1l3.56-3.27c-3.98-4.34-6.32-9.99-7.59-15.85l-4.72,1.02ZM267.94,214.6c-.06,4.08.32,8.19,1.18,12.2l4.73-1.01c-.78-3.64-1.13-7.39-1.07-11.12l-4.83-.07ZM273.95,199.4c-2.67,4.41-4.76,9.52-5.95,14.69l4.71,1.08c1.07-4.66,2.97-9.29,5.38-13.27l-4.14-2.5ZM283.25,185.51c-1.19,2.32-2.7,4.48-4.35,6.75-1.62,2.23-3.4,4.59-4.95,7.13l4.13,2.51c1.41-2.32,3.04-4.48,4.73-6.8,1.66-2.28,3.36-4.71,4.74-7.39l-4.3-2.21ZM285.08,178.5c-.42,2.45-1.11,4.86-1.96,7.32l4.57,1.57c.9-2.61,1.67-5.28,2.15-8.08l-4.76-.82ZM284.24,165.04c1.29,4.5,1.62,8.91.84,13.47l4.76.81c.91-5.34.51-10.49-.96-15.62l-4.65,1.33ZM278.18,139.34c.96,8.87,3.72,17.47,6.05,25.69l4.65-1.32c-2.4-8.46-4.99-16.54-5.9-24.89l-4.81.52ZM281.3,114.07c-3.24,8.13-4.02,16.8-3.12,25.27l4.81-.51c-.84-7.84-.1-15.69,2.8-22.96l-4.49-1.79ZM306.86,85.95c-11.34,6.45-20.73,16.03-25.56,28.13l4.49,1.79c4.35-10.89,12.88-19.7,23.46-25.72l-2.39-4.2ZM307.26,85.67c-.07.05-.13.09-.18.13-.05.04-.09.06-.12.08-.06.04-.07.05-.06.04l2.3,4.25c.33-.18.76-.49.77-.5l-2.71-4ZM314.16,80.03c-2.56,1.51-5.39,3.54-7.44,6.16l3.81,2.98c1.5-1.93,3.74-3.59,6.08-4.97l-2.45-4.17ZM327.17,75.06c-4.38,1.09-8.92,2.58-13,4.96l2.44,4.18c3.52-2.05,7.56-3.4,11.74-4.45l-1.17-4.69ZM357.39,72.37c-9.92-.35-20.44.24-30.23,2.69l1.17,4.69c9.2-2.31,19.25-2.89,28.88-2.55l.17-4.83ZM386.23,78.36c-9.13-3.89-19.01-5.64-28.84-5.99l-.17,4.83c9.39.34,18.66,2.01,27.12,5.61l1.89-4.45ZM398.98,85.41c-4.01-2.64-8.2-5.1-12.74-7.05l-1.9,4.44c4.19,1.79,8.11,4.09,11.99,6.64l2.66-4.04ZM409.78,94.51c-3.1-3.66-6.99-6.56-10.79-9.09l-2.67,4.03c3.69,2.45,7.12,5.05,9.78,8.18l3.69-3.12ZM417.06,107.47c-1.83-4.26-3.97-9.04-7.28-12.96l-3.7,3.12c2.78,3.3,4.69,7.45,6.53,11.74l4.44-1.9ZM422.09,122.01c-1.23-4.98-3.02-9.87-5.03-14.54l-4.44,1.91c1.94,4.52,3.64,9.15,4.78,13.79l4.69-1.15ZM423.82,152.27c.48-9.86.76-20.21-1.73-30.27l-4.69,1.16c2.3,9.3,2.07,19,1.59,28.87l4.83.23ZM423.26,167.27c.03-4.96.33-9.93.56-15.01l-4.83-.22c-.22,4.97-.54,10.11-.57,15.2l4.83.03ZM424.87,182.1c-.99-4.98-1.64-9.89-1.62-14.83l-4.83-.03c-.03,5.38.68,10.63,1.71,15.8l4.74-.95ZM427.56,195.59c-.77-4.54-1.8-9.11-2.69-13.5l-4.74.96c.92,4.54,1.91,8.9,2.66,13.35l4.77-.81ZM433.77,208.48c-1.86-4.7-4.2-9.2-6.44-13.58l-4.3,2.2c2.27,4.45,4.49,8.71,6.24,13.15l4.5-1.77ZM431.46,209.42l-1.66-1.75-1.19,1.13.6,1.52,2.25-.89ZM434.84,239.17v2.42h2.07l.32-2.05-2.39-.37ZM424.64,239.55l-2.4-.26-.29,2.68h2.7v-2.42ZM427.32,223.74l-2.38.41h0s2.38-.41,2.38-.41ZM427.74,208.43l2.38-.39-4.72-.23,2.33.63ZM428.34,212.52l-2.4.3h0s2.4-.3,2.4-.3ZM429.66,230.3l-2.42-.09h0s2.42.09,2.42.09ZM428.42,239.55l.27,2.4,1.75-.2.35-1.72-2.37-.48ZM426.34,239.81l-2.39-.34-.44,3.11,3.11-.37-.28-2.4ZM427.07,231.39l2.42.05h0s-2.42-.05-2.42-.05ZM427.07,220.26l2.34-.6-4.74.93,2.39-.33ZM427.74,233.63l-2.32-.69h0s2.32.69,2.32.69ZM427.74,239.63l.45,2.38,1.32-.25.49-1.25-2.25-.87ZM412.98,242.59l.65,2.33h0s-.66-2.33-.66-2.33ZM388.24,250.35l-2.22.96.84,1.94,2.03-.58-.66-2.33ZM384.58,243.05l2.16-1.08h0s0-.02,0-.02l-2.16,1.09ZM382.02,236.42l2.35-.55-4.76.37,2.41.18ZM386.32,240.51l2.42-.06h0s-2.42.06-2.42.06ZM388.74,250.21l.47,2.37,2.41-.48-.52-2.4-2.36.51ZM381.12,252.14l-2.31.72.65,2.07,2.13-.43-.47-2.37ZM379.79,244.65l2.41-.22h0s-2.41.22-2.41.22ZM379.79,230.58l2.37.48-4.6-1.41,2.23.93ZM381.12,238.6l-2.27-.84-.08.21-.04.22,2.38.41ZM383.29,251.59l.45,2.37,2.31-.44-.37-2.32-2.39.38ZM376.21,253.1l-2.35.55.53,2.26,2.28-.43-.45-2.37ZM375.62,237.7l-2.38-.41h0s2.38.41,2.38.41ZM393.22,206.82l1.93,1.45h0s-1.94-1.45-1.94-1.45ZM400.87,179.83l-2.41.22h0s2.41-.22,2.41-.22ZM392.76,156.21l-1.39,1.98h0s1.39-1.98,1.39-1.98ZM370.21,153.78l1.09-2.16-.39-.2-.44-.05-.26,2.4ZM353.3,148.82l.84-2.26h-.04s-.04-.03-.04-.03l-.76,2.29ZM341.22,143.08l-1.5,1.9,1.5-1.9ZM336.37,129.33l2.11-1.18-3.07-5.47-1.4,6.11,2.36.54ZM329.54,144.23l2.23.93h0s-2.24-.93-2.24-.93ZM327.93,148.82l-2.19-1.01h0s2.2,1.01,2.2,1.01ZM311.66,156.94l2.2,1h0s-2.2-1-2.2-1ZM305,164.93l2.39.37h0s-2.39-.37-2.39-.37ZM303.79,183.46l-2.4.3.02.18.05.18,2.32-.66ZM306.21,194.74l-2.28.8h0s2.28-.8,2.28-.8ZM320.3,216.09l-1.93,1.45h0s1.93-1.45,1.93-1.45ZM336.01,247.11l-.89,2.25,4.61,1.81-1.4-4.75-2.32.68ZM335.18,253.06l-2.27.82.49,1.34,1.41.22.38-2.39ZM326.32,233.25l-1.95,1.43h0s1.95-1.43,1.95-1.43ZM311.02,213l1.94-1.44h0s-1.94,1.44-1.94,1.44ZM309.47,204.55l2.09-1.22-4.34,2.09,2.25-.87ZM311.8,209.9l-2.16,1.09h0s2.16-1.09,2.16-1.09ZM321.78,224.98l-1.91,1.48h0s1.91-1.48,1.91-1.48ZM332.51,239.76l2.09-1.22h0s-2.08,1.22-2.08,1.22ZM336.37,247.51l-2.27.83h0s2.27-.83,2.27-.83ZM338.43,254.36l-.4,2.38,3.96.66-1.27-3.81-2.29.76ZM315.66,249.78l.25-2.4h0s-.25,2.4-.25,2.4ZM297.66,250.05l-1.57,1.84.81.69,1.05-.13-.29-2.4ZM295.72,247.39l-1.94,1.43v.02s.03.02.03.02l1.92-1.47ZM292.62,242.42l1.94-1.43-4.19,2.34,2.24-.9ZM296.11,250.24l.32,2.4,2.92-.4-.96-2.78-2.29.78ZM292.62,250.77l-.58,2.35.48.12.49-.08-.39-2.39ZM279.66,243.26l-1.78,1.63h0s1.78-1.63,1.78-1.63ZM271.49,226.29l-2.36.51h0s2.36-.51,2.36-.51ZM270.36,214.63l-2.36-.54-.06.25v.26s2.41.03,2.41.03ZM276.02,200.65l-2.07-1.26h0s2.07,1.26,2.07,1.26ZM285.4,186.61l2.15,1.1.08-.15.06-.16-2.29-.79ZM287.46,178.91l2.38.41h0s-2.38-.41-2.38-.41ZM286.56,164.37l-2.33.66h0s2.32-.66,2.32-.66ZM280.59,139.08l-2.4.26h0s2.4-.26,2.4-.26ZM283.55,114.97l-2.24-.9h0s2.24.9,2.24.9ZM308.06,88.05l-1.15-2.12h-.02s-.02.02-.02.02l1.19,2.1ZM308.62,87.67l1.36,2,.31-.21.23-.3-1.9-1.49ZM315.38,82.11l-1.22-2.09h0s1.23,2.09,1.23,2.09ZM327.75,77.41l.59,2.34h0s-.59-2.34-.59-2.34ZM357.31,74.79l.09-2.42h0s-.09,2.42-.09,2.42ZM385.29,80.59l.95-2.22h0s-.95,2.22-.95,2.22ZM397.65,87.43l1.34-2.01h0s-1.33,2.01-1.33,2.01ZM407.94,96.07l1.85-1.56h0s-1.84,1.56-1.84,1.56ZM414.84,108.42l-2.22.95h0s2.22-.95,2.22-.95ZM419.74,122.59l-2.35.58h0s2.35-.58,2.35-.58ZM421.41,152.15l-2.41-.12h0s2.41.12,2.41.12ZM420.84,167.26h-2.42s0-.01,0-.01h2.42ZM422.5,182.58l-2.37.47h0s2.37-.47,2.37-.47ZM425.18,196l-2.38.4.06.37.17.33,2.15-1.1ZM431.52,209.36l1.66,1.75,1.18-1.12-.6-1.52-2.25.89Z"/>
    <path class="cls-9" d="M431.52,209.36c-1.8-4.57-4.09-8.96-6.34-13.37-.76-4.49-1.78-8.96-2.68-13.42-1.01-5.08-1.69-10.16-1.66-15.32.03-5.03.34-10.08.56-15.1.48-9.86.73-19.89-1.66-29.57-1.18-4.81-2.93-9.57-4.9-14.17-1.83-4.28-3.86-8.74-6.9-12.35-2.87-3.4-6.54-6.15-10.28-8.63-3.94-2.59-8-4.97-12.37-6.84-8.79-3.74-18.37-5.45-27.98-5.8-9.78-.35-20.06.24-29.56,2.62-4.28,1.07-8.57,2.49-12.37,4.71-2.45,1.44-4.99,3.29-6.76,5.56-.2.13-.37.27-.56.37-10.96,6.23-19.92,15.43-24.51,26.92-3.07,7.7-3.83,15.96-2.96,24.11.93,8.61,3.61,16.95,5.97,25.29,1.38,4.81,1.75,9.6.9,14.54-.45,2.62-1.18,5.16-2.06,7.7-2.56,5-6.42,9.17-9.38,14.04-2.54,4.2-4.54,9.06-5.66,13.98-.06,3.9.31,7.83,1.13,11.66,1.32,6.12,3.8,12.22,8.17,16.98,3.52,3.82,7.97,6.28,12.96,7.51,1.16-.19,2.31-.37,3.49-.53-.39-1.15-3.04-6.69-3.49-7.82.2.27,2.9,4.7,3.1,4.97.68.88,1.1,1.94,1.94,2.66,5.97-.72,12-.88,18-.27,7.64.8,15.22,3.31,22.77,4.57-.68-2.03-1.33-4.84-2.06-6.84-.99-2.7-2.39-5.24-3.86-7.75-3.1-5.27-6.96-9.94-10.73-14.78-3.72-4.79-7.27-9.73-9.97-15.08-.87-1.74-1.63-3.53-2.34-5.35,1.32,2.27-.02,6.34,1.55,8.45,4.9,6.6,10.43,13.59,15.3,20.25,5.35,7.27,5.82,11.38,8.86,19.8.34.05-1.45-6.85.83-5.95-4.51-15.26-6.16-18.35-15.71-31.02-4.9-6.52-11.39-13.7-14.1-21.35-.34-.96-2.14-10.29-2.42-11.28-.65-5.16.42-13.4,1.21-18.53.93-6.18,4.07-2.3,6.67-7.99,2.48-5.48,13.76-2.64,16.27-8.12,1.3-2.81.43-1.75,1.61-4.58,1.1-2.67,6.18-12.07,6.83-14.9,1.41,2.51,2.07,11.56,4.85,13.75,3.73,2.95,12.08,5.73,12.08,5.73,0,0,11.86,4.42,16.91,4.97,6.25,3.15,16.86-1.58,22.55,2.43,7.44,5.24,7.29,14.88,8.11,23.62.76,8.07-2.92,20.65-7.65,26.99-6.62,8.82-15.71,19.97-17.59,30.88-.87,5.13-.59,10.35.59,15.4.56-.11,6.52-1.4,7.08-1.51-.76-4.73-3-8.26-2.18-12.99,4.8-12.99-2.45-5.32-1.32-8.02-.96,4.76-.45,9.18,0,14.07.23,2.51.56,5.05,1.32,7.49.54-.11,7.08-1.82,7.62-1.93-.68-3.13-2.33-6.54-2.42-9.7-.06-1.95-4.44-2.17-4.3-4.09.54,2.3,1.49,4.52,2.56,6.63,1.21,2.43,2.59,4.84,3.66,7.3,8.31-2.35,16.4-5.43,24.74-7.75,2.93-.83,11.78-2.4,14.76-2.96.51-1.31-.37-4.77,0-6,1.63-5.48.59-8.41-.68-13.37.54,3.85.06,7.28,0,11.13-.06,2.81-.34,5.61-.73,8.42.68-.08,1.38-.19,2.08-.27.62-3.07,1.13-6.15,1.24-9.25.23-5.93-.56-11.92-1.32-17.78-.17-1.36-.37-2.73-.59-4.09-1.41,5.24-1.39,9.7-.43,15.31.85,4.89-2.15,10.94-2.68,15.8.45,0,9.76-.37,10.21-.37,1.55-9.97.39-20.26-3.38-29.75l.06-.05Z"/>
    <path class="cls-13" d="M404.9,245.09l1.61-.4c0-10.63-2.69-17.86-4.03-20.14,2.9,7.41,2.82,16.78,2.42,20.54Z"/>
    <path class="cls-13" d="M424.23,240.26c2.9-9.35.4-25.11-1.21-31.82,3.87,13.21,4.3,26.45,4.03,31.42l-2.82.4Z"/>
    <path class="cls-13" d="M313.05,230.59c-1.93-4.19-6.71-10.88-8.86-13.7,3.87,3.54,8.33,10.34,10.07,13.29.64.64,6.45,14.23,9.27,20.95l-1.61-.4c-2.15-4.97-6.93-15.95-8.86-20.14Z"/>
    <path class="cls-13" d="M297.75,249.93l-1.61.4c-4.28-6.42-6.54-14.02-7.34-18.57-.2-.88-.31-1.68-.31-2.38.05.64.15,1.45.31,2.38,1.28,5.57,6.17,14.1,8.95,18.16Z"/>
    <path class="cls-13" d="M299.36,147.21c8.19-4.03,25.46-15.31,29-28.2-3.36,5.24-13.86,18.21-29,28.2Z"/>
    <path class="cls-13" d="M347.7,118.2c5.37,8.33,22.4,24.73,47.53,23.77-9.94-.54-33.35-6.04-47.53-23.77Z"/>
    <path class="cls-13" d="M354.54,102.89c6.71,10.2,19.9,25.94,46.33,34.64-9.8-4.7-27.31-12.73-46.33-34.64Z"/>
    <path class="cls-5" d="M450.38,264.04h-207.08v4.83h207.08v-4.83ZM459.24,273.81c.42-5.22-3.62-9.77-8.86-9.77v4.83c2.31,0,4.25,2.04,4.05,4.55l4.82.39ZM449.46,395.75l9.78-121.93-4.82-.39-9.78,121.93,4.82.39ZM246.62,397.97h200.43v-4.83h-200.43v4.83ZM234.43,273.81l9.78,121.93,4.82-.39-9.78-121.93-4.82.39ZM243.29,264.04c-5.24,0-9.28,4.55-8.86,9.77l4.82-.39c-.2-2.51,1.73-4.55,4.05-4.55v-4.83ZM456.83,273.62l-2.41-.19h0s2.41.19,2.41.19ZM447.05,395.55v2.42h2.23l.18-2.22-2.41-.19ZM246.62,395.55l-2.41.19.18,2.22h2.23v-2.42ZM236.84,273.62l2.41-.19h0s-2.41.19-2.41.19Z"/>
    <path class="cls-11" d="M243.29,266.46c-3.78,0-6.76,3.3-6.45,7.16l9.78,121.93h200.43l9.78-121.93c.31-3.86-2.68-7.16-6.45-7.16h-207.08Z"/>
    <path class="cls-5" d="M346.82,324.07c5.49,0,9.93,4.44,9.93,9.93h4.83c0-8.16-6.61-14.76-14.76-14.76v4.83ZM336.89,334c0-5.49,4.44-9.93,9.93-9.93v-4.83c-8.16,0-14.76,6.61-14.76,14.76h4.83ZM346.82,343.92c-5.49,0-9.93-4.44-9.93-9.93h-4.83c0,8.16,6.61,14.76,14.76,14.76v-4.83ZM356.75,334c0,5.49-4.44,9.93-9.93,9.93v4.83c8.16,0,14.76-6.61,14.76-14.76h-4.83Z"/>
    <circle class="cls-7" cx="346.82" cy="334" r="12.35" transform="translate(-51.39 604.67) rotate(-78.13)"/>
    <path class="cls-15" d="M448.04,268.49h-204.63c-6.51.73-4.45,10.03-4.45,10.03.42-7.44,6.14-7.61,6.14-7.61h201.31s5.72.2,6.14,7.61c0,0,2.06-9.3-4.45-10.03h-.06Z"/>
    <path class="cls-5" d="M99.04,514.58v-127.53h-4.83v127.53h4.83ZM604.3,512.17H96.62v4.83h507.68v-4.83ZM601.88,387.05v127.53h4.83v-127.53h-4.83ZM96.62,389.47h507.68v-4.83H96.62v4.83ZM96.62,514.58h-2.42v2.42h2.42v-2.42ZM604.3,514.58v2.42h2.42v-2.42h-2.42ZM604.3,387.05h2.42v-2.42h-2.42v2.42ZM96.62,387.05v-2.42h-2.42v2.42h2.42Z"/>
    <rect class="cls-8" x="96.62" y="387.05" width="507.68" height="127.53"/>
    <path class="cls-5" d="M79.42,400.54v-14.72h-4.83v14.72h4.83ZM623.92,398.12H77v4.83h546.92v-4.83ZM621.5,385.82v14.72h4.83v-14.72h-4.83ZM77,388.24h546.92v-4.83H77v4.83ZM77,400.54h-2.42v2.42h2.42v-2.42ZM623.92,400.54v2.42h2.42v-2.42h-2.42ZM623.92,385.82h2.42v-2.42h-2.42v2.42ZM77,385.82v-2.42h-2.42v2.42h2.42Z"/>
    <rect class="cls-18" x="77" y="385.82" width="546.92" height="14.72"/>
  </g>
</svg>