<?xml version="1.0" encoding="UTF-8"?>
<svg xmlns="http://www.w3.org/2000/svg" xmlns:xlink="http://www.w3.org/1999/xlink" viewBox="0 0 700 400">
  <defs>
    <style>
      .cls-1 {
        mix-blend-mode: multiply;
      }

      .cls-1, .cls-2 {
        isolation: isolate;
      }

      .cls-3 {
        clip-path: url(#clippath);
      }

      .cls-4, .cls-5 {
        fill: none;
      }

      .cls-4, .cls-5, .cls-6, .cls-7, .cls-8, .cls-9, .cls-10, .cls-11, .cls-12, .cls-13, .cls-14, .cls-15, .cls-16, .cls-17, .cls-18, .cls-19 {
        stroke-width: 0px;
      }

      .cls-20 {
        clip-path: url(#clippath-1);
      }

      .cls-21 {
        clip-path: url(#clippath-4);
      }

      .cls-22 {
        clip-path: url(#clippath-3);
      }

      .cls-23 {
        clip-path: url(#clippath-2);
      }

      .cls-24 {
        clip-path: url(#clippath-7);
      }

      .cls-25 {
        clip-path: url(#clippath-8);
      }

      .cls-26 {
        clip-path: url(#clippath-6);
      }

      .cls-27 {
        clip-path: url(#clippath-5);
      }

      .cls-28 {
        clip-path: url(#clippath-9);
      }

      .cls-29 {
        clip-path: url(#clippath-12);
      }

      .cls-30 {
        clip-path: url(#clippath-10);
      }

      .cls-31 {
        clip-path: url(#clippath-11);
      }

      .cls-5 {
        clip-rule: evenodd;
      }

      .cls-6 {
        fill-rule: evenodd;
      }

      .cls-6, .cls-8 {
        fill: #f6dfc9;
      }

      .cls-9 {
        fill: #794b29;
      }

      .cls-10 {
        fill: #458383;
      }

      .cls-11 {
        fill: #157177;
      }

      .cls-12 {
        fill: #c69358;
      }

      .cls-13 {
        fill: #90a5a5;
      }

      .cls-14 {
        fill: #7ecbbf;
      }

      .cls-15 {
        fill: #efcaac;
      }

      .cls-16 {
        fill: #fff;
      }

      .cls-17 {
        fill: #fadfbf;
      }

      .cls-18 {
        fill: #ffbaba;
      }

      .cls-19 {
        fill: #f1d0de;
      }
    </style>
    <clipPath id="clippath">
      <rect class="cls-4" width="700" height="400"/>
    </clipPath>
    <clipPath id="clippath-1">
      <path class="cls-5" d="M296.92,266.2l-4.28-.62s-6.32,10.44-24.02,31.28c-17.67,20.84-45.51,64.58-47.58,71.04,0,0,.81,31.68,7.79,39.23,6.98,7.55,54.28,63.36,54.28,63.36l11.39-22.79-34.37-73.92,45.03-61.6-8.22-45.98h-.03Z"/>
    </clipPath>
    <clipPath id="clippath-2">
      <path class="cls-5" d="M317.9,274.51c2.5,6.12,6.92,10.95,12.61,14.29,10.86,6.38,24.48,7.5,36.79,6.61,12.42-.88,24.48-5.51,34.29-13.11,9.61-7.45,16.99-17.52,21.74-28.65.31-.72,1.28-3.21,1.56-3.96-9.45-3.44-23.02-5.05-31.86-8.14-7.47-2.61-10.05-54.03-14.82-53.94-6.6.16-21.35,12.2-27.65,13.88-2.71.74-9.01,12.3-11.46,13.79-.48,2.54.59,26.36-1.21,28.56-1.74,2.15-3.93,3.92-6.16,5.52-1.24.89-8.84,3.4-17.02,6.15.03,6.43.68,12.98,3.14,18.96l.05.03Z"/>
    </clipPath>
    <clipPath id="clippath-3">
      <path class="cls-5" d="M329.37,250.6s-10.25,16.85,19.82,21.16c30.06,4.31,45.39-29.64,45.39-29.64,0,0,22.36,3.66,35.41,9.08,13.06,5.42,22.3,17.93,22.3,17.93l-14.63,258.22s-37.13,8.82-91.13,4.59c-54.46-4.28-65.61-19.89-65.61-19.89,0,0-5.49-159.69-.69-195.67,4.8-35.98,11.12-53.82,11.12-53.82l38.02-11.94v-.03Z"/>
    </clipPath>
    <clipPath id="clippath-4">
      <path class="cls-5" d="M291.35,262.56s-7.25,2.17-19.18,13.51c-11.93,11.34-55.62,93.89-55.62,93.89,0,0,9.36,28.68,53.8,20.68l9.57-23.93s5.77-80.9,14.85-104.79l-3.41.63Z"/>
    </clipPath>
    <clipPath id="clippath-5">
      <rect class="cls-4" width="700" height="400"/>
    </clipPath>
    <clipPath id="clippath-6">
      <path class="cls-5" d="M266.62,384.06c-11.5.51-22.8-2.42-32.79-8.05-5.25-2.96-10.66-6.97-14.06-12.12-2.04,3.82-3.25,6.08-3.25,6.08,0,0,9.36,28.68,53.8,20.68l2.46-7.15c-2.03.31-4.09.5-6.16.59v-.03Z"/>
    </clipPath>
    <clipPath id="clippath-7">
      <path class="cls-5" d="M446.62,262.01c-6.05-5.45-14.05-9.59-20.67-12.32-1.05,3.46-2.33,6.89-3.52,10.32-1.72,4.9-3.14,9.82-3.83,14.96-1.28,9.28-.91,18.76-.48,28.1.41,8.77,1.47,17.52,2.97,26.15.53,3.11,1.14,6.16,1.77,9.25,6.76,15.74,20.18,50.37,20.18,50.37,44.57,7.38,57.9-27.46,57.9-27.46,0,0-28.31-75.85-54.33-99.37Z"/>
    </clipPath>
    <clipPath id="clippath-8">
      <rect class="cls-4" width="700" height="400"/>
    </clipPath>
    <clipPath id="clippath-9">
      <path class="cls-5" d="M496.41,357.36c-6.89,9.71-16.34,17.06-27.63,21.02-9.49,3.31-20.09,3.35-29.7.34,2.37,6.01,3.96,10.15,3.96,10.15,44.57,7.39,57.9-27.46,57.9-27.46,0,0-1.11-2.35-3.04-6.28-.5.77-.98,1.53-1.5,2.27v-.03Z"/>
    </clipPath>
    <clipPath id="clippath-10">
      <path class="cls-5" d="M381.73,106.89c-9.02-11.9-22.15-20.82-36.91-23.87-13.92-2.91-28.99,6.26-40.96,14.03-11.16,7.24-18.23,12.41-20.94,25.25-.32,1.51-.56,3.02-.8,4.57-.46,1.58-.84,3.23-1.06,4.91-1.16,8.45,1.7,16.71,4.41,24.59,1.47,4.3,2.89,8.65,3.51,13.18.64,4.58.55,9.19.48,13.79-.15,8.41-.04,16.54,4.13,24.11,6.5,11.77,18.02,21.67,31.34,24.6,13.48,2.99,27.53-1.65,39.18-8.37,12.41-7.17,22.99-17.74,29.41-30.58,6.82-13.67,7.08-28.73,4.74-43.56-2.38-15.11-7.21-30.26-16.56-42.58l.03-.05Z"/>
    </clipPath>
    <clipPath id="clippath-11">
      <path class="cls-5" d="M406.15,101.58c-4.57-6.61-11.05-11.73-18.29-15.17-7.24-3.44-15.18-5.37-23.19-5.55-1.33-1.73-3.01-3.12-4.88-4.28-7.07-3.05-15.21-2.23-22.68-.02-8.3,2.47-16.26,6.27-24.1,9.91-9.6,4.48-19.06,9.4-29.03,13.1-5.47,2.04-11.94,1.58-16.9,4.9-7.73,5.15-10.88,15.97-7.44,24.51,7.61,18.89,34.18,14.58,48.74,8.63,6.87-2.82,13.73-5.88,20.46-9.06,4.61-2.17,9.64-4.8,13.32-8.54,9.76,5.34,18.45,12.45,26.15,20.44,7.88,8.16,14.87,17.13,19.78,27.37,1.45,3.07,2.69,6.16,3.48,9.47.77,3.15,1.32,6.33,2.42,9.39.26.78,1.23.44,1.66.03,1.4-1.35,1.83-3.29,2.22-5.12.5-2.35,1.24-4.63,2.01-6.9,1.7-5.09,3.91-9.94,6.16-14.79,2.17-4.72,4.34-9.46,5.69-14.46,1.41-5.27,2.12-10.82,2.18-16.27.13-9.7-2.13-19.54-7.72-27.59h-.03Z"/>
    </clipPath>
    <clipPath id="clippath-12">
      <path class="cls-5" d="M406.43,158.93c-1.23-3.22-4.22-6.56-8.04-6.07-4.69.61-7.09,5.97-8.03,10.04-.24,1-.55,2.32-.76,3.67-.57,1.63-1.07,3.33-1.34,5.08-.57,3.84-.29,7.92-.02,11.8.2,2.98.47,7.44,3.91,8.48,3.14.98,6.09-1.3,8.13-3.44,4.77-4.97,6.57-11.47,7.18-18.2.35-3.77.31-7.81-1.06-11.39l.03.03Z"/>
    </clipPath>
  </defs>
  <g class="cls-2">
    <g id="Layer_1" data-name="Layer 1">
      <g class="cls-3">
        <ellipse class="cls-19" cx="357.46" cy="252.06" rx="136.46" ry="214.97" transform="translate(26.91 538.5) rotate(-76.1)"/>
        <path class="cls-15" d="M296.92,266.2l-4.28-.62s-6.32,10.44-24.02,31.28c-17.67,20.84-45.51,64.58-47.58,71.04,0,0,.81,31.68,7.79,39.23s54.28,63.36,54.28,63.36l11.39-22.79-34.37-73.92,45.03-61.6-8.22-45.98h-.03Z"/>
        <g class="cls-20">
          <path class="cls-7" d="M297.08,263.59h-.03s-.26,5.22-.26,5.22h.03s.26-5.22.26-5.22ZM307.74,311.72l-8.22-45.98-5.14.92,8.22,45.98,5.14-.92ZM262.24,375.32l45.03-61.6-4.22-3.08-45.03,61.6,4.22,3.08ZM296.87,446.6l-34.37-73.92-4.74,2.2,34.37,73.92,4.74-2.2ZM285.45,471.66l11.39-22.79-4.67-2.34-11.39,22.79,4.67,2.34ZM226.91,408.9c3.44,3.72,16.96,19.5,29.69,34.43,6.35,7.45,12.48,14.66,17.02,20.01,2.27,2.67,4.15,4.88,5.45,6.43.65.77,1.16,1.37,1.51,1.78.17.21.31.36.4.47.04.05.08.09.1.12.01.01.02.02.03.03,0,0,0,0,0,0,0,0,0,0,0,0t1.99-1.69q1.99-1.69,1.99-1.69s0,0,0,0c0,0,0,0,0,0,0,0-.01-.02-.03-.03-.02-.03-.06-.07-.1-.12-.09-.11-.22-.26-.4-.47-.35-.41-.86-1.01-1.51-1.78-1.31-1.54-3.18-3.75-5.45-6.43-4.54-5.35-10.68-12.57-17.03-20.02-12.67-14.87-26.29-30.77-29.83-34.59l-3.84,3.55ZM221.04,367.9q-2.61.07-2.61.07s0,0,0,0c0,0,0,0,0,0,0,0,0,.01,0,.02,0,.02,0,.04,0,.07,0,.06,0,.16,0,.28,0,.24.02.59.04,1.04.04.9.1,2.18.19,3.74.19,3.12.51,7.37,1.06,11.87.54,4.49,1.32,9.29,2.42,13.48,1.07,4.07,2.55,8.03,4.77,10.42l3.84-3.55c-1.27-1.37-2.51-4.21-3.55-8.2-1.02-3.87-1.75-8.41-2.28-12.78-.53-4.36-.84-8.5-1.03-11.56-.09-1.53-.15-2.78-.18-3.64-.02-.43-.03-.77-.04-1,0-.11,0-.2,0-.26,0-.03,0-.05,0-.06,0,0,0-.01,0-.01,0,0,0,0,0,0,0,0,0,0,0,0t-2.61.07ZM266.63,295.16c-8.94,10.54-20.39,26.79-29.83,41.17-4.73,7.2-8.98,13.96-12.18,19.33-1.6,2.69-2.95,5.04-3.97,6.95-.99,1.84-1.76,3.43-2.1,4.49l4.98,1.59c.18-.55.73-1.75,1.73-3.62.97-1.81,2.27-4.09,3.85-6.74,3.15-5.29,7.36-11.99,12.06-19.14,9.41-14.32,20.72-30.36,29.45-40.66l-3.99-3.38ZM292.64,265.57q-2.24-1.35-2.23-1.35s0,0,0,0c0,0,0,0,0,0,0,0,0,0,0,0,0,0,0,0-.01.02-.01.02-.03.04-.05.08-.05.07-.12.19-.22.34-.2.31-.5.78-.93,1.42-.85,1.27-2.17,3.2-4.05,5.78-3.75,5.16-9.72,12.93-18.53,23.3l3.98,3.38c8.89-10.46,14.93-18.34,18.77-23.61,1.92-2.64,3.28-4.62,4.17-5.96.44-.67.77-1.17.99-1.51.11-.17.19-.3.25-.39.03-.04.05-.08.06-.1,0-.01.01-.02.02-.03,0,0,0,0,0,0,0,0,0,0,0,0,0,0,0,0,0,0t-2.23-1.35ZM297.3,263.61l-4.28-.62-.75,5.17,4.28.62.75-5.17ZM296.95,266.2l2.57-.46-.37-2.05-2.08-.1-.13,2.61ZM305.16,312.18l2.11,1.54.66-.9-.2-1.1-2.57.46ZM260.13,373.78l-2.11-1.54-.91,1.25.65,1.4,2.37-1.1ZM294.5,447.7l2.34,1.17.56-1.13-.53-1.14-2.37,1.1ZM283.11,470.49l-1.99,1.69,2.56,3.02,1.77-3.54-2.34-1.17ZM221.04,367.9l-2.49-.8-.13.42v.44s2.62-.07,2.62-.07ZM268.62,296.85l-1.99-1.69h0s1.99,1.69,1.99,1.69ZM292.64,265.57l.38-2.59-1.71-.25-.9,1.48,2.24,1.35ZM296.92,266.2l-.38,2.59.12.02h.12s.13-2.6.13-2.6Z"/>
        </g>
        <path class="cls-8" d="M312.05,458.1c5.65.28,11.35.35,17.01.39,22.67.13,45.44-2.38,67.33-8.37,3.51-.97,6.95-2.1,10.46-3.05,2.48-4.26,4.18-7.34,4.33-7.99.72-2.99,1.36-5.96,1.94-8.9-2.62-5.96,22.14-110.09,19.19-124.66-2.3-11.29,3.88-34.99,1.69-46.3-3.36-6.33-28.52-10.7-41.99-15.4-7.47-2.64-9.13-54.45-13.9-54.36-6.6.16-21.35,12.2-27.65,13.88-2.71.74-9.01,12.3-11.46,13.79-.48,2.54.59,26.36-1.21,28.56-1.74,2.15-3.93,3.92-6.16,5.52-2.71,1.94-36.24,11.84-39.04,14.37-.88,1.16-6.42,71.52-4.61,92.63,3.44,40.21,4.33,60.37,14.69,89.78.95.07,8.35,10.07,9.3,10.11h.08Z"/>
        <path class="cls-15" d="M317.9,274.51c2.5,6.12,6.92,10.95,12.61,14.29,10.86,6.38,24.48,7.5,36.79,6.61,12.42-.88,24.48-5.51,34.29-13.11,9.61-7.45,16.99-17.52,21.74-28.65.31-.72,1.28-3.21,1.56-3.96-9.45-3.44-23.02-5.05-31.86-8.14-7.47-2.61-10.05-54.03-14.82-53.94-6.6.16-21.35,12.2-27.65,13.88-2.71.74-9.01,12.3-11.46,13.79-.48,2.54.59,26.36-1.21,28.56-1.74,2.15-3.93,3.92-6.16,5.52-1.24.89-8.84,3.4-17.02,6.15.03,6.43.68,12.98,3.14,18.96l.05.03Z"/>
        <g class="cls-23">
          <path class="cls-7" d="M316.56,276.76l.05.03,2.57-4.55-.05-.03-2.57,4.55ZM312.09,255.53c.03,6.57.69,13.51,3.33,19.94l4.84-1.98c-2.27-5.53-2.91-11.69-2.94-17.98l-5.23.03ZM330.2,247.24c.05-.04-.01.01-.33.16-.28.13-.66.29-1.14.48-.97.38-2.25.85-3.78,1.39-3.05,1.07-6.97,2.38-11.07,3.76l1.67,4.95c4.08-1.37,8.04-2.69,11.14-3.79,1.55-.54,2.91-1.04,3.97-1.46.94-.38,1.97-.81,2.59-1.25l-3.04-4.25ZM335.86,242.19c-1.52,1.88-3.49,3.49-5.66,5.05l3.05,4.24c2.3-1.65,4.71-3.58,6.67-6l-4.06-3.29ZM336.53,214.8c-.11.57-.14,1.45-.16,2.29-.02.93-.03,2.11-.02,3.42,0,2.66.04,5.9.03,9.17,0,3.27-.06,6.46-.21,8.96-.08,1.26-.18,2.27-.3,3.01-.06.37-.12.62-.16.76-.06.2-.04.03.17-.23l4.04,3.31c.44-.54.66-1.15.78-1.54.14-.45.24-.94.32-1.44.17-1,.28-2.22.36-3.54.17-2.66.22-5.99.22-9.27,0-3.27-.02-6.61-.03-9.19,0-1.31,0-2.43.02-3.29,0-.43.02-.78.04-1.05.02-.3.03-.4.03-.39l-5.13-.97ZM349.87,198.97c-.94.26-1.71.86-2.22,1.32-.57.51-1.14,1.14-1.69,1.79-1.09,1.31-2.26,2.95-3.37,4.53-1.14,1.62-2.2,3.17-3.14,4.43-.47.63-.87,1.13-1.21,1.51-.38.42-.53.52-.49.5l2.71,4.47c.65-.4,1.23-.98,1.67-1.48.48-.54.99-1.19,1.5-1.87,1.01-1.35,2.15-3.02,3.24-4.57,1.11-1.59,2.17-3.07,3.1-4.18.47-.56.85-.97,1.15-1.24.36-.32.38-.24.11-.17l-1.37-5.04ZM378.14,185c-2.26.05-4.87,1.07-7.3,2.26-2.53,1.24-5.28,2.87-7.93,4.49-2.7,1.65-5.27,3.28-7.6,4.62-2.38,1.37-4.21,2.27-5.42,2.59l1.34,5.05c1.95-.52,4.32-1.75,6.68-3.11,2.41-1.39,5.12-3.1,7.72-4.69,2.65-1.62,5.21-3.13,7.5-4.25,2.38-1.16,4.1-1.71,5.14-1.74l-.13-5.22ZM393.89,239.09c.14.05.06.08-.19-.24-.25-.3-.55-.78-.9-1.5-.69-1.43-1.37-3.47-2.04-6.01-1.33-5.05-2.49-11.6-3.57-18.2-1.08-6.53-2.1-13.13-3.14-18.05-.52-2.45-1.08-4.63-1.7-6.24-.3-.79-.69-1.6-1.19-2.26-.45-.59-1.43-1.62-3-1.59l.1,5.23c-.97.02-1.37-.62-1.26-.47.06.08.24.37.47.98.46,1.2.95,3.04,1.46,5.44,1.01,4.77,2,11.18,3.1,17.82,1.09,6.57,2.27,13.36,3.68,18.68.7,2.65,1.48,5.06,2.38,6.94.45.94.97,1.83,1.58,2.57.6.73,1.42,1.46,2.5,1.84l1.72-4.93ZM425.79,247.24c-4.92-1.8-10.86-3.09-16.51-4.3-5.74-1.23-11.16-2.37-15.39-3.85l-1.72,4.93c4.61,1.61,10.4,2.82,16.02,4.02,5.72,1.23,11.29,2.45,15.81,4.1l1.79-4.91ZM425.73,254.68c.33-.78,1.32-3.31,1.6-4.06l-4.89-1.85c-.28.75-1.24,3.19-1.52,3.85l4.8,2.06ZM403.19,284.37c10-7.75,17.63-18.19,22.54-29.68l-4.81-2.05c-4.6,10.76-11.71,20.46-20.94,27.61l3.2,4.13ZM367.48,298.02c12.94-.91,25.49-5.73,35.71-13.65l-3.2-4.13c-9.4,7.29-20.97,11.73-32.87,12.57l.37,5.21ZM329.19,291.05c11.52,6.77,25.78,7.86,38.3,6.97l-.37-5.21c-12.1.87-25.09-.28-35.28-6.26l-2.65,4.51ZM315.48,275.5c2.74,6.7,7.57,11.95,13.71,15.55l2.64-4.51c-5.24-3.07-9.25-7.48-11.51-13.02l-4.84,1.98ZM317.84,274.48l-2.42.99.34.84.79.45,1.28-2.28ZM314.71,255.52l-.83-2.48-1.79.6v1.89s2.62-.01,2.62-.01ZM331.72,249.36l1.52,2.12h0s-1.52-2.12-1.52-2.12ZM337.89,243.84l-2.02-1.66h0s2.03,1.66,2.03,1.66ZM339.1,215.28l-1.36-2.23-.99.6-.22,1.14,2.57.49ZM350.56,201.49l-.67-2.53h0s0,0,0,0l.69,2.52ZM378.21,187.62l-.05-2.61h0s0,0,0,0l.06,2.61ZM393.03,241.56l.86-2.47h0s-.86,2.47-.86,2.47ZM424.89,249.7l2.44.92.93-2.47-2.48-.91-.9,2.46ZM423.33,253.66l-2.4-1.03h0s2.4,1.03,2.4,1.03ZM401.59,282.3l1.6,2.07h0s-1.6-2.07-1.6-2.07ZM367.3,295.41l-.18-2.61h0s.19,2.61.19,2.61ZM330.51,288.8l1.32-2.25h0s-1.32,2.25-1.32,2.25ZM317.9,274.51l2.42-.99-.34-.84-.79-.45-1.28,2.28Z"/>
        </g>
        <path class="cls-14" d="M329.37,250.6s-10.25,16.85,19.82,21.16,45.39-29.64,45.39-29.64c0,0,22.36,3.66,35.41,9.08,13.06,5.42,22.3,17.93,22.3,17.93l-14.63,258.22s-37.13,8.82-91.13,4.59c-54.46-4.28-65.61-19.89-65.61-19.89,0,0-5.49-159.69-.69-195.67s11.12-53.82,11.12-53.82l38.02-11.94v-.03Z"/>
        <g class="cls-22">
          <path class="cls-7" d="M331.98,250.76v-.03s-5.22-.26-5.22-.26v.03s5.22.26,5.22.26ZM292.13,265.06l38.02-11.94-1.57-4.99-38.02,11.94,1.57,4.99ZM282.82,316.73c2.39-17.9,5.15-31.26,7.31-40.13,1.08-4.43,2.01-7.74,2.66-9.94.33-1.1.59-1.91.76-2.45.09-.27.15-.47.2-.6.02-.06.04-.11.05-.14,0-.01,0-.03.01-.03,0,0,0,0,0,0,0,0,0,0,0,0,0,0,0,0,0,0t-2.46-.87q-2.46-.87-2.46-.87s0,0,0,0c0,0,0,0,0,0,0,0,0,0,0,.01,0,.01,0,.03-.02.05-.01.04-.03.1-.06.17-.05.15-.12.37-.22.66-.19.58-.46,1.44-.8,2.58-.68,2.28-1.63,5.67-2.73,10.2-2.2,9.04-5,22.59-7.41,40.67l5.18.69ZM280.92,512.05q2.61-.09,2.61-.09s0,0,0,0c0,0,0-.01,0-.02,0-.02,0-.05,0-.09,0-.08,0-.19-.01-.34-.01-.3-.03-.75-.04-1.34-.04-1.18-.1-2.91-.17-5.13-.14-4.43-.34-10.81-.56-18.57-.44-15.53-.98-36.6-1.36-58.8-.77-44.52-.93-93.19,1.43-110.94l-5.18-.69c-2.43,18.24-2.25,67.4-1.48,111.72.39,22.22.92,43.32,1.36,58.86.22,7.77.42,14.15.56,18.59.07,2.22.13,3.95.17,5.13.02.59.03,1.04.04,1.34,0,.15,0,.27.01.34,0,.04,0,.07,0,.09,0,0,0,.02,0,.02,0,0,0,0,0,0t2.61-.09ZM346.74,529.33c-27.01-2.12-43.09-7.04-52.34-11.32-4.62-2.14-7.53-4.11-9.25-5.49-.86-.69-1.42-1.24-1.75-1.59-.16-.17-.27-.3-.33-.37-.03-.03-.04-.06-.05-.06,0,0,0,0,0,0,0,0,0,0,0,0,0,0,0,0,0,0,0,0,0,0,0,0t-2.12,1.52q-2.13,1.52-2.12,1.52s0,0,0,0c0,0,0,0,0,.01,0,0,.01.02.02.03.01.02.03.04.05.07.04.05.09.12.16.2.13.16.32.38.57.64.49.52,1.23,1.23,2.27,2.06,2.08,1.68,5.36,3.87,10.34,6.17,9.95,4.6,26.67,9.62,54.12,11.78l.41-5.21ZM437.66,527.35q-.6-2.54-.6-2.54s0,0,0,0c0,0,0,0,0,0,0,0,0,0-.02,0-.02,0-.04,0-.07.02-.07.02-.17.04-.3.07-.27.06-.69.15-1.23.26-1.1.23-2.73.55-4.87.93-4.27.75-10.54,1.71-18.49,2.54-15.9,1.66-38.52,2.8-65.34.7l-.41,5.21c27.18,2.13,50.13.98,66.29-.71,8.08-.85,14.47-1.82,18.85-2.6,2.19-.39,3.88-.72,5.02-.96.57-.12,1.01-.21,1.31-.28.15-.03.26-.06.34-.08.04,0,.07-.02.09-.02.01,0,.02,0,.02,0,0,0,0,0,0,0,0,0,0,0,0,0t-.6-2.54ZM449.68,268.98l-14.63,258.22,5.22.3,14.63-258.22-5.22-.3ZM428.99,253.61c6.11,2.54,11.41,6.78,15.23,10.47,1.9,1.83,3.4,3.5,4.43,4.71.51.6.9,1.09,1.16,1.42.13.16.23.29.29.37.03.04.05.07.07.09,0,0,.01.02.01.02,0,0,0,0,0,0,0,0,0,0,0,0,0,0,0,0,0,0t2.1-1.55q2.1-1.55,2.1-1.55s0,0,0,0c0,0,0,0,0,0,0,0,0,0,0-.01,0,0-.02-.02-.03-.03-.02-.03-.05-.07-.09-.12-.08-.1-.19-.25-.34-.44-.3-.38-.73-.91-1.29-1.57-1.11-1.31-2.74-3.11-4.78-5.08-4.06-3.92-9.91-8.65-16.86-11.53l-2.01,4.83ZM394.58,242.12q-.42,2.58-.42,2.58s0,0,0,0c0,0,0,0,0,0,0,0,0,0,.01,0,0,0,.02,0,.05,0,.04,0,.1.02.18.03.16.03.4.07.72.12.63.11,1.54.27,2.68.48,2.28.42,5.45,1.04,9.03,1.83,7.2,1.59,15.86,3.82,22.16,6.43l2.01-4.83c-6.75-2.81-15.8-5.11-23.04-6.71-3.65-.8-6.88-1.44-9.2-1.87-1.16-.22-2.1-.38-2.74-.49-.32-.06-.57-.1-.75-.13-.09-.01-.15-.03-.2-.03-.02,0-.04,0-.05,0,0,0-.01,0-.01,0,0,0,0,0,0,0,0,0,0,0,0,0t-.42,2.58ZM348.82,274.35c16.2,2.32,28.34-5.71,36.23-13.98,3.96-4.14,6.92-8.41,8.9-11.64.99-1.62,1.74-2.98,2.24-3.95.25-.48.44-.87.57-1.14.07-.13.11-.24.15-.31.02-.04.03-.07.04-.09,0-.01,0-.02.01-.03,0,0,0,0,0,0,0,0,0,0,0,0t-2.38-1.08q-2.38-1.08-2.38-1.08s0,0,0,0c0,0,0,0,0,0,0,0,0,0,0,.01,0,.01-.01.03-.03.06-.03.05-.07.14-.12.25-.11.23-.28.57-.5,1-.45.87-1.14,2.13-2.06,3.63-1.84,3.01-4.59,6.95-8.22,10.76-7.28,7.63-17.84,14.41-31.71,12.42l-.74,5.17ZM329.37,250.6q-2.23-1.36-2.23-1.35s0,0,0,0c0,0,0,0,0,0,0,0,0,.01-.01.02,0,.02-.02.04-.04.06-.03.05-.07.12-.11.2-.09.16-.21.39-.34.68-.27.56-.6,1.36-.89,2.34-.57,1.92-1.01,4.67-.26,7.65,1.59,6.3,7.92,11.93,23.35,14.15l.74-5.17c-14.64-2.1-18.21-7.05-19.02-10.25-.45-1.77-.2-3.51.2-4.88.2-.67.43-1.22.61-1.6.09-.19.16-.32.21-.41.02-.04.04-.07.05-.08,0,0,0-.01,0,0,0,0,0,0,0,0,0,0,0,0,0,0,0,0,0,0,0,0t-2.23-1.36ZM329.37,250.62l.78,2.49,1.74-.55.09-1.82-2.61-.13ZM291.35,262.56l-.78-2.49-1.24.39-.44,1.23,2.46.87ZM280.92,512.05l-2.61.09.03.79.46.64,2.13-1.52ZM346.53,531.94l-.2,2.61h0s.2-2.61.2-2.61ZM437.66,527.35l.6,2.54,1.89-.45.11-1.94-2.61-.15ZM452.29,269.13l2.61.15.05-.94-.56-.76-2.1,1.55ZM394.58,242.12l.42-2.58-1.98-.32-.82,1.83,2.38,1.08ZM329.37,250.6l2.61.13-4.84-1.49,2.23,1.36Z"/>
        </g>
        <path class="cls-11" d="M291.35,262.56s-7.25,2.17-19.18,13.51c-11.93,11.34-55.62,93.89-55.62,93.89,0,0,9.36,28.68,53.8,20.68l9.57-23.93s5.77-80.9,14.85-104.79l-3.41.63Z"/>
        <g class="cls-21">
          <path class="cls-7" d="M294.28,259.36l-3.41.63.96,5.14,3.41-.63-.96-5.14ZM279.92,366.72q2.61.19,2.61.19s0,0,0,0c0,0,0,0,0-.01,0,0,0-.02,0-.04,0-.04,0-.1.01-.17.01-.15.03-.38.05-.68.04-.6.11-1.47.2-2.6.18-2.25.44-5.5.78-9.47.68-7.94,1.68-18.78,2.97-30.36,1.29-11.58,2.85-23.88,4.66-34.76,1.82-10.94,3.84-20.24,6.01-25.95l-4.89-1.86c-2.37,6.24-4.46,16-6.28,26.95-1.83,11.01-3.41,23.41-4.7,35.04-1.29,11.63-2.3,22.52-2.98,30.49-.34,3.99-.6,7.25-.78,9.51-.09,1.13-.15,2.02-.2,2.62-.02.3-.04.53-.05.69,0,.08,0,.14-.01.18,0,.02,0,.03,0,.04,0,0,0,0,0,.01,0,0,0,0,0,0t2.61.19ZM272.78,391.62l9.57-23.93-4.85-1.94-9.57,23.93,4.85,1.94ZM216.55,369.96q-2.48.81-2.48.81s0,0,0,0c0,0,0,0,0,.01,0,0,0,.02.01.03,0,.02.02.05.03.09.03.07.06.17.11.3.1.25.24.6.43,1.03.38.86.97,2.05,1.83,3.44,1.7,2.78,4.46,6.37,8.7,9.68,8.56,6.69,22.79,11.97,45.64,7.86l-.93-5.14c-21.59,3.88-34.26-1.18-41.5-6.83-3.66-2.86-6.02-5.94-7.46-8.29-.72-1.17-1.21-2.16-1.51-2.84-.15-.34-.25-.6-.32-.76-.03-.08-.05-.14-.07-.18,0-.02,0-.03-.01-.03,0,0,0,0,0,0,0,0,0,0,0,0,0,0,0,0,0,0t-2.48.81ZM270.37,274.18c-1.7,1.61-3.81,4.33-6.16,7.69-2.38,3.4-5.09,7.6-7.99,12.29-5.8,9.38-12.4,20.8-18.61,31.83-6.22,11.04-12.06,21.73-16.34,29.65-2.14,3.96-3.9,7.24-5.12,9.52-.61,1.14-1.09,2.04-1.41,2.64-.16.3-.29.54-.37.69-.04.08-.07.14-.09.18-.01.02-.02.04-.02.05,0,0,0,0,0,.01,0,0,0,0,0,0t2.31,1.22q2.31,1.22,2.31,1.22s0,0,0,0c0,0,0,0,0-.01,0,0,.01-.02.02-.04.02-.04.05-.1.09-.18.08-.16.21-.39.37-.69.32-.61.8-1.5,1.4-2.63,1.22-2.28,2.97-5.54,5.11-9.49,4.28-7.91,10.1-18.57,16.3-29.58,6.2-11.01,12.76-22.36,18.5-31.65,2.87-4.65,5.53-8.75,7.83-12.04,2.33-3.33,4.19-5.67,5.47-6.89l-3.6-3.79ZM291.35,262.56q-.75-2.5-.75-2.5s0,0,0,0c0,0,0,0,0,0,0,0,0,0-.01,0,0,0-.02,0-.04.01-.03,0-.06.02-.1.03-.08.03-.19.06-.33.11-.27.1-.65.25-1.13.46-.96.42-2.34,1.1-4.08,2.13-3.48,2.07-8.43,5.57-14.53,11.36l3.6,3.79c5.83-5.54,10.48-8.8,13.6-10.65,1.56-.93,2.75-1.5,3.52-1.84.38-.17.66-.28.84-.34.09-.03.14-.05.17-.06.02,0,.02,0,.02,0,0,0,0,0,0,0,0,0,0,0,0,0,0,0,0,0,0,0,0,0,0,0,0,0t-.75-2.5ZM294.76,261.93l2.44.93,1.65-4.35-4.57.85.48,2.57ZM279.92,366.72l2.43.97.15-.38.03-.41-2.61-.19ZM270.35,390.65l.46,2.57,1.43-.26.54-1.35-2.43-.97ZM216.55,369.96l-2.31-1.22-.52.98.34,1.05,2.48-.81ZM291.35,262.56l-.48-2.57-.14.03-.13.04.75,2.5Z"/>
        </g>
        <g class="cls-1">
          <g class="cls-27">
            <path class="cls-10" d="M266.62,384.06c-11.5.51-22.8-2.42-32.79-8.05-5.25-2.96-10.66-6.97-14.06-12.12-2.04,3.82-3.25,6.08-3.25,6.08,0,0,9.36,28.68,53.8,20.68l2.46-7.15c-2.03.31-4.09.5-6.16.59v-.03Z"/>
            <g class="cls-26">
              <path class="cls-7" d="M269.23,384.21v-.03s-5.22-.26-5.22-.26v.03s5.22.26,5.22.26ZM272.39,380.91c-1.94.29-3.9.48-5.88.56l.22,5.22c2.17-.09,4.32-.3,6.44-.62l-.78-5.17ZM272.79,391.5l2.46-7.15-4.94-1.7-2.46,7.15,4.94,1.7ZM216.52,369.96q-2.48.81-2.48.81s0,0,0,0c0,0,0,0,0,.01,0,0,0,.02.01.03,0,.02.02.05.03.09.03.07.06.17.11.3.1.25.24.6.43,1.03.38.86.97,2.05,1.83,3.44,1.7,2.78,4.46,6.37,8.7,9.68,8.56,6.69,22.79,11.97,45.64,7.86l-.93-5.14c-21.59,3.88-34.26-1.18-41.5-6.83-3.66-2.86-6.02-5.94-7.46-8.29-.72-1.17-1.21-2.16-1.51-2.84-.15-.34-.25-.6-.32-.76-.03-.08-.05-.14-.07-.18,0-.02,0-.03-.01-.03,0,0,0,0,0,0,0,0,0,0,0,0,0,0,0,0,0,0t-2.48.81ZM217.47,362.65c-1.02,1.91-1.84,3.43-2.39,4.47-.28.52-.49.92-.64,1.19-.07.14-.13.24-.16.31-.02.03-.03.06-.04.08,0,0,0,.02-.01.02,0,0,0,0,0,0,0,0,0,0,0,0,0,0,0,0,0,0,0,0,0,0,0,0t2.31,1.23q2.31,1.23,2.31,1.23s0,0,0,0c0,0,0,0,0,0,0,0,0,0,0,0,0,0,0,0,0,0,0,0,0-.01.01-.02,0-.02.02-.04.04-.08.04-.07.09-.17.16-.31.14-.27.36-.67.64-1.19.56-1.04,1.37-2.56,2.39-4.47l-4.61-2.47ZM235.11,373.73c-5.09-2.87-10.09-6.63-13.16-11.28l-4.37,2.87c3.72,5.66,9.55,9.92,14.95,12.96l2.57-4.55ZM266.5,381.45c-10.98.49-21.79-2.31-31.39-7.72l-2.56,4.55c10.39,5.85,22.17,8.92,34.19,8.38l-.23-5.22ZM266.62,384.08l-2.61-.13-.14,2.86,2.86-.12-.11-2.61ZM272.78,383.49l2.47.85,1.4-4.08-4.26.64.39,2.58ZM270.32,390.65l.46,2.57,1.51-.27.5-1.45-2.47-.85ZM216.52,369.96l-2.31-1.23-.52.98.35,1.06,2.48-.81ZM219.77,363.88l2.18-1.44-2.41-3.67-2.07,3.87,2.3,1.23ZM233.83,376.01l-1.28,2.28h0s1.28-2.28,1.28-2.28ZM266.62,384.06l2.61.13.14-2.87-2.87.13.12,2.61Z"/>
            </g>
          </g>
        </g>
        <path class="cls-7" d="M498.46,414.84h.05s.26-5.22.26-5.22h-.05s-.26,5.22-.26,5.22ZM498.41,428.01c3.06-4.96,3.3-10.94,2.79-16.04l-5.2.52c.47,4.71.12,9.28-2.04,12.77l4.45,2.74ZM482.5,436.93c5.91-.62,12.45-3.3,15.91-8.92l-4.45-2.74c-2.3,3.73-7.01,5.94-12.01,6.47l.54,5.2ZM471.83,435.24c3.4,1.65,7.16,2.07,10.67,1.69l-.56-5.2c-2.74.29-5.48-.06-7.83-1.2l-2.29,4.7ZM464.16,428.25c1.85,2.85,4.39,5.4,7.67,6.99l2.27-4.71c-2.25-1.09-4.12-2.9-5.56-5.12l-4.38,2.84ZM457.56,410.33c1.42,5.74,2.95,12.33,6.6,17.93l4.38-2.86c-3.08-4.71-4.43-10.37-5.91-16.33l-5.07,1.26ZM451.37,389.66c2.34,6.83,4.47,13.73,6.19,20.67l5.07-1.26c-1.77-7.13-3.95-14.18-6.32-21.11l-4.94,1.69ZM443.41,367.76c2.67,7.44,5.44,14.55,7.96,21.9l4.94-1.7c-2.52-7.35-5.4-14.75-7.99-21.97l-4.92,1.77ZM428.56,337.45c5.49,10.12,11.08,19.84,14.84,30.32l4.92-1.77c-3.94-10.95-9.78-21.1-15.17-31.04l-4.59,2.49ZM423.78,319.13c.96,6.17,2.65,12.1,4.6,17.91l4.96-1.66c-1.9-5.67-3.49-11.29-4.39-17.05l-5.16.8ZM424.26,297.77c-1.41,7.02-1.57,14.24-.47,21.36l5.17-.8c-1-6.51-.85-13.12.43-19.54l-5.12-1.03ZM428.31,286.78c-2.08,3.44-3.29,7.26-4.05,10.97l5.12,1.05c.69-3.36,1.73-6.56,3.4-9.31l-4.47-2.71ZM432.11,282.1c-1.51,1.39-2.76,2.98-3.8,4.67l4.46,2.72c.81-1.32,1.76-2.52,2.88-3.55l-3.55-3.84ZM436.16,279.02c-1.59.9-2.9,2.05-4.03,3.07l3.51,3.88c1.1-1,2.06-1.81,3.11-2.4l-2.59-4.54ZM445.33,278.07c-3.07-.89-6.22-.73-9.17.94l2.59,4.54c1.54-.88,3.2-1.02,5.13-.47l1.46-5.02ZM447.49,278.8c-.7-.28-1.45-.54-2.22-.75l-1.32,5.06c.51.13,1.05.32,1.58.53l1.96-4.84ZM461.8,291.27c-3.63-4.83-8.47-9.51-14.11-12.38l-2.37,4.66c4.72,2.4,8.99,6.45,12.3,10.86l4.18-3.14ZM486.75,354.71c-2.96-10.01-5.83-21.47-9.57-32.43-3.76-11.02-8.49-21.89-15.38-31.01l-4.17,3.15c6.4,8.48,10.92,18.75,14.6,29.54,3.7,10.85,6.45,21.91,9.5,32.23l5.01-1.48ZM497.69,395.32c-1.91-6.71-3.65-13.46-5.41-20.25-1.76-6.78-3.54-13.59-5.53-20.36l-5.01,1.48c1.97,6.68,3.73,13.41,5.49,20.19,1.76,6.77,3.51,13.59,5.44,20.37l5.03-1.43ZM501.25,411.98c-.57-5.76-2.05-11.34-3.55-16.66l-5.03,1.43c1.5,5.3,2.86,10.49,3.38,15.74l5.2-.51ZM498.59,412.23l.13-2.61-3.03-.15.3,3.02,2.6-.26ZM496.18,426.64l-2.22-1.37h0s2.23,1.37,2.23,1.37ZM482.22,434.33l-.27-2.6h0s.28,2.6.28,2.6ZM472.98,432.89l1.14-2.35h0s-1.14,2.35-1.14,2.35ZM466.36,426.83l2.19-1.42h0s-2.19,1.42-2.19,1.42ZM460.1,409.7l2.54-.63h0s-2.54.63-2.54.63ZM453.84,388.81l2.47-.85h0s-2.47.85-2.47.85ZM445.87,366.88l2.46-.88h0s-2.46.88-2.46.88ZM430.86,336.2l-2.48.83.07.22.11.2,2.3-1.25ZM426.37,318.72l-2.58.4h0s2.58-.4,2.58-.4ZM426.82,298.28l-2.56-.52h0s2.56.52,2.56.52ZM430.54,288.14l-2.23-1.36h0s2.24,1.36,2.24,1.36ZM433.88,284.02l-1.75-1.94h-.01s-.01.02-.01.02l1.77,1.92ZM437.46,281.29l-1.29-2.27h0s1.29,2.27,1.29,2.27ZM444.6,280.58l-.73,2.51h.03s.03.02.03.02l.66-2.53ZM446.51,281.22l1.18-2.33-.1-.05-.1-.04-.98,2.42ZM459.72,292.84l-2.09,1.57h0s2.08-1.57,2.08-1.57ZM484.24,355.45l2.51-.74h0s-2.51.74-2.51.74ZM495.18,396.03l2.51-.71h0s-2.51.71-2.51.71ZM498.65,412.23l-.13,2.61,3.03.15-.3-3.02-2.6.26Z"/>
        <path class="cls-8" d="M498.65,412.23c-.54-5.51-1.96-10.89-3.47-16.2-3.85-13.49-6.98-27.14-10.94-40.59-6.01-20.33-11.24-45.02-24.53-62.61-3.48-4.62-8.03-8.99-13.21-11.62-.61-.25-1.26-.47-1.9-.64-2.5-.72-4.9-.57-7.15.7-1.32.75-2.46,1.73-3.57,2.74-1.31,1.22-2.42,2.6-3.34,4.11-1.87,3.1-3,6.61-3.72,10.14-1.35,6.72-1.5,13.63-.45,20.45.93,5.96,2.57,11.74,4.49,17.48,5.44,10.03,11.16,19.96,15.01,30.68,2.63,7.33,5.46,14.58,7.98,21.93,2.35,6.88,4.51,13.85,6.26,20.89,1.45,5.85,2.89,11.97,6.26,17.13,1.64,2.54,3.85,4.72,6.62,6.06,2.87,1.4,6.12,1.78,9.25,1.44,5.45-.57,11.08-3.02,13.96-7.7,2.61-4.23,2.9-9.5,2.41-14.41h.05Z"/>
        <path class="cls-11" d="M446.62,262.01c-6.05-5.45-14.05-9.59-20.67-12.32-1.05,3.46-2.33,6.89-3.52,10.32-1.72,4.9-3.14,9.82-3.83,14.96-1.28,9.28-.91,18.76-.48,28.1.41,8.77,1.47,17.52,2.97,26.15.53,3.11,1.14,6.16,1.77,9.25,6.76,15.74,20.18,50.37,20.18,50.37,44.57,7.39,57.9-27.46,57.9-27.46,0,0-28.31-75.85-54.33-99.37Z"/>
        <g class="cls-24">
          <path class="cls-7" d="M500.95,361.38q2.45-.91,2.45-.91s0,0,0,0c0,0,0,0,0-.01,0,0,0-.02-.02-.04-.01-.04-.04-.09-.06-.17-.06-.15-.14-.36-.25-.65-.22-.57-.53-1.4-.95-2.47-.83-2.13-2.04-5.2-3.58-8.96-3.07-7.51-7.44-17.77-12.63-28.77-5.19-11-11.21-22.77-17.58-33.3-6.35-10.48-13.16-19.89-19.95-26.03l-3.5,3.88c6.22,5.62,12.71,14.51,18.98,24.86,6.25,10.31,12.18,21.91,17.33,32.82,5.14,10.9,9.47,21.07,12.52,28.52,1.52,3.72,2.73,6.76,3.55,8.87.41,1.05.72,1.87.94,2.43.11.28.19.49.24.63.03.07.05.12.06.16,0,.02.01.03.01.04,0,0,0,0,0,0,0,0,0,0,0,0t2.45-.91ZM442.62,391.42c23.1,3.83,38.35-3.3,47.81-11.57,4.69-4.1,7.91-8.44,9.96-11.76,1.03-1.66,1.76-3.08,2.25-4.09.24-.51.42-.91.55-1.2.06-.14.11-.26.14-.34.02-.04.03-.07.04-.1,0-.01,0-.02.01-.03,0,0,0,0,0-.01,0,0,0,0,0,0t-2.44-.94q-2.44-.93-2.44-.94s0,0,0,0c0,0,0,0,0,0,0,0,0,0,0,0,0,0-.01.03-.02.05-.02.05-.05.13-.1.24-.09.22-.24.56-.45.99-.42.87-1.07,2.12-1.99,3.61-1.84,2.98-4.74,6.89-8.95,10.58-8.35,7.3-22.04,13.91-43.52,10.35l-.85,5.16ZM420.47,339.5c3.36,7.83,8.39,20.39,12.6,31.02,2.1,5.31,3.99,10.13,5.35,13.62.68,1.75,1.23,3.16,1.61,4.13.19.49.34.87.44,1.12.05.13.09.23.11.29.01.03.02.06.03.07,0,0,0,.01,0,.02,0,0,0,0,0,0,0,0,0,0,0,0t2.44-.94q2.44-.94,2.44-.94s0,0,0,0c0,0,0,0,0,0,0,0,0-.01,0-.02,0-.02-.02-.04-.03-.07-.03-.07-.06-.16-.11-.29-.1-.26-.25-.64-.44-1.13-.38-.98-.93-2.39-1.61-4.14-1.36-3.5-3.25-8.32-5.36-13.64-4.2-10.62-9.26-23.25-12.65-31.16l-4.8,2.06ZM418.52,329.66c.53,3.15,1.15,6.25,1.79,9.34l5.12-1.06c-.63-3.08-1.24-6.1-1.75-9.15l-5.15.87ZM415.52,303.19c.41,8.9,1.49,17.76,3,26.48l5.15-.9c-1.49-8.55-2.53-17.18-2.93-25.82l-5.22.24ZM416.02,274.61c-1.32,9.56-.93,19.26-.5,28.58l5.22-.24c-.43-9.37-.79-18.61.46-27.62l-5.18-.72ZM419.97,259.14c-1.75,4.99-3.23,10.09-3.95,15.48l5.18.7c.66-4.9,2.02-9.63,3.71-14.45l-4.93-1.73ZM423.45,248.93c-1.03,3.4-2.27,6.7-3.48,10.22l4.94,1.7c1.15-3.33,2.48-6.89,3.55-10.41l-5-1.51ZM448.37,260.07c-6.37-5.74-14.67-10.01-21.42-12.79l-1.99,4.83c6.5,2.68,14.18,6.68,19.92,11.84l3.5-3.88ZM500.95,361.38l2.44.93.35-.92-.35-.93-2.45.91ZM443.05,388.84l-2.44.94.54,1.39,1.47.24.43-2.58ZM422.87,338.47l-2.56.53.05.26.1.24,2.4-1.03ZM421.1,329.22l2.58-.44h0s-2.57.44-2.57.44ZM418.13,303.07l-2.61.12h0s2.61-.12,2.61-.12ZM418.61,274.97l2.59.36h0s-2.59-.36-2.59-.36ZM422.44,260.01l2.47.86h0s0-.01,0-.01l-2.47-.85ZM425.96,249.69l1-2.42-2.66-1.1-.83,2.76,2.5.76ZM446.62,262.01l1.75-1.94h0s-1.75,1.94-1.75,1.94Z"/>
        </g>
        <g class="cls-1">
          <g class="cls-25">
            <path class="cls-10" d="M496.41,357.36c-6.89,9.71-16.34,17.06-27.63,21.02-9.49,3.31-20.09,3.35-29.7.34,2.37,6.01,3.96,10.15,3.96,10.15,44.57,7.39,57.9-27.46,57.9-27.46,0,0-1.11-2.34-3.04-6.28-.5.77-.98,1.53-1.5,2.27v-.03Z"/>
            <g class="cls-28">
              <path class="cls-7" d="M499.02,357.52v-.03s-5.22-.26-5.22-.26v.03s5.22.26,5.22.26ZM495.73,353.69c-.55.84-.96,1.5-1.44,2.18l4.25,3.04c.57-.79,1.11-1.67,1.56-2.36l-4.37-2.87ZM500.95,361.4q2.36-1.12,2.36-1.12s0,0,0,0c0,0,0,0,0,0,0,0,0,0,0,0,0,0,0,0,0,0,0,0,0-.01-.01-.02,0-.02-.02-.05-.04-.08-.03-.07-.09-.18-.15-.32-.14-.28-.34-.7-.6-1.24-.52-1.08-1.28-2.66-2.25-4.64l-4.69,2.3c.96,1.96,1.72,3.53,2.23,4.6.26.54.46.95.59,1.23.07.14.12.25.15.32.02.04.03.06.04.08,0,0,0,.02,0,.02,0,0,0,0,0,0,0,0,0,0,0,0,0,0,0,0,0,0t0,0s0,0,2.36-1.12ZM442.62,391.44c23.1,3.83,38.35-3.3,47.81-11.57,4.69-4.1,7.91-8.44,9.96-11.76,1.03-1.66,1.76-3.08,2.25-4.09.24-.51.42-.91.55-1.2.06-.14.11-.26.14-.34.02-.04.03-.07.04-.1,0-.01,0-.02.01-.03,0,0,0,0,0-.01,0,0,0,0,0,0t-2.44-.94q-2.44-.93-2.44-.94s0,0,0,0c0,0,0,0,0,0,0,0,0,0,0,0,0,0-.01.03-.02.05-.02.05-.05.13-.1.24-.09.22-.24.56-.45.99-.42.87-1.07,2.12-1.99,3.61-1.84,2.98-4.74,6.89-8.95,10.58-8.35,7.3-22.04,13.91-43.52,10.35l-.85,5.16ZM436.65,379.68c1.18,3,2.17,5.53,2.86,7.31.35.89.62,1.59.8,2.08.09.24.16.42.21.55.02.06.04.11.05.14,0,.02.01.03.01.04,0,0,0,0,0,0,0,0,0,0,0,0,0,0,0,0,0,0,0,0,0,0,0,0t2.44-.94q2.44-.94,2.44-.94s0,0,0,0c0,0,0,0,0,0,0,0,0,0,0,0,0,0,0,0,0,0,0,0,0-.02-.01-.04-.01-.03-.03-.08-.05-.14-.05-.13-.12-.31-.21-.55-.19-.48-.46-1.19-.81-2.09-.7-1.79-1.69-4.33-2.87-7.34l-4.86,1.92ZM467.92,375.91c-8.93,3.12-18.96,3.17-28.05.31l-1.57,4.99c10.12,3.18,21.3,3.14,31.34-.36l-1.72-4.93ZM494.28,355.85c-6.6,9.29-15.61,16.3-26.36,20.07l1.73,4.93c11.83-4.15,21.71-11.84,28.89-21.97l-4.26-3.02ZM496.41,357.39l-2.61-.13-.45,8.89,5.18-7.23-2.12-1.52ZM497.91,355.12l2.35-1.15-2.02-4.12-2.52,3.84,2.19,1.43ZM500.95,361.4l2.44.93.4-1.04-.48-1.01-2.36,1.12ZM443.05,388.86l-2.44.94.54,1.4,1.48.24.43-2.58ZM439.09,378.72l.78-2.49-5.22-1.64,2.01,5.09,2.43-.96ZM468.78,378.38l.86,2.47h0s-.86-2.47-.86-2.47ZM496.41,357.36l2.61.13.45-8.96-5.19,7.31,2.13,1.51Z"/>
            </g>
          </g>
        </g>
        <path class="cls-8" d="M381.73,106.89c-9.02-11.9-22.15-20.82-36.91-23.87-13.92-2.91-28.99,6.26-40.96,14.03-11.16,7.24-18.23,12.41-20.94,25.25-.32,1.51-.56,3.02-.8,4.57-.46,1.58-.84,3.23-1.06,4.91-1.16,8.45,1.7,16.71,4.41,24.59,1.47,4.3,2.89,8.65,3.51,13.18.64,4.58.55,9.19.48,13.79-.15,8.41-.04,16.54,4.13,24.11,6.5,11.77,18.02,21.67,31.34,24.6,13.48,2.99,27.53-1.65,39.18-8.37,12.41-7.17,22.99-17.74,29.41-30.58,6.82-13.67,7.08-28.73,4.74-43.56-2.38-15.11-7.21-30.26-16.56-42.58l.03-.05Z"/>
        <g class="cls-30">
          <path class="cls-7" d="M383.98,108.23l.03-.05-4.55-2.57-.03.05,4.55,2.57ZM400.85,149.12c-2.41-15.35-7.35-30.97-17.06-43.76l-4.16,3.16c9,11.86,13.72,26.54,16.06,41.41l5.16-.81ZM395.86,194.26c7.16-14.35,7.37-30.03,4.99-45.13l-5.16.81c2.29,14.57,1.97,29.01-4.5,41.99l4.68,2.33ZM365.42,225.93c12.8-7.4,23.77-18.32,30.44-31.67l-4.67-2.34c-6.17,12.33-16.37,22.54-28.39,29.48l2.62,4.52ZM324.37,234.59c14.4,3.2,29.15-1.79,41.05-8.65l-2.61-4.53c-11.4,6.57-24.75,10.87-37.3,8.08l-1.13,5.1ZM291.31,208.7c6.79,12.3,18.88,22.77,33.06,25.89l1.12-5.1c-12.45-2.74-23.41-12.07-29.61-23.31l-4.58,2.53ZM286.85,183.28c-.15,8.38-.09,17.17,4.46,25.42l4.58-2.52c-3.8-6.89-3.96-14.36-3.81-22.8l-5.23-.09ZM286.39,169.9c.61,4.35.52,8.74.46,13.39l5.23.08c.07-4.55.17-9.37-.51-14.19l-5.18.73ZM283,157.21c1.48,4.3,2.81,8.43,3.39,12.68l5.18-.71c-.66-4.81-2.15-9.38-3.63-13.67l-4.94,1.7ZM278.47,131.42c-1.26,9.17,1.86,18.04,4.53,25.79l4.94-1.7c-2.75-8-5.35-15.66-4.29-23.38l-5.18-.71ZM279.61,126.14c-.49,1.68-.9,3.45-1.15,5.3l5.18.68c.2-1.51.55-3.02.98-4.52l-5.02-1.46ZM280.37,121.76c-.34,1.59-.59,3.17-.83,4.71l5.16.81c.24-1.55.47-3,.78-4.43l-5.11-1.09ZM302.45,94.86c-5.55,3.6-10.38,6.87-14.14,10.95-3.84,4.17-6.49,9.1-7.94,15.96l5.11,1.08c1.27-5.98,3.5-10.06,6.67-13.5,3.25-3.53,7.53-6.47,13.14-10.1l-2.84-4.38ZM345.36,80.46c-7.68-1.6-15.5.16-22.74,3.16-7.25,3-14.19,7.36-20.17,11.24l2.84,4.38c5.99-3.88,12.57-8,19.33-10.79,6.76-2.8,13.44-4.17,19.68-2.87l1.07-5.12ZM383.82,105.31c-9.37-12.35-23.02-21.65-38.46-24.85l-1.06,5.12c14.08,2.92,26.67,11.44,35.35,22.89l4.16-3.16ZM381.7,106.95l-2.28-1.29-.85,1.5,1.04,1.37,2.08-1.58ZM398.27,149.53l-2.58.41h0s2.58-.41,2.58-.41ZM393.52,193.09l2.34,1.17h0s-2.34-1.17-2.34-1.17ZM364.11,223.67l1.31,2.26h0s-1.31-2.26-1.31-2.26ZM324.93,232.04l.57-2.55h0s-.56,2.55-.56,2.55ZM293.59,207.44l-2.29,1.26h0s2.29-1.26,2.29-1.26ZM289.46,183.33l2.61.05h0s-2.61-.05-2.61-.05ZM288.98,169.54l-2.59.35h0s2.59-.35,2.59-.35ZM285.47,156.36l2.47-.85h0s-2.47.85-2.47.85ZM281.06,131.77l2.59.36h0s0-.02,0-.02l-2.59-.34ZM282.12,126.87l2.51.73.05-.16.03-.17-2.58-.4ZM282.93,122.3l2.56.54h0s-2.56-.54-2.56-.54ZM303.87,97.05l1.42,2.19h0s-1.42-2.19-1.42-2.19ZM344.83,83.02l-.53,2.56h0s.53-2.56.53-2.56ZM381.73,106.89l2.28,1.29.84-1.5-1.04-1.37-2.08,1.58Z"/>
        </g>
        <path class="cls-7" d="M359.11,187.72c.36,4.02.22,8.63-.8,12.89-1.02,4.27-2.87,8.06-5.83,10.6-5.76,4.94-16.61,5.73-36.3-6.9l-1.41,2.2c19.85,12.73,32.22,12.86,39.42,6.68,3.52-3.02,5.58-7.4,6.67-11.98,1.09-4.59,1.24-9.5.86-13.73l-2.6.24Z"/>
        <path class="cls-18" d="M369.68,173.26c-.27,1.66-3.18,2.57-6.51,2.03-3.32-.54-5.8-2.32-5.53-3.99.27-1.66,3.18-2.57,6.51-2.03,3.32.54,5.8,2.32,5.53,3.99Z"/>
        <path class="cls-18" d="M306.05,173.93c.2,1.67-2.35,3.35-5.69,3.75-3.34.4-6.22-.63-6.42-2.3-.2-1.67,2.35-3.35,5.69-3.75,3.34-.4,6.22.63,6.42,2.3Z"/>
        <path class="cls-7" d="M337.39,182.99c-1.44-.42-3.14-.75-4.78-.81-1.61-.06-3.34.14-4.69.94-1.47.88-2.34,2.38-2.26,4.45.07,1.95.96,4.39,2.77,7.43l2.24-1.34c-1.73-2.9-2.36-4.88-2.4-6.18-.04-1.18.39-1.76.99-2.12.72-.43,1.85-.63,3.26-.58,1.38.05,2.86.34,4.15.71l.73-2.51ZM330.8,170.11c1.59,1.47,3.74,3.94,5.04,6.56,1.32,2.67,1.55,5.03.17,6.77l2.05,1.62c2.35-2.96,1.57-6.61.12-9.55-1.48-2.99-3.86-5.71-5.61-7.32l-1.77,1.92ZM337.03,184.25l-.36,1.25.84.24.55-.69-1.02-.81Z"/>
        <path class="cls-7" d="M294.53,159.97c.93-1.83,2.35-4.09,4.14-6.12,1.8-2.04,3.91-3.77,6.21-4.67,2.25-.87,4.7-.96,7.35.35,2.7,1.33,5.71,4.16,8.86,9.36l2.23-1.36c-3.29-5.42-6.63-8.71-9.94-10.34-3.36-1.66-6.59-1.56-9.45-.44-2.82,1.1-5.26,3.16-7.22,5.37-1.96,2.22-3.5,4.68-4.51,6.67l2.33,1.18Z"/>
        <path class="cls-7" d="M341.6,160.58c2.69-5.42,7.36-11.25,12.64-13.18,2.57-.94,5.28-.97,8.09.43,2.85,1.42,5.91,4.38,8.96,9.64l2.26-1.31c-3.2-5.52-6.59-8.94-10.06-10.67-3.51-1.75-6.98-1.71-10.16-.54-6.21,2.28-11.28,8.84-14.08,14.47l2.34,1.16Z"/>
        <circle class="cls-7" cx="301.21" cy="159.34" r="4.36" transform="translate(-10.64 296.7) rotate(-51.65)"/>
        <circle class="cls-7" cx="349.19" cy="159.13" r="4.36" transform="translate(7.74 334.25) rotate(-51.65)"/>
        <path class="cls-12" d="M406.15,101.58c-4.57-6.61-11.05-11.73-18.29-15.17-7.24-3.44-15.18-5.37-23.19-5.55-1.33-1.73-3.01-3.12-4.88-4.28-7.07-3.05-15.21-2.23-22.68-.02-8.3,2.47-16.26,6.27-24.1,9.91-9.6,4.48-19.06,9.4-29.03,13.1-5.47,2.04-11.94,1.58-16.9,4.9-7.73,5.15-10.88,15.97-7.44,24.51,7.61,18.89,34.18,14.58,48.74,8.63,6.87-2.82,13.73-5.88,20.46-9.06,4.61-2.17,9.64-4.8,13.32-8.54,9.76,5.34,18.45,12.45,26.15,20.44,7.88,8.16,14.87,17.13,19.78,27.37,1.45,3.07,2.69,6.16,3.48,9.47.77,3.15,1.32,6.33,2.42,9.39.26.78,1.23.44,1.66.03,1.4-1.35,1.83-3.29,2.22-5.12.5-2.35,1.24-4.63,2.01-6.9,1.7-5.09,3.91-9.94,6.16-14.79,2.17-4.72,4.34-9.46,5.69-14.46,1.41-5.27,2.12-10.82,2.18-16.27.13-9.7-2.13-19.54-7.72-27.59h-.03Z"/>
        <g class="cls-31">
          <path class="cls-7" d="M406.3,98.97h-.03s-.26,5.22-.26,5.22h.03s.26-5.22.26-5.22ZM416.51,129.2c.14-10.1-2.21-20.52-8.19-29.11l-4.29,2.98c5.21,7.5,7.38,16.77,7.25,26.06l5.23.07ZM414.24,146.11c1.47-5.5,2.21-11.27,2.27-16.92l-5.23-.05c-.05,5.24-.74,10.58-2.09,15.62l5.05,1.35ZM408.4,160.99c2.16-4.68,4.43-9.63,5.84-14.88l-5.05-1.35c-1.27,4.75-3.35,9.3-5.53,14.04l4.75,2.19ZM402.34,175.51c1.65-4.94,3.79-9.67,6.05-14.51l-4.74-2.21c-2.26,4.85-4.52,9.82-6.28,15.07l4.96,1.65ZM400.41,182.13c.46-2.18,1.16-4.34,1.93-6.61l-4.95-1.67c-.77,2.28-1.55,4.69-2.09,7.2l5.11,1.09ZM397.45,188.6c2.08-1.99,2.61-4.78,2.96-6.46l-5.11-1.09c-.42,1.99-.74,3.08-1.47,3.78l3.62,3.77ZM391.5,187.52c.25.75.77,1.44,1.56,1.86.73.39,1.46.42,1.99.36.97-.11,1.84-.6,2.41-1.15l-3.63-3.76c.11-.1.19-.15.25-.18.05-.03.18-.08.37-.1.19-.02.6-.03,1.07.22.52.28.82.72.94,1.08l-4.95,1.67ZM389.02,177.92c.71,2.91,1.34,6.43,2.5,9.65l4.92-1.77c-1.04-2.88-1.51-5.74-2.34-9.12l-5.08,1.24ZM385.72,168.95c1.41,2.98,2.57,5.89,3.3,8.96l5.08-1.21c-.85-3.55-2.16-6.82-3.66-9.98l-4.72,2.24ZM366.42,142.27c7.76,8.04,14.55,16.77,19.3,26.69l4.71-2.26c-5.07-10.58-12.26-19.77-20.25-28.06l-3.76,3.63ZM340.9,122.3c9.48,5.19,17.97,12.12,25.52,19.96l3.76-3.63c-7.83-8.14-16.73-15.43-26.78-20.92l-2.51,4.59ZM329.95,130.92c4.62-2.17,10.04-4.97,14.07-9.08l-3.73-3.66c-3.32,3.38-7.98,5.85-12.57,8.01l2.23,4.73ZM309.37,140.03c6.92-2.84,13.82-5.92,20.58-9.11l-2.23-4.73c-6.69,3.16-13.51,6.21-20.33,9l1.98,4.84ZM257.22,129.96c4.33,10.75,14.08,14.69,24.04,15.26,9.92.57,20.6-2.12,28.11-5.19l-1.98-4.84c-7.04,2.88-16.92,5.32-25.83,4.81-8.87-.51-16.21-3.86-19.49-12l-4.85,1.95ZM265.63,102.3c-8.79,5.85-12.31,18.01-8.42,27.66l4.85-1.95c-2.99-7.43-.2-16.92,6.47-21.36l-2.9-4.35ZM283.07,97.12c-2.46.92-5.09,1.26-8.21,1.85-2.97.57-6.28,1.35-9.22,3.33l2.91,4.34c2.02-1.35,4.42-1.99,7.29-2.54,2.72-.52,6.06-.97,9.07-2.09l-1.83-4.9ZM311.9,84.1c-9.74,4.54-19,9.37-28.83,13.02l1.82,4.9c10.1-3.75,19.76-8.77,29.23-13.18l-2.21-4.74ZM336.36,74.05c-8.52,2.54-16.67,6.43-24.45,10.05l2.2,4.74c7.9-3.67,15.67-7.37,23.75-9.78l-1.49-5.01ZM360.82,74.18c-7.89-3.41-16.74-2.41-24.45-.13l1.49,5.01c7.22-2.14,14.65-2.79,20.9-.09l2.07-4.8ZM366.74,79.26c-1.57-2.03-3.5-3.63-5.58-4.91l-2.74,4.45c1.67,1.03,3.09,2.22,4.18,3.65l4.14-3.19ZM388.98,84.04c-7.57-3.6-15.87-5.61-24.25-5.8l-.12,5.23c7.63.17,15.21,2.01,22.13,5.3l2.24-4.72ZM408.29,100.09c-4.87-7.03-11.72-12.43-19.32-16.04l-2.24,4.72c6.89,3.28,12.99,8.12,17.26,14.3l4.3-2.98ZM406.17,101.58l2.15-1.49-.73-1.05-1.28-.06-.13,2.61ZM413.89,129.16l-2.61-.04h0s2.61.04,2.61.04ZM411.72,145.44l2.52.68h0s-2.52-.68-2.52-.68ZM406.03,159.9l2.37,1.1h0s-2.37-1.1-2.37-1.1ZM399.87,174.69l2.48.84h0s-2.48-.84-2.48-.84ZM397.86,181.59l2.56.55h0s-2.56-.55-2.56-.55ZM395.64,186.71l-1.81-1.89h0s1.81,1.89,1.81,1.89ZM393.98,186.68l2.48-.83v-.03s-.02-.03-.02-.03l-2.46.89ZM391.56,177.29l-2.54.61h0s0,.02,0,.02l2.54-.62ZM388.08,167.83l2.36-1.12h0s-2.36,1.12-2.36,1.12ZM368.3,140.45l-1.88,1.81h0s1.88-1.81,1.88-1.81ZM342.15,120.01l1.25-2.29-1.73-.95-1.38,1.41,1.86,1.83ZM328.83,128.55l-1.11-2.36h0s1.12,2.36,1.12,2.36ZM308.38,137.61l.99,2.42h0s-.99-2.42-.99-2.42ZM259.64,128.98l2.42-.98h0s-2.42.98-2.42.98ZM267.08,104.47l1.45,2.17h0s-1.45-2.17-1.45-2.17ZM283.98,99.57l-.91-2.45h0s.91,2.45.91,2.45ZM313.01,86.47l-1.1-2.37h0s1.1,2.37,1.1,2.37ZM337.11,76.56l-.74-2.51h0s.75,2.51.75,2.51ZM359.78,76.58l1.37-2.22-.16-.1-.17-.08-1.04,2.4ZM364.67,80.85l-2.07,1.59.76.99,1.25.03.06-2.61ZM406.15,101.58l-2.15,1.49.73,1.06,1.29.06.13-2.61Z"/>
        </g>
        <path class="cls-17" d="M375.76,100.87c11.32-.14,33.36,6.88,30.92,36.15-.29-9.73-6.88-30.58-30.92-36.15Z"/>
        <path class="cls-17" d="M357.47,110.45c16.17-.15,47.64,7.3,44.16,38.32-.42-10.31-9.83-32.41-44.16-38.32Z"/>
        <path class="cls-8" d="M406.43,158.93c-1.23-3.22-4.22-6.56-8.04-6.07-4.69.61-7.09,5.97-8.03,10.04-.24,1-.55,2.32-.76,3.67-.57,1.63-1.07,3.33-1.34,5.08-.57,3.84-.29,7.92-.02,11.8.2,2.98.47,7.44,3.91,8.48,3.14.98,6.09-1.3,8.13-3.44,4.77-4.97,6.57-11.47,7.18-18.2.35-3.77.31-7.81-1.06-11.39l.03.03Z"/>
        <g class="cls-29">
          <path class="cls-7" d="M404.47,160.66l.03.03,3.87-3.51-.03-.03-3.87,3.51ZM410.07,170.54c.37-3.91.36-8.42-1.23-12.57l-4.88,1.87c1.16,3.02,1.24,6.58.9,10.21l5.2.49ZM402.17,190.31c5.36-5.58,7.27-12.78,7.9-19.78l-5.21-.47c-.59,6.46-2.28,12.27-6.46,16.63l3.77,3.62ZM391.39,194.43c2.42.75,4.66.2,6.45-.73,1.75-.9,3.24-2.24,4.34-3.4l-3.77-3.61c-.93.98-1.95,1.84-2.96,2.37-.98.51-1.78.6-2.5.38l-1.55,4.99ZM385.64,183.63c.1,1.41.22,3.61.86,5.59.66,2.04,2.02,4.34,4.89,5.21l1.52-5c-.57-.17-1.05-.62-1.44-1.82-.41-1.26-.51-2.78-.62-4.34l-5.21.36ZM385.69,171.26c-.62,4.17-.31,8.54-.04,12.37l5.21-.36c-.27-3.94-.53-7.72,0-11.23l-5.17-.77ZM387.15,165.7c-.6,1.72-1.15,3.57-1.46,5.54l5.16.82c.25-1.55.69-3.08,1.23-4.63l-4.93-1.73ZM387.83,162.28c-.24,1-.58,2.42-.8,3.89l5.17.78c.19-1.23.47-2.45.71-3.44l-5.08-1.23ZM398.06,150.27c-3.35.44-5.7,2.56-7.25,4.85-1.54,2.28-2.47,4.97-2.99,7.19l5.09,1.18c.43-1.85,1.16-3.87,2.22-5.44,1.06-1.56,2.25-2.42,3.59-2.59l-.67-5.18ZM408.87,158c-.74-1.95-2.03-3.98-3.79-5.49-1.79-1.53-4.2-2.61-7.02-2.25l.67,5.18c1-.13,1.99.21,2.96,1.04.99.85,1.82,2.1,2.3,3.37l4.88-1.86ZM406.41,158.9l1.94-1.75-4.38,2.69,2.44-.94ZM407.47,170.29l-2.6-.24h0s2.6.24,2.6.24ZM400.29,188.49l-1.88-1.81h0s1.89,1.81,1.89,1.81ZM392.16,191.93l.77-2.5h0s0,0,0,0l-.76,2.5ZM388.25,183.45l2.61-.18h0s-2.61.18-2.61.18ZM388.27,171.65l-2.58-.41h0s0,.02,0,.02l2.58.39ZM389.62,166.56l2.47.86.08-.23.04-.24-2.58-.39ZM390.37,162.9l2.54.61h0s0-.03,0-.03l-2.55-.59ZM398.4,152.86l-.33-2.59h0s.34,2.59.34,2.59ZM406.43,158.93l-1.94,1.75,4.38-2.68-2.44.93Z"/>
        </g>
        <path class="cls-8" d="M391.23,173.01c-1.46,1.32-2.93.43-3.48-.17l-2.24,9.92,5.18,9.85,1.91-3.39-1.37-16.2Z"/>
        <path class="cls-7" d="M356.49,318.22l-23.16-1.16-.26,5.22,23.16,1.16.26-5.22ZM351.83,375.56l7.11-54.4-5.18-.68-7.11,54.4,5.18.68ZM330.24,378.58c5.23.26,10.02.31,13.54.17,1.74-.07,3.25-.19,4.37-.36.54-.09,1.12-.21,1.62-.4.24-.09.62-.26.99-.55.35-.28,1.04-.96,1.09-2.08l-5.22-.26c.05-1.01.66-1.58.88-1.75.13-.1.24-.16.3-.19.06-.03.1-.05.11-.05.01,0-.03.01-.14.04-.11.03-.26.06-.46.09-.81.13-2.08.24-3.75.3-3.32.13-7.94.09-13.07-.17l-.26,5.22ZM309.06,373.21c-.06,1.13.56,1.87.88,2.18.34.33.7.53.93.65.48.24,1.05.42,1.58.56,1.09.29,2.58.56,4.31.8,3.49.49,8.25.92,13.49,1.18l.26-5.22c-5.13-.26-9.73-.68-13.02-1.14-1.66-.23-2.91-.47-3.7-.68-.19-.05-.34-.1-.45-.13-.11-.04-.15-.06-.14-.05,0,0,.05.02.1.06.05.04.16.11.28.22.2.19.75.82.7,1.83l-5.22-.26ZM307.42,318.58l1.64,54.84,5.22-.16-1.64-54.84-5.22.16ZM333.32,317.05l-23.16-1.16-.26,5.22,23.16,1.16.26-5.22ZM356.36,320.83l2.59.34.37-2.81-2.83-.14-.13,2.61ZM349.24,375.22l-2.59-.34v.1s-.02.1-.02.1l2.61.13ZM311.67,373.34l2.61.13v-.1s0-.1,0-.1l-2.61.08ZM310.03,318.5l.13-2.61-2.83-.14.08,2.83,2.61-.08Z"/>
        <path class="cls-16" d="M333.19,319.66l-23.16-1.16,1.64,54.84c-.05.92,8.34,2.11,18.7,2.63s18.82.18,18.87-.74l7.11-54.4-23.16-1.16Z"/>
        <path class="cls-13" d="M356.44,319.2c-.04.9-10.44,1.11-23.24.47-12.8-.64-23.13-1.89-23.08-2.79.04-.9,10.44-1.11,23.24-.47,12.8.64,23.13,1.89,23.08,2.79Z"/>
        <path class="cls-7" d="M360.94,322.1l-2.18-10.25-5.11,1.09,2.18,10.25,5.11-1.09ZM332.89,325.75c7.03.35,13.42.47,18.09.38,2.32-.05,4.28-.15,5.69-.31.69-.08,1.36-.18,1.91-.34.26-.07.66-.21,1.05-.45.28-.17,1.3-.86,1.37-2.27l-5.22-.26c.06-1.28.99-1.85,1.1-1.92.21-.13.34-.16.26-.13-.13.04-.46.1-1.06.17-1.17.13-2.93.23-5.2.27-4.51.09-10.78-.03-17.73-.38l-.26,5.22ZM305.21,319.98c-.07,1.4.88,2.19,1.14,2.39.36.28.74.45,1,.55.54.21,1.19.39,1.87.53,1.39.3,3.32.6,5.63.87,4.64.56,11.01,1.08,18.04,1.43l.26-5.22c-6.95-.35-13.19-.86-17.67-1.4-2.25-.27-4-.54-5.15-.79-.59-.13-.92-.23-1.04-.28-.08-.03.05,0,.25.16.09.07.96.74.9,2.02l-5.22-.26ZM308.53,309.33l-3.2,9.98,4.98,1.6,3.2-9.98-4.98-1.6ZM356.33,309.79l-45.18-2.26-.26,5.22,45.18,2.26.26-5.22ZM358.39,322.64l2.61.13.02-.34-.07-.33-2.56.54ZM307.82,320.11l-2.49-.8-.1.33-.02.34,2.61.13ZM311.02,310.13l.13-2.61-2.01-.1-.61,1.91,2.49.8ZM356.2,312.4l2.56-.54-.42-1.96-2.01-.1-.13,2.61Z"/>
        <path class="cls-9" d="M356.2,312.4l-45.18-2.26-3.2,9.98c-.05.98,11.22,2.33,25.2,3.03,13.97.7,25.32.48,25.37-.5l-2.18-10.25Z"/>
        <path class="cls-7" d="M386.76,367.86c-.41-1.85-1.11-3.58-1.93-5.18l-4.64,2.4c.67,1.29,1.18,2.6,1.47,3.91l5.1-1.13ZM384.83,362.68c-1.01-1.93-2.15-3.77-3.23-5.5l-4.44,2.76c1.1,1.76,2.14,3.44,3.04,5.17l4.63-2.42ZM381.6,357.18c-.53-.86-1.05-1.69-1.54-2.52l-4.49,2.68c.52.88,1.07,1.75,1.59,2.6l4.44-2.76ZM380.05,354.64c-1.62-2.68-3.26-5.37-4.94-8.03l-4.42,2.79c1.66,2.63,3.28,5.28,4.89,7.94l4.48-2.7ZM375.09,346.59c-.34-.52-.67-1.06-1.01-1.61l-4.43,2.77c.34.55.69,1.11,1.05,1.66l4.4-2.83ZM374.08,344.99c-1.1-1.75-2.31-3.7-3.75-5.46l-4.05,3.31c1.19,1.46,2.24,3.12,3.37,4.92l4.43-2.77ZM370.3,339.5c-.76-.91-1.76-1.93-3.17-2.65l-2.36,4.66c.5.25.95.66,1.53,1.35l4-3.36ZM367.62,337.17c-1.95-1.62-3.98-3.13-5.96-4.57l-3.07,4.23c1.96,1.43,3.88,2.85,5.69,4.36l3.34-4.02ZM361.66,332.61c-2.64-1.93-5.36-3.8-8.19-5.53l-2.74,4.45c2.68,1.65,5.28,3.43,7.84,5.3l3.08-4.22ZM353.48,327.08c-2.32-1.42-4.85-2.84-7.6-3.88l-1.84,4.89c2.28.86,4.48,2.07,6.7,3.44l2.73-4.46ZM345.88,323.2c-2.89-1.08-5.74-1.43-8.6-1.42v5.23c2.43,0,4.62.29,6.76,1.09l1.84-4.89ZM337.28,321.78c-.71,0-1.43-.05-2.28-.12l-.41,5.21c.81.06,1.75.14,2.7.14v-5.23ZM335,321.66c-1.26-.1-2.81-.23-4.41-.05l.6,5.19c1.01-.12,2.06-.04,3.4.06l.41-5.21ZM330.59,321.61c-.82.09-2.78.35-4.03,1.98l4.14,3.19c-.12.16-.23.18-.14.15.04-.02.12-.04.23-.06.11-.02.24-.04.4-.06l-.6-5.19ZM326.56,323.59c-1.38,1.79-.79,3.79-.29,4.78l4.67-2.34c-.05-.09-.02-.08-.01.05,0,.07,0,.18-.04.32-.04.14-.11.27-.2.39l-4.14-3.2ZM326.29,328.39c.58,1.13,1.41,2.01,2.19,2.7l3.47-3.91c-.53-.47-.83-.85-1-1.17l-4.65,2.38ZM328.77,331.32c3.03,1.99,6.56,2.92,9.54,3.74l1.37-5.04c-3.14-.85-5.83-1.61-8.05-3.06l-2.87,4.37ZM338.31,335.06c1.04.28,2.03.55,2.98.85l1.55-4.99c-1.05-.33-2.13-.62-3.15-.9l-1.37,5.04ZM341.3,335.91c.95.29,1.89.78,3.07,1.41l2.45-4.62c-1.1-.58-2.49-1.33-4-1.79l-1.52,5ZM344.38,337.31c.06.03.11.06.17.09l2.44-4.62c-.05-.03-.11-.06-.17-.09l-2.45,4.62ZM344.53,337.39c1.66.9,3.23,1.91,4.72,3.06l3.18-4.15c-1.71-1.31-3.52-2.48-5.41-3.5l-2.49,4.6ZM349.28,340.47c1.01.75,1.99,1.59,3,2.47l3.45-3.92c-1.03-.9-2.14-1.86-3.34-2.75l-3.11,4.2ZM355.09,338.61c-.48-.22-.95-.4-1.34-.56l-1.9,4.87c.41.16.74.29,1.06.44l2.18-4.75ZM353.71,338.03h0s-1.81,4.9-1.81,4.9h0s1.81-4.9,1.81-4.9ZM353.77,338.06c-1.54-.62-3.14-.97-4.49-1.28l-1.17,5.09c1.42.33,2.62.6,3.72,1.04l1.94-4.85ZM349.28,336.78c-.67-.15-1.29-.29-1.89-.45l-1.34,5.05c.7.19,1.41.35,2.06.5l1.17-5.09ZM347.4,336.32c-1.96-.53-4.14-1.12-6.58-1.21l-.19,5.22c1.76.07,3.39.49,5.41,1.03l1.36-5.05ZM340.86,335.12h-.05s-.26,5.22-.26,5.22h.05s.26-5.22.26-5.22ZM341.22,335.17c-1.45-.31-3.01-.54-4.66-.56l-.06,5.23c1.19.01,2.39.19,3.63.45l1.08-5.11ZM336.55,334.61c-2.88-.02-5.67.4-8.33.98l1.1,5.11c2.46-.53,4.84-.88,7.19-.86l.04-5.23ZM328.25,335.58c-.77.16-1.57.3-2.39.44l.9,5.15c.81-.14,1.68-.29,2.53-.47l-1.05-5.12ZM325.86,336.02c-.15.03-.3.05-.46.08l.91,5.15c.15-.03.3-.05.45-.08l-.9-5.15ZM325.79,336.06c-1.5.04-3.05.1-4.6.26l.52,5.2c1.36-.14,2.76-.2,4.2-.23l-.12-5.22ZM321.16,336.32c-1.54.17-3.87.54-5.72,1.91l3.1,4.21c.64-.47,1.73-.75,3.2-.92l-.58-5.19ZM315.43,338.23c-.69.52-1.27,1.2-1.6,2.05-.33.86-.33,1.71-.17,2.45.3,1.39,1.19,2.48,1.94,3.18l3.55-3.83c-.16-.14-.27-.28-.34-.39-.07-.11-.06-.14-.05-.06.02.09.03.29-.05.52-.09.23-.2.3-.16.27l-3.12-4.19ZM315.63,345.93c2.86,2.59,6.48,2.23,8.81,1.88l-.77-5.17c-2.34.35-3.64.23-4.53-.58l-3.51,3.87ZM324.44,347.82c2.85-.42,5.69-.56,8.56-.42l.26-5.22c-3.22-.16-6.4,0-9.59.47l.77,5.17ZM333,347.4c2.75.14,5.34.8,7.77,2l2.31-4.69c-3.1-1.53-6.38-2.36-9.82-2.53l-.26,5.22ZM340.64,349.33s0,0,0,0c0,0,0,0,0,0,0,0,0,0,.01,0l2.69-4.48s-.08-.05-.14-.08l-2.57,4.55ZM340.66,349.34s.29.18.61.3l1.82-4.9c.11.04.19.08.23.11.02.01.03.02.04.02,0,0,0,0-.02-.01l-2.69,4.48ZM343.01,344.72c-.22-.07-.55-.18-.89-.24l-1,5.13s.02,0,.07.02c.04.01.1.03.16.05l1.66-4.95ZM342.14,344.48c-2.12-.42-4.12.09-5.5.44l1.31,5.06c1.45-.38,2.36-.54,3.16-.38l1.02-5.13ZM336.69,344.91c-2.46.59-4.97,1.01-7.61,1.44l.85,5.16c2.6-.43,5.31-.87,7.99-1.52l-1.23-5.08ZM329.08,346.35c-1.09.18-2.21.36-3.32.56l.91,5.15c1.08-.19,2.15-.37,3.25-.55l-.85-5.16ZM325.75,346.91c-1.86.33-3.7.62-5.59.9l.78,5.17c1.9-.29,3.8-.58,5.73-.93l-.92-5.14ZM320.17,347.81s-.11.02-.19.03l.74,5.17c.08-.01.16-.02.22-.03l-.77-5.17ZM319.98,347.84c-.78.11-3.06.43-4.89,1.1-.82.3-2.11.87-2.92,1.96-.48.65-.82,1.52-.71,2.55.1.96.57,1.73,1.06,2.29l3.93-3.44c-.05-.05.15.15.2.59.05.5-.13.91-.29,1.12-.12.16-.2.18-.07.1.11-.07.31-.16.59-.27,1.22-.45,2.94-.71,3.82-.83l-.74-5.17ZM312.51,355.73c1.12,1.28,2.69,1.91,3.54,2.24l1.9-4.87c-.92-.36-1.32-.6-1.49-.8l-3.94,3.43ZM316.06,357.98c1.57.6,3.21.84,4.72.88l.15-5.22c-1.1-.03-2.12-.2-3-.54l-1.87,4.88ZM320.78,358.86c3.23.1,6.36-.5,9.15-1.07l-1.04-5.12c-2.83.57-5.41,1.04-7.96.97l-.16,5.22ZM329.93,357.79c.35-.07.7-.15,1.04-.22l-1.09-5.11c-.34.07-.66.14-.98.21l1.03,5.12ZM330.97,357.58c1.21-.26,2.22-.47,3.23-.54l-.38-5.21c-1.42.1-2.79.4-3.94.65l1.09,5.11ZM334.16,357.03c1.43-.09,2.99.28,4.63.93l1.92-4.86c-1.99-.79-4.37-1.44-6.87-1.28l.32,5.22ZM338.79,357.96c2.61,1.04,5.03,2.54,7.45,4.27l3.04-4.25c-2.58-1.85-5.39-3.61-8.55-4.87l-1.94,4.85ZM348.71,357.67c-1.07-.42-2.1-.8-3.16-1.19l-1.79,4.91c1.03.38,2.03.75,3.05,1.14l1.9-4.87ZM345.52,356.47c-4.99-1.74-9.45-1.02-13.7-.38l.78,5.17c4.38-.66,7.6-1.11,11.19.15l1.72-4.93ZM331.82,356.09c-.26.04-.53.08-.79.12l.77,5.17c.27-.04.54-.08.8-.12l-.78-5.17ZM331.03,356.21c-.82.12-1.69.13-2.77.14l.04,5.23c1.02,0,2.25-.01,3.5-.2l-.77-5.17ZM328.26,356.35c-1.14,0-2.56.01-3.98.28l.97,5.14c.88-.17,1.83-.18,3.05-.19l-.04-5.23ZM324.31,356.63c-.86.16-2.02.5-3.02,1.22-1.07.77-2.11,2.12-2,4.04l5.22-.28c0,.1-.02.25-.1.38-.06.11-.11.13-.06.09.05-.04.16-.1.34-.17.17-.06.37-.12.56-.15l-.93-5.14ZM319.28,361.92c.1,1.56.98,2.63,1.79,3.27.79.62,1.67.97,2.32,1.17l1.52-5c-.14-.04-.28-.09-.39-.15-.12-.06-.19-.1-.22-.13-.03-.02.01,0,.07.09.06.1.12.25.13.41l-5.22.34ZM323.37,366.34c2.9.92,5.87.82,8.31.76l-.12-5.22c-2.59.06-4.68.09-6.61-.52l-1.58,4.98ZM331.68,367.11c.9-.02,1.74-.04,2.56-.03l.09-5.23c-.95-.02-1.9,0-2.78.03l.12,5.22ZM334.25,367.08c2.97.04,5.9.82,9.18,1.7l1.36-5.05c-3.17-.85-6.73-1.82-10.46-1.88l-.08,5.23ZM343.43,368.78c.52.14,1.06.28,1.59.42l1.32-5.06c-.51-.13-1.03-.27-1.56-.41l-1.36,5.05ZM345.03,369.21c2.78.72,4.2,2.33,6.44,4.99l4-3.37c-2.18-2.58-4.55-5.49-9.12-6.67l-1.32,5.06ZM351.47,374.19c.36.43.75.89,1.15,1.35l3.94-3.43c-.37-.43-.73-.85-1.1-1.29l-4,3.37ZM352.62,375.54c1.39,1.6,2.86,3.14,4.35,4.61l3.67-3.72c-1.42-1.4-2.8-2.84-4.08-4.32l-3.94,3.43ZM356.98,380.16c3.02,2.96,6.33,5.88,9.93,8.33l2.93-4.32c-3.25-2.2-6.31-4.89-9.21-7.73l-3.66,3.73ZM366.93,388.49c1.45.97,3.35,2.02,5.62,2.21l.44-5.21c-.94-.08-1.95-.54-3.15-1.34l-2.91,4.34ZM372.52,390.69c1.74.17,3.37-.19,4.84-.89l-2.24-4.72c-.71.34-1.4.47-2.1.4l-.49,5.2ZM377.11,389.91c.66-.24,1.28-.53,1.86-.88l-2.67-4.5c-.31.18-.63.34-.96.46l1.76,4.92ZM376.21,388.97c8.15,5.35,26.34,17.1,44.94,27.78,9.3,5.34,18.74,10.43,27.1,14.32,8.27,3.85,15.78,6.68,21.12,7.24l.55-5.2c-4.39-.47-11.2-2.94-19.46-6.79-8.17-3.81-17.47-8.82-26.7-14.12-18.47-10.6-36.56-22.28-44.67-27.61l-2.87,4.37ZM469.37,438.31c24.31,2.58,36.94-17.11,31.25-30.71l-4.82,2.02c3.79,9.06-4.53,25.76-25.87,23.5l-.55,5.2ZM500.61,407.59c-5.27-12.51-19.68-21.19-37.06-22.9l-.51,5.2c16.2,1.6,28.48,9.58,32.76,19.73l4.82-2.03ZM463.55,384.69c-6.86-.67-22.66-4.3-38.85-8.35-16.09-4.02-32.29-8.39-39.8-10.43l-1.37,5.04c7.52,2.05,23.76,6.42,39.91,10.46,16.05,4.01,32.27,7.76,39.61,8.48l.51-5.2ZM382.51,363.89l2.32-1.2h0s-2.32,1.2-2.32,1.2ZM379.38,358.55l-2.22,1.38,2.22-1.38ZM377.81,355.99l2.24-1.34h0s-2.24,1.34-2.24,1.34ZM372.89,348.01l2.21-1.39h0s0-.02,0-.02l-2.2,1.41ZM371.86,346.37l-2.21,1.39h0s2.21-1.39,2.21-1.39ZM368.3,341.18l2.02-1.65h-.01s-.01-.03-.01-.03l-2,1.68ZM365.95,339.18l-1.67,2.01.23.19.26.13,1.18-2.33ZM360.12,334.72l-1.54,2.11h0s1.54-2.11,1.54-2.11ZM352.11,329.3l1.37-2.23h0s-1.37,2.23-1.37,2.23ZM344.96,325.65l.92-2.45-.92,2.45ZM337.28,324.39v2.61h0v-2.61ZM334.79,324.26l-.21,2.61.21-2.61ZM330.89,324.21l-.3-2.6.3,2.6ZM328.63,325.18l2.07,1.6h0s-2.07-1.6-2.07-1.6ZM328.61,327.2l-2.34,1.17h0s0,.02,0,.02l2.33-1.19ZM330.2,329.13l-1.73,1.96.14.13.16.1,1.43-2.19ZM339,332.53l.69-2.52-.69,2.52ZM342.06,333.41l-.78,2.5h0s0,0,0,0l.76-2.5ZM345.6,335l1.22-2.31h0s-1.22,2.31-1.22,2.31ZM345.77,335.09l1.24-2.3h-.01s-.01-.01-.01-.01l-1.22,2.31ZM350.84,338.37l-1.59,2.08h.02s.02.02.02.02l1.56-2.1ZM354,340.98l-1.09,2.37,2.82-4.34-1.73,1.96ZM352.8,340.49l.95-2.43h-.02s-.02-.02-.02-.02l-.9,2.45ZM352.8,340.49l-.97,2.43h.03s.03.03.03.03l.9-2.45ZM348.7,339.32l-.58,2.55.58-2.55ZM346.72,338.85l-.68,2.52h0s.67-2.52.67-2.52ZM340.73,337.73l-.13,2.61h.02s.02,0,.02,0l.1-2.61ZM340.68,337.73l-.54,2.56.2.04h.21s.13-2.6.13-2.6ZM336.53,337.22l.03-2.61h0s-.02,2.61-.02,2.61ZM328.77,338.14l.52,2.56h.01s.01,0,.01,0l-.55-2.55ZM326.31,338.59l.45,2.57-.45-2.57ZM325.86,338.67l.06,2.61h.2s.19-.04.19-.04l-.45-2.57ZM321.46,338.92l-.26-2.6h-.02s-.02,0-.02,0l.29,2.6ZM317,340.33l-1.55-2.1h-.01s1.56,2.1,1.56,2.1ZM317.39,344l-1.78,1.92h.01s.01.02.01.02l1.76-1.94ZM324.06,345.23l-.38-2.58.38,2.58ZM341.93,347.06l1.28-2.28-.06-.04-.06-.03-1.16,2.34ZM342,347.1l1.35-2.24h0s-1.35,2.24-1.35,2.24ZM342.18,347.19l-.83,2.48,1.74-4.93-.91,2.45ZM341.63,347.04l-.51,2.56h.01s.5-2.56.5-2.56ZM337.3,347.45l.61,2.54h.02s.02-.01.02-.01l-.66-2.53ZM329.5,348.93l.42,2.58-.42-2.58ZM326.21,349.48l-.46-2.57h0s.46,2.57.46,2.57ZM320.55,350.4l.38,2.58h0s-.39-2.58-.39-2.58ZM320.35,350.43l-.37-2.59h0s.37,2.59.37,2.59ZM314.48,354.02l1.97-1.71h0s-1.97,1.71-1.97,1.71ZM317,355.54l-.95,2.43h0s0,0,0,0l.93-2.44ZM320.86,356.25l.08-2.61h0s-.08,2.61-.08,2.61ZM329.41,355.23l-.52-2.56h0s.52,2.56.52,2.56ZM330.42,355.02l-.55-2.56.55,2.56ZM334.01,354.43l-.16-2.61h-.02s-.02,0-.02,0l.19,2.61ZM339.76,355.53l.97-2.43h0s-.96,2.43-.96,2.43ZM347.76,360.1l-.95,2.43,2.47-4.56-1.52,2.13ZM344.65,358.94l.89-2.46h-.02s-.02-.01-.02-.01l-.86,2.47ZM332.21,358.67l.39,2.58h0s-.39-2.58-.39-2.58ZM331.42,358.79l.38,2.58h0s-.39-2.58-.39-2.58ZM328.28,358.96l-.02-2.61.02,2.61ZM324.77,359.2l.47,2.57h0s0,0,0,0l-.48-2.57ZM321.89,361.75l-2.61.14v.02s0,.02,0,.02l2.61-.17ZM324.16,363.85l.79-2.49h-.01s-.01,0-.01,0l-.76,2.5ZM331.62,364.5l.06,2.61-.06-2.61ZM334.29,364.47l-.05,2.61h0s.04-2.61.04-2.61ZM344.11,366.26l.68-2.52-.68,2.52ZM345.68,366.68l-.66,2.53h0s.66-2.53.66-2.53ZM353.47,372.51l-2,1.68,2-1.68ZM354.59,373.83l1.97-1.72h0s-1.97,1.72-1.97,1.72ZM358.81,378.29l-1.84,1.86h0s1.83-1.86,1.83-1.86ZM368.38,386.32l-1.47,2.16h0s0,0,0,0l1.45-2.17ZM372.77,388.09l.25-2.6h-.01s-.01,0-.01,0l-.22,2.6ZM376.23,387.45l-.88-2.46-.12.04-.12.06,1.12,2.36ZM377.65,386.78l1.43-2.18-1.36-.9-1.4.83,1.33,2.25ZM469.64,435.71l.28-2.6-.28,2.6ZM498.2,408.61l2.41-1.01h0s-2.41,1.01-2.41,1.01ZM384.21,368.43l-2.55.57.34,1.54,1.52.41.69-2.52ZM463.3,387.29l.26-2.6h0s-.25,2.6-.25,2.6Z"/>
        <path class="cls-6" d="M384.21,368.43c15.03,4.09,64.88,17.48,79.08,18.86,16.79,1.66,30.13,9.99,34.91,21.32,4.75,11.33-5.73,29.53-28.56,27.1-19.44-2.07-75.74-38.25-92-48.93-.45.27-.92.49-1.41.67-1.09.52-2.25.76-3.47.64-1.6-.13-3.06-.89-4.38-1.77-3.43-2.32-6.61-5.13-9.57-8.03-1.45-1.44-2.88-2.92-4.22-4.46-.39-.45-.76-.89-1.13-1.32-2.21-2.62-4.11-4.87-7.78-5.83-.52-.14-1.05-.28-1.57-.42-3.22-.87-6.47-1.74-9.82-1.79-.89-.02-1.78,0-2.67.03-2.52.06-5.05.12-7.46-.64-.97-.29-2.19-.93-2.27-2.1-.08-1.59,1.59-2.32,2.88-2.55,1.15-.22,2.33-.23,3.51-.23,1.05,0,2.1-.02,3.13-.17.27-.04.53-.08.79-.12,4.31-.65,8.15-1.23,12.44.27,1.04.38,2.06.76,3.1,1.16-2.5-1.79-5.12-3.42-8-4.57-1.82-.72-3.78-1.23-5.75-1.11-1.21.09-2.4.34-3.58.59-.34.07-.67.14-1.01.21-2.81.57-5.67,1.11-8.55,1.02-1.31-.04-2.63-.24-3.86-.71-.88-.34-1.87-.78-2.51-1.52-2.14-2.45,4.2-3.35,5.86-3.59.08-.01.15-.02.21-.03,1.89-.29,3.76-.57,5.66-.92,1.09-.19,2.19-.37,3.29-.55,2.62-.43,5.23-.86,7.8-1.48,1.41-.37,2.87-.7,4.33-.41.18.03.38.09.56.15-.06-.02-.12-.06-.18-.09-.02-.01-.05-.03-.08-.05-2.77-1.37-5.7-2.11-8.8-2.27-3.04-.15-6.05,0-9.07.44-2.33.35-4.79.47-6.67-1.23-1.12-1.04-1.86-2.57-.39-3.67,1.25-.92,2.95-1.24,4.46-1.41,1.45-.15,2.93-.21,4.4-.24.15-.03.3-.05.45-.08.82-.14,1.65-.29,2.46-.46,2.56-.55,5.14-.94,7.76-.92,1.42.02,2.8.22,4.14.51h.05c2.09.08,4,.58,5.99,1.12.65.17,1.31.32,1.97.48,1.39.32,2.78.64,4.1,1.16h0c.4.16.8.31,1.2.5-1.02-.9-2.06-1.79-3.17-2.61-1.6-1.22-3.29-2.32-5.07-3.28-.06-.03-.11-.06-.17-.09-1.14-.6-2.31-1.22-3.54-1.6-1-.31-2.03-.59-3.07-.87-3.06-.83-6.17-1.68-8.79-3.4-.65-.58-1.22-1.21-1.59-1.93-.32-.64-.45-1.41.02-2.02.52-.68,1.43-.88,2.26-.98,1.3-.15,2.61-.05,3.91.05.83.07,1.66.13,2.49.13,2.64,0,5.16.31,7.68,1.26,2.51.94,4.87,2.26,7.15,3.66,2.75,1.69,5.41,3.51,8.01,5.42,1.97,1.43,3.94,2.9,5.83,4.46.96.48,1.68,1.2,2.35,2,1.32,1.61,2.45,3.41,3.56,5.19.34.55.69,1.1,1.03,1.63,1.67,2.65,3.3,5.32,4.91,7.99.51.86,1.04,1.71,1.57,2.56,1.09,1.75,2.18,3.51,3.13,5.33.75,1.44,1.35,2.96,1.7,4.54Z"/>
      </g>
    </g>
  </g>
</svg>