<svg width="700" height="400" viewBox="0 0 700 400" fill="none" xmlns="http://www.w3.org/2000/svg">
<rect width="700" height="400" rx="20" transform="matrix(-1 0 0 1 700 0)" fill="#E2F3F1"/>
<mask id="mask0_543_4408" style="mask-type:alpha" maskUnits="userSpaceOnUse" x="0" y="0" width="700" height="400">
<rect width="700" height="400" rx="20" transform="matrix(-1 0 0 1 700 0)" fill="#E2F3F1"/>
</mask>
<g mask="url(#mask0_543_4408)">
<rect x="-43" y="103" width="48" height="293" transform="rotate(-90 -43 103)" fill="#8ECDC7"/>
<rect x="415" y="354" width="48" height="293" transform="rotate(-90 415 354)" fill="#8ECDC7"/>
<rect x="25" y="-8" width="48" height="293" fill="#8ECDC7"/>
<rect x="618" y="49" width="48" height="350" fill="#8ECDC7"/>
<rect x="551" y="250" width="48" height="293" fill="#8ECDC7"/>
</g>
<path d="M222.826 147.775H446.684C457.761 147.775 465.146 141.775 465.146 127.005V116.389C465.146 116.389 463.577 95.1573 477.608 95.1573C491.64 95.1573 533.765 95.1573 550.997 95.1573" stroke="black" stroke-width="4.17583" stroke-dasharray="4.18 4.18"/>
<path d="M222.826 246.549H446.684C457.761 246.549 465.146 252.55 465.146 267.32V277.936C465.146 277.936 463.577 299.167 477.608 299.167C491.64 299.167 533.765 299.167 550.997 299.167" stroke="black" stroke-width="4.17583" stroke-dasharray="4.18 4.18"/>
<path d="M570.844 111.312V58.6939C568.536 50.3858 558.341 37.9237 534.842 37.9237C513.61 37.9237 297.753 39.3084 193.748 37.9237C184.517 37.8008 166.331 37.2775 165.593 58.6939C164.854 80.1104 165.285 155.93 165.593 191.162" stroke="black" stroke-width="4.17583" stroke-dasharray="4.18 4.18"/>
<path d="M570.844 319.803V340.247C568.536 348.555 558.341 361.017 534.842 361.017C513.61 361.017 297.753 359.632 193.748 361.017C184.517 361.14 166.331 361.663 165.593 340.247C164.854 318.83 165.285 243.011 165.593 207.778" stroke="black" stroke-width="4.17583" stroke-dasharray="4.18 4.18"/>
<path d="M531.334 171.928L534.007 171.149V173.933C534.007 174.159 533.979 174.354 533.969 174.427L533.968 174.433C534.009 178.571 537.381 181.918 541.529 181.918C545.702 181.918 549.09 178.53 549.09 174.357V81.7281C549.09 77.5551 545.702 74.1672 541.529 74.1672C537.377 74.1672 534.002 77.5216 533.968 81.6662L533.969 81.6699C533.973 81.699 533.982 81.7636 533.989 81.8306C533.997 81.9096 534.007 82.0214 534.007 82.1527V84.9366L531.334 84.1571C530.584 83.9385 529.797 83.8161 528.985 83.8161C524.272 83.8161 520.46 87.6285 520.46 92.3419C520.46 93.1322 520.581 93.9196 520.801 94.6712L521.69 97.7218L518.537 97.3276L518.537 97.3276C518.528 97.3264 518.512 97.3244 518.372 97.3244C513.137 97.3244 508.881 101.581 508.881 106.815C508.881 109.333 509.886 111.627 511.514 113.351L514.118 116.108L510.396 116.834C505.122 117.863 501.162 122.483 501.162 128.043C501.162 133.6 505.139 138.222 510.397 139.251L514.159 139.987L511.501 142.748C509.876 144.436 508.881 146.739 508.881 149.27C508.881 154.504 513.137 158.76 518.371 158.761C518.373 158.761 518.388 158.76 518.448 158.756L518.461 158.755C518.522 158.751 518.655 158.742 518.796 158.742H521.58L520.801 161.414C520.581 162.166 520.46 162.953 520.46 163.743C520.46 168.457 524.272 172.269 528.985 172.269C529.797 172.269 530.584 172.147 531.334 171.928Z" fill="#7ECBBF" stroke="black" stroke-width="4.17583"/>
<path d="M531.88 108.745H551.178V104.885H533.81V97.1663H529.95V106.815C529.95 107.877 530.819 108.745 531.88 108.745Z" fill="#202030"/>
<path d="M524.161 118.394H551.178V122.253H524.161V118.394Z" fill="#202030"/>
<path d="M518.372 145.411H522.231V135.762H551.178V131.902H520.301C519.24 131.902 518.372 132.771 518.372 133.832V145.411Z" fill="#202030"/>
<path d="M537.669 133.832H541.528V158.919H537.669V133.832Z" fill="#202030"/>
<path d="M531.88 99.0961C535.064 99.0961 537.669 96.4909 537.669 93.3068C537.669 90.1227 535.064 87.5175 531.88 87.5175C528.696 87.5175 526.09 90.1227 526.09 93.3068C526.09 96.4909 528.696 99.0961 531.88 99.0961ZM531.88 91.377C532.941 91.377 533.809 92.2454 533.809 93.3068C533.809 94.3682 532.941 95.2366 531.88 95.2366C530.818 95.2366 529.95 94.3682 529.95 93.3068C529.95 92.2454 530.818 91.377 531.88 91.377Z" fill="#202030"/>
<path d="M520.301 126.113C523.485 126.113 526.09 123.508 526.09 120.324C526.09 117.139 523.485 114.534 520.301 114.534C517.117 114.534 514.512 117.139 514.512 120.324C514.512 123.508 517.117 126.113 520.301 126.113ZM520.301 118.394C521.362 118.394 522.231 119.262 522.231 120.324C522.231 121.385 521.362 122.253 520.301 122.253C519.24 122.253 518.371 121.385 518.371 120.324C518.371 119.262 519.24 118.394 520.301 118.394Z" fill="#202030"/>
<path d="M539.598 168.568C542.783 168.568 545.388 165.963 545.388 162.778C545.388 159.594 542.783 156.989 539.598 156.989C536.414 156.989 533.809 159.594 533.809 162.778C533.809 165.963 536.414 168.568 539.598 168.568ZM539.598 160.849C540.66 160.849 541.528 161.717 541.528 162.778C541.528 163.84 540.66 164.708 539.598 164.708C538.537 164.708 537.669 163.84 537.669 162.778C537.669 161.717 538.537 160.849 539.598 160.849Z" fill="#202030"/>
<path d="M520.301 155.059C523.485 155.059 526.09 152.454 526.09 149.27C526.09 146.086 523.485 143.481 520.301 143.481C517.117 143.481 514.512 146.086 514.512 149.27C514.512 152.454 517.117 155.059 520.301 155.059ZM520.301 147.34C521.362 147.34 522.231 148.209 522.231 149.27C522.231 150.332 521.362 151.2 520.301 151.2C519.24 151.2 518.371 150.332 518.371 149.27C518.371 148.209 519.24 147.34 520.301 147.34Z" fill="#202030"/>
<path d="M576.067 173.933V171.149L578.74 171.928C579.49 172.147 580.277 172.269 581.089 172.269C585.802 172.269 589.614 168.457 589.614 163.743C589.614 162.953 589.493 162.166 589.273 161.414L588.494 158.742H591.278C591.419 158.742 591.552 158.751 591.613 158.755L591.626 158.756C591.686 158.76 591.701 158.761 591.703 158.761C596.937 158.76 601.193 154.504 601.193 149.27C601.193 146.739 600.198 144.436 598.573 142.748L595.915 139.987L599.677 139.251C604.935 138.222 608.912 133.6 608.912 128.043C608.912 122.483 604.952 117.863 599.678 116.834L595.956 116.108L598.56 113.351C600.188 111.627 601.193 109.333 601.193 106.815C601.193 101.581 596.937 97.3244 591.702 97.3244C591.562 97.3244 591.546 97.3264 591.537 97.3276L591.537 97.3276L588.384 97.7218L589.273 94.6712C589.493 93.9196 589.614 93.1322 589.614 92.3419C589.614 87.6285 585.802 83.8161 581.089 83.8161C580.277 83.8161 579.49 83.9385 578.74 84.1571L576.067 84.9366V82.1527C576.067 82.0214 576.077 81.9096 576.085 81.8306C576.092 81.7638 576.101 81.6995 576.105 81.6702L576.106 81.6662C576.072 77.5216 572.697 74.1672 568.545 74.1672C564.372 74.1672 560.984 77.5551 560.984 81.7281V174.357C560.984 178.53 564.372 181.918 568.545 181.918C572.693 181.918 576.065 178.571 576.106 174.433L576.105 174.427C576.095 174.354 576.067 174.159 576.067 173.933Z" fill="#FAA91F" stroke="black" stroke-width="4.17583"/>
<path d="M558.896 108.745H572.405C573.466 108.745 574.334 107.877 574.334 106.815V97.1663H570.475V104.885H558.896V108.745Z" fill="#202030"/>
<path d="M585.913 133.832H589.772V120.324C589.772 119.262 588.904 118.394 587.843 118.394H558.896V122.253H585.913V133.832Z" fill="#202030"/>
<path d="M574.335 149.27H578.194V133.832C578.194 132.771 577.326 131.902 576.265 131.902H558.897V135.762H574.335V149.27Z" fill="#202030"/>
<path d="M572.405 99.0961C575.589 99.0961 578.194 96.4909 578.194 93.3068C578.194 90.1227 575.589 87.5175 572.405 87.5175C569.221 87.5175 566.616 90.1227 566.616 93.3068C566.616 96.4909 569.221 99.0961 572.405 99.0961ZM572.405 91.377C573.466 91.377 574.335 92.2454 574.335 93.3068C574.335 94.3682 573.466 95.2366 572.405 95.2366C571.344 95.2366 570.475 94.3682 570.475 93.3068C570.475 92.2454 571.344 91.377 572.405 91.377Z" fill="#202030"/>
<path d="M589.773 112.604C592.957 112.604 595.562 109.999 595.562 106.815C595.562 103.631 592.957 101.026 589.773 101.026C586.589 101.026 583.983 103.631 583.983 106.815C583.983 109.999 586.589 112.604 589.773 112.604ZM589.773 104.885C590.834 104.885 591.702 105.754 591.702 106.815C591.702 107.877 590.834 108.745 589.773 108.745C588.711 108.745 587.843 107.877 587.843 106.815C587.843 105.754 588.711 104.885 589.773 104.885Z" fill="#202030"/>
<path d="M587.843 143.481C591.027 143.481 593.632 140.876 593.632 137.691C593.632 134.507 591.027 131.902 587.843 131.902C584.659 131.902 582.054 134.507 582.054 137.691C582.054 140.876 584.659 143.481 587.843 143.481ZM587.843 135.762C588.904 135.762 589.773 136.63 589.773 137.691C589.773 138.753 588.904 139.621 587.843 139.621C586.782 139.621 585.913 138.753 585.913 137.691C585.913 136.63 586.782 135.762 587.843 135.762Z" fill="#202030"/>
<path d="M576.264 158.919C579.449 158.919 582.054 156.314 582.054 153.13C582.054 149.946 579.449 147.34 576.264 147.34C573.08 147.34 570.475 149.946 570.475 153.13C570.475 156.314 573.08 158.919 576.264 158.919ZM576.264 151.2C577.326 151.2 578.194 152.068 578.194 153.13C578.194 154.191 577.326 155.059 576.264 155.059C575.203 155.059 574.335 154.191 574.335 153.13C574.335 152.068 575.203 151.2 576.264 151.2Z" fill="#202030"/>
<path d="M572.405 104.885H585.913V108.745H572.405V104.885Z" fill="#202030"/>
<path d="M558.897 166.638H576.265C577.326 166.638 578.194 165.77 578.194 164.708V156.989H574.335V162.778H558.897V166.638Z" fill="#202030"/>
<path d="M522.231 104.885H526.09V108.745H522.231V104.885Z" fill="#202030"/>
<path d="M601.351 126.113H605.211V129.972H601.351V126.113Z" fill="#202030"/>
<path d="M589.773 149.27H593.632V153.13H589.773V149.27Z" fill="#202030"/>
<path d="M506.792 126.113H510.652V129.972H506.792V126.113Z" fill="#202030"/>
<path d="M113.469 331.719H111.381V329.631V301.871L86.9406 273.917L86.4245 273.327V272.543V190.479C86.4245 149.918 119.284 117.031 159.816 117.031H184.772C225.097 117.031 257.828 149.584 258.161 189.858L297.045 250.001L299.128 253.222H295.292H258.163V301.087V303.175H256.075H179.729V329.631V331.719H177.642H113.469Z" fill="#4ABAEB" stroke="black" stroke-width="4.17583"/>
<path d="M120.6 165.503H191.903V236.863H120.6V165.503Z" fill="white"/>
<path d="M120.599 238.647H191.902C192.882 238.647 193.685 237.844 193.685 236.863V165.503C193.685 164.521 192.882 163.719 191.902 163.719H120.599C119.618 163.719 118.816 164.521 118.816 165.503V236.863C118.816 237.844 119.618 238.647 120.599 238.647ZM190.119 235.079H122.381V167.287H190.119V235.079Z" fill="#202030"/>
<path d="M182.99 151.231H186.555V165.503H182.99V151.231Z" fill="#202030"/>
<path d="M168.729 151.231H172.294V165.503H168.729V151.231Z" fill="#202030"/>
<path d="M154.468 151.231H158.033V165.503H154.468V151.231Z" fill="#202030"/>
<path d="M140.207 151.231H143.772V165.503H140.207V151.231Z" fill="#202030"/>
<path d="M125.947 151.231H129.512V165.503H125.947V151.231Z" fill="#202030"/>
<path d="M182.99 236.862H186.555V251.134H182.99V236.862Z" fill="#202030"/>
<path d="M191.902 274.326H213.293V270.758H192.633L172.294 250.403V236.862H168.729V251.134C168.729 251.616 168.925 252.062 169.246 252.401L190.637 273.809C190.976 274.148 191.421 274.326 191.902 274.326Z" fill="#202030"/>
<path d="M154.468 236.862H158.033V272.542H154.468V236.862Z" fill="#202030"/>
<path d="M125.947 329.631H129.512V276.842L143.256 263.087C143.594 262.748 143.772 262.302 143.772 261.821V236.845H140.207V261.089L126.464 274.844C126.125 275.183 125.947 275.629 125.947 276.111V329.631Z" fill="#202030"/>
<path d="M88.5128 267.19H113.469C113.95 267.19 114.396 266.994 114.735 266.673L128.995 252.401C129.334 252.062 129.512 251.616 129.512 251.134V236.862H125.947V250.403L112.738 263.622H88.5128V267.19Z" fill="#202030"/>
<path d="M106.339 170.855H120.6V174.423H106.339V170.855Z" fill="#202030"/>
<path d="M106.339 185.127H120.6V188.695H106.339V185.127Z" fill="#202030"/>
<path d="M106.339 199.399H120.6V202.967H106.339V199.399Z" fill="#202030"/>
<path d="M106.339 213.671H120.6V217.239H106.339V213.671Z" fill="#202030"/>
<path d="M106.339 227.943H120.6V231.511H106.339V227.943Z" fill="#202030"/>
<path d="M191.902 170.855H206.163V174.423H191.902V170.855Z" fill="#202030"/>
<path d="M191.902 185.127H206.163V188.695H191.902V185.127Z" fill="#202030"/>
<path d="M191.902 199.399H206.163V202.967H191.902V199.399Z" fill="#202030"/>
<path d="M191.902 213.671H206.163V217.239H191.902V213.671Z" fill="#202030"/>
<path d="M191.902 227.943H206.163V231.511H191.902V227.943Z" fill="#202030"/>
<path d="M172.294 197.615H175.859V183.343C175.859 182.361 175.057 181.559 174.076 181.559H159.816V185.127H172.294V197.615Z" fill="#202030"/>
<path d="M138.425 220.807H152.686V217.239H140.207V204.751H136.642V219.023C136.642 220.004 137.444 220.807 138.425 220.807Z" fill="#202030"/>
<path d="M156.251 288.599C161.171 288.599 165.164 284.602 165.164 279.679C165.164 274.755 161.171 270.759 156.251 270.759C151.331 270.759 147.338 274.755 147.338 279.679C147.338 284.602 151.331 288.599 156.251 288.599ZM156.251 274.327C159.192 274.327 161.598 276.735 161.598 279.679C161.598 282.622 159.192 285.031 156.251 285.031C153.309 285.031 150.903 282.622 150.903 279.679C150.903 276.735 153.309 274.327 156.251 274.327Z" fill="#202030"/>
<path d="M220.424 281.463C225.344 281.463 229.337 277.466 229.337 272.543C229.337 267.619 225.344 263.623 220.424 263.623C215.504 263.623 211.511 267.619 211.511 272.543C211.511 277.466 215.504 281.463 220.424 281.463ZM220.424 267.191C223.365 267.191 225.772 269.599 225.772 272.543C225.772 275.486 223.365 277.895 220.424 277.895C217.483 277.895 215.076 275.486 215.076 272.543C215.076 269.599 217.483 267.191 220.424 267.191Z" fill="#202030"/>
<path d="M186.555 301.087H190.12V290.383C190.12 289.901 189.924 289.455 189.603 289.116L178.908 278.412C178.569 278.073 178.123 277.895 177.642 277.895H163.381V281.463H176.911L186.555 291.114V301.087Z" fill="#202030"/>
<path d="M143.773 329.631H147.338V308.954L157.516 298.767C157.855 298.428 158.033 297.982 158.033 297.501V286.797H154.468V296.769L144.289 306.956C143.951 307.295 143.773 307.741 143.773 308.223V329.631Z" fill="#202030"/>
<path d="M231.12 212.832C237.804 212.832 244.489 210.602 250.051 206.142L247.823 203.359C237.983 211.244 224.239 211.244 214.399 203.359L212.171 206.142C217.75 210.602 224.435 212.832 231.102 212.832H231.12Z" fill="#202030"/>
<path d="M145.555 181.559H152.686V185.127H145.555V181.559Z" fill="#202030"/>
<path d="M159.816 217.239H166.946V220.807H159.816V217.239Z" fill="#202030"/>
<path d="M581.5 320.5H557.5H534.5L549 289H504V230.5C504 222.9 510.667 219.667 514 219H591C601.8 219 603.167 226.667 602.5 230.5C602.667 242.333 602.9 268.4 602.5 278C602.1 287.6 596.333 289.333 593.5 289H569.5L577.5 311.5H590C589.6 317.1 584.167 319.833 581.5 320.5Z" fill="white"/>
<path d="M553.953 291.303H594.348C599.973 291.303 604.538 286.738 604.538 281.113V228.123C604.538 222.498 599.973 217.933 594.348 217.933H512.825C507.2 217.933 502.635 222.498 502.635 228.123V265.399H506.711V228.123C506.711 224.76 509.463 222.009 512.825 222.009H594.348C597.711 222.009 600.462 224.76 600.462 228.123V281.113C600.462 284.475 597.711 287.227 594.348 287.227H553.953V291.303Z" fill="#202030"/>
<path d="M588.234 272.96H592.31V228.123C592.31 227.002 591.393 226.085 590.272 226.085H516.902C515.781 226.085 514.864 227.002 514.864 228.123V254.618H518.94V230.161H588.234V272.96Z" fill="#FAA91F"/>
<path d="M567.853 242.389H590.272V246.466H567.853V242.389Z" fill="#FAA91F"/>
<path d="M580.081 234.237H584.157V238.313H580.081V234.237Z" fill="#FAA91F"/>
<path d="M571.929 234.237H576.005V238.313H571.929V234.237Z" fill="#FAA91F"/>
<path d="M563.776 234.237H567.853V238.313H563.776V234.237Z" fill="#FAA91F"/>
<path d="M554.34 313.721H578.043C578.716 313.721 579.327 313.395 579.714 312.845C580.101 312.295 580.183 311.602 579.959 310.97L571.806 288.551C571.521 287.736 570.747 287.206 569.891 287.206H553.953V291.282H568.464L575.129 309.625H554.34V313.701V313.721Z" fill="#202030"/>
<path d="M555.89 321.874H582.12C587.745 321.874 592.31 317.309 592.31 311.684C592.31 310.563 591.393 309.645 590.272 309.645H554.341V313.722H587.887C587.052 316.086 584.79 317.798 582.12 317.798H555.89V321.874Z" fill="#202030"/>
<path d="M544.11 270.922H602.5V274.998H544.11V270.922Z" fill="#202030"/>
<path d="M561.739 266.846H565.815V254.618C565.815 248.993 561.25 244.428 555.625 244.428H525.054V248.504H555.625C558.987 248.504 561.739 251.255 561.739 254.618V266.846Z" fill="#202030"/>
<path d="M531.76 256.065L534.633 253.191L527.928 246.486L534.633 239.781L531.76 236.907L523.607 245.059C522.813 245.854 522.813 247.138 523.607 247.933L531.76 256.085V256.065Z" fill="#202030"/>
<path d="M484.024 305.341L482.563 305.001L482.418 303.508C482.291 302.199 482.205 300.845 482.205 299.455C482.205 298.086 482.269 296.723 482.422 295.369L482.587 293.903L484.024 293.569L489.091 292.391C489.358 291.096 489.697 289.83 490.104 288.594L486.33 285.062L485.242 284.044L485.852 282.684C486.974 280.181 488.35 277.84 489.911 275.658L490.784 274.439L492.218 274.876L497.131 276.374C498.01 275.392 498.946 274.456 499.935 273.571L498.437 268.658L497.999 267.223L499.219 266.351C501.4 264.789 503.742 263.413 506.244 262.291L507.604 261.682L508.623 262.77L512.155 266.544C513.391 266.137 514.656 265.798 515.952 265.531L517.13 260.463L517.47 259.002L518.963 258.858C520.271 258.731 521.625 258.644 523.016 258.644C524.385 258.644 525.748 258.708 527.102 258.861L528.567 259.027L528.901 260.463L530.079 265.531C531.375 265.798 532.641 266.137 533.876 266.544L537.408 262.77L538.427 261.682L539.787 262.291C542.289 263.413 544.631 264.789 546.812 266.351L548.032 267.223L547.594 268.658L546.097 273.57C547.079 274.449 548.015 275.385 548.9 276.374L553.813 274.876L555.247 274.439L556.12 275.658C557.681 277.84 559.058 280.181 560.179 282.684L560.789 284.044L559.701 285.062L555.927 288.594C556.334 289.83 556.673 291.096 556.94 292.391L562.008 293.569L563.469 293.909L563.613 295.402C563.74 296.711 563.827 298.065 563.827 299.455C563.827 300.824 563.763 302.188 563.61 303.541L563.444 305.007L562.008 305.341L556.94 306.519C556.673 307.814 556.334 309.08 555.927 310.316L559.701 313.848L560.789 314.866L560.179 316.226C559.058 318.729 557.681 321.07 556.12 323.252L555.247 324.471L553.813 324.034L548.901 322.536C548.022 323.519 547.085 324.455 546.096 325.339L547.594 330.253L548.032 331.687L546.812 332.559C544.631 334.121 542.289 335.497 539.787 336.619L538.427 337.228L537.408 336.14L533.876 332.366C532.641 332.773 531.375 333.112 530.079 333.379L528.901 338.447L528.562 339.908L527.069 340.053C525.76 340.179 524.406 340.266 523.016 340.266C521.647 340.266 520.283 340.202 518.929 340.049L517.464 339.884L517.13 338.447L515.952 333.379C514.656 333.112 513.391 332.773 512.155 332.366L508.623 336.14L507.604 337.228L506.244 336.619C503.742 335.497 501.4 334.121 499.219 332.559L497.999 331.687L498.437 330.253L499.935 325.34C498.952 324.461 498.016 323.525 497.131 322.536L492.218 324.034L490.784 324.471L489.911 323.252C488.35 321.07 486.974 318.729 485.852 316.226L485.242 314.866L486.33 313.848L490.104 310.316C489.697 309.08 489.358 307.814 489.091 306.519L484.024 305.341Z" fill="#8FD7F7" stroke="black" stroke-width="4.17583"/>
<path d="M523.016 311.684C516.262 311.684 510.787 306.209 510.787 299.455C510.787 292.702 516.262 287.227 523.016 287.227C529.769 287.227 535.244 292.702 535.244 299.455C535.244 306.209 529.769 311.684 523.016 311.684Z" fill="white"/>
<path d="M523.016 313.722C530.883 313.722 537.282 307.322 537.282 299.455C537.282 291.588 530.883 285.189 523.016 285.189C515.149 285.189 508.749 291.588 508.749 299.455C508.749 307.322 515.149 313.722 523.016 313.722ZM523.016 289.265C528.641 289.265 533.206 293.83 533.206 299.455C533.206 305.08 528.641 309.645 523.016 309.645C517.391 309.645 512.826 305.08 512.826 299.455C512.826 293.83 517.391 289.265 523.016 289.265Z" fill="#202030"/>
<path d="M521.895 323.892L522.078 319.815C520.856 319.754 519.633 319.591 518.451 319.326L517.534 323.301C518.96 323.627 520.407 323.83 521.875 323.892H521.895ZM528.417 323.321C529.843 322.995 531.25 322.546 532.595 321.976L530.985 318.226C529.864 318.694 528.702 319.082 527.52 319.347L528.417 323.321ZM511.399 320.998L513.335 317.411C512.255 316.84 511.236 316.147 510.278 315.393L507.73 318.572C508.872 319.489 510.095 320.284 511.379 320.998H511.399ZM538.22 318.613C539.361 317.696 540.441 316.677 541.399 315.597L538.342 312.906C537.547 313.824 536.651 314.659 535.693 315.434L538.22 318.613ZM503.206 313.844L506.508 311.439C505.794 310.461 505.163 309.401 504.633 308.3L500.964 310.074C501.596 311.378 502.35 312.662 503.206 313.824V313.844ZM545.027 310.135C545.659 308.81 546.189 307.424 546.576 306.038L542.642 304.958C542.316 306.12 541.888 307.261 541.358 308.362L545.027 310.135ZM498.946 303.857L502.961 303.124C502.737 301.942 502.635 300.719 502.635 299.476L498.559 299.394V299.476C498.559 300.943 498.682 302.41 498.946 303.837V303.857ZM547.473 299.537V299.496C547.473 298.049 547.35 296.602 547.085 295.175L543.07 295.889C543.274 297.071 543.397 298.273 543.397 299.496L547.473 299.537ZM503.389 293.993C503.716 292.832 504.144 291.69 504.673 290.59L501.005 288.796C500.353 290.121 499.843 291.486 499.456 292.893L503.389 293.993ZM541.399 290.692L545.068 288.918C544.436 287.594 543.682 286.33 542.826 285.148L539.524 287.533C540.238 288.511 540.869 289.571 541.399 290.671V290.692ZM507.71 286.024C508.505 285.107 509.402 284.272 510.36 283.497L507.832 280.297C506.691 281.215 505.631 282.213 504.653 283.314L507.71 286.004V286.024ZM535.754 283.579L538.301 280.399C537.16 279.482 535.937 278.667 534.653 277.974L532.717 281.561C533.777 282.132 534.796 282.825 535.754 283.579ZM515.047 280.705C516.168 280.236 517.33 279.849 518.532 279.584L517.635 275.61C516.209 275.936 514.803 276.384 513.457 276.955L515.047 280.705ZM527.602 279.625L528.519 275.651C527.112 275.325 525.645 275.121 524.178 275.06L523.974 279.136C525.197 279.197 526.42 279.36 527.602 279.625Z" fill="#202030"/>
<path d="M420.235 148.237C420.235 149.788 419.115 150.741 418.102 151.372C417.076 152.012 415.596 152.664 413.836 153.44C413.797 153.457 413.758 153.474 413.718 153.491L401.942 158.68L401.835 158.727C400.605 159.269 399.525 159.745 398.633 159.99C397.687 160.25 396.573 160.36 395.543 159.688C394.512 159.016 394.164 157.952 394.02 156.982C393.885 156.067 393.885 154.887 393.885 153.543L393.885 153.426V143.048L393.885 142.931C393.885 141.587 393.885 140.407 394.02 139.492C394.164 138.522 394.512 137.458 395.543 136.786C396.573 136.114 397.687 136.224 398.633 136.484C399.525 136.729 400.605 137.205 401.835 137.747L401.942 137.794L413.718 142.983L413.836 143.034C415.597 143.81 417.076 144.462 418.102 145.102C419.115 145.733 420.235 146.686 420.235 148.237Z" fill="#7ECBBF" stroke="black" stroke-width="3.13187"/>
<path d="M388.205 247.011C388.205 248.562 389.326 249.515 390.338 250.146C391.364 250.786 392.844 251.438 394.605 252.214C394.644 252.231 394.683 252.248 394.722 252.265L406.499 257.454L406.606 257.501C407.835 258.043 408.916 258.519 409.808 258.764C410.753 259.024 411.867 259.134 412.898 258.462C413.928 257.79 414.277 256.726 414.42 255.756C414.556 254.841 414.556 253.661 414.556 252.317L414.556 252.2V241.822L414.556 241.705C414.556 240.361 414.556 239.181 414.42 238.266C414.277 237.296 413.928 236.232 412.898 235.56C411.867 234.888 410.753 234.998 409.808 235.258C408.916 235.503 407.835 235.979 406.606 236.521L406.499 236.568L394.722 241.757L394.605 241.809C392.844 242.584 391.364 243.236 390.338 243.876C389.326 244.507 388.205 245.46 388.205 247.011Z" fill="#8FD7F7" stroke="black" stroke-width="3.13187"/>
<path d="M288.229 361.478C288.229 363.03 287.108 363.982 286.096 364.613C285.07 365.253 283.59 365.905 281.829 366.681C281.79 366.698 281.751 366.715 281.712 366.733L269.935 371.922L269.828 371.969C268.599 372.511 267.518 372.987 266.627 373.232C265.681 373.491 264.567 373.601 263.536 372.929C262.506 372.257 262.157 371.193 262.014 370.223C261.878 369.308 261.878 368.128 261.878 366.784L261.878 366.667V356.289L261.878 356.173C261.878 354.829 261.878 353.648 262.014 352.733C262.157 351.763 262.506 350.7 263.536 350.027C264.567 349.355 265.681 349.466 266.627 349.725C267.518 349.97 268.599 350.446 269.828 350.988L269.935 351.035L281.712 356.224L281.829 356.276C283.59 357.051 285.07 357.703 286.096 358.343C287.108 358.975 288.229 359.927 288.229 361.478Z" fill="#7ECBBF" stroke="black" stroke-width="3.13187"/>
<path d="M263.584 38.3853C263.584 39.9367 264.705 40.8891 265.717 41.5204C266.744 42.1603 268.223 42.8122 269.984 43.5879C270.023 43.6051 270.062 43.6223 270.102 43.6396L281.878 48.8285L281.985 48.8756C283.215 49.4176 284.295 49.8937 285.187 50.1385C286.132 50.3981 287.246 50.5084 288.277 49.8363C289.308 49.1641 289.656 48.1002 289.8 47.1303C289.935 46.2154 289.935 45.0349 289.935 43.691L289.935 43.5742V33.1964L289.935 33.0796C289.935 31.7357 289.935 30.5551 289.8 29.6402C289.656 28.6704 289.308 27.6065 288.277 26.9343C287.246 26.2621 286.132 26.3725 285.187 26.632C284.295 26.8769 283.215 27.353 281.985 27.8949L281.878 27.9421L270.102 33.1309L269.984 33.1827C268.223 33.9584 266.744 34.6103 265.717 35.2501C264.705 35.8815 263.584 36.8339 263.584 38.3853Z" fill="#F4BD4D" stroke="black" stroke-width="3.13187"/>
</svg>
