<svg width="700" height="400" viewBox="0 0 700 400" fill="none" xmlns="http://www.w3.org/2000/svg">
<rect y="6.10352e-05" width="700" height="400" rx="20" fill="#E2F3F1"/>
<mask id="mask0_920_3771" style="mask-type:alpha" maskUnits="userSpaceOnUse" x="0" y="0" width="700" height="400">
<rect y="6.10352e-05" width="700" height="400" rx="20" fill="#E2F3F1"/>
</mask>
<g mask="url(#mask0_920_3771)">
<path d="M125.607 0.169373L125.607 118.3M113.708 128.073C113.673 121.92 118.633 116.903 124.786 116.868C130.94 116.833 135.956 121.793 135.991 127.946C136.027 134.1 131.067 139.116 124.913 139.151C118.76 139.186 113.743 134.226 113.708 128.073Z" stroke="#8ECDC7" stroke-width="3"/>
<path d="M563.653 408L563.653 166.852M575.553 157.078C575.588 163.232 570.628 168.248 564.474 168.284C558.321 168.319 553.304 163.359 553.269 157.205C553.234 151.052 558.194 146.035 564.347 146C570.501 145.965 575.518 150.925 575.553 157.078Z" stroke="#8ECDC7" stroke-width="3"/>
<path d="M609.384 417L609.384 231.852M621.283 222.078C621.318 228.232 616.358 233.248 610.205 233.284C604.051 233.319 599.035 228.359 599 222.205C598.965 216.052 603.925 211.035 610.078 211C616.231 210.965 621.248 215.925 621.283 222.078Z" stroke="#8ECDC7" stroke-width="3"/>
<path d="M79.2529 0.169373L79.2528 228.954M67.3537 238.727C67.3187 232.574 72.2786 227.557 78.4319 227.522C84.5853 227.487 89.602 232.447 89.637 238.6C89.672 244.753 84.7121 249.77 78.5588 249.805C72.4054 249.84 67.3887 244.88 67.3537 238.727Z" stroke="#8ECDC7" stroke-width="3"/>
<path d="M-151 188.404H110.681M109.25 189.205C109.215 183.052 114.174 178.035 120.328 178C126.481 177.965 131.498 182.925 131.533 189.078C131.568 195.232 126.608 200.248 120.455 200.283C114.301 200.318 109.285 195.359 109.25 189.205Z" stroke="#8ECDC7" stroke-width="3"/>
<path d="M870.187 366.88L550.852 366.88M552.284 366.078C552.319 372.232 547.359 377.248 541.206 377.283C535.052 377.318 530.036 372.359 530.001 366.205C529.965 360.052 534.925 355.035 541.079 355C547.232 354.965 552.249 359.925 552.284 366.078Z" stroke="#8ECDC7" stroke-width="3"/>
<path d="M1080.14 333.88L665.852 333.88M667.284 333.078C667.319 339.232 662.359 344.248 656.206 344.283C650.052 344.318 645.036 339.359 645.001 333.205C644.966 327.052 649.926 322.035 656.079 322C662.232 321.965 667.249 326.925 667.284 333.078Z" stroke="#8ECDC7" stroke-width="3"/>
<path d="M452.42 123.945H260.017V316.348H452.42V123.945Z" fill="#334142"/>
<path d="M453.882 317.84H258.525V122.453H453.882V317.84ZM261.478 314.857H450.899V125.436H261.508V314.857H261.478Z" fill="black"/>
<path d="M318.176 144.107H280.148V182.134H318.176V144.107Z" fill="#5D7A7F"/>
<path d="M356.203 144.107H318.176V182.134H356.203V144.107Z" fill="white"/>
<path d="M394.231 144.107H356.203V182.134H394.231V144.107Z" fill="#5D7A7F"/>
<path d="M432.258 144.107H394.23V182.134H432.258V144.107Z" fill="white"/>
<path d="M318.176 182.134H280.148V220.161H318.176V182.134Z" fill="white"/>
<path d="M356.203 182.134H318.176V220.161H356.203V182.134Z" fill="#5D7A7F"/>
<path d="M394.231 182.134H356.203V220.161H394.231V182.134Z" fill="white"/>
<path d="M432.258 182.134H394.23V220.161H432.258V182.134Z" fill="#5D7A7F"/>
<path d="M318.176 220.161H280.148V258.189H318.176V220.161Z" fill="#5D7A7F"/>
<path d="M356.203 220.161H318.176V258.189H356.203V220.161Z" fill="white"/>
<path d="M394.231 220.161H356.203V258.189H394.231V220.161Z" fill="#5D7A7F"/>
<path d="M432.258 220.161H394.23V258.189H432.258V220.161Z" fill="white"/>
<path d="M318.176 258.189H280.148V296.216H318.176V258.189Z" fill="white"/>
<path d="M356.203 258.189H318.176V296.216H356.203V258.189Z" fill="#5D7A7F"/>
<path d="M394.231 258.189H356.203V296.216H394.231V258.189Z" fill="white"/>
<path d="M432.258 258.189H394.23V296.216H432.258V258.189Z" fill="#5D7A7F"/>
<path d="M319.667 183.595H278.657V142.586H319.667V183.595ZM281.64 180.613H316.685V145.568H281.64V180.613Z" fill="black"/>
<path d="M357.694 183.595H316.685V142.586H357.694V183.595ZM319.667 180.613H354.712V145.568H319.667V180.613Z" fill="black"/>
<path d="M395.722 183.595H354.712V142.586H395.722V183.595ZM357.694 180.613H392.739V145.568H357.694V180.613Z" fill="black"/>
<path d="M433.749 183.595H392.739V142.586H433.749V183.595ZM395.722 180.613H430.767V145.568H395.722V180.613Z" fill="black"/>
<path d="M319.667 221.623H278.657V180.613H319.667V221.623ZM281.64 218.64H316.685V183.596H281.64V218.64Z" fill="black"/>
<path d="M357.694 221.623H316.685V180.613H357.694V221.623ZM319.667 218.64H354.712V183.596H319.667V218.64Z" fill="black"/>
<path d="M395.722 221.623H354.712V180.613H395.722V221.623ZM357.694 218.64H392.739V183.596H357.694V218.64Z" fill="black"/>
<path d="M433.749 221.623H392.739V180.613H433.749V221.623ZM395.722 218.64H430.767V183.596H395.722V218.64Z" fill="black"/>
<path d="M319.667 259.65H278.657V218.64H319.667V259.65ZM281.64 256.668H316.685V221.623H281.64V256.668Z" fill="black"/>
<path d="M357.694 259.65H316.685V218.64H357.694V259.65ZM319.667 256.668H354.712V221.623H319.667V256.668Z" fill="black"/>
<path d="M395.722 259.65H354.712V218.64H395.722V259.65ZM357.694 256.668H392.739V221.623H357.694V256.668Z" fill="black"/>
<path d="M433.749 259.65H392.739V218.64H433.749V259.65ZM395.722 256.668H430.767V221.623H395.722V256.668Z" fill="black"/>
<path d="M319.667 297.707H278.657V256.698H319.667V297.707ZM281.64 294.725H316.685V259.68H281.64V294.725Z" fill="black"/>
<path d="M357.694 297.707H316.685V256.698H357.694V297.707ZM319.667 294.725H354.712V259.68H319.667V294.725Z" fill="black"/>
<path d="M395.722 297.707H354.712V256.698H395.722V297.707ZM357.694 294.725H392.739V259.68H357.694V294.725Z" fill="black"/>
<path d="M433.749 297.707H392.739V256.698H433.749V297.707ZM395.722 294.725H430.767V259.68H395.722V294.725Z" fill="black"/>
<path d="M385.882 277.187C385.882 283.063 381.11 287.835 375.235 287.835C369.359 287.835 364.587 283.063 364.587 277.187C364.587 271.312 369.359 266.54 375.235 266.54C381.11 266.54 385.882 271.312 385.882 277.187Z" fill="#334142"/>
<path d="M375.235 289.326C368.524 289.326 363.096 283.868 363.096 277.187C363.096 270.506 368.554 265.048 375.235 265.048C381.916 265.048 387.374 270.506 387.374 277.187C387.374 283.868 381.916 289.326 375.235 289.326ZM375.235 268.031C370.194 268.031 366.078 272.147 366.078 277.187C366.078 282.228 370.194 286.344 375.235 286.344C380.275 286.344 384.391 282.228 384.391 277.187C384.391 272.147 380.275 268.031 375.235 268.031Z" fill="black"/>
<path d="M347.855 277.187C347.855 283.063 343.083 287.835 337.207 287.835C331.332 287.835 326.56 283.063 326.56 277.187C326.56 271.312 331.332 266.54 337.207 266.54C343.083 266.54 347.855 271.312 347.855 277.187Z" fill="#334142"/>
<path d="M337.207 289.326C330.497 289.326 325.068 283.868 325.068 277.187C325.068 270.506 330.526 265.048 337.207 265.048C343.888 265.048 349.346 270.506 349.346 277.187C349.346 283.868 343.888 289.326 337.207 289.326ZM337.207 268.031C332.167 268.031 328.051 272.147 328.051 277.187C328.051 282.228 332.167 286.344 337.207 286.344C342.248 286.344 346.364 282.228 346.364 277.187C346.364 272.147 342.248 268.031 337.207 268.031Z" fill="black"/>
<path d="M309.827 277.187C309.827 283.063 305.055 287.835 299.179 287.835C293.303 287.835 288.531 283.063 288.531 277.187C288.531 271.312 293.303 266.54 299.179 266.54C305.055 266.54 309.827 271.312 309.827 277.187Z" fill="#334142"/>
<path d="M299.179 289.326C292.468 289.326 287.04 283.868 287.04 277.187C287.04 270.506 292.498 265.048 299.179 265.048C305.86 265.048 311.318 270.506 311.318 277.187C311.318 283.868 305.86 289.326 299.179 289.326ZM299.179 268.031C294.138 268.031 290.023 272.147 290.023 277.187C290.023 282.228 294.138 286.344 299.179 286.344C304.219 286.344 308.335 282.228 308.335 277.187C308.335 272.147 304.219 268.031 299.179 268.031Z" fill="black"/>
<path d="M347.855 163.105C347.855 168.98 343.083 173.753 337.207 173.753C331.332 173.753 326.56 168.98 326.56 163.105C326.56 157.229 331.332 152.457 337.207 152.457C343.083 152.457 347.855 157.229 347.855 163.105Z" fill="#D0F1FF"/>
<path d="M337.207 175.244C330.497 175.244 325.068 169.786 325.068 163.105C325.068 156.424 330.526 150.966 337.207 150.966C343.888 150.966 349.346 156.424 349.346 163.105C349.346 169.786 343.888 175.244 337.207 175.244ZM337.207 153.948C332.167 153.948 328.051 158.064 328.051 163.105C328.051 168.145 332.167 172.261 337.207 172.261C342.248 172.261 346.364 168.145 346.364 163.105C346.364 158.064 342.248 153.948 337.207 153.948Z" fill="black"/>
<path d="M385.882 163.105C385.882 168.98 381.11 173.753 375.235 173.753C369.359 173.753 364.587 168.98 364.587 163.105C364.587 157.229 369.359 152.457 375.235 152.457C381.11 152.457 385.882 157.229 385.882 163.105Z" fill="#D0F1FF"/>
<path d="M375.235 175.244C368.524 175.244 363.096 169.786 363.096 163.105C363.096 156.424 368.554 150.966 375.235 150.966C381.916 150.966 387.374 156.424 387.374 163.105C387.374 169.786 381.916 175.244 375.235 175.244ZM375.235 153.948C370.194 153.948 366.078 158.064 366.078 163.105C366.078 168.145 370.194 172.261 375.235 172.261C380.275 172.261 384.391 168.145 384.391 163.105C384.391 158.064 380.275 153.948 375.235 153.948Z" fill="black"/>
<path d="M423.91 163.105C423.91 168.98 419.138 173.753 413.262 173.753C407.386 173.753 402.614 168.98 402.614 163.105C402.614 157.229 407.386 152.457 413.262 152.457C419.138 152.457 423.91 157.229 423.91 163.105Z" fill="#D0F1FF"/>
<path d="M413.262 175.244C406.551 175.244 401.123 169.786 401.123 163.105C401.123 156.424 406.581 150.966 413.262 150.966C419.943 150.966 425.401 156.424 425.401 163.105C425.401 169.786 419.943 175.244 413.262 175.244ZM413.262 153.948C408.221 153.948 404.106 158.064 404.106 163.105C404.106 168.145 408.221 172.261 413.262 172.261C418.302 172.261 422.418 168.145 422.418 163.105C422.418 158.064 418.302 153.948 413.262 153.948Z" fill="black"/>
<path d="M297.717 183.625C292.438 183.625 287.458 181.627 283.64 178.018H255.306C228.135 178.018 206.034 155.917 206.034 128.746V127.255H235.86V128.746C235.86 139.453 244.569 148.192 255.306 148.192H283.64C287.458 144.583 292.438 142.585 297.717 142.585H315.046V144.076C315.046 149.505 310.632 153.919 305.204 153.919H297.717C294.944 153.919 292.379 155.142 290.619 157.289C288.859 159.436 288.173 162.27 288.74 165.014C289.575 169.13 293.333 172.142 297.747 172.261H298.97H301.804C305.412 172.261 308.335 169.338 308.335 165.73C308.335 160.301 312.749 155.887 318.178 155.887H319.669V165.431C319.669 175.453 311.527 183.595 301.505 183.595H298.97H297.717V183.625Z" fill="#E59880"/>
<path d="M234.368 128.746C234.368 140.318 243.734 149.684 255.306 149.684H284.266C287.726 146.224 292.468 144.076 297.747 144.076H299H313.585C313.585 148.699 309.856 152.427 305.234 152.427H299H297.747C291.126 152.427 285.907 158.482 287.308 165.342C288.323 170.323 292.975 173.782 298.046 173.782H298.97H301.804C306.218 173.782 309.827 170.203 309.827 165.759C309.827 161.315 313.555 157.408 318.178 157.408V165.461C318.178 174.677 310.721 182.134 301.505 182.134H298.97H297.718C292.468 182.134 287.696 179.986 284.236 176.526H255.276C228.94 176.526 207.526 155.142 207.526 128.746H234.368ZM237.351 125.764H204.543V128.746C204.543 156.722 227.3 179.509 255.306 179.509H283.073C287.129 183.148 292.259 185.116 297.718 185.116H301.953C312.571 184.848 321.16 176.139 321.16 165.461V154.426H318.178C311.914 154.426 306.844 159.526 306.844 165.759C306.844 168.533 304.577 170.8 301.804 170.8H297.419C293.87 170.531 290.887 168.086 290.202 164.775C289.724 162.419 290.261 160.093 291.752 158.273C293.184 156.514 295.272 155.499 297.509 155.44H298.94H305.174C311.437 155.44 316.507 150.34 316.507 144.106V141.124H295.958V141.183C291.156 141.571 286.652 143.48 283.043 146.731H255.276C245.374 146.731 237.321 138.678 237.321 128.776V125.793L237.351 125.764Z" fill="black"/>
<path d="M194 129H246L246 -28.9998H194L194 129Z" fill="#00B8AC"/>
<path d="M247.938 129.625H193V110H247.938V129.625ZM195.983 126.643H244.956V112.983H195.983V126.643Z" fill="black"/>
<path d="M247.938 112.625H193V-8.99979H220.469H247.938V112.625ZM195.983 109.643H244.956L244.956 -6.01725H220.469H195.983L195.983 109.643Z" fill="black"/>
<path d="M394.559 260.008C394.052 260.008 393.545 259.74 393.277 259.262C392.859 258.547 393.098 257.652 393.814 257.204L409.502 247.929C410.188 247.511 411.112 247.75 411.53 248.466C411.947 249.181 411.709 250.076 410.993 250.524L395.305 259.799C395.066 259.948 394.798 260.008 394.559 260.008Z" fill="black"/>
<path d="M394.558 260.008C394.32 260.008 394.051 259.948 393.813 259.829L377.468 250.553C376.752 250.136 376.514 249.241 376.902 248.525C377.319 247.809 378.214 247.571 378.93 247.959L395.274 257.234C395.99 257.652 396.228 258.547 395.841 259.262C395.572 259.74 395.065 260.008 394.558 260.008Z" fill="black"/>
<path d="M379.705 243.097H376.723V249.241H379.705V243.097Z" fill="black"/>
<path d="M476.519 252.671H473.536V287.149H476.519V252.671Z" fill="black"/>
<path d="M488.898 250.851H485.915V287.149H488.898V250.851Z" fill="black"/>
<path d="M465.455 243.723H421.403V246.706H465.455V243.723Z" fill="black"/>
<path d="M465.067 231.346H420.09V234.328H465.067V231.346Z" fill="black"/>
<path d="M500.111 239.041C500.111 249.479 491.64 257.92 481.231 257.92C470.822 257.92 462.352 249.45 462.352 239.041C462.352 228.632 470.822 220.161 481.231 220.161C491.64 220.161 500.111 228.632 500.111 239.041Z" fill="#24BFFF"/>
<path d="M481.231 259.411C469.987 259.411 460.86 250.255 460.86 239.041C460.86 227.826 470.017 218.67 481.231 218.67C492.445 218.67 501.602 227.826 501.602 239.041C501.602 250.255 492.445 259.411 481.231 259.411ZM481.231 221.623C471.627 221.623 463.843 229.437 463.843 239.011C463.843 248.585 471.657 256.399 481.231 256.399C490.805 256.399 498.619 248.585 498.619 239.011C498.619 229.437 490.805 221.623 481.231 221.623Z" fill="black"/>
<path d="M490.657 239.041C490.657 244.26 486.422 248.495 481.203 248.495C475.983 248.495 471.748 244.26 471.748 239.041C471.748 233.821 475.983 229.586 481.203 229.586C486.422 229.586 490.657 233.821 490.657 239.041Z" fill="white"/>
<path d="M481.231 282.049C471.031 282.049 462.739 290.31 462.739 300.54V880.972H499.723V300.511C499.723 290.31 491.461 282.019 481.231 282.019V282.049Z" fill="#8ADDFF"/>
<path d="M501.185 882.434H461.219V300.511C461.219 289.505 470.166 280.528 481.202 280.528C492.237 280.528 501.185 289.505 501.185 300.511V882.434ZM464.201 879.451H498.202V300.511C498.202 291.145 490.567 283.51 481.202 283.51C471.837 283.51 464.201 291.145 464.201 300.511V879.451Z" fill="black"/>
<path d="M505.9 332.842H456.509V880.943H505.9V332.842Z" fill="#D0F1FF"/>
<path d="M507.42 882.434H455.047V331.35H507.42V882.464V882.434ZM458.029 879.451H504.438V334.333H458.029V879.481V879.451Z" fill="black"/>
<path d="M426.98 239.16C426.98 245.692 421.671 251.001 415.14 251.001C408.608 251.001 403.299 245.692 403.299 239.16C403.299 232.628 408.608 227.319 415.14 227.319C421.671 227.319 426.98 232.628 426.98 239.16Z" fill="#24BFFF"/>
<path d="M415.14 252.492C407.773 252.492 401.808 246.497 401.808 239.16C401.808 231.823 407.803 225.828 415.14 225.828C422.477 225.828 428.472 231.823 428.472 239.16C428.472 246.497 422.477 252.492 415.14 252.492ZM415.14 228.781C409.443 228.781 404.79 233.433 404.79 239.13C404.79 244.827 409.443 249.479 415.14 249.479C420.836 249.479 425.489 244.827 425.489 239.13C425.489 233.433 420.836 228.781 415.14 228.781Z" fill="black"/>
<path d="M420.865 239.16C420.865 242.322 418.3 244.886 415.139 244.886C411.977 244.886 409.412 242.322 409.412 239.16C409.412 235.999 411.977 233.434 415.139 233.434C418.3 233.434 420.865 235.999 420.865 239.16Z" fill="white"/>
<path d="M409.412 230.272C409.174 230.272 408.905 230.212 408.667 230.063L393.814 221.563C393.098 221.145 392.859 220.251 393.277 219.535C393.694 218.819 394.589 218.58 395.305 218.968L410.158 227.468C410.874 227.886 411.112 228.781 410.695 229.496C410.426 229.974 409.919 230.242 409.412 230.242V230.272Z" fill="black"/>
<path d="M378.215 231.047C377.708 231.047 377.201 230.779 376.932 230.302C376.515 229.586 376.783 228.661 377.499 228.274L393.843 218.998C394.559 218.58 395.484 218.849 395.871 219.565C396.289 220.28 396.021 221.205 395.305 221.593L378.96 230.869C378.722 230.988 378.483 231.077 378.215 231.077V231.047Z" fill="black"/>
<path d="M379.705 229.556H376.723V235.7H379.705V229.556Z" fill="black"/>
<path d="M379.023 229.228C377.83 228.781 376.547 228.482 375.205 228.482C374.191 228.482 373.237 228.661 372.312 228.93C367.838 230.212 364.558 234.268 364.558 239.13C364.558 243.992 367.838 248.078 372.312 249.33C373.237 249.599 374.191 249.778 375.205 249.778C376.547 249.778 377.83 249.509 379.023 249.032C383.02 247.481 385.853 243.634 385.853 239.1C385.853 234.567 383.02 230.719 379.023 229.168V229.228Z" fill="#334142"/>
<path d="M375.235 251.299C374.191 251.299 373.147 251.15 371.924 250.792C366.705 249.301 363.096 244.528 363.096 239.16C363.096 233.791 366.734 228.989 371.924 227.528C374.847 226.693 377.114 226.902 379.589 227.856C384.331 229.675 387.374 234.119 387.374 239.16C387.374 244.2 384.302 248.644 379.589 250.464C378.158 251.03 376.696 251.299 375.235 251.299ZM375.235 230.004C374.489 230.004 373.684 230.123 372.759 230.391C368.822 231.495 366.078 235.104 366.078 239.16C366.078 243.216 368.822 246.825 372.759 247.929C375.026 248.585 376.666 248.406 378.515 247.69C382.094 246.318 384.391 242.978 384.391 239.16C384.391 235.342 382.094 232.002 378.515 230.63C377.412 230.212 376.308 230.004 375.235 230.004Z" fill="black"/>
<path d="M309.827 163.105C309.827 168.98 305.055 173.753 299.179 173.753C293.303 173.753 288.531 168.98 288.531 163.105C288.531 157.229 293.303 152.457 299.179 152.457C305.055 152.457 309.827 157.229 309.827 163.105Z" fill="#D0F1FF"/>
<path d="M299.179 175.244C292.468 175.244 287.04 169.786 287.04 163.105C287.04 156.424 292.498 150.966 299.179 150.966C305.86 150.966 311.318 156.424 311.318 163.105C311.318 169.786 305.86 175.244 299.179 175.244ZM299.179 153.948C294.138 153.948 290.023 158.064 290.023 163.105C290.023 168.145 294.138 172.261 299.179 172.261C304.219 172.261 308.335 168.145 308.335 163.105C308.335 158.064 304.219 153.948 299.179 153.948Z" fill="black"/>
</g>
</svg>
