<?xml version="1.0" encoding="UTF-8"?>
<svg xmlns="http://www.w3.org/2000/svg" xmlns:xlink="http://www.w3.org/1999/xlink" viewBox="0 0 700 400">
  <defs>
    <style>
      .cls-1 {
        clip-path: url(#clippath);
      }

      .cls-2, .cls-3 {
        fill: none;
      }

      .cls-2, .cls-3, .cls-4, .cls-5, .cls-6, .cls-7, .cls-8, .cls-9, .cls-10, .cls-11, .cls-12, .cls-13, .cls-14, .cls-15, .cls-16, .cls-17, .cls-18, .cls-19 {
        stroke-width: 0px;
      }

      .cls-20 {
        clip-path: url(#clippath-1);
      }

      .cls-21 {
        clip-path: url(#clippath-4);
      }

      .cls-22 {
        clip-path: url(#clippath-3);
      }

      .cls-23 {
        clip-path: url(#clippath-2);
      }

      .cls-24 {
        clip-path: url(#clippath-7);
      }

      .cls-25 {
        clip-path: url(#clippath-8);
      }

      .cls-26 {
        clip-path: url(#clippath-6);
      }

      .cls-27 {
        clip-path: url(#clippath-5);
      }

      .cls-28 {
        opacity: .39;
      }

      .cls-28, .cls-29 {
        mix-blend-mode: multiply;
      }

      .cls-28, .cls-29, .cls-30 {
        isolation: isolate;
      }

      .cls-29 {
        opacity: .46;
      }

      .cls-3 {
        clip-rule: evenodd;
      }

      .cls-4 {
        fill: #ffa7a7;
        fill-rule: evenodd;
      }

      .cls-6 {
        fill: #724d33;
      }

      .cls-7 {
        fill: #84418f;
      }

      .cls-8 {
        fill: #355a60;
      }

      .cls-9 {
        fill: #0e2728;
      }

      .cls-10 {
        fill: #157177;
      }

      .cls-11 {
        fill: #7ecbbf;
      }

      .cls-12 {
        fill: #7e518e;
      }

      .cls-13 {
        fill: #804093;
      }

      .cls-14 {
        fill: #f2c6ac;
      }

      .cls-15 {
        fill: #ffc2af;
      }

      .cls-16 {
        fill: #fbfdfa;
      }

      .cls-17 {
        fill: #ffd5c6;
      }

      .cls-18 {
        fill: #f1d0de;
      }

      .cls-19 {
        fill: #008981;
      }
    </style>
    <clipPath id="clippath">
      <rect class="cls-2" width="700" height="400"/>
    </clipPath>
    <clipPath id="clippath-1">
      <rect class="cls-2" width="700" height="400"/>
    </clipPath>
    <clipPath id="clippath-2">
      <path class="cls-3" d="M365.28,149.45s0,.01-.01.02c-.82,5.47-1.13,10.94-1.16,15.91-.08,11.73-2.7,17.69-2.53,23.84.91,31.16,27.52,40.07,42.93,40.23,43.97.45,55.22-43.79,57.6-71.83.39-4.55-1.79-8.9-5.59-11.42-29.74-19.67-70.54-36.88-91.23,3.25,0,0,0,0,0,0Z"/>
    </clipPath>
    <clipPath id="clippath-3">
      <path class="cls-3" d="M300.12,314.54s0,0,0,0c34.95,25.36,54.44-4.41,54.11-.64-1.92,21.63,8.52,34.83,10.97,63.61.11,1.32,43.09,15.12,93.67,1.36,4.36-1.19,11.33-8.32,15.83-8.71,4.22-.37,9.35-1.78,14.88-5.39,14.22-9.28,18.63-24.55,9.35-57.77-6.95-24.89-25.97-62.64-57.61-64.94-1.6-.12-3.33-.54-4.74.21-5.89,3.14-15.64,21.43-35.7,21.42-16.8-.01-16.83-22.79-17.45-22.75-18.12,1.11-46.48,36.34-67.14,20.33-8.17-6.33-30.05-32.11-38.52-40.73-1.62-1.65-16.86,8.69-22.85,18.86-1.38,2.34,20.39,57.14,45.19,75.14,0,0,0,0,0,0Z"/>
    </clipPath>
    <clipPath id="clippath-4">
      <path class="cls-3" d="M452.41,182.39c2.5-4.84,7.83-7.91,12.73-5.51,5.57,2.72,10.9,8.29,5.62,19.51-6.02,12.77-14.05,13.86-20.18,12.15-5.9-1.65-7.13-8.78-4.32-14.23l6.14-11.91Z"/>
    </clipPath>
    <clipPath id="clippath-5">
      <path class="cls-3" d="M460.89,176.96c12.76-.91,5.42-41.17-3.07-48.79-9.55-8.59-25.56-10.93-37.41-15.56-21.33-8.34-48.62-4.85-60.39,17.6-7.06,13.48-6.71,30.06-4.65,44.8.04.3.45.44.68.29,7.89-5.08,12.57-16.3,15.52-24.73,3.88-11.08,5.15-16.92,16.03-20.49.08-.03.14.03.2.05,22.86,8.28,46.4,48.74,73.07,46.84h.01Z"/>
    </clipPath>
    <clipPath id="clippath-6">
      <path class="cls-3" d="M448.28,284.23h-68.32c-2.06,0-3.73,1.73-3.73,3.86v94.44c0,2.13,1.67,3.86,3.73,3.86h68.32c2.06,0,3.73-1.73,3.73-3.86v-94.44c0-2.13-1.67-3.86-3.73-3.86Z"/>
    </clipPath>
    <clipPath id="clippath-7">
      <rect class="cls-2" width="700" height="400"/>
    </clipPath>
    <clipPath id="clippath-8">
      <path class="cls-3" d="M443.69,289.08c-.02-1.21.96-2.21,2.18-2.21,1.86,0,3.37,1.49,3.37,3.34v91.14c0,1.85-1.51,3.34-3.37,3.34-1.78-.05-3.19-1.52-3.16-3.31.56-30.78,1.4-61.56.98-92.31Z"/>
    </clipPath>
  </defs>
  <g class="cls-30">
    <g id="Layer_1" data-name="Layer 1">
      <g class="cls-1">
        <ellipse class="cls-18" cx="349.71" cy="217.44" rx="121.33" ry="190.6" transform="translate(19.79 463.88) rotate(-68.63)"/>
        <path class="cls-19" d="M243.59,155.52l14.42.74.21-3.39-14.42-.74-.21,3.39ZM243.88,152.13l-16.48-1.64-.37,3.38,16.48,1.64.37-3.38ZM251.16,96.65l-9.11,56.92,3.29.5,9.11-56.92-3.29-.5ZM231.59,107.52c3.94.84,8.22.96,12.24-.46,4.07-1.43,7.73-4.36,10.44-9.36l-2.91-1.61c-2.33,4.28-5.34,6.63-8.58,7.76-3.28,1.15-6.91,1.1-10.46.34l-.73,3.32ZM258.02,156.25c.92.05,1.71-.67,1.77-1.61.06-.94-.64-1.73-1.56-1.78l-.21,3.39ZM227.41,150.5c-.92-.09-1.74.59-1.84,1.53-.1.93.56,1.76,1.47,1.85l.37-3.38ZM243.7,153.82l-.18,1.69s.05,0,.08,0l.11-1.7ZM252.81,96.9l1.65.25c.13-.82-.33-1.6-1.1-1.86-.77-.26-1.61.08-2.01.8l1.46.81ZM232.31,104.2c-.9-.19-1.79.4-1.99,1.31-.2.92.37,1.82,1.26,2.01l.73-3.32Z"/>
        <path class="cls-19" d="M244.84,249l26.89-31.38-2.56-2.19-26.89,31.38,2.56,2.19ZM207.56,217.26c4.86-3.46,10.63-6.86,16.25-9.09,5.68-2.26,10.94-3.22,14.91-2.19,1.94.5,3.58,1.48,4.86,3.05,1.3,1.59,2.31,3.87,2.82,7.1,1.03,6.51-.03,16.52-4.45,31.29l3.22.97c4.47-14.92,5.7-25.52,4.55-32.78-.58-3.66-1.77-6.54-3.54-8.7-1.78-2.18-4.06-3.51-6.62-4.18-5.03-1.31-11.12-.02-17,2.32-5.94,2.36-11.95,5.91-16.96,9.48l1.95,2.74ZM243.56,247.9l-1.61-.48,2.89,1.58-1.28-1.1Z"/>
        <path class="cls-19" d="M280.55,196.19c3.79-.96,7.98-1.59,11.61-1.47,3.72.12,6.4,1.01,7.74,2.6,1.22,1.45,1.77,4.09-.29,8.99-2.06,4.89-6.56,11.58-14.63,20.59l2.51,2.25c8.16-9.1,12.95-16.13,15.23-21.53,2.26-5.38,2.19-9.58-.23-12.46-2.3-2.74-6.26-3.67-10.21-3.8-4.04-.13-8.56.57-12.54,1.57l.83,3.26ZM256.98,173.89c4.07-1.87,8.81-3.65,13.3-4.71,4.55-1.08,8.59-1.36,11.38-.49,1.36.42,2.34,1.08,3,1.98.66.91,1.11,2.21,1.1,4.13-.02,3.91-1.96,9.97-7.09,18.93l2.92,1.67c5.2-9.07,7.51-15.76,7.54-20.58.01-2.45-.56-4.51-1.74-6.13-1.18-1.62-2.85-2.64-4.73-3.22-3.68-1.13-8.45-.68-13.15.44-4.76,1.13-9.72,2.99-13.94,4.93l1.41,3.06ZM280.14,194.56l-1.46-.84-1.97,3.44,3.84-.97-.41-1.63Z"/>
        <path class="cls-5" d="M295.48,143.55l3.39,18.67,3.31-.6-3.39-18.67-3.31.6ZM298.81,143.06l-2.63-22.7-3.34.39,2.63,22.7,3.34-.39ZM296.89,141.59l-18.81,2.75.49,3.33,18.81-2.75-.49-3.33ZM315.71,138.83l-18.81,2.75.49,3.33,18.81-2.75-.49-3.33ZM298.87,162.22c.17.91,1.04,1.52,1.96,1.36.91-.17,1.52-1.04,1.36-1.96l-3.31.6ZM296.17,120.35c-.11-.92-.94-1.59-1.87-1.48s-1.59.94-1.48,1.87l3.34-.39ZM278.08,144.34c-.92.13-1.56.99-1.42,1.91.13.92.99,1.56,1.91,1.42l-.49-3.33ZM316.19,142.16c.92-.13,1.56-.99,1.42-1.91-.13-.92-.99-1.56-1.91-1.42l.49,3.33Z"/>
        <path class="cls-5" d="M184.82,145.14l33.88,16.38,1.46-3.03-33.88-16.38-1.46,3.03ZM218.7,161.52c.84.4,1.84.05,2.25-.78.4-.84.05-1.84-.78-2.25l-1.46,3.03ZM186.28,142.11c-.84-.4-1.84-.05-2.25.78s-.05,1.84.78,2.25l1.46-3.03Z"/>
        <ellipse class="cls-5" cx="209.86" cy="134.34" rx="4.36" ry="4.21" transform="translate(-31.44 196.49) rotate(-47.07)"/>
        <ellipse class="cls-5" cx="209.86" cy="134.34" rx="4.36" ry="4.21" transform="translate(-31.44 196.49) rotate(-47.07)"/>
        <ellipse class="cls-5" cx="209.86" cy="134.34" rx="4.36" ry="4.21" transform="translate(-31.44 196.49) rotate(-47.07)"/>
        <ellipse class="cls-5" cx="193.91" cy="163.84" rx="4.36" ry="4.21" transform="translate(-58.13 194.21) rotate(-47.07)"/>
        <ellipse class="cls-5" cx="193.91" cy="163.84" rx="4.36" ry="4.21" transform="translate(-58.13 194.21) rotate(-47.07)"/>
        <ellipse class="cls-5" cx="193.91" cy="163.84" rx="4.36" ry="4.21" transform="translate(-58.13 194.21) rotate(-47.07)"/>
        <path class="cls-5" d="M232.56,210.14c-.05.2-.15.43-.34.64l-3.01-2.69c-.3.33-.48.72-.57,1.08l3.92.97ZM270.19,243.23c1.81.14,3.32-.68,4.4-1.43.56-.38,1.09-.81,1.55-1.18.48-.39.88-.7,1.26-.97l-2.28-3.33c-.53.36-1.05.78-1.5,1.14-.48.38-.9.72-1.31,1-.87.6-1.4.76-1.79.73l-.32,4.03ZM243.1,200.02c.48-.09,1.03.02,1.45.41l-2.71,3c.58.53,1.35.7,2.03.56l-.78-3.96ZM268.23,240c.37.34.44.76.44.98,0,.2-.06.3-.07.33-.02.03-.06.1-.18.18-.12.08-.42.24-.85.17l.61-3.99c-.84-.13-1.54.16-2.02.48-.47.32-.83.75-1.08,1.18-.24.43-.44.98-.45,1.59-.01.64.19,1.43.85,2.05l2.75-2.96ZM239.46,189.83c.16.24.32.66.43,1.42.1.75.12,1.59.15,2.59.02.94.05,2.04.21,3.06.15,1.01.46,2.17,1.2,3.15l3.23-2.42c-.16-.21-.33-.61-.44-1.34-.11-.72-.14-1.56-.16-2.55-.02-.93-.05-2.02-.18-3.04-.14-1.01-.42-2.16-1.1-3.16l-3.33,2.28ZM280.74,226.15c-.57-1.05-1.28-2.16-1.82-3.05-.57-.96-1.04-1.83-1.35-2.73l-3.82,1.33c.45,1.28,1.08,2.44,1.69,3.47.65,1.09,1.21,1.94,1.74,2.92l3.55-1.93ZM234.82,198.65c-1.78,1.9-4.11,4.55-5.44,7.15l3.6,1.84c1.04-2.04,3.01-4.32,4.8-6.23l-2.95-2.76ZM267.56,241.65c-.3-.05-.58-.2-.79-.44l3.04-2.66c-.43-.49-1.01-.8-1.64-.9l-.61,3.99ZM231.82,183.97c1.06,1.13,2.58,1.7,3.48,2.07,1.13.46,1.63.73,1.9,1.05l3.12-2.56c-1.02-1.25-2.55-1.85-3.49-2.23-1.16-.48-1.73-.74-2.05-1.09l-2.96,2.75ZM242.74,201.83c-.3-.41-.34-.83-.34-1.05,0-.22.05-.38.07-.43.04-.11.06-.13.03-.08-.03.04-.05.06-.05.06,0,0,.04-.04.11-.08.06-.03.24-.15.54-.21l.78,3.96c.67-.13,1.13-.54,1.3-.69.24-.22.46-.48.63-.73.17-.24.36-.57.49-.95.07-.22.39-1.22-.28-2.14l-3.28,2.36ZM228.84,209.33c-.06-.39.03-.86.37-1.24l3.01,2.69c.54-.61.71-1.38.61-2.07l-3.99.61ZM229.38,205.79c-.52,1.01-.75,2.21-.54,3.54l3.99-.61c-.07-.48.01-.82.15-1.08l-3.6-1.84ZM240.61,197.48c-1.81-1.04-4.2-.52-5.78,1.17l2.95,2.76c.55-.59.93-.36.82-.43l2.02-3.5ZM244.55,200.43c-1.21-1.09-2.51-2.13-3.95-2.95l-2.01,3.51c1.1.63,2.16,1.46,3.25,2.45l2.71-3ZM241.44,200.05c.44.58.87,1.18,1.3,1.77l3.28-2.36c-.44-.61-.89-1.22-1.34-1.83l-3.24,2.42ZM237.2,187.1c.79.96,1.6,1.93,2.37,2.88l3.12-2.57c-.8-.98-1.58-1.91-2.37-2.87l-3.12,2.56ZM238.34,171.1c-2.84-2.02-5.33-3.19-7.39-3.37-1.07-.1-2.15.06-3.09.66-.96.61-1.52,1.53-1.78,2.51-.49,1.84.03,4.05.98,6.15.99,2.18,2.59,4.57,4.76,6.92l2.96-2.74c-1.93-2.08-3.27-4.12-4.04-5.84-.81-1.8-.88-2.96-.75-3.46.05-.18.09-.17.05-.14-.02.01.11-.08.56-.04.98.09,2.75.75,5.41,2.64l2.34-3.29ZM264.55,190.76c-2.84-4.75-7.63-8.32-12.46-11.33-2.43-1.51-4.95-2.94-7.29-4.3-2.37-1.37-4.57-2.69-6.46-4.03l-2.34,3.29c2.06,1.46,4.4,2.86,6.77,4.23,2.4,1.39,4.83,2.76,7.18,4.23,4.73,2.95,8.81,6.1,11.13,9.98l3.47-2.07ZM277.58,220.36c-3.36-9.68-8.02-21.21-13.03-29.6l-3.47,2.07c4.8,8.04,9.35,19.26,12.68,28.86l3.82-1.33ZM277.39,239.67c2.57-1.75,4.06-4.04,4.54-6.53.48-2.45-.06-4.91-1.19-6.99l-3.55,1.93c.76,1.41,1.04,2.91.77,4.3-.26,1.35-1.08,2.75-2.85,3.96l2.27,3.34ZM267.12,241.61c.83.96,1.9,1.54,3.07,1.63l.32-4.03s-.04,0-.08-.03c-.04-.02-.13-.08-.25-.21l-3.05,2.64ZM266.77,241.21c.1.12.24.28.37.42l3-2.71c-.11-.12-.2-.23-.33-.38l-3.04,2.66ZM270.67,242.41c-.75-.8-1.57-1.61-2.44-2.42l-2.75,2.96c.82.76,1.57,1.5,2.23,2.21l2.96-2.75ZM263.72,249.29c1.02,1.1,2.33,1.61,3.66,1.52,1.27-.09,2.37-.71,3.16-1.52,1.55-1.61,2.3-4.55.14-6.87l-2.96,2.75c.24.26.27.47.26.63-.02.21-.13.47-.34.69-.21.22-.42.29-.53.3-.05,0-.19.02-.43-.24l-2.95,2.76ZM263.56,249.13s.06.07.09.1c.03.03.06.06.08.09l2.9-2.81s-.05-.06-.08-.09c-.03-.03-.06-.06-.09-.1l-2.91,2.81ZM235.62,231.22c4.48,4.78,8.97,6.84,13.51,8.92,4.49,2.07,9.14,4.2,14.53,9.08l2.71-2.99c-5.88-5.32-11-7.67-15.56-9.76-4.52-2.07-8.35-3.86-12.25-8.01l-2.95,2.76ZM225.64,214.42c-.06,2.28.3,4.29,1.84,6.9,1.46,2.46,3.99,5.48,8.14,9.91l2.95-2.76c-4.16-4.43-6.4-7.16-7.61-9.2-1.12-1.9-1.32-3.15-1.28-4.74l-4.04-.11ZM228.87,209.18c-.76.51-1.6,1.12-2.23,1.99-.67.94-.98,2.01-1,3.26l4.04.08c.01-.59.14-.83.25-.99.17-.23.47-.5,1.19-.99l-2.25-3.36ZM228.64,209.18s-.02.09-.04.15c-.02.06-.04.11-.05.15,0,.02-.01.03-.01.03,0,0,0,0,.02-.03.01-.02.04-.06.09-.11.05-.05.12-.12.23-.2l2.25,3.36c.69-.46,1.01-1.17,1.14-1.46.16-.38.26-.74.31-.93l-3.92-.97ZM230.6,209.66l-1.96-.48,1.96.48ZM270.34,241.22l-.16,2.01.16-2.01ZM243.2,201.93l1.35-1.5-1.35,1.5ZM266.86,241.48l1.38-1.48-1.38,1.48ZM275.67,221.03l-1.91.66,1.91-.66ZM278.97,227.11l-1.77.96,1.77-.96ZM231.18,206.71l-1.8-.92,1.8.92ZM268.29,239.89l1.52-1.33-1.52,1.33ZM230.83,209.02l-2,.31,2-.31ZM239.6,199.23l-1.01,1.75h0s1-1.75,1-1.75ZM237.17,172.75l-1.17,1.65h0s1.17-1.65,1.17-1.65ZM262.82,191.8l1.73-1.03h0s-1.73,1.03-1.73,1.03ZM268.64,240.29l1.53-1.32v-.02s-.03-.02-.03-.02l-1.5,1.35ZM269.19,243.79l1.48-1.37h0s-1.48,1.37-1.48,1.37ZM265.19,247.91l1.48-1.38h-.01s-.01-.03-.01-.03l-1.45,1.4ZM265.02,247.73l1.45-1.4-.05-.05-.05-.05-1.36,1.5ZM237.09,229.84l1.47-1.38h0s-1.47,1.38-1.47,1.38ZM227.66,214.47l2.02.05h0s-2.02-.05-2.02-.05ZM229.99,210.86l1.12,1.68h0s-1.12-1.68-1.12-1.68Z"/>
        <path class="cls-17" d="M230.72,209.44c-.06.06-.09.14-.12.22-.07.28-.27.97-.61,1.2-1.48.99-2.3,1.77-2.33,3.61-.1,3.87,1.12,6.52,9.44,15.37,8.38,8.94,16.66,7.68,27.92,17.89.06.07.13.13.18.19,2.53,2.71,6.51-1.41,4-4.12-.71-.76-1.49-1.53-2.33-2.31-.6-.56.2-1.94,1.01-1.82.17.03.31.1.42.23.12.13.23.27.35.4.52.6,1.12.89,1.7.93,2.2.17,4.09-1.97,5.91-3.22,4.34-2.96,4.61-7.4,2.71-10.89-1.1-2.03-2.54-3.9-3.29-6.08-3.35-9.64-7.95-21.01-12.86-29.23-5.16-8.63-17.74-13.43-25.65-19.05-11.01-7.83-12.07.99-3.87,9.85,1.38,1.48,4.17,1.65,5.46,3.22.79.96,1.58,1.91,2.37,2.87,1.68,2.46.14,7.77,1.93,10.15.45.6.89,1.2,1.32,1.8.22.3-.53,1.29-.89,1.36-.11.02-.21,0-.29-.08-1.15-1.04-2.33-1.97-3.6-2.7-.85-.49-2.23-.34-3.3.8-1.78,1.9-3.93,4.37-5.12,6.69-.33.64-.48,1.41-.35,2.31.02.15-.02.3-.12.41Z"/>
        <path class="cls-5" d="M176.87,101.14c-.26.26-.41.61-.41.98h2.69c0,.36-.15.7-.4.95l-1.88-1.93ZM178.77,103.07c.25-.25.38-.59.38-.95h-2.69c0-.35.13-.68.37-.92l1.94,1.87ZM178.75,103.09l.02-.02-1.94-1.87-.02.02,1.94,1.87ZM178.63,104.32c-.27-.4-.2-.92.1-1.21l-1.89-1.92c-1.26,1.24-1.4,3.21-.44,4.63l2.24-1.5ZM257.17,216.92l-78.55-112.62-2.21,1.54,78.55,112.62,2.21-1.54ZM260.04,217.19c-.82.84-2.18.74-2.86-.26l-2.22,1.52c1.64,2.38,5,2.7,7.02.61l-1.94-1.87ZM260.22,214.54c.58.81.5,1.95-.18,2.66l1.94,1.87c1.59-1.65,1.76-4.24.43-6.1l-2.19,1.57ZM179.93,103.2l80.29,111.34,2.18-1.58-80.29-111.34-2.18,1.58ZM178.75,103.07c.33-.32.88-.29,1.18.13l2.19-1.57c-1.23-1.72-3.71-1.98-5.25-.49l1.88,1.93ZM177.81,102.11l-.94-.97.94.97ZM177.8,102.13l-.97-.94.97.94ZM177.78,102.15l.94.96h.01s.01-.02.01-.02l-.97-.94ZM177.51,105.07l-1.12.75h0s0,.02,0,.02l1.1-.77ZM256.06,217.69l1.11-.76h0s-1.1.76-1.1.76ZM261.31,213.75l1.09-.78h0s-1.09.78-1.09.78ZM181.02,102.42l-1.09.78h0s1.09-.78,1.09-.78Z"/>
        <path class="cls-6" d="M177.81,102.12s0,0,0-.01c.93-.91,2.45-.76,3.21.31l80.29,111.34c.96,1.34.83,3.2-.31,4.38-1.42,1.47-3.78,1.26-4.94-.44l-78.55-112.62c-.61-.91-.51-2.15.27-2.92l.02-.02s0,0,0-.01Z"/>
        <path class="cls-14" d="M237.59,208.64s0,0,.01,0c1.3-2.83,1.64-5.56,1.39-8.65-.11-1.35.96-2.41,2.07-2.82,1.34-.5,2.68-1,4.02-1.49,4.1-1.52,9.16-2.46,13.5-1.95,2.14.25,4.1.68,4.69,1.42,1.23,1.53,4.67,8.08-.8,10.35-.69.29-1.44.4-2.19.42-.94.02-1.92-.03-2.9-.03h-5.7c-.94,0-1.85.39-2.49,1.08-2.47,2.63-5.07,4.72-8.43,5.96-2.55.95-4.15-2.19-3.18-4.29,0,0,0,0,.01,0Z"/>
        <path class="cls-5" d="M453.55,372.84c.26.12.53.35.84.79.33.48.6,1.02,1,1.77l3.57-1.88c-.32-.6-.74-1.47-1.27-2.21-.55-.79-1.32-1.61-2.45-2.13l-1.7,3.67ZM343,585.42c.18-1.52.26-5.02.34-9.93.08-4.98.15-11.53.31-19.31.31-15.55.92-35.94,2.48-58.1,3.12-44.41,10.01-95.63,25.61-129.35l-3.67-1.7c-15.94,34.46-22.86,86.34-25.98,130.77-1.56,22.26-2.18,42.72-2.49,58.3-.15,7.79-.23,14.37-.31,19.33-.08,5.03-.16,8.26-.31,9.52l4.01.47ZM486.46,580.54c-.01-.52.4-.4-.56.12-.83.45-2.19.93-4.14,1.38-3.86.9-9.5,1.61-16.38,2.15-13.74,1.07-32.14,1.43-50.58,1.39-18.44-.04-36.88-.48-50.7-.99-6.91-.26-12.66-.53-16.66-.78-2.01-.13-3.56-.24-4.59-.35-.53-.05-.88-.1-1.08-.14-.11-.02-.1-.02-.03,0,.02,0,.19.06.39.19.04.03,1.02.63.88,1.89l-4.01-.46c-.15,1.28.85,1.91.93,1.95.24.15.46.23.55.26.21.07.43.11.59.14.35.06.82.12,1.37.18,1.11.11,2.73.24,4.75.36,4.05.25,9.84.53,16.76.78,13.86.51,32.35.95,50.84.99,18.48.04,37-.32,50.91-1.4,6.94-.54,12.82-1.27,16.99-2.24,2.07-.48,3.85-1.06,5.16-1.77,1.18-.64,2.71-1.82,2.66-3.76l-4.04.1ZM455.39,375.4c14.2,27,21.77,68.12,25.87,107.74,4.1,39.55,4.72,77.29,5.2,97.4l4.04-.1c-.48-20.08-1.11-57.99-5.22-97.72-4.11-39.66-11.72-81.47-26.31-109.2l-3.57,1.88ZM371.74,368.73c-.11.24-.18.13.36-.13.49-.23,1.23-.48,2.27-.72,2.06-.47,4.95-.81,8.48-1.03,7.04-.44,16.32-.35,25.91.1,9.59.46,19.44,1.29,27.62,2.34,4.09.53,7.74,1.11,10.71,1.72,3.02.62,5.21,1.25,6.46,1.83l1.7-3.67c-1.7-.79-4.28-1.49-7.34-2.12-3.11-.64-6.86-1.23-11.01-1.77-8.3-1.07-18.27-1.91-27.94-2.37-9.67-.46-19.11-.55-26.36-.1-3.61.22-6.75.58-9.12,1.12-1.18.27-2.26.6-3.13,1.02-.81.39-1.79,1.02-2.27,2.08l3.67,1.7ZM454.4,371.01l-.85,1.83.85-1.83ZM341,585.19l-2.01-.24h0s2.01.24,2.01.24ZM488.48,580.49l2.02-.05h0s-2.02.05-2.02.05ZM369.9,367.88l1.83.85h0s-1.83-.85-1.83-.85Z"/>
        <path class="cls-8" d="M369.9,367.88c3.03-6.56,72.68-2.34,84.5,3.13,1.39.64,2.06,2.09,2.78,3.45,28.8,54.74,30.34,165.84,31.3,206.03.27,11.37-147.64,6.03-147.48,4.69,1.3-11.09-2.64-149.13,28.9-217.31Z"/>
        <path class="cls-5" d="M481.33,238.45c-.37.56-1,.91-1.68.91v-4.04c-.69,0-1.33.35-1.7.92l3.38,2.21ZM477.96,236.23c.35-.54.97-.91,1.68-.91v4.04c.72,0,1.34-.37,1.7-.92l-3.38-2.21ZM373.02,112.03c3.66-.96,7.37-2.71,10.08-5.74l-3.01-2.69c-2.01,2.25-4.9,3.69-8.1,4.53l1.03,3.91ZM476.22,167.94c.36,5.85,1.82,11.43,3.46,16.84,1.66,5.48,3.46,10.69,4.67,16.13,2.38,10.67,2.4,21.86-6.38,35.33l3.38,2.21c9.5-14.58,9.5-26.94,6.94-38.41-1.26-5.63-3.15-11.14-4.75-16.42-1.62-5.34-2.96-10.55-3.29-15.92l-4.03.25ZM438.47,99.41c19.37,8.19,28.34,19.56,32.74,31.58,4.47,12.21,4.29,25.15,5.01,36.95l4.03-.25c-.7-11.38-.52-25.17-5.25-38.09-4.81-13.12-14.62-25.3-34.96-33.91l-1.57,3.72ZM391.1,98.13c8.35-4.21,15.78-5.7,23.26-5.28,7.53.43,15.22,2.81,24.11,6.56l1.57-3.72c-9.05-3.82-17.25-6.41-25.45-6.87-8.25-.47-16.38,1.21-25.3,5.7l1.82,3.61ZM383.1,106.28c1.54-1.72,3.33-3.68,4.89-5.29.78-.8,1.49-1.5,2.08-2.03.29-.26.54-.47.73-.63.21-.17.3-.22.3-.21l-1.81-3.61c-.62.31-1.32.9-1.93,1.45-.67.61-1.45,1.37-2.26,2.2-1.62,1.67-3.45,3.67-5.01,5.41l3.01,2.69ZM365.42,116.15c.68-.94,1.77-1.77,3.16-2.49,1.38-.71,2.95-1.24,4.44-1.63l-1.03-3.91c-1.66.44-3.53,1.06-5.25,1.94-1.71.88-3.41,2.07-4.59,3.72l3.28,2.36ZM352.25,167.46c.88-4.67,1.17-8.95,1.37-13.01.2-4.09.31-7.89.79-11.82.95-7.72,3.36-15.89,11.01-26.49l-3.28-2.36c-8.06,11.17-10.71,19.99-11.74,28.36-.51,4.12-.62,8.13-.82,12.11-.2,4.01-.48,8.07-1.3,12.46l3.97.74ZM339.91,207.63c1.16-6.74,3.53-13.15,6-19.75,2.45-6.54,5.01-13.28,6.34-20.42l-3.97-.74c-1.26,6.74-3.68,13.14-6.15,19.75-2.45,6.55-4.96,13.3-6.2,20.48l3.98.69ZM343.27,227.95c-1.38-2.02-2.49-5.66-3.11-9.7-.62-4-.69-8.02-.25-10.62l-3.98-.69c-.55,3.18-.42,7.67.23,11.92.65,4.21,1.87,8.58,3.77,11.36l3.34-2.27ZM417.98,249.94c-17.45-.88-33.31-2.14-46.3-5.36-13-3.22-22.77-8.33-28.41-16.62l-3.34,2.27c6.46,9.5,17.38,14.95,30.78,18.27,13.4,3.33,29.62,4.6,47.07,5.48l.2-4.03ZM477.95,236.24c-3.84,5.88-9.72,9.76-19.23,11.95-9.59,2.21-22.7,2.66-40.74,1.75l-.2,4.03c18.12.91,31.7.49,41.85-1.85,10.24-2.36,17.15-6.7,21.7-13.68l-3.38-2.21ZM479.64,237.34l-1.69-1.1,1.69,1.1ZM479.66,237.33l1.69,1.1-1.69-1.1ZM372.51,110.07l-.51-1.95.51,1.95ZM478.24,167.82l-2.02.12h0s2.02-.12,2.02-.12ZM439.25,97.55l.79-1.86h0s-.79,1.86-.79,1.86ZM390.2,96.32l.91,1.8h0s-.91-1.8-.91-1.8ZM363.78,114.96l1.64,1.18h0s-1.64-1.18-1.64-1.18ZM350.27,167.09l-1.99-.37h0s1.99.37,1.99.37ZM337.92,207.29l-1.99-.34h0s1.99.34,1.99.34ZM341.6,229.09l1.67-1.14h0s-1.67,1.14-1.67,1.14ZM417.87,251.96l.1-2.02h0s-.1,2.02-.1,2.02Z"/>
        <path class="cls-9" d="M479.65,237.34s0,0,0,0c-8.39,12.86-25.6,16.44-61.76,14.62-34.89-1.76-64.17-5.08-76.28-22.87-3.27-4.8-4.67-16.02-3.68-21.8,2.4-13.92,9.76-26.32,12.35-40.2,3.4-18.14-2.2-30.35,13.51-52.13,1.86-2.58,5.57-4.06,8.72-4.89,3.43-.9,6.73-2.49,9.09-5.14,3.09-3.46,7.24-7.93,8.6-8.61,17.27-8.7,31.13-6.35,49.06,1.23,39.71,16.8,37.56,47.09,38.98,70.26,1.38,22.42,19.71,41.47,1.42,69.52,0,0,0,0,0,0Z"/>
        <g class="cls-29">
          <g class="cls-20">
            <path class="cls-13" d="M354.93,126.79c2.48-6.41,5.76-12.6,9.88-17.97.92-1.2-.15-2.49-1.04-1.27-7.54,10.46-10.17,18.71-11.24,26.47.66-2.39,1.46-4.79,2.4-7.23Z"/>
          </g>
        </g>
        <path class="cls-5" d="M394.05,217.83c.59-.78,1.42-1.47,2.36-2.01l-2.03-3.49c-1.3.76-2.57,1.77-3.55,3.06l3.21,2.45ZM375.97,270.86c-2.63-3.75-4.34-8.57-4.4-12.9-.06-4.29,1.46-7.81,4.93-9.71l-1.94-3.55c-5.19,2.83-7.11,8.04-7.04,13.31.08,5.24,2.09,10.83,5.13,15.16l3.31-2.32ZM399.79,215.47c1.07.31,2.16.55,3.24.71l.61-3.99c-.92-.14-1.84-.34-2.72-.6l-1.14,3.88ZM389.83,241.08c3.19-1.84,3.8-5.18,3.66-8l-4.03.2c.11,2.26-.42,3.6-1.64,4.31l2.02,3.5ZM423.21,213.8c.31,1.19,1.15,1.85,1.9,2.18.64.28,1.36.39,1.69.44.21.04.33.06.42.08.09.02.03.02-.09-.06-.15-.09-.38-.29-.52-.64-.13-.32-.09-.57-.08-.61l3.96.78c.1-.48.11-1.08-.13-1.68-.25-.62-.68-1.03-1.09-1.29-.67-.42-1.5-.53-1.79-.58-.5-.08-.65-.12-.73-.15,0,0,.07.03.17.13.11.11.18.25.21.36l-3.91,1.02ZM405.9,217.97c1,1.54,3,2.29,4.77,1.79l-1.09-3.89s-.06.01-.16-.02c-.1-.04-.13-.09-.13-.08l-3.39,2.2ZM410.67,219.77c1.37-.39,2.71-1.62,2.75-3.42l-4.04-.1c0-.15.07-.26.11-.32.04-.05.07-.06.08-.06l1.09,3.89ZM443.73,245.71c2.63.82,4.46,2.37,5.35,4.13.87,1.72.96,3.84-.23,6.14l3.59,1.86c1.75-3.38,1.74-6.87.25-9.82-1.47-2.9-4.27-5.08-7.75-6.16l-1.2,3.86ZM441.83,268.32c-1.62,2.6-4.48,5.19-7.86,7.39-3.36,2.19-7.06,3.88-10.18,4.77l1.1,3.89c3.55-1.01,7.62-2.89,11.28-5.27,3.64-2.37,7.03-5.35,9.08-8.64l-3.43-2.13ZM405.34,285.69c-3.33.95-7.75,1.29-11.85.69-4.16-.6-7.61-2.1-9.48-4.46l-3.16,2.51c2.8,3.53,7.46,5.28,12.06,5.94,4.65.67,9.64.3,13.53-.81l-1.1-3.89ZM389.24,219.58h0s4.04.01,4.04.01h0s-4.04-.01-4.04-.01ZM393.49,233.07c-.12-2.47-.19-5.72-.22-8.43-.02-1.35-.02-2.55-.02-3.45,0-.45,0-.81,0-1.07,0-.34.01-.36,0-.27l-4-.55c-.03.21-.03.54-.04.75,0,.29,0,.68,0,1.13,0,.92,0,2.14.02,3.5.03,2.72.1,6.04.23,8.58l4.03-.2ZM376.51,248.26c4.96-2.71,10.19-5.37,13.33-7.18l-2.02-3.5c-3.11,1.8-8.08,4.31-13.24,7.13l1.94,3.55ZM384.01,281.93c-2.64-3.32-5.36-7.26-8.04-11.07l-3.31,2.32c2.64,3.77,5.45,7.82,8.18,11.26l3.16-2.51ZM423.79,280.48c-5.71,1.62-12.57,3.55-18.46,5.22l1.1,3.89c5.86-1.66,12.76-3.6,18.46-5.22l-1.1-3.89ZM448.84,255.98c-2.06,3.98-4.61,8.48-7.02,12.34l3.43,2.13c2.46-3.96,5.07-8.55,7.17-12.62l-3.59-1.86ZM425.67,236.55c.19.8.68,1.41,1.1,1.83.44.44.99.85,1.56,1.21,1.15.73,2.64,1.46,4.26,2.15,3.27,1.4,7.39,2.79,11.13,3.96l1.2-3.86c-3.7-1.15-7.66-2.5-10.74-3.82-1.55-.66-2.8-1.29-3.68-1.84-.44-.28-.72-.5-.88-.67-.19-.19-.09-.16-.03.09l-3.93.94ZM426.53,215.2c-.76,3.85-3.06,12.23-.86,21.35l3.93-.95c-1.94-8.07.08-15.46.9-19.63l-3.96-.78ZM413.44,215.25c.06-2.92,2.1-4.69,4.42-5.04,2.28-.34,4.59.72,5.35,3.59l3.9-1.03c-1.36-5.14-5.83-7.16-9.85-6.56-3.98.59-7.75,3.78-7.86,8.94l4.04.09ZM413.42,216.35c0-.36.02-.74.02-1.11l-4.04-.07c0,.36-.01.71-.02,1.08l4.04.1ZM403.04,216.18c1.19.18,2.21.78,2.86,1.79l3.39-2.2c-1.35-2.07-3.44-3.24-5.64-3.58l-.61,3.99ZM396.41,215.81c.99-.57,2.19-.69,3.38-.34l1.14-3.88c-2.14-.63-4.5-.46-6.54.73l2.03,3.49ZM393.26,219.88c.13-.92.43-1.58.79-2.05l-3.21-2.45c-.82,1.08-1.36,2.41-1.58,3.93l4,.57ZM392.44,216.6l-1.61-1.22,1.61,1.22ZM375.54,246.48l-.97-1.77.97,1.77ZM400.36,213.53l-.57,1.94.57-1.94ZM391.48,233.17l-2.02.1,2.02-.1ZM428.51,215.59l-1.98-.39,1.98.39ZM407.59,216.87l1.69-1.1-1.69,1.1ZM411.4,216.3l2.02.05-2.02-.05ZM450.64,256.91l-1.79-.93,1.79.93ZM391.26,219.58h2.02l-4.02-.28,2,.28ZM427.63,236.08l1.96-.47h0s-1.96.47-1.96.47ZM411.43,215.21l-2.02-.04h0s2.02.04,2.02.04ZM391.26,219.6h-2.02l4.02.28-2-.28Z"/>
        <path class="cls-15" d="M391.26,219.6c.17-1.22.59-2.21,1.19-2.99.79-1.03,1.83-1.89,2.96-2.54,1.52-.88,3.3-1.02,4.96-.53.97.29,1.98.5,2.98.66,1.7.26,3.25,1.15,4.25,2.69.52.8,1.61,1.21,2.53.95.71-.2,1.26-.79,1.28-1.52,0-.37.02-.73.02-1.1.18-8.08,11.62-9.93,13.74-1.92.45,1.74,3.69.54,3.34,2.3-.79,4.01-2.95,11.89-.88,20.49.53,2.22,9.26,5.38,16.69,7.7,6.11,1.9,9.25,7.45,6.31,13.13-2.08,4.02-4.66,8.57-7.09,12.48-3.66,5.89-12.52,11.14-19.2,13.03-5.7,1.62-12.58,3.55-18.46,5.22-7.23,2.05-18.79,1.44-23.46-4.45-2.68-3.38-5.45-7.38-8.11-11.17-5.67-8.08-7.44-20.81,1.22-25.54,5.06-2.76,10.16-5.35,13.28-7.16,2.2-1.27,2.78-3.61,2.65-6.15-.25-5.01-.28-13.13-.22-13.59h0Z"/>
        <path class="cls-17" d="M365.28,149.45s0,.01-.01.02c-.82,5.47-1.13,10.94-1.16,15.91-.08,11.73-2.7,17.69-2.53,23.84.91,31.16,27.52,40.07,42.93,40.23,43.97.45,55.22-43.79,57.6-71.83.39-4.55-1.79-8.9-5.59-11.42-29.74-19.67-70.54-36.88-91.23,3.25,0,0,0,0,0,0Z"/>
        <g class="cls-23">
          <path class="cls-5" d="M367.27,149.77c-.07.44-.28.85-.6,1.15l-2.77-2.94c-.34.32-.56.74-.62,1.19l4,.6ZM363.5,148.52c.1-.19.23-.37.4-.54l2.77,2.94c.18-.17.32-.36.42-.55l-3.59-1.85ZM464.13,157.79c.45-5.3-2.08-10.36-6.49-13.28l-2.23,3.37c3.21,2.12,5.02,5.77,4.69,9.57l4.02.34ZM457.64,144.51c-14.93-9.87-32.9-19.33-49.91-21.13-8.55-.9-16.93.12-24.56,4.06-7.64,3.95-14.34,10.74-19.67,21.07l3.59,1.85c5.02-9.73,11.17-15.84,17.94-19.33,6.77-3.5,14.32-4.47,22.28-3.63,16,1.69,33.3,10.68,48.11,20.48l2.23-3.37ZM404.5,231.47c22.83.23,37.25-11.21,46.15-26.22,8.83-14.89,12.28-33.32,13.48-47.46l-4.02-.34c-1.18,13.9-4.55,31.62-12.93,45.74-8.31,14.01-21.5,24.46-42.64,24.24l-.04,4.04ZM359.57,189.28c.47,16.24,7.69,26.84,16.88,33.33,9.1,6.43,20.03,8.78,28.05,8.86l.04-4.04c-7.39-.07-17.47-2.26-25.76-8.12-8.2-5.79-14.74-15.23-15.17-30.15l-4.04.12ZM362.1,165.37c-.04,5.71-.69,10-1.33,13.68-.63,3.62-1.29,6.9-1.2,10.23l4.04-.12c-.08-2.82.48-5.59,1.14-9.42.65-3.77,1.35-8.32,1.39-14.34l-4.04-.03ZM363.28,149.17c-.83,5.59-1.16,11.16-1.18,16.2l4.04.02c.03-4.89.34-10.27,1.14-15.62l-4-.6ZM365.27,149.47l2,.3-2-.3ZM365.29,149.44l-1.8-.93,1.8.93ZM456.52,146.2l-1.11,1.68,1.11-1.68ZM462.11,157.62l-2.01-.17,2.01.17ZM404.52,229.45l.02-2.02h0s-.02,2.02-.02,2.02ZM361.59,189.22l-2.02.06h0s2.02-.06,2.02-.06ZM364.11,165.38h2.02s0,.01,0,.01h-2.02Z"/>
        </g>
        <path class="cls-4" d="M419.08,218.84c-1.38.79-2.95,1.68-4.33,2.46-2.39,1.36-5.69-.1-7.37-3.27-1.68-3.17-1.1-6.83,1.29-8.19,1.38-.79,2.95-1.68,4.33-2.46,2.39-1.36,5.69.1,7.37,3.27s1.1,6.83-1.29,8.19Z"/>
        <path class="cls-5" d="M383.59,197.34c1.46,3.76,3.61,7.94,6.34,11.59,2.72,3.64,6.07,6.82,9.97,8.45,3.94,1.66,8.37,1.7,13.08-.83,4.66-2.5,9.54-7.48,14.57-15.76l-1.73-1.05c-4.93,8.12-9.58,12.76-13.8,15.03-4.16,2.23-7.95,2.17-11.34.75-3.44-1.44-6.52-4.32-9.13-7.8-2.6-3.48-4.67-7.49-6.08-11.12l-1.88.73Z"/>
        <path class="cls-5" d="M408.33,179.38c-.18.83-.76,1.4-1.76,1.9-1.04.52-2.25.83-3.56,1.28l.65,1.91c1.11-.38,2.61-.78,3.82-1.39,1.25-.63,2.45-1.6,2.82-3.27l-1.97-.44ZM403.01,182.57c-.89.3-1.76.72-2.41,1.31-.68.61-1.16,1.44-1.1,2.49.06.99.6,1.98,1.5,2.95.91.98,2.27,2.05,4.16,3.22l1.06-1.72c-1.81-1.12-3-2.08-3.74-2.88-.75-.81-.95-1.37-.97-1.7-.02-.28.09-.56.43-.87.37-.33.95-.64,1.71-.9l-.65-1.91ZM404.96,171.23c.85.9,1.88,2.25,2.59,3.75.72,1.52,1.07,3.06.78,4.4l1.97.44c.44-1.97-.11-4-.93-5.71-.82-1.72-1.98-3.25-2.95-4.28l-1.46,1.39ZM409.31,179.6l-.99-.22.99.22Z"/>
        <ellipse class="cls-5" cx="382.62" cy="163.93" rx="3.83" ry="3.97"/>
        <path class="cls-5" d="M375.75,164.04c1.38-1.73,3.95-3.77,7.13-4.27,3.1-.49,6.98.43,11.13,4.99l1.49-1.36c-4.53-4.96-9.06-6.24-12.94-5.62-3.81.61-6.79,3-8.39,5.01l1.58,1.26Z"/>
        <path class="cls-5" d="M376.99,160.28c-.87-.1-2.4-.47-3.55-1.19-.57-.36-.99-.76-1.22-1.21-.22-.41-.31-.93-.12-1.62l-1.95-.54c-.32,1.16-.19,2.2.28,3.09.45.86,1.18,1.51,1.93,1.98,1.5.94,3.35,1.37,4.4,1.49l.23-2.01Z"/>
        <path class="cls-5" d="M380.89,158.31c-1-.19-2.43-.83-3.33-1.79-.44-.47-.73-.96-.82-1.48-.09-.5-.03-1.12.38-1.86l-1.77-.98c-.61,1.11-.79,2.19-.6,3.2.18,1,.71,1.84,1.35,2.51,1.25,1.31,3.08,2.13,4.42,2.38l.37-1.98Z"/>
        <path class="cls-5" d="M417.9,165.36c1.38-1.73,3.95-3.77,7.13-4.27,3.1-.49,6.98.43,11.13,4.99l1.49-1.36c-4.53-4.96-9.06-6.24-12.94-5.62-3.81.61-6.79,3-8.39,5.01l1.58,1.26Z"/>
        <path class="cls-5" d="M434.11,164.25c1.48.35,3.75.51,5.52-.44.92-.5,1.69-1.29,2.1-2.46.39-1.15.4-2.56-.01-4.26l-1.96.47c.35,1.47.29,2.47.06,3.14-.22.64-.62,1.06-1.14,1.34-1.12.6-2.8.56-4.09.25l-.47,1.96Z"/>
        <path class="cls-5" d="M431.39,162.2c.61.27,1.29.31,1.96.06.65-.24,1.24-.71,1.77-1.36,1.04-1.28,1.99-3.44,2.77-6.66l-1.96-.47c-.75,3.12-1.61,4.93-2.37,5.86-.37.46-.68.66-.89.73-.18.07-.32.05-.46,0l-.82,1.85Z"/>
        <ellipse class="cls-5" cx="423.49" cy="165.25" rx="3.83" ry="3.97"/>
        <path class="cls-10" d="M300.12,314.54s0,0,0,0c34.95,25.36,54.44-4.41,54.11-.64-1.92,21.63,8.52,34.83,10.97,63.61.11,1.32,43.09,15.12,93.67,1.36,4.36-1.19,11.33-8.32,15.83-8.71,4.22-.37,9.35-1.78,14.88-5.39,14.22-9.28,18.63-24.55,9.35-57.77-6.95-24.89-25.97-62.64-57.61-64.94-1.6-.12-3.33-.54-4.74.21-5.89,3.14-15.64,21.43-35.7,21.42-16.8-.01-16.83-22.79-17.45-22.75-18.12,1.11-46.48,36.34-67.14,20.33-8.17-6.33-30.05-32.11-38.52-40.73-1.62-1.65-16.86,8.69-22.85,18.86-1.38,2.34,20.39,57.14,45.19,75.14,0,0,0,0,0,0Z"/>
        <g class="cls-22">
          <path class="cls-5" d="M301.31,312.9c-.86-.63-1.86-.4-2.43.04-.3.24-.65.66-.75,1.28-.11.7.16,1.32.54,1.71l2.9-2.81c.39.4.65,1.02.54,1.71-.1.62-.45,1.04-.75,1.28-.57.45-1.57.67-2.43.04l2.37-3.27ZM459.4,380.82c1.39-.38,2.86-1.18,4.23-2.05,1.39-.87,2.87-1.93,4.26-2.9,1.43-.99,2.78-1.9,4.03-2.59,1.28-.7,2.26-1.06,2.97-1.12l-.35-4.02c-1.55.14-3.13.82-4.56,1.6-1.46.8-2.97,1.82-4.39,2.81-1.46,1.01-2.82,1.99-4.11,2.8-1.31.82-2.35,1.35-3.13,1.57l1.06,3.9ZM441.48,240.04c-.35-.03-.71-.07-1.14-.12-.41-.05-.89-.09-1.38-.11-.97-.03-2.16.05-3.32.67l1.9,3.56c.25-.14.63-.22,1.29-.19.32.01.67.04,1.07.09.38.04.84.1,1.29.13l.29-4.03ZM298.93,316.17c.43.31,1.02.48,1.64.33.57-.13.98-.48,1.21-.83.46-.67.55-1.76-.21-2.54l-2.9,2.81c-.76-.79-.68-1.87-.21-2.54.23-.34.64-.69,1.21-.83.62-.14,1.22.02,1.64.33l-2.37,3.27ZM253.19,238.38c-.34.58-.34,1.19-.34,1.41,0,.32.04.66.1.98.11.65.31,1.45.57,2.36.53,1.84,1.39,4.3,2.52,7.2,2.26,5.82,5.66,13.51,9.87,21.69,8.38,16.26,20.21,34.85,33.02,44.15l2.37-3.27c-11.98-8.7-23.45-26.51-31.81-42.73-4.15-8.06-7.49-15.63-9.7-21.31-1.11-2.84-1.92-5.19-2.41-6.87-.25-.85-.4-1.48-.47-1.9-.04-.22-.04-.32-.04-.34,0-.12.04.24-.22.67l-3.48-2.05ZM279.22,219.12c-.58-.59-1.3-.74-1.77-.77-.49-.03-.96.05-1.35.15-.8.2-1.71.59-2.65,1.06-1.89.97-4.24,2.5-6.68,4.37-4.86,3.73-10.39,9.04-13.57,14.45l3.48,2.05c2.81-4.77,7.89-9.72,12.55-13.29,2.32-1.78,4.46-3.16,6.07-3.98.82-.42,1.41-.65,1.78-.74.19-.05.21-.03.13-.04-.07,0-.48-.04-.86-.43l2.88-2.83ZM317.53,259.67c-3.91-3.03-11.29-10.9-18.89-19.27-7.51-8.26-15.15-16.93-19.43-21.28l-2.88,2.83c4.2,4.27,11.72,12.8,19.32,21.17,7.5,8.26,15.15,16.45,19.41,19.75l2.47-3.19ZM383.32,238.92c-5.05.31-10.59,2.95-16.12,6.17-2.8,1.63-5.69,3.45-8.59,5.28-2.91,1.84-5.85,3.69-8.8,5.41-5.92,3.45-11.72,6.23-17.21,7.24-5.4.99-10.43.24-15.06-3.34l-2.47,3.19c5.71,4.42,11.97,5.27,18.26,4.12,6.21-1.13,12.5-4.22,18.52-7.72,3.02-1.76,6.02-3.65,8.92-5.48,2.92-1.84,5.74-3.62,8.46-5.21,5.52-3.21,10.33-5.38,14.34-5.63l-.25-4.03ZM400.89,261.67c-3.69,0-6.36-1.24-8.38-3.05-2.06-1.85-3.51-4.38-4.53-7.05-1.02-2.66-1.58-5.36-1.93-7.42-.17-1.05-.28-1.88-.38-2.54-.05-.3-.1-.62-.15-.87-.03-.11-.08-.33-.18-.55-.05-.1-.16-.34-.38-.58-.22-.24-.78-.73-1.66-.67l.26,4.03c-.86.06-1.4-.43-1.6-.65-.2-.22-.29-.43-.32-.49-.06-.14-.08-.23-.06-.18.02.08.05.24.09.56.09.58.21,1.52.39,2.6.36,2.19.98,5.19,2.14,8.21,1.16,3.02,2.91,6.18,5.6,8.61,2.74,2.46,6.37,4.08,11.07,4.08v-4.04ZM435.64,240.49c-1.82.97-3.78,2.99-5.75,5.06-2.08,2.18-4.4,4.68-7.16,7.09-5.49,4.79-12.48,9.03-21.84,9.03v4.04c10.71,0,18.62-4.89,24.49-10.02,2.93-2.56,5.39-5.21,7.43-7.34,2.14-2.24,3.61-3.69,4.73-4.29l-1.9-3.56ZM500.89,306.45c-3.52-12.61-10.11-28.51-19.87-41.6-9.75-13.07-22.89-23.6-39.53-24.8l-.29,4.03c15,1.09,27.19,10.59,36.59,23.19,9.39,12.58,15.79,28,19.22,40.27l3.89-1.09ZM490.7,366.45c7.52-4.91,12.54-11.5,14.37-21.22,1.81-9.58.49-22.06-4.18-38.78l-3.89,1.09c4.61,16.5,5.73,28.27,4.1,36.95-1.61,8.54-5.91,14.22-12.61,18.59l2.21,3.38ZM474.88,372.17c4.54-.4,9.99-1.92,15.81-5.72l-2.21-3.38c-5.24,3.42-10.05,4.73-13.96,5.07l.35,4.02ZM363.19,377.68c.06.64.38,1.06.51,1.2.16.19.32.32.43.4.22.16.46.3.67.41.43.22,1.01.46,1.68.71,1.37.51,3.32,1.12,5.78,1.76,4.93,1.29,11.99,2.73,20.63,3.68,17.27,1.92,40.92,1.93,66.51-5.03l-1.06-3.9c-24.99,6.8-48.11,6.79-65.01,4.92-8.44-.94-15.31-2.34-20.05-3.58-2.37-.62-4.19-1.2-5.4-1.64-.61-.23-1.02-.4-1.25-.52-.12-.06-.14-.08-.09-.04.02.02.12.09.23.22.08.1.38.46.44,1.06l-4.02.35ZM352.22,313.72c-.99,11.2,1.23,20.21,3.91,29.85,2.69,9.64,5.85,19.95,7.06,34.12l4.02-.34c-1.24-14.61-4.52-25.29-7.19-34.86-2.67-9.57-4.71-17.98-3.78-28.4l-4.02-.36ZM298.94,316.17c18.03,13.08,32.38,12.08,42.24,8.01,4.86-2.01,8.53-4.72,10.92-6.63,1.27-1.02,2-1.66,2.51-2.02.11-.08.15-.1.13-.09,0,0-.06.03-.14.06-.08.03-.24.07-.46.08-.23,0-.58-.03-.95-.22-.38-.21-.63-.51-.78-.79-.13-.26-.17-.49-.18-.61-.01-.12,0-.21,0-.23l4.02.35c.02-.21.06-.78-.24-1.36-.18-.34-.47-.68-.89-.92-.41-.22-.82-.27-1.12-.26-.53.02-.94.22-1.11.31-.22.12-.43.25-.61.38-.63.45-1.65,1.32-2.7,2.16-2.26,1.81-5.59,4.25-9.93,6.05-8.54,3.53-21.41,4.73-38.33-7.54l-2.37,3.27ZM300.12,314.53l-1.19,1.63,1.19-1.63ZM474.71,370.16l-.18-2.01.18,2.01ZM436.59,242.27l-.95-1.78.95,1.78ZM300.12,314.54l1.19-1.63-1.19,1.63ZM254.93,239.4l1.74,1.03h0s-1.74-1.03-1.74-1.03ZM277.78,220.54l-1.44,1.41h0s1.44-1.41,1.44-1.41ZM316.3,261.27l1.24-1.6h0s-1.24,1.6-1.24,1.6ZM383.44,240.93l.12,2.02h0s-.13-2.02-.13-2.02ZM400.89,263.69v2.02s0,0,0,0v-2.02ZM498.94,306.99l-1.95.54h0s1.95-.54,1.95-.54ZM489.59,364.76l-1.1-1.69,1.1,1.69ZM365.2,377.51l-2.01.17h0s2.01-.17,2.01-.17ZM354.23,313.89l2.01.18h0s-2.01-.18-2.01-.18Z"/>
        </g>
        <path class="cls-5" d="M496.99,307.53c.09.34.27.64.5.88l2.9-2.81c.22.23.39.52.48.84l-3.89,1.09ZM500.9,306.47c-.09-.32-.26-.62-.5-.88l-2.9,2.81c-.24-.24-.4-.54-.48-.84l3.89-1.09ZM453.7,242.74c-4.29-1.61-8.39-.51-11.44,2.04-3.01,2.51-5.03,6.41-5.48,10.63l4.02.43c.35-3.26,1.91-6.17,4.05-7.95,2.09-1.74,4.69-2.39,7.44-1.36l1.42-3.78ZM490.71,366.47c7.52-4.91,12.53-11.5,14.37-21.22,1.81-9.58.5-22.06-4.17-38.77l-3.89,1.09c4.61,16.5,5.73,28.26,4.1,36.94-1.61,8.53-5.91,14.22-12.61,18.59l2.21,3.38ZM464.24,371.06c3.87,1.28,14.3,3.34,26.47-4.59l-2.2-3.38c-10.85,7.07-19.93,5.15-22.99,4.14l-1.27,3.83ZM465.17,370.59c-.07.29-.43.63-.92.47l1.25-3.84c-1.95-.64-3.84.63-4.27,2.45l3.93.92ZM475.5,408.97c1.12-.5,1.23-1.62,1.25-1.75.04-.32,0-.62-.02-.81-.05-.41-.17-.89-.31-1.38-.28-1.01-.73-2.37-1.28-3.95-1.1-3.17-2.68-7.4-4.24-11.69-1.57-4.32-3.13-8.72-4.23-12.3-.55-1.79-.98-3.34-1.23-4.55-.13-.61-.21-1.09-.24-1.46-.04-.41,0-.53-.02-.49l-3.94-.91c-.14.59-.12,1.23-.07,1.77.05.58.16,1.23.31,1.92.29,1.38.76,3.07,1.33,4.91,1.14,3.69,2.73,8.17,4.3,12.49,1.58,4.34,3.13,8.51,4.23,11.64.55,1.57.96,2.83,1.2,3.7.12.45.18.71.2.84.01.08-.01-.01,0-.18,0-.08.04-.3.16-.55.13-.27.41-.68.95-.92l1.66,3.68ZM408.62,421.7c32,5.9,52.46-6.22,66.89-12.73l-1.66-3.68c-14.67,6.63-33.95,18.07-64.49,12.44l-.73,3.97ZM404.73,416.88c-.04,2.32,1.56,4.4,3.9,4.83l.72-3.97c-.29-.05-.58-.34-.58-.78l-4.04-.08ZM415.76,335.93c-2.99,15.97-10.62,61.47-11.03,80.94l4.04.09c.4-19.08,7.95-64.24,10.96-80.28l-3.97-.74ZM429.16,289.94c-4.98,15.12-10.39,29.98-13.4,45.99l3.97.75c2.94-15.67,8.23-30.18,13.27-45.47l-3.84-1.26ZM436.78,255.4c-1.26,11.73-3.87,23.2-7.61,34.54l3.84,1.26c3.82-11.58,6.5-23.34,7.79-35.38l-4.02-.43ZM500.88,306.44c-3.07-10.99-8.46-24.45-16.24-36.38-7.76-11.91-18.04-22.47-30.95-27.33l-1.42,3.78c11.79,4.43,21.47,14.22,28.99,25.75,7.51,11.51,12.75,24.58,15.73,35.26l3.89-1.09ZM498.94,306.98l-1.95.54,1.95-.54ZM498.96,307.02l-1.95.54,1.95-.54ZM452.99,244.63l-.71,1.89.71-1.89ZM489.6,364.78l1.1,1.69h0s-1.1-1.69-1.1-1.69ZM464.88,369.14l.64-1.92h0s-.63,1.92-.63,1.92ZM463.2,370.13l-1.97-.46h0s1.97.46,1.97.46ZM474.67,407.13l-.83-1.84h0s.83,1.84.83,1.84ZM408.99,419.72l.37-1.99h0s-.36,1.99-.36,1.99ZM406.75,416.91l-2.02-.04h0s2.02.04,2.02.04ZM417.75,336.3l-1.98-.37h0s1.99.37,1.99.37ZM431.08,290.57l-1.92-.63h0s1.92.63,1.92.63Z"/>
        <path class="cls-11" d="M498.95,307s0,0,0-.02c-6.05-21.66-21.25-53.07-45.95-62.36-7.04-2.65-13.4,3.51-14.2,10.99-1.27,11.88-3.92,23.5-7.7,34.96-5.01,15.2-10.36,29.89-13.33,45.73-3,16.01-10.59,61.34-11,80.61-.03,1.37.92,2.56,2.24,2.8,31.27,5.76,51.14-6.01,65.69-12.59,1.18-.53-12.48-32.63-11.47-37,.18-.77.95-1.23,1.67-.99,3.46,1.15,13.22,3.13,24.73-4.36,14.21-9.28,18.63-24.55,9.35-57.76,0,0,0-.01,0-.02Z"/>
        <path class="cls-5" d="M349.8,407.4s-.03-.01-.05-.03l-2.29,3.32c.21.14.42.27.66.38l1.68-3.67ZM346.02,405.02c-.96,1.94-.43,4.39,1.43,5.68l2.29-3.32c-.06-.04-.12-.12-.15-.22-.03-.11-.01-.23.04-.33l-3.62-1.8ZM352.24,313.51c-1.31,6.45-.92,12.76-.02,19.17.45,3.2,1.04,6.46,1.61,9.78.58,3.33,1.15,6.73,1.59,10.28,1.74,14.09,1.41,30.55-9.4,52.29l3.62,1.8c11.23-22.58,11.61-39.87,9.79-54.58-.45-3.65-1.04-7.14-1.62-10.48-.58-3.35-1.15-6.53-1.59-9.65-.88-6.22-1.2-12-.02-17.8l-3.96-.8ZM298.92,316.18c18.03,13.09,32.49,12.1,42.4,8.04,4.88-2,8.57-4.71,10.95-6.64,1.29-1.04,1.97-1.66,2.49-2.06.11-.08.15-.11.14-.1,0,0-.05.03-.13.06-.07.03-.25.09-.51.11-.27.02-.72-.01-1.17-.3-.46-.3-.69-.72-.79-1.02-.09-.28-.09-.5-.08-.59,0-.1.02-.16.02-.17l3.96.79c.03-.16.14-.68-.05-1.26-.11-.36-.37-.81-.87-1.14-.49-.32-.98-.36-1.31-.33-.55.04-.97.28-1.1.36-.2.12-.39.25-.55.37-.56.42-1.58,1.32-2.6,2.14-2.23,1.81-5.57,4.25-9.94,6.04-8.59,3.52-21.57,4.71-38.49-7.57l-2.37,3.27ZM253.16,238.38c-.34.58-.34,1.19-.34,1.41,0,.32.04.66.1.98.11.65.31,1.45.57,2.36.53,1.84,1.39,4.3,2.52,7.2,2.26,5.82,5.66,13.51,9.88,21.7,8.38,16.27,20.21,34.85,33.03,44.15l2.37-3.27c-11.98-8.69-23.45-26.51-31.81-42.73-4.15-8.06-7.49-15.63-9.7-21.31-1.11-2.84-1.92-5.19-2.41-6.87-.25-.85-.4-1.48-.47-1.9-.04-.22-.04-.32-.04-.34,0-.12.04.24-.22.67l-3.48-2.05ZM279.19,219.12c-.58-.59-1.3-.74-1.77-.77-.49-.03-.96.05-1.35.15-.8.2-1.71.59-2.65,1.06-1.89.97-4.24,2.5-6.68,4.37-4.86,3.73-10.39,9.04-13.57,14.45l3.48,2.05c2.81-4.77,7.89-9.72,12.55-13.29,2.32-1.78,4.46-3.16,6.07-3.98.82-.42,1.41-.65,1.78-.74.19-.05.21-.03.13-.04-.07,0-.48-.04-.86-.43l2.88-2.83ZM317.51,259.67c-3.91-3.03-11.29-10.9-18.89-19.27-7.51-8.26-15.15-16.93-19.43-21.28l-2.88,2.83c4.2,4.27,11.72,12.8,19.32,21.17,7.5,8.26,15.15,16.45,19.41,19.75l2.47-3.19ZM377.2,240.24c-4.74,1.65-9.85,4.65-15,7.86-5.22,3.25-10.51,6.74-15.84,9.6-10.77,5.78-20.58,8.38-28.85,1.97l-2.47,3.19c10.39,8.05,22.37,4.22,33.23-1.61,5.48-2.94,10.97-6.55,16.07-9.73,5.17-3.22,9.93-5.99,14.19-7.47l-1.33-3.82ZM381.62,243.62c.12-2.29-2.11-4.19-4.42-3.38l1.33,3.81c-.28.1-.54.02-.7-.1-.15-.12-.26-.32-.25-.55l4.03.22ZM371.32,285.92c4.54-13.64,9.57-27.46,10.29-42.31l-4.03-.2c-.69,14.18-5.49,27.4-10.09,41.23l3.83,1.28ZM365.57,308.75c1.13-7.76,3.24-15.32,5.75-22.82l-3.83-1.28c-2.55,7.62-4.75,15.43-5.92,23.53l4,.58ZM365.43,333.24c-.63-8.27-1.03-16.49.14-24.49l-4-.58c-1.24,8.48-.8,17.09-.17,25.38l4.03-.3ZM372.19,386.26c-.65-8.95-2.01-17.86-3.37-26.68-1.36-8.84-2.72-17.59-3.39-26.34l-4.03.31c.68,8.93,2.07,17.84,3.42,26.65,1.36,8.84,2.7,17.59,3.33,26.35l4.03-.29ZM370.07,414c.4-3.52,1.02-9.15,1.49-14.52.47-5.3.81-10.56.62-13.22l-4.03.29c.16,2.26-.14,7.18-.62,12.57-.47,5.32-1.08,10.91-1.48,14.42l4.01.46ZM363.68,417.92c2.94,1.16,6.05-.86,6.39-3.93l-4.01-.45c-.06.56-.56.75-.89.62l-1.49,3.76ZM348.12,411.07c1.43.65,11.15,5.09,15.56,6.85l1.49-3.75c-4.29-1.71-13.9-6.09-15.37-6.77l-1.68,3.67ZM348.96,409.24l.84-1.84-.84,1.84ZM347.83,405.92l-1.81-.9,1.81.9ZM354.22,313.91l1.98.4h0s-1.98-.4-1.98-.4ZM300.1,314.54l1.19-1.63h0s-1.19,1.63-1.19,1.63ZM254.9,239.4l1.74,1.03h0s-1.74-1.03-1.74-1.03ZM277.75,220.54l-1.44,1.41h0s1.44-1.41,1.44-1.41ZM316.27,261.27l-1.24,1.6h0s1.24-1.6,1.24-1.6ZM377.86,242.15l.66,1.91h0s-.67-1.91-.67-1.91ZM379.6,243.51l-2.02-.11h0s2.02.11,2.02.11ZM369.41,285.29l1.92.64h0s-1.92-.64-1.92-.64ZM363.57,308.46l2,.29h0s-2-.29-2-.29ZM363.42,333.39l-2.01.15h0s2.01-.15,2.01-.15ZM370.17,386.4l-2.01.15h0s2.01-.15,2.01-.15ZM368.07,413.77l-2.01-.23h0s2.01.23,2.01.23ZM364.42,416.04l-.75,1.88h0s.74-1.88.74-1.88Z"/>
        <path class="cls-11" d="M348.6,409.03c.11.08.23.15.36.2,1.45.66,11.11,5.07,15.47,6.81,1.63.65,3.44-.46,3.64-2.27.8-7.02,2.47-22.45,2.11-27.36-1.28-17.71-5.4-35.32-6.76-53.01-.63-8.28-1.05-16.7.15-24.93,1.15-7.93,3.31-15.61,5.84-23.17,4.57-13.74,9.49-27.26,10.19-41.77.05-.95-.87-1.67-1.74-1.36-18.01,6.27-42.93,33.56-61.59,19.12-8.17-6.33-30.05-32.11-38.52-40.73-1.62-1.65-16.86,8.69-22.85,18.86-1.38,2.34,20.4,57.15,45.2,75.14,34.96,25.37,54.86-4.34,54.12-.63-4.97,24.5,15.65,47.69-6.39,92.01-.54,1.08-.22,2.43.77,3.12Z"/>
        <path class="cls-17" d="M452.41,182.39c2.5-4.84,7.83-7.91,12.73-5.51,5.57,2.72,10.9,8.29,5.62,19.51-6.02,12.77-14.05,13.86-20.18,12.15-5.9-1.65-7.13-8.78-4.32-14.23l6.14-11.91Z"/>
        <g class="cls-21">
          <path class="cls-5" d="M466,175.06c-6.27-3.06-12.61,1.01-15.38,6.39l3.57,1.9c2.22-4.31,6.54-6.36,10.08-4.64l1.72-3.65ZM451.1,206.58c-2.16-.6-3.46-2.16-4-4.23-.55-2.13-.25-4.77.95-7.1l-3.57-1.9c-1.61,3.12-2.1,6.78-1.27,9.99.85,3.27,3.1,6.1,6.85,7.15l1.04-3.91ZM448.05,195.25l6.14-11.91-3.57-1.9-6.14,11.91,3.57,1.9ZM468.94,195.51c-2.87,6.1-6.1,9.15-9.09,10.55-2.98,1.4-6.01,1.29-8.75.53l-1.04,3.91c3.39.95,7.44,1.15,11.51-.76,4.06-1.91,7.86-5.79,11-12.46l-3.64-1.77ZM464.28,178.71c2.57,1.25,4.81,3.04,5.9,5.55,1.06,2.44,1.23,6-1.24,11.25l3.64,1.77c2.81-5.97,2.95-10.8,1.28-14.63-1.64-3.76-4.85-6.12-7.86-7.59l-1.72,3.65ZM450.58,208.54l.52-1.95-.52,1.95ZM470.76,196.39l1.82.88h0s-1.82-.88-1.82-.88Z"/>
        </g>
        <path class="cls-17" d="M453.48,185.69c-2.02,1.8-2.69-.34-2.69-1.68l-1.85,1.35-5.89,8.53,1.68,6.28c.67-1.8,1.8-.94,2.36-.34,2.52-6.28,8.42-15.93,6.4-14.14Z"/>
        <path class="cls-9" d="M460.89,176.96c12.76-.91,5.42-41.17-3.07-48.79-9.55-8.59-25.56-10.93-37.41-15.56-21.33-8.34-48.62-4.85-60.39,17.6-7.06,13.48-6.71,30.06-4.65,44.8.04.3.45.44.68.29,7.89-5.08,12.57-16.3,15.52-24.73,3.88-11.08,5.15-16.92,16.03-20.49.08-.03.14.03.2.05,22.86,8.28,46.4,48.74,73.07,46.84h.01Z"/>
        <g class="cls-27">
          <path class="cls-5" d="M460.88,178.98h.01v-4.04h-.01v4.04ZM387.12,132.03c5.37,1.94,10.9,5.83,16.7,10.72,5.81,4.91,11.62,10.58,17.74,16.11,6.06,5.47,12.34,10.73,18.85,14.5,6.52,3.77,13.4,6.13,20.61,5.62l-.29-4.03c-6.12.44-12.18-1.55-18.3-5.08-6.12-3.54-12.15-8.56-18.17-14-5.95-5.38-11.98-11.25-17.85-16.2-5.88-4.96-11.86-9.24-17.93-11.43l-1.37,3.8ZM388.26,131.98c-.59.2-1.09.06-1.29-.02-.09-.03-.15-.07-.13-.06,0,0,.03.01.05.03.03.01.08.04.14.06l1.55-3.73c.07.03.14.06.1.04,0,0-.11-.06-.23-.1-.27-.11-.84-.27-1.51-.04l1.32,3.82ZM373.48,151.23c2-5.7,3.19-9.6,5.17-12.62,1.86-2.84,4.48-4.95,9.58-6.62l-1.26-3.84c-5.78,1.9-9.24,4.49-11.7,8.24-2.34,3.56-3.72,8.12-5.61,13.5l3.81,1.34ZM357.15,177c4.34-2.79,7.68-7.19,10.28-11.82,2.61-4.65,4.56-9.69,6.05-13.95l-3.81-1.33c-1.46,4.18-3.32,8.96-5.76,13.3-2.45,4.36-5.39,8.11-8.94,10.4l2.18,3.4ZM353.38,175.26c.14,1.08.92,1.7,1.54,1.94.59.23,1.45.29,2.22-.2l-2.16-3.41c.55-.35,1.09-.27,1.4-.15.35.14.91.53,1,1.32l-4.01.51ZM358.24,129.27c-7.37,14.07-6.93,31.19-4.86,46.02l4-.56c-2.04-14.65-2.32-30.69,4.44-43.59l-3.58-1.87ZM421.15,110.73c-21.85-8.55-50.48-5.18-62.91,18.54l3.58,1.87c11.1-21.17,37.06-24.79,57.86-16.65l1.47-3.76ZM459.18,126.67c-5.1-4.59-11.82-7.42-18.55-9.68-3.38-1.13-6.83-2.14-10.12-3.14-3.31-1-6.47-2-9.35-3.12l-1.47,3.76c3.04,1.19,6.33,2.22,9.65,3.23,3.34,1.01,6.71,1.99,10.01,3.1,6.62,2.22,12.68,4.85,17.13,8.85l2.7-3ZM461.04,178.98c4.57-.33,6.89-4.22,7.92-8.48,1.05-4.35,1.04-9.98.38-15.65-.67-5.7-2.01-11.62-3.74-16.63-1.7-4.9-3.88-9.28-6.41-11.56l-2.7,3c1.71,1.54,3.63,5.05,5.29,9.87,1.63,4.72,2.91,10.35,3.55,15.78.64,5.46.6,10.54-.29,14.23-.92,3.79-2.47,5.27-4.28,5.4l.29,4.03ZM460.88,176.96v-2.02h-.14s.14,2.02.14,2.02ZM387.81,130.13l-.77,1.87.04.02.04.02.69-1.9ZM387.61,130.07l.63,1.92h.01s.01,0,.01,0l-.66-1.91ZM371.58,150.56l-1.91-.67h0s1.91.67,1.91.67ZM356.06,175.3l1.08,1.71h0s0,0,0,0l-1.09-1.7ZM355.38,175.01l2-.25h0s0-.03,0-.03l-2,.28ZM360.03,130.21l-1.79-.94h0s1.79.94,1.79.94ZM420.42,112.61l-.74,1.88h0s.73-1.88.73-1.88ZM457.83,128.17l-1.35,1.5h0l1.35-1.5ZM460.89,176.96v2.02h.14s-.14-2.02-.14-2.02Z"/>
        </g>
        <path class="cls-9" d="M363.77,167.99c-.01.34-.03.67-.05.99-.1,1.72-.99,3.27-2.3,4.38l-3.45,2.9c-2.22,1.87-5.64.83-6.44-1.96-.13-.45-.18-.92-.15-1.39l1.23-18.46,2.86-14.8c.22-1.14.59-2.25,1.1-3.3l5.35-11.08c1.01-2.1,2.56-3.9,4.48-5.23l12.4-8.55,9.97-5.89c2.25-1.33,4.83-1.98,7.44-1.86l37.06,1.62c2.79.12,5.47,1.11,7.67,2.82l18.47,14.33c2.39,1.86,4.09,4.47,4.81,7.41l5.51,22.29c.26,1.06.39,2.14.39,3.23v15.87c0,1.03-.55,1.98-1.44,2.49l-1.56.9c-1.22.7-3.2-.73-4.58-1.05-.93-.22-1.57-.73-1.84-1.65l-6.65-23.12c-1.15-3.98-4.07-7.22-7.91-8.77l-28.39-11.43-18.27-6.12c-2.26-.76-4.67-.9-7-.42l-10.76,2.23c-1.1.23-2.16.59-3.17,1.08l-3.53,1.72c-3.67,1.79-6.34,5.15-7.24,9.14l-3.98,17.58c-.96,4.23.1,9.77-.04,14.1Z"/>
        <path class="cls-12" d="M448.28,284.23h-68.32c-2.06,0-3.73,1.73-3.73,3.86v94.44c0,2.13,1.67,3.86,3.73,3.86h68.32c2.06,0,3.73-1.73,3.73-3.86v-94.44c0-2.13-1.67-3.86-3.73-3.86Z"/>
        <g class="cls-26">
          <path class="cls-5" d="M378.25,288.09c0-1.08.83-1.84,1.71-1.84v-4.04c-3.24,0-5.75,2.7-5.75,5.88h4.04ZM378.25,382.53v-94.44h-4.04v94.44h4.04ZM379.96,384.37c-.88,0-1.71-.76-1.71-1.84h-4.04c0,3.18,2.51,5.88,5.75,5.88v-4.04ZM448.28,384.37h-68.32v4.04h68.32v-4.04ZM449.99,382.53c0,1.08-.83,1.84-1.71,1.84v4.04c3.24,0,5.75-2.7,5.75-5.88h-4.04ZM449.99,288.09v94.44h4.04v-94.44h-4.04ZM448.28,286.25c.88,0,1.71.76,1.71,1.84h4.04c0-3.18-2.51-5.88-5.75-5.88v4.04ZM379.96,286.25h68.32v-4.04h-68.32v4.04Z"/>
        </g>
        <g class="cls-28">
          <g class="cls-24">
            <path class="cls-7" d="M443.69,289.08c-.02-1.21.96-2.21,2.18-2.21,1.86,0,3.37,1.49,3.37,3.34v91.14c0,1.85-1.51,3.34-3.37,3.34-1.78-.05-3.19-1.52-3.16-3.31.56-30.78,1.4-61.56.98-92.31Z"/>
            <g class="cls-25">
              <path class="cls-5" d="M445.87,284.85c-2.34,0-4.23,1.92-4.2,4.26l4.04-.06c0-.09.07-.16.16-.16v-4.04ZM445.92,382.68c-.68-.02-1.21-.58-1.2-1.25l-4.04-.07c-.05,2.89,2.23,5.28,5.12,5.36l.11-4.04ZM444.73,381.43c.56-30.76,1.41-61.58.98-92.37l-4.04.06c.42,30.71-.42,61.43-.98,92.24l4.04.07ZM447.22,381.36c0,.72-.59,1.32-1.35,1.32v4.04c2.96,0,5.39-2.38,5.39-5.36h-4.04ZM447.22,290.21v91.14h4.04v-91.14h-4.04ZM445.87,288.89c.77,0,1.35.61,1.35,1.32h4.04c0-2.98-2.43-5.36-5.39-5.36v4.04Z"/>
            </g>
          </g>
        </g>
        <path class="cls-5" d="M396.11,297.52l-1.11-.04-.16,4.04,1.11.04.16-4.04ZM394.24,301.97c0,.29-.21.2.29-.07.44-.24,1.03-.36,1.41-.35l.18-4.04c-1.14-.05-2.45.25-3.52.84-1.03.56-2.37,1.71-2.39,3.58l4.04.03ZM394.28,311.47c-.04-2.63-.08-6.61-.04-9.49l-4.04-.05c-.04,2.94,0,6.97.04,9.6l4.04-.06ZM394.96,312.23c-.31,0-.67-.28-.67-.76l-4.04.07c.04,2.53,2.03,4.69,4.64,4.73l.07-4.04ZM433.53,312.93l-38.57-.7-.07,4.04,38.57.7.07-4.04ZM434.22,312.18c0,.49-.37.76-.69.75l-.07,4.04c2.67.05,4.76-2.12,4.8-4.72l-4.04-.07ZM434.06,302.22c.22,3.12.21,7.25.16,9.96l4.04.08c.05-2.73.07-7.01-.17-10.32l-4.03.29ZM433.37,301.52c.31,0,.66.26.69.7l4.03-.28c-.17-2.49-2.23-4.48-4.75-4.46l.04,4.04ZM394.83,301.51c12.82.55,31.93.08,38.54,0l-.05-4.04c-6.72.08-25.65.54-38.32,0l-.17,4.04ZM396.03,299.54l-.08,2.02.17-4.04-.09,2.02ZM392.22,301.96l2.02.03h0s-2.02-.03-2.02-.03ZM392.26,311.5l-2.02.03h0s2.02-.03,2.02-.03ZM394.92,314.25l.04-2.02-.04,2.02ZM433.49,314.95l-.04,2.02h0s.04-2.02.04-2.02ZM436.24,312.21l-2.02-.04h0s2.02.04,2.02.04ZM436.07,302.07l-2.01.14h0s2.01-.14,2.01-.14ZM433.35,299.5l-.02-2.02h0s.02,2.02.02,2.02ZM394.92,299.5l.08-2.02-.16,4.04.09-2.02Z"/>
        <path class="cls-16" d="M394.92,299.5c12.75.54,31.76.08,38.43,0,1.42-.01,2.62,1.11,2.72,2.58.23,3.21.22,7.42.17,10.14-.03,1.55-1.25,2.76-2.75,2.74l-38.57-.7c-1.46-.03-2.63-1.24-2.66-2.75-.04-2.63-.08-6.64-.04-9.54.01-1.57,2.29-2.48,3.81-2.42l-1.11-.04Z"/>
        <path class="cls-5" d="M414.43,339.92c-.38-.07-.74-.25-1.03-.53l2.81-2.9c-.3-.29-.67-.47-1.06-.54l-.71,3.98ZM385.58,334.66c1.06.6,1.52,1.14,1.69,1.43.08.14.07.18.06.13,0-.06.01-.18.09-.29.15-.24.24-.09-.23-.06-.45.03-1.24-.08-2.33-.6l-1.73,3.65c1.52.72,3,1.06,4.31.98,1.29-.08,2.65-.6,3.42-1.84.8-1.29.6-2.77-.05-3.94-.64-1.15-1.76-2.15-3.22-2.98l-1.99,3.51ZM415.24,335.97c.32.07.67.23.97.52l-2.81,2.9c.31.3.67.46,1,.53l.84-3.95ZM413.25,357.28c.97-2.96,2.22-7.64,3.04-11.62.41-1.98.73-3.86.86-5.3.06-.7.08-1.41,0-2.01-.04-.29-.11-.7-.31-1.1-.2-.41-.68-1.08-1.6-1.27l-.84,3.95c-.75-.16-1.08-.69-1.18-.88-.09-.18-.09-.28-.08-.19.02.17.03.54-.03,1.16-.1,1.2-.39,2.89-.79,4.83-.8,3.85-2,8.38-2.92,11.18l3.84,1.26ZM418.06,366.97c.6-.2,1.68-.65,2.15-1.75.57-1.33-.19-2.43-.54-2.85-.41-.49-.96-.91-1.43-1.25-.5-.35-1.07-.72-1.61-1.07-1.15-.74-2.16-1.42-2.83-2.09-.33-.33-.47-.55-.52-.68-.02-.05-.02-.06-.02-.04,0,0,0,.02,0,.03,0,.01,0,.02,0,.02l-3.83-1.27c-.7,2.11.53,3.81,1.51,4.79,1.03,1.04,2.43,1.94,3.5,2.64.57.37,1.06.68,1.47.97.43.31.62.48.68.55.11.13-.45-.45-.08-1.32.27-.64.77-.67.28-.5l1.29,3.83ZM395.16,369.38c12.64.64,18.76-1.02,22.89-2.41l-1.28-3.83c-3.67,1.23-9.28,2.82-21.4,2.21l-.21,4.03ZM372.7,357.65c.33,1.11,1.14,2.32,2.19,3.47,1.09,1.19,2.57,2.44,4.43,3.6,3.72,2.33,9.01,4.32,15.85,4.67l.2-4.03c-6.14-.31-10.76-2.09-13.91-4.06-1.58-.99-2.77-2.01-3.6-2.91-.86-.94-1.21-1.62-1.29-1.89l-3.87,1.15ZM379.2,353.15c.18.08.28.18.19.1-.04-.03-.1-.08-.2-.15-.18-.14-.45-.35-.75-.56-.55-.4-1.42-.99-2.32-1.28-.44-.14-1.15-.3-1.92-.09-.92.25-1.55.92-1.86,1.73-.26.7-.27,1.47-.2,2.17.08.73.27,1.59.56,2.57l3.87-1.15c-.25-.85-.37-1.45-.41-1.85-.02-.2-.02-.32-.02-.38,0-.07.01-.04-.02.05-.04.09-.12.26-.29.42-.18.17-.38.27-.57.33-.18.05-.31.04-.36.04-.05,0-.06-.01-.02,0,.09.03.25.1.49.24.23.13.47.3.7.47.24.17.45.34.64.48.09.07.19.14.27.21.04.03.1.07.15.11.04.03.16.11.31.18l1.76-3.64ZM372.47,346.13c-.96,1.55-.97,3.17-.51,4.57.43,1.32,1.28,2.44,2.06,3.28.8.86,1.66,1.56,2.27,2.02.31.23.56.41.72.52.03.02.08.05.1.07.03.02.03.02.03.02,0,0,0,0-.01,0,0,0-.02-.01-.04-.03-.01-.01-.05-.04-.09-.07,0,0-.15-.13-.29-.32-.02-.03-.33-.42-.38-1.02,0-.33.2-1.06.42-1.41.26-.28.82-.63,1.08-.71.46-.12.84-.04.89-.03.12.02.22.05.26.07.09.03.16.06.17.07.03.01.05.02.06.03l-1.76,3.64s.04.02.07.03c.02.01.09.04.18.07.04.01.14.04.26.07.05,0,.43.09.89-.03.26-.09.82-.44,1.08-.71.22-.35.42-1.08.42-1.41-.05-.6-.36-.99-.38-1.02-.14-.19-.29-.32-.3-.33-.04-.04-.08-.07-.1-.08-.04-.03-.07-.05-.08-.06-.05-.03-.13-.09-.19-.13-.14-.09-.34-.24-.59-.42-.5-.38-1.16-.91-1.73-1.54-.6-.64-1.01-1.26-1.18-1.79-.15-.45-.12-.8.11-1.17l-3.43-2.13ZM376.91,347.21c.51-.5,1.13-.59,1.54-.55.35.03.61.15.7.19.11.06.19.11.22.13.03.02.06.04.06.04,0,0-.01-.01-.06-.06-.05-.05-.1-.1-.18-.17-.28-.27-.75-.75-1.28-1.16-.49-.38-1.3-.93-2.29-1.06-.55-.07-1.17-.01-1.78.29-.6.3-1.04.76-1.36,1.27l3.42,2.14s-.06.1-.27.21c-.21.11-.42.11-.53.1-.13-.02-.03-.03.32.24.31.24.61.54.92.85.13.13.32.32.49.46.07.06.26.22.51.34.12.06.4.19.78.22.43.04,1.07-.06,1.6-.57l-2.81-2.9ZM372.45,341.25c-.83,3.44.76,5.78,2.28,7.14.73.66,1.48,1.13,1.9,1.4.27.17.3.2.27.18-.02-.02-.07-.06-.14-.14-.06-.07-.18-.22-.28-.45-.11-.24-.22-.63-.14-1.11.08-.5.34-.86.58-1.09l2.77,2.94c.27-.26.54-.65.63-1.17.09-.51-.03-.93-.15-1.21-.21-.47-.54-.75-.63-.83-.24-.21-.56-.41-.73-.52-.46-.29-.94-.6-1.39-1.01-.84-.76-1.42-1.68-1.06-3.19l-3.93-.95ZM378.23,343.18c.1.09,0,.01-.1-.13-.02-.02-.16-.21-.26-.48-.05-.13-.17-.49-.11-.95.07-.6.43-1.2,1.06-1.53.49-.26.93-.24,1.09-.23.2.01.34.05.42.07.15.04.25.09.28.11.1.05.16.09.07.03-.06-.04-.12-.07-.23-.14-.39-.24-1.1-.68-1.91-1.02-.74-.32-1.9-.71-3.08-.53-.65.1-1.33.37-1.91.93-.56.55-.9,1.24-1.07,1.96l3.93.95c.04-.17.06-.12-.05,0-.12.12-.25.15-.29.16-.02,0,.05,0,.24.03.18.04.4.11.65.22.51.22,1,.52,1.36.74.08.05.18.11.24.15.03.02.18.12.34.19.04.02.16.07.31.12.08.02.23.06.43.08.16.01.61.03,1.09-.23.63-.33.98-.93,1.06-1.54.06-.47-.07-.83-.11-.96-.11-.28-.25-.47-.28-.51-.13-.18-.3-.34-.33-.37l-2.81,2.9ZM375.15,333.63c-1.11,2.83-.56,5.13.51,6.81.92,1.46,2.44,2.61,2.57,2.73l2.81-2.9c-.74-.72-1.38-1.07-1.97-1.99-.44-.7-.76-1.66-.16-3.17l-3.76-1.48ZM384.84,335.27c-.62-.29-1.22-.78-1.85-1.39-.31-.3-.6-.62-.91-.94-.29-.31-.61-.66-.93-.96-.31-.29-.71-.64-1.18-.89-.48-.26-1.19-.52-2.03-.36-.85.16-1.45.67-1.85,1.17-.39.49-.69,1.09-.94,1.72l3.76,1.48c.18-.45.3-.64.34-.68.02-.03-.15.2-.55.27-.4.07-.65-.06-.65-.07,0,0,.02.01.09.06.06.05.14.12.25.22.21.2.45.46.76.79.3.32.65.69,1.03,1.06.76.74,1.73,1.58,2.95,2.16l1.73-3.65ZM383.01,332.05c.58,1.27,1.6,2.07,2.56,2.61l1.99-3.51c-.58-.33-.8-.6-.88-.78l-3.67,1.68ZM393.94,326.29c-3.65-.76-6.54-.56-8.52.38-1,.47-1.87,1.19-2.36,2.17-.51,1.02-.53,2.17-.06,3.2l3.67-1.69c.04.08.03.22,0,.29-.02.03.06-.13.48-.33.87-.41,2.75-.74,5.96-.07l.82-3.96ZM403.5,328.54c-1.75-.81-2.69-1.09-4.01-1.3-1.2-.19-2.56-.33-5.55-.95l-.82,3.96c3.1.64,4.69.81,5.72.98.91.15,1.49.29,2.95.97l1.7-3.66ZM415.15,335.95c-1.98-.35-3.52-1.42-5.3-2.89-1.7-1.4-3.74-3.31-6.35-4.52l-1.7,3.67c2,.93,3.51,2.35,5.47,3.97,1.87,1.55,4.1,3.2,7.16,3.75l.71-3.98ZM414.79,337.93l.36-1.99-.36,1.99ZM414.82,337.95l.42-1.98-.42,1.98ZM411.33,356.65l1.92.63h0s-1.92-.63-1.92-.63ZM417.41,365.06l.64,1.91h0s-.65-1.91-.65-1.91ZM395.26,367.37l.1-2.02h0s-.1,2.02-.1,2.02ZM374.63,357.07l-1.94.57h0s1.94-.57,1.94-.57ZM378.32,354.97l.88-1.82-.88,1.82ZM374.19,347.19l-1.71-1.07h0s1.72,1.07,1.72,1.07ZM378.32,348.66l-1.38-1.47h-.01s-.01.02-.01.02l1.4,1.45ZM374.42,341.73l-1.96-.48h0s1.96.48,1.96.48ZM384.85,331.21l1.84-.84h0s-1.84.84-1.84.84ZM393.53,328.27l.41-1.98h0s-.41,1.98-.41,1.98ZM402.65,330.37l-.85,1.83h0s.85-1.83.85-1.83Z"/>
        <path class="cls-17" d="M414.8,337.94s0,0-.02,0c-5.04-.9-7.53-5.43-12.14-7.57-3.21-1.49-3.03-.84-9.12-2.1-6.86-1.42-9.55,1.05-8.68,2.94.33.73.95,1.26,1.72,1.7,5.04,2.85,2.64,6.67-2.59,4.19-3.68-1.74-5.24-7.07-6.95-2.73-1.71,4.35,1.73,6.52,2.6,7.36.99.96-4.35-3.57-5.21,0-1.2,4.95,4.35,6.52,3.9,6.94-.22.21-2.82-3.57-4.13-1.47-2.4,3.86,4.51,7.96,4.13,7.78-.43-.21-5.87-5.26-3.68,2.1.82,2.75,7.65,9.64,20.63,10.3,12.38.63,18.25-1,22.15-2.31,4.35-1.47-7.36-4.56-6.08-8.41,1.9-5.77,4.9-18.4,3.49-18.7,0,0-.01,0-.02,0Z"/>
        <path class="cls-5" d="M411.97,334.4c.06-.2.09-.4.09-.61h-4.04c0-.21.03-.41.09-.61l3.85,1.22ZM489.82,331c-.49-8.12-7.68-14.02-15.71-13.15l.43,4.02c5.8-.63,10.89,3.61,11.24,9.38l4.03-.24ZM407.99,367.51c.69,1.06,1.74,1.71,2.98,1.87l.52-4.01s-.06-.01-.07-.01c0,0,0,0,0,0,0,0,0,0,0,0,0,0-.02-.02-.04-.05l-3.39,2.2ZM409.43,331.85c-.09.03-.72.22-1.12.9-.46.78-.22,1.52-.19,1.63.03.08.05.15.05.13,0,0,0,0,0,0,0,0,0,0,0,0,0,0,0,0,0,0,0,0,0-.01,0-.02,0-.02-.02-.04-.03-.07-.04-.13-.1-.35-.1-.63h4.04c0-.28-.06-.51-.1-.64-.01-.03-.02-.06-.03-.07,0,0,0-.02,0-.02,0,0,0,0,0,0,0,0,0,0,0,0,0-.02.02.05.05.13.04.11.27.85-.19,1.63-.4.67-1.03.87-1.12.89l-1.24-3.84ZM474.12,317.85c-31.93,3.46-64.47,13.93-64.69,14l1.24,3.84c.18-.06,32.39-10.42,63.88-13.83l-.43-4.02ZM487.81,355.67c2.12-7.46,2.55-15.79,2.02-24.68l-4.03.24c.52,8.63.08,16.47-1.87,23.33l3.89,1.1ZM463.03,372.47c4.29-.26,9.62-1.68,14.29-4.37,4.67-2.69,8.88-6.77,10.49-12.43l-3.89-1.1c-1.23,4.32-4.51,7.67-8.62,10.03-4.11,2.36-8.83,3.62-12.51,3.84l.24,4.03ZM410.97,369.38c5.01.65,28.18,3.13,51.95,3.09v-4.04c-23.55.04-46.53-2.42-51.43-3.06l-.52,4.01ZM403.26,351.95c.25,7.86,3.34,13.45,4.72,15.56l3.39-2.2c-1.14-1.75-3.85-6.63-4.07-13.49l-4.04.13ZM408.12,333.18c-1.45,4.58-5.06,8.5-4.86,18.74l4.04-.08c-.18-9.42,2.75-11.37,4.67-17.45l-3.85-1.22ZM410.05,333.79l-1.93-.61,1.93.61ZM409.68,366.41l-1.69,1.1,1.69-1.1ZM410.05,333.77l-.62-1.92.62,1.92ZM485.86,355.12l-1.94-.55h0s1.94.55,1.94.55ZM462.91,370.46v2.02s.06,0,.06,0h.06s-.12-2.02-.12-2.02ZM405.28,351.88l-2.02.04h0s0,.02,0,.02l2.02-.06Z"/>
        <path class="cls-11" d="M410.05,333.78s0,0,0,0c-1.69,5.33-4.95,8.26-4.76,18.1.23,7.36,3.14,12.59,4.39,14.53.36.56.89.88,1.55.97,4.96.64,28.03,3.11,51.69,3.08,7.97-.48,20.12-5.35,22.95-15.33,2.03-7.16,2.47-15.24,1.94-24-.42-6.94-6.56-12.01-13.47-11.26-31.71,3.43-64.09,13.85-64.28,13.91,0,0,0,0,0,.01Z"/>
        <path class="cls-11" d="M470.38,354.13l4.27-12.72c2.85-8.49-17.56-13.5-10.92-19.51,1.8-1.63,3.16-7.68,5.05-9.2l3.91-3.15c1.18-.95,2.76-1.22,4.18-.71l8.81,3.14c4.58,1.64,7.93,5.62,8.75,10.42l2.11,12.37c.26,1.54.26,3.12-.02,4.66l-2.51,13.84c-.58,3.21-2.32,6.09-4.83,8.18-2.77,2.3-5.92,5.01-7.57,6.72-6.01,6.22-13.98-5.84-11.23-14.04Z"/>
        <path class="cls-5" d="M352.26,319.09c1.75-8.58,4.65-16.68,8.74-24.36.5-.94-.88-1.77-1.38-.83-4.15,7.81-7.11,16.04-8.9,24.76-.22,1.04,1.33,1.48,1.55.44Z"/>
        <path class="cls-5" d="M350.38,318.58c-.15.73.33,1.25.85,1.39.26.07.56.06.82-.07.27-.14.46-.4.54-.75l-.66-.14c-.04.17-.12.25-.19.29-.08.04-.2.06-.32.02-.25-.07-.44-.29-.37-.61l-.66-.14ZM359.32,293.73c-4.17,7.84-7.14,16.09-8.93,24.85l.66.14c1.78-8.69,4.73-16.89,8.87-24.67l-.59-.32ZM361.29,294.88c.35-.66.03-1.29-.44-1.57-.23-.14-.52-.21-.81-.15-.3.06-.56.25-.73.57l.59.32c.08-.15.18-.21.27-.23.1-.02.21,0,.33.07.23.14.34.39.19.67l.59.32ZM352.59,319.16c1.74-8.55,4.63-16.62,8.7-24.27l-.59-.32c-4.1,7.71-7.01,15.84-8.77,24.45l.66.13ZM350.71,318.65l.33.07h0s-.33-.07-.33-.07ZM359.61,293.89l.3.16h0s-.3-.16-.3-.16ZM360.99,294.73l.3.16h0s-.3-.16-.3-.16ZM352.26,319.09l.33.07h0s-.33-.07-.33-.07Z"/>
        <path class="cls-5" d="M380.71,342.97s0,0,0,0c1.85,2.32,4.56,3.8,7.46,4.15.41.05.41-.61,0-.66-2.73-.32-5.26-1.77-7-3.95-.25-.33-.71.14-.45.46,0,0,0,0,0,0Z"/>
        <path class="cls-5" d="M380.97,342.76c.17.22.02.54-.26.54v-.67c-.29,0-.44.33-.27.55l.53-.42ZM380.45,343.18c-.16-.19-.06-.54.26-.54v.67c.32,0,.42-.36.26-.55l-.52.43ZM381.43,342.3c-.12-.16-.3-.25-.49-.24-.18,0-.33.09-.43.2-.2.2-.32.59-.05.92l.52-.43s0,0,0,0c0,0,0,0,0,0,0,0,0-.02.01-.03,0,0,0,0,0,0,0,0-.01,0-.03,0-.02,0-.04,0-.05-.01-.01,0-.02-.01-.01,0l.53-.41ZM388.2,346.12c-2.64-.31-5.09-1.71-6.77-3.83l-.53.42c1.79,2.25,4.4,3.75,7.22,4.08l.08-.67ZM388.12,347.45c.2.03.39-.04.52-.18.12-.13.17-.3.17-.45,0-.28-.18-.65-.6-.7l-.09.67s0,0,0,0c0,0,0,0,0,0,0,0,0,.02,0,.04,0,0,0,.01,0,0,0,0,0,0,.01-.02.01-.01.03-.02.04-.03.02,0,.02,0,.02,0l-.09.67ZM380.44,343.18c1.91,2.39,4.69,3.92,7.68,4.27l.08-.67c-2.81-.33-5.44-1.77-7.23-4.02l-.53.42ZM380.71,342.97l.26-.21-.26.21ZM380.71,342.96l.26-.21-.26.21ZM381.16,342.5l-.27.21h0s.26-.21.26-.21ZM388.16,346.46l.04-.33h0s-.04.33-.04.33ZM388.16,347.12l.04-.33h0s-.04.33-.04.33Z"/>
        <path class="cls-5" d="M378.23,356.09s0,0,0,.01c1.79,2.12,4.29,3.47,6.98,3.84.41.05.4-.61,0-.66-2.52-.34-4.87-1.68-6.53-3.66-.27-.31-.71.14-.45.46,0,0,0,.01,0,.01Z"/>
        <path class="cls-5" d="M378.49,355.89c.11.13.1.32-.02.44l-.48-.47c-.12.13-.13.33-.02.46l.52-.43ZM377.97,356.29c-.1-.12-.1-.3.02-.43l.48.47c.13-.13.12-.33.02-.46l-.52.42ZM378.94,355.4c-.13-.15-.3-.23-.49-.23-.18,0-.33.09-.43.2-.2.21-.31.59-.05.91l.52-.42s0,0,0,0c0,0,0,0,0,0,0,0,0,0,0,0,0,0,0-.01.01-.02,0,0,0,0-.02,0-.01,0-.03,0-.04,0-.01,0-.01-.01,0,0l.51-.43ZM385.26,358.95c-2.43-.33-4.7-1.62-6.31-3.54l-.52.43c1.71,2.04,4.14,3.42,6.74,3.78l.09-.67ZM385.17,360.28c.2.03.39-.04.52-.18.12-.13.16-.3.16-.45,0-.28-.18-.65-.59-.7l-.09.67s0,0,0,0c0,0,0,0,0,0,0,0,.01.02.01.04,0,0,0,.01,0,.01,0,0,0-.01.01-.02.01-.01.03-.02.05-.03.02,0,.03,0,.02,0l-.09.67ZM377.97,356.32c1.84,2.19,4.42,3.58,7.19,3.96l.09-.67c-2.61-.36-5.04-1.66-6.77-3.72l-.52.43ZM378.23,356.1l.26-.22-.26.22ZM378.69,355.62l.26-.22h0s-.26.22-.26.22ZM385.21,359.28l-.05.33h0s.04-.33.04-.33ZM385.21,359.94l-.05.33h0s.04-.33.04-.33Z"/>
        <path class="cls-5" d="M377.56,348.89c1.71,2.87,5.11,3.44,8.08,3.83.41.05.41-.61,0-.66-2.73-.36-5.95-.86-7.54-3.5-.22-.36-.77-.03-.55.33Z"/>
        <path class="cls-5" d="M378.4,348.39c-.1-.17-.26-.28-.44-.31-.17-.03-.33.01-.46.09-.13.08-.24.2-.29.37-.06.17-.03.36.07.53l.58-.35s0,0,0,0c0,0,0,.02,0,.02,0,0,0,0,0,0,0,0,0,0,0,0,0,0,0,0,0,0,0,0,0,0,0,0,0,0-.01,0-.02,0,0,0,0,0,0,0l.58-.35ZM385.69,351.73c-1.37-.18-2.82-.39-4.13-.88-1.3-.48-2.42-1.23-3.17-2.47l-.58.35c.84,1.41,2.12,2.23,3.51,2.75,1.38.52,2.91.73,4.27.91l.09-.67ZM385.6,353.06c.2.03.39-.04.52-.18.12-.13.17-.3.17-.45,0-.28-.18-.65-.6-.7l-.09.67s0,0,0,0c0,0,0,0,0,0,0,0,0,.02,0,.04,0,0,0,.01,0,0,0,0,0,0,.01-.02.01-.01.03-.02.04-.03.02,0,.02,0,.02,0l-.09.67ZM377.27,349.06c1.81,3.03,5.38,3.6,8.33,3.99l.09-.67c-3-.4-6.22-.96-7.84-3.67l-.58.34ZM378.11,348.56l.29-.17h0s-.29.17-.29.17ZM385.65,352.06l-.04.33h0s.04-.33.04-.33ZM385.65,352.73l-.04.33h0s.04-.33.04-.33ZM377.56,348.89l.29-.17h0s-.29.17-.29.17Z"/>
        <path class="cls-5" d="M240.21,212.18c1.79.44,3.23,1.16,4.91.1,1.67-1.06,2.55-2.91,3.7-4.42.61-.82,1.33-1.67,2.27-2.06,1.07-.45,2.24-.22,3.33.03,1.75.41,3.56.98,5.2-.07.34-.22.03-.79-.32-.57-1.83,1.18-3.98.04-5.91-.22-1.6-.22-2.94.19-4.1,1.35-1.3,1.32-2.15,3.04-3.37,4.42-1.72,1.93-3.46,1.33-5.71.79-.4-.09-.41.57,0,.66Z"/>
        <path class="cls-5" d="M240.28,211.19c-.2-.05-.4,0-.54.14-.13.13-.17.3-.18.44,0,.28.17.64.56.73l.15-.66s-.02,0-.02-.02c0-.01-.02-.03-.02-.05,0-.02,0,0-.02.03-.02.02-.04.03-.06.04-.02,0-.03,0-.03,0l.15-.66ZM245.67,210.5c-.8.9-1.58,1.19-2.42,1.21-.87.02-1.81-.25-2.96-.52l-.16.65c1.1.26,2.15.57,3.14.54,1.03-.03,1.98-.4,2.9-1.43l-.5-.45ZM249.05,206.08c-.67.68-1.23,1.47-1.75,2.23-.53.77-1.04,1.53-1.63,2.19l.5.45c.63-.71,1.16-1.5,1.68-2.26.53-.77,1.05-1.5,1.68-2.14l-.48-.47ZM253.44,204.63c-1.7-.24-3.14.2-4.38,1.44l.48.48c1.08-1.08,2.32-1.46,3.81-1.25l.09-.67ZM259.12,204.91c-.81.52-1.71.54-2.68.38-.49-.08-.98-.21-1.49-.34-.5-.12-1.01-.25-1.52-.32l-.09.67c.46.06.94.18,1.44.31.5.12,1.02.26,1.54.35,1.04.18,2.14.18,3.16-.48l-.36-.57ZM259.81,206.04c.36-.23.35-.65.21-.9-.07-.13-.19-.25-.36-.31-.18-.06-.37-.04-.54.07l.37.56s0,0-.01,0c-.01,0-.03,0-.04,0-.01,0-.01,0-.01,0,0,0,0,0,0,0,0,0,0,.01,0,.02,0,0,0,0,0,0,0,0,0,0,0-.01,0,0,0,0,0,0l.37.56ZM254.35,206.15c.86.2,1.78.46,2.69.52.92.07,1.87-.06,2.76-.63l-.36-.57c-.74.47-1.52.59-2.35.53-.84-.06-1.7-.29-2.59-.5l-.15.66ZM251.22,206.11c.96-.4,2.02-.21,3.13.04l.15-.66c-1.09-.25-2.35-.51-3.54,0l.26.62ZM249.09,208.06c.61-.82,1.28-1.6,2.13-1.95l-.26-.62c-1.04.44-1.8,1.35-2.41,2.17l.54.4ZM245.29,212.56c.89-.56,1.56-1.33,2.14-2.12.29-.4.57-.81.83-1.21.27-.4.54-.79.82-1.16l-.54-.41c-.29.39-.57.79-.84,1.19-.27.4-.54.8-.82,1.19-.56.77-1.17,1.46-1.96,1.95l.36.57ZM240.13,212.5c.44.11.85.23,1.28.35.42.11.84.22,1.26.27.86.11,1.72.02,2.63-.56l-.36-.57c-.76.48-1.45.56-2.19.46-.37-.05-.76-.14-1.17-.25-.4-.11-.84-.24-1.29-.35l-.16.65ZM240.21,211.52l.08-.33h0s-.08.33-.08.33ZM245.92,210.73l.25.22h0s-.25-.22-.25-.22ZM249.29,206.31l-.24-.24h0s.24.24.24.24ZM253.39,204.97l-.05.33h0s.05-.33.05-.33ZM259.3,205.19l.18.28h0s-.18-.28-.18-.28ZM259.62,205.76l.18.28h0s-.18-.28-.18-.28ZM254.43,205.82l.08-.33h0s-.08.33-.08.33ZM251.09,205.8l-.13-.31h0s.13.31.13.31ZM248.82,207.86l.27.2h0s-.27-.2-.27-.2ZM240.21,212.18l.08-.33h0s-.07.33-.07.33Z"/>
        <path class="cls-5" d="M239.9,211.18s0,0,0-.01c-2.57-3.04.42-7.44,2.45-9.83,2.3-2.7,5.67-5.05,9.25-5.02.41,0,.41-.66,0-.66-4.2-.03-8.19,3.01-10.64,6.36-1.93,2.64-4.02,6.68-1.51,9.64.27.31.72-.14.45-.46,0,0,0-.01,0-.01Z"/>
        <path class="cls-5" d="M239.65,211.38c-.1-.12-.11-.31.01-.44l.48.47c.13-.13.13-.33.02-.46l-.51.43ZM240.16,210.98c.1.12.11.31-.01.44l-.48-.47c-.13.14-.12.34-.02.47l.51-.43ZM239.19,211.87c.13.15.3.23.49.23.18,0,.33-.09.43-.2.21-.21.32-.6.05-.92l-.51.43s0,0,0,0c0,0,0,0,0,0,0,0,0,0,0,.01,0,0,0,0,0,0,0,0,0,0,.02,0,.01,0,.03,0,.04,0,.01,0,.01.01.01,0l-.51.43ZM240.68,201.81c-.97,1.34-2.01,3.04-2.47,4.81-.47,1.78-.37,3.65.98,5.24l.51-.44c-1.16-1.37-1.28-2.99-.84-4.63.43-1.65,1.41-3.28,2.37-4.59l-.54-.4ZM251.6,195.32c-4.36-.03-8.43,3.11-10.91,6.5l.54.4c2.42-3.3,6.32-6.25,10.37-6.22v-.67ZM251.6,196.65c.2,0,.37-.09.49-.23.11-.13.15-.29.15-.44s-.05-.31-.15-.44c-.12-.14-.29-.23-.49-.23v.67s0,0,0,0c0,0,0,0-.01,0,0,0,0,0-.01,0,0,0,0,0,0,0,0,0,0,0,0,0,0,0,0,0,0,.02s0,.01,0,.02c0,0,0,0,0,0,0,0,0,0,0,0,0,0,0,0,.01,0,0,0,0,0,.01,0,0,0,0,0,0,0v.67ZM242.6,201.56c2.27-2.66,5.56-4.93,8.99-4.91v-.67c-3.71-.03-7.17,2.41-9.5,5.14l.51.44ZM240.16,210.95c-1.17-1.39-1.1-3.1-.44-4.82.66-1.72,1.88-3.39,2.89-4.57l-.51-.44c-1.02,1.21-2.31,2.94-3.01,4.77-.7,1.83-.84,3.84.56,5.5l.51-.43ZM239.9,211.17l.26-.22-.26.22ZM239.9,211.19l.26-.22-.26.22ZM239.45,211.65l.26-.22h0s-.26.22-.26.22ZM240.96,202.01l-.27-.2h0s.27.2.27.2ZM251.6,195.65v.34s0,0,0,0v-.34ZM251.6,196.31v.34s0,0,0,0v-.34ZM242.35,201.34l-.26-.22h0s.26.22.26.22Z"/>
        <path class="cls-5" d="M235.75,203.91c.33,1.22,1.19,2.13,2.26,2.32.29.05.4-.46.12-.52-.91-.16-1.66-.88-1.95-1.94-.09-.32-.52-.18-.43.14Z"/>
        <path class="cls-5" d="M236.51,203.68c-.04-.16-.14-.29-.28-.37-.14-.07-.29-.08-.43-.04-.28.09-.46.38-.37.72l.65-.18s0,.02-.01.05c-.01.03-.04.04-.06.05-.02,0-.06,0-.1-.01-.04-.02-.05-.05-.05-.05l.65-.18ZM238.19,205.38c-.76-.14-1.42-.75-1.68-1.7l-.65.18c.32,1.16,1.16,1.99,2.21,2.18l.12-.66ZM237.95,206.56c.18.03.35-.03.47-.13.11-.1.17-.22.2-.34.03-.12.03-.26-.04-.4-.07-.15-.2-.27-.39-.3l-.12.66s-.04-.01-.06-.03c-.02-.02-.03-.04-.04-.05-.01-.03,0-.03,0-.02,0,0,0,0,.01,0,0,0,.02-.02.05-.03.02,0,.04,0,.06,0l-.12.66ZM235.43,204c.36,1.31,1.3,2.35,2.53,2.56l.11-.66c-.91-.16-1.69-.95-1.99-2.07l-.65.18ZM236.18,203.77l.32-.09h0s-.32.09-.32.09ZM238.13,205.71l.06-.33h0s-.06.33-.06.33ZM238.01,206.23l.06-.33h0s-.06.33-.06.33ZM235.75,203.91l.32-.09h0s-.32.09-.32.09Z"/>
        <path class="cls-5" d="M233.14,211.03c3.47,3.62,8.25,8.26,13.59,7.15,1.6-.33,2.66-1.61,3.26-3.08.33-.81.15-1.73-.01-2.55-.05-.22-1.24-2.15-1.46-1.86-.24.34.31.67.55.33l.09-.12c.09-.12.04-.3-.05-.4-.24-.25-.32-.29-.66-.2-.13.04-.24.17-.23.32,0,.21-.03.45.11.62,3.7,4.47-1.88,7.05-5.38,6.21-3.5-.83-6.86-4.3-9.35-6.87-.29-.3-.74.16-.45.46h-.01Z"/>
        <path class="cls-5" d="M233.39,210.81h-.01s-.48.45-.48.45h.01s.48-.45.48-.45ZM233.84,210.35c-.14-.14-.32-.21-.5-.2-.17.01-.32.1-.43.2-.21.22-.3.62,0,.93l.48-.47s0,0,0,0c0,0,0,.01,0,.02,0,0,0,0,0,0,0,0,0,0,0,0,0,0,0,0,0,0,0,0,0,0-.01,0,0,0-.02,0-.03,0,0,0,0,0,0,0l.48-.47ZM243.03,217.13c-1.68-.4-3.35-1.44-4.92-2.72-1.57-1.28-3.02-2.77-4.27-4.06l-.48.47c1.24,1.29,2.72,2.81,4.33,4.12,1.6,1.3,3.37,2.42,5.19,2.85l.16-.65ZM248.07,211.46c.89,1.08,1.19,1.99,1.14,2.74-.05.74-.45,1.37-1.08,1.88-1.28,1.03-3.44,1.45-5.1,1.05l-.16.65c1.84.44,4.22-.01,5.68-1.18.74-.59,1.26-1.39,1.33-2.36.06-.97-.33-2.05-1.29-3.21l-.52.43ZM247.87,210.62c0,.08,0,.23,0,.36.01.14.06.32.18.47l.52-.43s-.03-.05-.04-.12c0-.08,0-.16,0-.29h-.67ZM248.34,209.98c-.24.08-.5.33-.47.67l.67-.06s0,.04,0,.04c0,0,0,0,0,0,0,0,0,0,0,0l-.2-.64ZM249.35,210.27c-.11-.12-.25-.25-.43-.31-.2-.06-.39-.02-.56.03l.17.65c.17-.05.19-.03.18-.03,0,0,0,0,.03.02.03.02.07.06.13.12l.48-.47ZM249.43,211.1c.12-.15.13-.33.1-.47-.02-.13-.09-.27-.18-.36l-.48.47s0,0,0,0c0,0,0,0,0,.01,0,0,0,0,0,0,0,0,0-.03.02-.04l.54.4ZM249.34,211.22l.09-.12-.54-.4-.09.12.54.4ZM248.24,210.49c-.11.16-.15.35-.1.53.05.17.17.3.29.37.25.15.66.16.91-.19l-.55-.39s0,0,0,0c0,0,0,0,0,0,0,0,0,0,0,0,0,0,0,0,0,0,0,0,0,0,0,0,0,0,0,0,0,.02,0,.01,0,.03,0,.04,0,.01,0,.01,0,0l-.55-.39ZM250.3,212.48c-.02-.08-.06-.17-.1-.24-.04-.08-.1-.18-.16-.29-.13-.22-.29-.48-.46-.72-.17-.24-.35-.48-.52-.65-.08-.08-.18-.16-.28-.22-.05-.03-.14-.06-.24-.05-.12.01-.22.07-.29.16l.54.4c-.04.06-.11.1-.19.1-.06,0-.1-.01-.1-.01,0,0,.03.02.09.08.12.12.28.32.44.56.16.23.32.48.43.68.06.1.11.19.14.25.04.08.04.1.04.08l.66-.15ZM250.3,215.23c.38-.92.17-1.95,0-2.75l-.66.13c.17.84.32,1.66.03,2.36l.62.26ZM246.8,218.51c1.75-.36,2.88-1.76,3.5-3.28l-.62-.25c-.58,1.41-1.57,2.58-3.01,2.88l.14.66ZM232.9,211.27c1.74,1.81,3.82,3.9,6.16,5.4,2.33,1.5,4.96,2.43,7.74,1.85l-.14-.66c-2.55.53-4.99-.31-7.24-1.75-2.26-1.45-4.3-3.49-6.03-5.3l-.49.47ZM233.15,211.05l-.24.23.48-.47-.24.23ZM248.33,211.24l-.26.21h0s.26-.21.26-.21ZM248.21,210.62h.34s0-.03,0-.03l-.34.03ZM248.44,210.31l-.09-.33h-.01s.1.33.1.33ZM249.16,210.9l.27.2h0s-.27-.2-.27-.2ZM249.07,211.02l-.27-.2h0s.27.2.27.2ZM248.52,210.69l-.27-.2h0s.27.2.27.2ZM249.97,212.55l.33-.07h0s-.33.07-.33.07ZM249.99,215.1l-.31-.13h0s.31.13.31.13ZM246.73,218.18l-.07-.33h0s.07.33.07.33ZM233.14,211.03l.24-.23-.48.47.24-.23Z"/>
        <path class="cls-5" d="M230.74,220.55s0,0,0,.01c2.78,2.42,6.22,6.86,10.29,5.71,3.37-.95,3.9-5.31,2.3-7.98-.22-.36-.77-.03-.55.33,2.08,3.48-.26,8.02-4.43,7.05-2.53-.59-5.21-3.87-7.17-5.58-.32-.28-.76.19-.45.46,0,0,0,0,0,.01Z"/>
        <path class="cls-5" d="M230.96,220.3c.07.06.11.15.11.24h-.67c0,.1.04.2.12.26l.44-.51ZM230.51,220.79c-.07-.06-.11-.14-.11-.24h.67c0-.11-.05-.21-.12-.27l-.44.51ZM231.41,219.82c-.33-.28-.72-.17-.92.05-.1.11-.18.26-.19.43,0,.18.07.36.22.49l.44-.51s0,0,0,.01c0,.01,0,.02,0,.04,0,.01,0,.02,0,.02,0,0,0,0,0,0,0,0,0,0,0,0,0,0,0,0,0,0,0,0,0,0-.01,0,0,0,0,0,0,0l.44-.51ZM238.43,225.33c-1.17-.28-2.42-1.19-3.65-2.3-.61-.55-1.2-1.13-1.77-1.69-.56-.55-1.11-1.09-1.6-1.52l-.44.51c.48.42,1.01.94,1.57,1.49.56.56,1.17,1.15,1.79,1.71,1.23,1.11,2.59,2.13,3.95,2.45l.15-.66ZM242.49,218.78c.98,1.63.91,3.51.13,4.85-.77,1.33-2.26,2.15-4.2,1.69l-.15.66c2.24.52,4.01-.44,4.93-2.01.91-1.56.97-3.69-.13-5.54l-.58.35ZM243.62,218.11c-.1-.17-.26-.28-.44-.31-.17-.03-.33.01-.46.09-.13.08-.24.2-.29.37-.06.17-.03.36.07.53l.58-.35s0,0,0,0c0,0,0,.02,0,.02,0,0,0,0,0,0,0,0,0,0,0,0,0,0,0,0,0,0,0,0,0,0,0,0,0,0-.01,0-.02,0,0,0,0,0,0,0l.58-.35ZM241.12,226.59c1.83-.52,2.88-1.96,3.25-3.6.37-1.63.09-3.47-.75-4.88l-.58.35c.75,1.26,1.01,2.93.67,4.39-.33,1.45-1.23,2.66-2.78,3.1l.18.65ZM230.52,220.81c.69.6,1.41,1.32,2.2,2.06.78.74,1.61,1.5,2.48,2.14,1.74,1.29,3.73,2.19,5.92,1.57l-.18-.65c-1.88.53-3.65-.22-5.34-1.46-.84-.62-1.65-1.35-2.42-2.09-.77-.73-1.52-1.47-2.22-2.08l-.44.51ZM230.74,220.56l.22-.25-.22.25ZM230.73,220.54l.22-.26-.22.26ZM231.19,220.08l.22-.25h0s-.22.25-.22.25ZM238.35,225.66l-.08.33h0s.08-.33.08-.33ZM242.78,218.61l.29-.17h0s-.29.17-.29.17ZM243.33,218.28l.29-.17h0s-.29.17-.29.17ZM241.03,226.27l.09.32-.09-.32Z"/>
      </g>
    </g>
  </g>
</svg>