<svg width="700" height="400" viewBox="0 0 700 400" fill="none" xmlns="http://www.w3.org/2000/svg">
<rect width="700" height="400" rx="20" fill="#E2F3F1"/>
<mask id="mask0_920_4689" style="mask-type:alpha" maskUnits="userSpaceOnUse" x="0" y="0" width="700" height="400">
<rect width="700" height="400" fill="#E2F3F1"/>
</mask>
<g mask="url(#mask0_920_4689)">
<path d="M125.607 0.169312L125.607 118.3M113.708 128.073C113.673 121.92 118.633 116.903 124.786 116.868C130.94 116.833 135.956 121.793 135.991 127.946C136.027 134.099 131.067 139.116 124.913 139.151C118.76 139.186 113.743 134.226 113.708 128.073Z" stroke="#8ECDC7" stroke-width="3"/>
<path d="M563.653 408L563.653 166.852M575.553 157.078C575.588 163.232 570.628 168.248 564.474 168.283C558.321 168.318 553.304 163.359 553.269 157.205C553.234 151.052 558.194 146.035 564.347 146C570.501 145.965 575.518 150.925 575.553 157.078Z" stroke="#8ECDC7" stroke-width="3"/>
<path d="M609.384 417L609.384 231.852M621.283 222.078C621.318 228.232 616.358 233.248 610.205 233.283C604.051 233.318 599.035 228.359 599 222.205C598.965 216.052 603.925 211.035 610.078 211C616.231 210.965 621.248 215.925 621.283 222.078Z" stroke="#8ECDC7" stroke-width="3"/>
<path d="M79.2529 0.169312L79.2528 228.954M67.3537 238.727C67.3187 232.573 72.2786 227.557 78.4319 227.522C84.5853 227.487 89.602 232.447 89.637 238.6C89.672 244.753 84.7121 249.77 78.5588 249.805C72.4054 249.84 67.3887 244.88 67.3537 238.727Z" stroke="#8ECDC7" stroke-width="3"/>
<path d="M0 64.4681H261.681M260.25 65.2693C260.215 59.116 265.174 54.0993 271.328 54.0643C277.481 54.0292 282.498 58.9891 282.533 65.1425C282.568 71.2959 277.608 76.3125 271.455 76.3476C265.301 76.3826 260.285 71.4227 260.25 65.2693Z" stroke="#8ECDC7" stroke-width="3"/>
<path d="M857.187 295.88L537.852 295.88M539.284 295.078C539.319 301.232 534.359 306.248 528.206 306.284C522.052 306.319 517.036 301.359 517.001 295.205C516.965 289.052 521.925 284.035 528.079 284C534.232 283.965 539.249 288.925 539.284 295.078Z" stroke="#8ECDC7" stroke-width="3"/>
<path d="M939.14 246.88L524.852 246.88M526.284 246.078C526.319 252.232 521.359 257.248 515.206 257.284C509.052 257.319 504.036 252.359 504.001 246.205C503.966 240.052 508.926 235.035 515.079 235C521.232 234.965 526.249 239.925 526.284 246.078Z" stroke="#8ECDC7" stroke-width="3"/>
</g>
<path d="M277.588 114.222L276.179 110.518L272.251 111.044C255.776 113.251 243.39 128.449 245.852 145.99L245.852 145.99C248.039 161.555 262.011 172.347 277.226 172.363L392.596 173.863L392.874 175.458C392.984 183.7 396.134 190.574 401.623 195.352C407.13 200.146 414.571 202.475 422.621 202.475H427.621V197.475V193.173C427.621 152.384 394.58 119.345 353.791 119.345H284.961C281.624 119.345 278.734 117.233 277.588 114.222Z" fill="#334242" stroke="black" stroke-width="10"/>
<path d="M307.646 325.764V301.399C333.229 315.105 364.751 307.11 377.314 301.399V327.668L342.671 344.418L307.646 325.764Z" fill="#D19A87"/>
<path d="M381.577 301.456H372.974V326.794H381.577V301.456Z" fill="black"/>
<path d="M312.748 301.456H304.145V326.794H312.748V301.456Z" fill="black"/>
<path d="M316.403 369.925L284.805 329.19L307.266 326.145L337.722 341.373H347.62L376.933 326.145L405.486 329.19L368.939 369.925L343.051 344.799L316.403 369.925Z" fill="#18979E"/>
<path d="M222.37 375.635L210.188 400H479.721L462.209 369.544L446.981 352.032L429.85 337.566L402.82 328.81L368.557 369.544L340.386 344.038L316.783 369.544L285.185 328.81L267.673 332.997L242.166 348.606L222.37 375.635Z" fill="#61E8CF"/>
<path d="M342.861 348.302C342.215 348.302 341.527 348.13 340.925 347.829L307.413 331.095C254.835 331.699 240.593 348.423 217.04 400H206C216.73 377.566 233.988 322.631 308.446 322.492C382.904 322.353 309.779 322.664 310.381 322.965L342.861 339.225L375.34 322.965C375.942 322.664 376.587 322.492 377.276 322.492C440.865 321.314 457.183 345.553 482.767 400H475.534C450.304 347.526 434.319 327.418 378.308 331.095L344.796 347.829C344.194 348.13 343.549 348.302 342.861 348.302Z" fill="black"/>
<path d="M317.05 374.113C317.05 374.113 316.878 374.113 316.792 374.113C315.587 374.027 314.426 373.467 313.651 372.521L279.236 329.504L285.947 324.126L317.351 363.401L339.764 340.989C341.441 339.312 344.152 339.312 345.829 340.989L368.414 363.573L404.077 323.911L410.487 329.676L371.77 372.693C370.995 373.553 369.877 374.07 368.672 374.113C367.511 374.156 366.349 373.682 365.532 372.865L342.775 350.109L320.018 372.865C319.201 373.682 318.125 374.113 316.964 374.113H317.05Z" fill="black"/>
<path d="M265.389 202.799L271.48 171.962H394.064C397.719 203.636 418.175 204.956 427.946 201.657C396.272 217.494 403.582 252.924 411.196 268.66C410.891 278.405 388.735 295.562 377.694 302.922C367.162 307.618 338.635 314.191 308.788 302.922C278.942 291.654 267.419 255.335 265.389 238.584C214.832 219.093 244.323 206.606 265.389 202.799Z" fill="#F9B49C"/>
<path d="M343 220V235.5C335 238.833 323.8 247.4 343 255" stroke="black" stroke-width="6" stroke-linecap="square"/>
<path d="M342.861 313.888C297.777 313.888 261.125 277.237 261.125 232.155V197.741C261.125 188.364 262.76 179.029 266.029 170.038C266.717 168.102 268.696 166.941 270.761 167.242C272.31 167.5 273.686 167.629 274.934 167.629H394.483C396.849 167.629 398.785 169.565 398.785 171.931V176.233C398.785 188.106 408.421 197.741 420.294 197.741C422.66 197.741 424.596 199.677 424.596 202.043V206.388H415.993V206.044C401.409 203.936 390.181 191.375 390.181 176.233H274.934C274.332 176.233 273.686 176.233 273.041 176.19C270.847 183.245 269.729 190.471 269.729 197.741V232.155C269.729 272.463 302.552 305.285 342.861 305.285C370.651 305.285 395.688 289.842 408.163 265.021L415.864 268.892C401.925 296.638 373.963 313.888 342.904 313.888H342.861Z" fill="black"/>
<path d="M265.427 240.759H256.823C244.95 240.759 235.313 231.123 235.313 219.25C235.313 207.377 244.95 197.742 256.823 197.742H265.427C267.793 197.742 269.728 199.677 269.728 202.043V236.457C269.728 238.823 267.793 240.759 265.427 240.759ZM256.823 206.345C249.725 206.345 243.917 212.152 243.917 219.25C243.917 226.348 249.725 232.155 256.823 232.155H261.125V206.345H256.823Z" fill="black"/>
<path d="M313.357 223.357C316.931 223.357 319.828 220.459 319.828 216.885C319.828 213.31 316.931 210.413 313.357 210.413C309.782 210.413 306.885 213.31 306.885 216.885C306.885 220.459 309.782 223.357 313.357 223.357Z" fill="black"/>
<path d="M371.222 223.357C374.796 223.357 377.694 220.459 377.694 216.885C377.694 213.31 374.796 210.413 371.222 210.413C367.648 210.413 364.75 213.31 364.75 216.885C364.75 220.459 367.648 223.357 371.222 223.357Z" fill="black"/>
<path d="M338.483 288.075C328.927 288.213 320.679 272.932 317.545 267.517L325.54 262.949C334.098 286.605 347.002 286.882 355.234 262.949L362.848 267.517C361.027 271.222 354.41 286.703 343.831 288.075H338.483Z" fill="black"/>
<circle cx="445.839" cy="240.488" r="40.7346" fill="#8FD7F7"/>
<path d="M432.134 211.555C426.424 213.078 414.85 219.93 414.241 235.158" stroke="white" stroke-width="7" stroke-miterlimit="16" stroke-linecap="round"/>
<circle cx="413.86" cy="243.534" r="2.66488" fill="white"/>
<path d="M446.106 288.078C419.993 288.078 398.785 266.87 398.785 240.759C398.785 214.647 419.993 193.44 446.106 193.44C472.218 193.44 493.426 214.647 493.426 240.759C493.426 266.87 472.218 288.078 446.106 288.078ZM446.106 202.043C424.768 202.043 407.389 219.422 407.389 240.759C407.389 262.095 424.768 279.474 446.106 279.474C467.443 279.474 484.823 262.095 484.823 240.759C484.823 219.422 467.443 202.043 446.106 202.043Z" fill="black"/>
<path d="M450.407 283.776H441.804V300.983H450.407V283.776Z" fill="black"/>
<rect x="414.241" y="301.019" width="56.3432" height="66.2413" fill="#F9B49C"/>
<path d="M441.804 339.468H420.294C413.196 339.468 407.389 333.66 407.389 326.563C407.389 319.465 413.196 313.657 420.294 313.657H441.804V322.261H420.294C417.928 322.261 415.992 324.197 415.992 326.563C415.992 328.928 417.928 330.864 420.294 330.864H441.804V339.468Z" fill="black"/>
<path d="M441.804 356.675H420.294C413.196 356.675 407.389 350.867 407.389 343.769C407.389 336.672 413.196 330.864 420.294 330.864H441.804V339.468H420.294C417.928 339.468 415.992 341.404 415.992 343.769C415.992 346.135 417.928 348.071 420.294 348.071H441.804V356.675Z" fill="black"/>
<path d="M463.313 373.882H420.294C413.196 373.882 407.389 368.074 407.389 360.976C407.389 353.879 413.196 348.071 420.294 348.071H441.804V356.675H420.294C417.928 356.675 415.992 358.61 415.992 360.976C415.992 363.342 417.928 365.278 420.294 365.278H463.313C465.679 365.278 467.615 363.342 467.615 360.976V309.356C467.615 306.99 465.679 305.054 463.313 305.054H420.294C417.928 305.054 415.992 306.99 415.992 309.356C415.992 311.722 417.928 313.657 420.294 313.657H441.804V322.261H420.294C413.196 322.261 407.389 316.453 407.389 309.356C407.389 302.258 413.196 296.45 420.294 296.45H463.313C470.411 296.45 476.219 302.258 476.219 309.356V360.976C476.219 368.074 470.411 373.882 463.313 373.882Z" fill="black"/>
<path d="M313.315 193.662C300.36 193.662 289.411 200.711 285.566 210.413C290.748 210.413 295.93 208.92 299.608 205.935C303.202 203.032 308.05 201.125 313.315 201.125C318.581 201.125 323.428 203.032 327.106 205.935C330.784 208.92 335.966 210.413 341.148 210.413C337.303 200.711 326.354 193.662 313.399 193.662" fill="#0C1D23"/>
<path d="M371.562 193.745C358.785 193.745 347.903 200.759 344.193 210.413C349.304 210.413 354.333 209.01 358.043 205.957C361.587 203.069 366.451 201.171 371.645 201.171C376.838 201.171 381.537 202.986 385.082 205.874C388.792 208.845 393.82 210.33 399.014 210.33C395.222 200.676 384.422 193.662 371.645 193.662" fill="#0C1D23"/>
</svg>
