<svg width="500" height="250" viewBox="0 0 500 250" fill="none" xmlns="http://www.w3.org/2000/svg">
<mask id="mask0_956_8156" style="mask-type:alpha" maskUnits="userSpaceOnUse" x="0" y="0" width="500" height="250">
<path d="M0 20C0 8.9543 8.9543 0 20 0H480C491.046 0 500 8.9543 500 20V250H0V20Z" fill="#E2F3F1"/>
</mask>
<g mask="url(#mask0_956_8156)">
<path d="M84.0002 0L84.0002 79M76.0426 85.5358C76.0192 81.4207 79.3361 78.0658 83.4512 78.0424C87.5663 78.019 90.9212 81.3359 90.9446 85.451C90.968 89.5661 87.6511 92.921 83.536 92.9444C79.4209 92.9678 76.066 89.6509 76.0426 85.5358Z" stroke="#8ECDC7" stroke-width="3"/>
<path d="M376.945 250V173.944M384.902 167.409C384.926 171.524 381.609 174.879 377.494 174.902C373.379 174.925 370.024 171.609 370 167.493C369.977 163.378 373.294 160.023 377.409 160C381.524 159.977 384.879 163.294 384.902 167.409Z" stroke="#8ECDC7" stroke-width="3"/>
<path d="M304.945 250V189.944M312.902 183.409C312.926 187.524 309.609 190.879 305.494 190.902C301.379 190.925 298.024 187.609 298 183.493C297.977 179.378 301.294 176.023 305.409 176C309.524 175.977 312.879 179.294 312.902 183.409Z" stroke="#8ECDC7" stroke-width="3"/>
<path d="M53.0002 0L53.0002 153M45.0426 159.536C45.0192 155.421 48.3361 152.066 52.4512 152.042C56.5663 152.019 59.9212 155.336 59.9446 159.451C59.968 163.566 56.6511 166.921 52.536 166.944C48.4209 166.968 45.066 163.651 45.0426 159.536Z" stroke="#8ECDC7" stroke-width="3"/>
<path d="M0 43H175M174.042 43.5358C174.019 39.4207 177.336 36.0658 181.451 36.0424C185.566 36.0189 188.921 39.3359 188.944 43.4509C188.968 47.566 185.651 50.9209 181.536 50.9444C177.421 50.9678 174.066 47.6508 174.042 43.5358Z" stroke="#8ECDC7" stroke-width="3"/>
<path d="M559.5 228.944L345.944 228.944M346.902 228.409C346.925 232.524 343.608 235.879 339.493 235.902C335.378 235.926 332.023 232.609 332 228.494C331.977 224.378 335.293 221.024 339.409 221C343.524 220.977 346.879 224.294 346.902 228.409Z" stroke="#8ECDC7" stroke-width="3"/>
<path d="M551 209.944L273.944 209.944M274.902 209.409C274.925 213.524 271.608 216.879 267.493 216.902C263.378 216.926 260.023 213.609 260 209.494C259.977 205.378 263.293 202.024 267.409 202C271.524 201.977 274.878 205.294 274.902 209.409Z" stroke="#8ECDC7" stroke-width="3"/>
</g>
<path d="M76.6213 190.081H74.0454V199.591H76.6213V190.081Z" fill="#010101"/>
<path d="M63.7648 188.851H61.189V199.591H63.7648V188.851Z" fill="#010101"/>
<path d="M195.693 123.232H193.117V133.28H195.693V123.232Z" fill="#010101"/>
<path d="M69.6227 192.209H67.0469V182.469C67.0469 170.062 78.4437 159.989 92.4651 159.989H99.8526V162.27H92.4651C79.8775 162.27 69.6227 171.318 69.6227 182.469V192.209Z" fill="#010101"/>
<path d="M177.227 162.552H169.913V160.271H177.227C189.693 160.271 199.827 151.3 199.827 140.278V130.64H202.402V140.278C202.402 152.556 191.103 162.552 177.227 162.552Z" fill="#010101"/>
<path d="M173.115 157.169H166.749V165.679H173.115V157.169Z" fill="#4ABAEB"/>
<path d="M103.01 157.169H96.6436V165.679H103.01V157.169Z" fill="#4ABAEB"/>
<path d="M134.866 227.274C134.162 227.274 133.579 226.762 133.579 226.121V134.639C133.579 133.998 134.162 133.485 134.866 133.485C135.571 133.485 136.154 133.998 136.154 134.639V226.121C136.154 226.762 135.571 227.274 134.866 227.274Z" fill="#010101"/>
<path d="M168.916 240.167H100.218C91.2512 240.167 83.9854 233.733 83.9854 225.787C83.9854 217.841 91.2512 211.433 100.218 211.433H168.916C177.883 211.433 185.148 217.867 185.148 225.787C185.148 233.707 177.883 240.167 168.916 240.167Z" fill="#4ABAEB"/>
<path d="M168.914 241.295H100.216C90.5448 241.295 82.6958 234.348 82.6958 225.787C82.6958 217.226 90.5691 210.279 100.216 210.279H168.914C178.586 210.279 186.435 217.226 186.435 225.787C186.435 234.348 178.561 241.295 168.914 241.295ZM100.216 212.561C91.9785 212.561 85.2716 218.482 85.2716 225.787C85.2716 233.092 91.9785 239.013 100.216 239.013H168.914C177.152 239.013 183.859 233.067 183.859 225.787C183.859 218.507 177.152 212.561 168.914 212.561H100.216Z" fill="#010101"/>
<path d="M175.037 118.439C173.968 110.878 166.678 105.033 157.832 105.033H111.297C102.476 105.033 95.1856 110.903 94.0921 118.439C93.9949 119.08 93.9463 119.721 93.9463 120.362C93.9463 121.002 94.0192 121.669 94.0921 122.284C95.1613 129.846 102.476 135.69 111.297 135.69H157.832C166.653 135.69 173.944 129.82 175.037 122.284C175.134 121.643 175.183 121.002 175.183 120.362C175.183 119.721 175.11 119.054 175.037 118.439Z" fill="#334242"/>
<path d="M183.058 118.439C181.94 106.956 171.078 97.9587 157.834 97.9587H111.299C98.0306 97.9587 87.1682 106.956 86.0747 118.439C86.0261 119.08 85.9775 119.721 85.9775 120.361C85.9775 121.002 86.0261 121.643 86.0747 122.284C87.1925 133.767 98.0549 142.764 111.299 142.764H157.834C171.078 142.764 181.94 133.742 183.058 122.284C183.131 121.643 183.18 121.002 183.18 120.361C183.18 119.721 183.131 119.08 183.058 118.439ZM157.834 135.715H111.299C102.478 135.715 95.1875 129.845 94.094 122.31C93.9968 121.669 93.9482 121.028 93.9482 120.387C93.9482 119.746 94.0211 119.08 94.094 118.465C95.1632 110.903 102.453 105.059 111.299 105.059H157.834C166.655 105.059 173.945 110.929 175.039 118.465C175.136 119.105 175.185 119.746 175.185 120.387C175.185 121.028 175.112 121.694 175.039 122.31C173.97 129.871 166.68 135.715 157.834 135.715Z" fill="#4ABAEB"/>
<path d="M157.833 143.943H111.298C97.5923 143.943 85.9524 134.485 84.786 122.412C84.7131 121.745 84.6646 121.079 84.6646 120.387C84.6646 119.695 84.7131 119.028 84.786 118.362C85.9524 106.289 97.5923 96.8307 111.298 96.8307H157.833C171.539 96.8307 183.179 106.289 184.345 118.362C184.418 119.028 184.467 119.695 184.467 120.387C184.467 121.079 184.418 121.745 184.345 122.412C183.179 134.485 171.539 143.943 157.833 143.943ZM111.298 99.112C98.9289 99.112 88.4068 107.648 87.3619 118.541C87.289 119.157 87.2647 119.746 87.2647 120.387C87.2647 121.028 87.3133 121.617 87.3619 122.207C88.4068 133.101 98.9289 141.662 111.298 141.662H157.833C170.202 141.662 180.724 133.126 181.769 122.232C181.818 121.617 181.867 121.028 181.867 120.413C181.867 119.797 181.818 119.182 181.769 118.567C180.724 107.673 170.202 99.1377 157.833 99.1377H111.298V99.112ZM157.833 136.869H111.298C101.942 136.869 93.9959 130.665 92.8295 122.463C92.7323 121.771 92.6594 121.105 92.6594 120.387C92.6594 119.669 92.7323 119.003 92.8295 118.311C93.9959 110.083 101.942 103.905 111.298 103.905H157.833C167.189 103.905 175.135 110.108 176.302 118.311C176.399 119.003 176.472 119.669 176.472 120.387C176.472 121.105 176.399 121.771 176.302 122.463C175.135 130.691 167.189 136.869 157.833 136.869ZM111.298 106.161C103.23 106.161 96.4016 111.493 95.381 118.567C95.3081 119.157 95.2352 119.746 95.2352 120.361C95.2352 120.976 95.3081 121.566 95.381 122.156C96.4016 129.23 103.23 134.562 111.298 134.562H157.833C165.901 134.562 172.73 129.23 173.75 122.156C173.847 121.566 173.896 120.976 173.896 120.361C173.896 119.746 173.847 119.157 173.75 118.567C172.754 111.493 165.901 106.161 157.833 106.161H111.298Z" fill="#010101"/>
<path d="M111.637 112.697C106.874 112.697 103.011 116.132 103.011 120.336C103.011 124.539 106.874 127.974 111.637 127.974C116.4 127.974 120.264 124.539 120.264 120.336C120.264 116.132 116.4 112.697 111.637 112.697Z" fill="white"/>
<path d="M158.097 112.697C153.334 112.697 149.47 116.132 149.47 120.336C149.47 124.539 153.334 127.974 158.097 127.974C162.86 127.974 166.724 124.539 166.724 120.336C166.724 116.132 162.86 112.697 158.097 112.697Z" fill="white"/>
<path d="M103.011 153.299V165.654L108.964 178.009V196.541C108.964 199.873 112.002 202.564 115.769 202.564H154.018C157.784 202.564 160.822 199.873 160.822 196.541V178.009L166.775 165.654V153.299H103.035H103.011Z" fill="#4ABAEB"/>
<path d="M153.993 203.744H115.744C111.273 203.744 107.652 200.54 107.652 196.592V178.291L101.698 165.705V152.197H168.014L167.917 166.141L162.085 178.291V196.592C162.085 200.54 158.464 203.744 153.993 203.744ZM104.298 165.449L110.252 178.034V196.566C110.252 199.258 112.731 201.437 115.768 201.437H154.017C157.055 201.437 159.534 199.258 159.534 196.566L159.631 177.573L165.463 165.423V154.427H104.323V165.423L104.298 165.449Z" fill="#010101"/>
<path d="M89.231 248.703V247.216C89.231 246.704 88.8179 246.242 88.2346 246.114C87.8215 246.037 87.5056 245.96 87.1897 245.883C87.0682 245.858 86.9467 245.832 86.8252 245.832C86.3878 245.832 85.9504 246.037 85.7074 246.396L84.8568 247.678L76.8863 243.602L77.7368 242.295C78.0284 241.833 77.9313 241.27 77.5182 240.911C77.2509 240.68 77.0078 240.475 76.7405 240.219C76.4975 239.988 76.1573 239.86 75.8171 239.86C75.5984 239.86 75.3796 239.911 75.1609 240.013L73.703 240.757L69.1101 233.708L70.5681 232.965C71.0784 232.708 71.3215 232.17 71.1514 231.657C71.1028 231.504 71.0784 231.35 71.0298 231.196C71.0055 231.042 70.957 230.888 70.9084 230.709C70.7625 230.196 70.2523 229.837 69.6448 229.837H67.9194V221.686H69.6448C70.228 221.686 70.7625 221.327 70.9084 220.815C70.957 220.661 70.9812 220.507 71.0298 220.328C71.0541 220.174 71.1028 220.02 71.1514 219.866C71.3215 219.354 71.0784 218.815 70.5681 218.559L69.1101 217.816L73.703 210.767L75.1609 211.51C75.3553 211.613 75.5741 211.664 75.8171 211.664C76.1573 211.664 76.4975 211.536 76.7405 211.305C76.9835 211.075 77.2509 210.844 77.5182 210.613C77.9556 210.254 78.0284 209.665 77.7368 209.229L76.8863 207.922L84.8568 203.846L85.7074 205.128C85.9504 205.487 86.3635 205.692 86.8252 205.692C86.9467 205.692 87.0682 205.692 87.1897 205.64C87.5056 205.564 87.8216 205.487 88.1375 205.435C88.7207 205.307 89.231 204.82 89.231 204.307V202.821H98.4409V204.307C98.4409 204.82 98.8539 205.282 99.4371 205.41C99.8989 205.512 100.19 205.564 100.506 205.64C100.628 205.666 100.749 205.692 100.871 205.692C101.333 205.692 101.746 205.487 101.989 205.128L102.839 203.846L110.81 207.922L109.959 209.229C109.668 209.69 109.765 210.254 110.178 210.613C110.445 210.844 110.688 211.049 110.956 211.305C111.199 211.536 111.539 211.664 111.879 211.664C112.098 211.664 112.316 211.613 112.535 211.51L113.993 210.767L118.586 217.816L117.128 218.559C116.618 218.815 116.375 219.379 116.545 219.866C116.642 220.148 116.715 220.43 116.788 220.712C116.934 221.225 117.468 221.661 118.076 221.661H119.777V229.812H118.076C117.493 229.812 116.958 230.171 116.812 230.683C116.715 231.068 116.618 231.35 116.545 231.606C116.375 232.119 116.618 232.657 117.128 232.913L118.586 233.657L113.993 240.706L112.535 239.962C112.341 239.86 112.122 239.808 111.879 239.808C111.539 239.808 111.199 239.937 110.956 240.167C110.713 240.398 110.445 240.629 110.178 240.859C109.741 241.218 109.668 241.808 109.959 242.244L110.81 243.551L102.839 247.626L101.989 246.345C101.746 245.986 101.333 245.781 100.871 245.781C100.749 245.781 100.628 245.781 100.506 245.832C100.215 245.909 99.8989 245.986 99.6073 246.037C99.0241 246.165 98.4895 246.652 98.4895 247.165V248.652H89.2795L89.231 248.703Z" fill="#334242"/>
<path d="M97.1294 204.025V204.384C97.1294 205.435 98.0527 206.384 99.2192 206.64C99.5108 206.691 99.8023 206.768 100.094 206.845C100.337 206.896 100.58 206.947 100.823 206.947C101.722 206.947 102.597 206.537 103.059 205.794L103.253 205.486L108.988 208.409L108.794 208.716C108.186 209.639 108.38 210.792 109.231 211.51C109.474 211.715 109.717 211.946 109.96 212.151C110.47 212.612 111.151 212.869 111.831 212.869C112.269 212.869 112.73 212.766 113.119 212.561L113.459 212.382L116.764 217.457L116.424 217.636C115.403 218.174 114.893 219.251 115.233 220.251C115.33 220.507 115.379 220.763 115.501 221.122C115.768 222.147 116.813 222.865 118.003 222.865H118.392V228.735H118.003C116.813 228.735 115.744 229.555 115.476 230.58C115.403 230.837 115.33 231.093 115.257 231.35C114.917 232.349 115.403 233.451 116.448 233.964L116.788 234.143L113.484 239.219L113.143 239.039C112.73 238.834 112.293 238.732 111.855 238.732C111.175 238.732 110.495 238.988 109.984 239.449C109.741 239.68 109.498 239.885 109.255 240.09C108.405 240.808 108.21 241.961 108.818 242.884L109.012 243.192L103.277 246.114L103.083 245.806C102.621 245.088 101.746 244.653 100.847 244.653C100.604 244.653 100.361 244.678 100.118 244.755C99.8267 244.832 99.535 244.883 99.1219 244.986C97.9554 245.242 97.1535 246.165 97.1535 247.216V247.575H90.5195V247.216C90.5195 246.165 89.5962 245.217 88.4297 244.986C88.1381 244.909 87.8222 244.858 87.5306 244.781C87.2876 244.73 87.0446 244.678 86.8016 244.678C85.9025 244.678 85.0276 245.088 84.5659 245.832L84.3716 246.139L78.6365 243.217L78.831 242.91C79.4385 241.987 79.2441 240.834 78.3693 240.116C78.1263 239.911 77.8833 239.68 77.6403 239.475C77.13 239.014 76.4495 238.757 75.7691 238.757C75.3317 238.757 74.8944 238.86 74.4813 239.065L74.141 239.244L70.8362 234.169L71.1763 233.99C72.1969 233.477 72.7073 232.375 72.3671 231.375C72.3185 231.247 72.2941 231.145 72.2698 231.016C72.2212 230.837 72.197 230.657 72.1484 230.478C71.8567 229.453 70.8362 228.735 69.6455 228.735H69.2079V222.865H69.6455C70.8362 222.865 71.8567 222.147 72.1484 221.122C72.197 220.943 72.2455 220.763 72.2698 220.61C72.2941 220.481 72.3185 220.353 72.3671 220.251C72.7073 219.251 72.2212 218.149 71.1763 217.636L70.8362 217.457L74.141 212.382L74.4813 212.561C74.8944 212.766 75.3317 212.869 75.7691 212.869C76.4495 212.869 77.13 212.638 77.6403 212.151C77.8833 211.92 78.1263 211.715 78.3693 211.51C79.2198 210.792 79.4142 209.639 78.831 208.716L78.6365 208.409L84.3716 205.486L84.5659 205.794C85.0276 206.512 85.9025 206.947 86.8016 206.947C87.0446 206.947 87.2876 206.922 87.5306 206.845C87.8222 206.768 88.1138 206.717 88.5269 206.614C89.6933 206.358 90.4952 205.461 90.4952 204.384V204.025H97.1294ZM99.7052 201.744H87.9194V204.384C87.5549 204.461 87.1661 204.538 86.8016 204.64L85.3192 202.359L75.1131 207.563L76.5954 209.844C76.3281 210.075 76.0364 210.305 75.7691 210.562L73.1933 209.254L67.2882 218.277L69.8641 219.584C69.7669 219.917 69.7184 220.251 69.6212 220.558H66.6079V230.991H69.6212C69.7184 231.324 69.7669 231.657 69.8641 231.99L67.2882 233.298L73.1933 242.32L75.7691 241.013C76.0364 241.269 76.3038 241.5 76.5954 241.731L75.1131 244.012L85.3192 249.215L86.8016 246.934C87.1661 247.037 87.5306 247.113 87.9194 247.19V249.83H99.7052V247.19C100.094 247.113 100.458 247.037 100.823 246.934L102.305 249.215L112.511 244.012L111.029 241.731C111.296 241.5 111.588 241.244 111.831 241.013L114.407 242.32L120.312 233.298L117.736 231.99C117.833 231.657 117.931 231.324 118.028 230.991H121.017V220.558H118.028C117.931 220.225 117.858 219.892 117.736 219.584L120.312 218.277L114.407 209.254L111.831 210.562C111.564 210.305 111.296 210.075 111.029 209.844L112.511 207.563L102.305 202.359L100.823 204.64C100.458 204.538 100.094 204.461 99.7052 204.384V201.744Z" fill="#010101"/>
<path d="M107.097 225.685C107.097 232.17 101.143 237.424 93.829 237.424C86.5146 237.424 80.561 232.17 80.561 225.685C80.561 219.2 86.5146 213.945 93.829 213.945C101.143 213.945 107.097 219.2 107.097 225.685Z" fill="#4ABAEB"/>
<path d="M93.822 238.577C85.7785 238.577 79.2417 232.81 79.2417 225.684C79.2417 218.559 85.7785 212.791 93.822 212.791C101.865 212.791 108.402 218.559 108.402 225.684C108.402 232.81 101.865 238.577 93.822 238.577ZM93.822 215.098C87.2123 215.098 81.8419 219.866 81.8419 225.71C81.8419 231.554 87.2123 236.322 93.822 236.322C100.432 236.322 105.802 231.554 105.802 225.71C105.802 219.866 100.432 215.098 93.822 215.098Z" fill="#010101"/>
<path d="M170.588 248.703V247.216C170.588 246.704 170.175 246.242 169.592 246.114C169.155 246.011 168.839 245.96 168.547 245.883C168.426 245.858 168.304 245.832 168.183 245.832C167.745 245.832 167.308 246.037 167.065 246.396L166.214 247.678L158.244 243.602L159.094 242.295C159.386 241.833 159.289 241.27 158.876 240.911C158.608 240.68 158.365 240.475 158.098 240.219C157.855 239.988 157.515 239.86 157.175 239.86C156.956 239.86 156.737 239.911 156.519 240.013L155.06 240.757L150.468 233.708L151.926 232.965C152.436 232.708 152.679 232.17 152.509 231.657C152.46 231.504 152.436 231.35 152.387 231.196C152.363 231.042 152.315 230.888 152.266 230.709C152.12 230.196 151.61 229.837 151.002 229.837H149.277V221.686H151.002C151.585 221.686 152.12 221.327 152.266 220.815C152.315 220.661 152.339 220.507 152.387 220.328C152.412 220.174 152.46 220.02 152.509 219.866C152.679 219.354 152.436 218.815 151.926 218.559L150.468 217.816L155.06 210.767L156.519 211.51C156.713 211.613 156.932 211.664 157.175 211.664C157.515 211.664 157.855 211.536 158.098 211.305C158.341 211.075 158.608 210.844 158.876 210.613C159.313 210.254 159.386 209.665 159.094 209.229L158.244 207.922L166.214 203.846L167.065 205.128C167.308 205.487 167.721 205.692 168.183 205.692C168.304 205.692 168.426 205.692 168.547 205.64C168.863 205.564 169.155 205.487 169.471 205.435C170.054 205.307 170.588 204.82 170.588 204.307V202.821H179.798V204.307C179.798 204.82 180.211 205.282 180.795 205.41C181.256 205.512 181.548 205.564 181.864 205.64C181.985 205.666 182.107 205.692 182.228 205.692C182.69 205.692 183.103 205.487 183.346 205.128L184.197 203.846L192.167 207.922L191.317 209.229C191.025 209.69 191.122 210.254 191.535 210.613C191.803 210.844 192.046 211.049 192.313 211.305C192.556 211.536 192.896 211.664 193.237 211.664C193.455 211.664 193.674 211.613 193.893 211.51L195.351 210.767L199.944 217.816L198.485 218.559C197.975 218.815 197.732 219.354 197.878 219.866C197.975 220.174 198.072 220.482 198.145 220.815C198.291 221.327 198.801 221.686 199.409 221.686H201.11V229.837H199.409C198.826 229.837 198.291 230.196 198.145 230.709C198.048 231.042 197.975 231.35 197.878 231.657C197.708 232.17 197.951 232.708 198.485 232.965L199.944 233.708L195.351 240.757L193.893 240.013C193.698 239.911 193.48 239.86 193.237 239.86C192.896 239.86 192.556 239.988 192.313 240.219C192.07 240.449 191.803 240.68 191.535 240.911C191.098 241.27 191.025 241.859 191.317 242.295L192.167 243.602L184.197 247.678L183.346 246.396C183.103 246.037 182.69 245.832 182.228 245.832C182.107 245.832 181.985 245.832 181.864 245.883C181.572 245.96 181.256 246.037 180.965 246.088C180.382 246.217 179.847 246.704 179.847 247.216V248.703H170.637H170.588Z" fill="#334242"/>
<path d="M178.487 204.025V204.384C178.487 205.435 179.41 206.384 180.577 206.64C180.868 206.691 181.16 206.768 181.451 206.845C181.694 206.896 181.937 206.947 182.181 206.947C183.08 206.947 183.954 206.537 184.416 205.794L184.611 205.486L190.345 208.409L190.151 208.716C189.543 209.639 189.738 210.792 190.613 211.51C190.856 211.715 191.099 211.946 191.342 212.151C191.852 212.612 192.532 212.869 193.213 212.869C193.65 212.869 194.112 212.766 194.501 212.561L194.841 212.382L198.146 217.457L197.806 217.636C196.785 218.174 196.275 219.251 196.615 220.251C196.712 220.507 196.785 220.763 196.882 221.122C197.15 222.147 198.194 222.865 199.385 222.865H199.774V228.735H199.385C198.194 228.735 197.125 229.555 196.858 230.58C196.785 230.837 196.712 231.093 196.639 231.35C196.299 232.349 196.785 233.451 197.83 233.964L198.17 234.143L194.865 239.219L194.525 239.039C194.112 238.834 193.675 238.732 193.237 238.732C192.557 238.732 191.876 238.988 191.366 239.449C191.123 239.68 190.88 239.885 190.637 240.09C189.787 240.808 189.592 241.961 190.2 242.884L190.394 243.192L184.659 246.114L184.465 245.806C184.003 245.088 183.128 244.653 182.229 244.653C181.986 244.653 181.743 244.678 181.5 244.755C181.208 244.832 180.917 244.883 180.504 244.986C179.337 245.242 178.535 246.165 178.535 247.216V247.575H171.901V247.216C171.901 246.165 170.978 245.217 169.811 244.986C169.52 244.909 169.204 244.858 168.912 244.781C168.669 244.73 168.426 244.678 168.183 244.678C167.284 244.678 166.409 245.088 165.948 245.832L165.753 246.139L160.018 243.217L160.213 242.91C160.82 241.987 160.626 240.834 159.751 240.116C159.508 239.911 159.265 239.68 159.022 239.475C158.512 239.014 157.831 238.757 157.151 238.757C156.713 238.757 156.276 238.86 155.863 239.065L155.523 239.244L152.218 234.169L152.558 233.99C153.579 233.477 154.089 232.375 153.749 231.375C153.725 231.247 153.7 231.145 153.652 231.016C153.603 230.837 153.579 230.657 153.53 230.478C153.238 229.453 152.218 228.735 151.027 228.735H150.59V222.865H151.027C152.218 222.865 153.238 222.147 153.53 221.122C153.579 220.943 153.627 220.763 153.652 220.61C153.676 220.481 153.7 220.353 153.749 220.251C154.089 219.251 153.603 218.149 152.558 217.636L152.218 217.457L155.523 212.382L155.863 212.561C156.276 212.766 156.713 212.869 157.151 212.869C157.831 212.869 158.512 212.638 159.022 212.151C159.265 211.92 159.508 211.715 159.751 211.51C160.602 210.792 160.796 209.639 160.213 208.716L160.018 208.409L165.753 205.486L165.948 205.794C166.409 206.512 167.284 206.947 168.183 206.947C168.426 206.947 168.669 206.922 168.912 206.845C169.204 206.768 169.496 206.717 169.909 206.614C171.075 206.358 171.877 205.461 171.877 204.384V204.025H178.511H178.487ZM181.063 201.744H169.277V204.384C168.888 204.461 168.524 204.538 168.159 204.64L166.677 202.359L156.471 207.563L157.953 209.844C157.686 210.075 157.394 210.305 157.127 210.562L154.551 209.254L148.646 218.277L151.222 219.584C151.124 219.917 151.076 220.251 150.979 220.558H147.965V230.991H150.979C151.076 231.324 151.124 231.657 151.222 231.99L148.646 233.298L154.551 242.32L157.127 241.013C157.394 241.269 157.661 241.5 157.953 241.731L156.471 244.012L166.677 249.215L168.159 246.934C168.524 247.037 168.888 247.113 169.277 247.19V249.83H181.063V247.19C181.427 247.113 181.816 247.037 182.181 246.934L183.663 249.215L193.869 244.012L192.387 241.731C192.654 241.5 192.946 241.244 193.189 241.013L195.764 242.32L201.669 233.298L199.094 231.99C199.191 231.657 199.288 231.324 199.385 230.991H202.374V220.558H199.385C199.288 220.225 199.215 219.892 199.094 219.584L201.669 218.277L195.764 209.254L193.189 210.562C192.921 210.305 192.654 210.075 192.387 209.844L193.869 207.563L183.663 202.359L182.181 204.64C181.816 204.538 181.451 204.461 181.063 204.384V201.744Z" fill="#010101"/>
<path d="M188.451 225.685C188.451 232.17 182.498 237.424 175.183 237.424C167.869 237.424 161.915 232.17 161.915 225.685C161.915 219.2 167.869 213.945 175.183 213.945C182.498 213.945 188.451 219.2 188.451 225.685Z" fill="#4ABAEB"/>
<path d="M175.181 238.577C167.138 238.577 160.601 232.81 160.601 225.684C160.601 218.559 167.138 212.791 175.181 212.791C183.225 212.791 189.762 218.559 189.762 225.684C189.762 232.81 183.225 238.577 175.181 238.577ZM175.181 215.098C168.572 215.098 163.201 219.866 163.201 225.71C163.201 231.554 168.572 236.322 175.181 236.322C181.791 236.322 187.162 231.554 187.162 225.71C187.162 219.866 181.791 215.098 175.181 215.098Z" fill="#010101"/>
<path d="M60 185.724H78.1039V187.39C78.1039 191.824 74.0457 195.387 69.064 195.387C64.0824 195.387 60.0243 191.799 60.0243 187.39V185.724H60Z" fill="#355A60"/>
<path d="M99.5342 224.557H88.1372V226.838H99.5342V224.557Z" fill="#010101"/>
<path d="M180.893 224.659H169.496V226.941H180.893V224.659Z" fill="#010101"/>
<path d="M183.179 119.233H175.184V121.515H183.179V119.233Z" fill="#010101"/>
<path d="M93.9471 119.233H85.9521V121.515H93.9471V119.233Z" fill="#010101"/>
<path d="M155.109 176.881H114.6V179.162H155.109V176.881Z" fill="#010101"/>
<path d="M208.576 122.831H206V133.366H208.576V122.831Z" fill="#010101"/>
<path d="M209.761 137.099H191.657V135.433C191.657 130.999 195.715 127.436 200.697 127.436C205.679 127.436 209.737 131.024 209.737 135.433V137.099H209.761Z" fill="#355A60"/>
<path d="M197.749 141.628L226.691 87.928L217.097 82.7569L188.155 136.456L197.749 141.628Z" fill="#0AB6AB"/>
<path d="M196.74 135.835L223.489 86.2042L220.291 84.4805L193.541 134.111L196.74 135.835Z" fill="#18969C"/>
<path d="M187.467 149.225L188.585 149.828C190.61 150.919 193.316 149.847 194.62 147.428L197.747 141.627L192.954 139.044L187.467 149.225Z" fill="#8FD7F7"/>
<path d="M188.155 136.456L185.028 142.257C183.724 144.676 184.317 147.526 186.342 148.618L187.46 149.22L192.947 139.039L188.155 136.456Z" fill="#4ABAEB"/>
<path d="M199.941 137.559L195.148 134.976L190.346 132.388L188.154 136.456L192.955 139.044L197.748 141.627L199.941 137.559Z" fill="#D0EDFB"/>
<path d="M225.57 78.5269L223.38 77.3465L217.094 82.7567L221.896 85.3447L226.688 87.9278L227.76 79.7073L225.57 78.5269Z" fill="#D0EDFB"/>
<path d="M228.652 72.8082L223.38 77.3461L225.57 78.5265L228.652 72.8082Z" fill="#4ABAEB"/>
<path d="M227.764 79.707L228.656 72.8084L225.574 78.5266L227.764 79.707Z" fill="#8FD7F7"/>
<path d="M184.624 142.04L216.837 82.3577L223.378 76.7176L228.28 79.36L227.093 88.1452L195.024 147.645C193.577 150.33 190.569 151.524 188.324 150.314L186.079 149.104C183.825 147.889 183.176 144.725 184.624 142.04ZM217.448 83.089L185.439 142.479C184.283 144.624 184.806 147.164 186.602 148.132L188.848 149.342C190.653 150.315 193.053 149.35 194.209 147.206L226.218 87.8156L227.22 80.0541L223.371 77.9797L217.439 83.0841L217.448 83.089Z" fill="#010101"/>
<path d="M222.486 77.4914L229.284 71.6358L228.131 80.5338L222.486 77.4914ZM228.02 73.9817L224.274 77.2016L227.381 78.8759L228.011 73.9768L228.02 73.9817Z" fill="#010101"/>
<path d="M277.981 89.8742L286.925 59.2655C259.378 62.8272 235.497 94.1409 227 109.352C241.668 95.9959 267.099 90.8017 277.981 89.8742Z" fill="#0AB6AB" stroke="black" stroke-width="3"/>
<path d="M302.574 27.1398L453.884 45.1601C459.684 45.8509 463.075 52.0516 460.527 57.308L415.066 151.099C413.172 155.005 408.64 156.857 404.553 155.394L266.444 105.978C261.601 104.245 259.395 98.6408 261.758 94.0713L294.019 31.6762C295.646 28.5285 299.056 26.7207 302.574 27.1398Z" fill="#0AB6AB" stroke="black" stroke-width="3"/>
<path d="M406.33 52.5574L411.696 62.8431L434.056 52.5574" stroke="black" stroke-width="3"/>
<path d="M398.727 74.4705L404.093 84.7562L426.453 74.4705" stroke="black" stroke-width="3"/>
<path d="M391.124 96.3835L396.49 106.669L418.851 96.3835" stroke="black" stroke-width="3"/>
<path d="M383.522 118.297L388.888 128.582L411.249 118.297" stroke="black" stroke-width="3"/>
<path d="M307.875 40.6842L393.428 53.6976" stroke="black" stroke-width="3"/>
<path d="M303.472 57.4767L385.311 73.5761" stroke="black" stroke-width="3"/>
<path d="M298.106 73.1288L371.895 96.3834" stroke="black" stroke-width="3"/>
<path d="M291.397 91.017L361.161 118.744" stroke="black" stroke-width="3"/>
<path d="M267.248 93.7002L280.664 62.3959L277.981 62.8431L276.64 63.2903L275.745 63.7375L261.435 91.4642H263.223L264.565 92.3586L265.907 92.8058L267.248 93.7002Z" fill="#0AB6AB"/>
</svg>
