<?xml version="1.0" encoding="UTF-8"?>
<svg id="Layer_1" data-name="Layer 1" xmlns="http://www.w3.org/2000/svg" xmlns:xlink="http://www.w3.org/1999/xlink" viewBox="0 0 700 400">
  <defs>
    <style>
      .cls-1 {
        clip-path: url(#clippath);
      }

      .cls-2, .cls-3 {
        fill: none;
      }

      .cls-2, .cls-3, .cls-4, .cls-5, .cls-6, .cls-7, .cls-8, .cls-9, .cls-10, .cls-11, .cls-12, .cls-13, .cls-14 {
        stroke-width: 0px;
      }

      .cls-15 {
        clip-path: url(#clippath-1);
      }

      .cls-16 {
        clip-path: url(#clippath-4);
      }

      .cls-17 {
        clip-path: url(#clippath-3);
      }

      .cls-18 {
        clip-path: url(#clippath-2);
      }

      .cls-19 {
        clip-path: url(#clippath-7);
      }

      .cls-20 {
        clip-path: url(#clippath-8);
      }

      .cls-21 {
        clip-path: url(#clippath-6);
      }

      .cls-22 {
        clip-path: url(#clippath-5);
      }

      .cls-3 {
        clip-rule: evenodd;
      }

      .cls-4, .cls-5 {
        fill-rule: evenodd;
      }

      .cls-4, .cls-12 {
        fill: #eeb990;
      }

      .cls-5 {
        fill: #ff6a6a;
      }

      .cls-7 {
        fill: #108e8d;
      }

      .cls-8 {
        fill: #157177;
      }

      .cls-9 {
        fill: #7ecbbf;
      }

      .cls-10 {
        fill: #ff8d8d;
      }

      .cls-11 {
        fill: #fff;
      }

      .cls-13 {
        fill: #fbfffe;
      }

      .cls-14 {
        fill: #f1d0de;
      }
    </style>
    <clipPath id="clippath">
      <rect class="cls-2" width="700" height="400"/>
    </clipPath>
    <clipPath id="clippath-1">
      <path class="cls-3" d="M401.14,379.08c26.51.18,80.41-8.58,110.76-9.2,5.31-.1,10.2-1.5,14.04-5.28,3.19-3.12,5.4-7.06,8.49-10.28,3.24-3.39,7.49-5.62,10.49-9.28,3.2-3.92,3.86-8.97,4.38-13.85.63-5.9,1.26-11.79,1.88-17.69,1.23-11.6,2.63-23.17,3.8-34.76.55-5.37.52-10.6-2.48-15.27-.3-.46-.89-1.16-.71-1.74.14-.43.67-.77,1.01-1.05.98-.8,2.03-1.54,3.03-2.31,2.35-1.79,4.71-3.58,7.06-5.37.82-.63.69-2.14-.21-2.63-17.09-9.3-34.74-17.49-53.16-23.76-.22-.08-.42-.09-.61-.09-.77-.97-2.8-.98-3.07.48-1.23,6.62-2.35,13.23-3.49,19.86-2.01,11.78-4,23.57-5.99,35.37-.51,2.99-1.01,5.97-1.52,8.97-.13.75-.25,1.5-.37,2.25-1.12-.13-2.25-.18-3.39-.13-3.11.14-7.94.55-9.62,3.65-1.28,2.35-.68,5.63.35,8.34-.78-.18-1.58-.38-2.37-.58-24.51-6.03-62.01-17.53-86.67-22.95-2-.44-.84,92.92,8.34,97.28h.01Z"/>
    </clipPath>
    <clipPath id="clippath-2">
      <path class="cls-3" d="M257.56,356.33c.78,5.14,1.44,11.45,3.11,16.37,1.7,4.96,3.45,9.92,4.5,15.07,1.05,5.13,1.45,10.33,1.66,15.55.43,10.59.12,21.28,2.13,31.74.89,4.62,2.04,9.9,4.88,13.77,3.22,4.38,8.18,5.11,13.22,5.92,11.31,1.83,22.67,3.43,34.06,4.71,20.85,2.34,43.34,4.88,63.21-3.54,4.29-1.82,8.33-4.58,10.43-8.86,1.91-3.91,2.21-8.38,1.79-12.66-.44-4.51-1.44-8.97-1.56-13.51-.13-4.88,1.39-9.37,3.66-13.65,2.41-4.52,5.4-8.72,8.12-13.06,2.78-4.45,5.44-8.97,7.99-13.56,5.09-9.18,9.7-18.6,13.79-28.27,4.12-9.73,8.17-19.77,10.85-30.01,1.28-4.93,1.88-10.18.43-15.14-1.12-3.83-3.26-7.26-5.97-10.16-5.8-6.2-13.73-9.9-21.35-13.34-9.91-4.46-19.86-8.81-30.06-12.56-39.04-14.36-63.2-13.01-78.58-.75-7.95,6.34-15.81,12.98-22.63,20.54-3.37,3.74-6.56,7.67-9.44,11.82-2.81,4.04-5.09,8.29-7.28,12.67-4.35,8.69-7.33,18.2-8.28,27.89-.47,4.84.58,8.21,1.31,13.01Z"/>
    </clipPath>
    <clipPath id="clippath-3">
      <path class="cls-3" d="M312.9,277.57c18.46-25.87-46.06,4.38-107.71,1.07-.17-.84-.48-1.65-1.01-2.35-2.41-3.28-7.95-3.23-11.61-3.01-.65.04-1.33.12-2,.18-1.22-8.52-2.26-17.09-2.9-25.66-.76-10.24-.72-20.45-.18-30.67.03-.9.08-1.79.14-2.68.04-.67-.52-1.45-1.11-1.69-4.3-1.75-8.92-2.93-13.49-3.7-15.95-2.71-33.1-1.29-48.34,4.29-.9.33-1.43,1.45-1.22,2.34.1.46.42.88.97,1.07,1.92.68,3.41,2.03,4.17,3.94.75,1.83.77,3.86-.18,5.61-1.29,2.38-3.03,4.17-3.22,7.03-.14,2.68.84,5.22,1.5,7.75.71,2.75,1.19,5.54,1.52,8.35,1.31,11.36.34,22.79.85,34.18.52,11.31,2.47,22.61,5.75,33.44,1.62,5.39,3.45,10.86,6,15.89,2.6,5.11,6.81,8.18,12.39,9.43,32.4,7.2,89.97,22.79,113.7,13.17,9.27-3.77,25.96-30.9,33.47-37.49,14.24-12.46,12.21-40.11,12.49-40.5h0Z"/>
    </clipPath>
    <clipPath id="clippath-4">
      <path class="cls-3" d="M300.81,339.11s-9.32-52.23-8.76-58.25c.93-10,32.89-31.05,32.89-31.05l57.91,7.62-17.6,37.34-64.46,44.33h.01Z"/>
    </clipPath>
    <clipPath id="clippath-5">
      <path class="cls-3" d="M375.93,266.05l11.9-73.7-48.15-12.68-12.03,77.28c-5.51,8.16-9.98,17.81-13.58,27.56-9.94,26.87-13.27,54.6-13.27,54.6l14.41-13.82,61.58-59.03-.85-.21Z"/>
    </clipPath>
    <clipPath id="clippath-6">
      <path class="cls-3" d="M315.2,325.29l-14.41,13.82s3.33-27.73,13.27-54.6c-2.55,13.45-2.16,27.48,1.14,40.78Z"/>
    </clipPath>
    <clipPath id="clippath-7">
      <path class="cls-3" d="M320.57,240.41c23.29,10.34,48.14.89,61.78-14.42,41.17,13.18,51.49-51.71,9.43-42.01,0,0,.24-11.57-5.44-23.04-.99-2.05-2.21-4.11-3.63-6.08,0,0-.03-.03-.04-.05-6.42-8.9-17.38-16.36-36.07-16.25-6.31.04-12.16,1.44-17.47,3.9-2.34,1.06-4.58,2.34-6.71,3.82-30.42,21-39.41,77.46-1.87,94.13h.03Z"/>
    </clipPath>
    <clipPath id="clippath-8">
      <path class="cls-3" d="M300.81,339.11c21.72-36.66,82.04-81.66,82.04-81.66l12.97,25.15c-25.7,40.14-60.38,41.03-95.01,56.51Z"/>
    </clipPath>
  </defs>
  <g class="cls-1">
    <ellipse class="cls-14" cx="350.24" cy="226.35" rx="146.16" ry="207.19" transform="translate(91.37 553.29) rotate(-84.5)"/>
    <path class="cls-6" d="M574.39,160.75c.33.58.69,1.13,1.07,1.66l3.81-2.74c-.3-.41-.57-.84-.82-1.27l-4.06,2.35ZM575.45,162.39c.08.12.16.23.24.33l3.8-2.75c-.08-.1-.14-.2-.21-.29l-3.83,2.71ZM575.69,162.72c.34.47.5.7.59.91l4.29-1.91c-.33-.74-.8-1.37-1.08-1.76l-3.8,2.75ZM576.09,162.9c.02.19-.02.52-.22,1.06-.2.53-.48,1.08-.8,1.71l4.17,2.15c.3-.58.72-1.39,1.03-2.24.31-.85.6-1.94.49-3.12l-4.67.44ZM575.07,165.67c-.08.15-.16.3-.23.45l4.19,2.12c.07-.13.14-.26.21-.42l-4.17-2.15ZM574.84,166.12c-.5.98-1.01,1.95-1.56,2.9l4.08,2.32c.58-1.02,1.13-2.05,1.66-3.1l-4.18-2.12ZM564.19,174.39c3.72-.91,7.51-1.54,11.34-1.88l-.41-4.67c-4.06.36-8.09,1.03-12.04,1.99l1.11,4.56ZM574.73,157.95c-4.13,4.28-8.29,8.47-12.67,12.43l3.15,3.48c4.49-4.06,8.74-8.34,12.9-12.65l-3.38-3.26ZM617.6,143.94c-2.79-1.51-6.1-1.24-8.63-.14l1.86,4.31c1.57-.68,3.31-.69,4.53-.04l2.24-4.12ZM608.96,143.8c-2.54,1.12-4.47,3.01-5.96,4.86l3.66,2.93c1.26-1.57,2.62-2.81,4.19-3.5l-1.89-4.3ZM607.18,150.1c-.03-2.01.03-4.09.1-6.23l-4.69-.14c-.06,2.12-.13,4.3-.1,6.43l4.69-.06ZM607.28,143.87c.06-2.12.13-4.3.1-6.43l-4.69.06c.03,2.01-.03,4.09-.1,6.23l4.69.14ZM607.38,137.48c0-.21.06-1.42-.74-2.42l-3.66,2.93c-.22-.27-.28-.53-.29-.6,0-.04,0-.06,0-.04,0,.02,0,.06,0,.13h4.69ZM606.7,135.14c-.56-.77-1.36-1.09-1.6-1.19l-1.79,4.34c.06.03.04.02-.02-.02-.06-.04-.22-.15-.38-.36l3.78-2.77ZM605.12,133.96c-3.9-1.66-8.02.66-9.87,3.47l3.91,2.59c1.05-1.59,2.97-2.22,4.12-1.74l1.83-4.32ZM595.26,137.43c-1.83,2.77-2.13,6.1-2.35,8.61l4.67.42c.24-2.69.52-4.82,1.6-6.45l-3.91-2.59ZM592.9,146.04v.06s4.67.42,4.67.42v-.06s-4.67-.42-4.67-.42ZM592.9,146.1c-.38,4.28-.75,8.28-2,12.01l4.45,1.49c1.46-4.34,1.85-8.9,2.23-13.08l-4.67-.42ZM595.32,158.05c-.83-2.25-1.69-4.4-2.54-6.5l-4.35,1.76c.86,2.12,1.69,4.19,2.49,6.36l4.4-1.62ZM592.78,151.54c-.86-2.12-1.69-4.19-2.49-6.36l-4.4,1.62c.83,2.25,1.69,4.4,2.54,6.5l4.35-1.76ZM590.29,145.17c-.2-.53-.39-1.06-.59-1.59l-4.4,1.62c.2.53.39,1.07.59,1.6l4.4-1.63ZM589.7,143.58c-.2-.53-.39-1.07-.59-1.6l-4.4,1.63c.19.53.39,1.06.59,1.59l4.4-1.62ZM589.11,141.99c-.35-.95-.7-1.9-1.05-2.85l-4.4,1.62c.35.95.7,1.89,1.04,2.84l4.41-1.61ZM588.07,139.14c-.35-.95-.7-1.89-1.04-2.84l-4.41,1.61c.35.95.7,1.9,1.05,2.85l4.4-1.62ZM587.01,136.27h0s-4.38,1.67-4.38,1.67h0s4.38-1.67,4.38-1.67ZM587.01,136.27c-.09-.25-.53-1.66-1.85-2.38l-2.25,4.12c-.27-.15-.39-.34-.41-.37,0-.01,0,0,.03.06.03.06.05.13.1.25l4.38-1.68ZM585.18,133.9c-1.28-.72-2.61-.41-3.13-.28l1.17,4.54c.06-.02.11-.02.14-.03.03,0,.03,0,.01,0-.04,0-.24,0-.48-.14l2.3-4.09ZM582.08,133.62c-3.1.75-5.78,2.95-7.04,5.84l4.3,1.87c.65-1.5,2.11-2.73,3.84-3.15l-1.11-4.56ZM575.05,139.45c-1.28,2.91-1.04,6.32.55,9.07l4.06-2.35c-.87-1.49-.97-3.33-.31-4.82l-4.29-1.89ZM576.24,145.44c-1.26.92-2.16,2.22-2.76,3.52l4.26,1.96c.37-.8.82-1.37,1.26-1.69l-2.77-3.79ZM563.99,158.51c3.31-3.36,7.58-5.96,11.78-6.23l-.3-4.68c-5.8.37-11.09,3.83-14.82,7.62l3.34,3.29ZM559.46,163.67c1.51-1.82,2.96-3.56,4.53-5.15l-3.34-3.29c-1.73,1.76-3.3,3.65-4.8,5.45l3.61,3ZM550.74,172.55c3.5-2.57,6.21-5.86,8.72-8.88l-3.61-3c-2.57,3.1-4.93,5.92-7.89,8.1l2.78,3.78ZM542.86,177.07c2.57-1.28,5.36-2.67,7.88-4.52l-2.78-3.78c-2.13,1.57-4.56,2.78-7.19,4.1l2.09,4.2ZM539.02,179.05c1.23-.68,2.51-1.32,3.84-1.99l-2.09-4.2c-1.32.66-2.68,1.34-4.02,2.08l2.28,4.1ZM521.99,195.02c1.06-3.41,3.38-6.36,6.47-9.01,3.1-2.66,6.84-4.9,10.56-6.96l-2.27-4.1c-3.76,2.09-7.85,4.52-11.33,7.5-3.48,2.98-6.49,6.63-7.9,11.18l4.48,1.39ZM512.82,240.6c1.12-5.96,3.06-16.25,4.91-25.63,1.86-9.47,3.58-17.78,4.25-19.94l-4.48-1.39c-.77,2.47-2.55,11.12-4.38,20.43-1.85,9.4-3.8,19.71-4.92,25.68l4.61.86ZM514.15,239.59c-.78-.4-1.54-.87-2.37-1.41l-2.53,3.95c.84.54,1.76,1.11,2.75,1.63l2.15-4.17ZM516.7,240.77c-.92-.39-1.74-.75-2.53-1.17l-2.17,4.16c.96.5,1.94.93,2.86,1.32l1.85-4.31ZM516.92,240.84c-.11-.04-.26-.09-.41-.14l-1.48,4.45c.09.03.18.06.3.11l1.59-4.41ZM517.22,240.94c-.09-.03-.18-.06-.3-.11l-1.59,4.41c.11.04.26.09.41.14l1.48-4.45ZM518.72,241.43c-.49-.14-.98-.3-1.47-.47l-1.55,4.43c.56.19,1.12.38,1.7.55l1.32-4.5ZM521.51,242.13c-.94-.2-1.86-.43-2.78-.7l-1.32,4.5c1.04.3,2.08.57,3.15.79l.95-4.59ZM523.08,242.42c-.52-.09-1.05-.18-1.55-.29l-.98,4.59c.59.13,1.19.24,1.77.33l.77-4.63ZM523.38,242.47c-.13-.02-.21-.03-.28-.04l-.82,4.62c.17.03.33.05.45.07l.65-4.65ZM523.77,242.53c-.14-.02-.28-.04-.39-.06l-.65,4.65c.11.02.19.03.27.04l.77-4.63ZM523.86,242.55s-.04,0-.06-.01l-.84,4.62s.03,0,.05,0l.85-4.61ZM524.01,242.57s0,0-.02,0c-.03,0-.06-.01-.12-.02l-.85,4.61c.11.02.33.06.57.08l.42-4.67ZM523.51,247.24c.09.01.17.02.22.03.02,0,.05,0,.07,0,0,0,.03,0,.06,0,0,0,.05,0,.09,0,.01,0,.09,0,.18,0,.03,0,.17,0,.34-.03.07-.01.3-.05.56-.17.1-.04,1.16-.49,1.36-1.77.21-1.32-.71-2.09-.81-2.17-.23-.2-.45-.3-.51-.33-.16-.08-.3-.12-.33-.12-.09-.03-.16-.04-.18-.04-.05-.01-.08-.02-.09-.02-.03,0-.05,0-.06,0-.02,0-.05,0-.07-.01-.05,0-.13-.02-.22-.03l-.66,4.64c.1.01.16.02.21.03.01,0,.02,0,.03,0,0,0,0,0,0,0,0,0,0,0,0,0,0,0-.01,0-.02,0,0,0-.04,0-.09-.02-.01,0-.08-.02-.17-.04-.03,0-.16-.05-.33-.12-.06-.03-.28-.13-.51-.33-.1-.08-1.02-.84-.81-2.17.2-1.28,1.27-1.73,1.36-1.77.27-.12.49-.16.56-.17.17-.03.31-.03.34-.03.09,0,.16,0,.18,0,.05,0,.08,0,.09,0,.01,0,.02,0,.02,0,0,0,0,0,0,0,0,0,0,0,0,0,0,0-.01,0-.03,0-.04,0-.11-.01-.21-.03l-.57,4.66ZM523.24,247.21c.11.01.2.02.27.03l.57-4.66c-.08,0-.17-.02-.28-.03l-.57,4.66ZM524.88,242.7c-.26,0-.46,0-.62-.02-.08,0-.07-.01-.01,0,.03,0,.13.03.26.08.07.03.16.07.27.14.11.07.25.17.41.32l-3.32,3.32c.32.32.66.48.84.56.2.08.38.13.5.16.25.06.49.08.66.1.35.03.73.03.95.04l.05-4.69ZM525.43,242.72c-.19-.02-.44-.02-.55-.02l-.05,4.69c.09,0,.14,0,.19,0,.02,0,.04,0,.04,0,0,0,0,0-.03,0l.41-4.67ZM526.71,242.8c-.45-.03-.88-.05-1.29-.08l-.39,4.68c.49.04.98.07,1.42.09l.26-4.68ZM526.78,242.8h-.07s-.26,4.68-.26,4.68h.07s.26-4.68.26-4.68ZM530.01,242.83c-1.08.04-2.15.02-3.25-.03l-.21,4.69c1.2.05,2.4.07,3.62.03l-.16-4.69ZM533.07,242.66c-1.03.08-2.04.14-3.03.16l.12,4.69c1.1-.03,2.2-.1,3.27-.18l-.35-4.68ZM533.43,242.63c-.12,0-.26.02-.39.03l.4,4.67c.11,0,.22-.02.35-.03l-.36-4.68ZM534.31,242.55c-.25.04-.52.06-.87.08l.36,4.68c.33-.03.75-.06,1.18-.12l-.66-4.64ZM534.74,242.51s-.4-.01-.85.13l1.48,4.45c-.2.07-.37.09-.47.1-.1,0-.18,0-.17,0v-4.69ZM535.48,242.37c-.33.06-.67.1-1.06.16l.64,4.65c.37-.05.79-.11,1.22-.18l-.8-4.62ZM541.48,240.94c-1.93.63-3.93,1.1-5.98,1.43l.76,4.63c2.26-.37,4.5-.89,6.67-1.6l-1.45-4.46ZM544.76,239.78c-1.09.41-2.19.8-3.27,1.15l1.45,4.46c1.17-.38,2.34-.8,3.47-1.22l-1.65-4.39ZM544.92,239.72l-.14.05,1.6,4.41.14-.05-1.6-4.41ZM547.42,240.31l-.04-.04-3.32,3.32.04.04,3.32-3.32ZM541.91,211.3c-.37,5.68.02,13.45.49,19.71.24,3.15.49,5.95.69,7.96.1,1.01.18,1.82.24,2.38.03.28.05.5.07.65,0,.07.01.13.02.17,0,.02,0,.03,0,.04,0,0,0,0,0,.01,0,0,0,0,0,0,0,0,0,0,0,0t2.33-.27q2.33-.27,2.33-.27s0,0,0,0c0,0,0,0,0,0,0,0,0,0,0,0,0,0,0-.02,0-.04,0-.04-.01-.09-.02-.16-.02-.14-.04-.35-.07-.63-.06-.55-.14-1.35-.24-2.34-.2-1.99-.45-4.75-.68-7.85-.47-6.24-.83-13.73-.49-19.06l-4.68-.3ZM545.28,213.56c7.15-3.49,15.39-7.59,22.71-11.51,7.26-3.89,13.79-7.7,17.39-10.61l-2.95-3.65c-3.21,2.6-9.36,6.22-16.66,10.13-7.23,3.88-15.41,7.94-22.55,11.43l2.06,4.22ZM585.38,191.44c2.91-2.35,5.75-4.25,8.76-6.26l-2.61-3.9c-2.99,2-6,4.01-9.09,6.51l2.95,3.65ZM594.13,185.18c1.86-1.25,3.79-2.54,5.78-3.97l-2.74-3.81c-1.92,1.38-3.78,2.63-5.65,3.88l2.61,3.9ZM599.92,181.21c2.01-1.44,4.7-3.37,6.11-6.24l-4.21-2.07c-.81,1.65-2.46,2.94-4.64,4.5l2.74,3.81ZM606.03,174.96c1.35-2.76,1.27-5.84,1.22-8.15l-4.69.1c.05,2.5.03,4.41-.74,5.99l4.22,2.06ZM606.87,168.13c1.77-2.74,3.61-5.49,5.46-8.26l-3.9-2.61c-1.85,2.76-3.7,5.54-5.49,8.31l3.94,2.55ZM612.33,159.87c2.24-3.35,4.5-6.74,6.66-10.11l-3.95-2.53c-2.13,3.33-4.36,6.67-6.6,10.03l3.9,2.61ZM618.98,149.77c.15-.23.42-.65.61-1.15.2-.53.36-1.29.14-2.16l-4.55,1.17c-.09-.36,0-.62.01-.66,0-.02,0,0-.02.04-.03.05-.07.11-.13.21l3.94,2.55ZM619.55,148.1v-.03s-4.18-2.1-4.18-2.1v.03s4.18,2.1,4.18,2.1ZM619.74,146.44c-.38-1.49-1.64-2.23-2.13-2.5l-2.25,4.12c.12.07.14.09.11.06-.03-.03-.2-.2-.28-.52l4.54-1.17ZM577.37,161.04l1.92-1.35h0s0-.01,0-.01l-1.9,1.37ZM577.59,161.35l-1.9,1.38h0s1.9-1.38,1.9-1.38ZM578.42,162.68l2.34-.22-.04-.38-.16-.35-2.14.95ZM577.16,166.75l2.08,1.08h0s-2.08-1.08-2.08-1.08ZM576.93,167.18l2.09,1.06h0s-2.09-1.06-2.09-1.06ZM575.32,170.18l.21,2.34,1.22-.11.61-1.07-2.04-1.16ZM563.64,172.11l-1.57-1.74,2.13,4.02-.56-2.28ZM576.42,159.57l2.03-1.17-1.56-2.7-2.16,2.24,1.69,1.63ZM609.91,145.95l-.93-2.15h-.01s.94,2.15.94,2.15ZM604.83,150.13l-2.35.03.08,6.55,4.09-5.11-1.83-1.47ZM604.93,143.8l-2.35-.07,2.35.07ZM605.03,137.48h-2.35s0,.03,0,.03l2.35-.03ZM604.81,136.52l-1.89,1.39.03.04.03.04,1.83-1.47ZM604.21,136.12l-.92,2.16h.01s.01.01.01.01l.89-2.17ZM597.21,138.72l1.96,1.29-1.96-1.29ZM595.24,146.25l-2.34-.21h0s2.34.21,2.34.21ZM595.23,146.31l-2.34-.21h0s2.34.21,2.34.21ZM593.12,158.85l-2.2.81,2.3,6.27,2.13-6.34-2.22-.75ZM590.6,152.42l2.18-.88-2.18.88ZM588.09,145.99l2.2-.81h0s-2.2.81-2.2.81ZM587.5,144.39l2.2-.81h0s-2.2.81-2.2.81ZM586.91,142.8l-2.2.81h0s2.2-.81,2.2-.81ZM585.86,139.95l-2.2.81,2.2-.81ZM584.82,137.11l2.2-.81v-.02s-.01-.02-.01-.02l-2.19.84ZM584.82,137.1l-2.19.84h0s2.19-.84,2.19-.84ZM584.03,135.95l-1.15,2.04h.01s.01.01.01.01l1.12-2.06ZM582.63,135.89l.55,2.28h.01s.01,0,.01,0l-.58-2.27ZM577.2,140.39l2.15.95h0s-2.15-.95-2.15-.95ZM577.63,147.33l1.38,1.89,1.71-1.25-1.06-1.83-2.03,1.18ZM575.62,149.94l.15,2.34,1.4-.09.58-1.27-2.13-.98ZM562.32,156.87l-1.67-1.65,1.67,1.65ZM557.66,162.17l1.8,1.5h0s-1.8-1.5-1.8-1.5ZM549.35,170.66l1.39,1.89h0s-1.39-1.89-1.39-1.89ZM541.81,174.97l1.05,2.1-1.05-2.1ZM537.88,177l1.14,2.05h0s-1.14-2.05-1.14-2.05ZM519.75,194.32l2.24.7h0s-2.24-.7-2.24-.7ZM510.52,240.16l-2.31-.43-.29,1.55,1.33.85,1.27-1.98ZM513.08,241.68l1.09-2.08h0s0,0,0,0l-1.07,2.09ZM515.77,242.92l-.92,2.16.09.04.09.03.74-2.23ZM516.13,243.05l.8-2.21-.8,2.21ZM516.48,243.17l.78-2.21h-.02s-.02-.01-.02-.01l-.74,2.23ZM518.06,243.68l.66-2.25h0s-.66,2.25-.66,2.25ZM521.03,244.43l.49-2.29h0s0,0,0,0l-.48,2.3ZM522.69,244.74l.41-2.31h-.01s-.01,0-.01,0l-.39,2.31ZM523.05,244.79l.33-2.32h0s-.33,2.32-.33,2.32ZM523.38,244.84l.42-2.31h-.02s-.02,0-.02,0l-.39,2.31ZM523.44,244.85l-.43,2.31h0s.42-2.31.42-2.31ZM523.8,244.91l.33-2.32h-.06s-.06-.01-.06-.01l-.21,2.34ZM523.8,244.92l-.29,2.33h0s.29-2.33.29-2.33ZM523.53,244.88l.29-2.33-6.76-.83,4.82,4.82,1.66-1.66ZM524.85,245.04l.03-2.35-.03,2.35ZM525.23,245.05l-.2,2.34h0s.19-2.34.19-2.34ZM526.58,245.14l-.13,2.34.13-2.34ZM526.65,245.14l-.13,2.34h.01s.01,0,.01,0l.11-2.34ZM530.09,245.17l-.06-2.35h-.01s-.01,0-.01,0l.08,2.34ZM533.24,245l.18,2.34h.01s.01,0,.01,0l-.2-2.34ZM533.61,244.97l-.18-2.34.18,2.34ZM534.64,244.87l.33,2.32.21-.03.2-.07-.74-2.23ZM534.74,244.86v2.35h.16l.16-.02-.32-2.32ZM535.88,244.69l-.38-2.32h0s0,0,0,0l.4,2.31ZM542.21,243.17l.72,2.23h0s-.73-2.23-.73-2.23ZM545.58,241.98l-.8-2.2h-.01s-.01,0-.01,0l.83,2.2ZM545.73,241.93l1.66-1.66-1.06-1.06-1.4.51.8,2.2ZM545.77,241.97l-1.66,1.66,4.75,4.75-.76-6.68-2.33.27ZM544.25,211.45l-1.03-2.11-1.22.6-.09,1.36,2.34.15ZM583.9,189.62l-1.47-1.83h0s1.47,1.83,1.47,1.83ZM592.83,183.23l1.31,1.95-1.31-1.95ZM598.55,179.3l-1.37-1.9h0s1.37,1.9,1.37,1.9ZM603.92,173.93l2.11,1.03h0s-2.11-1.03-2.11-1.03ZM604.9,166.85l-1.97-1.28-.39.61.02.72,2.35-.05ZM610.38,158.57l1.95,1.3h0s-1.95-1.3-1.95-1.3ZM617.01,148.5l-1.97-1.27h0s1.98,1.27,1.98,1.27ZM617.45,147.05l-2.1-1.05-.39.78.22.85,2.27-.58ZM616.48,146l1.12-2.06h0s-1.12,2.06-1.12,2.06ZM617.46,147.02l2.1,1.05.39-.78-.22-.85-2.27.58Z"/>
    <path class="cls-4" d="M576.42,159.57c-4.14,4.29-8.35,8.53-12.78,12.54,3.83-.93,7.74-1.58,11.69-1.93.56-.99,1.1-1.99,1.61-3,.07-.14.15-.29.22-.43.62-1.21,1.4-2.7,1.27-4.06-.21-.48-.52-.91-.84-1.34-.07-.1-.15-.21-.22-.31-.34-.47-.66-.96-.95-1.46ZM616.48,146c.43.24.86.56.98,1.02v.03c.12.51-.17,1.01-.46,1.45-2.14,3.35-4.39,6.72-6.63,10.07-1.85,2.77-3.69,5.53-5.48,8.28.05,2.41.08,4.9-.98,7.07-1.11,2.26-3.28,3.87-5.37,5.37-1.96,1.41-3.85,2.68-5.72,3.93-3,2.01-5.92,3.96-8.92,6.39-6.82,5.51-25.36,14.86-39.65,21.84-.72,11.01,1.51,30.51,1.51,30.51l-.04-.04-.14.05c-1.11.42-2.25.82-3.37,1.19-2.05.67-4.17,1.16-6.33,1.52-.38.07-.76.12-1.14.17-.03,0-.07,0-.1.01-.34.05-.68.07-1.03.1-.13,0-.25.02-.37.03-1.05.08-2.1.14-3.15.17-1.15.04-2.29.03-3.44-.03h-.07c-.45-.03-.91-.05-1.36-.09-.08,0-.21,0-.37-.01-.47,0-1.18-.01-1.33-.16.11.01.2.02.27.03q.38.05,0,0c-.12-.01-.24-.03-.36-.05-.02,0-.04,0-.06-.01-.11-.02-.22-.03-.33-.05-.12-.02-.25-.03-.36-.06-.55-.09-1.11-.2-1.66-.31-1.01-.21-1.99-.46-2.97-.75-.54-.16-1.06-.33-1.58-.51-.12-.04-.24-.08-.35-.12-.12-.04-.24-.08-.35-.12-.92-.39-1.82-.78-2.69-1.24-.89-.46-1.73-.98-2.56-1.52,2.24-11.92,7.79-41.21,9.23-45.84,2.47-7.96,10.66-13.18,18.13-17.32,1.29-.71,2.61-1.37,3.93-2.03,2.61-1.3,5.21-2.6,7.53-4.31,3.23-2.37,5.77-5.43,8.31-8.49,1.5-1.81,3.01-3.63,4.66-5.3,3.52-3.57,8.3-6.61,13.3-6.92.48-1.05,1.16-1.98,2.01-2.61-1.23-2.12-1.4-4.75-.43-6.94.95-2.2,3.02-3.91,5.44-4.5.46-.12.98-.18,1.4.05.43.23.61.71.78,1.16h0c.35.96.7,1.9,1.05,2.85.35.95.7,1.9,1.05,2.84.2.53.39,1.06.59,1.59.2.53.39,1.07.59,1.6.81,2.21,1.66,4.32,2.52,6.43s1.71,4.22,2.52,6.43c1.35-4.03,1.74-8.31,2.11-12.54v-.06c.24-2.6.53-5.33,1.98-7.53,1.45-2.2,4.47-3.67,6.99-2.6.22.09.46.21.6.41.21.26.22.63.22.95.03,2.07-.04,4.2-.1,6.33-.06,2.13-.12,4.26-.1,6.33,1.37-1.71,3.02-3.28,5.07-4.18,2.05-.89,4.58-1.03,6.58.05Z"/>
    <path class="cls-6" d="M588.95,169.99c-.25.75-.77,2.05-1.35,3.21-.29.58-.58,1.1-.85,1.49-.31.45-.46.55-.44.54l1.05,2.1c.56-.28,1.01-.85,1.33-1.31.35-.52.7-1.14,1.01-1.77.63-1.26,1.19-2.65,1.47-3.51l-2.23-.74ZM586.67,161.62c.31.23.68.73,1.04,1.52.35.77.65,1.69.87,2.65.22.95.36,1.9.42,2.69.06.84,0,1.35-.05,1.51l2.23.74c.21-.64.23-1.55.17-2.42-.06-.93-.22-2-.47-3.06-.25-1.06-.59-2.15-1.03-3.1-.42-.92-1-1.84-1.76-2.41l-1.41,1.88ZM581.45,148.21c1.05,2.61,1.69,5.33,2.38,7.75.34,1.18.69,2.31,1.12,3.26.41.93.95,1.82,1.73,2.4l1.41-1.88c-.3-.22-.64-.68-.99-1.48-.35-.78-.67-1.78-1-2.94-.65-2.29-1.35-5.21-2.46-7.98l-2.18.87ZM575.84,148.61c.63-.63,1.9-1.55,3.1-1.84.58-.14,1.04-.11,1.4.06.34.16.76.52,1.11,1.39l2.18-.87c-.51-1.28-1.29-2.18-2.29-2.64-.99-.46-2.03-.43-2.94-.21-1.77.43-3.41,1.66-4.21,2.46l1.66,1.66ZM582.54,147.78l1.09-.44-1.09.44Z"/>
    <path class="cls-6" d="M594.17,161.06c.65.52,1.17,1,1.55,1.58.37.56.64,1.27.7,2.28.12,2.1-.7,5.49-3.64,11.37l2.1,1.05c2.97-5.95,4.04-9.81,3.89-12.55-.08-1.41-.48-2.52-1.08-3.44-.59-.9-1.35-1.56-2.04-2.12l-1.47,1.83ZM591.58,152.67c.09,1.93.31,3.69.7,5.1.37,1.35.95,2.66,1.97,3.34l1.3-1.95c-.27-.18-.67-.75-1.01-2.01-.32-1.19-.53-2.76-.62-4.6l-2.34.11ZM594.9,160.15l.73-.92-.04-.03-.04-.03-.65.98Z"/>
    <rect class="cls-6" x="597.48" y="151.71" width="15.82" height="2.35" transform="translate(351.86 723.5) rotate(-80.22)"/>
    <path class="cls-7" d="M401.14,379.08c26.51.18,80.41-8.58,110.76-9.2,5.31-.1,10.2-1.5,14.04-5.28,3.19-3.12,5.4-7.06,8.49-10.28,3.24-3.39,7.49-5.62,10.49-9.28,3.2-3.92,3.86-8.97,4.38-13.85.63-5.9,1.26-11.79,1.88-17.69,1.23-11.6,2.63-23.17,3.8-34.76.55-5.37.52-10.6-2.48-15.27-.3-.46-.89-1.16-.71-1.74.14-.43.67-.77,1.01-1.05.98-.8,2.03-1.54,3.03-2.31,2.35-1.79,4.71-3.58,7.06-5.37.82-.63.69-2.14-.21-2.63-17.09-9.3-34.74-17.49-53.16-23.76-.22-.08-.42-.09-.61-.09-.77-.97-2.8-.98-3.07.48-1.23,6.62-2.35,13.23-3.49,19.86-2.01,11.78-4,23.57-5.99,35.37-.51,2.99-1.01,5.97-1.52,8.97-.13.75-.25,1.5-.37,2.25-1.12-.13-2.25-.18-3.39-.13-3.11.14-7.94.55-9.62,3.65-1.28,2.35-.68,5.63.35,8.34-.78-.18-1.58-.38-2.37-.58-24.51-6.03-62.01-17.53-86.67-22.95-2-.44-.84,92.92,8.34,97.28h.01Z"/>
    <g class="cls-15">
      <path class="cls-6" d="M399.47,380.72h.01s3.32-3.3,3.32-3.3h-.01s-3.32,3.3-3.32,3.3ZM393.29,279.49c-1.34-.3-2.2.57-2.45.9-.27.35-.4.7-.45.86-.13.37-.21.79-.26,1.16-.12.77-.21,1.84-.28,3.12-.15,2.58-.23,6.25-.24,10.65-.03,8.8.22,20.61.81,32.56.6,11.94,1.54,24.1,2.93,33.56.69,4.72,1.5,8.86,2.46,12,.48,1.56,1.02,2.96,1.64,4.09.59,1.06,1.43,2.21,2.67,2.8l2.02-4.24c.1.05-.15-.05-.58-.84-.4-.72-.83-1.78-1.26-3.18-.86-2.8-1.63-6.67-2.3-11.31-1.35-9.25-2.29-21.23-2.88-33.12-.59-11.88-.84-23.6-.81-32.31.01-4.36.1-7.94.24-10.4.07-1.24.15-2.14.23-2.69.04-.3.07-.38.06-.33,0,.02-.03.07-.06.15-.03.07-.1.2-.22.35-.2.25-.99,1.09-2.27.8l1.02-4.58ZM480.01,302.45c-12.21-3-27.67-7.37-43.21-11.69-15.51-4.3-31.11-8.55-43.51-11.27l-1.01,4.58c12.26,2.69,27.73,6.9,43.26,11.21,15.5,4.3,31.05,8.7,43.35,11.72l1.12-4.56ZM482.35,303.01c-.77-.18-1.55-.37-2.33-.57l-1.14,4.55c.79.2,1.6.4,2.4.58l1.07-4.57ZM479.41,295.84c-.93,1.71-1.11,3.63-.97,5.35.14,1.74.62,3.46,1.19,4.95l4.38-1.67c-.46-1.22-.8-2.49-.9-3.66-.1-1.18.07-2.08.41-2.72l-4.12-2.24ZM490.98,290.97c-1.57.07-3.79.22-5.87.8-2.05.58-4.41,1.7-5.7,4.07l4.12,2.24c.4-.73,1.29-1.36,2.85-1.79,1.53-.43,3.28-.56,4.82-.63l-.22-4.69ZM494.75,291.11c-1.23-.14-2.48-.2-3.76-.14l.22,4.69c.99-.05,1.99,0,3.01.12l.54-4.66ZM492.53,290.79c-.14.77-.26,1.55-.37,2.29l4.63.73c.12-.76.23-1.49.36-2.21l-4.62-.81ZM494.05,281.83c-.26,1.5-.51,3-.76,4.49-.25,1.49-.5,2.99-.76,4.48l4.63.79c.26-1.5.51-3,.76-4.49.25-1.49.5-2.99.76-4.48l-4.63-.79ZM500.03,246.46c-2.01,11.78-4,23.58-5.99,35.37l4.63.78c1.99-11.79,3.97-23.58,5.99-35.36l-4.62-.79ZM503.53,226.57c-1.23,6.64-2.36,13.27-3.5,19.89l4.62.79c1.14-6.64,2.26-13.23,3.49-19.83l-4.61-.86ZM510.74,225.05c-.97-1.21-2.5-1.66-3.77-1.54-1.39.13-3.06,1.03-3.44,3.06l4.61.86c-.04.19-.16.42-.37.58-.18.14-.33.16-.37.17-.04,0-.07,0-.09,0-.02,0-.12-.05-.24-.19l3.67-2.93ZM510.3,224.39c-.58-.21-1.08-.23-1.4-.23v4.69s.04,0,0,0c-.05,0-.1-.02-.16-.04l1.56-4.42ZM563.8,248.3c-17.17-9.34-34.95-17.6-53.53-23.92l-1.51,4.44c18.26,6.21,35.79,14.35,52.79,23.6l2.24-4.12ZM564.31,254.86c1.21-.92,1.55-2.33,1.46-3.43-.09-1.09-.65-2.42-1.98-3.14l-2.22,4.14c-.43-.23-.47-.56-.48-.62,0-.06,0-.4.37-.69l2.84,3.73ZM557.25,260.23c1.18-.9,2.35-1.79,3.53-2.69,1.18-.9,2.35-1.79,3.53-2.69l-2.84-3.73c-1.18.9-2.35,1.79-3.53,2.69-1.18.9-2.35,1.79-3.53,2.69l2.84,3.73ZM554.28,262.5c.95-.78,1.88-1.43,2.98-2.27l-2.85-3.72c-.91.7-2.08,1.54-3.09,2.36l2.96,3.64ZM554.02,262.47c-.07.21-.16.33-.2.38-.04.05-.06.06-.02.03.03-.03.08-.07.16-.13.04-.04.08-.06.14-.11.05-.04.11-.09.17-.14l-2.95-3.65s-.43.33-.68.55c-.28.25-.81.78-1.08,1.58l4.45,1.48ZM554.46,262.17c-.06-.08-.11-.17-.16-.23-.05-.07-.09-.12-.13-.18-.08-.11-.12-.18-.14-.22-.02-.05,0,0,.04.13.03.14.07.42-.05.77l-4.47-1.42c-.39,1.24.11,2.3.33,2.72.23.43.63.99.65,1.02l3.92-2.58ZM557.32,278.97c.56-5.47.62-11.4-2.85-16.78l-3.94,2.54c2.55,3.96,2.66,8.48,2.12,13.76l4.67.48ZM553.51,313.74c1.22-11.52,2.63-23.2,3.81-34.77l-4.67-.47c-1.18,11.62-2.57,23.08-3.8,34.75l4.67.49ZM551.63,331.43l.94-8.84c.31-2.95.63-5.9.94-8.84l-4.67-.5-.94,8.84c-.31,2.95-.63,5.9-.94,8.84l4.67.5ZM546.73,346.52c3.71-4.54,4.38-10.29,4.9-15.08l-4.67-.5c-.53,4.96-1.16,9.31-3.86,12.61l3.63,2.97ZM536.12,355.94c1.48-1.54,3.18-2.83,5.09-4.31,1.84-1.44,3.84-3.05,5.52-5.11l-3.63-2.97c-1.32,1.61-2.94,2.94-4.78,4.38-1.78,1.39-3.82,2.92-5.59,4.76l3.39,3.25ZM527.59,366.27c1.74-1.7,3.18-3.6,4.51-5.37,1.36-1.81,2.6-3.47,4.02-4.96l-3.39-3.25c-1.66,1.73-3.07,3.64-4.38,5.39-1.34,1.79-2.6,3.42-4.05,4.84l3.28,3.35ZM511.95,372.22c5.69-.11,11.24-1.63,15.64-5.95l-3.29-3.35c-3.29,3.23-7.52,4.51-12.44,4.61l.09,4.69ZM401.12,381.42c13.43.09,33.69-2.07,54.21-4.31,20.63-2.25,41.57-4.58,56.62-4.89l-.1-4.69c-15.31.32-36.49,2.68-57.03,4.92-20.64,2.25-40.58,4.37-53.67,4.28l-.03,4.69ZM401.13,379.06l1.66-1.66-.29-.29-.37-.17-1.01,2.12ZM392.78,281.78l-.51,2.29h0s.5-2.29.5-2.29ZM479.45,304.72l.57-2.28h0s-.56,2.28-.56,2.28ZM481.82,305.3l-.53,2.28,4.3,1-1.57-4.12-2.19.84ZM481.47,296.96l2.06,1.12h0s-2.06-1.12-2.06-1.12ZM491.09,293.31l-.11-2.34h0s.11,2.34.11,2.34ZM494.48,293.44l-.27,2.33,2.24.26.35-2.22-2.32-.37ZM494.84,291.19l2.31.41h0s-2.31-.41-2.31-.41ZM496.36,282.22l2.31.39h0s-2.31-.39-2.31-.39ZM502.35,246.86l-2.31-.4h0s2.31.4,2.31.4ZM505.84,227l-2.31-.43h0s2.31.43,2.31.43ZM508.91,226.51l-1.83,1.46.7.88h1.13v-2.35ZM509.52,226.61l-.78,2.21h.01s.01,0,.01,0l.76-2.22ZM562.68,250.36l-1.12,2.06h.01s1.11-2.06,1.11-2.06ZM562.89,252.99l1.42,1.87h0s-1.42-1.87-1.42-1.87ZM555.83,258.36l-1.42-1.87h0s1.43,1.87,1.43,1.87ZM552.8,260.68l1.47,1.83h0s-1.48-1.83-1.48-1.83ZM551.79,261.72l-2.23-.74v.02s0,.02,0,.02l2.24.71ZM552.5,263.46l1.97-1.27h0s0-.02,0-.02l-1.96,1.29ZM554.98,278.73l-2.33-.24h0s2.33.24,2.33.24ZM551.18,313.5l2.33.25h0s-2.33-.25-2.33-.25ZM549.3,331.19l2.33.25h0s-2.33-.25-2.33-.25ZM544.92,345.03l1.82,1.49h0s-1.82-1.49-1.82-1.49ZM534.43,354.31l1.69,1.62h0s-1.69-1.62-1.69-1.62ZM525.95,364.59l-1.64-1.68h0s1.64,1.68,1.64,1.68ZM511.9,369.87l-.05-2.35h0s.05,2.35.05,2.35ZM401.14,379.08l-1.66,1.66.68.68h.96s.02-2.34.02-2.34Z"/>
    </g>
    <path class="cls-8" d="M512.11,349.42c-.58-1.67-1.77-3.06-2.78-4.48-1.14-1.6-2.34-3.15-3.48-4.76-2.24-3.14-4.3-6.39-6.25-9.73-3.91-6.67-7.71-13.43-11.4-20.23-.48-.88-2.05-.3-1.67.68,2.9,7.32,5.69,14.66,9.52,21.56,1.87,3.37,3.9,6.65,6.13,9.79,1.14,1.6,2.31,3.18,3.63,4.64,1.28,1.41,2.76,3.11,4.54,3.86.85.35,2.12-.26,1.75-1.35h.01Z"/>
    <path class="cls-8" d="M535.84,336.43c-3.23-2.77-6.39-5.63-9.31-8.73-2.98-3.16-5.75-6.52-8.63-9.78-2.82-3.19-5.78-6.26-9.19-8.85-3.53-2.68-7.66-4.98-9.96-8.9-.68-1.16-2.39-.17-1.82,1.03,2.03,4.14,5.48,7.06,8.79,10.13,3.24,3.01,6.21,6.31,9.11,9.65,5.7,6.58,11.48,14.24,19.9,17.39,1.06.39,1.96-1.2,1.11-1.93Z"/>
    <path class="cls-8" d="M548.1,257.29c-5.75-4.18-11.17-8.8-17.14-12.68-5.44-3.53-10.97-7.78-17.48-8.97-1.75-.31-3.15,2.3-1.27,3.11,5.96,2.56,11.31,6.51,16.77,9.96,5.88,3.73,12.21,6.62,18.28,10.01.97.54,1.69-.84.82-1.45h.01Z"/>
    <path class="cls-7" d="M257.56,356.33c.78,5.14,1.44,11.45,3.11,16.37,1.7,4.96,3.45,9.92,4.5,15.07,1.05,5.13,1.45,10.33,1.66,15.55.43,10.59.12,21.28,2.13,31.74.89,4.62,2.04,9.9,4.88,13.77,3.22,4.38,8.18,5.11,13.22,5.92,11.31,1.83,22.67,3.43,34.06,4.71,20.85,2.34,43.34,4.88,63.21-3.54,4.29-1.82,8.33-4.58,10.43-8.86,1.91-3.91,2.21-8.38,1.79-12.66-.44-4.51-1.44-8.97-1.56-13.51-.13-4.88,1.39-9.37,3.66-13.65,2.41-4.52,5.4-8.72,8.12-13.06,2.78-4.45,5.44-8.97,7.99-13.56,5.09-9.18,9.7-18.6,13.79-28.27,4.12-9.73,8.17-19.77,10.85-30.01,1.28-4.93,1.88-10.18.43-15.14-1.12-3.83-3.26-7.26-5.97-10.16-5.8-6.2-13.73-9.9-21.35-13.34-9.91-4.46-19.86-8.81-30.06-12.56-39.04-14.36-63.2-13.01-78.58-.75-7.95,6.34-15.81,12.98-22.63,20.54-3.37,3.74-6.56,7.67-9.44,11.82-2.81,4.04-5.09,8.29-7.28,12.67-4.35,8.69-7.33,18.2-8.28,27.89-.47,4.84.58,8.21,1.31,13.01Z"/>
    <g class="cls-18">
      <path class="cls-6" d="M253.92,343.09c-.51,5.23.64,9.13,1.32,13.59l4.64-.71c-.78-5.13-1.73-7.98-1.29-12.43l-4.67-.45ZM262.43,314.38c-4.47,8.92-7.54,18.7-8.51,28.71l4.67.45c.91-9.36,3.8-18.59,8.04-27.06l-4.2-2.1ZM269.88,301.42c-2.91,4.18-5.24,8.55-7.45,12.96l4.19,2.1c2.18-4.35,4.4-8.48,7.11-12.38l-3.85-2.68ZM279.51,289.37c-3.43,3.8-6.68,7.81-9.62,12.05l3.85,2.68c2.81-4.05,5.94-7.91,9.25-11.59l-3.48-3.14ZM302.42,268.57c-7.97,6.36-15.95,13.1-22.91,20.8l3.48,3.14c6.69-7.41,14.43-13.96,22.35-20.28l-2.93-3.67ZM383.27,268.94c-39.22-14.42-64.46-13.45-80.85-.38l2.93,3.67c14.36-11.45,37.44-13.18,76.3,1.11l1.62-4.4ZM413.48,281.57c-9.92-4.46-19.93-8.84-30.21-12.63l-1.62,4.4c10.12,3.72,20,8.05,29.91,12.5l1.92-4.28ZM435.58,295.44c-6.17-6.59-14.53-10.46-22.1-13.87l-1.93,4.28c7.68,3.46,15.17,7,20.6,12.8l3.42-3.21ZM442.09,306.54c-1.24-4.24-3.59-7.98-6.51-11.1l-3.42,3.21c2.51,2.68,4.43,5.79,5.44,9.22l4.5-1.32ZM441.68,322.93c1.33-5.11,2.04-10.85.41-16.39l-4.5,1.32c1.28,4.37.78,9.14-.45,13.89l4.54,1.18ZM430.72,353.26c4.12-9.73,8.23-19.91,10.96-30.33l-4.54-1.19c-2.63,10.06-6.63,19.97-10.74,29.68l4.32,1.83ZM416.81,381.75c5.12-9.25,9.78-18.75,13.9-28.49l-4.32-1.83c-4.06,9.58-8.64,18.94-13.69,28.04l4.1,2.27ZM408.76,395.42c2.81-4.48,5.48-9.04,8.05-13.66l-4.1-2.28c-2.53,4.56-5.16,9.04-7.93,13.45l3.98,2.49ZM400.73,408.34c2.36-4.43,5.21-8.41,8.04-12.92l-3.98-2.49c-2.62,4.17-5.75,8.59-8.2,13.21l4.14,2.2ZM397.34,420.82c-.12-4.33,1.22-8.42,3.39-12.48l-4.14-2.2c-2.39,4.49-4.08,9.39-3.93,14.81l4.69-.13ZM398.88,434.16c-.23-2.32-.6-4.65-.91-6.84-.32-2.23-.58-4.37-.63-6.49l-4.69.12c.06,2.41.36,4.77.68,7.03.33,2.3.67,4.45.89,6.64l4.67-.46ZM396.87,448.07c2.17-4.45,2.46-9.41,2.02-13.91l-4.67.46c.4,4.05.08,8.03-1.56,11.4l4.22,2.06ZM385.24,458.07c4.53-1.92,9.16-4.98,11.62-9.99l-4.21-2.07c-1.75,3.57-5.2,6.02-9.24,7.74l1.83,4.32ZM320.85,461.78c20.72,2.33,43.85,4.99,64.39-3.71l-1.83-4.32c-19.21,8.14-41.05,5.73-62.04,3.37l-.52,4.66ZM286.68,457.06c11.34,1.84,22.74,3.44,34.17,4.72l.52-4.66c-11.35-1.28-22.67-2.87-33.95-4.69l-.75,4.63ZM271.94,450.21c3.88,5.28,9.91,6.07,14.74,6.85l.75-4.63c-5.24-.84-9.15-1.52-11.7-4.99l-3.78,2.78ZM266.65,435.5c.88,4.55,2.09,10.35,5.29,14.71l3.78-2.77c-2.48-3.38-3.56-8.14-4.47-12.82l-4.61.89ZM264.48,403.41c.42,10.37.11,21.4,2.17,32.09l4.61-.89c-1.97-10.23-1.65-20.58-2.09-31.4l-4.69.19ZM262.87,388.24c1.01,4.94,1.41,10,1.61,15.17l4.69-.19c-.21-5.27-.62-10.61-1.71-15.92l-4.6.94ZM258.45,373.45c1.71,5,3.41,9.81,4.42,14.78l4.6-.93c-1.08-5.33-2.89-10.46-4.58-15.37l-4.44,1.52ZM255.24,356.68c.75,4.94,1.45,11.59,3.21,16.77l4.44-1.51c-1.59-4.66-2.2-10.63-3.01-15.96l-4.64.71ZM256.25,343.31l2.33.23h0s-2.34-.23-2.34-.23ZM264.53,315.43l-2.1-1.05h0s2.1,1.05,2.1,1.05ZM271.81,302.76l1.93,1.34h0s-1.93-1.34-1.93-1.34ZM281.25,290.94l-1.74-1.57h0s1.74,1.57,1.74,1.57ZM303.88,270.4l-1.46-1.83h0s1.46,1.83,1.46,1.83ZM382.46,271.15l.81-2.2h0s-.81,2.2-.81,2.2ZM412.51,283.71l.96-2.14h0s-.96,2.14-.96,2.14ZM433.86,297.05l-1.71,1.6h0s1.71-1.6,1.71-1.6ZM439.84,307.2l2.25-.66h0s-2.25.66-2.25.66ZM439.41,322.34l2.27.59h0s-2.27-.59-2.27-.59ZM428.55,352.35l2.16.91h0s-2.16-.91-2.16-.91ZM414.76,380.62l2.05,1.14h0s-2.05-1.14-2.05-1.14ZM406.77,394.17l1.99,1.25h0s-1.99-1.25-1.99-1.25ZM398.65,407.23l2.07,1.1h0s-2.07-1.1-2.07-1.1ZM394.99,420.88l2.35-.06h0s-2.35.06-2.35.06ZM396.55,434.39l2.33-.23h0s-2.33.23-2.33.23ZM394.76,447.05l2.11,1.03h0s-2.11-1.03-2.11-1.03ZM384.33,455.91l.92,2.16h0s-.92-2.16-.92-2.16ZM321.11,459.45l-.26,2.33h0s.26-2.33.26-2.33ZM287.05,454.75l.37-2.32h0s-.37,2.32-.37,2.32ZM273.84,448.82l-1.89,1.39h0s1.89-1.39,1.89-1.39ZM268.96,435.06l-2.3.44h0s2.3-.44,2.3-.44ZM266.83,403.31l-2.34.09h0s2.34-.09,2.34-.09ZM265.17,387.77l-2.3.47h0s2.3-.47,2.3-.47ZM260.67,372.69l-2.22.76h0s2.22-.76,2.22-.76ZM257.56,356.33l-2.32.35h0s2.32-.35,2.32-.35Z"/>
    </g>
    <path class="cls-6" d="M416.32,376.71c-5.88-9.08-13.92-23.86-18.93-38.64-2.51-7.39-4.24-14.73-4.59-21.33-.35-6.61.7-12.36,3.62-16.69l-1.95-1.31c-3.32,4.92-4.38,11.25-4.02,18.13.36,6.89,2.16,14.46,4.71,21.96,5.09,15.01,13.23,29.96,19.19,39.16l1.97-1.27Z"/>
    <polygon class="cls-7" points="442.21 298.85 413.72 288.1 414.79 373.58 417.48 375.2 423.93 370.9 439.53 341.33 454.04 314.98 442.21 298.85"/>
    <path class="cls-8" d="M311.25,427.11c-.85-4.14-2.54-8.01-4.76-11.78-1.11-1.9-2.42-3.7-3.22-5.72-.8-2.01-.79-3.87-.24-5.93.51-2,1.14-3.91,1.37-5.95.23-2.08-.22-4.09-.99-6.06-1.62-4.18-3.57-8.2-4.7-12.51-2.25-8.57-1.62-17.52.66-26.04,2.73-10.14,7.36-19.93,11.9-29.61.41-.86-1.35-1.44-1.84-.6-9.37,16.21-18.76,33.55-16.27,51.93.58,4.24,1.79,8.33,3.87,12.27,1.12,2.11,2.8,4.02,3.76,6.19,1.06,2.36.88,4.33-.32,6.61-1.03,1.96-2.1,3.87-2.3,6.02-.19,1.94.3,3.93,1.12,5.75,1.83,3.96,5.13,7.32,6.73,11.34,3.79,9.57.27,19.61-.35,29.34-.11,1.59,2.75,1.78,3.29.35,3.1-8.19,4.02-17.14,2.29-25.59h.01Z"/>
    <path class="cls-8" d="M364.54,402.56c-2.58-1.74-5.73-2.18-8.92-2.44-3.35-.27-6.72-.27-10.08-.43-6.94-.33-13.85-.85-20.75-1.53-13.91-1.39-27.78-3.69-41.3-6.85-1.45-.34-1.96,1.49-.59,1.91,13.11,4.03,26.53,7.05,40.29,8.9,6.73.92,13.56,1.53,20.36,1.84,3.41.16,6.84.18,10.25.3.86.03,1.7.09,2.55.18-1.19.3-2.38.56-3.53.85-3.16.78-6.34,1.5-9.57,2.09-6.55,1.2-13.13,2.2-19.82,2.58-12.53.71-24.84-.84-36.52-4.81-1.93-.65-3.06,1.99-1.35,2.84,11.2,5.58,24.84,6.88,37.56,5.9,6.69-.51,13.31-1.63,19.77-3.19,3.37-.81,6.73-1.77,10.07-2.71,3.31-.94,6.76-2.39,10.24-2.68,1.41-.12,2.75-1.8,1.33-2.76h0Z"/>
    <path class="cls-6" d="M119.73,128.86c3.67,4.71,7.44,9.42,11.47,13.93l3.5-3.13c-3.92-4.39-7.61-9-11.26-13.68l-3.7,2.88ZM133.75,139.02c-3.83-1.38-7.77-2.47-11.79-3.26l-.91,4.6c3.78.74,7.5,1.77,11.1,3.07l1.59-4.41ZM118.05,135.78c.41,1.08.84,2.15,1.31,3.21l4.3-1.87c-.43-.99-.84-1.99-1.22-3l-4.39,1.66ZM117.88,135.33c.06.16.12.31.17.44l4.39-1.65c-.06-.16-.12-.33-.19-.49l-4.38,1.69ZM116.93,129.86c-.23,1.15-.06,2.27.16,3.14.22.88.55,1.72.78,2.33l4.38-1.69c-.25-.65-.47-1.22-.61-1.78-.14-.56-.14-.9-.11-1.08l-4.6-.92ZM118.51,127.47c-.34.37-.88.96-1.29,1.66l4.03,2.4c.13-.22.34-.47.74-.91l-3.48-3.15ZM118.71,127.24c-.06.07-.13.14-.2.22l3.48,3.15c.07-.08.15-.16.22-.25l-3.5-3.12ZM119.69,126.04c-.3.41-.62.81-.97,1.2l3.5,3.13c.44-.5.87-1.02,1.27-1.57l-3.8-2.76ZM84.04,111.87c1.28-.52,3-.33,4.5.52l2.31-4.08c-2.42-1.37-5.66-1.99-8.6-.78l1.78,4.34ZM88.54,112.4c1.48.85,2.71,2.23,3.78,3.92l3.96-2.51c-1.28-2.02-3.01-4.11-5.42-5.49l-2.32,4.08ZM96.63,115.35c.26-2.12.42-4.29.59-6.4l-4.68-.36c-.16,2.13-.32,4.2-.57,6.2l4.66.56ZM97.22,108.94c.16-2.13.32-4.2.57-6.2l-4.66-.56c-.26,2.12-.42,4.29-.59,6.4l4.68.36ZM97.78,102.74c0-.07.01-.11.02-.13,0-.02,0,0,0,.03-.02.07-.1.29-.31.51l-3.41-3.23c-.85.89-.93,2.04-.95,2.26l4.66.56ZM97.44,103.19c-.13.13-.24.19-.3.22-.06.03-.09.04-.09.04l-1.26-4.52c-.42.12-1.1.37-1.67.94l3.32,3.32ZM97.1,103.44c1.2-.36,3.03.47,3.92,2.17l4.16-2.16c-1.55-2.98-5.39-5.73-9.44-4.5l1.36,4.49ZM101.02,105.61c.9,1.73.94,3.86.9,6.58l4.69.07c.04-2.53.1-5.87-1.43-8.82l-4.16,2.16ZM101.92,112.19c0,.1,0,.21,0,.31l4.69.07c0-.1,0-.21,0-.31l-4.69-.07ZM101.91,112.51c-.06,4.12-.14,8.61.83,12.99l4.58-1.02c-.84-3.75-.79-7.68-.72-11.9l-4.69-.07ZM107.14,126.02c1.02-2.07,2.07-4.05,3.15-6.06l-4.14-2.21c-1.07,2.01-2.16,4.05-3.22,6.2l4.21,2.07ZM110.29,119.96c1.07-2.01,2.16-4.05,3.22-6.2l-4.21-2.07c-1.02,2.07-2.07,4.05-3.15,6.06l4.14,2.21ZM113.51,113.75c.33-.67.66-1.34.99-2.02l-4.2-2.08c-.33.67-.67,1.36-1.01,2.04l4.22,2.05ZM114.51,111.74c.17-.34.34-.68.5-1.02l-4.21-2.08c-.17.34-.33.67-.5,1.01l4.2,2.08ZM115.01,110.71c.44-.9.89-1.8,1.34-2.71l-4.21-2.08c-.45.9-.9,1.81-1.34,2.73l4.21,2.06ZM116.35,108c.45-.9.9-1.81,1.34-2.73l-4.21-2.06c-.44.9-.89,1.8-1.34,2.71l4.21,2.08ZM117.7,105.26c.05-.09.08-.16.1-.2.03-.05.04-.06.03-.05-.01.02-.13.17-.39.29l-1.89-4.29c-1.34.59-1.9,1.87-2.07,2.21l4.22,2.05ZM117.38,105.32c-.24.1-.42.08-.45.08-.02,0,0,0,.03,0,.03,0,.08.02.15.05l1.56-4.42c-.49-.17-1.75-.59-3.07-.05l1.79,4.34ZM117.09,105.45c1.69.61,3.01,1.99,3.51,3.56l4.47-1.43c-.96-3.01-3.38-5.45-6.38-6.54l-1.6,4.41ZM120.59,109c.49,1.57.2,3.39-.81,4.75l3.77,2.79c1.9-2.56,2.46-5.94,1.52-8.95l-4.48,1.41ZM120.08,116.87c.4.37.79.98,1.07,1.8l4.44-1.51c-.46-1.34-1.21-2.71-2.35-3.75l-3.16,3.46ZM137.7,124.75c-3.31-4.16-8.2-8.17-13.93-9.15l-.79,4.62c4.14.71,8.1,3.75,11.05,7.45l3.67-2.92ZM141.93,130.72c-1.3-1.96-2.67-4.02-4.23-5.97l-3.67,2.93c1.4,1.76,2.66,3.65,3.99,5.64l3.91-2.6ZM148.89,139.57c-2.7-2.47-4.74-5.51-6.96-8.85l-3.91,2.6c2.17,3.26,4.51,6.8,7.7,9.72l3.17-3.46ZM155.66,144.46c-2.51-1.6-4.8-3.08-6.77-4.89l-3.17,3.46c2.32,2.13,4.97,3.82,7.41,5.38l2.53-3.95ZM159.37,146.91c-1.23-.86-2.5-1.67-3.71-2.45l-2.53,3.95c1.23.79,2.41,1.54,3.55,2.34l2.69-3.84ZM176.53,167.53c-.92-4.67-3.52-8.62-6.67-11.95-3.14-3.33-6.95-6.19-10.48-8.67l-2.69,3.84c3.48,2.44,6.96,5.07,9.76,8.04,2.8,2.97,4.79,6.14,5.48,9.64l4.6-.91ZM180.88,214.36c-.48-6.05-1.32-16.51-2.16-26.05-.83-9.45-1.69-18.24-2.19-20.78l-4.6.91c.44,2.22,1.27,10.66,2.12,20.28.84,9.52,1.68,19.96,2.16,26.01l4.68-.37ZM176.69,217.97c1.02-.4,1.98-.86,2.92-1.34l-2.15-4.17c-.84.43-1.66.82-2.49,1.15l1.72,4.36ZM173.71,218.98c.95-.29,1.97-.61,2.99-1.02l-1.72-4.36c-.84.33-1.71.61-2.64.89l1.37,4.49ZM173.5,219.04s.08-.02.12-.03l-1.19-4.54s-.09.02-.13.04l1.2,4.53ZM172.77,219.22c.27-.06.53-.13.72-.18l-1.2-4.53c-.21.06-.35.09-.49.12l.97,4.59ZM171.11,219.57c.55-.1,1.14-.22,1.74-.37l-1.11-4.56c-.47.12-.96.21-1.5.31l.88,4.61ZM167.88,220.03c1.08-.11,2.15-.26,3.21-.46l-.84-4.62c-.95.17-1.89.31-2.85.41l.48,4.67ZM166.11,220.17c.56-.04,1.15-.08,1.74-.14l-.43-4.67c-.53.05-1.07.09-1.63.13l.33,4.68ZM165.89,220.18c.08,0,.14-.01.19-.01l-.26-4.68c-.1,0-.2.01-.28.02l.35,4.68ZM165.24,220.21c.26,0,.5-.02.64-.03l-.35-4.68c-.17.01-.24.02-.3.02v4.69ZM164.82,220.22c.12,0,.38,0,.65-.02l-.47-4.67s.01,0-.03,0c-.04,0-.08,0-.16,0v4.69ZM165.05,215.53c-.16,0-.29,0-.38,0-.1,0-.14,0-.13,0s.01,0,.03,0c0,0,.02,0,.04,0,.01,0,.05,0,.1,0,.02,0,.08,0,.16.02.04,0,.11.02.21.04.05.01.3.07.59.23.17.1.57.44.78.7.25.45.42,1.52.31,2.1-.18.4-.61.96-.81,1.13-.13.09-.37.23-.47.27-.18.08-.33.12-.38.13-.07.02-.12.03-.16.03-.1.02-.19.03-.19.03-.03,0-.05,0-.05,0-.04,0-.07,0-.03,0,.04,0,.11,0,.23,0l-.13-4.69c-.12,0-.21,0-.26,0-.01,0-.07,0-.12,0-.01,0-.03,0-.06,0,0,0-.09,0-.2.03-.03,0-.09.02-.16.03-.05.01-.2.05-.38.13-.1.05-.33.18-.47.27-.2.17-.64.73-.81,1.13-.11.57.06,1.65.31,2.1.21.25.61.59.78.7.29.16.54.22.59.23.09.02.17.03.21.04.08.01.14.02.16.02.05,0,.09,0,.11,0,.02,0,.03,0,.04,0,.02,0,.03,0,.04,0,.08,0,.3,0,.61-.01l-.09-4.69ZM163.56,220.24c.21.02.6.06.96.07.18,0,.43,0,.7-.04.14-.02.83-.11,1.43-.64l-3.1-3.52c.3-.26.59-.38.72-.42.15-.05.26-.07.3-.07.08-.01.11,0,.03,0-.14,0-.33-.02-.59-.04l-.46,4.67ZM163.39,220.22s-.04,0-.05,0c0,0-.01,0-.01,0,0,0,0,0,0,0,0,0,.01,0,.02,0,.05,0,.11,0,.2.02l.46-4.67c-.1-.01-.4-.04-.63-.04v4.69ZM161.83,220.16c.47.03.98.05,1.49.07l.13-4.69c-.43-.01-.89-.04-1.36-.06l-.26,4.68ZM158.22,219.8c1.21.17,2.4.28,3.59.36l.32-4.68c-1.12-.08-2.2-.18-3.26-.32l-.64,4.65ZM154.99,219.28c1.07.2,2.15.38,3.26.52l.58-4.66c-.99-.12-1.97-.28-2.97-.47l-.88,4.61ZM154.96,219.28h.07s.79-4.61.79-4.61h-.07s-.79,4.61-.79,4.61ZM153.45,218.97c.54.14,1.08.23,1.5.3l.79-4.62c-.45-.08-.8-.14-1.13-.22l-1.17,4.54ZM153.93,219.02c-.18,0-.32-.02-.39-.03-.08-.01-.14-.03-.18-.04-.06-.02-.1-.03-.07-.02l1.48-4.45s-.09-.03-.18-.06c-.06-.02-.33-.09-.66-.09v4.69ZM153.18,218.91c.06.02.12.03.18.04l1.14-4.55c-.06-.02-.13-.03-.19-.05l-1.13,4.55ZM152.18,218.64c.35.1.71.19,1.01.26l1.13-4.55c-.32-.08-.59-.15-.85-.22l-1.29,4.51ZM145.74,216.36c2.08.92,4.25,1.7,6.48,2.29l1.21-4.53c-1.98-.53-3.92-1.22-5.79-2.05l-1.9,4.29ZM142.4,214.77c1.09.55,2.21,1.09,3.33,1.59l1.91-4.29c-1.04-.46-2.09-.97-3.13-1.49l-2.12,4.19ZM142.35,214.75l.14.07,1.94-4.27-.14-.07-1.94,4.27ZM141.08,213.31v.04s4.46-1.48,4.46-1.48v-.04s-4.46,1.48-4.46,1.48ZM147.93,184.07c.46,4.9-1.13,11.68-3,17.49-.91,2.85-1.86,5.37-2.58,7.18-.36.9-.66,1.63-.87,2.12-.1.25-.19.44-.24.56-.03.06-.05.11-.06.14,0,.02-.01.03-.01.03,0,0,0,0,0,0,0,0,0,0,0,0,0,0,0,0,0,0t2.14.96q2.14.96,2.14.96s0,0,0,0c0,0,0,0,0,0,0,0,0,0,0-.01,0-.01.01-.02.02-.04.02-.04.04-.09.07-.16.06-.14.15-.34.26-.61.22-.52.54-1.28.91-2.22.75-1.88,1.73-4.51,2.69-7.48,1.87-5.84,3.76-13.42,3.2-19.36l-4.67.44ZM151.51,181.86c-6.84-4.28-15.02-9.45-22.29-14.37-7.33-4.96-13.56-9.53-16.64-12.62l-3.32,3.31c3.45,3.46,10.05,8.27,17.33,13.19,7.34,4.97,15.57,10.18,22.43,14.46l2.49-3.98ZM112.58,154.86c-2.81-2.81-5.59-5.14-8.35-7.44l-3.01,3.6c2.77,2.32,5.4,4.52,8.04,7.16l3.32-3.32ZM104.23,147.42c-1.73-1.45-3.45-2.88-5.21-4.46l-3.13,3.49c1.83,1.64,3.61,3.13,5.33,4.57l3.01-3.6ZM99.02,142.96c-2.01-1.8-3.51-3.24-4.13-4.98l-4.41,1.6c1.1,3.03,3.57,5.22,5.41,6.87l3.13-3.49ZM94.89,137.98c-.6-1.64-.43-3.55-.1-6.03l-4.65-.61c-.3,2.31-.71,5.36.34,8.25l4.41-1.61ZM94.55,130.58c-1.45-2.84-2.94-5.69-4.43-8.54l-4.16,2.18c1.49,2.85,2.98,5.68,4.41,8.49l4.18-2.13ZM90.12,122.04c-1.93-3.68-3.85-7.34-5.66-10.98l-4.2,2.09c1.84,3.69,3.78,7.39,5.71,11.06l4.16-2.18ZM84.45,111.06c-.05-.11-.09-.18-.11-.23-.02-.05-.02-.07-.02-.05,0,.02.02.1.02.21,0,.12-.02.27-.08.43l-4.4-1.62c-.31.84-.22,1.61-.08,2.16.13.51.36.96.47,1.19l4.2-2.1ZM84.28,111.4c-.12.33-.31.49-.35.52-.04.03-.02,0,.09-.04l-1.74-4.36c-.54.22-1.9.83-2.43,2.31l4.42,1.56ZM132.95,141.22l-.8,2.21,2.54-3.77-1.75,1.56ZM121.5,138.06l-2.15.94.49,1.13,1.21.24.45-2.3ZM120.24,134.95l-2.2.83h0s2.19-.83,2.19-.83ZM120.06,134.49l2.19-.85h0l-2.19.85ZM119.24,130.32l-2.02-1.2-.21.35-.08.39,2.3.46ZM120.25,129.04l1.74,1.57h0l-1.74-1.57ZM120.46,128.81l-1.75-1.56h0s1.75,1.56,1.75,1.56ZM121.59,127.42l1.85-1.44-1.92-2.46-1.83,2.53,1.9,1.38ZM89.7,110.36l1.16-2.04h0s-1.16,2.04-1.16,2.04ZM94.3,115.06l-1.98,1.26,3.52,5.56.79-6.53-2.33-.28ZM94.88,108.76l-2.34-.18,2.34.18ZM95.45,102.46l2.33.28h0s-2.33-.28-2.33-.28ZM95.78,101.53l-1.66-1.66-.02.02-.02.02,1.7,1.61ZM96.42,101.19l.63,2.26h.03s.03-.02.03-.02l-.68-2.24ZM103.1,104.53l2.08-1.08-2.08,1.08ZM104.27,112.23l2.35.04h0s-2.35-.04-2.35-.04ZM104.26,112.54l-2.35-.04h0s2.35.04,2.35.04ZM105.04,124.99l-2.29.51,1.45,6.51,2.95-5.98-2.1-1.04ZM111.4,112.72l2.1,1.04h0s-2.11-1.04-2.11-1.04ZM112.4,110.69l2.1,1.04h0l-2.1-1.04ZM112.91,109.68l2.1,1.04h0s-2.11-1.04-2.11-1.04ZM114.25,106.96l-2.1-1.04,2.1,1.04ZM115.59,104.24l2.11,1.03h0s-2.11-1.03-2.11-1.03ZM116.49,103.15l-.89-2.17h-.03s-.03.02-.03.02l.95,2.15ZM117.89,103.25l.8-2.21h0s0,0,0,0l-.78,2.21ZM122.83,108.29l2.24-.7h0s-2.23.7-2.23.7ZM121.67,115.14l-1.89-1.4-1.26,1.7,1.56,1.43,1.58-1.73ZM123.38,117.92l-2.22.76.45,1.32,1.38.24.4-2.31ZM135.87,126.22l-1.83,1.46h0s1.83-1.46,1.83-1.46ZM139.97,132.02l-1.95,1.3,1.95-1.3ZM147.31,141.3l1.59-1.73h0s-1.58,1.73-1.58,1.73ZM154.4,146.44l1.26-1.98h0s-1.26,1.98-1.26,1.98ZM158.03,148.83l1.35-1.92h0s-1.35,1.92-1.35,1.92ZM174.23,167.99l-2.3.45h0s2.3-.45,2.3-.45ZM178.54,214.54l1.07,2.09,1.39-.71-.12-1.56-2.34.18ZM175.83,215.79l-.86-2.18h0l.86,2.18ZM173.02,216.74l.6,2.27h.04s.04-.03.04-.03l-.69-2.24ZM172.89,216.77l.6,2.27h0s-.6-2.27-.6-2.27ZM172.29,216.92l-.48-2.3h-.04s-.04.02-.04.02l.56,2.28ZM170.67,217.26l.42,2.31h0s0,0,0,0l-.44-2.3ZM167.64,217.7l.22,2.34h.01s.01,0,.01,0l-.24-2.33ZM165.95,217.83l.13,2.34h.02s.02,0,.02,0l-.16-2.34ZM165.71,217.84l.17,2.34h0s-.17-2.34-.17-2.34ZM165.24,217.87v-2.35h-.23s.23,2.35.23,2.35ZM164.82,217.88v-2.35h-.07s.07,2.35.07,2.35ZM165.1,217.88l1.55,1.76,4.8-4.23-6.4.13.05,2.35ZM163.79,217.91l-.23,2.33h0l.23-2.33ZM163.39,217.88l-.07,2.35h.03s.03,0,.03,0v-2.35ZM161.96,217.81l-.16,2.34h.01s.01,0,.01,0l.13-2.34ZM158.54,217.47l.32-2.32h-.01s-.01,0-.01,0l-.29,2.33ZM155.42,216.98l.44-2.3h-.02s-.02,0-.02,0l-.4,2.31ZM155.35,216.96l.4-2.31h0l-.4,2.31ZM154.04,216.7l-.74,2.23.08.03.08.02.58-2.27ZM153.93,216.68l-.57,2.28.28.07h.29v-2.35ZM153.75,216.63l.57-2.28h0s-.57,2.28-.57,2.28ZM152.82,216.39l.64-2.26h-.02s-.02-.01-.02-.01l-.61,2.27ZM146.69,214.22l-.96,2.14h0s.95-2.14.95-2.14ZM143.46,212.67l1.06-2.09-.04-.02-.04-.02-.97,2.14ZM143.32,212.61l-2.23.74.32.97.93.42.97-2.14ZM143.3,212.57l-2.14-.96-.37.83.29.87,2.23-.74ZM150.27,183.85l2.34-.22-.11-1.15-.98-.61-1.24,1.99ZM110.92,156.52l1.66-1.66h0s-1.66,1.66-1.66,1.66ZM102.72,149.22l1.51-1.8-1.51,1.8ZM97.45,144.7l-1.57,1.75h0s1.57-1.75,1.57-1.75ZM92.68,138.78l2.21-.8h0s-2.2.8-2.2.8ZM92.46,131.64l2.33.31.09-.72-.33-.65-2.09,1.06ZM88.04,123.13l2.08-1.09-2.08,1.09ZM82.35,112.11l2.1-1.05h0s-2.1,1.05-2.1,1.05ZM83.15,109.7l.87,2.18h0s0,0,0,0l-.89-2.17ZM82.07,110.62l2.2.81v-.02s.01-.02.01-.02l-2.21-.78Z"/>
    <path class="cls-4" d="M121.59,127.42c-.35.48-.73.94-1.12,1.39-.07.08-.14.16-.21.24-.37.41-.74.82-1.02,1.28-.27,1.33.34,2.9.83,4.16.06.16.12.32.18.46.4,1.04.82,2.08,1.26,3.11,3.9.77,7.73,1.83,11.45,3.17-3.97-4.44-7.7-9.1-11.36-13.81ZM83.15,109.7c-.46.18-.93.47-1.09.92-.18.5.05,1.02.29,1.49,1.83,3.66,3.76,7.34,5.69,11.02,1.49,2.85,2.98,5.69,4.42,8.51-.31,2.39-.6,4.88.22,7.14.86,2.38,2.85,4.2,4.77,5.92,1.8,1.61,3.55,3.07,5.27,4.52,2.77,2.31,5.47,4.57,8.2,7.3,6.54,6.55,25.65,18.76,39.35,27.32,1.02,10.84-6.96,28.72-6.96,28.72v.04s.16.07.16.07c1.06.54,2.14,1.06,3.23,1.54,1.97.88,4.03,1.61,6.13,2.17.31.09.62.17.93.24.06.02.12.03.18.05.03,0,.07.01.1.03.43.11.88.19,1.32.26h.07c1.03.21,2.07.38,3.11.51,1.14.16,2.27.26,3.43.34.47.03.95.05,1.43.07.08,0,.23.01.4.03.47.05,1.15.11,1.31-.03-.65.01-.75.01-.27,0,.14,0,.29,0,.42-.01.16,0,.31-.01.47-.02.08,0,.16-.01.24-.02.56-.04,1.12-.08,1.69-.13,1.02-.1,2.03-.25,3.03-.43.55-.1,1.09-.21,1.62-.34.21-.04.4-.1.6-.15.04-.01.09-.02.13-.03.94-.29,1.88-.59,2.81-.95s1.82-.78,2.71-1.24c-.95-12.09-3.37-41.8-4.31-46.56-1.61-8.17-9.19-14.24-16.2-19.15-1.18-.83-2.41-1.61-3.63-2.39-2.48-1.58-4.95-3.17-7.09-5.14-2.94-2.69-5.14-5.99-7.33-9.29-1.31-1.97-2.63-3.95-4.11-5.8-3.13-3.93-7.56-7.45-12.49-8.3-.37-1.08-.94-2.07-1.71-2.78,1.45-1.96,1.88-4.56,1.16-6.85-.73-2.29-2.6-4.2-4.94-5.05-.44-.16-.95-.27-1.4-.09-.44.2-.69.65-.9,1.09-.44.91-.89,1.81-1.34,2.72-.45.91-.9,1.81-1.34,2.72-.17.34-.33.68-.5,1.02-.33.67-.67,1.35-1,2.03-1.04,2.11-2.11,4.12-3.18,6.13-1.07,2.01-2.14,4.02-3.18,6.13-.91-4.07-.84-8.27-.78-12.45,0-.1,0-.21,0-.31.04-2.63.05-5.36-1.16-7.7-1.22-2.34-4.05-4.13-6.68-3.33-.24.07-.47.17-.64.34-.24.25-.29.6-.33.93-.25,2.06-.41,4.18-.58,6.3-.16,2.12-.33,4.24-.58,6.3-1.18-1.86-2.65-3.6-4.6-4.71-1.96-1.11-4.45-1.52-6.55-.65Z"/>
    <path class="cls-6" d="M110.42,128.19c-.53,2.66-.52,6.69-.05,10.31.24,1.82.59,3.58,1.08,5.05.47,1.41,1.12,2.76,2.07,3.53l1.47-1.83c-.39-.31-.87-1.09-1.31-2.43-.42-1.28-.76-2.89-.98-4.61-.45-3.47-.44-7.23.02-9.55l-2.3-.46ZM115.52,114.74c-4.02,4.59-4.06,8.21-5.11,13.45l2.3.46c1.11-5.52,1.06-8.35,4.57-12.36l-1.77-1.54ZM124.82,114.74c-.75-.85-2.09-1.9-3.77-2.21-1.78-.33-3.76.2-5.52,2.21l1.77,1.54c1.25-1.43,2.41-1.62,3.32-1.45,1.02.19,1.93.87,2.44,1.45l1.77-1.54ZM111.57,128.42l-1.15-.23,1.15.23ZM116.41,115.52l.88.77-.88-.77Z"/>
    <path class="cls-6" d="M98.37,133.5c-.91.91-1.05,2.27-.95,3.45.11,1.23.5,2.6,1.04,3.88.54,1.29,1.24,2.55,2,3.57.73.98,1.63,1.91,2.62,2.31l.87-2.18c-.36-.14-.94-.63-1.6-1.52-.63-.86-1.24-1.95-1.72-3.08-.47-1.14-.78-2.26-.86-3.18-.08-.98.11-1.43.27-1.59l-1.66-1.66ZM105.08,117.82c-.8,2.32-2.11,5.9-3.43,9.1-.66,1.61-1.32,3.1-1.91,4.3-.62,1.25-1.1,2.01-1.37,2.28l1.66,1.66c.59-.59,1.21-1.69,1.81-2.9.63-1.26,1.31-2.82,1.98-4.45,1.34-3.26,2.67-6.88,3.48-9.23l-2.22-.77Z"/>
    <rect class="cls-6" x="92.12" y="110.68" width="2.35" height="14.52"/>
    <path class="cls-7" d="M312.9,277.57c18.46-25.87-46.06,4.38-107.71,1.07-.17-.84-.48-1.65-1.01-2.35-2.41-3.28-7.95-3.23-11.61-3.01-.65.04-1.33.12-2,.18-1.22-8.52-2.26-17.09-2.9-25.66-.76-10.24-.72-20.45-.18-30.67.03-.9.08-1.79.14-2.68.04-.67-.52-1.45-1.11-1.69-4.3-1.75-8.92-2.93-13.49-3.7-15.95-2.71-33.1-1.29-48.34,4.29-.9.33-1.43,1.45-1.22,2.34.1.46.42.88.97,1.07,1.92.68,3.41,2.03,4.17,3.94.75,1.83.77,3.86-.18,5.61-1.29,2.38-3.03,4.17-3.22,7.03-.14,2.68.84,5.22,1.5,7.75.71,2.75,1.19,5.54,1.52,8.35,1.31,11.36.34,22.79.85,34.18.52,11.31,2.47,22.61,5.75,33.44,1.62,5.39,3.45,10.86,6,15.89,2.6,5.11,6.81,8.18,12.39,9.43,32.4,7.2,89.97,22.79,113.7,13.17,9.27-3.77,25.96-30.9,33.47-37.49,14.24-12.46,12.21-40.11,12.49-40.5h0Z"/>
    <g class="cls-17">
      <path class="cls-6" d="M310.56,277.55h0s4.69.01,4.69.01h0s-4.69-.01-4.69-.01ZM301.96,319.82c7.76-6.79,10.92-17.52,12.25-26.19.67-4.39.9-8.38.97-11.28.04-1.45.04-2.64.03-3.46,0-.42,0-.72,0-.92,0-.1,0-.14,0-.14,0,0,0,.02,0,.04,0,.02,0,.06-.01.1,0,.04-.02.13-.06.25-.02.08-.11.36-.32.67l-3.84-2.69c-.22.32-.31.61-.33.7-.04.13-.06.24-.07.3-.02.12-.03.23-.03.3,0,.13-.01.28-.02.4,0,.25,0,.6,0,1,0,.81,0,1.95-.03,3.34-.07,2.78-.28,6.56-.92,10.69-1.29,8.37-4.23,17.7-10.71,23.37l3.09,3.53ZM267.83,357.72c2.84-1.15,5.92-3.9,8.91-7.09,3.06-3.26,6.31-7.28,9.45-11.33,3.2-4.13,6.18-8.12,8.97-11.69,2.78-3.55,5.11-6.31,6.8-7.79l-3.09-3.53c-2.07,1.81-4.65,4.92-7.4,8.42-2.74,3.5-5.92,7.75-8.99,11.7-3.13,4.03-6.26,7.91-9.17,11-2.98,3.17-5.46,5.22-7.26,5.95l1.77,4.35ZM152.73,344.67c16.1,3.58,38.73,9.31,60.22,12.92,10.76,1.81,21.32,3.1,30.71,3.32,9.35.22,17.78-.6,24.16-3.19l-1.76-4.35c-5.49,2.22-13.15,3.06-22.28,2.84-9.08-.22-19.4-1.47-30.05-3.26-21.33-3.58-43.69-9.25-59.98-12.87l-1.02,4.58ZM138.76,334.01c2.94,5.78,7.76,9.27,13.98,10.65l1.02-4.58c-4.95-1.1-8.55-3.76-10.81-8.2l-4.18,2.13ZM132.6,317.74c1.63,5.42,3.51,11.06,6.16,16.27l4.18-2.12c-2.45-4.83-4.23-10.14-5.85-15.5l-4.49,1.35ZM126.75,283.73c.53,11.5,2.51,22.99,5.85,34.02l4.49-1.36c-3.23-10.65-5.14-21.76-5.65-32.87l-4.69.22ZM125.91,249.71c.64,5.54.72,11.12.71,16.8-.01,5.64-.13,11.44.13,17.21l4.69-.21c-.25-5.62-.14-11.23-.12-16.99.01-5.72-.07-11.53-.74-17.35l-4.66.54ZM124.45,241.67c.67,2.62,1.14,5.32,1.46,8.04l4.66-.54c-.34-2.9-.84-5.8-1.57-8.67l-4.54,1.17ZM122.88,233.21c-.17,3.17,1,6.29,1.58,8.48l4.54-1.19c-.76-2.89-1.55-4.84-1.43-7.03l-4.69-.25ZM126.38,225.18c-.28.52-.59,1.01-.94,1.56-.34.53-.72,1.13-1.07,1.75-.72,1.28-1.36,2.79-1.49,4.7l4.68.3c.06-.95.37-1.77.9-2.7.27-.48.58-.96.94-1.53.35-.55.74-1.16,1.1-1.84l-4.12-2.24ZM126.45,221.58c.53,1.3.49,2.57-.07,3.6l4.12,2.24c1.35-2.47,1.26-5.25.3-7.62l-4.35,1.77ZM123.67,218.97c1.33.47,2.28,1.36,2.77,2.59l4.36-1.73c-1.03-2.59-3.06-4.39-5.57-5.28l-1.56,4.42ZM121.2,216.21c.27,1.18,1.11,2.27,2.47,2.76l1.58-4.42c.1.04.23.11.34.24.11.12.16.26.19.37l-4.57,1.05ZM123.9,211.14c-1.13.41-1.89,1.26-2.32,2.11-.43.85-.63,1.91-.38,2.97l4.57-1.07c.02.09.02.15.01.17,0,.02,0,.03,0,.03,0,0-.01.03-.05.06-.04.04-.11.09-.22.13l-1.6-4.41ZM173.43,206.75c-16.34-2.77-33.91-1.33-49.54,4.4l1.61,4.41c14.83-5.44,31.57-6.82,47.14-4.18l.78-4.63ZM187.41,210.59c-4.5-1.83-9.29-3.05-13.99-3.84l-.78,4.63c4.45.75,8.89,1.89,13,3.56l1.77-4.35ZM189.98,214.58c.06-1-.32-1.87-.72-2.46-.4-.59-1.03-1.21-1.86-1.54l-1.74,4.36c-.14-.06-.22-.12-.24-.14-.03-.02-.04-.04-.04-.04,0,0-.02-.03-.04-.09-.02-.05-.05-.18-.04-.36l4.68.28ZM189.84,217.19c.02-.86.07-1.71.14-2.58l-4.68-.34c-.07.91-.12,1.84-.15,2.78l4.69.14ZM190.02,247.62c-.75-10.12-.71-20.23-.18-30.38l-4.69-.25c-.54,10.3-.58,20.61.19,30.97l4.68-.35ZM192.9,273.13c-1.21-8.5-2.25-17-2.89-25.51l-4.68.35c.65,8.65,1.7,17.27,2.92,25.82l4.65-.66ZM192.44,270.94c-.71.04-1.48.13-2.09.19l.46,4.67c.72-.07,1.32-.14,1.91-.18l-.28-4.68ZM206.08,274.9c-1.73-2.36-4.44-3.33-6.83-3.74-2.43-.42-4.96-.33-6.82-.22l.28,4.68c1.8-.11,3.87-.16,5.74.16,1.9.33,3.16.97,3.84,1.89l3.78-2.77ZM207.5,278.17c-.22-1.1-.65-2.24-1.42-3.28l-3.77,2.79c.28.37.48.85.59,1.42l4.6-.93ZM314.81,278.93c1.21-1.69,2.13-3.23,2.75-4.64.61-1.38.98-2.78.88-4.14-.1-1.46-.74-2.71-1.85-3.62-1.02-.85-2.32-1.3-3.62-1.55-2.59-.5-6.06-.36-10.05.1-4.05.46-8.87,1.28-14.26,2.26-21.64,3.94-52.86,10.6-83.35,8.96l-.25,4.69c31.16,1.67,63.02-5.14,84.44-9.03,5.38-.98,10.07-1.77,13.95-2.21,3.94-.45,6.8-.51,8.63-.15.9.18,1.34.41,1.52.56.1.08.14.14.16.34.02.3-.05.9-.5,1.92-.44,1-1.17,2.25-2.27,3.8l3.82,2.73ZM312.9,277.55h2.35v-7.44l-4.27,6.1,1.92,1.35ZM300.42,318.06l-1.54-1.77h0s1.55,1.77,1.55,1.77ZM266.94,355.54l.88,2.17h0s-.88-2.17-.88-2.17ZM153.24,342.38l-.51,2.29h0s.51-2.29.51-2.29ZM140.85,332.95l-2.09,1.06h0s2.09-1.06,2.09-1.06ZM134.84,317.06l2.25-.68h0s-2.25.68-2.25.68ZM129.09,283.62l-2.34.1h0s2.34-.1,2.34-.1ZM128.24,249.44l2.33-.27h0s-2.33.27-2.33.27ZM126.73,241.09l2.27-.58h0s-2.27.58-2.27.58ZM125.22,233.34l-2.34-.15h0s0,.02,0,.02l2.34.13ZM128.44,226.3l-2.06-1.12h0s2.06,1.12,2.06,1.12ZM128.62,220.69l-2.18.87h0s0,.02,0,.02l2.17-.88ZM124.45,216.76l-.79,2.21h0s.78-2.21.78-2.21ZM123.48,215.69l2.29-.52h0s0-.01,0-.01l-2.28.54ZM124.7,213.35l.8,2.21h0s-.81-2.21-.81-2.21ZM173.03,209.06l-.39,2.31h0s.39-2.31.39-2.31ZM186.53,212.76l-.88,2.17h0s0,0,0,0l.87-2.18ZM187.64,214.45l2.34.17v-.02s0-.02,0-.02l-2.34-.14ZM187.49,217.13l2.34.12v-.03s0-.03,0-.03l-2.35-.07ZM187.68,247.8l-2.34.17h0s2.34-.17,2.34-.17ZM190.58,273.46l-2.32.33.32,2.22,2.23-.22-.23-2.33ZM192.58,273.28l.14,2.34h0s-.14-2.34-.14-2.34ZM204.19,276.29l-1.89,1.39h0s1.89-1.39,1.89-1.39ZM205.2,278.64l-2.3.47.36,1.78,1.81.1.13-2.34ZM312.9,277.57h-2.35v7.33l4.26-5.96-1.91-1.36Z"/>
    </g>
    <path class="cls-6" d="M261.2,358.7c-1.99-2.38-3.42-6.26-4.12-10.98-.69-4.69-.65-10.1.22-15.42,1.74-10.75,6.69-20.74,14.96-24.3l-.93-2.15c-9.4,4.05-14.57,15.09-16.35,26.08-.9,5.55-.95,11.19-.22,16.14.73,4.92,2.26,9.28,4.64,12.14l1.8-1.5Z"/>
    <path class="cls-8" d="M186.87,277.81c-8.67,6-15.56,13.85-20.7,23.04-2.5,4.47-4.51,9.26-5.83,14.2-1.32,4.89-2.34,10.42-1.88,15.49.07.72,1.02.75,1.22.09,1.4-4.82,2.38-9.67,4.11-14.41,1.67-4.59,3.6-9.06,5.92-13.35,4.65-8.64,11.11-16.59,18.54-23.02,1.15-.99-.01-2.97-1.35-2.04h-.03Z"/>
    <path class="cls-8" d="M198.45,283.24c-5.52,3.19-10.58,6.84-15.02,11.43-4.37,4.48-8.47,9.57-10.76,15.44-.48,1.26,1.14,2.6,2.09,1.39,3.75-4.76,7.13-9.78,11.27-14.22,4.13-4.45,8.69-8.67,13.68-12.13,1.2-.84,0-2.61-1.26-1.9Z"/>
    <path class="cls-8" d="M182.42,216.72c-8.22-1.15-16.54-.39-24.71.89-3.97.63-7.92,1.39-11.83,2.31-2.07.5-4.12,1.01-6.16,1.58-1.54.44-3.75.88-4.8,2.2-.07.08-.05.21.05.25,1.43.67,3.39.2,4.89,0,2-.26,3.99-.56,6-.81,4.01-.48,8.04-.93,12.07-1.28,8.09-.72,16.23-.98,24.27-2.22,1.53-.24,2-2.67.21-2.92h.01Z"/>
    <path class="cls-7" d="M298.67,327.35c0-.43-1.79-10.57-2.69-15.59-12.19,13.8-36.67,41.51-37.1,41.94-.43.43.9,4.48,1.61,6.45l3.23,2.15,12.9-1.08,10.75-8.6c3.76-8.24,11.29-24.84,11.29-25.27Z"/>
    <path class="cls-9" d="M300.81,339.11s-9.32-52.23-8.76-58.25c.93-10,32.89-31.05,32.89-31.05l57.91,7.62-17.6,37.34-64.46,44.33h.01Z"/>
    <g class="cls-16">
      <path class="cls-6" d="M300.79,341.45h.01v-4.69h-.01v4.69ZM363.92,292.84l-64.46,44.33,2.66,3.87,64.46-44.33-2.66-3.87ZM380.73,256.43l-17.6,37.34,4.24,2,17.6-37.34-4.24-2ZM324.64,252.13l57.91,7.62.61-4.65-57.91-7.62-.61,4.65ZM294.38,281.08c.07-.72.45-1.78,1.33-3.17.86-1.37,2.08-2.89,3.59-4.52,3.01-3.26,6.99-6.74,11.01-9.97,4-3.22,7.99-6.13,10.98-8.24,1.49-1.06,2.73-1.91,3.6-2.5.43-.29.77-.52,1-.68.11-.08.2-.13.26-.17.03-.02.05-.03.07-.04,0,0,.01,0,.02-.01,0,0,0,0,0,0,0,0,0,0,0,0t-1.29-1.96q-1.29-1.96-1.29-1.96s0,0,0,0c0,0,0,0,0,0,0,0-.01,0-.02.01-.02.01-.04.03-.07.05-.06.04-.15.1-.27.18-.24.16-.59.39-1.03.7-.89.6-2.15,1.47-3.67,2.55-3.04,2.15-7.1,5.12-11.2,8.42-4.09,3.29-8.28,6.94-11.52,10.44-1.62,1.75-3.05,3.51-4.12,5.21-1.05,1.67-1.86,3.46-2.03,5.24l4.67.43ZM300.81,339.11q2.31-.41,2.31-.41s0,0,0,0c0,0,0,0,0,0,0,0,0-.02,0-.03,0-.02-.01-.06-.02-.11-.02-.1-.04-.25-.08-.44-.07-.38-.17-.95-.29-1.67-.25-1.44-.62-3.5-1.05-5.99-.86-4.99-2.01-11.7-3.14-18.59-1.13-6.9-2.24-13.97-3.03-19.68-.4-2.86-.71-5.36-.91-7.32-.21-2.05-.26-3.29-.21-3.78l-4.67-.44c-.1,1.02.02,2.72.22,4.68.21,2.05.53,4.61.93,7.5.8,5.77,1.91,12.89,3.05,19.8,1.13,6.91,2.28,13.64,3.15,18.63.43,2.5.8,4.56,1.05,6.01.13.72.23,1.29.3,1.67.03.19.06.34.08.44,0,.05.02.09.02.11,0,.01,0,.02,0,.03,0,0,0,0,0,0,0,0,0,0,0,0t2.31-.41ZM300.79,339.11l-1.33-1.93-6.22,4.28h7.55v-2.35ZM365.25,294.77l1.33,1.93.52-.36.27-.57-2.12-1ZM382.85,257.43l2.12,1,1.37-2.91-3.19-.42-.31,2.33ZM324.94,249.81l.31-2.33-.87-.11-.73.48,1.29,1.96ZM292.05,280.86l2.34.22h0s-2.34-.22-2.34-.22ZM300.81,339.11v2.35h2.8l-.49-2.76-2.31.41Z"/>
    </g>
    <path class="cls-6" d="M354.41,134.59c-7.69-.42-15.86,1.18-23.91,5.52,1.12-1.12,2.3-2.17,3.54-3.12,3.69-2.81,7.83-3.94,12.43-3.8,2.73.08,5.36.63,7.94,1.41ZM390.09,238.33c6.22-1.14,10.98-4.34,14.42-8.97-.25.65-.52,1.29-.81,1.93-.93,2.08-1.9,4.51-3.74,5.96-2.58,2.03-6.55,1.77-9.88,1.07h.01ZM305.19,168.65l67.92,64.74c-.05.55.08,1.14.43,1.67,1.41,2.16,4.09,3.84,6.31,5.06,2.18,1.19,4.5,2.12,6.94,2.63,4.51.94,10.35.63,14.24-2.1,2.12-1.49,3.18-3.83,4.17-6.13,1.14-2.61,2.13-5.31,3.01-8.01,1.52-4.77,2.52-9.54,2.89-14.5,3.75-25.04-8.08-60.09-26.76-70.48-4.54-2.52-9.57-4.48-14.89-5.7-2.6-.88-5.23-1.73-7.87-2.48-11.43-3.27-25-5.82-34.32,3.6-4.2,4.24-7.7,9.22-10.68,14.37-1.02,1.77-2.01,3.58-2.94,5.43-2.93,3.5-5.77,7.45-8.45,11.94h0Z"/>
    <path class="cls-6" d="M382.89,145.02s.01-.07.03-.1c1.77-5.79,6.86-9.94,12.21-12.28,5.84-2.55,12.59-3.5,18.97-3.44-7.82.71-15.48,3.23-22.12,7.41-3.48,2.2-6.79,5.03-9.07,8.41h-.01ZM443.93,165.48c-.97,1.48-2.18,2.73-3.53,3.86,2.55-5.4,4.07-11.19,4.03-16.67-.04-4.68-1.33-9.44-3.8-13.4,6.01,7.27,8.73,17.96,3.29,26.2h.01ZM381.74,163.55s0,.03.01.04c2.82,7.18,7.54,13.54,13.41,18.53,9.13,7.74,21.01,12.53,31.51,4.59,3.26-2.46,6.3-5.66,8.93-9.28,5.37-2.81,10.77-6.41,13.61-11.95,3.1-6.07,2.9-13.45.55-19.73-4.56-12.13-16.41-19.38-29.06-18.32-2.92-.76-5.91-1.22-8.9-1.39-7.81-.44-16.4.75-23.19,4.81-5.83,3.49-10.51,9.41-11.26,16.32-.61,5.7,1.41,11.43,4.41,16.37h-.01Z"/>
    <path class="cls-4" d="M375.93,266.05l11.9-73.7-48.15-12.68-12.03,77.28c-5.51,8.16-9.98,17.81-13.58,27.56-9.94,26.87-13.27,54.6-13.27,54.6l14.41-13.82,61.58-59.03-.85-.21Z"/>
    <g class="cls-22">
      <path class="cls-6" d="M375.37,268.33l.85.21,1.12-4.56-.85-.21-1.12,4.56ZM375.16,264.56l-61.58,59.03,3.25,3.39,61.58-59.03-3.25-3.39ZM313.58,323.59l-14.41,13.82,3.25,3.39,14.41-13.82-3.25-3.39ZM300.79,339.11q2.33.28,2.33.28s0,0,0,0c0,0,0,0,0,0,0,0,0,0,0-.01,0-.01,0-.03,0-.06,0-.05.02-.13.03-.23.03-.2.07-.51.12-.91.11-.8.28-1.97.51-3.47.46-2.99,1.18-7.26,2.21-12.37,2.06-10.22,5.35-23.74,10.26-37.02l-4.4-1.63c-5.02,13.59-8.37,27.36-10.46,37.72-1.05,5.19-1.78,9.53-2.25,12.58-.24,1.52-.41,2.73-.52,3.55-.06.41-.1.73-.13.95-.01.11-.02.19-.03.25,0,.03,0,.05,0,.06,0,0,0,.01,0,.02,0,0,0,0,0,0,0,0,0,0,0,0t2.33.28ZM316.26,285.32c3.56-9.65,7.96-19.11,13.33-27.06l-3.89-2.63c-5.65,8.36-10.2,18.2-13.84,28.06l4.4,1.62ZM329.97,257.31l12.03-77.28-4.64-.72-12.03,77.28,4.64.72ZM339.08,181.94l48.15,12.68,1.2-4.54-48.15-12.68-1.2,4.54ZM385.51,191.98l-11.9,73.7,4.63.75,11.9-73.7-4.63-.75ZM376.78,266.26l1.62,1.69,3.08-2.95-4.14-1.02-.56,2.28ZM315.2,325.29l-1.62-1.69h0s1.62,1.69,1.62,1.69ZM300.79,339.11l-2.33-.28-.78,6.52,4.74-4.54-1.62-1.69ZM314.06,284.51l2.2.81h0s-2.2-.81-2.2-.81ZM327.65,256.95l1.94,1.31.29-.43.08-.52-2.32-.36ZM339.68,179.67l.6-2.27-2.52-.66-.4,2.57,2.32.36ZM375.93,266.05l-2.32-.37-.34,2.13,2.1.52.56-2.28ZM387.83,192.35l2.32.37.34-2.1-2.06-.54-.6,2.27Z"/>
    </g>
    <path class="cls-13" d="M315.2,325.29l-14.41,13.82s3.33-27.73,13.27-54.6c-2.55,13.45-2.16,27.48,1.14,40.78Z"/>
    <g class="cls-21">
      <path class="cls-6" d="M311.76,284.07c-2.61,13.79-2.21,28.16,1.17,41.78l4.55-1.13c-3.21-12.97-3.6-26.66-1.11-39.78l-4.61-.87ZM300.79,339.11q2.33.28,2.33.28s0,0,0,0c0,0,0,0,0,0,0,0,0,0,0-.01,0-.01,0-.03,0-.06,0-.05.02-.13.03-.23.03-.2.07-.51.12-.91.11-.8.28-1.97.51-3.47.46-2.99,1.18-7.26,2.21-12.37,2.06-10.22,5.35-23.74,10.26-37.02l-4.4-1.63c-5.02,13.59-8.37,27.36-10.46,37.72-1.05,5.19-1.78,9.53-2.25,12.58-.24,1.52-.41,2.73-.52,3.55-.06.41-.1.73-.13.95-.01.11-.02.19-.03.25,0,.03,0,.05,0,.06,0,0,0,.01,0,.02,0,0,0,0,0,0,0,0,0,0,0,0t2.33.28ZM313.58,323.59l-14.41,13.82,3.25,3.39,14.41-13.82-3.25-3.39ZM314.07,284.51l2.3.44-4.51-1.25,2.2.81ZM300.79,339.11l-2.33-.28-.78,6.52,4.74-4.54-1.62-1.69ZM315.2,325.29l1.62,1.69.98-.94-.33-1.32-2.28.56Z"/>
    </g>
    <path class="cls-12" d="M320.57,240.41c23.29,10.34,48.14.89,61.78-14.42,41.17,13.18,51.49-51.71,9.43-42.01,0,0,.24-11.57-5.44-23.04-.99-2.05-2.21-4.11-3.63-6.08,0,0-.03-.03-.04-.05-6.42-8.9-17.38-16.36-36.07-16.25-6.31.04-12.16,1.44-17.47,3.9-2.34,1.06-4.58,2.34-6.71,3.82-30.42,21-39.41,77.46-1.87,94.13h.03Z"/>
    <g class="cls-19">
      <path class="cls-6" d="M320.55,242.76h.03v-4.69h-.03v4.69ZM321.09,144.34c-15.88,10.96-26.03,31.02-27.43,50.45-1.4,19.49,6.01,38.91,25.94,47.76l1.9-4.29c-17.6-7.82-24.47-24.97-23.16-43.13,1.31-18.22,10.87-36.89,25.41-46.93l-2.67-3.86ZM328.16,140.32c-2.48,1.12-4.84,2.47-7.08,4.03l2.67,3.86c2.02-1.4,4.13-2.61,6.34-3.61l-1.93-4.27ZM346.58,136.22c-6.66.04-12.84,1.52-18.44,4.11l1.97,4.26c5.01-2.32,10.53-3.64,16.5-3.68l-.03-4.69ZM384.57,153.44c-6.87-9.53-18.55-17.33-37.99-17.23l.03,4.69c17.95-.1,28.19,7,34.16,15.28l3.81-2.74ZM382.7,154.87q1.66-1.66,1.66-1.66s0,0,0,0c0,0,0,0,0,0,0,0,0,0,0,0,0,0,0,0,0,0,0,0,0,0,0,0,0,0,0,0,.01.01,0,0,.02.02.03.03.02.02.04.05.07.08.04.04.16.19.27.42l-4.2,2.1c.13.25.27.43.32.49.04.04.07.08.09.11.01.01.02.03.04.04,0,0,.01.01.02.02,0,0,0,0,0,0,0,0,0,0,0,0,0,0,0,0,0,0,0,0,0,0,0,0,0,0,0,0,0,0t1.66-1.66ZM388.45,159.92c-1.05-2.17-2.34-4.34-3.84-6.43l-3.8,2.75c1.34,1.86,2.49,3.8,3.43,5.73l4.22-2.04ZM391.78,183.98q2.35.05,2.35.05s0,0,0,0c0,0,0,0,0,0,0,0,0,0,0-.01,0,0,0-.02,0-.03,0-.03,0-.07,0-.12,0-.1,0-.24,0-.43,0-.37-.02-.89-.05-1.56-.07-1.33-.22-3.21-.56-5.46-.67-4.48-2.09-10.5-5.06-16.51l-4.21,2.08c2.7,5.45,4,10.96,4.63,15.13.31,2.08.45,3.81.52,5.01.03.6.04,1.07.05,1.38,0,.16,0,.27,0,.35,0,.04,0,.06,0,.08,0,0,0,.01,0,.02,0,0,0,0,0,0,0,0,0,0,0,0h0s0,0,2.35.05ZM381.64,228.22c10.9,3.49,20.02,1.86,26.78-2.65,6.69-4.47,10.84-11.63,12.17-18.86,1.33-7.2-.09-14.83-5.05-20.03-5.04-5.29-13.23-7.54-24.29-4.99l1.05,4.57c9.97-2.3,16.27-.08,19.84,3.66,3.65,3.83,4.97,9.78,3.83,15.94-1.13,6.13-4.65,12.12-10.17,15.81-5.45,3.64-13.05,5.18-22.74,2.08l-1.43,4.47ZM319.62,242.55c24.41,10.84,50.32.9,64.48-15l-3.5-3.12c-13.11,14.72-36.91,23.68-59.07,13.84l-1.9,4.29ZM320.55,240.41l-.95,2.14.45.2h.5v-2.35ZM322.42,146.28l1.33,1.93h0s-1.34-1.93-1.34-1.93ZM329.13,142.46l.97,2.14h0s0,0,0,0l-.99-2.13ZM346.59,138.56v-2.35s-.01,0-.01,0v2.35ZM382.66,154.81l2.1-1.05-.08-.17-.11-.15-1.9,1.37ZM382.7,154.87l1.9-1.37-.11-.15-.13-.13-1.66,1.66ZM386.34,160.94l-2.11,1.02h0s0,.02,0,.02l2.1-1.04ZM391.78,183.98l-2.35-.05-.06,3.01,2.93-.68-.53-2.29ZM382.35,225.99l.72-2.23-1.45-.46-1.01,1.14,1.75,1.56ZM320.57,240.41l.95-2.14-.45-.2h-.5v2.35Z"/>
    </g>
    <path class="cls-10" d="M316.72,184.12c-.27,1.46-2.86,2.2-5.78,1.65s-5.06-2.17-4.79-3.63,2.86-2.2,5.78-1.65c2.92.55,5.06,2.17,4.79,3.63Z"/>
    <path class="cls-10" d="M361.88,198.1c-.27,1.46-2.86,2.2-5.78,1.65s-5.06-2.17-4.79-3.63,2.86-2.2,5.78-1.65c2.92.55,5.06,2.17,4.79,3.63Z"/>
    <path class="cls-5" d="M336.89,230.94c-.23.19-.49.35-.76.48-2.48,1.21-5.73-.37-7.27-3.53-1.54-3.16-.77-6.69,1.71-7.9,1.05-.51,2.25-.52,3.39-.12.23-.19.49-.35.76-.48,2.48-1.21,5.73.37,7.27,3.53s.77,6.69-1.71,7.9c-1.05.51-2.25.52-3.39.12Z"/>
    <path class="cls-6" d="M313.92,214.69c4.1,4.56,10.98,10.25,18.25,12.31,3.67,1.04,7.5,1.17,11.14-.31,3.64-1.48,6.93-4.52,9.61-9.54l-2.07-1.1c-2.48,4.66-5.4,7.24-8.42,8.47-3.03,1.23-6.31,1.16-9.62.23-6.67-1.89-13.19-7.22-17.15-11.62l-1.74,1.57Z"/>
    <path class="cls-6" d="M327.08,195.53c-1.13.07-2.05.23-2.75.52-.71.29-1.35.78-1.6,1.56-.24.74-.04,1.46.2,1.99.25.55.63,1.09,1.02,1.58.39.5.84,1.01,1.26,1.49.43.49.83.95,1.16,1.39.34.44.57.8.68,1.08.12.28.06.33.08.26l2.18.87c.3-.74.13-1.47-.1-2.03-.23-.56-.6-1.11-.99-1.61-.39-.51-.84-1.02-1.26-1.5-.43-.49-.84-.96-1.18-1.4-.35-.45-.59-.81-.73-1.11-.14-.31-.08-.36-.11-.29-.04.11-.09.03.26-.12.36-.15.99-.29,2.01-.35l-.15-2.34ZM336.21,179.39c-.26,2.69-1.07,6.75-2.63,10.15-1.59,3.47-3.74,5.83-6.49,6l.15,2.34c4.13-.26,6.82-3.73,8.48-7.36,1.7-3.71,2.55-8.04,2.83-10.9l-2.34-.23ZM327.16,196.7l.07,1.17-.07-1.17Z"/>
    <path class="cls-6" d="M311.62,168.15c2.85-1.64,7.19-3.21,11.02-2.79,1.88.2,3.61.88,5.01,2.23,1.41,1.36,2.58,3.48,3.19,6.75l2.31-.43c-.68-3.62-2.03-6.23-3.87-8.01-1.85-1.78-4.09-2.63-6.39-2.88-4.53-.49-9.38,1.33-12.45,3.09l1.17,2.03Z"/>
    <rect class="cls-6" x="313.35" y="161.05" width="2.35" height="4.09" transform="translate(-38.82 137.08) rotate(-23.2)"/>
    <rect class="cls-6" x="317.65" y="159.59" width="2.35" height="4.33" transform="translate(-17.6 40.79) rotate(-7.12)"/>
    <path class="cls-6" d="M344.92,180.53c3.84-2.1,9.46-3.84,14.04-2.69,2.24.57,4.25,1.82,5.75,4.14,1.52,2.34,2.56,5.85,2.66,10.98l2.35-.05c-.11-5.4-1.21-9.38-3.04-12.21-1.85-2.85-4.38-4.44-7.15-5.14-5.43-1.37-11.7.7-15.74,2.9l1.12,2.06Z"/>
    <rect class="cls-6" x="367.1" y="183.16" width="7.21" height="2.35" transform="translate(-43.3 185.25) rotate(-26.57)"/>
    <rect class="cls-6" x="368.39" y="189.08" width="7.31" height="2.35" transform="translate(-39.5 117.83) rotate(-17.1)"/>
    <circle class="cls-6" cx="316.95" cy="169.28" r="3.76" transform="translate(99.08 455.02) rotate(-80.78)"/>
    <circle class="cls-6" cx="351.35" cy="181.11" r="3.76" transform="translate(116.3 498.92) rotate(-80.78)"/>
    <path class="cls-6" d="M374.66,183.56c-1.09-1.14-2-2.44-2.69-3.87-1.35-2.77-1.67-5.41-1.23-8.46.42-2.92,1.28-5.74,1.69-8.66.44-3.18.44-6.47-.07-9.66.81,2.16,1.33,4.43,1.57,6.76.47,4.84-.09,9.64-.38,14.47-.2,3.15-.1,6.5,1.11,9.43h0ZM357.7,137.2c-.2.82.08,1.8,1.05,2.31,5.66,2.94,8.59,9.33,9.44,15.38.44,3.22.56,6.42.39,9.66-.18,3.35-.85,6.64-1.01,9.99-.18,3.66.84,7.28,2.82,10.29,1.28,2.69,3.07,5.11,5.69,6.93,8.13,5.66,20.74.43,25.72-7.24,1.22-1.88,2.59-4.47,2.37-6.79-.25-2.61-2.84-4.12-4.63-5.73-1.58-1.41-3.11-2.86-4.64-4.33-1.92-3.27-3.94-6.5-6.12-9.61-5.02-7.13-11.22-14.81-19.23-18.71-.21-.1-.41-.14-.59-.16-.56-.34-1.12-.68-1.73-.99-1.29-.67-2.64-1.22-4.04-1.65-1.05-.33-2.16-.65-3.26-.69-.56-.18-1.05-.1-1.43.14-.59.2-.84.69-.81,1.19Z"/>
    <path class="cls-12" d="M363.72,240.25c1.29-2.15-.54-3.41-1.61-3.76l19.89-15.05-3.76,9.14-1.08,1.61-13.44,8.06Z"/>
    <path class="cls-9" d="M300.81,339.11c21.72-36.66,82.04-81.66,82.04-81.66l12.97,25.15c-25.7,40.14-60.38,41.03-95.01,56.51Z"/>
    <g class="cls-20">
      <path class="cls-6" d="M393.84,281.33c-12.55,19.6-27.25,29.59-43.13,36.62-7.99,3.54-16.27,6.32-24.82,9.21-8.51,2.88-17.27,5.87-26.05,9.8l1.91,4.28c8.54-3.82,17.11-6.74,25.64-9.64,8.5-2.88,16.99-5.73,25.21-9.37,16.54-7.32,32.03-17.84,45.18-38.38l-3.95-2.53ZM380.76,258.52l12.97,25.15,4.17-2.15-12.97-25.15-4.17,2.15ZM302.83,340.3c10.66-17.99,30.92-38.2,48.7-54.02,8.86-7.88,17.05-14.63,23.02-19.4,2.98-2.39,5.41-4.28,7.1-5.57.84-.65,1.49-1.14,1.94-1.48.22-.17.39-.29.5-.38.06-.04.1-.07.13-.09.01-.01.02-.02.03-.02,0,0,0,0,0,0,0,0,0,0,0,0t-1.4-1.88q-1.4-1.88-1.4-1.88s0,0,0,0c0,0,0,0,0,0,0,0-.02.01-.03.03-.03.02-.07.06-.13.1-.12.09-.29.22-.52.39-.45.34-1.12.85-1.97,1.5-1.7,1.31-4.15,3.22-7.16,5.63-6.02,4.81-14.27,11.61-23.21,19.56-17.81,15.84-38.56,36.47-49.62,55.14l4.04,2.39ZM395.82,282.6l1.98,1.27.73-1.14-.62-1.2-2.09,1.08ZM382.85,257.45l2.09-1.08-1.27-2.46-2.22,1.66,1.4,1.88ZM300.81,339.11l-2.02-1.2-3.76,6.35,6.74-3.01-.96-2.14Z"/>
    </g>
    <path class="cls-11" d="M428.83,306.69c-.07-.14-.22-.27-.35-.35-.16-.09-.35-.12-.54-.1v-.04c.01-.46-.37-.88-.82-.95-.29-.07-.59,0-.81.21,0,0,0,.01-.01.03,0,0-.03,0-.03.03l-.16.21v.03c-.25.31-.46.65-.59,1.03-.17.5-.18,1.02-.1,1.53.05.33.37.59.67.67.22.05.52.03.73-.1.09.12.17.24.27.34.46.46,1.29.37,1.61-.22.16-.29.27-.6.33-.93.03-.2.05-.39.05-.59,0-.27-.1-.52-.22-.77h-.03Z"/>
    <path class="cls-11" d="M458.49,334.73c-.1-.16-.24-.29-.39-.39-.2-.12-.55-.18-.78-.1-.24.08-.43.18-.64.31,0-.01,0-.03-.03-.04-.1-.14-.26-.25-.42-.33-.04-.03-.07-.08-.12-.1-.25-.13-.56-.2-.84-.1-.09.04-.18.08-.27.1-.18.1-.31.25-.42.42-.29.41-.5.88-.65,1.36-.07.2-.12.39-.14.59-.05.3-.05.59-.05.89,0,.46.34.93.8,1.03.18.04.37.04.54,0,.24-.05.55-.27.65-.51.03-.07.07-.13.09-.2.33.05.68-.04.92-.29.33-.35.69-.68,1.09-.98.17-.13.35-.26.5-.43.3-.33.42-.85.17-1.26v.03Z"/>
    <path class="cls-11" d="M434.84,350.22c-.27-.16-.58-.13-.86,0-.17.08-.33.21-.46.33-.04.04-.07.08-.09.13,0,0-.01-.01-.03-.03-.25-.22-.54-.34-.88-.29-.2.03-.41.12-.58.25-.05-.03-.1-.07-.17-.08-.63-.13-1.22.2-1.4.81-.29.95-.03,2.07.69,2.77.27.27.68.38,1.06.29.39-.1.65-.41.78-.78.05-.16.12-.31.17-.46.5.29,1.12.16,1.45-.37.35-.55.76-1.14.75-1.82,0-.31-.17-.6-.44-.76Z"/>
    <path class="cls-11" d="M471.54,313.88c-.08-.24-.2-.43-.39-.58s-.41-.22-.65-.24h-.16c.09,0,.18.03.29.04-.09-.01-.18-.03-.27-.03-.05,0-.09-.03-.14-.04,0,0-.01,0-.03-.01-.03-.03-.05-.05-.08-.08.01.03.03.04.05.07,0,0-.01,0-.03-.01-.14-.17-.3-.31-.54-.37-.25-.07-.56-.04-.78.1-.09.07-.18.14-.26.22-.21-.04-.41-.04-.6.05-.2.08-.38.22-.47.41-.1.21-.18.48-.09.72.14.37.29.72.43,1.09.09.24.21.47.46.6.21.1.5.18.73.09.3-.1.52-.22.76-.44.05-.05.09-.13.14-.2.29.07.6.07.89-.04.24-.08.42-.2.58-.39.13-.18.25-.42.24-.65,0-.04-.03-.25-.04-.27l-.03-.04Z"/>
    <path class="cls-11" d="M486.73,355c0-.25,0-.5-.04-.76-.03-.25-.1-.48-.17-.71-.13-.39-.5-.75-.93-.72-.12,0-.24.03-.34.08-.21-.08-.44-.12-.67-.05-.18.05-.35.16-.5.29-.18.17-.34.51-.31.77.01.29,0,.59,0,.88s.01.59,0,.88c0-.07.01-.13.03-.21-.01.25-.04.48-.05.73,0,.29.13.6.33.81.2.2.52.34.81.33.29,0,.6-.1.81-.33.21-.24.31-.5.33-.81v-.12c.42-.18.73-.58.72-1.05h-.01Z"/>
    <path class="cls-11" d="M502.23,319.58c-.09-.31-.33-.56-.65-.65h-.1c-.04-.08-.05-.16-.12-.22-.16-.2-.37-.38-.63-.43h-.13c-.24-.33-.61-.52-1.05-.47-.24.03-.48.13-.64.31-.18.21-.35.5-.33.78,0,.07.01.13.03.2,0,.1.01.22.04.31,0,.03.01.04.03.07,0,.05.01.1.03.14.04.31.03.63.04.94,0,.26.1.51.29.71,0,.04.01.09.03.13.04.09.08.18.12.27.07.08.13.16.18.25.18.18.42.29.67.31.21.03.38,0,.58-.08.22-.09.47-.26.56-.48.09-.2.17-.41.24-.61.08-.04.17-.04.25-.09.46-.3.76-.82.59-1.4h0Z"/>
    <path class="cls-11" d="M526.22,341.76s.01-.12.03-.17v-.08c0,.09-.03.17-.04.26h.01Z"/>
    <path class="cls-11" d="M529.36,342.21c-.04-.08-.07-.17-.1-.25-.07-.13-.16-.24-.27-.3-.17-.13-.39-.24-.63-.22-.03,0-.04.01-.05.01-.04-.48-.39-.88-.89-.94-.21-.03-.44,0-.64.12-.24.14-.42.37-.48.63-.03.1-.04.22-.05.33-.04.26-.05.54-.01.8,0,.14,0,.29-.01.43,0,.26.13.56.31.75.1.1.26.18.42.25.04.04.07.08.12.12.14.12.29.24.44.33.16.09.34.16.52.22.2.05.38.05.58,0,.14-.04.27-.1.39-.2.13-.08.24-.2.3-.33.09-.17.14-.37.14-.56.04-.39,0-.8-.08-1.18Z"/>
    <path class="cls-11" d="M530.05,306.18c-.13-.52-.65-.85-1.16-.78-.13.01-.26.07-.38.13-.31-.18-.68-.27-1.03-.26-.04-.07-.07-.13-.13-.2-.18-.18-.5-.33-.77-.31-.61.03-1.05.48-1.09,1.09-.03.35-.01.72,0,1.07v.82c0,.22.08.43.18.6.07.29.14.56.24.84.09.26.24.48.47.61.21.12.52.17.76.1.51-.16.88-.69.72-1.23,0-.04,0-.07-.03-.1.25.13.54.18.82.08.51-.17.97-.5,1.22-.99.22-.47.31-.97.18-1.48h0Z"/>
    <path class="cls-11" d="M509.89,276.27c0-.17-.04-.34-.13-.48-.09-.16-.21-.27-.37-.37-.35-.25-.75-.22-1.15-.16-.26.04-.46.17-.65.31,0,0,.01,0,.03-.01,0,0-.01,0-.03.01t-.01-.01c-.21-.12-.52-.17-.76-.1-.25.08-.5.24-.63.48-.12.24-.17.5-.1.76.08.34.17.67.26,1.01.07.22.2.42.38.56.17.13.41.24.63.22.18,0,.35-.05.51-.13.24-.12.38-.35.47-.59,0,.03-.03.05-.03.08.04-.08.09-.16.13-.24.04-.04.08-.09.13-.13.01,0,.04,0,.05-.01.1-.01.21-.07.31-.12.03,0,.05-.01.07-.03.24-.07.33-.14.51-.3.03-.01.04-.04.07-.05-.07.05-.13.09-.2.14.16-.09.27-.21.37-.37.08-.14.13-.31.13-.48h.01Z"/>
    <path class="cls-11" d="M530.44,262.61s.08.04.13.05c-.07-.03-.12-.07-.17-.09,0-.01,0-.04-.01-.05v.05c-.01-.07,0-.13-.04-.2-.04-.13-.12-.25-.22-.35-.18-.18-.48-.31-.75-.3-.27,0-.55.1-.75.3-.05.07-.08.13-.12.2-.04.04-.09.07-.13.1-.12.13-.21.27-.25.44-.27.71-.41,1.49-.38,2.25,0,.41.25.76.61.9.35.14.8.08,1.07-.21.26-.27.46-.6.63-.94.21,0,.41,0,.6-.12.24-.13.47-.42.54-.69.13-.59-.18-1.14-.75-1.33h-.03Z"/>
    <path class="cls-11" d="M547.82,285.71s-.03-.01-.04-.03c0-.08,0-.16-.03-.25-.04-.22-.17-.43-.34-.59,0,0-.03,0-.03-.03,0-.07-.01-.13-.03-.2-.04-.08-.07-.17-.1-.25-.07-.13-.16-.24-.27-.3-.07-.07-.14-.12-.24-.13-.12-.07-.25-.09-.39-.08-.18,0-.35.05-.51.13-.13.07-.24.16-.3.27-.09.1-.16.22-.18.37-.04.22-.07.44-.08.68,0,0-.03.08-.03.09-.05.2-.04.26-.01.43.03.25.13.48.31.67.04.04.1.08.16.12,0,.07,0,.12.03.18.09.31.27.59.58.76.26.14.59.18.88.09.43-.13.8-.47.93-.9.1-.38,0-.76-.27-1.03h-.03Z"/>
    <path class="cls-11" d="M414.22,334.17c-.1-.38-.38-.63-.75-.75-.07-.03-.12-.01-.17-.03-.04-.18-.1-.37-.26-.51-.17-.16-.37-.26-.6-.29-.5-.07-1.03.25-1.14.76v.03c-.13-.21-.37-.39-.6-.44-.52-.12-1.16.17-1.28.75-.18.94-.04,1.99.56,2.77.14.2.29.35.52.44.2.08.44.12.65.05.77-.24,1.4-.77,1.79-1.44.37.03.76-.07,1.01-.35.25-.27.37-.63.27-1.01h-.01Z"/>
    <path class="cls-11" d="M387.02,324.91c-.1-.17-.24-.3-.41-.41,0,0-.01,0-.03-.01-.07-.04-.2-.09-.26-.1-.21-.05-.44-.05-.67,0-.07.01-.12.05-.18.08-.17-.14-.41-.25-.63-.24-.26,0-.54.09-.72.3-.05.08-.1.14-.17.22-.09.16-.13.33-.13.5-.05.52-.09,1.05-.14,1.57,0,.09.03.17.04.26.03.13.09.25.18.35.05.08.1.14.18.18.1.09.21.16.35.18.17.04.34.04.51,0,.13-.03.25-.09.35-.18.12-.08.21-.17.27-.3.14-.18.27-.37.41-.56h.03c.2,0,.38-.05.54-.14.09-.05.18-.12.25-.2.14-.16.25-.33.31-.54.01-.07.03-.12.03-.18s.03-.12.01-.18c0-.2-.05-.42-.16-.59h.03Z"/>
    <path class="cls-11" d="M353.64,335.97c-.1-.21-.31-.37-.52-.44-.21-.08-.44-.12-.67-.05-.33.1-.56.33-.69.61-.33-.13-.69-.09-.99.13-.03.01-.04.04-.07.07-.24-.03-.48-.01-.68.1-.08.05-.16.12-.22.17-.13.13-.22.3-.27.48-.14.39-.14.9,0,1.29.18.51.48.94.95,1.22.42.25.92.14,1.27-.17.31-.29.55-.69.65-1.1,0,0,0,.01.01.03.12.18.26.31.47.41.18.08.41.1.59.05.16-.05.3-.13.43-.25.16-.14.3-.46.27-.67-.08-.65-.24-1.29-.54-1.87h0Z"/>
    <path class="cls-11" d="M381.83,359.74c-.04-.08-.07-.17-.1-.25-.09-.17-.22-.3-.39-.39-.17-.13-.34-.24-.54-.34-.18-.09-.38-.18-.56-.29-.31-.16-.63-.18-.95-.05-.25.1-.41.29-.52.5-.17-.05-.35-.07-.52-.01-.26.08-.52.24-.64.5-.13.27-.22.56-.21.88.03.31.09.58.24.85.24.44.72.86,1.23.93.27.04.56.05.81-.1.08-.05.16-.12.24-.17.14-.14.24-.3.29-.5.05-.12.09-.25.13-.37.08.03.16.07.25.09.24.08.58.03.78-.1.2-.13.35-.3.44-.52.08-.2.12-.44.05-.65h-.01Z"/>
    <path class="cls-11" d="M344.98,369.87c-.09-.33-.26-.61-.5-.85-.22-.22-.55-.41-.86-.47-.33-.07-.63-.01-.89.18-.18.14-.29.34-.35.56-.14-.09-.31-.14-.48-.14-.25,0-.54.1-.71.3-.17.2-.3.44-.3.71s.09.54.3.71c.44.41.9.81,1.35,1.22.3.27.71.37,1.09.21.17-.07.3-.17.42-.33.14-.18.2-.37.21-.6,0-.08,0-.14.01-.22.25-.08.5-.24.63-.48.12-.24.18-.52.1-.78h-.01Z"/>
    <path class="cls-11" d="M320.99,348.3c-.16-.37-.54-.67-.95-.65-.13,0-.26.03-.39.07h-.04c-.05-.07-.09-.12-.14-.18-.09-.1-.21-.17-.34-.22-.2-.08-.43-.12-.64-.05-.24.08-.43.22-.58.42-.22.03-.43.1-.61.27-.41.38-.47,1.03-.17,1.49.13.21.3.38.52.5.21.1.44.18.68.17.33,0,.6-.14.85-.35.17.04.34.08.51.08.37-.01.8-.13,1.06-.42.27-.31.38-.72.22-1.11h.03Z"/>
    <path class="cls-11" d="M318.29,377.98c-.01-.16-.04-.31-.07-.47-.03-.07-.05-.14-.09-.21-.05-.07-.09-.13-.14-.18-.14-.14-.33-.22-.51-.25-.33-.04-.68.12-.86.41-.2-.07-.42-.1-.61-.04-.13.04-.24.12-.35.2h-.08c-.27.08-.54.25-.67.51l-.1.26c-.05.18-.05.37,0,.55.07.16.13.31.2.48.09.24.18.47.3.71.05.08.12.16.17.22.1.1.22.18.35.22.08.05.17.07.26.07.13.03.27.03.41-.01.18-.05.34-.14.48-.27.1-.1.18-.22.22-.35.09,0,.17-.03.26-.04.14-.03.26-.09.37-.18.08-.05.14-.12.2-.2.09-.1.16-.22.18-.37.01-.09.03-.17.05-.26.03-.12.04-.25.05-.37,0-.05.01-.1.01-.14,0-.09-.01-.18-.03-.26h0Z"/>
    <path class="cls-11" d="M372.54,390.67c-.14-.24-.34-.37-.6-.46-.14-.05-.3-.07-.46-.05-.2,0-.38.07-.56.13-.17-.17-.34-.37-.5-.56-.05-.08-.1-.16-.16-.24-.25-.39-.75-.65-1.22-.51-.42.13-.73.48-.78.92-.08,0-.17,0-.25.01-.55.17-.93.73-.77,1.31.24.88.68,1.65,1.28,2.33.27.31.78.38,1.16.22.41-.16.67-.55.67-.99v-.16c.07.03.13.05.22.07.26.03.46-.01.69-.13.2-.09.38-.18.58-.26.38-.17.63-.54.77-.92.08-.21.01-.55-.09-.72h.01Z"/>
    <path class="cls-11" d="M405.75,379.8s-.03-.05-.04-.09v-.1c0-.13-.03-.25-.08-.35-.04-.12-.1-.24-.21-.31-.09-.09-.2-.17-.31-.21-.12-.05-.24-.08-.35-.08-.08,0-.16.03-.25.03-.17.04-.31.13-.43.25-.05.07-.1.13-.16.21-.08.14-.13.3-.13.47v.09s-.04.05-.04.08c-.03.09-.03.2-.04.29v.27l.04.26c.04.08.07.17.1.25.09.17.16.21.29.31.07.07.14.1.24.13.04.03.08.04.13.05.08.03.24.04.25.04.04,0,.2-.03.24-.03.03,0,.22-.09.25-.1l.22-.17s.08-.07.09-.12c.07-.07.1-.14.13-.24.04-.08.07-.17.07-.26,0-.07.01-.13.03-.2v-.16c0-.1,0-.22-.04-.33h.01Z"/>
    <path class="cls-11" d="M397.4,300.58c-.07-.18-.16-.41-.3-.52-.25-.2-.48-.3-.8-.26-.22.03-.41.14-.55.3-.27-.1-.59-.1-.85.05-.12-.18-.35-.34-.54-.38-.21-.04-.39-.04-.59.05-.18.08-.38.21-.47.41-.1.21-.18.48-.09.71.09.24.18.48.31.69.17.27.38.5.65.67.33.2.68.24,1.05.17.05,0,.1-.04.16-.05.18.17.46.3.71.29.27,0,.51-.12.72-.3.27-.24.46-.58.56-.92.05-.17.08-.35.08-.52,0-.13,0-.25-.04-.38h-.01Z"/>
    <path class="cls-11" d="M275.23,390.41s-.13-.18-.17-.24c-.05-.05-.16-.13-.22-.17-.07-.04-.1-.05-.18-.08-.25-.1-.51-.13-.77-.07-.34.08-.65.31-.85.6l-.21-.2c-.2-.18-.44-.29-.71-.29s-.54.1-.71.29c-.35.39-.41,1.03,0,1.41.3.29.61.58.92.88.16.14.3.29.46.43.08.08.16.14.24.22.04.04.09.08.13.13.21.18.44.3.73.3.35,0,.69-.13.94-.41.26-.27.37-.61.41-.98.01-.24-.04-.47-.13-.68.05-.05.09-.1.13-.17.18-.33.14-.67,0-.99Z"/>
    <path class="cls-11" d="M286.92,367.89c-.1-.22-.41-.44-.65-.5-.22-.05-.44-.04-.65.05s-.42.24-.52.44c-.12.22-.2.54-.1.78.07.16.13.31.2.47,0-.01-.01-.04-.03-.05,0,.01,0,.04.01.05-.16-.03-.33-.04-.46,0-.22.07-.41.18-.55.38-.13.17-.22.39-.22.61,0,.25.09.56.3.72.56.44,1.14.88,1.7,1.32.14.12.29.22.47.27.22.05.44.04.65-.05.38-.16.65-.54.65-.95-.03-1.22-.27-2.47-.81-3.56h.01Z"/>
    <path class="cls-11" d="M267.48,357.54c-.04-.16-.09-.26-.18-.38-.14-.18-.27-.25-.48-.33-.07,0-.13-.01-.2-.03-.1,0-.2.01-.29.07-.03,0-.05.04-.08.05,0-.01-.01-.03-.03-.04-.12-.22-.37-.41-.6-.47-.22-.07-.54-.03-.73.09-.22.14-.41.34-.47.6,0,.08-.03.17-.03.25,0,.03.01.05.03.08-.09.05-.2.1-.26.17-.17.2-.3.44-.29.71,0,.26.09.52.29.71.21.2.43.41.64.6.26.24.6.35.95.26.34-.09.61-.37.71-.71,0-.05.01-.1.03-.16.38-.09.72-.3.9-.64.14-.25.17-.58.1-.85h-.01Z"/>
    <path class="cls-11" d="M276.92,322.88c-.03-.22-.08-.46-.26-.61-.14-.13-.31-.22-.51-.24-.18-.03-.38,0-.54.1-.21.13-.33.3-.42.54v.03c-.05-.04-.1-.08-.16-.1-.08-.03-.14-.07-.22-.09-.08,0-.16-.03-.24-.03-.21,0-.41.08-.56.2-.14.1-.24.22-.3.39-.04.1-.07.24-.07.37-.17.04-.34.12-.43.22-.14.16-.22.33-.25.54-.03.2,0,.41.1.58.12.2.33.41.56.43.13.01.26.04.39.03.24-.03.38-.07.59-.16.12-.05.24-.13.33-.22.14.12.3.22.44.34.24.17.59.14.84.05.26-.1.52-.34.58-.64.04-.25.07-.5.1-.75.03-.18.07-.38.05-.56,0-.13-.03-.26-.04-.38v-.03Z"/>
    <path class="cls-11" d="M286.22,342.6s0-.04-.01-.05c-.01-.03-.04-.04-.05-.05-.22-.31-.46-.61-.76-.86-.21-.18-.44-.3-.72-.3-.25,0-.55.1-.72.3-.39.42-.38,1.02,0,1.44.07.07.12.13.18.21-.16.09-.3.21-.38.35-.24.46-.12,1.09.37,1.35.44.24.9.47,1.35.71.31.16.67.17.98,0,.3-.17.51-.51.5-.86-.04-.8-.31-1.56-.75-2.21h.01Z"/>
    <path class="cls-11" d="M275.57,281.29c-.24-.26-.51-.46-.78-.68-.16-.12-.3-.24-.46-.37-.08-.09-.16-.18-.27-.26-.18-.14-.33-.21-.55-.29-.09,0-.17-.03-.26-.04-.13,0-.26.03-.38.08-.16.07-.3.18-.42.31-.14,0-.3,0-.44.05-.54.17-.98.67-.95,1.26,0,.34.16.67.39.9.2.21.43.33.71.43.21.08.42.1.63.17.16.18.38.31.61.35.33.04.6-.07.85-.29.03-.03.05-.07.08-.09.01,0,.03.01.04.03.43.25.99.12,1.29-.27.31-.41.26-.94-.08-1.32v.03Z"/>
    <path class="cls-11" d="M234.06,290.05s-.04-.12-.07-.18c-.03-.07-.05-.13-.08-.18-.12-.18-.25-.33-.43-.44-.09-.05-.18-.09-.29-.1-.09-.01-.2-.04-.29-.03-.2,0-.38.09-.52.21-.16-.08-.3-.14-.46-.21-.17-.07-.34-.1-.52-.13-.12-.04-.24-.04-.35-.01-.12,0-.24.04-.34.1-.2.12-.39.34-.43.58-.05.24-.04.48.09.69.13.2.33.41.58.43.16.03.3.08.44.12.14.07.27.14.41.22.16.13.31.27.44.44.12.12.26.2.43.25.16.04.31.04.47,0,.24-.09.35-.14.54-.31.1-.09.18-.2.25-.31.01-.03.03-.05.04-.08.04-.09.09-.2.12-.29.03-.13.05-.26.05-.39s-.01-.26-.05-.38h-.03Z"/>
    <path class="cls-11" d="M258.51,308.95l-.03-.05c-.1-.17-.24-.31-.42-.42-.09-.04-.18-.08-.27-.12-.14-.04-.27-.05-.42-.01-.05,0-.1.04-.16.05-.13-.13-.29-.22-.47-.26-.13-.04-.26-.04-.39-.01-.13,0-.26.04-.38.12-.17.09-.3.22-.39.39-.03.03-.04.05-.05.09-.05.1-.1.22-.13.34-.03.14-.05.31-.04.47,0,.05.03.12.03.17-.29.3-.42.71-.31,1.11.08.33.3.58.58.76.39.26.97.27,1.37.03.2-.12.34-.3.44-.51h.01c.26-.04.5-.21.69-.37.13-.1.24-.25.31-.41.12-.25.18-.46.18-.73,0-.25-.07-.42-.16-.63h0Z"/>
    <path class="cls-11" d="M242.21,332.31c-.17-.17-.38-.26-.61-.31-.25-.34-.48-.68-.75-.99-.09-.1-.21-.18-.35-.22-.12-.07-.25-.09-.39-.08-.24,0-.44.08-.63.22-.18.13-.33.33-.38.56-.04.18-.03.39.04.58-.22.08-.46.25-.56.46-.12.24-.18.51-.1.77s.24.52.5.64c.46.22.93.44,1.39.67.33.16.69.18,1.02,0,.16-.09.29-.22.39-.39.26-.09.5-.27.64-.52.24-.43.16-1.01-.2-1.36h0Z"/>
    <path class="cls-11" d="M224.75,312.27c-.47-.3-.94-.61-1.43-.89-.44-.25-1.02-.13-1.32.27-.08.1-.13.22-.17.34-.35-.16-.8-.13-1.07.18-.35.38-.39.99,0,1.36l1.65,1.6c.25.25.61.35.95.26.17-.05.33-.13.44-.26.13-.13.21-.27.26-.46.05-.14.08-.29.1-.43.12,0,.24,0,.33-.03.26-.07.54-.26.65-.51.27-.54.1-1.14-.41-1.45h0Z"/>
    <path class="cls-11" d="M206.72,291.34c0-.14-.03-.27-.08-.39-.04-.13-.12-.25-.22-.35-.18-.18-.47-.31-.73-.3-.27,0-.55.1-.73.3-.17.18-.29.42-.29.68-.05-.01-.12-.05-.17-.05-.13-.03-.25-.03-.38.01-.13.03-.25.09-.35.18-.12.08-.21.17-.27.3-.12.22-.17.5-.09.75.08.25.24.5.47.61.47.24.95.47,1.43.71.16.09.33.13.51.13s.35-.04.51-.13c.3-.17.55-.54.52-.9-.04-.51-.08-1.03-.1-1.54h-.01Z"/>
    <path class="cls-11" d="M194.5,323.03c-.14-.41-.35-.78-.59-1.15.01-.05.04-.1.05-.16.07-.48-.25-1.01-.75-1.11-.21-.05-.41-.1-.61-.17-.03,0-.04-.03-.07-.04-.24-.17-.47-.34-.72-.47-.46-.24-.98-.13-1.29.27-.08.1-.13.21-.17.34-.2.04-.39.1-.52.26-.38.42-.41,1.03,0,1.45.94.97,2.13,1.66,3.41,2.04.34.09.73-.01.98-.26.24-.24.38-.65.26-.98v-.03Z"/>
    <path class="cls-11" d="M215.89,338.62c-.04-.08-.07-.17-.1-.25-.05-.08-.12-.14-.17-.22-.08-.05-.14-.12-.22-.17-.12-.08-.25-.12-.38-.12-.09-.03-.17-.03-.26,0-.09,0-.18.03-.26.07,0,0-.01,0-.03.01-.01,0-.03,0-.04-.01-.09,0-.18-.03-.27-.04-.14,0-.29.03-.41.09-.09.03-.18.08-.25.14-.05.03-.08.08-.12.12h-.17c-.25.08-.5.24-.63.48-.04.08-.07.16-.1.25-.04.17-.04.34,0,.51.04.31.17.61.31.89.16.27.35.54.6.73.14.12.29.22.47.26.09,0,.17.03.26.04.13,0,.26-.03.38-.08.09-.03.17-.07.24-.13.08-.05.14-.12.2-.2.05-.05.08-.12.1-.2.05-.01.1,0,.16-.04.09-.03.18-.08.25-.14.09-.05.16-.12.21-.21.07-.07.12-.16.14-.25.07-.13.09-.26.09-.42.01-.14.04-.3.05-.44.03-.22-.01-.46-.05-.68Z"/>
    <path class="cls-11" d="M173.78,336.53s-.05-.12-.07-.17c-.09-.22-.24-.39-.44-.51-.13-.08-.27-.13-.42-.18-.14-.05-.27-.1-.42-.17-.29-.12-.58-.22-.86-.33l-.27-.04c-.09,0-.18.03-.27.04-.24.07-.43.21-.58.39-.05.07-.09.13-.12.2-.24.03-.51.12-.67.3-.18.21-.33.47-.31.75,0,.09.03.18.04.27.05.18.14.34.27.48.5.64,1.36,1.01,2.16,1.01.38,0,.73-.21.93-.54.04-.08.04-.17.07-.26.17,0,.33-.05.5-.14.2-.1.33-.29.41-.48.08-.18.12-.42.05-.6h.01Z"/>
    <path class="cls-11" d="M195.01,279.53c-.1-.31-.22-.51-.42-.76-.13-.16-.3-.3-.48-.41-.3-.18-.69-.29-1.03-.17,0,0-.01-.03-.03-.03-.08-.05-.14-.12-.22-.17-.12-.08-.25-.12-.39-.12-.22-.03-.47,0-.65.12-.16.1-.3.24-.39.39-.08.13-.12.31-.12.48-.24.08-.46.25-.58.46-.12.24-.18.52-.1.78.04.08.07.17.1.25.09.17.24.3.39.39.54.37,1.26.56,1.9.5.17-.01.34-.07.5-.14.18.04.37.09.54.09.26,0,.59-.13.77-.31.2-.22.3-.47.31-.77.01-.2,0-.42-.08-.6h-.01Z"/>
    <path class="cls-11" d="M161.28,299.27c-.05-.08-.09-.16-.14-.25.16-.27.14-.6,0-.88-.07-.12-.13-.21-.22-.31-.09-.13-.2-.21-.33-.3-.01,0-.04-.03-.07-.04-.04-.03-.09-.05-.13-.08-.17-.1-.35-.21-.54-.31-.08-.04-.17-.07-.25-.1-.13-.04-.26-.05-.41-.01-.22.03-.46.12-.61.29-.13.14-.22.3-.27.48-.03.07,0,.14-.01.22-.07.03-.12.04-.18.08-.08.04-.18.12-.25.18,0,0-.03.03-.04.04-.22.24-.34.54-.34.86,0,.09.03.2.04.29v.05c.03.1.08.22.13.33.05.1.13.2.21.29.03.03.04.05.07.07.27.24.59.38.97.33.08,0,.14-.04.21-.07.21.17.39.29.65.38.26.09.56.08.84.01.65-.17.98-.94.64-1.53h.04Z"/>
    <path class="cls-11" d="M145.4,318.51c-.01-.08-.07-.14-.09-.22.08-.33,0-.68-.25-.93-.21-.21-.43-.39-.67-.58-.22-.17-.43-.3-.72-.3-.25,0-.55.1-.72.3-.18.2-.31.44-.3.72,0,.26.09.54.3.72l.03.03s-.08.01-.1.04c-.21.13-.39.33-.44.58-.05.25-.01.47.09.71.31.64.95,1.14,1.65,1.31.22.05.51.04.71-.09.22-.14.35-.33.44-.58.18-.52.18-1.12.07-1.67v-.03Z"/>
    <path class="cls-11" d="M175.33,274.56c-.04-.13-.12-.31-.2-.43-.12-.2-.26-.39-.44-.54-.1-.08-.2-.17-.31-.24-.1-.05-.22-.09-.33-.13-.08-.03-.14-.04-.22-.07-.13-.04-.26-.04-.39-.01-.13,0-.26.04-.38.12-.08.05-.14.12-.22.17-.1.09-.18.21-.22.35-.04.08-.07.17-.07.26-.03.13-.03.26.01.39.03.09.08.17.13.26-.04.03-.09.05-.13.08-.1.09-.18.21-.22.34-.07.12-.09.25-.08.39,0,.26.1.55.3.73s.46.31.73.3c.12,0,.24-.03.34-.04.03,0,.07-.01.09-.03.13-.04.27-.09.39-.18.12-.09.25-.17.34-.29,0,0,.01-.03.03-.04.21-.04.41-.12.55-.27.05-.07.14-.16.18-.24.04-.09.08-.17.1-.27,0-.09.03-.18.04-.27,0-.12-.01-.25-.05-.37h.03Z"/>
    <path class="cls-11" d="M142.71,275.64c-.17-.26-.35-.5-.64-.64-.22-.12-.43-.24-.67-.31-.09,0-.18-.03-.27-.04-.09,0-.18.03-.27.04-.21.05-.38.18-.52.34-.03-.03-.05-.04-.08-.07-.37-.41-1.11-.41-1.48,0-.41.43-.39,1.05,0,1.48.52.59,1.19,1.09,1.92,1.4.16.09.34.14.52.14.14,0,.27-.03.39-.09.33-.13.52-.38.63-.71.03-.1.05-.21.07-.31.44-.21.67-.81.39-1.23h.01Z"/>
    <path class="cls-11" d="M180.78,251.26c-.05-.26-.27-.51-.5-.64-.04-.03-.09-.05-.13-.08h-.01s-.03-.05-.04-.08c-.01-.03-.03-.07-.04-.1-.14-.22-.37-.43-.64-.48-.09,0-.17-.03-.26-.04-.13,0-.26.03-.39.08-.09.04-.18.09-.27.16-.09-.05-.18-.1-.26-.13-.22-.05-.51-.03-.71.09-.21.13-.39.33-.44.59,0,.08-.03.16-.03.24,0,.17.04.33.12.47.18.41.43.77.71,1.12.29.35.63.63.99.89.24.17.58.16.84.05.12-.04.24-.1.33-.21.12-.12.21-.27.25-.43.05-.13.08-.26.1-.39.18-.13.33-.33.38-.56.04-.17.04-.35,0-.54h.01Z"/>
    <path class="cls-11" d="M154.01,251.85c-.03-.29-.08-.58-.17-.86v-.1c-.03-.12-.08-.24-.13-.34-.03-.07-.07-.13-.1-.2-.14-.24-.38-.43-.65-.5-.25-.07-.58-.04-.8.1-.13.08-.24.18-.33.3h-.04c-.25.08-.47.22-.59.46-.1.21-.18.48-.09.72.13.35.27.68.5.98.13.18.26.35.42.51.16.16.34.3.52.43.16.08.31.13.48.13.13,0,.25-.03.37-.08.13-.04.24-.1.33-.21.13-.13.21-.27.26-.44.05-.3.08-.59.05-.89h-.03Z"/>
    <path class="cls-11" d="M138.02,234.19c-.09-.29-.29-.55-.52-.73-.16-.13-.3-.21-.5-.24-.18-.03-.38,0-.54.09-.24.14-.38.38-.42.63-.04-.03-.07-.05-.1-.08-.25-.17-.6-.16-.86-.05-.3.12-.5.35-.59.67-.04.1-.07.22-.1.33-.03,0-.05-.01-.09-.01-.25,0-.54.1-.71.29-.35.39-.41,1.02,0,1.4.21.21.43.41.64.61.26.25.61.35.95.26.35-.09.6-.37.71-.71l.09-.29c.09.07.18.13.29.21.08.03.16.07.24.09.13.04.25.04.38.01.2-.03.44-.12.58-.27.22-.26.35-.48.47-.81.08-.22.12-.46.13-.69.01-.24,0-.48-.08-.71h.04Z"/>
    <path class="cls-11" d="M180.38,229.27c-.07-.16-.13-.33-.2-.48.04.08.07.17.1.25-.08-.2-.14-.41-.18-.63,0-.17-.03-.34,0-.5,0,.08-.01.14-.03.22.04-.13.04-.25.01-.38,0-.13-.04-.25-.12-.37-.12-.21-.37-.42-.61-.47-.25-.05-.52-.04-.75.09-.22.14-.37.33-.44.58-.16.04-.31.1-.43.24-.16.17-.3.43-.27.67.03.2.04.39.09.58.05.18.13.38.22.55.14.29.35.56.59.77.29.26.67.35,1.03.21.07-.03.12-.07.18-.1.12-.01.24-.04.34-.1.14-.09.27-.22.37-.37.12-.18.17-.52.09-.73h0Z"/>
  </g>
</svg>