<?xml version="1.0" encoding="UTF-8"?>
<svg xmlns="http://www.w3.org/2000/svg" xmlns:xlink="http://www.w3.org/1999/xlink" viewBox="0 0 700 400">
  <defs>
    <style>
      .cls-1 {
        clip-path: url(#clippath);
      }

      .cls-2, .cls-3 {
        fill: none;
      }

      .cls-2, .cls-3, .cls-4, .cls-5, .cls-6, .cls-7, .cls-8, .cls-9, .cls-10, .cls-11, .cls-12, .cls-13, .cls-14, .cls-15 {
        stroke-width: 0px;
      }

      .cls-16 {
        clip-path: url(#clippath-1);
      }

      .cls-17 {
        clip-path: url(#clippath-4);
      }

      .cls-18 {
        clip-path: url(#clippath-3);
      }

      .cls-19 {
        clip-path: url(#clippath-2);
      }

      .cls-20 {
        clip-path: url(#clippath-7);
      }

      .cls-21 {
        clip-path: url(#clippath-8);
      }

      .cls-22 {
        clip-path: url(#clippath-6);
      }

      .cls-23 {
        clip-path: url(#clippath-5);
      }

      .cls-24 {
        clip-path: url(#clippath-9);
      }

      .cls-25 {
        mix-blend-mode: multiply;
        opacity: .39;
      }

      .cls-25, .cls-26 {
        isolation: isolate;
      }

      .cls-27 {
        clip-path: url(#clippath-14);
      }

      .cls-28 {
        clip-path: url(#clippath-13);
      }

      .cls-29 {
        clip-path: url(#clippath-12);
      }

      .cls-30 {
        clip-path: url(#clippath-10);
      }

      .cls-31 {
        clip-path: url(#clippath-11);
      }

      .cls-3 {
        clip-rule: evenodd;
      }

      .cls-4 {
        fill-rule: evenodd;
      }

      .cls-4, .cls-14 {
        fill: #ffd5c6;
      }

      .cls-6 {
        fill: #4abaeb;
      }

      .cls-7 {
        fill: #26b57e;
      }

      .cls-8 {
        fill: #345454;
      }

      .cls-9 {
        fill: #3c4a6f;
      }

      .cls-10 {
        fill: #d9d3c3;
      }

      .cls-11 {
        fill: #d49f2d;
      }

      .cls-12 {
        fill: #ff8484;
      }

      .cls-13 {
        fill: #fff;
      }

      .cls-15 {
        fill: #f1d0de;
      }
    </style>
    <clipPath id="clippath">
      <rect class="cls-2" width="700" height="400"/>
    </clipPath>
    <clipPath id="clippath-1">
      <path class="cls-3" d="M376.4,281.21s28.1,13.48,54.25,75.78c1.53,3.65,2.99,7.16,4.37,10.52,8.37,20.38,25.03,36.22,45.8,43.57l29.62,10.47-8.38,32.39s-101.86,26.05-142.23-61.47c-40.37-87.53,16.58-111.24,16.58-111.24h-.01Z"/>
    </clipPath>
    <clipPath id="clippath-2">
      <path class="cls-3" d="M389.61,485.24s-104.2,43.83-189.1-16.4l12.18-30.7,33.49-84.42-18.06-50.75c3.56-3.56,7.21-6.86,10.96-9.87,7.41-4.91,16.3-9.97,26.44-14.28,28.16-11.96,65.95-18.06,108.49,1.27.8.37,1.59.73,2.4,1.12,2.47,14.02,14.69,32.29,18.17,42.2,1.67,4.78,5.35,25.17,0,33.04l-11.57,18.81-4.46,10.69c-1.78,8.91,1.4,12.32,2.99,20.67l8.07,78.62Z"/>
    </clipPath>
    <clipPath id="clippath-3">
      <path class="cls-3" d="M341.81,268.92c-6.16-1.27-10.7-6.51-11.06-12.79l-.36-15.35-.5-21.36-41.92-26.55.73,8.09,3.75,1.39,1.32,45.1c.37,12.34-7.21,23.55-18.84,27.7-2.53.91-6.24,1.89-8.85,2.98,0,0,45.42,29.99,60.89,28.23,15.47-1.77,27.26-33.74,27.26-33.74,0,0-4.42-2.03-12.43-3.68h.01Z"/>
    </clipPath>
    <clipPath id="clippath-4">
      <rect class="cls-2" width="700" height="400"/>
    </clipPath>
    <clipPath id="clippath-5">
      <path class="cls-3" d="M256.46,459.91c32.97,12.38,52.49,11.51,56.14,5.35l5.35-7.19-1.78-8.85c.62-1.06-6.87-4.96-8.02-5.35-1.75-.59-4.53-1.23-7.71-1.84.17-.06.34-.12.5-.17,5.96-1.85,7.5-8.49-2.63-10.06-7.47-1.16-17.1,3.03-21.65,5.31-.36-.46-.72-.94-1.06-1.38-.65-.86-1.18-1.56-1.32-1.66l-43.52-32.74c-.69-.54-.92-1.47-.57-2.27l17.72-40.81c20.97-44.4,17.91-72.54,17.08-77.81h0c-.18-1.27-1.41-2.09-2.59-1.64-8.12,3.1-16.71,7.87-24.3,13.97-3.75,3.02-7.41,6.32-10.96,9.87-31.28,31.23-53.66,80.67-44.87,104.56,4.55,12.34,16.41,22.61,29.44,30.61,20.93,12.87,33.59,19.47,43.87,20.3.02,0,.27.53.5,1,.19.4.37.78.39.78Z"/>
    </clipPath>
    <clipPath id="clippath-6">
      <path class="cls-3" d="M291.64,105.04c-1.26-.31-6.29-46.2-52.48-38.03-46.2,8.17-27.02,83.91,3.77,86.11s48.71-48.08,48.71-48.08Z"/>
    </clipPath>
    <clipPath id="clippath-7">
      <path class="cls-3" d="M285.15,235.92c-1.36,0-50.09-6.38-59.19-50.54-9.11-44.17,30.51-60.11,30.51-60.11,0,0,7.28-25.05,54.64-25.5,47.36-.46,57.13,49.6,51.66,78.75-5.46,29.14-77.61,57.4-77.61,57.4Z"/>
    </clipPath>
    <clipPath id="clippath-8">
      <ellipse class="cls-2" cx="360.62" cy="186.37" rx="16.18" ry="14.71" transform="translate(-34.54 279.27) rotate(-40.56)"/>
    </clipPath>
    <clipPath id="clippath-9">
      <path class="cls-3" d="M358.91,206.69c-3.66,15.91-16.56,27.27-28.17,33.85-.22.13-.41.24-.57.37-4.13,1.87-8.52,3.12-13.12,3.65-31.04,3.59-60.91-26.6-68.63-62.83,10.12-18.57,30.18-54.28,94.14-55.24,3.34,4.48,11.62,8.65,13.98,13.99-4.32,2.97-2.89,1.61-3.93,6.63,0,0,4.12,21.85,7.01,45.35.1.88.18,1.74.24,2.6.26,4.12-.09,7.99-.94,11.63Z"/>
    </clipPath>
    <clipPath id="clippath-10">
      <path class="cls-3" d="M286.8,132.66s4.4,20.41,25.27,28.5c17.58,6.81,29.05-25.55,44.1,10.77,0,0,10.92-51.28-28.25-61.7-39.17-10.41-56.53,17.43-56.53,17.43l15.41,5Z"/>
    </clipPath>
    <clipPath id="clippath-11">
      <path class="cls-3" d="M247.37,184.34s4.3,13.82,12.59,21.18c0,0-5.42-30.5,9.69-34.56,30.75-8.25,29.41-21.45,24.69-30.22-20.2-37.64-46.98,43.59-46.98,43.59Z"/>
    </clipPath>
    <clipPath id="clippath-12">
      <path class="cls-3" d="M257.74,461.23s13.42-7.78,20.76-25.62l-47.91-34.89s45.75-81.52,35.9-122.59c0,0-36.33-.66-74.7,71.21-38.38,71.88-3.43,98.51,65.94,111.89h.01Z"/>
    </clipPath>
    <clipPath id="clippath-13">
      <path class="cls-3" d="M461.03,267.65s-9.38-15.47,1.61-22.15c0,0,14.91,6.68,15.3,20,0,0-2.35-10.99,14.52-18.04,0,0,4.7,9.42.39,20,0,0,5.88-10.99,29.82-12.95,0,0,2.35,11.38-8.64,21.57,0,0,12.95-4.31,21.18,0,0,0-6.66,9.42-10.2,10.6,0,0,12.16,6.27,23.14-5.88,0,0,4.7,8.23-1.96,19.61l12.56-2.74s-.78,9.03-6.66,12.95c0,0,15.3-.78,24.72,9.03,0,0-5.49,6.27-15.3,5.49,0,0,13.73,3.14,12.16,20.79,0,0-17.08.51-19.44-3.41l5.04,5.04,12.44,5.83s-26.42,9.68-36.62,9.29c-10.2-.39-79.96-10.47-81.61-74.56l7.55-20.47Z"/>
    </clipPath>
    <clipPath id="clippath-14">
      <path class="cls-3" d="M461.03,267.65s-25.37,31.71-53.81,109.7c0,0-33.44-1.81-57.52,17.18,0,0,4.84,43.28,48.12,53.73,0,0,4.26-18.14,26.71-45.47,1.74-2.12,55.57,9.45,132.77-44.47,0,0-70.56-5.39-96.28-90.65v-.02Z"/>
    </clipPath>
  </defs>
  <g class="cls-26">
    <g id="Layer_1" data-name="Layer 1">
      <g class="cls-1">
        <ellipse class="cls-15" cx="350" cy="254.5" rx="123.12" ry="193.09" transform="translate(-52.77 412.76) rotate(-57.47)"/>
        <path class="cls-6" d="M376.4,281.21s28.1,13.48,54.25,75.78c1.53,3.65,2.99,7.16,4.37,10.52,8.37,20.38,25.03,36.22,45.8,43.57l29.62,10.47-8.38,32.39s-101.86,26.05-142.23-61.47c-40.37-87.53,16.58-111.24,16.58-111.24h-.01Z"/>
        <g class="cls-16">
          <path class="cls-5" d="M378.14,279.49h-.01s-3.46,3.45-3.46,3.45h.01s3.46-3.45,3.46-3.45ZM362.05,391.43c-19.95-43.26-15.65-70.23-6.92-86.25,4.4-8.07,10-13.52,14.5-16.95,2.25-1.71,4.21-2.92,5.6-3.69.69-.38,1.24-.66,1.61-.84.18-.09.32-.15.41-.19.04-.02.07-.03.09-.04,0,0,.01,0,.02,0,0,0,0,0,0,0,0,0,0,0,0,0t-.94-2.26q-.94-2.26-.94-2.26s0,0,0,0c0,0,0,0-.01,0-.01,0-.03.01-.04.02-.04.02-.09.04-.15.07-.13.06-.3.14-.53.24-.45.21-1.08.53-1.87.97-1.57.87-3.74,2.2-6.2,4.08-4.92,3.75-11.03,9.7-15.83,18.5-9.66,17.72-13.64,46.37,6.77,90.64l4.44-2.05ZM502.05,453.93q-.61-2.37-.61-2.37s0,0,0,0c0,0,0,0,0,0,0,0-.03,0-.05.01-.04.01-.11.03-.2.05-.18.04-.46.11-.82.19-.73.16-1.82.4-3.22.66-2.81.53-6.88,1.2-11.89,1.72-10.04,1.06-23.82,1.57-38.82-.61-29.95-4.35-64.64-19.36-84.38-62.16l-4.44,2.05c20.63,44.72,57.05,60.44,88.12,64.95,15.51,2.25,29.72,1.72,40.04.63,5.16-.55,9.37-1.23,12.29-1.78,1.46-.28,2.6-.52,3.38-.69.39-.09.69-.16.9-.21.1-.02.18-.04.24-.06.03,0,.05-.01.06-.02,0,0,.01,0,.02,0,0,0,0,0,0,0t-.6-2.37ZM508.07,420.93l-8.38,32.39,4.74,1.23,8.38-32.39-4.74-1.23ZM479.99,413.38l29.62,10.47,1.63-4.61-29.62-10.47-1.63,4.61ZM432.75,368.43c8.64,21.02,25.82,37.36,47.24,44.95l1.63-4.61c-20.11-7.12-36.24-22.46-44.35-42.19l-4.53,1.86ZM428.39,357.93c1.53,3.65,2.99,7.15,4.36,10.5l4.53-1.86c-1.38-3.37-2.85-6.89-4.38-10.53l-4.52,1.89ZM376.4,281.21q-1.06,2.21-1.06,2.21s0,0,0,0c0,0,0,0,0,0,0,0,0,0,0,0,0,0,.02,0,.04.02.04.02.1.05.19.1.18.1.46.25.84.48.75.45,1.89,1.18,3.35,2.25,2.92,2.14,7.13,5.67,12.17,11.13,10.08,10.93,23.5,29.62,36.47,60.54l4.51-1.89c-13.17-31.38-26.88-50.58-37.39-61.96-5.25-5.69-9.7-9.43-12.87-11.76-1.58-1.16-2.85-1.98-3.73-2.51-.44-.26-.79-.46-1.04-.59-.12-.07-.22-.12-.29-.15-.04-.02-.06-.03-.09-.04-.01,0-.02,0-.03-.01,0,0,0,0-.01,0,0,0,0,0,0,0t-1.06,2.2ZM376.41,281.22l.94,2.26,3.37-1.4-2.58-2.58-1.73,1.73ZM359.82,392.46l-2.22,1.02h0s2.22-1.02,2.22-1.02ZM502.05,453.93l.61,2.37,1.4-.36.36-1.4-2.37-.61ZM510.44,421.54l2.37.61.56-2.17-2.12-.75-.82,2.31ZM480.81,411.07l-.82,2.31h0s.82-2.31.82-2.31ZM435.01,367.5l-2.26.93h0s2.26-.93,2.26-.93ZM430.64,356.98l2.26-.94h0s-2.26.94-2.26.94ZM376.4,281.21l1.06-2.21-2.79,3.94,1.73-1.73Z"/>
        </g>
        <path class="cls-6" d="M389.61,485.24s-104.2,43.83-189.1-16.4l12.18-30.7,33.49-84.42-18.06-50.75c3.56-3.56,7.21-6.86,10.96-9.87,7.41-4.91,16.3-9.97,26.44-14.28,28.16-11.96,65.95-18.06,108.49,1.27.8.37,1.59.73,2.4,1.12,2.47,14.02,14.69,32.29,18.17,42.2,1.67,4.78,5.35,25.17,0,33.04l-11.57,18.81-4.46,10.69c-1.78,8.91,1.4,12.32,2.99,20.67l8.07,78.62Z"/>
        <g class="cls-19">
          <path class="cls-5" d="M379.1,406.87l8.07,78.62,4.87-.5-8.07-78.62-4.87.5ZM376.14,385.47c-.97,4.87-.59,8.32.26,11.63.4,1.57.93,3.17,1.4,4.73.48,1.59.95,3.28,1.33,5.25l4.81-.92c-.42-2.21-.95-4.08-1.45-5.75-.52-1.71-.97-3.09-1.34-4.52-.69-2.71-1.01-5.41-.2-9.46l-4.8-.96ZM380.74,374.31l-4.46,10.69,4.52,1.88,4.46-10.69-4.52-1.88ZM392.48,355.16l-11.57,18.81,4.17,2.56,11.57-18.81-4.17-2.56ZM392.26,324.21c.74,2.12,2.05,8.19,2.5,14.72.22,3.24.23,6.51-.13,9.4-.36,2.93-1.07,5.23-2.09,6.73l4.05,2.75c1.65-2.43,2.49-5.63,2.9-8.88.41-3.3.39-6.9.15-10.33-.47-6.82-1.83-13.35-2.76-16l-4.62,1.62ZM373.99,281.63c1.3,7.4,5.14,15.77,8.93,23.32,3.9,7.75,7.67,14.52,9.34,19.27l4.62-1.62c-1.81-5.15-5.88-12.48-9.59-19.85-3.81-7.57-7.32-15.35-8.48-21.97l-4.82.85ZM372.98,282.3c.8.36,1.57.72,2.35,1.1l2.14-4.4c-.83-.4-1.64-.78-2.45-1.15l-2.03,4.45ZM266.47,281.06c27.68-11.76,64.74-17.74,106.52,1.25l2.03-4.46c-43.3-19.68-81.82-13.46-110.46-1.3l1.91,4.5ZM240.43,295.13c7.3-4.84,16.06-9.82,26.04-14.07l-1.92-4.5c-10.3,4.38-19.32,9.51-26.83,14.49l2.7,4.08ZM229.84,304.69c3.5-3.5,7.09-6.74,10.77-9.7l-3.07-3.81c-3.82,3.08-7.55,6.44-11.16,10.05l3.46,3.46ZM248.48,352.89l-18.06-50.75-4.61,1.64,18.06,50.75,4.61-1.64ZM214.96,439.04l33.49-84.42-4.55-1.8-33.49,84.42,4.55,1.8ZM202.78,469.74l12.18-30.7-4.55-1.8-12.18,30.7,4.55,1.8ZM389.61,485.24q-.95-2.26-.95-2.26s0,0,0,0c0,0,0,0-.01,0-.01,0-.03.01-.05.02-.05.02-.12.05-.21.09-.19.08-.48.19-.86.34-.76.3-1.9.73-3.39,1.26-2.97,1.06-7.32,2.52-12.81,4.09-10.98,3.14-26.51,6.7-44.66,8.4-36.32,3.4-82.94-.69-124.75-30.35l-2.83,3.99c43.1,30.57,91.03,34.69,128.03,31.23,18.51-1.73,34.34-5.36,45.55-8.56,5.6-1.6,10.06-3.09,13.12-4.19,1.53-.55,2.71-1,3.52-1.31.4-.16.71-.28.92-.37.1-.04.18-.08.24-.1.03-.01.05-.02.06-.03,0,0,.01,0,.02,0,0,0,0,0,0,0t-.95-2.26ZM381.54,406.62l2.43-.25v-.11s-.03-.1-.03-.1l-2.4.46ZM378.54,385.95l-2.26-.94-.09.22-.05.24,2.4.48ZM383,375.25l-2.08-1.28-.1.16-.07.18,2.26.94ZM394.57,356.44l-2.02-1.38-.03.05-.03.05,2.08,1.28ZM394.57,323.4l2.31-.81h0s-2.31.81-2.31.81ZM376.4,281.2l2.41-.42-.22-1.23-1.12-.55-1.07,2.2ZM374,280.08l1.02-2.23h0s-1.01,2.23-1.01,2.23ZM265.51,278.81l-.96-2.25h0s.96,2.25.96,2.25ZM239.08,293.09l-1.35-2.04-.09.06-.09.07,1.53,1.91ZM228.11,302.96l-1.73-1.73-1.09,1.09.52,1.46,2.31-.82ZM246.18,353.71l2.27.9.34-.86-.31-.87-2.31.82ZM212.69,438.13l2.27.9h0s-2.27-.9-2.27-.9ZM200.51,468.84l-2.27-.9-.71,1.79,1.57,1.11,1.42-2ZM389.61,485.24l.95,2.26,1.67-.7-.19-1.8-2.43.25Z"/>
        </g>
        <circle class="cls-13" cx="283.22" cy="319.33" r="5.3"/>
        <circle class="cls-13" cx="360.71" cy="298.12" r="5.3"/>
        <circle class="cls-13" cx="405.17" cy="346.66" r="2.45"/>
        <circle class="cls-13" cx="364.79" cy="334.83" r="3.67"/>
        <circle class="cls-13" cx="392.53" cy="367.45" r="3.67"/>
        <circle class="cls-13" cx="274.24" cy="358.48" r="3.67"/>
        <circle class="cls-13" cx="329.3" cy="349.92" r="3.26"/>
        <path class="cls-6" d="M386.82,292.41c-8.45-8.65-16.65-11.73-19.17-12.24,4.19,13.15,15.19,29.64,15.91,27.33.72-2.31,1.96-2.27,2.86-1.63l.41-13.46Z"/>
        <path class="cls-13" d="M225.18,293.83c-.14.18-.21.29-.21.29l.16-.32s0,.01.05.03Z"/>
        <path class="cls-13" d="M225.13,293.8s0,.01.05.03c-.14.18-.21.29-.21.29l.16-.32Z"/>
        <path class="cls-14" d="M341.81,268.92c-6.16-1.27-10.7-6.51-11.06-12.79l-.36-15.35-.5-21.36-41.92-26.55.73,8.09,3.75,1.39,1.32,45.1c.37,12.34-7.21,23.55-18.84,27.7-2.53.91-6.24,1.89-8.85,2.98,0,0,45.42,29.99,60.89,28.23,15.47-1.77,27.26-33.74,27.26-33.74,0,0-4.42-2.03-12.43-3.68h.01Z"/>
        <g class="cls-18">
          <path class="cls-5" d="M343.53,270.67h.01s-3.46-3.48-3.46-3.48h-.01s3.46,3.48,3.46,3.48ZM354.23,272.61q1.02-2.22,1.02-2.22s0,0,0,0c0,0,0,0,0,0,0,0,0,0,0,0,0,0,0,0-.02,0-.01,0-.03-.01-.05-.02-.04-.02-.1-.05-.18-.08-.16-.07-.38-.16-.67-.28-.58-.23-1.42-.55-2.52-.92-2.19-.74-5.4-1.69-9.51-2.54l-.99,4.79c3.9.8,6.91,1.7,8.93,2.38,1.01.34,1.77.63,2.27.83.25.1.43.18.55.23.06.03.1.04.13.06.01,0,.02,0,.03.01,0,0,0,0,0,0,0,0,0,0,0,0,0,0,0,0,0,0,0,0,0,0,0,0t1.02-2.22ZM327.25,308.79c4.65-.53,8.77-3.29,12.23-6.71,3.49-3.45,6.53-7.81,9.03-12.01,2.5-4.21,4.5-8.36,5.88-11.44.69-1.54,1.22-2.83,1.58-3.73.18-.45.32-.81.41-1.05.05-.12.08-.22.11-.28.01-.03.02-.06.03-.08,0,0,0-.02,0-.02,0,0,0,0,0,0,0,0,0,0,0,0t-2.3-.85q-2.3-.85-2.3-.85s0,0,0,0c0,0,0,0,0,0,0,0,0,0,0,.01,0,.01-.01.03-.02.06-.02.06-.05.14-.1.25-.09.22-.22.56-.39.98-.34.85-.85,2.08-1.51,3.56-1.32,2.97-3.24,6.93-5.61,10.93-2.39,4.02-5.19,7.98-8.26,11.03-3.1,3.07-6.26,4.97-9.34,5.33l.56,4.86ZM266.08,278.13q-1.35,2.04-1.35,2.04s0,0,0,0c0,0,0,0,0,0,0,0,.01,0,.03.02.02.02.06.04.1.07.09.06.22.14.39.25.34.22.84.55,1.48.96,1.28.82,3.13,1.99,5.39,3.4,4.52,2.8,10.72,6.52,17.42,10.18,6.68,3.66,13.91,7.3,20.48,9.91,3.28,1.31,6.44,2.38,9.32,3.07,2.85.68,5.56,1.02,7.91.76l-.56-4.86c-1.53.17-3.61-.03-6.21-.65-2.57-.61-5.5-1.6-8.65-2.85-6.3-2.51-13.33-6.04-19.94-9.66-6.59-3.61-12.72-7.28-17.19-10.05-2.24-1.38-4.06-2.54-5.32-3.35-.63-.41-1.12-.72-1.45-.94-.17-.11-.29-.19-.38-.25-.04-.03-.07-.05-.09-.06-.01,0-.02-.01-.02-.02,0,0,0,0,0,0,0,0,0,0,0,0t-1.35,2.04ZM274.11,272.84c-1.21.43-2.69.88-4.31,1.39-1.57.5-3.24,1.04-4.66,1.63l1.88,4.52c1.2-.5,2.68-.99,4.25-1.49,1.52-.48,3.16-.98,4.48-1.45l-1.65-4.61ZM291.33,247.52c.34,11.29-6.6,21.53-17.22,25.32l1.65,4.61c12.64-4.51,20.87-16.68,20.47-30.08l-4.89.15ZM290.02,202.43l1.32,45.1,4.89-.14-1.32-45.1-4.89.14ZM287.86,203.26l3.75,1.39,1.7-4.59-3.75-1.39-1.7,4.59ZM285.54,193.1l.73,8.09,4.87-.44-.73-8.09-4.87.44ZM331.21,217.36l-41.92-26.55-2.62,4.13,41.92,26.55,2.62-4.13ZM332.85,240.73l-.5-21.36-4.89.12.5,21.36,4.89-.12ZM333.2,256.08l-.36-15.35-4.89.11.36,15.35,4.89-.11ZM342.31,266.52c-5.08-1.05-8.82-5.37-9.11-10.53l-4.89.28c.42,7.39,5.77,13.55,13,15.05l.99-4.79ZM341.8,268.93l-1.73-1.73-3.22,3.21,4.46.92.49-2.4ZM354.23,272.61l2.3.85.78-2.12-2.06-.95-1.02,2.22ZM266.08,278.13l-.94-2.26-4.24,1.77,3.84,2.53,1.35-2.04ZM274.94,275.15l-.82-2.3h0s.82,2.3.82,2.3ZM293.78,247.45l-2.45.07h0s2.45-.07,2.45-.07ZM292.46,202.35l2.45-.07-.05-1.65-1.55-.57-.85,2.3ZM288.71,200.97l-2.44.22.14,1.54,1.45.54.85-2.3ZM287.98,192.88l1.31-2.07-4.2-2.66.45,4.95,2.44-.22ZM329.9,219.43l2.45-.06-.03-1.31-1.11-.7-1.31,2.07ZM330.4,240.79l2.45-.06h0s-2.45.06-2.45.06ZM330.76,256.13l-2.45.06v.04s0,.04,0,.04l2.44-.14ZM341.81,268.92l1.73,1.73,3.22-3.21-4.45-.92-.5,2.4Z"/>
        </g>
        <g class="cls-25">
          <g class="cls-17">
            <path class="cls-10" d="M249.89,357.33c-.3-.09.69-3.49,1.43-9.07.08-.7.17-1.43.26-2.19.09-.77.11-1.56.17-2.39.15-1.65.14-3.42.17-5.28-.06-3.72-.38-7.8-1.1-12.03-.78-4.22-1.89-8.15-3.13-11.66-.68-1.73-1.27-3.39-1.98-4.9-.34-.76-.64-1.49-.99-2.18-.36-.69-.69-1.34-1.01-1.97-2.63-4.99-4.74-7.83-4.48-8.02.1-.08.71.56,1.73,1.8.53.61,1.14,1.39,1.75,2.34.64.94,1.41,2,2.11,3.26.37.62.73,1.27,1.14,1.95.39.69.72,1.43,1.11,2.18.79,1.5,1.46,3.19,2.19,4.94,1.34,3.57,2.55,7.59,3.35,11.93.76,4.34,1.02,8.54.99,12.35-.08,1.9-.11,3.72-.34,5.4-.1.84-.16,1.65-.29,2.43-.14.77-.26,1.51-.39,2.23-.22,1.42-.57,2.67-.85,3.78-.26,1.11-.56,2.04-.84,2.8-.53,1.51-.88,2.33-1,2.29h-.01Z"/>
          </g>
        </g>
        <path class="cls-4" d="M256.46,459.91c32.97,12.38,52.49,11.51,56.14,5.35l5.35-7.19-1.78-8.85c.62-1.06-6.87-4.96-8.02-5.35-1.75-.59-4.53-1.23-7.71-1.84.17-.06.34-.12.5-.17,5.96-1.85,7.5-8.49-2.63-10.06-7.47-1.16-17.1,3.03-21.65,5.31-.36-.46-.72-.94-1.06-1.38-.65-.86-1.18-1.56-1.32-1.66l-43.52-32.74c-.69-.54-.92-1.47-.57-2.27l17.72-40.81c20.97-44.4,17.91-72.54,17.08-77.81h0c-.18-1.27-1.41-2.09-2.59-1.64-8.12,3.1-16.71,7.87-24.3,13.97-3.75,3.02-7.41,6.32-10.96,9.87-31.28,31.23-53.66,80.67-44.87,104.56,4.55,12.34,16.41,22.61,29.44,30.61,20.93,12.87,33.59,19.47,43.87,20.3.02,0,.27.53.5,1,.19.4.37.78.39.78Z"/>
        <g class="cls-23">
          <path class="cls-5" d="M256.97,458.36c.14.05.25.1.32.15.08.05.14.09.18.12.08.07.14.13.18.16.07.07.11.13.13.16.04.05.06.1.07.1.01.02.02.04.01.02-.01-.02-.03-.07-.07-.14-.07-.14-.16-.32-.25-.53l-2.94,1.41c.1.2.19.4.27.55.04.07.07.15.11.21.01.03.04.07.07.12.01.02.04.07.09.13.02.03.07.09.13.16,0,0,.25.3.68.44l1.03-3.1ZM257.54,458.42c-.11-.24-.24-.49-.34-.69-.05-.1-.1-.2-.14-.28-.02-.04-.05-.09-.09-.15-.02-.02-.05-.09-.11-.15-.02-.03-.08-.1-.16-.18-.02-.02-.29-.3-.75-.42l-.79,3.17c-.26-.07-.45-.18-.53-.24-.1-.07-.17-.13-.21-.17-.08-.08-.13-.15-.15-.17-.05-.06-.08-.11-.08-.12-.02-.03-.02-.04-.01-.02.02.03.05.1.09.19.09.18.2.42.32.66l2.94-1.41ZM255.7,456.5c-4.86-.39-10.38-2.16-17.37-5.48-6.98-3.32-15.32-8.15-25.78-14.58l-1.71,2.78c10.47,6.44,18.93,11.35,26.08,14.75,7.15,3.4,13.09,5.35,18.51,5.79l.26-3.25ZM212.55,436.43c-12.95-7.96-24.41-17.98-28.76-29.79l-3.06,1.13c4.75,12.87,17.01,23.38,30.12,31.44l1.71-2.78ZM183.79,406.65c-2.07-5.61-2.35-12.87-1.02-21.2,1.32-8.31,4.23-17.57,8.39-27.11,8.33-19.07,21.63-39.07,37.12-54.53l-2.31-2.31c-15.79,15.77-29.32,36.11-37.8,55.54-4.24,9.72-7.24,19.25-8.62,27.9-1.37,8.63-1.15,16.51,1.18,22.85l3.06-1.13ZM228.28,303.8c3.52-3.52,7.13-6.78,10.83-9.76l-2.05-2.54c-3.8,3.06-7.5,6.4-11.1,9.99l2.31,2.31ZM239.11,294.05c7.46-5.99,15.9-10.68,23.86-13.72l-1.16-3.05c-8.27,3.16-17.01,8.01-24.74,14.22l2.04,2.54ZM262.97,280.33s.09-.02.11-.02c.03,0,.06.01.1.04.08.05.16.15.19.32l3.23-.47c-.31-2.17-2.51-3.78-4.78-2.92l1.16,3.05ZM263.35,280.43h0s3.26.01,3.26.01h0s-3.26-.01-3.26-.01ZM263.37,280.7c.79,4.96,3.87,32.77-16.94,76.85l2.95,1.39c21.12-44.71,18.1-73.19,17.21-78.76l-3.22.51ZM246.41,357.6l-17.72,40.81,2.99,1.3,17.72-40.81-2.99-1.3ZM228.69,398.42c-.63,1.47-.21,3.19,1.07,4.2l2.01-2.57c-.1-.07-.14-.21-.08-.34l-3-1.29ZM229.78,402.63l43.52,32.74,1.96-2.61-43.52-32.74-1.96,2.61ZM273.27,435.35c-.09-.07-.13-.12-.11-.1,0,0,.02.02.05.06.06.07.15.18.26.32.22.28.51.66.84,1.09l2.6-1.97c-.32-.43-.63-.83-.87-1.13-.12-.15-.23-.29-.33-.41-.06-.07-.22-.27-.41-.41l-2.03,2.56ZM274.3,436.72c.33.44.7.92,1.07,1.39l2.58-2c-.35-.46-.71-.93-1.05-1.37l-2.6,1.97ZM277.39,438.57c2.23-1.12,5.68-2.69,9.47-3.84,3.82-1.16,7.82-1.84,11.2-1.31l.5-3.22c-4.09-.63-8.64.2-12.64,1.42-4.03,1.22-7.67,2.88-9.99,4.04l1.46,2.92ZM298.05,433.42c4.91.76,5.91,2.57,5.97,3.42.06.99-.93,2.65-3.57,3.47l.97,3.12c3.31-1.03,6.07-3.62,5.86-6.8-.22-3.33-3.51-5.62-8.73-6.43l-.5,3.22ZM300.45,440.31c-.19.06-.38.12-.57.19l1.11,3.07c.15-.05.29-.1.43-.15l-.97-3.11ZM300.13,443.64c3.17.6,5.85,1.22,7.49,1.78l1.05-3.09c-1.87-.63-4.74-1.29-7.93-1.89l-.61,3.21ZM307.62,445.42c.16.05.74.31,1.61.76.83.42,1.82.96,2.76,1.52.95.57,1.78,1.11,2.32,1.56.13.11.23.2.31.27.04.04.06.07.08.09.02.02.03.03.03.03,0,0,0,0,0-.01,0,0-.01-.02-.02-.04-.02-.04-.05-.11-.08-.21-.05-.22-.07-.6.15-.98l2.81,1.65c.62-1.05-.01-2.03-.2-2.29-.27-.39-.65-.74-1.01-1.03-.73-.6-1.73-1.25-2.72-1.84-1-.6-2.06-1.17-2.94-1.62-.84-.43-1.62-.8-2.04-.94l-1.05,3.09ZM314.56,449.54l1.78,8.85,3.2-.64-1.78-8.85-3.2.64ZM316.64,457.09l-5.35,7.19,2.62,1.95,5.35-7.19-2.62-1.95ZM311.2,464.43c-.6,1.01-2.01,2.05-4.69,2.76-2.63.7-6.26,1-10.89.72-9.24-.55-22.2-3.37-38.59-9.52l-1.15,3.05c16.58,6.22,29.87,9.15,39.54,9.72,4.83.29,8.83-.01,11.91-.82,3.04-.8,5.43-2.18,6.66-4.25l-2.81-1.66ZM256.07,459.13l1.47-.71-1.47.71ZM255.57,458.13l.4-1.58-.13-.03h-.13s-.13,1.62-.13,1.62ZM211.7,437.82l.85-1.39h0s-.85,1.39-.85,1.39ZM182.26,407.21l-1.53.56h0s1.53-.56,1.53-.56ZM227.12,302.65l1.15,1.15h0s-1.15-1.15-1.15-1.15ZM238.09,292.77l-1.02-1.27h0s1.02,1.27,1.02,1.27ZM262.39,278.81l-.58-1.53h0s.58,1.53.58,1.53ZM264.98,280.43h1.63v-.12l-.02-.12-1.61.23ZM264.98,280.45h-1.63v.13l.02.13,1.61-.26ZM247.91,358.25l-1.48-.7v.02s-.02.02-.02.02l1.5.65ZM230.19,399.06l-1.5-.65h0s1.5.65,1.5.65ZM230.76,401.33l-1.01,1.28h.01s.01.02.01.02l.98-1.3ZM274.28,434.07l1.01-1.28h-.02s-.02-.03-.02-.03l-.98,1.3ZM275.6,435.73l-1.3.99h0s1.3-.99,1.3-.99ZM276.65,437.11l-1.29,1,.82,1.06,1.2-.6-.73-1.46ZM298.3,431.81l-.25,1.61.25-1.61ZM300.93,441.87l-.48-1.56h0s.49,1.56.49,1.56ZM300.43,442.03l-.55-1.53-5.62,2.02,5.86,1.11.3-1.6ZM308.14,443.87l.53-1.54h0s-.52,1.54-.52,1.54ZM316.16,449.22l-1.41-.83-.32.54.12.61,1.6-.32ZM317.95,458.07l1.31.97.43-.58-.14-.71-1.6.32ZM256.46,459.91l.57-1.53h-.03s-.03-.02-.03-.02l-.52,1.55ZM312.6,465.26l-1.31-.97-.05.07-.04.07,1.4.83Z"/>
        </g>
        <path class="cls-9" d="M291.64,105.04c-1.26-.31-6.29-46.2-52.48-38.03-46.2,8.17-27.02,83.91,3.77,86.11s48.71-48.08,48.71-48.08Z"/>
        <g class="cls-22">
          <path class="cls-5" d="M242.76,155.56c16.84,1.2,29.72-11.91,38.1-24.28,4.26-6.29,7.53-12.63,9.72-17.39,1.1-2.38,1.94-4.38,2.5-5.78.28-.7.5-1.26.64-1.64.07-.19.13-.34.16-.44.02-.05.03-.09.04-.12,0-.01,0-.02.01-.03,0,0,0,0,0,0,0,0,0,0,0,0t-2.3-.82q-2.31-.82-2.31-.82s0,0,0,0c0,0,0,0,0,0,0,0,0,.01,0,.02,0,.02-.02.05-.04.1-.03.09-.08.22-.15.4-.13.35-.33.88-.6,1.54-.54,1.34-1.34,3.25-2.4,5.55-2.12,4.6-5.26,10.69-9.33,16.7-8.28,12.22-19.74,23.14-33.7,22.14l-.35,4.88ZM238.73,64.6c-12.32,2.18-20.42,8.93-24.99,17.89-4.51,8.86-5.48,19.7-4,30.16,1.48,10.46,5.46,20.77,11.12,28.67,5.63,7.85,13.18,13.63,21.89,14.25l.35-4.88c-6.69-.48-13.08-5-18.26-12.22-5.15-7.19-8.86-16.73-10.25-26.5-1.39-9.78-.41-19.54,3.51-27.25,3.87-7.61,10.69-13.38,21.48-15.29l-.85-4.82ZM292.22,102.66c.76.19,1.16.67,1.25.79.14.17.21.31.22.33.03.06.02.06-.03-.09-.09-.27-.21-.71-.39-1.36-.35-1.26-.84-3.1-1.55-5.27-1.41-4.34-3.69-10.09-7.46-15.6-3.78-5.52-9.1-10.85-16.59-14.23-7.5-3.39-16.99-4.75-28.95-2.63l.85,4.82c11.14-1.97,19.6-.65,26.08,2.27,6.49,2.93,11.16,7.57,14.57,12.54,3.41,4.98,5.51,10.25,6.85,14.35.66,2.05,1.13,3.78,1.48,5.06.17.62.33,1.19.47,1.62.07.2.16.47.29.73.06.12.18.34.36.56.14.17.58.69,1.38.88l1.17-4.75ZM291.64,105.04l2.31.82.91-2.55-2.63-.65-.58,2.38Z"/>
        </g>
        <path class="cls-9" d="M285.15,235.92c-1.36,0-50.09-6.38-59.19-50.54-9.11-44.17,30.51-60.11,30.51-60.11,0,0,7.28-25.05,54.64-25.5,47.36-.46,57.13,49.6,51.66,78.75-5.46,29.14-77.61,57.4-77.61,57.4Z"/>
        <g class="cls-20">
          <path class="cls-5" d="M360.35,178.07c-1.21,6.47-6.24,13.25-13.66,19.89-7.35,6.59-16.72,12.75-26.01,18.06-9.27,5.3-18.39,9.71-25.19,12.8-3.4,1.54-6.22,2.75-8.18,3.57-.98.41-1.75.72-2.27.94-.26.11-.46.18-.59.24-.07.03-.12.05-.15.06-.02,0-.03.01-.04.01,0,0,0,0,0,0,0,0,0,0,0,0t.89,2.28q.89,2.28.89,2.28s0,0,0,0c0,0,0,0,.01,0,0,0,.02,0,.04-.02.04-.01.09-.04.16-.06.14-.06.35-.14.62-.25.54-.22,1.33-.54,2.33-.96,2-.84,4.86-2.06,8.31-3.63,6.89-3.13,16.16-7.6,25.6-13.01,9.43-5.4,19.13-11.76,26.84-18.67,7.64-6.85,13.68-14.54,15.2-22.64l-4.81-.9ZM311.12,102.22c22.58-.22,36.07,11.5,43.41,26.88,7.41,15.55,8.48,34.8,5.82,48.97l4.81.9c2.81-14.98,1.73-35.32-6.21-51.98-8.02-16.82-23.1-29.91-47.87-29.67l.05,4.89ZM256.46,125.27q2.35.68,2.35.69s0,0,0,0c0,0,0,0,0,0,0,0,0,0,0,0,0,0,0,0,0-.02,0-.03.02-.07.05-.14.05-.14.13-.36.26-.65.25-.59.67-1.46,1.32-2.54,1.29-2.14,3.5-5.06,7.14-8.03,7.23-5.9,20.32-12.14,43.55-12.36l-.05-4.89c-24.13.23-38.36,6.74-46.6,13.47-4.11,3.35-6.68,6.72-8.23,9.29-.78,1.28-1.3,2.37-1.63,3.15-.17.39-.29.71-.37.94-.04.11-.07.21-.09.28-.01.03-.02.06-.03.09,0,.01,0,.02,0,.03,0,0,0,0,0,.01,0,0,0,0,0,0t2.35.69ZM228.35,184.88c-4.37-21.19,2.92-35.44,11.24-44.46,4.19-4.55,8.67-7.78,12.1-9.88,1.71-1.05,3.16-1.81,4.16-2.3.5-.25.9-.43,1.16-.54.13-.06.23-.1.29-.13.03-.01.05-.02.07-.03,0,0,.01,0,.01,0,0,0,0,0,0,0,0,0,0,0,0,0t-.92-2.27q-.91-2.27-.92-2.27s0,0,0,0c0,0,0,0-.01,0,0,0-.02,0-.03.01-.03.01-.06.02-.1.04-.09.04-.21.09-.37.16-.32.14-.76.35-1.33.62-1.12.55-2.7,1.38-4.56,2.52-3.71,2.27-8.57,5.78-13.14,10.74-9.21,9.99-17.17,25.79-12.44,48.77l4.79-.99ZM285.15,233.47c.11,0,0,0-.47-.06-.4-.05-.96-.14-1.67-.26-1.42-.25-3.4-.66-5.78-1.28-4.77-1.25-11.09-3.37-17.63-6.82-13.07-6.89-26.88-19.02-31.24-40.16l-4.79.99c4.75,23.02,19.85,36.17,33.75,43.51,6.95,3.66,13.63,5.9,18.67,7.23,2.52.66,4.64,1.1,6.18,1.37.77.14,1.4.23,1.88.29.4.05.83.1,1.11.1v-4.89ZM362.76,178.52l-2.41-.45h0s2.41.45,2.41.45ZM311.1,99.77l.02,2.45h0s-.02-2.45-.02-2.45ZM256.46,125.27l.91,2.27,1.1-.44.33-1.14-2.35-.68ZM285.15,235.92v2.45h.46l.43-.17-.89-2.28Z"/>
        </g>
        <ellipse class="cls-14" cx="360.62" cy="186.37" rx="16.18" ry="14.71" transform="translate(-34.54 279.27) rotate(-40.56)"/>
        <g class="cls-21">
          <path class="cls-5" d="M352.65,177.05c5.93-5.08,14.15-4.6,18.41.39l3.72-3.18c-6.3-7.36-17.67-7.47-25.31-.92l3.18,3.72ZM350.19,195.3c-4.27-4.98-3.48-13.17,2.46-18.25l-3.18-3.72c-7.65,6.54-9.3,17.79-2.99,25.15l3.72-3.18ZM368.6,195.69c-5.93,5.08-14.15,4.6-18.41-.39l-3.72,3.18c6.3,7.36,17.67,7.47,25.31.92l-3.18-3.72ZM371.06,177.44c4.27,4.98,3.48,13.17-2.46,18.25l3.18,3.72c7.65-6.54,9.3-17.79,2.99-25.15l-3.72,3.18Z"/>
        </g>
        <path class="cls-5" d="M368.56,181.57c-1.92-1.4-5.4-2.74-9.63-2.29-4.24.45-9.2,2.69-14.1,8.4l.62.53c4.78-5.57,9.56-7.7,13.56-8.12,4.02-.43,7.29.85,9.06,2.14l.48-.66ZM344.83,187.68c-.15.17-.13.43.04.58s.43.13.58-.04l-.62-.53ZM368.08,182.23c.18.13.44.09.57-.09.13-.18.09-.44-.09-.57l-.48.66Z"/>
        <path class="cls-14" d="M358.91,206.69c-3.66,15.91-16.56,27.27-28.17,33.85-.22.13-.41.24-.57.37-4.13,1.87-8.52,3.12-13.12,3.65-31.04,3.59-60.91-26.6-68.63-62.83,10.12-18.57,30.18-54.28,94.14-55.24,3.34,4.48,11.62,8.65,13.98,13.99-4.32,2.97-2.89,1.61-3.93,6.63,0,0,4.12,21.85,7.01,45.35.1.88.18,1.74.24,2.6.26,4.12-.09,7.99-.94,11.63Z"/>
        <g class="cls-24">
          <path class="cls-5" d="M357.41,195.22c.25,3.88-.09,7.51-.88,10.92l4.77,1.11c.9-3.87,1.28-7.98,1-12.34l-4.88.31ZM357.18,192.74c.1.85.18,1.67.23,2.48l4.88-.33c-.06-.9-.14-1.8-.25-2.72l-4.86.57ZM352.6,147.11q-2.4.45-2.4.45s0,0,0,0c0,0,0,0,0,0,0,0,0,0,0,.01,0,.01,0,.03,0,.05,0,.04.02.1.03.19.03.16.08.41.13.73.12.64.29,1.58.5,2.78.43,2.41,1.03,5.86,1.73,10.05,1.39,8.38,3.13,19.68,4.57,31.39l4.86-.6c-1.45-11.79-3.21-23.17-4.6-31.59-.7-4.21-1.3-7.69-1.74-10.11-.22-1.21-.39-2.16-.51-2.81-.06-.32-.11-.57-.14-.74-.02-.08-.03-.15-.04-.19,0-.02,0-.04,0-.05,0,0,0,0,0-.01,0,0,0,0,0,0,0,0,0,0,0,0t-2.4.45ZM355.15,138.46c-1,.69-1.83,1.23-2.38,1.64-.58.43-1.23.99-1.65,1.87-.36.76-.44,1.58-.51,2.09-.08.61-.17,1.39-.42,2.55l4.79,1c.28-1.35.4-2.29.48-2.92.1-.75.12-.7.07-.61-.1.22-.24.25.16-.06.44-.33,1.05-.73,2.21-1.52l-2.77-4.03ZM340.59,127.95c1.9,2.56,5.18,4.99,7.77,7.11,2.84,2.32,5.02,4.36,5.93,6.41l4.48-1.98c-1.45-3.29-4.59-6.01-7.32-8.23-2.97-2.42-5.51-4.31-6.94-6.24l-3.93,2.92ZM250.57,182.89c5.04-9.25,12.39-22.44,26.25-33.48,13.81-11,34.28-20.01,65.77-20.48l-.07-4.89c-32.47.48-54.01,9.81-68.75,21.54-14.69,11.7-22.43,25.65-27.5,34.97l4.3,2.34ZM316.77,242.12c-14.61,1.69-29.15-4.55-41.1-15.83-11.94-11.27-21.1-27.43-24.86-45.08l-4.79,1.02c3.96,18.58,13.6,35.64,26.29,47.62,12.68,11.97,28.59,19.03,45.02,17.13l-.56-4.86ZM329.16,238.67c-3.91,1.77-8.05,2.95-12.39,3.45l.56,4.86c4.86-.56,9.5-1.88,13.85-3.85l-2.02-4.46ZM329.51,238.42c-.19.11-.54.31-.86.56l3.02,3.85s0,0,.05-.03c.06-.03.12-.08.23-.14l-2.45-4.24ZM356.52,206.14c-3.44,14.94-15.65,25.84-26.99,32.26l2.41,4.26c11.87-6.72,25.47-18.55,29.35-35.43l-4.77-1.1ZM359.85,195.06l2.44-.16h0s-2.44.16-2.44.16ZM359.61,192.46l2.43-.28h0s0-.01,0-.01l-2.43.3ZM352.6,147.11l-2.4-.5-.1.47.09.48,2.4-.45ZM356.54,140.48l1.39,2.02,1.67-1.15-.82-1.86-2.24.99ZM342.55,126.49l1.96-1.46-.75-1-1.25.02.04,2.45ZM248.42,181.72l-2.15-1.17-.43.8.19.89,2.39-.51ZM317.05,244.55l-.28-2.43h0s.28,2.43.28,2.43ZM330.17,240.9l1.01,2.23.27-.12.23-.18-1.51-1.92ZM330.74,240.54l-1.21-2.13h-.01s-.01.01-.01.01l1.23,2.12ZM358.91,206.69l-2.38-.56h0s2.39.56,2.39.56Z"/>
        </g>
        <path class="cls-5" d="M318.09,197.12c1.12-.09,2.33-.05,3.37.18,1.07.24,1.74.63,2.06,1.07.25.36.45,1-.09,2.29-.55,1.33-1.83,3.15-4.24,5.56l1.73,1.73c2.51-2.51,4.04-4.6,4.77-6.35.75-1.79.72-3.4-.18-4.65-.83-1.17-2.22-1.76-3.52-2.04-1.34-.3-2.81-.33-4.09-.23l.19,2.44ZM313.76,187.34l3.08,8.96,2.31-.8-3.08-8.96-2.31.8ZM319.18,206.23c-.48.48-.48,1.25,0,1.73.48.48,1.25.48,1.73,0l-1.73-1.73ZM317.99,195.9l-1.16.4.31.9.94-.07-.1-1.22ZM316.07,186.54c-.22-.64-.92-.98-1.55-.76-.64.22-.98.92-.76,1.55l2.31-.8Z"/>
        <path class="cls-9" d="M286.8,132.66s4.4,20.41,25.27,28.5c17.58,6.81,29.05-25.55,44.1,10.77,0,0,10.92-51.28-28.25-61.7-39.17-10.41-56.53,17.43-56.53,17.43l15.41,5Z"/>
        <g class="cls-30">
          <path class="cls-5" d="M270.63,129.99l15.41,5,1.51-4.66-15.41-5-1.51,4.66ZM328.55,107.86c-20.28-5.39-35.1-.89-44.86,5.09-4.85,2.97-8.42,6.29-10.78,8.87-1.18,1.29-2.07,2.4-2.66,3.2-.3.4-.52.72-.68.95-.08.11-.14.21-.18.27-.02.03-.04.06-.05.08,0,0-.01.02-.02.02,0,0,0,0,0,0,0,0,0,0,0,0t2.07,1.3q2.08,1.29,2.08,1.3s0,0,0,0c0,0,0,0,0,0,0,0,0,0,0,0,0,0,.01-.02.03-.04.03-.04.07-.1.13-.19.12-.17.3-.44.56-.78.51-.68,1.29-1.66,2.34-2.82,2.12-2.32,5.34-5.31,9.73-8,8.71-5.34,22.16-9.55,41.05-4.53l1.26-4.73ZM356.17,171.93q2.39.51,2.39.51s0,0,0,0c0,0,0,0,0-.01,0,0,0-.02,0-.04,0-.03.01-.07.03-.13.02-.11.05-.26.09-.46.07-.4.18-.98.29-1.72.23-1.47.51-3.57.72-6.13.42-5.09.57-12.03-.55-19.34-2.24-14.62-9.7-31.19-30.6-36.76l-1.26,4.73c18.26,4.86,24.93,19.14,27.02,32.77,1.05,6.81.91,13.35.51,18.19-.2,2.42-.47,4.4-.68,5.78-.11.69-.2,1.22-.27,1.57-.03.18-.06.31-.08.4,0,.04-.02.08-.02.1,0,0,0,.02,0,.02,0,0,0,0,0,0,0,0,0,0,0,0t2.39.51ZM311.19,163.44c5.19,2.01,9.89,1.07,13.98-.56,2.02-.81,3.96-1.81,5.73-2.72,1.82-.94,3.46-1.78,5.05-2.4,3.11-1.21,5.6-1.4,8.14.19,2.79,1.76,6.09,5.94,9.81,14.91l4.52-1.87c-3.81-9.19-7.59-14.58-11.72-17.18-4.39-2.76-8.69-2.1-12.52-.61-1.88.73-3.75,1.7-5.52,2.61-1.81.93-3.54,1.82-5.31,2.53-3.48,1.39-6.8,1.94-10.4.54l-1.77,4.56ZM286.8,132.66q-2.39.52-2.39.52s0,0,0,0c0,0,0,0,0,0,0,0,0,.01,0,.02,0,.02,0,.04.01.06.01.05.03.12.05.21.04.18.11.42.2.74.18.63.45,1.51.84,2.59.78,2.16,2.05,5.12,4,8.34,3.91,6.45,10.6,14.01,21.66,18.3l1.77-4.56c-9.8-3.8-15.74-10.49-19.25-16.27-1.76-2.89-2.89-5.55-3.59-7.47-.35-.96-.58-1.73-.73-2.25-.07-.26-.12-.46-.16-.59-.02-.06-.03-.11-.03-.14,0-.01,0-.02,0-.03,0,0,0,0,0,0,0,0,0,0,0,0,0,0,0,0,0,0t-2.39.52ZM271.39,127.66l-2.08-1.29-1.66,2.66,2.98.97.76-2.33ZM327.92,110.23l.63-2.36h0s-.63,2.36-.63,2.36ZM356.17,171.93l-2.26.94,3.01,7.28,1.64-7.7-2.39-.51ZM312.07,161.16l-.88,2.28h0s.88-2.28.88-2.28ZM286.8,132.66l2.39-.52-.3-1.38-1.34-.43-.76,2.33Z"/>
        </g>
        <path class="cls-9" d="M247.37,184.34s4.3,13.82,12.59,21.18c0,0-5.42-30.5,9.69-34.56,30.75-8.25,29.41-21.45,24.69-30.22-20.2-37.64-46.98,43.59-46.98,43.59Z"/>
        <g class="cls-31">
          <path class="cls-5" d="M296.5,139.59c-2.64-4.92-5.56-8.25-8.85-9.95-3.41-1.77-6.89-1.62-10.14-.21-3.15,1.37-6.08,3.9-8.75,6.95-2.69,3.07-5.24,6.82-7.59,10.8-4.7,7.96-8.73,17.06-11.58,24.14-1.43,3.55-2.56,6.6-3.34,8.77-.39,1.09-.69,1.95-.9,2.55-.1.3-.18.53-.23.69-.03.08-.05.14-.06.18,0,.02-.01.04-.02.05,0,0,0,0,0,.01,0,0,0,0,0,0t2.32.77q2.32.77,2.32.77s0,0,0,0c0,0,0,0,0,0,0,0,0-.02.01-.04.01-.04.03-.09.06-.17.05-.15.12-.37.22-.66.2-.58.49-1.42.87-2.48.76-2.12,1.88-5.12,3.28-8.6,2.81-6.98,6.73-15.83,11.25-23.48,2.26-3.82,4.64-7.29,7.06-10.06,2.44-2.79,4.81-4.73,7.01-5.69,2.1-.91,4.02-.93,5.94.06,2.05,1.06,4.38,3.42,6.79,7.92l4.31-2.31ZM270.29,173.33c15.56-4.17,23.76-9.78,27.17-16.12,3.49-6.49,1.56-12.94-.95-17.63l-4.31,2.32c2.2,4.09,3.3,8.63.95,12.99-2.43,4.51-8.94,9.64-24.12,13.71l1.27,4.73ZM259.96,205.52q2.41-.43,2.41-.43s0,0,0,0c0,0,0,0,0,0,0,0,0,0,0-.01,0-.01,0-.03,0-.06,0-.05-.02-.13-.04-.24-.03-.21-.08-.52-.14-.93-.11-.81-.26-1.98-.39-3.4-.27-2.84-.46-6.65-.21-10.54.26-3.92.96-7.77,2.39-10.8,1.41-2.98,3.42-5.02,6.31-5.79l-1.27-4.73c-4.67,1.25-7.64,4.56-9.47,8.43-1.8,3.83-2.58,8.36-2.85,12.57-.28,4.24-.06,8.31.22,11.31.14,1.51.3,2.75.42,3.63.06.44.11.78.15,1.02.02.12.03.21.05.28,0,.03,0,.06.01.08,0,0,0,.02,0,.02,0,0,0,0,0,0,0,0,0,0,0,0t2.41-.43ZM247.37,184.34q-2.34.73-2.34.73s0,0,0,0c0,0,0,0,0,0,0,0,0,0,0,.01,0,0,0,.02.01.04,0,.03.02.08.04.13.04.11.09.28.16.48.14.41.35,1.01.63,1.74.55,1.46,1.38,3.49,2.47,5.76,2.16,4.48,5.48,10.12,9.99,14.12l3.25-3.66c-3.79-3.36-6.77-8.32-8.83-12.59-1.02-2.11-1.79-4-2.3-5.36-.26-.68-.45-1.22-.57-1.59-.06-.18-.11-.33-.14-.42-.02-.05-.03-.08-.03-.1,0-.01,0-.02,0-.02,0,0,0,0,0,0,0,0,0,0,0,0,0,0,0,0,0,0t-2.34.73ZM294.35,140.75l-2.16,1.16h0s2.16-1.16,2.16-1.16ZM269.65,170.97l-.63-2.36h0s.63,2.36.63,2.36ZM259.96,205.52l-1.62,1.83,5.27,4.68-1.23-6.94-2.41.43ZM247.37,184.34l-2.32-.77-.25.74.23.75,2.34-.73Z"/>
        </g>
        <path class="cls-9" d="M255.48,191.66c-4.48-1.88-9.74-.19-12.24.82l3.16-16.62,10.08-25.19,20.15-20.15-7.05-1.01,3.02-8.06,8.06-8.06,19.14-6.05h21.16l15.11,4.03,9.07,7.05,4.03,5.04,3.02,5.04,1.01,3.02,2.02,5.04,2.02,6.05,1.01,8.06v9.07l-1.61,12.35c0-.81-2.42-10.33-3.43-14.36v-5.04l-1.01-4.03-2.02-10.08-6.05-10.08-13.1-5.04-34.26,4.03,3.02,21.16c-4.84-4.03-6.72.34-7.05,3.02h-24.18l-15.11,30.23,2.03,9.76Z"/>
        <path class="cls-5" d="M290.61,185.62c.61,2.78-1.09,5.17-3.81,5.34-2.71.17-5.41-1.94-6.02-4.72-.61-2.78,1.09-5.17,3.81-5.34,2.71-.17,5.41,1.94,6.02,4.72Z"/>
        <path class="cls-5" d="M343.03,176.62c.49,2.22-.87,4.14-3.05,4.27-2.17.14-4.33-1.55-4.81-3.77-.49-2.22.87-4.14,3.05-4.27,2.17-.14,4.33,1.55,4.81,3.77Z"/>
        <path class="cls-5" d="M272.6,184.18s4.23.41,10.08-1.27l-.37,3.9s-5.23,1.02-9.69-2.62h-.01Z"/>
        <path class="cls-5" d="M342.25,176.86s3.43-.53,4.91-4.03c0,0-1.97,1.11-6.05,1.58l1.14,2.45Z"/>
        <path class="cls-5" d="M239.76,202.53c2.8-5.93,10.6-8.56,17.66-5.22l2.09-4.43c-9.1-4.3-20.04-1.2-24.18,7.56l4.43,2.09ZM246.94,219.49c-7.06-3.34-9.98-11.03-7.18-16.96l-4.43-2.09c-4.14,8.76.41,19.18,9.51,23.48l2.09-4.43ZM264.6,214.27c-2.8,5.93-10.6,8.56-17.66,5.22l-2.09,4.43c9.1,4.3,20.04,1.2,24.18-7.56l-4.43-2.09ZM257.42,197.31c7.06,3.34,9.98,11.03,7.18,16.96l4.43,2.09c4.14-8.76-.41-19.18-9.51-23.48l-2.09,4.43Z"/>
        <ellipse class="cls-14" cx="252.18" cy="208.4" rx="14.71" ry="16.18" transform="translate(-43.98 347.39) rotate(-64.71)"/>
        <path class="cls-5" d="M241.67,204.34c1.47-1.64,4.07-3.59,7.05-4.15,2.94-.56,6.32.22,9.45,4.14l.64-.51c-3.31-4.14-6.99-5.05-10.24-4.43-3.21.61-5.96,2.69-7.51,4.41l.61.55ZM258.17,204.32c.14.18.4.2.57.06.18-.14.2-.4.06-.57l-.64.51ZM241.06,203.79c-.15.17-.14.43.03.58s.43.14.58-.03l-.61-.55Z"/>
        <path class="cls-14" d="M259.5,187.94c-1.34,5.71-1.01,19.95,11.08,31.23,3.69-7.39,6.65-23.98-11.08-31.23Z"/>
        <path class="cls-5" d="M270.58,183.28s12.09-3.15,23.45-2.59c0,0-11.19-7.94-23.45,2.59Z"/>
        <path class="cls-5" d="M329.66,175.02s12.2-2.95,23.54-2.2c0,0-16.16-7.84-23.54,2.2Z"/>
        <path class="cls-5" d="M238.75,173.06c-.21-.07.41-2.88,2.13-7.19.85-2.16,2.02-4.67,3.48-7.37,1.48-2.7,3.26-5.57,5.34-8.44,2.1-2.86,4.3-5.44,6.4-7.67,2.13-2.21,4.16-4.09,5.95-5.56,3.58-2.96,6.07-4.4,6.19-4.23.38.45-8.92,7.21-17.09,18.53-8.27,11.24-11.87,22.16-12.41,21.94Z"/>
        <path class="cls-5" d="M260.57,159.02c-.44-.21,1.45-4.97,5.02-10.13,3.57-5.17,7.36-8.61,7.71-8.27.38.36-2.74,4.26-6.23,9.3-3.5,5.03-6.06,9.34-6.51,9.11h.01Z"/>
        <path class="cls-5" d="M240.32,124.39c-.19-.24,2.68-2.18,5.6-6.71,1.45-2.26,2.84-5.15,3.85-8.54,1.03-3.39,1.67-7.27,2-11.39.3-4.13.39-8.09.16-11.64-.24-3.56-.85-6.71-1.73-9.23-1.75-5.09-4.45-7.39-4.19-7.6.05-.05.23.06.56.31.32.25.8.63,1.32,1.22,1.07,1.14,2.42,3.02,3.5,5.62,1.09,2.59,1.86,5.88,2.19,9.55.33,3.68.29,7.7-.02,11.92-.32,4.22-1.03,8.23-2.2,11.76-1.15,3.52-2.74,6.5-4.39,8.76-3.34,4.56-6.58,6.16-6.65,5.99h.01Z"/>
        <path class="cls-5" d="M258.21,107.21c-.15-.22.73-1.06,1.38-2.9.67-1.87,1.54-4.52,2.18-7.49,1.35-5.95,1.24-10.99,1.77-11.02.46-.08,1.41,5.14,0,11.41-.69,3.12-1.78,5.79-2.79,7.65-.53.93-1.12,1.63-1.62,2-.49.38-.85.46-.91.36h-.01Z"/>
        <path class="cls-5" d="M352.41,152.07c-.11.06-.61-.72-1.43-2.14-.85-1.41-1.98-3.51-3.83-5.71-.93-1.08-2.06-2.17-3.45-3.06-1.38-.88-3.02-1.61-4.79-1.77-.89-.08-1.81-.01-2.74.14-.93.21-1.87.47-2.81.87-1.88.77-3.75,1.88-5.75,2.97-1.98,1.09-4.05,2.12-6.27,2.61-2.21.54-4.51.4-6.48-.21-3.99-1.23-6.81-3.82-8.72-6.12-1.92-2.34-3.1-4.45-3.9-5.91-.79-1.47-1.15-2.31-1.04-2.37.1-.07.68.65,1.64,2,.97,1.33,2.31,3.31,4.27,5.44,1.94,2.11,4.64,4.37,8.21,5.37,1.77.49,3.69.57,5.62.09,1.94-.46,3.85-1.41,5.81-2.48,1.96-1.07,3.89-2.21,5.95-3.03,1.02-.42,2.1-.72,3.17-.93,1.09-.16,2.18-.21,3.23-.09,2.12.24,3.96,1.14,5.46,2.18,1.5,1.06,2.67,2.28,3.6,3.5,1.84,2.44,2.81,4.68,3.48,6.19.64,1.54.92,2.41.8,2.47h-.02Z"/>
        <path class="cls-5" d="M347.84,135.76c-.18.21-1.22-.53-2.95-1.42-1.73-.91-4.23-1.92-7.15-2.37-2.91-.45-5.61-.25-7.52.09-1.93.33-3.12.71-3.23.46-.1-.19.93-1.01,2.92-1.7.99-.36,2.21-.62,3.6-.77,1.39-.13,2.92-.1,4.52.13,1.59.25,3.06.71,4.35,1.25,1.27.56,2.36,1.19,3.2,1.82,1.69,1.26,2.42,2.35,2.26,2.51Z"/>
        <path class="cls-12" d="M331,225.46c.38,3.38-2.46,6.8-6.34,7.64-3.87.84-7.32-1.24-7.7-4.62-.37-3.38,2.24-8.35,6.12-9.18,3.87-.84,7.54,2.77,7.92,6.17h0Z"/>
        <path class="cls-5" d="M336.38,210.05c-1.43,4.86-4.98,11.23-10.89,14.66-5.79,3.36-14.15,4.07-25.62-2.88l-1.27,2.09c12.05,7.3,21.38,6.82,28.12,2.91,6.63-3.85,10.47-10.85,12.01-16.08l-2.35-.69Z"/>
        <ellipse class="cls-13" cx="318.93" cy="279.31" rx="4.27" ry="4.35"/>
        <ellipse class="cls-13" cx="309.39" cy="278.61" rx="3.92" ry="3.49"/>
        <ellipse class="cls-13" cx="327.55" cy="276.59" rx="3.92" ry="3.57"/>
        <ellipse class="cls-13" cx="300.1" cy="276.35" rx="3.44" ry="3.13"/>
        <ellipse class="cls-13" cx="333.37" cy="271.82" rx="2.48" ry="2.26"/>
        <ellipse class="cls-13" cx="293.69" cy="273.03" rx="2.96" ry="2.79"/>
        <path class="cls-6" d="M257.74,461.23s13.42-7.78,20.76-25.62l-47.91-34.89s45.75-81.52,35.9-122.59c0,0-36.33-.66-74.7,71.21-38.38,71.88-3.43,98.51,65.94,111.89h.01Z"/>
        <g class="cls-29">
          <path class="cls-5" d="M257.72,463.68h.01v-4.89h-.01v4.89ZM189.63,348.19c-19.33,36.2-20.72,61.99-7.25,80.47,6.65,9.13,16.73,16.18,29.4,21.79,12.67,5.61,28.06,9.82,45.49,13.19l.93-4.81c-17.25-3.33-32.24-7.46-44.44-12.86-12.2-5.4-21.46-12-27.42-20.19-11.76-16.15-11.43-39.61,7.62-75.29l-4.32-2.31ZM266.49,278.13q.04-2.45.04-2.45s0,0,0,0c0,0,0,0-.01,0-.01,0-.02,0-.04,0-.03,0-.07,0-.12,0-.1,0-.23,0-.39.01-.33.02-.79.05-1.38.12-1.18.14-2.87.41-4.99.97-4.25,1.12-10.22,3.39-17.37,7.93-14.31,9.09-33.25,27.25-52.59,63.47l4.32,2.31c19.04-35.65,37.45-53.1,50.9-61.65,6.73-4.27,12.23-6.34,16-7.33,1.88-.5,3.34-.73,4.29-.84.48-.05.83-.08,1.05-.09.11,0,.19,0,.23,0,.02,0,.04,0,.04,0,0,0,0,0,0,0,0,0,0,0,0,0,0,0,0,0,0,0t.04-2.45ZM230.59,400.72q2.13,1.2,2.13,1.2s0,0,0,0c0,0,0,0,0-.01,0-.01.01-.03.03-.05.02-.04.06-.1.1-.18.09-.16.22-.39.39-.7.34-.61.83-1.52,1.45-2.68,1.24-2.33,3-5.69,5.08-9.86,4.16-8.33,9.6-19.86,14.73-32.7,5.13-12.83,9.98-27.01,12.92-40.61,2.93-13.55,4.03-26.77,1.44-37.57l-4.76,1.14c2.34,9.74,1.41,22.11-1.47,35.39-2.86,13.24-7.61,27.14-12.68,39.83-5.07,12.68-10.45,24.09-14.57,32.33-2.06,4.12-3.8,7.45-5.02,9.74-.61,1.15-1.09,2.03-1.42,2.63-.16.3-.29.53-.37.68-.04.08-.07.13-.09.17-.01.02-.02.03-.02.04,0,0,0,0,0,0,0,0,0,0,0,0t2.13,1.2ZM279.94,433.63l-47.91-34.89-2.88,3.96,47.91,34.89,2.88-3.96ZM257.74,461.23q1.23,2.12,1.23,2.12s0,0,0,0c0,0,0,0,0,0,0,0,0,0,.01,0,.01,0,.02-.01.04-.02.03-.02.08-.05.14-.08.12-.07.28-.18.49-.31.42-.27,1.01-.67,1.74-1.2,1.45-1.07,3.45-2.67,5.68-4.85,4.46-4.35,9.86-11.03,13.69-20.32l-4.53-1.86c-3.52,8.55-8.49,14.69-12.58,18.68-2.04,2-3.86,3.45-5.15,4.4-.65.47-1.16.82-1.5,1.04-.17.11-.3.19-.38.24-.04.03-.07.04-.09.05,0,0-.01,0-.02,0,0,0,0,0,0,0,0,0,0,0,0,0,0,0,0,0,0,0t1.23,2.12ZM257.72,461.23l-.46,2.4.23.04h.23v-2.45ZM266.49,278.13l2.38-.57-.44-1.84-1.89-.03-.04,2.45ZM230.59,400.72l-2.13-1.2-1.06,1.9,1.76,1.28,1.44-1.98ZM278.5,435.61l2.26.93.73-1.78-1.55-1.13-1.44,1.98ZM257.74,461.23v2.45h.66l.57-.33-1.23-2.12Z"/>
        </g>
        <path class="cls-6" d="M268.94,279.76l-8.97,2.04c-3.04,11.95-8.77,42.96-3.91,36.01,4.86-6.95,10.07-.98,10.74,1.92l2.14-39.97Z"/>
        <path class="cls-8" d="M282.92,166.77c9.85-1.11,19.01,7.01,20.28,18.36l1.62-.18c-1.35-12.06-11.17-21.02-22.09-19.79l.18,1.62ZM267.21,189.17c-1.27-11.35,5.86-21.29,15.71-22.4l-.18-1.62c-10.92,1.23-18.5,12.15-17.14,24.2l1.62-.18ZM287.5,207.52c-9.85,1.11-19.01-7.01-20.28-18.36l-1.62.18c1.35,12.06,11.17,21.02,22.09,19.79l-.18-1.62ZM303.2,185.12c1.27,11.35-5.86,21.29-15.71,22.4l.18,1.62c10.92-1.23,18.5-12.15,17.14-24.2l-1.62.18Z"/>
        <path class="cls-8" d="M340.71,153.6c9.85-1.11,19.01,7.01,20.28,18.36l1.62-.18c-1.35-12.06-11.17-21.02-22.09-19.79l.18,1.62ZM325.01,176c-1.27-11.35,5.86-21.29,15.71-22.4l-.18-1.62c-10.92,1.23-18.5,12.15-17.14,24.2l1.62-.18ZM345.29,194.35c-9.85,1.11-19.01-7.01-20.28-18.36l-1.62.18c1.35,12.06,11.17,21.02,22.09,19.79l-.18-1.62ZM361,171.95c1.27,11.35-5.86,21.29-15.71,22.4l.18,1.62c10.92-1.23,18.5-12.15,17.14-24.2l-1.62.18Z"/>
        <path class="cls-8" d="M302.93,180.25q.54.61.54.61s0,0,0,0c0,0,0,0,0,0,0,0,0,0,0,0,0,0,0,0,.02-.02.02-.01.04-.04.08-.07.07-.06.18-.15.32-.26.28-.22.7-.54,1.23-.91,1.07-.74,2.61-1.7,4.47-2.54,3.74-1.69,8.68-2.9,13.78-1.18l.52-1.55c-5.64-1.9-11.04-.54-14.97,1.24-1.97.89-3.6,1.9-4.73,2.69-.57.39-1.01.73-1.32.97-.15.12-.27.22-.35.29-.04.03-.07.06-.09.08-.01,0-.02.02-.03.02,0,0,0,0,0,0,0,0,0,0,0,0,0,0,0,0,0,0t.54.61Z"/>
        <path class="cls-8" d="M236.33,183.92q.6.55.6.56s0,0,0,0c0,0,0,0,0,0,0,0,0,0,0,0,0,0,0,0,.01-.01.01-.01.04-.04.07-.07.07-.07.17-.16.32-.29.29-.25.73-.59,1.33-.95,1.19-.73,2.98-1.55,5.37-1.88,4.75-.67,12.05.55,21.85,8.63l1.04-1.26c-10.05-8.28-17.79-9.73-23.11-8.98-2.65.37-4.65,1.28-6,2.11-.67.41-1.18.8-1.53,1.1-.17.15-.31.27-.4.36-.05.04-.08.08-.11.11-.01.01-.02.02-.03.03,0,0,0,0,0,0,0,0,0,0,0,0,0,0,0,0,0,0t.6.56ZM265.88,189.89c.35.29.86.24,1.15-.11s.24-.86-.11-1.15l-1.04,1.26ZM235.73,183.36c-.31.33-.29.85.04,1.15.33.31.85.29,1.15-.04l-1.2-1.11Z"/>
        <path class="cls-7" d="M461.03,267.65s-9.38-15.47,1.61-22.15c0,0,14.91,6.68,15.3,20,0,0-2.35-10.99,14.52-18.04,0,0,4.7,9.42.39,20,0,0,5.88-10.99,29.82-12.95,0,0,2.35,11.38-8.64,21.57,0,0,12.95-4.31,21.18,0,0,0-6.66,9.42-10.2,10.6,0,0,12.16,6.27,23.14-5.88,0,0,4.7,8.23-1.96,19.61l12.56-2.74s-.78,9.03-6.66,12.95c0,0,15.3-.78,24.72,9.03,0,0-5.49,6.27-15.3,5.49,0,0,13.73,3.14,12.16,20.79,0,0-17.08.51-19.44-3.41l5.04,5.04,12.44,5.83s-26.42,9.68-36.62,9.29c-10.2-.39-79.96-10.47-81.61-74.56l7.55-20.47Z"/>
        <g class="cls-28">
          <path class="cls-5" d="M558.23,349.78l12.44,5.83,2.08-4.43-12.44-5.83-2.08,4.43ZM552.5,344.26l5.04,5.04,3.46-3.46-5.04-5.04-3.46,3.46ZM455.77,288.97l7.55-20.47-4.59-1.69-7.55,20.47,4.59,1.69ZM535.18,360.23c-4.81-.18-24.4-2.74-42.91-13.08-18.39-10.28-35.55-28.14-36.35-59.09l-4.89.13c.85,33.14,19.4,52.36,38.85,63.24,19.34,10.81,39.73,13.5,45.11,13.7l.19-4.89ZM571.71,353.39q-.84-2.3-.84-2.3s0,0,0,0c0,0,0,0,0,0,0,0,0,0-.01,0-.01,0-.03.01-.05.02-.05.02-.12.04-.22.08-.19.07-.48.17-.84.3-.73.26-1.8.63-3.1,1.08-2.62.89-6.21,2.08-10.11,3.26-3.91,1.18-8.1,2.33-11.93,3.16-3.88.85-7.19,1.32-9.41,1.23l-.19,4.89c2.88.11,6.69-.48,10.64-1.34,4-.87,8.32-2.06,12.29-3.26,3.98-1.2,7.63-2.4,10.28-3.31,1.33-.45,2.41-.83,3.16-1.1.38-.13.67-.24.87-.31.1-.04.18-.06.23-.08.03,0,.05-.02.06-.02,0,0,.01,0,.02,0,0,0,0,0,0,0,0,0,0,0,0,0t-.84-2.3ZM573.67,345.94q-.07-2.45-.07-2.45h0s0,0,0,0c0,0,0,0,0,0,0,0-.02,0-.03,0-.03,0-.07,0-.13,0-.12,0-.3,0-.52,0-.46,0-1.12.01-1.91,0-1.6-.01-3.75-.07-5.96-.25-2.23-.18-4.42-.47-6.15-.92-.87-.23-1.53-.47-2-.72-.5-.26-.58-.42-.54-.36l-4.2,2.52c.62,1.04,1.59,1.72,2.48,2.18.91.48,1.97.84,3.03,1.11,2.14.56,4.66.87,6.99,1.06,2.36.19,4.63.25,6.3.26.84,0,1.53,0,2.02,0,.24,0,.44,0,.57,0,.07,0,.12,0,.15,0,.02,0,.03,0,.04,0,0,0,0,0,.01,0,0,0,0,0,0,0,0,0,0,0,0,0t-.07-2.45ZM561.51,325.14q-.55,2.39-.55,2.38s0,0,0,0c0,0,0,0,0,0,0,0,0,0,0,0,0,0,0,0,0,0,0,0,.03,0,.06.02.07.02.18.05.32.1.3.1.74.26,1.28.5,1.08.49,2.51,1.3,3.89,2.58,2.68,2.47,5.43,6.93,4.71,15l4.88.43c.85-9.58-2.47-15.52-6.27-19.03-1.85-1.71-3.76-2.79-5.2-3.44-.72-.33-1.34-.55-1.79-.7-.22-.07-.41-.13-.54-.16-.07-.02-.12-.03-.16-.04-.02,0-.04,0-.05-.01,0,0-.01,0-.02,0,0,0,0,0,0,0,0,0,0,0,0,0t-.55,2.38ZM576.81,319.65q-1.84-1.61-1.84-1.61s0,0,0,0c0,0,0,0,0,0,0,0,0,0,0,0,0,0,0,0,0,0,0,0,0,.01-.02.02-.02.03-.07.07-.13.14-.13.13-.34.33-.62.57-.57.49-1.43,1.15-2.57,1.8-2.27,1.28-5.61,2.49-9.93,2.14l-.39,4.88c5.49.44,9.79-1.1,12.73-2.76,1.46-.83,2.58-1.69,3.35-2.35.38-.33.68-.62.89-.83.1-.11.19-.19.25-.26.03-.03.05-.06.07-.08,0-.01.02-.02.02-.03,0,0,0,0,0-.01,0,0,0,0,0,0,0,0,0,0,0,0t-1.84-1.61ZM552.1,310.62q.12,2.44.12,2.44s0,0,0,0c0,0,0,0,0,0,0,0,0,0,0,0,0,0,0,0,.02,0,.02,0,.05,0,.1,0,.1,0,.24,0,.44,0,.4,0,.98,0,1.73.04,1.49.08,3.56.27,5.92.76,4.75.98,10.39,3.08,14.62,7.49l3.53-3.39c-5.18-5.4-11.9-7.81-17.16-8.89-2.65-.55-4.98-.77-6.66-.85-.84-.04-1.52-.05-2-.05-.24,0-.43,0-.56,0-.07,0-.12,0-.16,0-.02,0-.03,0-.05,0,0,0-.01,0-.01,0,0,0,0,0,0,0,0,0,0,0,0,0t.12,2.44ZM558.76,297.67q-2.44-.21-2.44-.21s0,0,0,0c0,0,0,0,0,0,0,0,0,0,0,0,0,0,0,0,0,0,0,0,0,.03,0,.05,0,.05-.01.13-.03.24-.03.22-.08.54-.15.95-.15.82-.4,1.95-.82,3.18-.86,2.54-2.29,5.17-4.58,6.69l2.71,4.07c3.6-2.4,5.5-6.24,6.5-9.2.51-1.51.82-2.88,1-3.88.09-.5.15-.91.19-1.2.02-.15.03-.26.04-.35,0-.04,0-.08.01-.1,0-.01,0-.02,0-.03,0,0,0,0,0-.01,0,0,0,0,0,0,0,0,0,0,0,0t-2.44-.21ZM546.72,302.81l12.56-2.74-1.04-4.78-12.56,2.74,1.04,4.78ZM548.16,280.8q-2.13,1.21-2.13,1.21s0,0,0,0c0,0,0,0,0,0,0,0,0,0,0,0,0,0,0,0,0,0,0,0,0,.01.01.03.02.03.05.1.09.19.09.18.21.48.35.87.28.79.61,1.98.76,3.5.3,3-.1,7.38-3.16,12.6l4.22,2.47c3.61-6.16,4.19-11.59,3.8-15.55-.19-1.96-.62-3.54-1.02-4.65-.2-.55-.38-.99-.53-1.31-.07-.16-.14-.28-.18-.37-.02-.05-.04-.08-.06-.11,0-.01-.02-.03-.02-.04,0,0,0-.01,0-.01,0,0,0,0,0,0,0,0,0,0,0,0t-2.13,1.21ZM525.02,286.69q-1.12,2.17-1.12,2.18s0,0,0,0c0,0,0,0,0,0,0,0,.01,0,.02,0,.01,0,.03.01.05.02.04.02.09.04.15.07.12.06.29.13.5.22.42.18,1.02.4,1.76.63,1.48.45,3.58.9,6.06.93,5.05.06,11.53-1.66,17.54-8.31l-3.63-3.28c-4.98,5.51-10.08,6.74-13.85,6.69-1.93-.02-3.56-.38-4.7-.72-.57-.17-1.01-.34-1.3-.46-.14-.06-.25-.11-.31-.14-.03-.01-.05-.02-.06-.03,0,0,0,0,0,0,0,0,0,0,0,0,0,0,0,0,0,0,0,0,0,0,0,0t-1.12,2.18ZM535.21,276.09q-2-1.41-2-1.41s0,0,0,0c0,0,0,0,0,0,0,0,0,0,0,0,0,0,0,0-.01.02-.01.02-.03.04-.05.07-.05.06-.12.16-.21.29-.18.25-.45.61-.78,1.05-.66.88-1.58,2.06-2.59,3.26-1.02,1.21-2.12,2.42-3.14,3.38-1.1,1.03-1.85,1.51-2.19,1.62l1.55,4.64c1.43-.48,2.84-1.62,3.98-2.69,1.22-1.14,2.46-2.51,3.54-3.8,1.09-1.29,2.06-2.54,2.76-3.47.35-.46.63-.85.83-1.12.1-.13.17-.24.23-.31.03-.04.05-.07.06-.09,0,0,.01-.02.02-.02,0,0,0,0,0,0,0,0,0,0,0,0,0,0,0,0,0,0t-2-1.41ZM514.03,276.09q.77,2.32.77,2.32s0,0,0,0c0,0,0,0,0,0,0,0,0,0,0,0,0,0,0,0,.02,0,.02,0,.05-.02.09-.03.08-.03.21-.07.38-.12.34-.1.85-.24,1.48-.4,1.27-.32,3.05-.7,5.06-.96,4.13-.52,8.8-.44,12.24,1.36l2.27-4.34c-4.8-2.51-10.72-2.43-15.12-1.88-2.25.28-4.23.71-5.64,1.07-.71.18-1.28.34-1.68.46-.2.06-.36.11-.47.14-.05.02-.1.03-.13.04-.02,0-.03,0-.04.01,0,0,0,0-.01,0,0,0,0,0,0,0,0,0,0,0,0,0t.77,2.32ZM522.67,254.52q-2.4.5-2.4.49s0,0,0,0c0,0,0,0,0,0,0,0,0,0,0,0,0,0,0,0,0,0,0,0,0,.03,0,.05,0,.06.02.15.04.28.03.27.08.68.1,1.21.04,1.07,0,2.62-.35,4.47-.7,3.67-2.63,8.57-7.7,13.27l3.33,3.59c5.92-5.49,8.31-11.38,9.18-15.95.43-2.27.49-4.2.43-5.58-.03-.69-.08-1.25-.13-1.65-.03-.2-.05-.36-.07-.47,0-.06-.02-.11-.03-.14,0-.02,0-.03,0-.05,0,0,0-.01,0-.02,0,0,0,0,0,0,0,0,0,0,0,0t-2.4.49ZM492.85,267.47q2.16,1.16,2.16,1.16s0,0,0,0c0,0,0,0,0,0,0,0,0,0,0,0,0,0,0,0,0,0,0,0,0-.01.02-.04.03-.04.08-.12.15-.24.16-.23.42-.59.82-1.04.79-.91,2.11-2.2,4.16-3.57,4.08-2.73,11.12-5.85,22.72-6.8l-.4-4.88c-12.33,1.01-20.2,4.37-25.05,7.62-2.42,1.62-4.06,3.2-5.12,4.42-.53.61-.91,1.12-1.17,1.5-.13.19-.23.35-.3.47-.04.06-.06.11-.09.15-.01.02-.02.04-.03.05,0,0,0,.01-.01.02,0,0,0,0,0,0,0,0,0,0,0,0t2.16,1.16ZM492.46,247.46q-2.19,1.09-2.19,1.09s0,0,0,0c0,0,0,0,0,0,0,0,0,0,0,0,0,0,0,0,0,0,0,0,.01.03.02.05.02.05.06.14.11.25.1.23.25.59.42,1.06.34.94.75,2.31,1.04,3.99.58,3.36.66,7.87-1.28,12.63l4.53,1.85c2.37-5.83,2.26-11.32,1.57-15.31-.35-2-.84-3.64-1.25-4.8-.21-.58-.39-1.04-.53-1.36-.07-.16-.13-.29-.17-.38-.02-.05-.04-.08-.05-.11,0-.01-.01-.03-.02-.03,0,0,0,0,0-.01,0,0,0,0,0,0,0,0,0,0,0,0t-2.19,1.09ZM477.94,265.5q2.39-.51,2.39-.51s0,0,0,0c0,0,0,0,0,0,0,0,0,0,0,0,0,0,0,0,0,0,0,0,0,0,0-.03,0-.04-.02-.11-.03-.22-.02-.21-.04-.56-.03-1.01.03-.89.22-2.19.85-3.69,1.23-2.94,4.33-7.03,12.27-10.35l-1.89-4.52c-8.92,3.73-13.09,8.66-14.9,12.98-.89,2.12-1.17,4.01-1.23,5.4-.03.69,0,1.26.05,1.68.02.21.04.38.06.5.01.06.02.12.03.16,0,.02,0,.04.01.05,0,0,0,.01,0,.02,0,0,0,0,0,0,0,0,0,0,0,0t2.39-.51ZM462.64,245.5q-1,2.23-1,2.23s0,0,0,0c0,0,0,0,0,0,0,0,0,0,0,0,0,0,0,0,.02,0,.02,0,.05.02.1.05.09.04.23.11.41.21.37.19.91.48,1.56.86,1.31.78,3.05,1.94,4.8,3.48,3.53,3.11,6.8,7.53,6.97,13.24l4.89-.14c-.22-7.62-4.6-13.21-8.62-16.76-2.03-1.79-4.04-3.13-5.54-4.02-.75-.45-1.38-.78-1.83-1.01-.22-.11-.4-.2-.53-.26-.06-.03-.12-.05-.15-.07-.02,0-.03-.02-.05-.02,0,0-.01,0-.01,0,0,0,0,0,0,0,0,0,0,0,0,0t-1,2.23ZM461.03,267.65q2.09-1.27,2.09-1.27s0,0,0,0c0,0,0,0,0,0,0,0,0,0,0,0,0,0,0-.01-.01-.02-.01-.02-.03-.06-.06-.1-.06-.1-.14-.25-.25-.44-.21-.4-.51-.98-.84-1.7-.66-1.45-1.42-3.41-1.85-5.53-.44-2.13-.53-4.27,0-6.15.5-1.81,1.6-3.51,3.8-4.84l-2.54-4.18c-3.3,2-5.15,4.74-5.97,7.71-.81,2.9-.61,5.88-.08,8.45.53,2.59,1.44,4.91,2.19,6.57.38.83.73,1.51.99,1.99.13.24.23.43.31.56.04.07.07.12.09.16.01.02.02.03.03.05,0,0,0,.01,0,.01,0,0,0,0,0,0,0,0,0,0,0,0t2.09-1.27ZM559.27,347.56l-1.73,1.73.3.3.39.18,1.04-2.22ZM453.48,288.12l-2.3-.85-.16.44v.47s2.46-.06,2.46-.06ZM571.71,353.39l.84,2.3,5.52-2.02-5.32-2.49-1.04,2.22ZM554.23,342.53l1.73-1.73-3.83,2.99,2.1-1.26ZM573.67,345.94l.07,2.45,2.17-.07.19-2.16-2.44-.22ZM561.51,325.14l.19-2.44-.74,4.83.55-2.39ZM576.81,319.65l1.84,1.61,1.48-1.69-1.55-1.62-1.77,1.7ZM552.1,310.62l-1.36-2.04-7.4,4.93,8.88-.45-.12-2.44ZM558.76,297.67l2.44.21.29-3.31-3.25.71.52,2.39ZM546.2,300.42l-2.11-1.24-2.82,4.82,5.46-1.19-.52-2.39ZM548.16,280.8l2.13-1.21-1.68-2.93-2.27,2.51,1.82,1.64ZM525.02,286.69l-.78-2.32-5.5,1.84,5.15,2.66,1.12-2.17ZM535.21,276.09l2,1.41,1.62-2.28-2.48-1.3-1.14,2.17ZM514.03,276.09l-1.66-1.79,2.44,4.12-.77-2.32ZM522.67,254.52l2.4-.5-.44-2.12-2.16.18.2,2.44ZM492.85,267.47l-2.27-.92,4.42,2.08-2.16-1.16ZM492.46,247.46l2.19-1.09-1.02-2.05-2.11.88.94,2.26ZM477.94,265.5l-2.39.51,4.84-.58-2.45.07ZM462.64,245.5l1-2.23-1.17-.52-1.1.67,1.27,2.09ZM461.03,267.65l2.3.85.41-1.11-.61-1.01-2.09,1.27Z"/>
        </g>
        <path class="cls-13" d="M461.03,267.65s-25.37,31.71-53.81,109.7c0,0-33.44-1.81-57.52,17.18,0,0,4.84,43.28,48.12,53.73,0,0,4.26-18.14,26.71-45.47,1.74-2.12,55.57,9.45,132.77-44.47,0,0-70.56-5.39-96.28-90.65v-.02Z"/>
        <g class="cls-27">
          <path class="cls-5" d="M463.21,268.76v-.02s-4.37-2.19-4.37-2.19v.02s4.37,2.19,4.37,2.19ZM557.3,358.32q.19-2.44.19-2.44s0,0,0,0c0,0,0,0,0,0,0,0-.01,0-.03,0-.03,0-.07,0-.13-.01-.12-.01-.3-.03-.55-.06-.49-.06-1.23-.15-2.18-.3-1.91-.3-4.69-.83-8.11-1.73-6.85-1.79-16.26-5.06-26.47-10.93-20.36-11.72-44-33.9-56.67-75.88l-4.69,1.41c13.06,43.28,37.56,66.42,58.91,78.71,10.65,6.13,20.48,9.54,27.67,11.42,3.59.94,6.53,1.5,8.58,1.83,1.03.16,1.83.27,2.39.33.28.03.49.05.64.07.07,0,.13.01.18.02.02,0,.04,0,.05,0,0,0,.01,0,.02,0,0,0,0,0,0,0t.19-2.44ZM426.43,404.34c-.25.31-.52.47-.66.54-.14.07-.25.1-.28.11-.05.01,0,0,.19-.02.38-.03.99-.05,1.88-.04,1.71,0,4.36.08,7.62.05,6.6-.06,16.04-.5,27.87-2.59,23.66-4.17,56.76-14.89,95.66-42.06l-2.8-4.01c-38.3,26.75-70.72,37.2-93.7,41.25-11.5,2.03-20.66,2.46-27.06,2.51-3.24.03-5.69-.04-7.55-.05-.89,0-1.7,0-2.34.06-.31.03-.68.07-1.04.17-.25.07-1,.28-1.57.97l3.78,3.11ZM397.82,448.26q2.38.56,2.38.56s0,0,0,0c0,0,0,0,0,0,0,0,0,0,0,0,0,0,0-.01,0-.02,0-.02.02-.07.03-.13.03-.12.08-.31.16-.56.15-.51.39-1.28.75-2.3.72-2.04,1.92-5.08,3.81-8.97,3.79-7.78,10.36-18.99,21.47-32.5l-3.78-3.11c-11.35,13.81-18.13,25.34-22.09,33.47-1.98,4.06-3.25,7.27-4.03,9.48-.39,1.11-.66,1.97-.83,2.56-.09.3-.15.53-.19.69-.02.08-.04.14-.05.19,0,.02-.01.04-.01.06,0,0,0,.01,0,.02,0,0,0,0,0,0,0,0,0,0,0,0t2.38.56ZM349.7,394.53q-2.43.27-2.43.27s0,0,0,0c0,0,0,0,0,.01,0,0,0,.02,0,.03,0,.03,0,.06.01.11.01.1.03.23.06.4.05.35.13.84.24,1.48.23,1.26.6,3.06,1.18,5.25,1.17,4.36,3.19,10.29,6.61,16.56,6.87,12.58,19.4,26.57,41.87,31.99l1.15-4.76c-20.81-5.02-32.34-17.9-38.72-29.58-3.2-5.85-5.09-11.4-6.18-15.48-.55-2.04-.89-3.7-1.1-4.85-.1-.57-.17-1.01-.21-1.31-.02-.15-.04-.26-.04-.32,0-.03,0-.06,0-.07,0,0,0-.01,0-.01,0,0,0,0,0,0,0,0,0,0,0,0t-2.43.27ZM407.22,377.35q.13-2.44.13-2.44s0,0,0,0c0,0,0,0,0,0,0,0-.01,0-.02,0-.02,0-.05,0-.08,0-.07,0-.18,0-.31-.01-.27,0-.66-.02-1.16-.03-1-.01-2.44,0-4.24.06-3.6.13-8.64.51-14.45,1.49-11.59,1.96-26.41,6.36-38.89,16.2l3.03,3.84c11.59-9.15,25.52-13.34,36.68-15.22,5.56-.94,10.38-1.3,13.81-1.42,1.71-.06,3.07-.06,4-.05.46,0,.82.02,1.05.02.12,0,.2,0,.26.01.03,0,.05,0,.06,0,0,0,.01,0,.01,0,0,0,0,0,0,0,0,0,0,0,0,0t.13-2.44ZM461.03,267.65q-1.91-1.53-1.91-1.53s0,0,0,0c0,0,0,0,0,0,0,0-.01.01-.02.02-.01.02-.04.05-.06.08-.05.07-.13.17-.23.3-.2.26-.5.66-.88,1.18-.77,1.05-1.89,2.62-3.32,4.74-2.86,4.25-6.96,10.71-11.94,19.6-9.96,17.79-23.47,45.34-37.74,84.45l4.6,1.68c14.18-38.87,27.58-66.18,37.41-83.74,4.92-8.78,8.94-15.12,11.73-19.26,1.39-2.07,2.48-3.58,3.2-4.58.36-.5.64-.86.82-1.1.09-.12.16-.21.2-.26.02-.03.04-.05.05-.06,0,0,0-.01,0-.01,0,0,0,0,0,0,0,0,0,0,0,0t-1.91-1.53ZM461.02,267.67l-2.19-1.09-.43.87.28.93,2.34-.71ZM557.3,358.32l1.4,2.01,5.62-3.92-6.83-.52-.19,2.44ZM424.54,402.79l1.89,1.55h0s-1.89-1.55-1.89-1.55ZM397.82,448.26l-.57,2.38,2.39.58.56-2.4-2.38-.56ZM349.7,394.53l-1.52-1.92-1.07.84.15,1.35,2.43-.27ZM407.22,377.35l-.13,2.44,1.81.1.62-1.7-2.3-.84ZM461.03,267.65l2.19,1.09-4.1-2.62,1.91,1.53Z"/>
        </g>
        <path class="cls-13" d="M485.01,274.21s-2.27-16.62,4.91-17c7.18-.38,5.67,15.86,5.67,15.86,0,0,6.8-4.53,14.35-.38,7.56,4.15-9.82,8.3-9.82,8.3,0,0,7.93,4.91,5.67,10.57-2.26,5.67-9.82-3.77-9.82-3.77,0,0-2.04,16.78-9.44,12.09-8.13-5.16-1.14-15.86-1.14-15.86,0,0-16.32,1.17-13.8-7.66,1.58-5.53,13.43-2.16,13.43-2.16h-.01Z"/>
        <path class="cls-13" d="M510.38,315.25c.61.25-8.75-11.43-1.22-15.41,7.55-3.98,9.22,10.26,9.22,10.26,0,0,4.19-6.49,9.85-5.24,5.65,1.26-4.19,10.06-4.19,10.06,0,0,11.94-2.1,12.36,4.19.42,6.29-13.67,2.02-13.67,2.02,0,0,4.67,8.26.06,10.77-4.61,2.51-9-9-9-9,0,0-13.2,2.1-13.61-4.19,0,0-1.07-8.05,10.22-3.44h-.02Z"/>
        <ellipse class="cls-11" cx="491.66" cy="278.95" rx="3.56" ry="4.78"/>
        <path class="cls-11" d="M517.46,318.96c2.01,0,3.64-1.36,3.64-3.03s-1.63-3.03-3.64-3.03-3.64,1.36-3.64,3.03,1.63,3.03,3.64,3.03Z"/>
        <path class="cls-13" d="M564.93,319.78c-4.66-2.12-9.74,1.7-9.74,1.7,0,0,1.48-11.01-1.9-10.99-3.38.02-5.08,10.36-5.08,10.36,0,0-1.48-8.26-4.66-6.98-3.18,1.27,1.27,7.83,1.27,7.83,0,0-10.38-4.66-11.86-.21-.85,2.53,3.31,4.71,7.05,6.14-2.41.53-4.7,1.56-4.99,3.62-.5,3.67,5,3.13,9.36.7-1.39,3.87-3.14,10.84,1.34,12.57,5.77,2.23,5.22-12.87,5.22-12.87,0,0,7.2,10.59,11.43,7.41,4.23-3.18-3.81-11.23-3.81-11.23,0,0,11.01-5.93,6.35-8.05Z"/>
        <path class="cls-11" d="M549.41,326.68c2.12,0,3.83-.91,3.83-2.03s-1.72-2.03-3.83-2.03-3.83.91-3.83,2.03,1.72,2.03,3.83,2.03Z"/>
        <path class="cls-13" d="M518.99,284.99s2.76-9.27,6.38-9.62c3.61-.36.36,9.38.36,9.38,0,0,6.38-3.73,8.54-2.17,2.17,1.56-6.25,7.34-6.25,7.34,0,0,9.62-.16,10.1,4.85.54,5.48-10.95,4.17-10.95,4.17,0,0,1.56,8.06-2.65,8.18s-3.97-7.45-3.97-7.45c0,0-6.62,4.93-9.99.11-3.37-4.82,4.82-9.03,4.82-9.03,0,0-8.64-5.8-6.29-9.92,3.05-5.33,9.9,4.14,9.9,4.14h0Z"/>
        <path class="cls-11" d="M522.07,292.52c1.74,0,3.14-.91,3.14-2.03s-1.41-2.03-3.14-2.03-3.14.91-3.14,2.03,1.41,2.03,3.14,2.03Z"/>
        <circle class="cls-13" cx="236.72" cy="338.9" r="3.67"/>
        <circle class="cls-13" cx="235.9" cy="360.93" r="2.04"/>
        <circle class="cls-13" cx="233.86" cy="311.58" r="2.45"/>
        <circle class="cls-13" cx="206.53" cy="356.04" r="3.67"/>
      </g>
    </g>
  </g>
</svg>