<svg width="501" height="250" viewBox="0 0 501 250" fill="none" xmlns="http://www.w3.org/2000/svg">
<line x1="90.5" y1="-6.55712e-08" x2="90.5" y2="173.765" stroke="#8ECDC7" stroke-width="3"/>
<line y1="-1.5" x2="166.679" y2="-1.5" transform="matrix(-0.00569885 -0.999984 0.999984 -0.00568416 415.582 249.518)" stroke="#8ECDC7" stroke-width="3"/>
<line x1="1.31312e-07" y1="116.22" x2="202" y2="116.22" stroke="#8ECDC7" stroke-width="3"/>
<line y1="-1.5" x2="193.717" y2="-1.5" transform="matrix(-0.999984 0.00568403 -0.00569872 -0.999984 499.779 119.564)" stroke="#8ECDC7" stroke-width="3"/>
<line x1="1.31312e-07" y1="65.7712" x2="229" y2="65.7713" stroke="#8ECDC7" stroke-width="3"/>
<line y1="-1.5" x2="219.049" y2="-1.5" transform="matrix(-0.999984 0.00568403 -0.00569872 -0.999984 500 158.256)" stroke="#8ECDC7" stroke-width="3"/>
<line x1="121.5" y1="-6.55712e-08" x2="121.5" y2="219.702" stroke="#8ECDC7" stroke-width="3"/>
<line y1="-1.5" x2="209.837" y2="-1.5" transform="matrix(-0.00569885 -0.999984 0.999984 -0.00568416 385.779 249.688)" stroke="#8ECDC7" stroke-width="3"/>
<path d="M95.5 178.758C95.5 182.432 92.7258 185.247 89.5 185.247C86.2742 185.247 83.5 182.432 83.5 178.758C83.5 175.083 86.2742 172.269 89.5 172.269C92.7258 172.269 95.5 175.083 95.5 178.758Z" fill="#E2F3F1" stroke="#8ECDC7" stroke-width="3"/>
<path d="M407.164 78.4196C407.146 75.1404 409.793 72.4635 413.082 72.4448C416.37 72.4261 419.048 75.0727 419.067 78.3519C419.085 81.6311 416.438 84.308 413.149 84.3267C409.861 84.3454 407.183 81.6987 407.164 78.4196Z" fill="#E2F3F1" stroke="#8ECDC7" stroke-width="3"/>
<path d="M207.05 110.376C210.523 110.365 213.344 113.168 213.354 116.632C213.364 120.095 210.561 122.915 207.088 122.925C203.614 122.936 200.794 120.133 200.784 116.669C200.773 113.206 203.577 110.386 207.05 110.376Z" fill="#E2F3F1" stroke="#8ECDC7" stroke-width="3"/>
<path d="M301.661 128.097C298.372 128.125 295.687 125.487 295.658 122.208C295.63 118.929 298.269 116.244 301.557 116.215C304.846 116.187 307.531 118.825 307.56 122.104C307.588 125.384 304.949 128.068 301.661 128.097Z" fill="#E2F3F1" stroke="#8ECDC7" stroke-width="3"/>
<path d="M233.518 59.4448C236.991 59.4344 239.812 62.2372 239.822 65.7007C239.833 69.1642 237.029 71.9838 233.556 71.9942C230.083 72.0046 227.262 69.2018 227.252 65.7383C227.241 62.2748 230.045 59.4552 233.518 59.4448Z" fill="#E2F3F1" stroke="#8ECDC7" stroke-width="3"/>
<path d="M276.549 165.935C273.261 165.964 270.575 163.325 270.547 160.046C270.518 156.767 273.157 154.082 276.446 154.053C279.735 154.025 282.42 156.663 282.449 159.943C282.477 163.222 279.838 165.906 276.549 165.935Z" fill="#E2F3F1" stroke="#8ECDC7" stroke-width="3"/>
<path d="M127 223.697C127 227.556 123.867 230.686 120 230.686C116.133 230.686 113 227.556 113 223.697C113 219.838 116.133 216.708 120 216.708C123.867 216.708 127 219.838 127 223.697Z" fill="#E2F3F1" stroke="#8ECDC7" stroke-width="2"/>
<path d="M376.607 35.4232C376.589 32.144 379.236 29.4671 382.524 29.4485C385.813 29.4298 388.491 32.0764 388.509 35.3556C388.528 38.6347 385.881 41.3116 382.592 41.3303C379.304 41.349 376.626 38.7024 376.607 35.4232Z" fill="#E2F3F1" stroke="#8ECDC7" stroke-width="3"/>
<path d="M279.771 176.651H200.107V185.395H279.771V176.651Z" fill="#334242"/>
<path d="M305.181 182.289C305.181 175.293 298.355 169.618 289.992 169.618H207.684C199.285 169.618 192.494 175.329 192.494 182.325H260.221C260.221 178.827 263.616 175.972 267.833 175.972H279.806V183.967C285.417 183.931 290.028 187.751 290.028 192.462V195.032C298.391 195.032 305.181 189.357 305.217 182.361" fill="#4ABAEB"/>
<path d="M289.993 196.603H288.099V192.462C288.099 188.679 284.418 185.574 279.879 185.574H277.985L277.913 183.967V177.543H267.835C264.69 177.543 262.152 179.684 262.152 182.325V183.932H190.637V182.325C190.637 174.437 198.286 168.012 207.721 168.012H290.029C299.214 168.012 306.755 174.152 307.113 181.79L307.184 181.861L307.113 182.433C306.863 190.392 299.286 196.567 290.065 196.567M281.738 182.468C287.563 183.218 291.959 187.394 291.959 192.427V193.283C298.356 192.498 303.324 187.894 303.36 182.325V182.218V181.647C303.074 175.972 297.213 171.189 290.029 171.189H207.721C201.038 171.189 195.498 175.329 194.569 180.719H258.543C259.436 177.114 263.26 174.366 267.835 174.366H281.702V182.504L281.738 182.468Z" fill="#010101"/>
<g clip-path="url(#clip0_956_8018)">
<path d="M376.29 248.083V213.256H392.661V233.716C392.661 241.642 385.321 248.083 376.29 248.083Z" fill="#FFC2AF"/>
<path d="M296.739 183.733C301.272 183.733 305.338 185.564 308.036 188.406C308.036 188.406 301.524 194.595 301.524 197.689L304.258 209.403H269.538C261.442 209.403 254.894 203.657 254.894 196.552V183.733H296.739Z" fill="#00B8AC"/>
<path d="M306.453 210.982H269.538C260.471 210.982 253.095 204.509 253.095 196.552V182.154H296.739C301.668 182.154 306.273 184.08 309.403 187.396L310.411 188.469L309.367 189.479C306.993 191.753 303.539 195.795 303.359 197.563L306.489 210.982H306.453ZM256.693 185.312V196.552C256.693 202.773 262.45 207.825 269.538 207.825H302.064L299.725 197.689C299.725 194.816 303.539 190.553 305.59 188.406C303.215 186.417 300.085 185.28 296.739 185.28H256.693V185.312Z" fill="#0A1D23"/>
<path d="M370.965 187.522C367.763 184.712 363.409 183.48 359.236 183.827C359.236 183.827 358.84 192.258 356.357 194.437L350.312 205.677L369.562 222.57C375.283 227.591 384.565 227.591 390.286 222.57L400.612 213.508L371.001 187.522H370.965Z" fill="#32716B"/>
<path d="M379.888 227.906C375.498 227.906 371.361 226.391 368.266 223.675L348.118 205.993L355.062 193.3C356.429 192.1 357.293 186.89 357.436 183.733L357.508 182.343L359.056 182.217C363.985 181.838 368.77 183.322 372.26 186.385L403.131 213.477L391.545 223.644C388.451 226.359 384.313 227.875 379.924 227.875L379.888 227.906ZM352.471 205.362L370.821 221.465C375.678 225.728 384.134 225.728 388.991 221.465L398.058 213.508L369.742 188.659C367.403 186.606 364.273 185.438 360.962 185.375C360.711 188.059 359.991 193.174 357.868 195.352L352.471 205.393V205.362Z" fill="#0A1D23"/>
<path d="M360.171 183.796H311.131L295.12 197.847V248.115H376.29V197.942C376.29 190.143 369.094 183.796 360.171 183.796Z" fill="#449C93"/>
<path d="M378.089 249.662H293.321V197.152L310.375 182.186H360.171C370.03 182.186 378.089 189.227 378.089 197.91V249.662ZM296.919 246.504H374.491V197.91C374.491 190.995 368.087 185.343 360.171 185.343H311.85L296.919 198.447V246.473V246.504Z" fill="#0A1D23"/>
<path d="M333.978 196.805L325.45 198.068L316.276 194.626L311.094 186.638V184.648H343.836L342.217 188.532L339.231 193.679L333.978 196.805Z" fill="white"/>
<path d="M311.094 183.796H293.932C285.045 183.796 277.813 190.111 277.813 197.942V248.115H295.083V197.847L311.094 183.796Z" fill="#61E8CF"/>
<path d="M296.918 249.662H276.05V197.91C276.05 189.258 284.074 182.186 293.968 182.186H315.484L296.954 198.447V249.63L296.918 249.662ZM279.648 246.504H293.32V197.152L306.777 185.343H293.968C286.088 185.343 279.648 190.963 279.648 197.91V246.504Z" fill="#0A1D23"/>
<path d="M327.177 194.121C320.629 194.121 315.34 189.479 315.34 183.733V167.724H339.051V183.733C339.051 189.479 333.762 194.121 327.213 194.121H327.177Z" fill="#FFC2AF"/>
<path d="M327.178 112.341C340.274 112.341 350.888 121.656 350.888 133.149V140.317H303.467V133.149C303.467 121.656 314.081 112.341 327.178 112.341ZM327.178 104.858C309.404 104.858 296.095 117.551 296.095 133.149L294.94 140.317C294.94 144.453 286.382 179.257 291.095 179.257L364.595 178.258C369.308 178.258 359.38 144.453 359.38 140.317L358.095 133.149C358.095 117.551 344.952 104.858 327.178 104.858Z" fill="#0C0C0C"/>
<path d="M327.178 133.149H303.467V143.538H327.178V133.149Z" fill="#F9B59D"/>
<path d="M327.178 112.341C314.081 112.341 303.467 121.656 303.467 133.149H350.852C350.852 121.656 340.238 112.341 327.142 112.341H327.178Z" fill="#F9B59D"/>
<path d="M326.998 116.32C315.844 116.32 306.381 122.698 303.071 131.539C307.533 131.539 311.958 130.244 315.16 127.497C318.291 124.813 322.5 123.14 326.998 123.14C331.495 123.14 335.669 124.813 338.763 127.466C341.965 130.213 346.427 131.539 350.888 131.539C347.578 122.698 338.151 116.32 326.962 116.32H326.998Z" fill="#343737"/>
<path d="M301.524 130.75H306.489L323.184 118.151L331.891 118.846L349.701 131.16H353.191L346.859 114.867L327.178 109.657L310.915 112.341L302.136 125.54L301.524 130.75Z" fill="#1C1C1C"/>
<path d="M366.288 211.203H337.18V236.905H366.288V211.203Z" fill="white"/>
<path d="M368.087 238.453H335.381V209.593H368.087V238.453ZM338.979 235.295H364.489V212.75H338.979V235.295Z" fill="#0A1D23"/>
<path d="M365.316 212.087H338.223V217.613H365.316V212.087Z" fill="#18979E"/>
<path d="M350.852 133.149C350.852 132.612 350.816 132.076 350.744 131.539C346.319 131.539 341.929 130.181 338.727 127.466C335.633 124.813 331.459 123.14 326.961 123.14C322.464 123.14 318.254 124.845 315.124 127.497C312.066 130.118 307.82 131.413 303.539 131.507C303.503 132.044 303.431 132.581 303.431 133.118V160.493C303.431 171.987 314.045 181.301 327.141 181.301C340.238 181.301 350.852 171.987 350.852 160.493V133.149Z" fill="#FFD5C6"/>
<path d="M327.177 182.88C313.109 182.88 301.668 172.839 301.668 160.493V133.149C301.668 132.549 301.704 131.981 301.776 131.413L301.884 129.992H303.503C307.604 129.865 311.31 128.602 313.901 126.392C317.535 123.298 322.176 121.561 326.998 121.561C331.819 121.561 336.388 123.266 340.022 126.329C342.721 128.634 346.571 129.929 350.78 129.96H352.435L352.579 131.413C352.615 131.981 352.687 132.549 352.687 133.118V160.493C352.687 172.839 341.246 182.88 327.177 182.88ZM305.266 132.991V160.493C305.266 171.103 315.088 179.723 327.177 179.723C339.267 179.723 349.089 171.103 349.089 160.493V133.055C344.592 132.739 340.526 131.16 337.54 128.602C331.675 123.582 322.356 123.614 316.455 128.634C313.577 131.097 309.655 132.612 305.302 132.991H305.266Z" fill="#0A1D23"/>
<path d="M327.177 170.787C322.284 170.787 318.326 167.314 318.326 163.019H321.924C321.924 165.545 324.263 167.629 327.177 167.629C330.092 167.629 332.431 165.577 332.431 163.019H336.029C336.029 167.314 332.071 170.787 327.177 170.787Z" fill="#0A1D23"/>
<path d="M330.703 174.639C330.703 176.407 329.048 177.86 327.033 177.86C325.019 177.86 323.364 176.407 323.364 174.639C323.364 172.871 325.019 171.418 327.033 171.418C329.048 171.418 330.703 172.871 330.703 174.639Z" fill="#FFC2AF"/>
<path d="M339.015 143.538C341.042 143.538 342.685 145.316 342.685 143.538C342.685 141.759 341.042 140.317 339.015 140.317C336.988 140.317 335.345 141.759 335.345 143.538C335.345 145.316 336.988 143.538 339.015 143.538Z" fill="#0A1D23"/>
<path d="M315.765 143.538C317.792 143.538 319.435 145.316 319.435 143.538C319.435 141.759 317.792 140.317 315.765 140.317C313.738 140.317 312.095 141.759 312.095 143.538C312.095 145.316 313.738 143.538 315.765 143.538Z" fill="#0A1D23"/>
<path d="M340.015 135.317C334.438 136.022 334.595 137.822 332.095 141.504C332.095 142.87 333.556 143.576 334.438 141.504C335.913 139.72 337.892 138.604 340.015 138.604C342.138 138.604 344.081 139.72 345.556 141.459C347.556 143.818 348.095 142.165 348.095 141.504C345.556 137.822 345.556 136.022 340.015 135.317Z" fill="#0A1D23"/>
<path d="M315.015 135.317C309.438 136.022 309.595 137.822 307.095 141.504C307.095 142.87 308.556 143.576 309.438 141.504C310.913 139.72 312.892 138.604 315.015 138.604C317.138 138.604 319.081 139.72 320.556 141.459C322.556 143.818 323.095 142.165 323.095 141.504C320.556 137.822 320.556 136.022 315.015 135.317Z" fill="#0A1D23"/>
<path d="M327.213 199.426C317.391 199.426 309.367 192.416 309.295 183.764H312.893C312.893 190.648 319.334 196.268 327.213 196.268C335.093 196.268 341.497 190.648 341.533 183.764H345.131C345.095 192.416 337.072 199.426 327.213 199.426Z" fill="#0A1D23"/>
<ellipse cx="313.595" cy="153.292" rx="4.5" ry="3.49527" fill="#FFB7B7"/>
<ellipse cx="340.595" cy="153.292" rx="4.5" ry="3.49527" fill="#FFB7B7"/>
<path d="M328.417 147.5V152C325.084 152.833 320.417 155.5 328.417 159.5" stroke="black" stroke-width="3" stroke-linecap="square"/>
</g>
<path d="M194.138 178.256H113.224V196.139H194.138V178.256Z" fill="#334242"/>
<path d="M293.209 248.43V213.379H310.471V233.974C310.471 241.969 302.752 248.43 293.209 248.43Z" fill="#DF9A85"/>
<path d="M209.292 183.61C214.081 183.61 218.37 185.43 221.193 188.322C221.193 188.322 214.331 194.568 214.331 197.673L217.226 209.452H180.593C172.052 209.452 165.154 203.67 165.154 196.495V183.574H209.292V183.61Z" fill="#0AB6AB"/>
<path d="M219.55 211.059H180.594C171.016 211.059 163.26 204.527 163.26 196.531V182.04H209.293C214.475 182.04 219.372 183.968 222.66 187.323L223.732 188.393L222.624 189.428C220.122 191.713 216.441 195.782 216.262 197.567L219.586 211.059H219.55ZM167.013 185.217V196.531C167.013 202.778 173.089 207.882 180.558 207.882H214.868L212.402 197.674C212.402 194.782 216.405 190.464 218.585 188.322C216.083 186.323 212.76 185.181 209.257 185.181H167.013V185.217Z" fill="#0C1D23"/>
<path d="M287.6 187.429C284.205 184.574 279.63 183.36 275.199 183.717C275.199 183.717 274.77 192.177 272.161 194.39L265.763 205.704L286.063 222.694C292.103 227.763 301.896 227.763 307.9 222.694L318.801 213.557L287.564 187.394L287.6 187.429Z" fill="#18969C"/>
<path d="M296.999 228.085C292.352 228.085 287.992 226.585 284.74 223.837L263.475 206.026L270.801 193.248C272.231 192.034 273.16 186.787 273.303 183.61L273.375 182.219L275.019 182.076C280.201 181.683 285.276 183.182 288.921 186.252L321.48 213.522L309.257 223.766C305.969 226.514 301.609 228.013 296.999 228.013M268.049 205.276L287.42 221.481C292.531 225.765 301.466 225.765 306.577 221.481L316.119 213.486L286.241 188.465C283.775 186.395 280.487 185.217 276.984 185.145C276.734 187.858 275.984 192.998 273.732 195.175L268.049 205.276Z" fill="#0C1D23"/>
<path d="M276.198 183.646H224.447L207.578 197.781V248.394H293.21V197.888C293.21 190.035 285.597 183.646 276.198 183.646Z" fill="#0AB6AB"/>
<path d="M295.104 250H205.684V197.138L223.661 182.075H276.198C286.598 182.075 295.104 189.178 295.104 197.887V250ZM209.472 246.823H291.316V197.887C291.316 190.927 284.525 185.252 276.234 185.252H225.269L209.508 198.459V246.823H209.472Z" fill="#0C1D23"/>
<path d="M248.57 196.782L239.563 198.031L229.878 194.604L224.446 186.538V184.539H258.97L257.254 188.465L254.145 193.605L248.57 196.782Z" fill="white"/>
<path d="M224.448 183.646H206.328C196.928 183.646 189.316 190.035 189.316 197.888V248.394H207.543V197.781L224.412 183.646H224.448Z" fill="#7ECBBF"/>
<path d="M209.471 250H187.455V197.887C187.455 189.178 195.925 182.075 206.361 182.075H229.056L209.507 198.459V250H209.471ZM191.243 246.823H205.682V197.138L219.871 185.252H206.361C198.034 185.252 191.243 190.927 191.243 197.887V246.823Z" fill="#0C1D23"/>
<path d="M241.388 194.069C234.49 194.069 228.879 189.393 228.879 183.611V167.477H253.897V183.611C253.897 189.393 248.285 194.069 241.388 194.069Z" fill="#DF9A85"/>
<path d="M241.386 111.724C255.182 111.724 266.404 121.112 266.404 132.676V139.886H216.405V132.676C216.405 121.112 227.591 111.724 241.422 111.724M241.422 104.193C222.659 104.193 207.434 116.971 207.434 132.676V139.886C207.434 144.027 211.472 147.418 216.44 147.418H266.44C271.408 147.418 275.446 144.027 275.446 139.886V132.676C275.446 116.971 260.185 104.193 241.458 104.193" fill="#334242"/>
<path d="M241.423 132.64H216.406V143.098H241.423V132.64Z" fill="#F9B49C"/>
<path d="M241.388 111.724C227.593 111.724 216.371 121.111 216.371 132.676H266.37C266.37 121.111 255.184 111.724 241.353 111.724" fill="#F9B49C"/>
<path d="M241.208 115.721C229.414 115.721 219.443 122.146 215.976 131.069C220.658 131.069 225.34 129.748 228.699 127C231.987 124.323 236.419 122.61 241.208 122.61C245.997 122.61 250.322 124.287 253.61 126.964C257.005 129.713 261.687 131.069 266.405 131.069C262.938 122.182 252.966 115.721 241.172 115.721" fill="#334242"/>
<path d="M214.331 130.248H219.584L237.168 117.541L246.354 118.255L265.188 130.641H268.834L262.186 114.257L241.386 109.011L224.266 111.723L214.974 125.001L214.331 130.248Z" fill="#334242"/>
<path d="M220.515 221.552C222.66 221.552 224.411 220.089 224.411 218.304C224.411 216.52 222.66 215.056 220.515 215.056C218.371 215.056 216.62 216.52 216.62 218.304C216.62 220.089 218.371 221.552 220.515 221.552Z" fill="#18969C"/>
<path d="M220.517 225.3C225.127 225.3 228.88 222.159 228.88 218.268C228.88 214.378 225.127 211.237 220.517 211.237C215.906 211.237 212.118 214.378 212.118 218.268C212.118 222.159 215.87 225.3 220.517 225.3ZM220.517 215.02C222.661 215.02 224.412 216.484 224.412 218.268C224.412 220.053 222.661 221.516 220.517 221.516C218.372 221.516 216.621 220.053 216.621 218.268C216.621 216.484 218.372 215.02 220.517 215.02Z" fill="white"/>
<path d="M282.666 211.273H251.965V237.151H282.666V211.273Z" fill="white"/>
<path d="M284.596 238.721H250.072V209.667H284.596V238.721ZM253.896 235.544H280.808V212.843H253.896V235.544Z" fill="#0C1D23"/>
<path d="M281.668 212.165H253.076V217.733H281.668V212.165Z" fill="#18969C"/>
<path d="M266.406 132.641C266.406 132.105 266.37 131.57 266.299 131.034C261.617 131.034 256.971 129.678 253.611 126.93C250.323 124.253 245.963 122.575 241.21 122.575C236.456 122.575 232.025 124.288 228.701 126.965C225.448 129.607 220.981 130.927 216.478 130.999C216.442 131.534 216.371 132.07 216.371 132.641V160.196C216.371 171.761 227.557 181.148 241.388 181.148C255.219 181.148 266.406 171.761 266.406 160.196V132.641Z" fill="#F9B49C"/>
<path d="M242 147.5V152C238.667 152.833 234 155.5 242 159.5" stroke="black" stroke-width="3" stroke-linecap="square"/>
<path d="M241.387 182.754C226.555 182.754 214.475 172.652 214.475 160.231V132.676C214.475 132.069 214.511 131.498 214.582 130.927L214.725 129.499H216.44C220.765 129.356 224.661 128.107 227.413 125.858C231.237 122.717 236.169 121.004 241.244 121.004C246.319 121.004 251.179 122.717 254.968 125.823C257.827 128.143 261.866 129.428 266.333 129.463H268.084L268.227 130.927C268.263 131.498 268.334 132.069 268.334 132.676V160.231C268.334 172.652 256.255 182.754 241.423 182.754M218.299 132.533V160.231C218.299 170.903 228.664 179.577 241.423 179.577C254.182 179.577 264.51 170.903 264.51 160.231V132.569C259.757 132.247 255.504 130.677 252.323 128.071C246.14 123.003 236.276 123.039 230.057 128.107C227.02 130.57 222.909 132.105 218.299 132.497" fill="#0C1D23"/>
<path d="M241.386 170.582C236.24 170.582 232.058 167.085 232.058 162.766H235.847C235.847 165.336 238.313 167.406 241.386 167.406C244.46 167.406 246.926 165.336 246.926 162.766H250.714C250.714 167.085 246.533 170.582 241.386 170.582Z" fill="#0C1D23"/>
<path d="M245.104 174.473C245.104 176.257 243.353 177.721 241.208 177.721C239.064 177.721 237.312 176.257 237.312 174.473C237.312 172.688 239.064 171.225 241.208 171.225C243.353 171.225 245.104 172.688 245.104 174.473Z" fill="#DF9A85"/>
<path d="M228.878 139.886C226.734 139.886 224.982 141.35 224.982 143.134C224.982 144.919 226.734 146.382 228.878 146.382C231.023 146.382 232.774 144.919 232.774 143.134C232.774 141.35 231.023 139.886 228.878 139.886Z" fill="#0C1D23"/>
<path d="M253.896 139.886C251.751 139.886 250 141.35 250 143.134C250 144.919 251.751 146.382 253.896 146.382C256.04 146.382 257.791 144.919 257.791 143.134C257.791 141.35 256.04 139.886 253.896 139.886Z" fill="#0C1D23"/>
<path d="M228.879 132.64C223.34 132.64 218.658 135.674 217.014 139.85C219.23 139.85 221.446 139.208 223.018 137.923C224.555 136.673 226.628 135.852 228.879 135.852C231.131 135.852 233.204 136.673 234.776 137.923C236.349 139.208 238.565 139.85 240.781 139.85C239.137 135.674 234.455 132.64 228.915 132.64" fill="#0C1D23"/>
<path d="M253.895 132.64C248.355 132.64 243.638 135.674 242.03 139.85C244.245 139.85 246.425 139.243 248.034 137.922C249.571 136.673 251.679 135.852 253.931 135.852C256.182 135.852 258.22 136.637 259.756 137.887C261.365 139.172 263.545 139.814 265.796 139.814C264.152 135.638 259.471 132.604 253.931 132.604" fill="#0C1D23"/>
<g style="mix-blend-mode:overlay">
<mask id="mask0_956_8018" style="mask-type:luminance" maskUnits="userSpaceOnUse" x="219" y="135" width="19" height="16">
<path d="M237.955 135.388H219.478V150.879H237.955V135.388Z" fill="white"/>
</mask>
<g mask="url(#mask0_956_8018)">
<path d="M237.957 143.134C237.957 147.417 233.811 150.88 228.7 150.88C223.59 150.88 219.444 147.417 219.444 143.134C219.444 138.851 223.59 135.389 228.7 135.389C233.811 135.389 237.957 138.851 237.957 143.134Z" fill="#7ECBBF"/>
</g>
</g>
<g style="mix-blend-mode:overlay">
<mask id="mask1_956_8018" style="mask-type:luminance" maskUnits="userSpaceOnUse" x="244" y="135" width="20" height="16">
<path d="M263.01 135.388H244.497V150.879H263.01V135.388Z" fill="white"/>
</mask>
<g mask="url(#mask1_956_8018)">
<path d="M262.977 143.134C262.977 147.417 258.831 150.88 253.72 150.88C248.61 150.88 244.464 147.417 244.464 143.134C244.464 138.851 248.61 135.389 253.72 135.389C258.831 135.389 262.977 138.851 262.977 143.134Z" fill="#7ECBBF"/>
</g>
</g>
<path d="M267.692 142.278H264.082C263.546 137.959 259.222 134.532 253.933 134.532C248.643 134.532 244.283 137.959 243.782 142.278H239.101C238.564 137.959 234.24 134.532 228.915 134.532C223.59 134.532 219.265 137.959 218.765 142.278H216.013V143.991H218.765C219.301 148.31 223.625 151.736 228.915 151.736C234.204 151.736 238.564 148.31 239.101 143.991H243.782C244.318 148.31 248.643 151.736 253.933 151.736C259.222 151.736 263.582 148.31 264.082 143.991H267.692V142.278ZM228.915 150.023C224.376 150.023 220.695 146.918 220.695 143.134C220.695 139.351 224.376 136.245 228.915 136.245C233.454 136.245 237.135 139.351 237.135 143.134C237.135 146.918 233.454 150.023 228.915 150.023ZM253.933 150.023C249.394 150.023 245.712 146.918 245.712 143.134C245.712 139.351 249.394 136.245 253.933 136.245C258.471 136.245 262.153 139.351 262.153 143.134C262.153 146.918 258.471 150.023 253.933 150.023Z" fill="#0C1D23"/>
<path d="M241.46 199.423C231.095 199.423 222.625 192.356 222.554 183.646H226.342C226.378 190.571 233.133 196.246 241.424 196.246C249.716 196.246 256.471 190.607 256.506 183.646H260.295C260.259 192.356 251.789 199.423 241.389 199.423" fill="#0C1D23"/>
<path d="M179.665 202.813H122.732V248.251H179.665V202.813Z" fill="#334242"/>
<path d="M179.665 243.504H122.732V248.251H179.665V243.504Z" fill="#355A60"/>
<path d="M179.665 234.01H122.732V238.757H179.665V234.01Z" fill="#355A60"/>
<path d="M179.665 224.551H122.732V229.298H179.665V224.551Z" fill="#355A60"/>
<path d="M179.665 215.056H122.732V219.803H179.665V215.056Z" fill="#355A60"/>
<path d="M179.665 205.598H122.732V210.345H179.665V205.598Z" fill="#355A60"/>
<path d="M153.076 148.488H149.287V168.833H153.076V148.488Z" fill="#010101"/>
<path d="M113.082 182.79H105.934V249.501H113.082V182.79Z" fill="#334242"/>
<path d="M181.558 249.821H120.836V201.207H181.558V249.821ZM124.625 246.645H177.769V204.383H124.625V246.645Z" fill="#010101"/>
<path d="M151.324 98.3389C163.225 98.3389 173.733 93.3417 180.059 85.739C173.089 78.9572 162.796 74.6027 151.253 74.6027C139.709 74.6027 129.487 78.9215 122.518 85.6675C128.844 93.3059 139.387 98.3389 151.324 98.3389Z" fill="#4ABAEB"/>
<path d="M178.843 128.357C177.806 129.071 176.806 129.713 176.269 130.07C173.375 130.927 169.908 130.57 167.335 128.357L164.297 125.751C162.689 124.359 160.794 123.324 158.829 122.575C156.434 121.682 153.897 121.147 151.323 121.147H151.18C148.607 121.147 146.07 121.647 143.675 122.575C141.709 123.324 139.815 124.359 138.207 125.751L135.169 128.357C134.133 129.249 132.917 129.856 131.667 130.177C129.88 130.641 127.985 130.57 126.27 130.07C125.77 129.713 124.733 129.035 123.661 128.321C122.482 127.536 121.266 126.679 120.587 126.215V141.028C121.552 142.099 122.589 143.098 123.661 144.098C130.594 150.201 140.351 154.056 151.252 154.056C162.152 154.056 171.874 150.201 178.807 144.098C179.915 143.134 180.951 142.099 181.881 141.028V126.287C181.059 126.822 179.915 127.607 178.807 128.357M130.809 140.171C129.022 140.171 127.592 138.958 127.592 137.459C127.592 135.96 129.022 134.746 130.809 134.746C132.596 134.746 134.025 135.96 134.025 137.459C134.025 138.958 132.596 140.171 130.809 140.171ZM171.838 140.171C170.051 140.171 168.621 138.958 168.621 137.459C168.621 135.96 170.051 134.746 171.838 134.746C173.625 134.746 175.054 135.96 175.054 137.459C175.054 138.958 173.625 140.171 171.838 140.171Z" fill="#4ABAEB"/>
<path d="M177.807 109.975C173.375 108.44 168.514 109.297 165.155 112.188L162.117 114.794C159.258 117.256 155.398 118.613 151.288 118.613C147.178 118.613 143.318 117.256 140.459 114.794L137.421 112.188C134.061 109.297 129.201 108.476 124.769 109.975C120.338 111.51 117.55 114.936 117.55 118.97V136.924C118.443 138.351 119.48 139.743 120.623 141.064V119.005C120.623 112.616 129.88 109.475 135.205 114.044L138.243 116.65C141.817 119.684 146.499 121.218 151.216 121.254H151.36C156.077 121.254 160.759 119.719 164.333 116.65L167.371 114.044C172.696 109.475 181.953 112.616 181.953 119.005V141.064C183.096 139.743 184.133 138.387 185.026 136.924V118.97C185.026 114.936 182.274 111.51 177.807 109.975Z" fill="#010101"/>
<path d="M183.881 90.058C183.309 89.2727 182.701 88.4874 182.058 87.7378C175.124 95.6974 163.938 100.909 151.25 100.909C138.563 100.909 127.376 95.6974 120.443 87.7378C119.8 88.4517 119.228 89.2012 118.692 89.9865C115.189 94.8051 113.152 100.445 113.152 106.513V122.146C113.152 127.5 114.76 132.497 117.512 136.923V118.97C117.512 114.936 120.264 111.51 124.732 109.975C129.199 108.44 134.024 109.297 137.383 112.188L140.421 114.793C143.281 117.256 147.14 118.613 151.25 118.613C155.36 118.613 159.22 117.256 162.08 114.793L165.117 112.188C168.477 109.297 173.338 108.476 177.769 109.975C182.201 111.474 184.989 114.936 184.989 118.97V136.923C187.776 132.497 189.349 127.5 189.349 122.146V106.513C189.349 100.48 187.312 94.8766 183.845 90.0937" fill="#8FD7F7"/>
<path d="M151.251 100.909C163.903 100.909 175.125 95.6976 182.023 87.738C181.415 87.0241 180.736 86.3816 180.057 85.7034C173.731 93.3061 163.224 98.3033 151.322 98.3033C139.421 98.3033 128.842 93.2705 122.516 85.5964C121.802 86.2746 121.087 86.9527 120.443 87.7022C127.377 95.6619 138.563 100.873 151.251 100.873" fill="#010101"/>
<path d="M130.845 117.721C127.7 117.721 125.162 119.862 125.162 122.468H128.236C128.236 121.254 129.416 120.291 130.845 120.291C132.275 120.291 133.454 121.254 133.454 122.468H136.528C136.528 119.827 133.991 117.721 130.845 117.721Z" fill="white"/>
<path d="M171.838 117.721C168.693 117.721 166.156 119.862 166.156 122.468H169.229C169.229 121.254 170.409 120.291 171.838 120.291C173.268 120.291 174.447 121.254 174.447 122.468H177.521C177.521 119.827 174.984 117.721 171.838 117.721Z" fill="white"/>
<path d="M135.204 113.973C129.879 109.404 120.623 112.581 120.623 118.934V126.216C121.302 126.68 122.553 127.501 123.696 128.322C124.769 129.035 125.769 129.714 126.305 130.07C128.021 130.57 129.915 130.677 131.702 130.178C132.953 129.856 134.168 129.25 135.204 128.357L138.242 125.752C139.851 124.36 141.745 123.324 143.71 122.575C146.105 121.683 148.642 121.183 151.216 121.147C146.498 121.147 141.816 119.612 138.242 116.543L135.204 113.937V113.973ZM133.453 122.468C133.453 121.254 132.274 120.29 130.844 120.29C129.415 120.29 128.235 121.254 128.235 122.468H125.162C125.162 119.826 127.699 117.721 130.844 117.721C133.989 117.721 136.527 119.862 136.527 122.468H133.453Z" fill="#334242"/>
<path d="M167.334 113.972L164.297 116.578C160.759 119.612 156.041 121.147 151.323 121.182C153.896 121.182 156.434 121.682 158.828 122.61C160.794 123.36 162.688 124.395 164.297 125.787L167.334 128.392C169.908 130.605 173.339 130.962 176.269 130.106C176.805 129.713 177.806 129.071 178.843 128.392C179.951 127.643 181.13 126.858 181.916 126.322V119.005C181.916 112.616 172.66 109.475 167.334 114.044M174.447 122.539C174.447 121.325 173.267 120.361 171.838 120.361C170.408 120.361 169.229 121.325 169.229 122.539H166.155C166.155 119.897 168.693 117.791 171.838 117.791C174.983 117.791 177.52 119.933 177.52 122.539H174.447Z" fill="#334242"/>
<path d="M130.845 134.781C129.058 134.781 127.628 135.995 127.628 137.494C127.628 138.993 129.058 140.207 130.845 140.207C132.632 140.207 134.061 138.993 134.061 137.494C134.061 135.995 132.632 134.781 130.845 134.781Z" fill="#334242"/>
<path d="M171.837 134.781C170.05 134.781 168.621 135.995 168.621 137.494C168.621 138.993 170.05 140.207 171.837 140.207C173.624 140.207 175.054 138.993 175.054 137.494C175.054 135.995 173.624 134.781 171.837 134.781Z" fill="#334242"/>
<path d="M151.181 155.627C140.138 155.627 129.881 151.915 122.232 145.169C121.017 144.098 119.945 143.027 118.98 141.956C117.801 140.6 116.693 139.136 115.728 137.637C112.69 132.783 111.153 127.572 111.153 122.111V106.477C111.153 100.373 113.155 94.3769 116.979 89.1299C117.55 88.309 118.158 87.5236 118.837 86.774C119.48 86.0602 120.159 85.3464 120.874 84.6682C128.63 77.1726 139.638 72.9607 151.146 72.9607C162.654 72.9607 173.733 77.2083 181.381 84.6682L181.631 84.9181C182.275 85.5249 182.882 86.1673 183.454 86.8098C184.133 87.595 184.777 88.4159 185.384 89.2369C189.173 94.4838 191.138 100.445 191.138 106.513V122.146C191.138 127.607 189.601 132.819 186.563 137.673C185.598 139.172 184.526 140.636 183.311 141.992C182.382 143.063 181.31 144.098 180.059 145.204C172.411 151.95 162.153 155.663 151.11 155.663M151.11 76.2089C140.674 76.2089 130.738 80.0282 123.805 86.7385C123.054 87.4524 122.411 88.0949 121.839 88.7373C121.232 89.4155 120.696 90.1293 120.16 90.8789C116.693 95.6261 114.87 101.052 114.87 106.584V122.218C114.87 127.144 116.264 131.891 119.016 136.245C119.874 137.637 120.874 138.958 121.946 140.171C122.804 141.135 123.769 142.099 124.877 143.063C131.81 149.166 141.103 152.522 151.074 152.522C161.045 152.522 170.338 149.166 177.271 143.063C178.415 142.063 179.38 141.1 180.202 140.171C181.274 138.958 182.275 137.637 183.133 136.245C185.885 131.855 187.278 127.144 187.278 122.218V106.584C187.278 101.087 185.491 95.6976 182.06 90.9861C181.524 90.2365 180.952 89.4867 180.309 88.7729C179.809 88.1661 179.237 87.6308 178.665 87.0954L178.415 86.8455C171.517 80.1351 161.51 76.2802 151.038 76.2802" fill="#010101"/>
<path d="M125.126 178.185H120.73V188.964C120.73 192.426 117.37 195.246 113.189 195.246V231.832H121.981C126.627 231.832 130.737 229.94 133.381 227.085V175.115C131.309 176.971 128.378 178.185 125.09 178.185" fill="#4ABAEB"/>
<path d="M151.325 185.502C145.177 185.502 139.709 182.896 136.493 178.898V219.268C136.779 212.95 142.318 207.417 149.859 206.811C158.401 206.132 165.621 211.522 166.157 218.447V178.934C162.94 182.896 157.472 185.537 151.325 185.537" fill="#4ABAEB"/>
<path d="M151.325 182.897C159.509 182.897 166.157 177.328 166.157 170.475V162.944H136.493V170.475C136.493 177.328 143.14 182.897 151.325 182.897Z" fill="#4ABAEB"/>
<path d="M181.917 188.964V178.185H177.521C174.233 178.185 171.302 177.007 169.229 175.115V227.085C171.874 229.976 175.984 231.832 180.63 231.832H189.422V195.246C185.276 195.246 181.917 192.426 181.917 188.964Z" fill="#4ABAEB"/>
<path d="M166.227 168.69V162.944H166.191V170.475C166.191 177.328 159.544 182.897 151.359 182.897C143.175 182.897 136.527 177.328 136.527 170.475V162.944H136.492V168.69C136.492 171.189 135.312 173.402 133.454 175.115V227.085C135.312 225.05 136.492 222.516 136.492 219.732C136.492 219.554 136.527 219.411 136.527 219.268V178.899C139.744 182.861 145.176 185.502 151.359 185.502C157.542 185.502 162.975 182.896 166.191 178.899V218.411C166.191 218.661 166.227 218.947 166.227 219.197V219.732C166.227 222.516 167.371 225.05 169.265 227.085V175.115C167.407 173.438 166.227 171.189 166.227 168.69Z" fill="#010101"/>
<path d="M191.209 233.439H180.523C175.448 233.439 170.73 231.475 167.621 228.049C165.37 225.622 164.19 222.73 164.19 219.732V219.197C164.19 219.197 164.19 218.876 164.19 218.733C163.725 212.415 157.328 207.775 149.966 208.382C143.568 208.881 138.565 213.593 138.315 219.304V219.661C138.279 222.695 137.064 225.586 134.848 228.013C131.703 231.44 126.985 233.403 121.946 233.403H111.26V193.64H113.154C116.263 193.64 118.765 191.535 118.765 188.929V176.543H125.055C127.7 176.543 130.13 175.651 131.953 174.009C133.597 172.545 134.49 170.618 134.49 168.655V161.302H167.978V168.655C168.014 170.618 168.908 172.51 170.552 174.009C172.375 175.651 174.805 176.579 177.449 176.579H183.74V188.964C183.74 191.57 186.277 193.676 189.351 193.676H191.245V233.439H191.209ZM151.217 205.169C160.044 205.169 167.407 210.952 167.943 218.34C167.943 218.769 167.978 218.983 167.978 219.233V219.768C167.978 222.052 168.872 224.265 170.623 226.157C173.054 228.798 176.663 230.297 180.523 230.297H187.421V196.746C183.132 195.996 179.916 192.819 179.916 189V179.827H177.414C173.733 179.827 170.266 178.542 167.728 176.258C165.441 174.187 164.19 171.51 164.19 168.762V164.586H138.243V168.762C138.243 171.546 136.992 174.187 134.705 176.258C132.167 178.542 128.737 179.827 125.02 179.827H122.518V189C122.518 192.819 119.301 195.996 115.013 196.746V230.297H121.91C125.806 230.297 129.415 228.798 131.81 226.157C133.526 224.265 134.455 222.088 134.455 219.768V219.34C134.812 211.951 141.317 205.919 149.573 205.276C150.145 205.241 150.68 205.205 151.217 205.205" fill="#010101"/>
<path d="M129.593 206.347C129.593 208.953 127.055 211.094 123.946 211.094C120.836 211.094 118.299 208.988 118.299 206.347C118.299 203.706 120.836 201.6 123.946 201.6C127.055 201.6 129.593 203.706 129.593 206.347Z" fill="#334242"/>
<path d="M97.8921 187.822V241.862C97.8921 245.36 101.288 248.215 105.505 248.215V238.185C105.505 234.687 108.901 231.832 113.082 231.832V175.115C104.683 175.115 97.8921 180.826 97.8921 187.857" fill="#4ABAEB"/>
<path d="M107.401 249.822H105.507C100.289 249.822 96 246.253 96 241.862V187.822C96 179.934 103.684 173.51 113.083 173.51H114.978V233.403H113.083C109.938 233.403 107.401 235.545 107.401 238.186V249.822ZM111.189 176.829C104.756 177.614 99.7884 182.254 99.7884 187.858V241.898C99.7884 243.968 101.361 245.753 103.577 246.395V238.222C103.577 234.367 106.829 231.154 111.154 230.44V176.865L111.189 176.829Z" fill="#010101"/>
<defs>
<clipPath id="clip0_956_8018">
<rect width="150" height="144.804" fill="white" transform="translate(253.095 104.858)"/>
</clipPath>
</defs>
</svg>
