<?xml version="1.0" encoding="UTF-8"?>
<svg id="Layer_1" data-name="Layer 1" xmlns="http://www.w3.org/2000/svg" xmlns:xlink="http://www.w3.org/1999/xlink" viewBox="0 0 700 400">
  <defs>
    <style>
      .cls-1 {
        clip-path: url(#clippath);
      }

      .cls-2, .cls-3 {
        fill: none;
      }

      .cls-2, .cls-3, .cls-4, .cls-5, .cls-6, .cls-7, .cls-8, .cls-9, .cls-10, .cls-11, .cls-12, .cls-13, .cls-14, .cls-15, .cls-16, .cls-17, .cls-18 {
        stroke-width: 0px;
      }

      .cls-19 {
        clip-path: url(#clippath-1);
      }

      .cls-20 {
        clip-path: url(#clippath-4);
      }

      .cls-21 {
        clip-path: url(#clippath-3);
      }

      .cls-22 {
        clip-path: url(#clippath-2);
      }

      .cls-23 {
        clip-path: url(#clippath-7);
      }

      .cls-24 {
        clip-path: url(#clippath-8);
      }

      .cls-25 {
        clip-path: url(#clippath-6);
      }

      .cls-26 {
        clip-path: url(#clippath-5);
      }

      .cls-3 {
        clip-rule: evenodd;
      }

      .cls-4 {
        fill-rule: evenodd;
      }

      .cls-4, .cls-11 {
        fill: #ac635b;
      }

      .cls-6 {
        fill: #263238;
      }

      .cls-7 {
        fill: #38474f;
      }

      .cls-8 {
        fill: #0ab6ab;
      }

      .cls-9 {
        fill: #157177;
      }

      .cls-10 {
        fill: #dbdbdb;
      }

      .cls-12 {
        fill: #a6cce4;
      }

      .cls-13 {
        fill: #90b9d1;
      }

      .cls-14 {
        fill: #824645;
      }

      .cls-15 {
        fill: #fff;
      }

      .cls-16 {
        fill: #ffd2d2;
      }

      .cls-17 {
        fill: #ebebeb;
      }

      .cls-18 {
        fill: #f1d0de;
      }
    </style>
    <clipPath id="clippath">
      <rect class="cls-2" width="700" height="400"/>
    </clipPath>
    <clipPath id="clippath-1">
      <path class="cls-3" d="M365.56,392.95s-.09-73.14,1.5-98.68c2.05-32.95,5.43-69.22,5.43-69.22l30.92-2.36c-8.93,31.5-14.19,171.77-14.19,171.77l-23.65-1.5h0Z"/>
    </clipPath>
    <clipPath id="clippath-2">
      <polygon class="cls-3" points="388.84 162.76 419.19 171.74 429.2 188.43 368.84 205.49 362.33 185.62 388.84 162.76"/>
    </clipPath>
    <clipPath id="clippath-3">
      <polygon class="cls-3" points="362.12 185.62 357.91 194.56 362.16 225.05 385.56 203.68 362.12 185.62"/>
    </clipPath>
    <clipPath id="clippath-4">
      <path class="cls-3" d="M414.12,203.19c0,10.55-28.54,28.83-28.54,28.83,0,0-11.13-14.24-13.08-25.18l-8.89-45.04,46.61-19.32,3.85,59.3c.03.46.06.92.06,1.37v.03Z"/>
    </clipPath>
    <clipPath id="clippath-5">
      <path class="cls-3" d="M328.79,168.01c5.87,11,16.02,20.17,28.21,22.68,16.88,3.52,34.17-6.26,44.87-19.78,6.11-7.7,10.37-16.97,12.43-26.56,4.55-20.85-1.25-43.36-20.9-55.4-13.44-8.25-37.07-9.62-53.36-1.72-6.39,3.08-11.67,7.58-14.74,13.67-9.77,19.35-6.44,48.56,3.49,67.12h0Z"/>
    </clipPath>
    <clipPath id="clippath-6">
      <path class="cls-3" d="M415.5,124.63c5.08-2.78,12.02-3.3,16.68.13,3.86,2.85,5.34,7.73,5.56,12.32.3,5.92-1.16,12.01-4.76,16.87-3.6,4.86-9.47,8.37-15.8,8.74s-12.93-2.69-15.89-7.95c-5.68-10.08,5.08-25.1,14.22-30.11h-.01Z"/>
    </clipPath>
    <clipPath id="clippath-7">
      <polygon class="cls-3" points="414.09 181.58 394.22 205.45 412.49 225.6 429.2 188.43 414.09 181.58"/>
    </clipPath>
    <clipPath id="clippath-8">
      <polygon class="cls-3" points="357.91 194.56 375.63 231.47 384.93 254.11 409.26 217.38 394.22 205.44 396.44 220.8 385.59 227.49 373.12 209.38 357.91 194.56"/>
    </clipPath>
  </defs>
  <g class="cls-1">
    <ellipse class="cls-18" cx="369.29" cy="225.16" rx="196.22" ry="124.56" transform="translate(-54 314.05) rotate(-43.23)"/>
    <path class="cls-6" d="M335.26,391.03c-6.14,28.31-10.94,43.33-18.42,93.56l154.53-.21c-.4-52.21-7.48-85.2-7.48-85.2l-128.64-8.16Z"/>
    <path class="cls-5" d="M470.18,391.1c5-43.94,12.81-92.32,13.91-130.79.55-19.24-.57-36.28-4.67-49.21-4.12-12.98-11.4-22.23-23.38-24.95l-1.03,4.55c9.75,2.21,16.12,9.7,19.96,21.81,3.86,12.16,4.99,28.56,4.45,47.66-1.09,38.21-8.83,86.1-13.88,130.4l4.64.53ZM324.08,388.98l143.71,4.19.14-4.67-143.71-4.19-.14,4.67ZM315.69,223.69c-2.94,1.94-4.63,5.68-5.66,9.99-1.05,4.43-1.52,10.02-1.6,16.37-.15,12.72,1.29,28.93,3.25,45.89,1.97,16.96,4.49,34.86,6.52,50.85,2.03,16.06,3.56,30.19,3.6,39.85l4.67-.02c-.04-9.99-1.61-24.39-3.64-40.41-2.04-16.1-4.54-33.86-6.51-50.8-1.97-16.94-3.37-32.9-3.22-45.3.07-6.21.54-11.41,1.47-15.35.96-4.05,2.3-6.26,3.68-7.17l-2.57-3.9ZM387.13,200.17q-.6-2.26-.6-2.26s0,0,0,0c0,0,0,0,0,0,0,0-.02,0-.03,0-.03,0-.06.02-.12.03-.1.03-.25.07-.45.12-.39.11-.97.26-1.72.47-1.49.41-3.63,1-6.25,1.76-5.24,1.5-12.41,3.62-20.13,6.1-15.31,4.92-33.17,11.38-42.14,17.29l2.57,3.9c8.34-5.5,25.56-11.78,41-16.74,7.66-2.46,14.78-4.57,19.99-6.06,2.6-.75,4.73-1.34,6.2-1.74.74-.2,1.31-.36,1.7-.46.19-.05.34-.09.44-.12.05-.01.09-.02.11-.03.01,0,.02,0,.03,0,0,0,0,0,0,0,0,0,0,0,0,0t-.6-2.26ZM456.04,186.15c-13.45-3.06-31.04.03-44.95,3.7-7.02,1.85-13.22,3.89-17.66,5.46-2.22.79-4.01,1.46-5.25,1.93-.62.24-1.1.43-1.42.56-.16.07-.29.12-.37.15-.04.02-.08.03-.1.04-.01,0-.02,0-.03.01,0,0,0,0,0,0,0,0,0,0,0,0t.89,2.16q.89,2.16.89,2.16s0,0,0,0c0,0,0,0,0,0,0,0,.01,0,.02,0,.02,0,.05-.02.09-.04.08-.03.2-.08.35-.14.31-.12.77-.31,1.37-.54,1.2-.46,2.95-1.12,5.12-1.89,4.36-1.54,10.43-3.54,17.3-5.35,13.85-3.66,30.46-6.45,42.72-3.66l1.03-4.55ZM467.86,390.83l-.07,2.33,2.15.06.24-2.13-2.32-.26ZM324.14,386.64h-2.34s0,2.27,0,2.27l2.26.07.07-2.33ZM387.13,200.17l.6,2.26.15-.04.14-.06-.89-2.16ZM455.52,188.43l-.52,2.28.52-2.28Z"/>
    <path class="cls-15" d="M455.52,188.43c-25.71-5.84-68.39,11.74-68.39,11.74,0,0-52.84,14.06-70.15,25.48-17.32,11.41,7.02,121.7,7.16,161l143.71,4.19c10.05-88.24,31.11-192.54-12.34-202.41Z"/>
    <path class="cls-8" d="M365.56,392.95s-.09-73.14,1.5-98.68c2.05-32.95,5.43-69.22,5.43-69.22l30.92-2.36c-8.93,31.5-14.19,171.77-14.19,171.77l-23.65-1.5h0Z"/>
    <g class="cls-19">
      <path class="cls-5" d="M367.89,392.96h0s-4.67-.01-4.67-.01h0s4.67.01,4.67.01ZM389.35,392.13l-23.65-1.5-.3,4.66,23.65,1.5.3-4.66ZM401.15,222.05c-2.3,8.1-4.32,22.98-6.06,40.53-1.75,17.62-3.25,38.14-4.47,57.66-1.22,19.52-2.15,38.05-2.79,51.7-.32,6.83-.56,12.43-.72,16.33-.08,1.95-.14,3.47-.18,4.51-.02.52-.04.91-.05,1.18,0,.13,0,.23-.01.3,0,.03,0,.06,0,.08,0,0,0,.02,0,.02,0,0,0,0,0,0t2.33.09q2.33.09,2.33.09s0,0,0,0c0,0,0-.01,0-.02,0-.02,0-.04,0-.08,0-.07,0-.17.01-.3.01-.27.03-.66.05-1.18.04-1.03.1-2.55.18-4.5.16-3.89.4-9.49.72-16.31.63-13.64,1.57-32.14,2.78-51.63,1.22-19.49,2.71-39.95,4.45-57.48,1.75-17.61,3.74-32.08,5.91-39.72l-4.49-1.27ZM372.66,227.38l30.92-2.36-.36-4.66-30.92,2.36.36,4.66ZM369.39,294.41c1.02-16.45,2.38-33.74,3.48-46.92.55-6.59,1.03-12.15,1.38-16.06.17-1.96.31-3.5.41-4.55.05-.53.09-.93.11-1.21.01-.14.02-.24.03-.31,0-.03,0-.06,0-.08,0,0,0-.02,0-.02,0,0,0,0,0,0,0,0,0,0,0,0t-2.33-.22q-2.33-.22-2.33-.22s0,0,0,0c0,0,0,0,0,0,0,0,0,.01,0,.02,0,.02,0,.04,0,.08,0,.07-.02.17-.03.31-.03.27-.06.68-.11,1.21-.1,1.06-.24,2.6-.41,4.56-.35,3.92-.83,9.49-1.39,16.08-1.1,13.19-2.46,30.52-3.49,47.01l4.66.29ZM365.56,392.95q2.34,0,2.34,0h0s0-.03,0-.05c0-.04,0-.09,0-.16,0-.14,0-.35,0-.62,0-.54,0-1.34,0-2.36,0-2.05,0-5,.01-8.63.02-7.25.05-17.19.14-27.92.18-21.49.55-46.1,1.34-58.79l-4.66-.29c-.8,12.84-1.18,37.58-1.35,59.04-.09,10.74-.13,20.69-.14,27.95,0,3.63-.01,6.59-.01,8.64,0,1.03,0,1.82,0,2.37,0,.27,0,.48,0,.62,0,.07,0,.12,0,.16,0,.02,0,.03,0,.04h0s0,.01,2.34.01ZM365.56,392.96h-2.34v2.19l2.19.14.15-2.33ZM389.2,394.46l-.15,2.33,2.39.15.09-2.39-2.33-.09ZM403.4,222.69l2.25.64.91-3.22-3.34.26.18,2.33ZM372.48,225.05l-.18-2.33-1.96.15-.18,1.96,2.33.22ZM367.06,294.27l2.33.15h0s-2.33-.15-2.33-.15ZM365.56,392.95h2.34s-2.34,0-2.34,0Z"/>
    </g>
    <path class="cls-5" d="M458.15,275.08l-78.11,72.26,3.17,3.43,78.11-72.26-3.17-3.43ZM526.4,505.57c-7.8-36.07-23.92-93.46-38.06-141.78-7.08-24.17-13.67-46.09-18.49-61.97-2.41-7.94-4.38-14.37-5.74-18.81-.68-2.22-1.22-3.95-1.58-5.12-.18-.59-.32-1.03-.41-1.33-.05-.15-.08-.26-.11-.34-.01-.04-.02-.07-.03-.09,0,0,0-.02,0-.02,0,0,0,0,0,0t-2.23.69q-2.23.69-2.23.69s0,0,0,0c0,0,0,.01,0,.02,0,.02.01.05.03.09.02.08.06.19.1.34.09.3.23.74.41,1.33.36,1.17.89,2.89,1.57,5.11,1.36,4.44,3.33,10.86,5.74,18.8,4.82,15.87,11.4,37.77,18.47,61.92,14.15,48.33,30.22,105.57,37.98,141.45l4.56-.99ZM417.46,522.62c4.48,7.68,14.16,9.91,24.79,9.68,10.82-.23,23.66-3.03,35.86-6.6,12.23-3.57,23.97-7.95,32.64-11.43,4.34-1.74,7.91-3.26,10.41-4.35,1.25-.54,2.22-.98,2.89-1.28.33-.15.59-.27.76-.34.09-.04.15-.07.2-.09.02-.01.04-.02.05-.02,0,0,.01,0,.01,0,0,0,0,0,0,0t-.98-2.12q-.98-2.12-.98-2.12s0,0,0,0c0,0,0,0-.01,0-.01,0-.03.01-.05.02-.04.02-.1.05-.19.09-.17.08-.41.19-.74.33-.65.29-1.61.72-2.84,1.26-2.46,1.07-6,2.57-10.29,4.3-8.59,3.45-20.17,7.77-32.21,11.29-12.07,3.52-24.44,6.19-34.66,6.41-10.4.23-17.58-2.09-20.66-7.37l-4.03,2.35ZM381.63,349.06q-2.31.36-2.31.36s0,0,0,0c0,0,0,.01,0,.02,0,.02,0,.04.01.08.01.07.03.18.05.32.04.28.11.69.19,1.23.17,1.08.42,2.67.75,4.7.65,4.06,1.6,9.89,2.78,16.96,2.37,14.15,5.68,33.28,9.47,53.24,3.79,19.95,8.05,40.73,12.32,58.16,2.14,8.72,4.28,16.62,6.37,23.17,2.08,6.51,4.15,11.84,6.18,15.31l4.03-2.36c-1.75-3-3.7-7.92-5.76-14.38-2.05-6.41-4.16-14.2-6.28-22.86-4.24-17.32-8.49-38.01-12.27-57.92-3.78-19.91-7.09-39.01-9.45-53.13-1.18-7.06-2.13-12.88-2.78-16.93-.32-2.03-.58-3.61-.75-4.69-.08-.54-.15-.95-.19-1.23-.02-.14-.04-.24-.05-.31,0-.04,0-.06-.01-.08,0,0,0-.02,0-.02,0,0,0,0,0,0t-2.31.36ZM459.74,276.8l2.23-.69-1.1-3.54-2.72,2.52,1.59,1.71ZM524.11,506.06l.98,2.12,1.7-.78-.4-1.83-2.28.49ZM419.48,521.45l2.02-1.18h0s-2.02,1.18-2.02,1.18ZM381.63,349.06l-1.59-1.71-.91.84.19,1.23,2.31-.36Z"/>
    <path class="cls-15" d="M381.63,349.06s22.71,146.48,37.84,172.38c15.12,25.91,104.64-15.38,104.64-15.38-15.56-71.95-64.37-229.26-64.37-229.26l-78.11,72.26Z"/>
    <polygon class="cls-15" points="475.34 332.46 476.9 318.06 470.28 306.38 463.67 313 475.34 332.46"/>
    <path class="cls-10" d="M513.56,490.28c-1.81.74-3.61,1.47-5.43,2.2-2.23-10.24-5.13-20.38-7.73-30.48-3.55-13.82-7.18-27.63-11.1-41.33-3.92-13.72-7.79-27.45-11.5-41.23-3.73-13.79-8.06-27.38-11.89-41.13-.19-.71-1.26-.42-1.1.28,3.27,13.9,6.05,27.9,9.45,41.78,3.4,13.87,6.64,27.76,9.84,41.68,3.2,13.91,6.69,27.75,10.24,41.57,2.66,10.33,5.05,20.84,8.15,31.09-11.65,4.49-23.42,8.46-35.7,11.18-14.33,3.18-30.01,6.73-44.23,1.75-1.46-.51-2.84,1.38-2.02,2.65,4.18,6.52,12.17,7.19,19.2,6.75,8.64-.55,17.29-2.18,25.71-4.15,13.14-3.06,26.34-7.3,38.63-13.17.56,1.72,1.16,3.43,1.78,5.14,1.01,2.76,4.85,1.72,4.4-1.16-.34-2.17-.73-4.34-1.16-6.5,2.16-1.13,4.28-2.32,6.36-3.57,2.18-1.31.31-4.24-1.9-3.33v-.03Z"/>
    <polygon class="cls-8" points="388.84 162.76 419.19 171.74 429.2 188.43 368.84 205.49 362.33 185.62 388.84 162.76"/>
    <g class="cls-22">
      <path class="cls-5" d="M363.85,187.39l26.52-22.86-3.05-3.54-26.52,22.86,3.05,3.54ZM371.06,204.76l-6.51-19.87-4.44,1.45,6.51,19.87,4.44-1.45ZM428.56,186.18l-60.36,17.06,1.27,4.49,60.36-17.06-1.27-4.49ZM417.19,172.94l10,16.69,4.01-2.4-10-16.69-4.01,2.4ZM388.18,165l30.35,8.98,1.32-4.48-30.35-8.98-1.32,4.48ZM362.33,185.62l-1.52-1.77-1.18,1.02.48,1.48,2.22-.73ZM368.84,205.49l-2.22.73.7,2.13,2.16-.61-.64-2.25ZM429.2,188.43l.64,2.25,2.94-.83-1.57-2.62-2,1.2ZM419.19,171.74l2-1.2-.47-.78-.87-.26-.66,2.24ZM388.84,162.76l.66-2.24-1.22-.36-.97.83,1.52,1.77Z"/>
    </g>
    <path class="cls-5" d="M259.95,374.56h.01v-4.67h-.01v4.67ZM213.44,320.8l44.72,52.93,3.57-3.01-44.72-52.93-3.57,3.01ZM310.11,228.02c-14.43,12.81-38.56,35.22-59.06,54.4-10.26,9.6-19.61,18.39-26.4,24.79-3.4,3.2-6.15,5.8-8.06,7.6-.95.9-1.69,1.6-2.2,2.07-.25.24-.44.42-.57.54-.06.06-.11.11-.15.14-.02.02-.03.03-.04.03,0,0,0,0,0,0,0,0,0,0,0,0t1.6,1.7q1.6,1.7,1.61,1.7s0,0,0,0c0,0,0,0,0,0,0,0,.02-.02.04-.03.03-.03.08-.08.15-.14.13-.12.32-.3.57-.54.5-.47,1.24-1.17,2.19-2.07,1.9-1.8,4.66-4.4,8.05-7.59,6.79-6.39,16.14-15.19,26.39-24.78,20.51-19.19,44.6-41.55,58.97-54.32l-3.1-3.49ZM364.28,257.42c3.57-19.62-1.82-34.15-12.96-40.06-11.09-5.88-26.47-2.46-41.22,10.65l3.1,3.49c14.05-12.49,27.31-14.58,35.93-10.02,8.56,4.54,13.94,16.43,10.55,35.1l4.6.83ZM261.39,374.07c8.96-6.92,32.3-22.88,54.46-43.52,22.1-20.59,43.57-46.33,48.43-73.13l-4.6-.83c-4.57,25.2-25.01,50.04-47.02,70.55-21.95,20.45-44.89,36.1-54.13,43.24l2.86,3.7ZM259.95,372.22l-1.78,1.51.7.83h1.08v-2.34ZM215.23,319.3l-1.6-1.7-1.6,1.52,1.43,1.69,1.78-1.51ZM311.66,229.76l1.55,1.75h0s-1.55-1.75-1.55-1.75ZM361.99,257.01l-2.3-.42h0s2.3.42,2.3.42ZM259.96,372.22v2.34h.8l.63-.49-1.43-1.85Z"/>
    <path class="cls-15" d="M259.96,372.22c18.19-14.06,92.58-63.21,102.02-115.22,6.96-38.29-21.52-52.84-50.33-27.24-28.8,25.58-96.43,89.54-96.43,89.54l44.72,52.93h.01Z"/>
    <path class="cls-15" d="M332.9,218.04c1.56-1.25,9.47-3.89,13.23-5.06l12.07,7.39,7.78,12.45v20.24l-2.34,14.4-3.5-4.28-27.24-45.15Z"/>
    <path class="cls-5" d="M190.47,221.31h-.01s-3.3,3.29-3.3,3.29h.01s3.3-3.29,3.3-3.29ZM174.93,213.73l12.34,10.97,3.1-3.49-12.34-10.97-3.1,3.49ZM190.87,194.27l-16.04,16.07,3.31,3.3,16.04-16.07-3.31-3.3ZM198.76,193.11c-2.59-1.39-5.81-.94-7.9,1.17l3.32,3.28c.61-.62,1.58-.77,2.38-.34l2.2-4.12ZM201.61,201.9c1.55-3.21.33-7.1-2.84-8.79l-2.21,4.12c.93.5,1.32,1.66.84,2.65l4.21,2.03ZM190.9,223.96l10.7-22.06-4.2-2.04-10.7,22.06,4.2,2.04ZM188.82,222.96l-1.55,1.75,3.2-3.4-1.65,1.65ZM176.48,211.99l-1.65-1.65-1.75,1.75,1.85,1.64,1.55-1.75ZM192.52,195.92l1.65,1.65h0s-1.66-1.65-1.66-1.65ZM197.66,195.16l1.1-2.06h0s-1.1,2.06-1.1,2.06ZM199.5,200.89l2.1,1.02h0s-2.1-1.02-2.1-1.02ZM188.8,222.94l-2.1-1.02-.73,1.5,1.18,1.18,1.65-1.65Z"/>
    <path class="cls-14" d="M188.8,222.94l10.7-22.06c1.01-2.1.21-4.62-1.84-5.72-1.69-.91-3.79-.61-5.14.76l-16.04,16.07,12.34,10.97h-.01Z"/>
    <path class="cls-5" d="M244.97,183.39c.33-1.79-.94-3.47-2.72-3.68l-.54,4.64c-.87-.1-1.49-.92-1.33-1.8l4.59.84ZM241.99,185.95c1.45-.05,2.68-1.09,2.97-2.51l-4.57-.94c.14-.69.73-1.19,1.43-1.21l.17,4.67ZM218.39,186.42l23.56-.46-.09-4.67-23.56.46.09,4.67ZM184.53,210.56l35.15-24.56-2.68-3.83-35.15,24.56,2.68,3.83ZM176.03,208.76c1.79,2.93,5.66,3.73,8.47,1.82l-2.62-3.87c-.63.43-1.49.24-1.87-.39l-3.98,2.44ZM178.01,200.51c-2.83,1.74-3.7,5.43-1.99,8.24l3.99-2.42c-.39-.64-.19-1.46.44-1.84l-2.44-3.98ZM216.31,177.33l-38.28,23.16,2.42,4,38.28-23.16-2.42-4ZM242.23,179.71l-24.46-2.7-.51,4.64,24.46,2.7.51-4.64ZM242.68,182.97l2.29.47v-.03s.01-.03.01-.03l-2.3-.42ZM241.9,183.62l.05,2.33h.02s.02,0,.02,0l-.08-2.33ZM218.34,184.08l-.05-2.33h-.71s-.58.42-.58.42l1.34,1.91ZM183.19,208.65l1.31,1.93h.01s.01-.02.01-.02l-1.34-1.91ZM178.02,207.54l-2,1.21h0s1.99-1.21,1.99-1.21ZM179.24,202.5l-1.21-2h0s0,0,0,0l1.22,1.99ZM217.52,179.33l.26-2.32-.79-.09-.68.41,1.21,2ZM241.98,182.03l.27-2.32h0s0,0,0,0l-.26,2.32Z"/>
    <path class="cls-6" d="M241.98,182.03l-24.46-2.7-38.28,23.16c-1.73,1.06-2.26,3.31-1.21,5.04,1.09,1.78,3.45,2.27,5.17,1.11l35.15-24.56,23.56-.46c.37-.01.7-.28.77-.65.08-.46-.24-.89-.7-.94Z"/>
    <path class="cls-5" d="M246.29,185.86c-.65,1.29-1.91,1.99-3.35,2.03-1.46.05-2.85-.6-3.61-1.73l-3.87,2.61c1.78,2.64,4.79,3.88,7.64,3.79,2.88-.09,5.83-1.56,7.37-4.59l-4.17-2.11ZM243.82,176.39c.11,1.22.51,2.37.9,3.33.2.49.42.97.62,1.41.2.46.39.87.56,1.28.71,1.71.8,2.65.39,3.46l4.17,2.1c1.39-2.77.53-5.45-.25-7.33-.2-.49-.42-.97-.62-1.41-.2-.45-.39-.87-.55-1.27-.34-.82-.53-1.46-.58-1.99l-4.65.43ZM243.84,167.99c.45.34.73.91.56,2.63-.09.85-.24,1.64-.39,2.67-.14.92-.28,2.03-.18,3.1l4.65-.43c-.04-.45.01-1.08.15-1.97.12-.79.32-1.9.42-2.9.2-1.99.17-4.91-2.4-6.83l-2.8,3.74ZM237.87,173.11c.42-1.68,1.57-3.59,2.92-4.69.66-.54,1.24-.78,1.69-.84.39-.05.82.02,1.36.42l2.79-3.74c-1.48-1.1-3.12-1.51-4.75-1.31-1.57.2-2.94.95-4.05,1.86-2.19,1.79-3.85,4.6-4.49,7.17l4.53,1.14ZM239.32,186.16c-1-1.47-1.65-3.67-1.89-6.16-.24-2.46-.04-4.96.44-6.89l-4.53-1.13c-.62,2.49-.84,5.53-.55,8.47.28,2.91,1.07,5.97,2.67,8.33l3.87-2.62ZM248.37,186.92l2.08,1.05h0s-2.09-1.05-2.09-1.05ZM246.14,176.17l-2.33.22h0s2.33-.22,2.33-.22ZM245.24,166.12l1.4-1.87h0s-1.4,1.87-1.4,1.87ZM235.6,172.54l-2.26-.57h0s2.27.57,2.27.57ZM237.39,187.47l1.94-1.3h0s-1.93,1.3-1.93,1.3Z"/>
    <path class="cls-12" d="M237.39,187.47c-2.6-3.83-2.88-10.51-1.78-14.92,1.07-4.25,5.6-9.42,9.63-6.42,3.02,2.26.62,7,.91,10.05.33,3.52,4.03,7.16,2.23,10.75-2.18,4.33-8.44,4.33-10.98.55Z"/>
    <path class="cls-13" d="M239.26,180.85c-.56-.82-1.07-1.69-1.41-2.62-.36-.98-.61-1.86-.61-2.91s.13-2.14.37-3.17c.09-.34-.45-.59-.59-.24-.46,1.01-.73,2.04-.82,3.15-.04.56,0,1.13-.01,1.69-.01.61,0,1.2.07,1.8.16,1.16.48,2.29,1,3.34.25.51.52,1.01.82,1.47.51.77,1.06,1.38,2.05,1.2.4-.07.76-.46.85-.85.28-1.26-1.06-1.98-1.69-2.9h-.01Z"/>
    <path class="cls-13" d="M244.51,185.33c-.03-.13-.1-.24-.18-.36v-.03s-.01-.06-.04-.09c-.04-.07-.13-.12-.19-.18-.04-.04-.06-.09-.12-.12,0,0-.03,0-.04-.03,0,0-.01-.03-.03-.03-.04-.01-.09-.03-.13-.06-.09-.04-.15-.1-.25-.13-.12,0-.22-.03-.34-.04-.24,0-.46.06-.67.18l-.28.22c-.18.18-.28.39-.36.61l-.04.22c-.04.18-.06.34-.01.52,0,.18.06.34.15.49.07.09.15.19.22.28.13.13.28.24.45.28.1.06.22.09.34.09.18.03.34.03.52-.03l.33-.13c.22-.12.39-.3.51-.51.03-.06.07-.12.1-.18.09-.15.15-.33.15-.51.03-.18.03-.34-.03-.52l-.03.04Z"/>
    <path class="cls-5" d="M242.33,176.91c.11-1.76-1.26-3.35-3.13-3.35v4.67c-.92,0-1.58-.79-1.53-1.62l4.66.3ZM239.58,179.81c1.48-.18,2.63-1.39,2.75-2.86l-4.66-.37c.06-.73.61-1.32,1.35-1.4l.56,4.64ZM216.22,182.84l23.38-3.03-.6-4.63-23.38,3.03.6,4.63ZM185.21,210.53l32.25-28.25-3.08-3.51-32.25,28.25,3.08,3.51ZM176.56,209.67c2.1,2.71,6.03,3.09,8.62.88l-3.03-3.56c-.59.5-1.45.4-1.9-.19l-3.69,2.86ZM177.64,201.25c-2.65,2.03-3.09,5.81-1.08,8.42l3.7-2.85c-.46-.6-.34-1.43.23-1.87l-2.85-3.7ZM213.18,174.05l-35.54,27.2,2.84,3.71,35.54-27.2-2.84-3.71ZM239.2,173.57h-24.6v4.67h24.6v-4.67ZM240,176.76l2.33.19v-.02s0-.02,0-.02l-2.33-.15ZM239.3,177.49l-.28-2.32h-.01s-.01,0-.01,0l.3,2.32ZM215.92,180.52l-.3-2.32-.7.09-.53.47,1.54,1.76ZM183.67,208.78l1.51,1.78h.01s.01-.02.01-.02l-1.54-1.76ZM178.41,208.24l-1.85,1.42h0s1.85-1.42,1.85-1.42ZM179.06,203.1l-1.42-1.85h0s1.42,1.85,1.42,1.85ZM214.6,175.9v-2.34h-.79l-.63.48,1.42,1.85Z"/>
    <path class="cls-7" d="M239.2,175.9h-24.6l-35.54,27.2c-1.61,1.23-1.89,3.54-.65,5.14,1.28,1.65,3.67,1.89,5.26.54l32.25-28.25,23.38-3.03c.37-.04.67-.36.7-.73.03-.46-.33-.86-.8-.86Z"/>
    <path class="cls-5" d="M193.8,191.16c.83-.15,1.5.38,1.62.91l4.55-1.07c-.77-3.24-4.02-4.97-7-4.44l.83,4.6ZM195.43,192.08c.16.67-.19,1.27-.75,1.5l1.76,4.33c2.65-1.08,4.23-3.95,3.53-6.91l-4.54,1.08ZM194.68,193.58l-14.66,6,1.77,4.32,14.66-6-1.77-4.32ZM178.58,201.61l-.45,7.28,4.66.29.45-7.28-4.66-.29ZM180.41,211.37c4.4.09,7.12,1.41,8.45,2.84,1.22,1.32,1.46,2.92.56,4.65l4.14,2.16c1.8-3.45,1.31-7.19-1.27-9.98-2.47-2.67-6.61-4.23-11.78-4.34l-.1,4.67ZM189.34,220.87c1.33,3.09,1.18,5.04.4,6.5l4.11,2.22c1.69-3.13,1.46-6.67-.22-10.56l-4.29,1.85ZM189.51,228.96c.28,1.29.53,2.56.76,3.8l4.59-.84c-.24-1.29-.5-2.6-.78-3.93l-4.57.98ZM191.63,234.48c.83.36,1.37,1.1,1.61,2.11.25,1.07.07,2.13-.23,2.69l4.11,2.23c.92-1.71,1.15-3.96.67-5.99-.49-2.09-1.81-4.24-4.3-5.32l-1.86,4.28ZM193.02,239.28c-.05.1-.27.39-.77.88l3.23,3.37c.61-.58,1.25-1.28,1.65-2.03l-4.11-2.23ZM191.53,242.03c.61,7.69-.19,13.67-2.54,17.98l4.1,2.24c2.98-5.46,3.74-12.51,3.09-20.59l-4.66.37ZM189.11,262.44l61.51,90.19,3.86-2.63-61.51-90.19-3.86,2.63ZM251.52,349.22l-5.02,2.45,2.05,4.2,5.02-2.45-2.05-4.2ZM246.5,351.67c-23.53,11.47-51.67-1.34-58.48-26.6l-4.51,1.22c7.58,28.1,38.86,42.34,65.03,29.58l-2.05-4.2ZM188.02,325.07l-16.64-61.82-4.51,1.21,16.64,61.82,4.51-1.21ZM171.35,263.15l-8.85-28-4.45,1.41,8.85,28,4.45-1.41ZM162.47,235.07l-.9-2.55-4.4,1.56.9,2.55,4.4-1.56ZM161.57,232.52c-.95-2.67-.93-5.6.05-8.25l-4.38-1.62c-1.37,3.68-1.38,7.74-.07,11.43l4.4-1.56ZM161.62,224.27l10.34-28.06-4.38-1.62-10.34,28.06,4.38,1.62ZM171.85,196.48c.5-.97,1.42-1.64,2.46-1.82l-.81-4.6c-2.49.44-4.64,2.03-5.8,4.27l4.15,2.15ZM174.32,194.65l19.49-3.49-.82-4.6-19.49,3.49.82,4.6ZM197.7,191.54l-2.27.54h0s2.27-.54,2.27-.54ZM195.56,195.75l-.88-2.16h0s.89,2.16.89,2.16ZM180.91,201.75l-.89-2.16-1.36.56-.09,1.46,2.33.14ZM180.46,209.03l-2.33-.14-.15,2.43,2.43.05.05-2.33ZM191.49,219.94l-2.07-1.08-.51.98.44,1.02,2.14-.92ZM191.79,228.47l-2.05-1.11-.41.76.18.84,2.28-.49ZM192.56,232.34l-2.3.42.22,1.22,1.14.5.93-2.14ZM195.07,240.39l-2.05-1.11,2.05,1.11ZM193.86,241.84l-1.62-1.69-.8.77.09,1.11,2.33-.19ZM191.04,261.13l-2.05-1.12-.68,1.25.8,1.18,1.93-1.32ZM252.55,351.32l1.02,2.1,2.43-1.18-1.52-2.23-1.93,1.32ZM247.52,353.77l1.02,2.1h0s-1.02-2.1-1.02-2.1ZM185.77,325.68l-2.25.61h0s2.25-.61,2.25-.61ZM169.12,263.86l2.25-.61v-.05s-.03-.05-.03-.05l-2.23.7ZM160.27,235.85l2.23-.7v-.04s-.03-.04-.03-.04l-2.2.78ZM159.37,233.3l2.2-.78h0s-2.2.78-2.2.78ZM159.43,223.46l2.19.81h0s-2.19-.81-2.19-.81ZM169.77,195.4l-2.07-1.07-.07.13-.05.14,2.19.81ZM193.39,188.86l.41,2.3h0s-.41-2.3-.41-2.3ZM173.91,192.36l.41,2.3h0s-.41-2.3-.41-2.3Z"/>
    <path class="cls-4" d="M193.39,188.86l-19.49,3.49c-1.77.31-3.3,1.44-4.13,3.05l-10.34,28.06c-1.17,3.17-1.19,6.66-.06,9.84l.9,2.55,8.85,28,16.64,61.82c7.19,26.68,36.91,40.2,61.76,28.09l5.02-2.45-61.51-90.19c2.66-4.89,3.45-11.4,2.82-19.28.56-.54.98-1.03,1.21-1.45,1.23-2.27.81-6.62-2.51-8.06-.23-1.26-.49-2.55-.77-3.87,1.24-2.29,1.2-5.03-.31-8.53,2.7-5.18-1.47-10.7-11.03-10.91l.45-7.28,14.66-6c1.61-.65,2.57-2.39,2.14-4.21-.45-1.89-2.41-3.02-4.31-2.68Z"/>
    <path class="cls-5" d="M164.87,217.63c1.18-1.36,3.25-3.36,5.62-4.9,2.41-1.57,4.87-2.49,6.9-2.11l.43-2.3c-2.95-.55-6.07.8-8.61,2.45-2.58,1.68-4.82,3.84-6.11,5.33l1.77,1.53Z"/>
    <path class="cls-5" d="M172.05,228.66c.91-1.94,2.82-4.75,5.55-6.8,2.7-2.03,6.15-3.28,10.24-2.29l.55-2.27c-4.93-1.19-9.08.35-12.19,2.69-3.09,2.32-5.22,5.46-6.26,7.68l2.11.99Z"/>
    <path class="cls-5" d="M178.77,236.81c1.21-1.08,3.11-2.63,4.87-3.8.89-.58,1.7-1.04,2.34-1.29.32-.13.56-.18.71-.2.16-.02.13.02.03-.04l1.2-2c-.49-.29-1.02-.33-1.46-.29-.44.04-.9.18-1.33.35-.87.34-1.83.89-2.78,1.51-1.9,1.25-3.89,2.88-5.15,4.01l1.56,1.74Z"/>
    <polygon class="cls-8" points="362.12 185.62 357.91 194.56 362.16 225.05 385.56 203.68 362.12 185.62"/>
    <g class="cls-21">
      <path class="cls-5" d="M386.98,201.83l-23.44-18.06-2.85,3.7,23.44,18.06,2.85-3.7ZM363.74,226.77l23.39-21.37-3.15-3.45-23.39,21.37,3.15,3.45ZM355.6,194.89l4.25,30.48,4.63-.65-4.25-30.48-4.63.65ZM360.01,184.62l-4.21,8.95,4.23,1.99,4.21-8.95-4.23-1.99ZM385.56,203.68l1.58,1.72,2.05-1.88-2.2-1.7-1.43,1.85ZM362.16,225.05l-2.31.32.61,4.39,3.28-2.99-1.58-1.72ZM357.91,194.56l-2.11-.99-.3.63.1.69,2.31-.32ZM362.12,185.62l1.43-1.85-2.3-1.77-1.24,2.63,2.11.99Z"/>
    </g>
    <path class="cls-5" d="M255.93,351.91l1.71,20.51,4.65-.39-1.71-20.51-4.65.39ZM193.87,269.13l62.51,83.98,3.75-2.79-62.51-83.98-3.75,2.79ZM161.29,304.88l36.09-35.48-3.27-3.33-36.09,35.48,3.27,3.33ZM258.56,370.36c-5.3,3.99-11.23,6.62-17.76,7.2-6.52.58-13.82-.87-21.9-5.31-16.25-8.93-35.49-29.9-57.19-70.14l-4.11,2.22c21.83,40.49,41.6,62.43,59.05,72.02,8.77,4.82,16.99,6.54,24.56,5.87,7.56-.67,14.3-3.71,20.16-8.12l-2.81-3.73ZM258.25,351.71l2.33-.19-.06-.67-.4-.54-1.87,1.39ZM195.74,267.74l1.87-1.39-1.6-2.15-1.91,1.88,1.64,1.67ZM159.65,303.21l-1.64-1.67-1.25,1.23.83,1.54,2.06-1.11ZM259.96,372.22l1.41,1.87,1.03-.78-.11-1.28-2.33.19Z"/>
    <path class="cls-15" d="M259.96,372.22c-22.29,16.8-56.78,11.73-100.31-69.01l36.09-35.48,62.51,83.98,1.71,20.51Z"/>
    <path class="cls-5" d="M326.58,134.54l67.43-49.38-2.76-3.77-67.43,49.38,2.76,3.77ZM323.16,89.56q-2.02-1.16-2.03-1.16s0,0,0,0c0,0,0,0,0,0,0,0,0,.01-.01.02,0,.02-.02.04-.04.06-.03.05-.07.13-.12.23-.1.2-.25.48-.43.84-.36.72-.84,1.75-1.37,3.06-1.05,2.6-2.29,6.28-3.03,10.63-1.48,8.7-.97,20.2,7.22,30.85l3.7-2.85c-7.15-9.3-7.66-19.35-6.32-27.22.67-3.94,1.8-7.29,2.76-9.66.48-1.18.91-2.11,1.22-2.74.16-.31.28-.55.36-.7.04-.08.07-.13.09-.17,0-.02.02-.03.02-.04,0,0,0,0,0,0,0,0,0,0,0,0,0,0,0,0,0,0t-2.03-1.16ZM343.27,71.19c-8.92,7.1-14.29,11.22-17.43,13.56-1.57,1.17-2.57,1.89-3.17,2.32-.3.21-.5.35-.62.43-.06.04-.1.07-.12.08-.01,0-.02.01-.02.01,0,0,0,0,0,0,0,0,0,0,0,0,0,0,0,0,0,0,0,0,0,0,0,0t1.25,1.97q1.25,1.98,1.25,1.97s0,0,0,0c0,0,0,0,0,0,0,0,0,0,0,0,0,0,.01,0,.02-.01.01,0,.03-.02.05-.03.04-.03.1-.06.17-.12.15-.1.38-.26.7-.49.65-.46,1.69-1.21,3.28-2.39,3.18-2.38,8.59-6.53,17.54-13.64l-2.91-3.66ZM394.2,81.56c-7.66-6.98-15.5-13.44-23.85-16.21-4.23-1.4-8.63-1.87-13.21-.99-4.57.88-9.17,3.09-13.87,6.82l2.91,3.66c4.23-3.37,8.16-5.18,11.85-5.89,3.68-.71,7.26-.35,10.85.84,7.3,2.42,14.48,8.21,22.17,15.22l3.15-3.45ZM325.2,132.66l-1.85,1.42,1.39,1.81,1.84-1.35-1.38-1.88ZM323.16,89.56l-1.25-1.98-.49.31-.29.5,2.02,1.16ZM392.63,83.28l1.38,1.88,2.3-1.69-2.11-1.92-1.57,1.73Z"/>
    <path class="cls-6" d="M392.63,83.28c-15.35-14-30.04-24.48-47.9-10.27-17.87,14.21-21.57,16.54-21.57,16.54,0,0-13.3,23.16,2.04,43.1l67.43-49.38Z"/>
    <path class="cls-5" d="M413.22,151.92l-37.13-69.47-4.12,2.2,37.13,69.47,4.12-2.2ZM374.99,85.69c9.56-4.26,18.1-4.67,25.09-2.47,7,2.2,12.66,7.08,16.36,13.78,7.41,13.41,6.94,34.28-7.19,54.69l3.84,2.66c14.92-21.56,15.87-44.33,7.44-59.61-4.22-7.65-10.79-13.38-19.04-15.98-8.25-2.6-17.97-1.99-28.39,2.65l1.9,4.27ZM411.17,153.02l-2.06,1.1,1.8,3.37,2.18-3.14-1.92-1.33ZM374.04,83.55l-.95-2.13-2.29,1.02,1.18,2.21,2.06-1.1Z"/>
    <path class="cls-6" d="M374.04,83.55c39.95-17.81,66.19,27.5,37.13,69.47l-37.13-69.47Z"/>
    <path class="cls-11" d="M414.12,203.19c0,10.55-28.54,28.83-28.54,28.83,0,0-11.13-14.24-13.08-25.18l-8.89-45.04,46.61-19.32,3.85,59.3c.03.46.06.92.06,1.37v.03Z"/>
    <g class="cls-20">
      <path class="cls-5" d="M412.05,202.11v.03s4.16,2.09,4.16,2.09v-.03s-4.16-2.09-4.16-2.09ZM411.75,201.94c.03.48.05.86.05,1.22h4.67c0-.53-.04-1.07-.06-1.52l-4.66.3ZM407.9,142.64l3.85,59.3,4.66-.3-3.85-59.3-4.66.3ZM364.51,163.96l46.61-19.32-1.79-4.31-46.61,19.32,1.79,4.31ZM374.8,206.39l-8.89-45.04-4.58.9,8.89,45.04,4.58-.9ZM385.58,232.02q1.84-1.44,1.84-1.44s0,0,0,0c0,0,0,0,0,0,0,0,0,0,0,0,0,0-.01-.01-.02-.03-.02-.02-.05-.06-.09-.11-.08-.1-.19-.25-.34-.45-.3-.4-.73-.98-1.25-1.72-1.05-1.47-2.47-3.55-3.95-5.96-3-4.89-6.07-10.87-6.96-15.88l-4.6.82c1.06,5.93,4.53,12.54,7.58,17.5,1.55,2.52,3.03,4.69,4.13,6.22.55.77,1,1.38,1.32,1.81.16.21.28.38.37.49.04.06.08.1.1.13.01.02.02.03.03.04,0,0,0,0,0,0,0,0,0,0,0,0,0,0,0,0,0,0t1.84-1.44ZM411.79,203.19c0,.81-.28,1.87-.97,3.2-.68,1.31-1.68,2.74-2.95,4.26-2.54,3.04-5.99,6.21-9.51,9.11-3.51,2.89-7.02,5.47-9.67,7.33-1.32.93-2.42,1.67-3.19,2.18-.38.26-.68.45-.89.59-.1.07-.18.12-.23.15-.03.02-.04.03-.06.04,0,0-.01,0-.01,0,0,0,0,0,0,0,0,0,0,0,0,0t1.26,1.97q1.26,1.97,1.26,1.97s0,0,0,0c0,0,0,0,0,0,0,0,.01,0,.02-.01.02,0,.04-.02.07-.04.06-.04.14-.09.25-.16.22-.14.53-.35.92-.61.79-.53,1.92-1.3,3.28-2.25,2.71-1.9,6.33-4.55,9.95-7.55,3.62-2.98,7.31-6.36,10.11-9.72,1.4-1.68,2.63-3.4,3.52-5.11.88-1.7,1.49-3.51,1.49-5.34h-4.67ZM414.14,203.16l2.09,1.05.25-.49v-.55h-2.34ZM414.08,201.79l2.33-.15h0s-2.33.15-2.33.15ZM410.23,142.48l2.33-.15-.21-3.26-3.01,1.25.89,2.16ZM363.62,161.81l-.89-2.16-1.77.73.37,1.88,2.29-.45ZM372.51,206.84l2.3-.41v-.02s0-.02,0-.02l-2.29.45ZM385.58,232.02l-1.84,1.44,1.31,1.67,1.79-1.15-1.26-1.97ZM414.12,203.19l-2.09-1.05-.25.49v.55h2.34Z"/>
    </g>
    <path class="cls-11" d="M328.79,168.01c5.87,11,16.02,20.17,28.21,22.68,16.88,3.52,34.17-6.26,44.87-19.78,6.11-7.7,10.37-16.97,12.43-26.56,4.55-20.85-1.25-43.36-20.9-55.4-13.44-8.25-37.07-9.62-53.36-1.72-6.39,3.08-11.67,7.58-14.74,13.67-9.77,19.35-6.44,48.56,3.49,67.12h0Z"/>
    <g class="cls-26">
      <path class="cls-5" d="M331.13,168.02h0s-4.67-.01-4.67-.01h0s4.67.01,4.67.01ZM323.21,99.85c-5.13,10.16-6.76,22.76-5.88,35.07.87,12.33,4.26,24.6,9.4,34.2l4.12-2.2c-4.79-8.96-8.03-20.58-8.86-32.33-.83-11.77.76-23.45,5.39-32.64l-4.17-2.1ZM339.03,85.12c-6.73,3.24-12.45,8.07-15.82,14.73l4.17,2.1c2.79-5.53,7.62-9.71,13.67-12.62l-2.03-4.21ZM394.62,86.96c-7.15-4.39-16.83-6.86-26.74-7.26-9.92-.4-20.3,1.27-28.86,5.42l2.04,4.2c7.73-3.74,17.31-5.33,26.64-4.96,9.34.38,18.19,2.71,24.48,6.57l2.44-3.98ZM416.58,144.84c4.7-21.54-1.24-45.19-21.96-57.88l-2.44,3.98c18.58,11.38,24.23,32.74,19.84,52.91l4.56,1ZM403.7,172.36c6.34-7.99,10.76-17.6,12.88-27.52l-4.57-.98c-1.98,9.25-6.1,18.19-11.97,25.6l3.66,2.9ZM356.53,192.97c18.07,3.77,36.16-6.7,47.18-20.62l-3.66-2.9c-10.39,13.13-26.86,22.22-42.56,18.95l-.95,4.57ZM326.73,169.11c6.11,11.45,16.77,21.18,29.8,23.87l.94-4.57c-11.35-2.34-20.99-10.94-26.62-21.49l-4.12,2.2ZM328.79,168.02l-2.06,1.1,4.39-1.1h-2.34ZM325.3,100.9l-2.08-1.05h0s2.08,1.05,2.08,1.05ZM340.04,87.22l1.01,2.1h0s-1.02-2.1-1.02-2.1ZM393.4,88.95l-1.22,1.99h0s1.22-1.99,1.22-1.99ZM414.3,144.34l-2.28-.5h0s2.28.5,2.28.5ZM401.87,170.9l-1.83-1.45h0s1.83,1.45,1.83,1.45ZM357,190.69l.48-2.29h0s-.47,2.29-.47,2.29ZM328.79,168.01l2.06-1.1-4.4,1.1h2.34Z"/>
    </g>
    <ellipse class="cls-16" cx="374.15" cy="154.21" rx="4.67" ry="2.34"/>
    <ellipse class="cls-16" cx="330.56" cy="154.21" rx="4.67" ry="2.34"/>
    <path class="cls-5" d="M349.84,157.82c-.66.95-1.28,1.83-1.67,2.63-.4.81-.67,1.76-.32,2.75.33.95,1.13,1.65,2.13,2.25,1.02.61,2.44,1.23,4.31,1.91l.81-2.19c-1.83-.68-3.09-1.23-3.91-1.72-.85-.51-1.07-.85-1.13-1.02-.04-.13-.07-.37.21-.96.29-.6.79-1.32,1.49-2.32l-1.91-1.34ZM347.1,147.07c.86,1.3,2.03,3.44,2.72,5.59.34,1.08.55,2.11.56,3.02,0,.91-.18,1.62-.54,2.13l1.91,1.34c.73-1.04.97-2.28.96-3.5-.01-1.22-.28-2.49-.67-3.7-.77-2.42-2.05-4.75-3-6.18l-1.94,1.3ZM350.8,158.49l.96.67-.96-.67Z"/>
    <path class="cls-5" d="M378.04,165.85c-.12,4.26-1.87,9.77-6.5,12.81-4.58,3-12.4,3.84-25.31-2.15l-.98,2.12c13.24,6.15,22.02,5.63,27.58,1.99,5.5-3.6,7.42-10,7.55-14.69l-2.33-.07Z"/>
    <path class="cls-11" d="M409.18,161.6l-3.11-2.34c-2.46,3.37-7.08,10.04-5.84,9.73,1.25-.31,1.82.91,1.95,1.56l7.01-8.95Z"/>
    <path class="cls-11" d="M415.5,124.63c5.08-2.78,12.02-3.3,16.68.13,3.86,2.85,5.34,7.73,5.56,12.32.3,5.92-1.16,12.01-4.76,16.87-3.6,4.86-9.47,8.37-15.8,8.74s-12.93-2.69-15.89-7.95c-5.68-10.08,5.08-25.1,14.22-30.11h-.01Z"/>
    <g class="cls-25">
      <path class="cls-5" d="M415.52,122.3h-.01v4.67h.01v-4.67ZM403.33,153.6c-2.25-3.99-1.41-9.31,1.56-14.68,2.94-5.3,7.61-9.97,11.75-12.24l-2.24-4.1c-5,2.74-10.28,8.09-13.59,14.07-3.28,5.92-4.98,13.15-1.55,19.23l4.07-2.29ZM417.05,160.37c-5.61.33-11.27-2.42-13.72-6.76l-4.07,2.29c3.47,6.18,11.01,9.55,18.06,9.14l-.27-4.66ZM431.11,152.57c-3.22,4.36-8.48,7.47-14.06,7.8l.27,4.66c7.08-.42,13.57-4.32,17.54-9.68l-3.75-2.78ZM435.41,137.21c.28,5.48-1.08,11.01-4.3,15.36l3.75,2.78c3.97-5.37,5.53-12.02,5.21-18.38l-4.66.23ZM430.79,126.65c3.05,2.25,4.41,6.27,4.61,10.56l4.66-.23c-.24-4.9-1.82-10.63-6.5-14.09l-2.77,3.76ZM416.62,126.68c4.58-2.5,10.48-2.76,14.17-.04l2.77-3.76c-5.62-4.15-13.59-3.36-19.18-.3l2.24,4.1ZM415.52,124.63l1.12,2.05-1.12-4.38v2.34ZM401.3,154.75l2.04-1.14h0s-2.03,1.14-2.03,1.14ZM437.74,137.09l-2.33.11h0s2.33-.11,2.33-.11ZM432.18,124.77l1.39-1.88h0s-1.39,1.88-1.39,1.88ZM415.5,124.63l-1.12-2.05,1.12,4.38v-2.34Z"/>
    </g>
    <polygon class="cls-11" points="402.95 150.32 399.84 143.31 398.28 150.32 404.9 161.99 407.62 157.71 402.95 150.32"/>
    <path class="cls-5" d="M335.71,91.06h.01s-3.3-3.32-3.3-3.32h-.01s3.3,3.32,3.3,3.32ZM418.47,123.9c-1.73-20.17-15.66-35.07-32.75-42.01-17.07-6.93-37.67-6.08-53.08,5.66l2.83,3.72c13.85-10.55,32.65-11.48,48.49-5.04,15.82,6.42,28.3,20.02,29.85,38.08l4.65-.4ZM404.36,146.6c1.49-1.37,3.08-3.44,4.6-5.64,1.54-2.23,3.08-4.74,4.44-7.06,1.37-2.33,2.57-4.51,3.43-6.1.43-.8.78-1.45,1.01-1.91.12-.23.21-.41.27-.53.03-.06.06-.11.07-.14,0-.02.01-.03.02-.04,0,0,0,0,0,0,0,0,0,0,0,0,0,0,0,0,0,0t-2.08-1.07q-2.08-1.07-2.08-1.07s0,0,0,0c0,0,0,0,0,0,0,0,0,0,0,0,0,0,0,.02-.02.03-.01.03-.04.07-.07.13-.06.12-.15.29-.26.51-.23.44-.57,1.08-.99,1.86-.84,1.56-2.02,3.69-3.35,5.96-1.33,2.27-2.81,4.67-4.26,6.78-1.47,2.14-2.83,3.85-3.92,4.85l3.17,3.43ZM393.96,116.99c1.94,12.8,3.96,20.39,6.6,28.6l4.45-1.43c-2.57-7.99-4.53-15.35-6.42-27.88l-4.62.7ZM380.37,101.16c1.18,3.83,3.75,7.8,6.5,10.95,1.39,1.59,2.87,3.03,4.31,4.18,1.41,1.13,2.91,2.08,4.35,2.56l1.49-4.43c-.69-.23-1.7-.81-2.92-1.78-1.19-.95-2.47-2.18-3.7-3.6-2.5-2.87-4.64-6.27-5.56-9.27l-4.46,1.38ZM332.55,91.16c5.7,4.9,14.87,8.27,24.11,10.18,9.29,1.92,19.08,2.47,26.27,1.43l-.67-4.62c-6.52.94-15.74.47-24.66-1.38-8.97-1.86-17.21-5.02-22.01-9.15l-3.05,3.54ZM334.05,89.41l-1.65-1.65,3.07,3.51-1.42-1.86ZM416.14,124.1l2.08,1.07.31-.6-.06-.67-2.33.2ZM402.78,144.88l-2.22.71,1.12,3.48,2.69-2.48-1.58-1.72ZM396.27,116.64l2.31-.35-.21-1.41-1.35-.45-.74,2.21ZM382.6,100.47l2.23-.69-.59-1.91-1.97.28.33,2.31ZM334.07,89.39l1.52-1.77-1.64-1.41-1.53,1.53,1.65,1.65Z"/>
    <path class="cls-6" d="M334.07,89.39c10.51,9.04,34.81,13.05,48.53,11.07,2.11,6.82,9.42,14.74,13.67,16.17,1.92,12.66,3.91,20.14,6.51,28.24,5.14-4.74,13.36-20.78,13.36-20.78-3.28-38.23-52.82-56.99-82.09-34.69h.01Z"/>
    <path class="cls-5" d="M363.82,94.71l-12.56-1.81-.67,4.62,12.56,1.81.67-4.62ZM362.23,109.84c3.55-3.71,4.98-8.84,3.48-13.53l-4.45,1.42c.91,2.86.11,6.26-2.4,8.88l3.37,3.23ZM359.29,112.72c.36-.42.79-.84,1.3-1.32.48-.45,1.08-.99,1.63-1.55l-3.35-3.25c-.44.45-.9.87-1.46,1.39-.53.5-1.13,1.07-1.68,1.71l3.56,3.02ZM358.27,114.62s-.03-.13.18-.6c.19-.43.5-.89.84-1.3l-3.56-3.02c-.56.66-1.14,1.5-1.55,2.43-.39.89-.74,2.1-.49,3.37l4.59-.88ZM348.75,110.13c.79,2.93,2.92,5.85,6.43,7.13l1.6-4.39c-1.86-.68-3.06-2.25-3.52-3.96l-4.51,1.21ZM348.62,102.1c-.27,2.31-.64,5.2.12,8.03l4.51-1.21c-.49-1.81-.29-3.79,0-6.27l-4.64-.55ZM348.66,95.78c.47,1.84.27,3.84-.04,6.3l4.63.58c.29-2.33.65-5.2-.07-8.03l-4.53,1.15ZM363.49,97.02l2.22-.71-.44-1.39-1.45-.21-.33,2.31ZM360.54,108.23l1.68,1.63h0s0-.01,0-.01l-1.69-1.62ZM355.98,115.06l-.8,2.19,3.87,1.41-.78-4.05-2.29.44ZM350.94,102.37l-2.32-.29h0s0,.01,0,.01l2.32.27ZM350.93,95.21l.33-2.31-3.46-.5.86,3.39,2.26-.58Z"/>
    <path class="cls-6" d="M350.93,95.21c.59,2.33.31,4.77.01,7.16-.28,2.39-.56,4.83.06,7.15s2.29,4.56,4.98,5.54c-.24-1.23.62-2.78,1.53-3.85.91-1.07,2.05-1.98,3.03-2.99,3.03-3.17,4.15-7.43,2.94-11.21l-12.56-1.81Z"/>
    <path class="cls-5" d="M341.5,89.1h.01v-4.67h-.01v4.67ZM348.53,94.46l-4.99-8.84-4.07,2.3,4.99,8.84,4.07-2.3ZM330.32,103.8c3.3-.62,6.32-2.25,8.86-3.5,2.69-1.33,4.98-2.3,7.37-2.36l-.12-4.67c-3.52.09-6.64,1.52-9.31,2.84-2.82,1.39-5.15,2.63-7.66,3.1l.86,4.59ZM311.06,91.85c1.2,3.92,4.07,7.24,7.51,9.4,3.44,2.16,7.68,3.32,11.75,2.55l-.86-4.59c-2.67.5-5.73-.23-8.41-1.92-2.67-1.68-4.72-4.16-5.53-6.82l-4.47,1.36ZM321.99,87.52c-2.83,1.63-5.67,2.36-7.82,1.48l-1.77,4.32c4.24,1.74,8.78.05,11.92-1.76l-2.33-4.05ZM331.43,82.24c-1.91.63-3.6,1.59-5.12,2.54-1.61,1.01-2.86,1.89-4.32,2.73l2.33,4.05c1.54-.88,3.16-2,4.48-2.83,1.41-.89,2.73-1.61,4.1-2.06l-1.46-4.43ZM343.47,85.49c-1.36-2.09-3.5-3.22-5.63-3.66-2.13-.44-4.41-.25-6.4.41l1.46,4.43c1.29-.43,2.74-.53,3.99-.27,1.24.26,2.14.83,2.67,1.63l3.91-2.55ZM341.5,86.76v-2.34h-4l1.97,3.48,2.03-1.15ZM346.5,95.61l.06,2.33,3.89-.1-1.91-3.39-2.03,1.15ZM329.89,101.51l-.43-2.3h0s.43,2.3.43,2.3ZM313.29,91.16l.88-2.16-4.56-1.86,1.44,4.71,2.23-.68ZM323.16,89.54l-1.16-2.03h0s1.17,2.03,1.17,2.03ZM341.52,86.76v2.34h4.31l-2.35-3.61-1.96,1.27Z"/>
    <path class="cls-6" d="M341.52,86.76c-1.89-2.9-6.06-3.39-9.35-2.3-3.28,1.09-6,3.36-9.01,5.08-2.99,1.72-6.67,2.93-9.87,1.62,2.01,6.57,9.85,11.61,16.6,10.34,5.81-1.09,10.69-5.75,16.6-5.9l-4.99-8.84h.01Z"/>
    <path class="cls-6" d="M341.07,75.98c-1.87.93-10.38,7.91-14.4,11.29l18.29,7.39c2.49,1.87,5.19,2.59,6.23,2.72l15.18,3.11,5.84-3.5,10.9-4.67,32.3,31.91,3.11-.78,1.17-1.95-4.67-24.13-26.47-16.74c-1.25-1.87-2.34-2.85-2.72-3.11l-17.9-5.84c-8.17,1.04-24.99,3.35-26.85,4.28Z"/>
    <circle class="cls-5" cx="332.51" cy="144.48" r="4.28" transform="translate(136.63 449.55) rotate(-80.78)"/>
    <path class="cls-5" d="M324.24,137.14c.95-2.25,3.02-4.71,6.11-5.2,3.07-.48,7.63.9,13.75,7.48l1.71-1.59c-6.33-6.81-11.63-8.86-15.83-8.2-4.18.66-6.77,3.92-7.9,6.6l2.15.91Z"/>
    <path class="cls-5" d="M354.96,141.5c1.77-3.54,5.01-8.08,8.93-10.42,1.94-1.15,3.98-1.73,6.08-1.46,2.09.27,4.4,1.41,6.83,3.98l1.7-1.6c-2.71-2.87-5.48-4.34-8.23-4.7-2.75-.35-5.31.43-7.57,1.77-4.47,2.66-7.96,7.65-9.83,11.38l2.09,1.04Z"/>
    <path class="cls-5" d="M360.76,145.64c1.84.25,4.49.78,6.49,1.53,1.02.38,1.75.78,2.14,1.13.19.17.23.27.23.29,0,0,0,0,0-.01,0,0,0,0-.02.05l2.09,1.04c.28-.56.34-1.16.17-1.75-.17-.55-.52-1-.89-1.34-.73-.67-1.81-1.19-2.9-1.6-2.23-.83-5.07-1.39-6.99-1.66l-.32,2.31ZM361.15,145.62c1.83-.38,4.62-.77,7.03-.73,1.21.02,2.25.15,3.01.39.78.26,1.01.55,1.07.73l2.22-.74c-.41-1.22-1.5-1.87-2.55-2.21-1.08-.35-2.39-.49-3.7-.51-2.64-.04-5.61.38-7.54.78l.47,2.29ZM373.31,137.47c-1.42.07-3.72.47-6.16,1.41-2.44.94-5.09,2.46-7.12,4.83l1.77,1.52c1.71-1.99,3.98-3.32,6.19-4.18,2.21-.85,4.26-1.2,5.44-1.26l-.12-2.33ZM360.92,144.48l-.89-.76-1.39,1.62,2.12.29.16-1.16Z"/>
    <polygon class="cls-8" points="414.09 181.58 394.22 205.45 412.49 225.6 429.2 188.43 414.09 181.58"/>
    <g class="cls-23">
      <path class="cls-5" d="M430.16,186.3l-15.1-6.85-1.93,4.25,15.1,6.85,1.93-4.25ZM414.62,226.56l16.71-37.17-4.26-1.91-16.71,37.17,4.26,1.91ZM392.49,207.01l18.27,20.15,3.46-3.14-18.27-20.15-3.46,3.14ZM412.3,180.08l-19.87,23.87,3.59,2.99,19.87-23.87-3.59-2.99ZM429.2,188.43l2.13.96.95-2.12-2.12-.96-.96,2.13ZM412.49,225.6l-1.73,1.57,2.4,2.64,1.46-3.26-2.13-.96ZM394.22,205.45l-1.79-1.49-1.3,1.56,1.36,1.5,1.73-1.57ZM414.09,181.58l.96-2.13-1.62-.74-1.14,1.37,1.79,1.49Z"/>
    </g>
    <polygon class="cls-8" points="357.91 194.56 375.63 231.47 384.93 254.11 409.26 217.38 394.22 205.44 396.44 220.8 385.59 227.49 373.12 209.38 357.91 194.56"/>
    <g class="cls-24">
      <path class="cls-5" d="M374.75,207.71l-15.21-14.82-3.26,3.34,15.21,14.82,3.26-3.34ZM387.51,226.16l-12.47-18.1-3.85,2.65,12.47,18.1,3.85-2.65ZM395.21,218.81l-10.85,6.69,2.45,3.98,10.85-6.69-2.45-3.98ZM391.91,205.78l2.21,15.35,4.62-.67-2.21-15.35-4.62.67ZM410.72,215.55l-15.04-11.94-2.9,3.66,15.04,11.94,2.9-3.66ZM386.88,255.4l24.33-36.73-3.89-2.58-24.33,36.73,3.89,2.58ZM373.47,232.36l9.3,22.64,4.32-1.78-9.3-22.64-4.32,1.78ZM355.81,195.58l17.72,36.91,4.21-2.02-17.72-36.91-4.21,2.02ZM373.12,209.38l1.92-1.32-.13-.19-.16-.16-1.63,1.67ZM385.59,227.49l-1.92,1.32,1.26,1.83,1.89-1.16-1.23-1.99ZM396.44,220.8l1.23,1.99,1.3-.8-.22-1.52-2.31.33ZM394.22,205.44l1.45-1.83-4.6-3.65.84,5.81,2.31-.33ZM409.26,217.38l1.95,1.29,1.18-1.79-1.68-1.33-1.45,1.83ZM384.93,254.11l-2.16.89,1.67,4.07,2.43-3.67-1.95-1.29ZM375.63,231.47l2.16-.89-.03-.06-.03-.06-2.11,1.01ZM357.91,194.56l1.63-1.67-3.74,2.68,2.11-1.01Z"/>
    </g>
    <path class="cls-8" d="M373.76,236.72l1.17-12.84-1.95-3.89-.78-1.95-1.56-3.11-3.11,1.95-6.23-15.18-.78-5.45,3.11-4.67,5.84-.78,1.17,6.62-1.04-1.04c.15.49.46,1.84,1.04,4.93.93,4.98,4.28,13.49,5.84,17.12l-3.5.39,7.39,13.23,10.9-.39,8.17-9.73c.13-1.43.08-4.98-1.17-7.78-1.25-2.8-1.3-6.88-1.17-8.56l15.96-17.12-.39-7.39h1.56l6.62,1.56,3.11,2.34,2.72,3.5-16.74,29.58h-4.28l-5.84,8.56-1.17,7.39-13.62,22.18-11.29-19.46Z"/>
    <path class="cls-9" d="M393.14,241.07c.01-.31-.04-.61-.18-.89-.09-.31-.25-.58-.48-.8-.16-.13-.33-.27-.49-.4-.27-.18-.55-.27-.86-.3-.19-.06-.4-.06-.61-.01-.31,0-.61.09-.88.25-.18.12-.34.25-.52.37-.31.3-.52.65-.64,1.06-.09.31-.18.62-.28.94-.04.15-.07.31-.12.48-.01.07-.03.16-.04.24-.12.45-.13.89-.03,1.34v.03s0,.09.01.15c.07.21.16.42.24.64.16.33.39.59.68.79.16.16.36.28.58.36.3.16.62.24.97.24.22-.03.45-.04.67-.07.21-.07.42-.16.64-.24.33-.16.59-.39.79-.68.24-.25.4-.55.49-.89.28-.85.13-1.72.07-2.59h-.01Z"/>
    <path class="cls-9" d="M390.48,279.41c.01-.33-.04-.64-.18-.92-.09-.31-.25-.59-.49-.83-.22-.25-.49-.43-.8-.54-.28-.15-.58-.22-.91-.22-.21.01-.42.04-.62.06-.43.1-.8.31-1.13.61-.13.16-.27.34-.42.51-.22.37-.34.77-.34,1.2-.06.64-.12,1.29-.18,1.93-.01.34.04.67.18.97.09.33.27.62.52.88.24.27.52.46.85.56.3.16.61.24.95.24.22-.03.43-.04.65-.07.45-.1.85-.33,1.19-.64.15-.18.28-.36.43-.54.24-.39.36-.82.37-1.26-.03-.65-.06-1.29-.07-1.95h0Z"/>
    <path class="cls-9" d="M384.11,235.23c-4.24,38.87-6.79,78.05-7.43,117.14-.18,11.01-.24,22.07.09,33.09.09,2.85,4.43,2.85,4.44,0,.19-39.1-.06-78.17,1.98-117.23.56-11,1.25-22,1.99-32.98.04-.68-.98-.65-1.06,0h-.01Z"/>
    <path class="cls-5" d="M325.54,210.94c-3.2-4.59-9.03-6.49-14.31-4.68l1.51,4.42c3.31-1.13,6.96.06,8.97,2.93l3.83-2.67ZM311.23,206.26l-9.6,3.29,1.51,4.42,9.6-3.29-1.51-4.42ZM302.3,209.42l-21.65.84.18,4.67,21.65-.84-.18-4.67ZM280.73,210.26c-1.11,0-2.09.44-2.8,1.19-.65.68-.97,1.5-1.14,2.16-.34,1.28-.33,2.76-.33,3.66l4.67-.02c0-.48,0-.94.03-1.39.03-.45.08-.8.14-1.05.07-.27.12-.26.02-.15-.17.18-.42.27-.57.27l-.02-4.67ZM276.48,216.97l-.43,3.36,4.63.59.43-3.36-4.63-.59ZM276.03,220.63c0,1.43.82,2.42,1.68,2.97.77.5,1.65.72,2.36.85,1.44.25,3.1.23,4.09.22l-.05-4.67c-1.09.01-2.3.02-3.23-.15-.48-.08-.64-.18-.63-.17.1.06.45.39.46.94l-4.67.02ZM284.16,224.66c.18,0,.34,0,.48,0l-.02-4.67c-.16,0-.34,0-.51,0l.05,4.67ZM284.46,224.65l16.45,1.24.35-4.66-16.45-1.24-.35,4.66ZM299.03,224.68l1.21,2.21,4.1-2.24-1.21-2.21-4.1,2.24ZM302.69,228.07l11.13-1.92-.79-4.6-11.13,1.92.79,4.6ZM313.47,226.19l18-.37-.1-4.67-18,.37.1,4.67ZM333.76,223.48h0s-4.67-.01-4.67-.01h0s4.67.01,4.67.01ZM331.42,223.46q1.92-1.34,1.92-1.34s0,0,0,0c0,0,0,0,0,0,0,0,0,0,0,0,0,0,0,0,0-.01,0-.01-.02-.03-.04-.05-.03-.05-.08-.12-.14-.2-.12-.18-.31-.44-.54-.77-.46-.66-1.11-1.59-1.86-2.67-1.51-2.17-3.47-4.97-5.21-7.47l-3.83,2.67c1.75,2.5,3.7,5.3,5.21,7.47.76,1.09,1.41,2.02,1.86,2.67.23.33.41.59.54.77.06.09.11.16.14.2.02.02.03.04.04.05,0,0,0,.01,0,.01,0,0,0,0,0,0,0,0,0,0,0,0,0,0,0,0,0,0s0,0,1.92-1.34ZM311.98,208.47l.76,2.21h0s-.76-2.21-.76-2.21ZM302.39,211.75l.09,2.33h.34s.32-.12.32-.12l-.76-2.21ZM280.74,212.59v2.34s.05,0,.05,0h.04s-.09-2.34-.09-2.34ZM278.8,217.26l2.32.3.02-.15v-.15s-2.34,0-2.34,0ZM278.37,220.62l-2.32-.3-.02.15v.15s2.34,0,2.34,0ZM284.14,222.33l-.03-2.34.03,2.34ZM284.63,222.32l.17-2.33h-.09s-.09,0-.09,0v2.34ZM301.08,223.56l2.05-1.12-.61-1.11-1.26-.09-.17,2.33ZM302.29,225.77l-2.05,1.12.8,1.46,1.64-.28-.4-2.3ZM313.43,223.85l-.05-2.33h-.18s-.17.03-.17.03l.4,2.3ZM331.42,223.48l.05,2.33,2.29-.05v-2.29h-2.34ZM323.62,212.27l-1.92,1.34h0s1.92-1.34,1.92-1.34ZM331.42,223.46h2.34v-.73l-.42-.6-1.92,1.34Z"/>
    <path class="cls-4" d="M323.62,212.27c3.49,5.01,7.8,11.19,7.8,11.19h0s-18,.39-18,.39l-11.13,1.92-1.21-2.21-16.45-1.24c-.15,0-.32,0-.5,0-2.08.02-5.76.06-5.77-1.71l.43-3.36c0-1.92.02-4.66,1.95-4.67l21.65-.84,9.6-3.29c4.3-1.47,9.04.07,11.64,3.8Z"/>
    <path class="cls-5" d="M307.76,251.39l-14.1-52.85-4.51,1.2,14.1,52.85,4.51-1.2ZM312.15,247.8l-7.25,1.94,1.2,4.51,7.25-1.94-1.2-4.51ZM296.4,197.81l14.1,52.85,4.51-1.2-14.1-52.85-4.51,1.2ZM292,201.4l7.25-1.94-1.2-4.51-7.25,1.94,1.2,4.51ZM305.5,251.99l-2.26.6.6,2.26,2.26-.6-.6-2.26ZM312.76,250.06l.6,2.26,2.26-.6-.6-2.26-2.26.6ZM298.65,197.21l2.26-.6-.6-2.26-2.26.6.6,2.26ZM291.4,199.14l-.6-2.26-2.26.6.6,2.26,2.26-.6Z"/>
    <rect class="cls-6" x="298.33" y="197.25" width="7.51" height="54.7" transform="translate(-47.69 85.47) rotate(-14.94)"/>
    <path class="cls-5" d="M344.65,246.85h.01s-1.59-4.4-1.59-4.4h-.01s1.59,4.4,1.59,4.4ZM343.87,242.32h-.01v4.67h.01v-4.67ZM341.85,245.85h0s4.01-2.39,4.01-2.39h0s-4.01,2.39-4.01,2.39ZM322.73,210.1l-26.31,5.81,1.01,4.56,26.31-5.81-1.01-4.56ZM297.91,216.07l-12.5-5.81-1.97,4.24,12.5,5.81,1.97-4.24ZM285.47,210.28c-4.47-2.23-9.88-.63-12.44,3.66l4.01,2.39c1.31-2.19,4.07-3,6.35-1.87l2.08-4.18ZM273.03,213.95c-2.55,4.3-1.38,9.85,2.74,12.71l2.66-3.84c-2.09-1.45-2.7-4.28-1.39-6.49l-4.02-2.38ZM275.71,226.61l1.99,1.48,2.79-3.75-1.99-1.48-2.79,3.75ZM277.5,224.52c-1.92,1.79-2.98,4.36-2.73,7.02l4.65-.45c-.11-1.11.34-2.29,1.26-3.15l-3.18-3.42ZM274.78,231.53c.24,2.54,1.36,4.51,2.98,5.83,1.58,1.28,3.51,1.86,5.28,1.94l.23-4.66c-.98-.05-1.89-.36-2.56-.9-.62-.5-1.15-1.3-1.28-2.65l-4.65.44ZM281.84,235.04c-2.48,1.68-4.2,4.86-3.61,8.04l4.59-.84c-.19-1.04.41-2.5,1.65-3.34l-2.63-3.86ZM278.22,243.09c.55,3.02,2.92,5.58,5.83,6.72l1.71-4.35c-1.64-.64-2.72-2.01-2.94-3.21l-4.59.84ZM282.99,246.3c-2.16,3.09-1.08,7.36,1.5,9.67l3.12-3.47c-1.23-1.1-1.31-2.78-.79-3.53l-3.83-2.67ZM284.49,255.97c2.38,2.14,5.56,3.1,8.28,3.64l.91-4.58c-2.5-.5-4.65-1.26-6.07-2.54l-3.12,3.47ZM293.23,257.32q-.46,2.29-.46,2.29s0,0,0,0c0,0,0,0,0,0,0,0,0,0,0,0,0,0,.01,0,.03,0,.02,0,.05.01.1.02.08.02.21.04.37.07.32.06.79.15,1.4.26,1.22.22,2.99.51,5.21.85,4.44.67,10.7,1.49,17.96,2.08l.38-4.65c-7.14-.58-13.29-1.39-17.65-2.05-2.18-.33-3.91-.62-5.09-.83-.59-.1-1.05-.19-1.35-.25-.15-.03-.27-.05-.34-.07-.04,0-.07-.01-.08-.02,0,0-.02,0-.02,0,0,0,0,0,0,0,0,0,0,0,0,0,0,0,0,0,0,0t-.46,2.29ZM316.03,261.77l31.93,53.63,4.01-2.39-31.93-53.63-4.01,2.39ZM347.73,314.91c6.3,19.87,16.98,36.55,31.4,47.39,14.46,10.87,32.56,15.75,53.37,12.19l-.79-4.6c-19.57,3.35-36.36-1.24-49.78-11.32-13.47-10.12-23.67-25.89-29.75-45.06l-4.45,1.41ZM432.51,374.48l1.11-.19-.8-4.6-1.11.19.8,4.6ZM433.22,371.99q1.86-1.41,1.86-1.41s0,0,0,0c0,0,0,0,0-.01,0-.01-.02-.03-.03-.05-.03-.04-.08-.1-.14-.18-.12-.16-.3-.4-.54-.72-.47-.63-1.17-1.56-2.07-2.76-1.8-2.4-4.4-5.88-7.6-10.19-6.4-8.62-15.19-20.55-24.77-33.81-19.18-26.54-41.47-58.29-54.06-79.4l-4.01,2.39c12.72,21.3,35.12,53.21,54.29,79.74,9.6,13.28,18.4,25.22,24.81,33.85,3.2,4.32,5.81,7.8,7.61,10.21.9,1.2,1.6,2.14,2.08,2.77.24.32.42.56.54.72.06.08.11.14.14.18.02.02.03.04.04.05,0,0,0,0,0,.01,0,0,0,0,0,0t1.87-1.41ZM343.06,242.46h0s1.59,4.39,1.59,4.39h0s-1.59-4.39-1.59-4.39ZM346,245.57h0s-4.3-1.81-4.3-1.81h0s4.3,1.81,4.3,1.81ZM345.96,243.66c-4.25-9.03-9.49-17.22-13.64-23.14-2.08-2.96-3.9-5.37-5.2-7.04-.65-.83-1.17-1.48-1.53-1.93-.18-.22-.32-.39-.42-.51-.05-.06-.09-.1-.11-.13-.01-.02-.02-.03-.03-.04,0,0,0,0,0,0,0,0,0,0,0,0,0,0,0,0,0,0t-1.79,1.5q-1.79,1.5-1.79,1.5s0,0,0,0c0,0,0,0,0,0,0,0,0,0,0,0,0,0,.01.02.02.03.02.03.05.06.1.12.09.11.22.27.39.48.34.42.84,1.05,1.47,1.85,1.26,1.62,3.03,3.96,5.06,6.85,4.06,5.79,9.14,13.74,13.24,22.44l4.23-1.99ZM343.87,244.65l.8,2.2-.8-4.53v2.34ZM343.85,244.65v-2.34h-4.11l2.11,3.53,2.01-1.2ZM296.93,218.19l-.98,2.12.72.33.77-.17-.5-2.28ZM284.43,212.38l-1.04,2.09h.03s.03.03.03.03l.98-2.12ZM275.03,215.14l-2.01-1.2h0s2.01,1.2,2.01,1.2ZM277.1,224.74l1.39-1.87-.03-.02-.03-.02-1.33,1.92ZM279.1,226.23l1.59,1.71,2.05-1.91-2.25-1.67-1.39,1.87ZM277.1,231.31l2.32-.22h0s-2.32.22-2.32.22ZM283.15,236.97l1.31,1.93,5.77-3.92-6.97-.34-.11,2.33ZM280.52,242.67l-2.3.42,2.3-.42ZM284.9,247.63l1.92,1.34,1.69-2.43-2.76-1.08-.85,2.17ZM286.05,254.23l-1.56,1.74h0s1.56-1.74,1.56-1.74ZM293.23,257.32l.46-2.29h0s-.46,2.29-.46,2.29ZM318.04,260.57l2.01-1.19-.62-1.03-1.2-.1-.19,2.33ZM349.96,314.2l2.23-.71-.08-.26-.14-.23-2.01,1.19ZM432.11,372.18l.39,2.3h0s-.4-2.3-.4-2.3ZM433.22,371.99l.4,2.3,3.77-.65-2.3-3.05-1.86,1.41ZM343.85,244.66l-2.15-.91-2.07,4.92,5.02-1.82-.8-2.2ZM323.23,212.38l1.79-1.5-.91-1.08-1.38.3.5,2.28ZM343.85,244.66l2.15.91.4-.96-.44-.94-2.11,1Z"/>
    <path class="cls-4" d="M343.85,244.66h0s.01,0,.01,0h-.01ZM323.23,212.38s12.26,14.55,20.62,32.28h0s0,0,0,0c25.31,42.41,89.37,127.33,89.37,127.33l-1.11.19c-40.38,6.91-69.77-18.94-82.15-57.98l-31.93-53.63c-14.4-1.18-24.81-3.25-24.81-3.25-2.62-.52-5.28-1.38-7.18-3.09-1.9-1.71-2.48-4.68-1.14-6.6-2.27-.89-4-2.85-4.38-4.96-.39-2.11.77-4.43,2.63-5.69-2.75-.13-5.68-1.77-6.05-5.66-.18-1.89.57-3.76,2-5.09l-1.99-1.48c-3.11-2.16-4-6.35-2.07-9.6,1.93-3.24,6.02-4.44,9.39-2.76l12.5,5.81,26.31-5.81Z"/>
    <path class="cls-11" d="M323.56,212.98c-.93-2.18-1.95-2.98-2.34-3.11l-10.12,2.72c1.56.62,1.17,1.82.78,2.34l11.68-1.95Z"/>
    <path class="cls-5" d="M281.81,228.83c2.01.94,5.32,2.2,8.79,2.94,3.41.74,7.23,1.04,10.07-.21l-.94-2.14c-2.13.93-5.32.78-8.65.06-3.27-.71-6.41-1.9-8.3-2.78l-.99,2.12Z"/>
    <path class="cls-5" d="M285.28,238.54c.98.49,2.66,1.16,4.58,1.64,1.91.47,4.16.76,6.25.42l-.38-2.3c-1.65.27-3.55.05-5.31-.38-1.75-.43-3.26-1.04-4.1-1.46l-1.04,2.09Z"/>
    <rect class="cls-5" x="287.94" y="245.06" width="2.34" height="5.89" transform="translate(5.07 501.8) rotate(-82.41)"/>
    <path class="cls-12" d="M302.72,167.3c4.1,15.19.94,29.55-7.02,34.14-9.17.06-19.14-10.76-23.26-25.97-4.1-15.21-.94-29.56,7.02-34.14,9.19-.03,19.16,10.78,23.26,25.97Z"/>
    <path class="cls-15" d="M289.17,150.8c-.42-.37-.88-.74-1.43-.86-.55-.12-1.22.1-1.43.62-.13.33-.06.68,0,1.03,1.01,4.98,2.59,9.84,4.68,14.46.7,1.55,1.75,3.91,3.63,4.28,1.59.33,2.78-1.04,3.11-2.47.82-3.52-1.99-8.62-3.8-11.47-1.32-2.07-2.91-3.95-4.76-5.59Z"/>
    <path class="cls-15" d="M293.98,175.69c-.22,1.17.18,2.42.94,3.33,1,1.19,2.79,1.81,4.16,1.1.64-.34,1.11-.92,1.41-1.59.54-1.25.37-2.76-.42-3.86-1.71-2.36-5.5-2.11-6.09,1.03Z"/>
    <path class="cls-5" d="M300.47,167.91c1.97,7.29,2.17,14.3.98,19.96-1.2,5.71-3.73,9.72-6.91,11.55l2.34,4.04c4.77-2.76,7.8-8.23,9.15-14.64,1.36-6.47,1.09-14.23-1.04-22.13l-4.51,1.22ZM279.47,143.67c3.68-.01,7.88,2.18,11.8,6.51,3.88,4.29,7.23,10.45,9.2,17.73l4.51-1.22c-2.13-7.9-5.81-14.74-10.25-19.65-4.39-4.86-9.77-8.06-15.28-8.04l.02,4.67ZM274.7,174.86c-1.97-7.3-2.17-14.31-.98-19.97,1.2-5.71,3.73-9.71,6.91-11.54l-2.33-4.05c-4.77,2.75-7.8,8.22-9.15,14.63-1.36,6.47-1.09,14.24,1.04,22.14l4.51-1.22ZM295.69,199.1c-3.66.02-7.86-2.16-11.78-6.49-3.88-4.29-7.24-10.46-9.21-17.75l-4.51,1.22c2.14,7.91,5.82,14.76,10.26,19.66,4.39,4.86,9.77,8.06,15.27,8.03l-.03-4.67ZM310.49,165.2c-2.36-8.72-6.59-16.17-11.67-21.13-5.03-4.92-11.24-7.71-17.31-6.08l1.21,4.51c3.83-1.03,8.41.58,12.83,4.91,4.38,4.29,8.25,10.95,10.42,19.01l4.51-1.22ZM299.16,203.29c6.07-1.64,10.04-7.18,11.9-13.96,1.88-6.84,1.79-15.41-.56-24.13l-4.51,1.22c2.18,8.06,2.19,15.77.57,21.67-1.64,5.97-4.79,9.65-8.61,10.69l1.22,4.51ZM293.64,204.78l5.51-1.49-1.22-4.51-5.51,1.49,1.22,4.51ZM264.66,177.57c2.36,8.72,6.59,16.17,11.67,21.13,5.03,4.92,11.24,7.71,17.31,6.08l-1.21-4.51c-3.83,1.03-8.41-.58-12.83-4.91-4.38-4.29-8.25-10.95-10.42-19.01l-4.51,1.22ZM276,139.48c-6.07,1.64-10.04,7.18-11.9,13.96-1.88,6.84-1.79,15.41.56,24.13l4.51-1.22c-2.18-8.06-2.19-15.77-.57-21.67,1.64-5.97,4.79-9.65,8.62-10.69l-1.22-4.51ZM281.52,137.99l-5.51,1.49,1.22,4.51,5.51-1.49-1.22-4.51ZM279.46,141.33v-2.34s-.63,0-.63,0l-.54.31,1.17,2.02ZM272.45,175.47l-2.25.61h0s2.25-.61,2.25-.61ZM295.71,201.44l.02,2.34h.62s.54-.31.54-.31l-1.17-2.02ZM298.55,201.04l.61,2.25h0s-.61-2.25-.61-2.25ZM293.03,202.52l.61,2.26h0s-.61-2.26-.61-2.26ZM276.61,141.73l-.61-2.25h0s.61,2.25.61,2.25ZM282.12,140.25l-.61-2.26h0s.61,2.26.61,2.26Z"/>
    <path class="cls-6" d="M295.71,201.44c-9.17.06-19.14-10.76-23.26-25.97-4.1-15.21-.94-29.56,7.02-34.14,9.19-.03,19.16,10.78,23.26,25.97,4.1,15.19.94,29.55-7.02,34.14ZM282.12,140.25l-5.51,1.49c-9.9,2.68-14.22,18.45-9.69,35.23s16.22,28.23,26.11,25.56l5.51-1.49c9.9-2.68,14.22-18.45,9.69-35.23s-16.22-28.23-26.11-25.56Z"/>
    <polygon class="cls-6" points="293.59 207.14 292.03 201.7 295.53 201.7 296.31 201.31 297.87 200.53 299.43 198.97 300.59 204.81 293.59 207.14"/>
    <path class="cls-5" d="M433.24,369.65h-.01v4.67h.01v-4.67ZM386.76,338.04l45.02,35.78,2.91-3.66-45.02-35.78-2.91,3.66ZM430.85,224.55c-13.55,35.58-19.22,61.03-44.71,110.6l4.15,2.14c25.64-49.87,31.53-75.93,44.92-111.07l-4.36-1.66ZM479.04,213.22c-4.28-9.97-12.62-17.02-22.29-16.14-9.63.88-19.07,9.5-25.91,27.46l4.36,1.66c6.63-17.4,15.06-23.84,21.97-24.47,6.88-.63,13.74,4.39,17.57,13.33l4.29-1.84ZM434.81,373.7c23.09-21.41,36.93-54.95,43.64-86.17,3.36-15.64,4.95-30.8,5-43.71.05-12.84-1.43-23.7-4.4-30.6l-4.29,1.84c2.58,6.01,4.06,16.1,4.02,28.74-.04,12.56-1.59,27.39-4.89,42.75-6.61,30.77-20.15,63.24-42.25,83.73l3.18,3.42ZM433.24,371.99v2.34h6.69l-5.24-4.16-1.45,1.83ZM388.21,336.21l-2.08-1.07-.88,1.7,1.5,1.19,1.45-1.83ZM476.9,214.14l2.15-.92h0s-2.15.92-2.15.92ZM433.22,371.99l-1.59-1.71-4.36,4.05h5.95v-2.34Z"/>
    <path class="cls-15" d="M433.22,371.99c45.18-41.9,54.76-132.01,43.68-157.84-8.12-18.91-30.4-24.13-43.87,11.23-13.47,35.36-19.25,61.12-44.81,110.83l45.02,35.78h-.01Z"/>
    <path class="cls-15" d="M478.84,221.54c0-7.78-3.11-14.4-4.67-16.74l-5.45-6.62-7.39-3.11-13.62,1.17-7.39,3.5-12.45,31.53c2.49-1.87,2.85.26,2.72,1.56l48.26-11.29Z"/>
    <path class="cls-5" d="M404.24,321.74l26.92,51.34,4.14-2.17-26.92-51.34-4.14,2.17ZM349.42,258.01l55.11,64.16,3.54-3.04-55.11-64.16-3.54,3.04ZM316.5,293.87l36.33-35.72-3.27-3.33-36.33,35.72,3.27,3.33ZM431.52,370.39c-11.72,12.46-22.56,18-32.57,18.61-10,.61-19.7-3.65-29.21-11.95-19.14-16.69-36.6-48.88-52.73-85.79l-4.28,1.87c16.11,36.86,33.92,69.97,53.94,87.44,10.07,8.78,20.93,13.81,32.57,13.09,11.62-.71,23.5-7.12,35.69-20.08l-3.4-3.2ZM406.31,320.65l2.07-1.08-.12-.24-.17-.2-1.77,1.52ZM351.19,256.49l1.77-1.52-1.63-1.89-1.78,1.75,1.64,1.67ZM314.87,292.2l-1.64-1.67-1.15,1.13.64,1.47,2.14-.94ZM433.22,371.99l1.7,1.6,1.14-1.21-.77-1.47-2.07,1.08Z"/>
    <path class="cls-15" d="M433.22,371.99c-47.81,50.82-86.12-6.02-118.36-79.79l36.33-35.72,55.11,64.16,26.92,51.34Z"/>
    <path class="cls-8" d="M327.5,296.83c-2.6,4.35,4.06,14.3,8.25,13.06,6.91-2.02-4.04-20.11-8.25-13.06Z"/>
    <path class="cls-8" d="M172.31,307.07c-2.6,4.35,4.06,14.3,8.25,13.06,6.91-2.02-4.04-20.11-8.25-13.06Z"/>
    <path class="cls-17" d="M323.76,134.16c6.88-1.21,13.91,5.06,15.56,14.3l.77-.14c-1.68-9.46-8.98-16.24-16.46-14.93l.13.77ZM314.1,152.94c-.82-4.6-.13-9,1.63-12.4,1.76-3.4,4.58-5.77,8.02-6.38l-.13-.77c-3.73.66-6.73,3.22-8.58,6.79-1.85,3.56-2.55,8.14-1.71,12.9l.77-.14ZM329.66,167.24c-3.45.61-6.91-.64-9.74-3.22-2.83-2.58-5-6.47-5.82-11.07l-.77.14c.85,4.75,3.09,8.8,6.06,11.51,2.97,2.71,6.67,4.08,10.4,3.42l-.14-.77ZM339.32,148.46c.82,4.6.13,9-1.63,12.4-1.76,3.4-4.58,5.77-8.02,6.38l.13.77c3.73-.66,6.73-3.22,8.58-6.79,1.85-3.56,2.55-8.14,1.71-12.9l-.77.14ZM329.73,167.62l-.07-.38h0s.07.38.07.38Z"/>
    <path class="cls-17" d="M364.68,130c6.88-1.21,13.91,5.06,15.56,14.3l.77-.14c-1.68-9.46-8.98-16.24-16.46-14.93l.13.77ZM355.02,148.78c-.82-4.6-.13-9,1.63-12.4,1.76-3.4,4.58-5.77,8.02-6.38l-.13-.77c-3.73.66-6.73,3.22-8.58,6.79-1.85,3.56-2.55,8.14-1.71,12.9l.77-.14ZM370.58,163.07c-3.45.61-6.91-.64-9.74-3.22-2.83-2.58-5-6.47-5.82-11.07l-.77.14c.85,4.75,3.09,8.8,6.06,11.51,2.97,2.71,6.67,4.08,10.4,3.42l-.14-.77ZM380.24,144.29c.82,4.6.13,9-1.63,12.4-1.76,3.4-4.58,5.77-8.02,6.38l.13.77c3.73-.66,6.73-3.22,8.58-6.79,1.85-3.56,2.55-8.14,1.71-12.9l-.77.14ZM370.65,163.46l-.07-.38h0s.07.38.07.38Z"/>
    <path class="cls-17" d="M338.58,144.48c3.9-1.18,7.79-.98,10.71-.47,1.46.25,2.68.58,3.52.84.42.13.76.25.98.33.11.04.2.07.26.1.03.01.05.02.06.03,0,0,.01,0,.02,0,0,0,0,0,0,0,0,0,0,0,0,0,0,0,0,0,0,0t.15-.36q.15-.36.15-.36s0,0,0,0c0,0,0,0,0,0,0,0,0,0,0,0,0,0-.01,0-.02,0-.02,0-.04-.02-.07-.03-.06-.02-.15-.06-.27-.1-.24-.09-.58-.21-1.02-.34-.87-.27-2.12-.61-3.62-.87-2.99-.52-7.01-.74-11.07.49l.23.74Z"/>
    <rect class="cls-17" x="379.72" y="139.58" width="20.88" height=".78" transform="translate(-23.19 171) rotate(-24.03)"/>
  </g>
</svg>