<svg width="500" height="250" viewBox="0 0 500 250" fill="none" xmlns="http://www.w3.org/2000/svg">
<mask id="mask0_956_8225" style="mask-type:alpha" maskUnits="userSpaceOnUse" x="0" y="0" width="500" height="250">
<path d="M0 20C0 8.9543 8.9543 0 20 0H480C491.046 0 500 8.9543 500 20V250H0V20Z" fill="#E2F3F1"/>
</mask>
<g mask="url(#mask0_956_8225)">
<path d="M340.823 117.663L309.116 117.563H308.153C305.895 117.563 304.102 115.737 304.102 113.479C304.102 111.222 305.929 109.429 308.186 109.429H305.132C302.874 109.429 301.081 107.569 301.081 105.345C301.081 103.087 302.907 101.295 305.165 101.295H302.509C300.251 101.295 298.458 99.4353 298.458 97.2108C298.458 95.3516 299.72 93.7911 301.446 93.3263H285.842C283.551 93.3263 281.692 91.4671 281.692 89.1762C281.692 86.8854 283.551 85.0261 285.842 85.0261H305.231L337.901 85.1257C337.901 85.1257 338.001 85.1257 338.067 85.1257H352.144L352.044 117.729H340.823V117.663Z" fill="#FFCAB3"/>
<path d="M353.706 119.356L353.805 83.4991L285.81 83.3331C282.589 83.3331 280 85.956 280 89.1433C280 92.3638 282.623 94.9534 285.81 94.9534H297.231C296.932 95.6506 296.766 96.381 296.766 97.1779C296.766 98.7051 297.364 100.166 298.426 101.228C298.957 101.76 299.555 102.158 300.186 102.424C299.688 103.254 299.389 104.25 299.389 105.312C299.389 107.769 300.949 109.894 303.141 110.691C302.676 111.521 302.41 112.45 302.41 113.446C302.41 114.974 303.008 116.401 304.07 117.497C305.166 118.592 306.594 119.19 308.121 119.19L353.639 119.323L353.706 119.356ZM350.485 86.786L350.385 116.036L308.187 115.903C307.556 115.903 306.926 115.638 306.494 115.206C306.029 114.741 305.797 114.143 305.797 113.513C305.797 112.185 306.892 111.122 308.187 111.122V107.802H305.166C303.838 107.802 302.742 106.707 302.776 105.378C302.776 104.05 303.871 102.988 305.199 102.988V99.6679H302.543C301.912 99.6679 301.281 99.4023 300.85 98.9707C300.418 98.5391 300.153 97.9083 300.153 97.2443C300.153 96.1818 300.883 95.2522 301.912 94.9534L313.499 91.6997H285.843C284.482 91.6997 283.353 90.5709 283.353 89.2097C283.353 87.8484 284.482 86.7196 285.843 86.7196L350.518 86.8856L350.485 86.786Z" fill="black"/>
<path d="M344.907 101.394L345.073 85.126H355.962L356.693 117.696L344.774 117.663L344.907 101.394Z" fill="#D0F1FF"/>
<path d="M358.386 119.356L357.589 83.4659H343.413L343.114 119.356H358.386ZM354.336 86.786L355 116.036H346.467L346.733 86.786H354.369H354.336Z" fill="black"/>
<path d="M323.89 113.512C323.89 115.803 322.03 117.663 319.74 117.663H308.285C305.994 117.663 304.135 115.803 304.135 113.512C304.135 111.222 305.994 109.362 308.285 109.362H319.74C322.03 109.362 323.89 111.222 323.89 113.512Z" fill="#FFCAB3"/>
<path d="M308.254 119.323H319.708C322.929 119.323 325.519 116.7 325.519 113.513C325.519 110.326 322.896 107.703 319.708 107.703H308.254C305.034 107.703 302.444 110.326 302.444 113.513C302.444 116.7 305.067 119.323 308.254 119.323ZM319.708 111.023C321.07 111.023 322.198 112.152 322.198 113.513C322.198 114.874 321.07 116.003 319.708 116.003H308.254C306.893 116.003 305.764 114.874 305.764 113.513C305.764 112.152 306.893 111.023 308.254 111.023H319.708Z" fill="black"/>
<path d="M328.438 105.212C328.438 107.503 326.579 109.362 324.288 109.362H305.065C302.774 109.362 300.915 107.503 300.915 105.212C300.915 102.921 302.774 101.062 305.065 101.062H324.288C326.579 101.062 328.438 102.921 328.438 105.212Z" fill="#FFCAB3"/>
<path d="M305.066 111.022H324.289C327.509 111.022 330.099 108.399 330.099 105.212C330.099 102.025 327.476 99.402 324.289 99.402H305.066C301.845 99.402 299.256 102.025 299.256 105.212C299.256 108.399 301.878 111.022 305.066 111.022ZM324.289 102.722C325.65 102.722 326.779 103.851 326.779 105.212C326.779 106.573 325.65 107.702 324.289 107.702H305.066C303.704 107.702 302.576 106.573 302.576 105.212C302.576 103.851 303.704 102.722 305.066 102.722H324.289Z" fill="black"/>
<path d="M328.438 97.1774C328.438 99.4683 326.579 101.328 324.288 101.328H302.475C300.184 101.328 298.325 99.4683 298.325 97.1774C298.325 94.8866 300.184 93.0273 302.475 93.0273H324.288C326.579 93.0273 328.438 94.8866 328.438 97.1774Z" fill="#FFCAB3"/>
<path d="M302.476 102.988H324.289C327.509 102.988 330.099 100.365 330.099 97.1775C330.099 93.9902 327.476 91.3673 324.289 91.3673H302.476C299.256 91.3673 296.666 93.9902 296.666 97.1775C296.666 100.365 299.289 102.988 302.476 102.988ZM324.289 94.6874C325.65 94.6874 326.779 95.8162 326.779 97.1775C326.779 98.5387 325.65 99.6675 324.289 99.6675H302.476C301.115 99.6675 299.986 98.5387 299.986 97.1775C299.986 95.8162 301.115 94.6874 302.476 94.6874H324.289Z" fill="black"/>
<path d="M325.75 81.839L313.366 94.2229C311.739 95.8498 311.739 98.4726 313.366 100.099C314.993 101.726 317.616 101.726 319.243 100.099L331.627 87.7156C333.253 86.0887 333.253 83.4659 331.627 81.839C330 80.2122 327.377 80.2122 325.75 81.839Z" fill="#FFCAB3"/>
<path d="M316.321 102.954C317.881 102.954 319.342 102.357 320.438 101.261L332.821 88.8772C335.079 86.6196 335.079 82.9343 332.821 80.6434C330.63 78.4522 326.812 78.4522 324.588 80.6434L312.204 93.0273C309.946 95.285 309.946 98.9703 312.204 101.261C313.299 102.357 314.76 102.954 316.321 102.954ZM328.705 82.2703C329.369 82.2703 329.999 82.5359 330.464 83.0007C331.427 83.9635 331.427 85.5572 330.464 86.52L318.08 98.9039C317.151 99.8335 315.491 99.8335 314.561 98.9039C313.598 97.9411 313.598 96.3474 314.561 95.3846L326.945 83.0007C327.41 82.5359 328.04 82.2703 328.705 82.2703Z" fill="black"/>
<path d="M355.962 82.0712H529.735V123.34H355.962V82.0712Z" fill="#24BFFF"/>
<path d="M354.302 125H531.396V80.4113H354.302V125ZM528.075 121.68H357.622V83.7313H528.075V121.68Z" fill="black"/>
<path d="M144.363 61.9691L144.381 61.8543V61.7381C144.381 55.0419 144.096 47.6119 142.024 41.8296C140.989 38.9431 139.476 36.3668 137.24 34.5H253.439C265.762 34.5 275.741 44.4784 275.741 56.8019V190.405H124.347L144.363 61.9691Z" fill="#61E8CF" stroke="black" stroke-width="3"/>
<path d="M153 188.355V189.855H154.5H227.19V330.342H105.5V57.2752C105.5 44.6826 115.714 34.5 128.275 34.5C141.089 34.5 153 44.1098 153 56.5L153 188.355Z" fill="#18979E" stroke="black" stroke-width="3"/>
<path d="M152.833 59.4783L242.712 58.1666H274.929V73.0188V106.022V190.405H152.833V59.4783Z" fill="#61E8CF" stroke="black" stroke-width="3"/>
<path d="M190.163 67.3735H261.955V68.8604H190.163V67.3735Z" fill="#34595F" stroke="black" stroke-width="3"/>
<path d="M190.163 76.3467H261.955V77.8336H190.163V76.3467Z" fill="#34595F" stroke="black" stroke-width="3"/>
<path d="M190.163 85.3208H261.955V86.8077H190.163V85.3208Z" fill="#34595F" stroke="black" stroke-width="3"/>
<path d="M190.163 94.261H261.955V95.7479H190.163V94.261Z" fill="#34595F" stroke="black" stroke-width="3"/>
<path d="M190.163 103.235H261.955V104.722H190.163V103.235Z" fill="#34595F" stroke="black" stroke-width="3"/>
<path d="M190.163 112.209H261.955V113.696H190.163V112.209Z" fill="#34595F" stroke="black" stroke-width="3"/>
<path d="M190.163 121.182H261.955V122.669H190.163V121.182Z" fill="#34595F" stroke="black" stroke-width="3"/>
<path d="M190.163 130.123H261.955V131.61H190.163V130.123Z" fill="#34595F" stroke="black" stroke-width="3"/>
<path d="M190.163 139.097H261.955V140.583H190.163V139.097Z" fill="#34595F" stroke="black" stroke-width="3"/>
<path d="M190.163 148.071H261.955V149.557H190.163V148.071Z" fill="#34595F" stroke="black" stroke-width="3"/>
<path d="M182.786 74.5146L178.574 70.3601L167.331 81.3613L161.014 75.1461L156.768 79.3006L167.331 89.6039L182.786 74.5146Z" fill="#EC3B18"/>
<path d="M182.786 105.225L178.574 101.104L167.331 112.071L161.014 105.89L156.768 110.011L167.331 120.347L182.786 105.225Z" fill="#34595F"/>
<path d="M182.786 134.439L178.574 130.285L167.331 141.286L161.014 135.104L156.768 139.225L167.331 149.562V149.529V149.562L182.786 134.439Z" fill="#34595F"/>
<path d="M241.974 165.982L242.005 165.941C241.987 166.008 241.971 166.075 241.956 166.142H241.279C240.554 162.217 237.039 159.262 232.884 159.262C228.73 159.262 225.215 162.217 224.49 166.142H224.091C224.824 162.093 228.468 158.972 232.884 158.972C236.385 158.972 239.439 160.972 240.887 163.833L241.974 165.982Z" fill="#34595F" stroke="black" stroke-width="3"/>
<path d="M598 219.944L320.944 219.944M321.902 219.409C321.925 223.524 318.608 226.879 314.493 226.902C310.378 226.926 307.023 223.609 307 219.494C306.977 215.378 310.293 212.024 314.409 212C318.524 211.977 321.878 215.294 321.902 219.409Z" stroke="#8ECDC7" stroke-width="2"/>
<path d="M653 189.944L375.944 189.944M376.902 189.409C376.925 193.524 373.608 196.879 369.493 196.902C365.378 196.926 362.023 193.609 362 189.494C361.977 185.378 365.293 182.024 369.409 182C373.524 181.977 376.878 185.294 376.902 189.409Z" stroke="#8ECDC7" stroke-width="2"/>
<path d="M467.958 438V160.945M468.494 161.902C464.378 161.926 461.024 158.609 461 154.494C460.977 150.379 464.294 147.024 468.409 147C472.524 146.977 475.879 150.294 475.902 154.409C475.926 158.524 472.609 161.879 468.494 161.902Z" stroke="#8ECDC7" stroke-width="2"/>
<path d="M430.958 488V210.945M431.494 211.902C427.378 211.926 424.024 208.609 424 204.494C423.977 200.378 427.294 197.024 431.409 197C435.524 196.977 438.879 200.294 438.902 204.409C438.926 208.524 435.609 211.879 431.494 211.902Z" stroke="#8ECDC7" stroke-width="2"/>
<path d="M65.9446 -120L65.9446 157.056M65.4088 156.098C69.5239 156.075 72.8788 159.392 72.9022 163.507C72.9256 167.622 69.6087 170.977 65.4936 171C61.3786 171.023 58.0236 167.707 58.0002 163.591C57.9768 159.476 61.2937 156.122 65.4088 156.098Z" stroke="#8ECDC7" stroke-width="2"/>
<path d="M28.9446 -88L28.9446 189.056M28.4088 188.098C32.5239 188.075 35.8788 191.392 35.9022 195.507C35.9256 199.622 32.6087 202.977 28.4936 203C24.3786 203.023 21.0236 199.707 21.0002 195.591C20.9768 191.476 24.2937 188.122 28.4088 188.098Z" stroke="#8ECDC7" stroke-width="2"/>
<path d="M-62 13.9577H215.056M214.098 14.4935C214.075 10.3785 217.392 7.02355 221.507 7.00012C225.622 6.9767 228.977 10.2936 229 14.4087C229.023 18.5238 225.707 21.8787 221.591 21.9021C217.476 21.9255 214.122 18.6086 214.098 14.4935Z" stroke="#8ECDC7" stroke-width="2"/>
<path d="M-193 37.9577H84.0557M83.0981 38.4935C83.0747 34.3785 86.3916 31.0235 90.5067 31.0001C94.6217 30.9767 97.9766 34.2936 98.0001 38.4087C98.0235 42.5238 94.7065 45.8787 90.5915 45.9021C86.4764 45.9255 83.1215 42.6086 83.0981 38.4935Z" stroke="#8ECDC7" stroke-width="2"/>
</g>
</svg>
